G04 EAGLE Gerber RS-274X export*
G75*
%MOMM*%
%FSLAX34Y34*%
%LPD*%
%INTop Copper*%
%IPPOS*%
%AMOC8*
5,1,8,0,0,1.08239X$1,22.5*%
G01*
%ADD10C,0.130000*%
%ADD11C,0.152400*%
%ADD12R,1.300000X1.500000*%
%ADD13R,1.500000X1.300000*%
%ADD14C,1.524000*%
%ADD15R,0.600000X1.050000*%
%ADD16R,1.870000X1.050000*%
%ADD17R,0.950000X0.950000*%
%ADD18R,1.600000X1.400000*%
%ADD19R,0.900000X2.000000*%
%ADD20R,2.000000X0.900000*%
%ADD21R,1.330000X1.330000*%
%ADD22C,1.422400*%
%ADD23R,1.000000X1.000000*%
%ADD24C,1.000000*%
%ADD25P,2.749271X8X22.500000*%
%ADD26C,2.184400*%
%ADD27C,0.304800*%
%ADD28C,0.604000*%
%ADD29C,0.203200*%


D10*
X0Y0D02*
X-114750Y0D01*
X-114750Y320000D02*
X0Y320000D01*
X-95250Y319350D02*
X-95250Y650D01*
X-98442Y26000D01*
X-92058Y26000D01*
X-95250Y650D01*
X-96550Y26000D01*
X-93950Y26000D02*
X-95250Y650D01*
X-97850Y26000D01*
X-92650Y26000D02*
X-95250Y650D01*
X-98442Y294000D02*
X-95250Y319350D01*
X-98442Y294000D02*
X-92058Y294000D01*
X-95250Y319350D01*
X-96550Y294000D01*
X-93950Y294000D02*
X-95250Y319350D01*
X-97850Y294000D01*
X-92650Y294000D02*
X-95250Y319350D01*
D11*
X-101757Y133457D02*
X-101757Y128941D01*
X-101757Y133457D02*
X-101759Y133590D01*
X-101765Y133722D01*
X-101775Y133854D01*
X-101788Y133986D01*
X-101806Y134118D01*
X-101827Y134248D01*
X-101852Y134379D01*
X-101881Y134508D01*
X-101914Y134636D01*
X-101950Y134764D01*
X-101990Y134890D01*
X-102034Y135015D01*
X-102082Y135139D01*
X-102133Y135261D01*
X-102188Y135382D01*
X-102246Y135501D01*
X-102308Y135619D01*
X-102373Y135734D01*
X-102442Y135848D01*
X-102513Y135959D01*
X-102589Y136068D01*
X-102667Y136175D01*
X-102748Y136280D01*
X-102833Y136382D01*
X-102920Y136482D01*
X-103010Y136579D01*
X-103103Y136674D01*
X-103199Y136765D01*
X-103297Y136854D01*
X-103398Y136940D01*
X-103502Y137023D01*
X-103608Y137103D01*
X-103716Y137179D01*
X-103826Y137253D01*
X-103939Y137323D01*
X-104053Y137390D01*
X-104170Y137453D01*
X-104288Y137513D01*
X-104408Y137570D01*
X-104530Y137623D01*
X-104653Y137672D01*
X-104777Y137718D01*
X-104903Y137760D01*
X-105030Y137798D01*
X-105158Y137833D01*
X-105287Y137864D01*
X-105416Y137891D01*
X-105547Y137914D01*
X-105678Y137934D01*
X-105810Y137949D01*
X-105942Y137961D01*
X-106074Y137969D01*
X-106207Y137973D01*
X-106339Y137973D01*
X-106472Y137969D01*
X-106604Y137961D01*
X-106736Y137949D01*
X-106868Y137934D01*
X-106999Y137914D01*
X-107130Y137891D01*
X-107259Y137864D01*
X-107388Y137833D01*
X-107516Y137798D01*
X-107643Y137760D01*
X-107769Y137718D01*
X-107893Y137672D01*
X-108016Y137623D01*
X-108138Y137570D01*
X-108258Y137513D01*
X-108376Y137453D01*
X-108493Y137390D01*
X-108607Y137323D01*
X-108720Y137253D01*
X-108830Y137179D01*
X-108938Y137103D01*
X-109044Y137023D01*
X-109148Y136940D01*
X-109249Y136854D01*
X-109347Y136765D01*
X-109443Y136674D01*
X-109536Y136579D01*
X-109626Y136482D01*
X-109713Y136382D01*
X-109798Y136280D01*
X-109879Y136175D01*
X-109957Y136068D01*
X-110033Y135959D01*
X-110104Y135848D01*
X-110173Y135734D01*
X-110238Y135619D01*
X-110300Y135501D01*
X-110358Y135382D01*
X-110413Y135261D01*
X-110464Y135139D01*
X-110512Y135015D01*
X-110556Y134890D01*
X-110596Y134764D01*
X-110632Y134636D01*
X-110665Y134508D01*
X-110694Y134379D01*
X-110719Y134248D01*
X-110740Y134118D01*
X-110758Y133986D01*
X-110771Y133854D01*
X-110781Y133722D01*
X-110787Y133590D01*
X-110789Y133457D01*
X-118013Y134360D02*
X-118013Y128941D01*
X-118013Y134360D02*
X-118011Y134479D01*
X-118005Y134599D01*
X-117995Y134718D01*
X-117981Y134836D01*
X-117964Y134955D01*
X-117942Y135072D01*
X-117917Y135189D01*
X-117887Y135304D01*
X-117854Y135419D01*
X-117817Y135533D01*
X-117777Y135645D01*
X-117732Y135756D01*
X-117684Y135865D01*
X-117633Y135973D01*
X-117578Y136079D01*
X-117519Y136183D01*
X-117457Y136285D01*
X-117392Y136385D01*
X-117323Y136483D01*
X-117251Y136579D01*
X-117176Y136672D01*
X-117099Y136762D01*
X-117018Y136850D01*
X-116934Y136935D01*
X-116847Y137017D01*
X-116758Y137097D01*
X-116666Y137173D01*
X-116572Y137247D01*
X-116475Y137317D01*
X-116377Y137384D01*
X-116276Y137448D01*
X-116172Y137508D01*
X-116067Y137565D01*
X-115960Y137618D01*
X-115852Y137668D01*
X-115742Y137714D01*
X-115630Y137756D01*
X-115517Y137795D01*
X-115403Y137830D01*
X-115288Y137861D01*
X-115171Y137889D01*
X-115054Y137912D01*
X-114937Y137932D01*
X-114818Y137948D01*
X-114699Y137960D01*
X-114580Y137968D01*
X-114461Y137972D01*
X-114341Y137972D01*
X-114222Y137968D01*
X-114103Y137960D01*
X-113984Y137948D01*
X-113865Y137932D01*
X-113748Y137912D01*
X-113631Y137889D01*
X-113514Y137861D01*
X-113399Y137830D01*
X-113285Y137795D01*
X-113172Y137756D01*
X-113060Y137714D01*
X-112950Y137668D01*
X-112842Y137618D01*
X-112735Y137565D01*
X-112630Y137508D01*
X-112526Y137448D01*
X-112425Y137384D01*
X-112327Y137317D01*
X-112230Y137247D01*
X-112136Y137173D01*
X-112044Y137097D01*
X-111955Y137017D01*
X-111868Y136935D01*
X-111784Y136850D01*
X-111703Y136762D01*
X-111626Y136672D01*
X-111551Y136579D01*
X-111479Y136483D01*
X-111410Y136385D01*
X-111345Y136285D01*
X-111283Y136183D01*
X-111224Y136079D01*
X-111169Y135973D01*
X-111118Y135865D01*
X-111070Y135756D01*
X-111025Y135645D01*
X-110985Y135533D01*
X-110948Y135419D01*
X-110915Y135304D01*
X-110885Y135189D01*
X-110860Y135072D01*
X-110838Y134955D01*
X-110821Y134836D01*
X-110807Y134718D01*
X-110797Y134599D01*
X-110791Y134479D01*
X-110789Y134360D01*
X-110788Y134360D02*
X-110788Y130748D01*
X-118013Y149540D02*
X-118011Y149665D01*
X-118005Y149790D01*
X-117996Y149915D01*
X-117982Y150039D01*
X-117965Y150163D01*
X-117944Y150287D01*
X-117919Y150409D01*
X-117890Y150531D01*
X-117858Y150652D01*
X-117822Y150772D01*
X-117782Y150891D01*
X-117739Y151008D01*
X-117692Y151124D01*
X-117641Y151239D01*
X-117587Y151351D01*
X-117529Y151463D01*
X-117469Y151572D01*
X-117404Y151679D01*
X-117337Y151785D01*
X-117266Y151888D01*
X-117192Y151989D01*
X-117115Y152088D01*
X-117035Y152184D01*
X-116952Y152278D01*
X-116867Y152369D01*
X-116778Y152458D01*
X-116687Y152543D01*
X-116593Y152626D01*
X-116497Y152706D01*
X-116398Y152783D01*
X-116297Y152857D01*
X-116194Y152928D01*
X-116088Y152995D01*
X-115981Y153060D01*
X-115872Y153120D01*
X-115760Y153178D01*
X-115648Y153232D01*
X-115533Y153283D01*
X-115417Y153330D01*
X-115300Y153373D01*
X-115181Y153413D01*
X-115061Y153449D01*
X-114940Y153481D01*
X-114818Y153510D01*
X-114696Y153535D01*
X-114572Y153556D01*
X-114448Y153573D01*
X-114324Y153587D01*
X-114199Y153596D01*
X-114074Y153602D01*
X-113949Y153604D01*
X-118013Y149540D02*
X-118011Y149397D01*
X-118005Y149255D01*
X-117995Y149112D01*
X-117982Y148970D01*
X-117964Y148829D01*
X-117943Y148687D01*
X-117918Y148547D01*
X-117889Y148407D01*
X-117856Y148268D01*
X-117819Y148130D01*
X-117779Y147993D01*
X-117735Y147858D01*
X-117687Y147723D01*
X-117635Y147590D01*
X-117580Y147458D01*
X-117521Y147328D01*
X-117459Y147200D01*
X-117393Y147073D01*
X-117324Y146948D01*
X-117252Y146825D01*
X-117176Y146705D01*
X-117097Y146586D01*
X-117014Y146469D01*
X-116929Y146355D01*
X-116840Y146243D01*
X-116749Y146134D01*
X-116654Y146027D01*
X-116557Y145922D01*
X-116456Y145821D01*
X-116353Y145722D01*
X-116248Y145626D01*
X-116139Y145533D01*
X-116028Y145443D01*
X-115915Y145356D01*
X-115800Y145272D01*
X-115682Y145192D01*
X-115562Y145114D01*
X-115440Y145040D01*
X-115316Y144970D01*
X-115190Y144902D01*
X-115062Y144839D01*
X-114933Y144778D01*
X-114802Y144721D01*
X-114670Y144668D01*
X-114536Y144619D01*
X-114401Y144573D01*
X-110788Y152248D02*
X-110880Y152342D01*
X-110974Y152432D01*
X-111071Y152520D01*
X-111171Y152605D01*
X-111273Y152687D01*
X-111378Y152766D01*
X-111485Y152841D01*
X-111594Y152913D01*
X-111705Y152982D01*
X-111819Y153048D01*
X-111934Y153110D01*
X-112051Y153169D01*
X-112170Y153224D01*
X-112290Y153275D01*
X-112412Y153323D01*
X-112535Y153368D01*
X-112659Y153408D01*
X-112785Y153445D01*
X-112912Y153478D01*
X-113039Y153507D01*
X-113168Y153533D01*
X-113297Y153554D01*
X-113427Y153572D01*
X-113557Y153585D01*
X-113687Y153595D01*
X-113818Y153601D01*
X-113949Y153603D01*
X-110788Y152249D02*
X-101757Y144573D01*
X-101757Y153604D01*
X-101757Y159578D02*
X-102660Y159578D01*
X-102660Y160481D01*
X-101757Y160481D01*
X-101757Y159578D01*
X-109885Y166456D02*
X-110205Y166460D01*
X-110524Y166471D01*
X-110844Y166490D01*
X-111162Y166517D01*
X-111480Y166551D01*
X-111797Y166593D01*
X-112113Y166643D01*
X-112428Y166700D01*
X-112741Y166764D01*
X-113053Y166836D01*
X-113363Y166915D01*
X-113670Y167002D01*
X-113976Y167096D01*
X-114279Y167197D01*
X-114580Y167306D01*
X-114878Y167421D01*
X-115174Y167544D01*
X-115466Y167674D01*
X-115755Y167811D01*
X-115756Y167811D02*
X-115864Y167850D01*
X-115971Y167893D01*
X-116076Y167939D01*
X-116180Y167990D01*
X-116282Y168043D01*
X-116382Y168100D01*
X-116480Y168161D01*
X-116575Y168225D01*
X-116669Y168292D01*
X-116760Y168363D01*
X-116849Y168436D01*
X-116935Y168513D01*
X-117018Y168592D01*
X-117099Y168674D01*
X-117177Y168759D01*
X-117251Y168847D01*
X-117323Y168937D01*
X-117391Y169029D01*
X-117457Y169124D01*
X-117519Y169221D01*
X-117577Y169320D01*
X-117633Y169422D01*
X-117684Y169524D01*
X-117732Y169629D01*
X-117777Y169735D01*
X-117818Y169843D01*
X-117855Y169952D01*
X-117888Y170062D01*
X-117917Y170174D01*
X-117943Y170286D01*
X-117965Y170399D01*
X-117982Y170513D01*
X-117996Y170627D01*
X-118006Y170742D01*
X-118012Y170857D01*
X-118014Y170972D01*
X-118013Y170972D02*
X-118011Y171087D01*
X-118005Y171202D01*
X-117995Y171317D01*
X-117981Y171431D01*
X-117964Y171545D01*
X-117942Y171658D01*
X-117916Y171770D01*
X-117887Y171882D01*
X-117854Y171992D01*
X-117817Y172101D01*
X-117776Y172209D01*
X-117731Y172315D01*
X-117683Y172420D01*
X-117632Y172522D01*
X-117576Y172623D01*
X-117518Y172723D01*
X-117456Y172820D01*
X-117391Y172914D01*
X-117322Y173007D01*
X-117250Y173097D01*
X-117176Y173185D01*
X-117098Y173270D01*
X-117017Y173352D01*
X-116934Y173431D01*
X-116848Y173508D01*
X-116759Y173581D01*
X-116668Y173652D01*
X-116574Y173719D01*
X-116479Y173783D01*
X-116381Y173844D01*
X-116281Y173901D01*
X-116179Y173954D01*
X-116075Y174005D01*
X-115970Y174051D01*
X-115863Y174094D01*
X-115755Y174133D01*
X-115755Y174132D02*
X-115466Y174269D01*
X-115174Y174399D01*
X-114878Y174522D01*
X-114580Y174637D01*
X-114279Y174746D01*
X-113976Y174847D01*
X-113670Y174941D01*
X-113363Y175028D01*
X-113053Y175107D01*
X-112741Y175179D01*
X-112428Y175243D01*
X-112113Y175300D01*
X-111797Y175350D01*
X-111480Y175392D01*
X-111162Y175426D01*
X-110844Y175453D01*
X-110524Y175472D01*
X-110205Y175483D01*
X-109885Y175487D01*
X-109885Y166457D02*
X-109565Y166461D01*
X-109246Y166472D01*
X-108926Y166491D01*
X-108608Y166518D01*
X-108290Y166552D01*
X-107973Y166594D01*
X-107657Y166644D01*
X-107342Y166701D01*
X-107029Y166765D01*
X-106717Y166837D01*
X-106407Y166916D01*
X-106100Y167003D01*
X-105794Y167097D01*
X-105491Y167198D01*
X-105190Y167307D01*
X-104892Y167422D01*
X-104596Y167545D01*
X-104304Y167675D01*
X-104015Y167812D01*
X-104015Y167811D02*
X-103907Y167850D01*
X-103800Y167893D01*
X-103695Y167939D01*
X-103591Y167990D01*
X-103489Y168043D01*
X-103389Y168100D01*
X-103291Y168161D01*
X-103196Y168225D01*
X-103102Y168292D01*
X-103011Y168363D01*
X-102922Y168436D01*
X-102836Y168513D01*
X-102753Y168592D01*
X-102672Y168674D01*
X-102594Y168759D01*
X-102520Y168847D01*
X-102448Y168937D01*
X-102379Y169030D01*
X-102314Y169124D01*
X-102252Y169221D01*
X-102194Y169321D01*
X-102138Y169422D01*
X-102087Y169524D01*
X-102039Y169629D01*
X-101994Y169735D01*
X-101953Y169843D01*
X-101916Y169952D01*
X-101883Y170062D01*
X-101854Y170174D01*
X-101828Y170286D01*
X-101806Y170399D01*
X-101789Y170513D01*
X-101775Y170627D01*
X-101765Y170742D01*
X-101759Y170857D01*
X-101757Y170972D01*
X-104015Y174132D02*
X-104304Y174269D01*
X-104596Y174399D01*
X-104892Y174522D01*
X-105190Y174637D01*
X-105491Y174746D01*
X-105794Y174847D01*
X-106100Y174941D01*
X-106407Y175028D01*
X-106717Y175107D01*
X-107029Y175179D01*
X-107342Y175243D01*
X-107657Y175300D01*
X-107973Y175350D01*
X-108290Y175392D01*
X-108608Y175426D01*
X-108926Y175453D01*
X-109246Y175472D01*
X-109565Y175483D01*
X-109885Y175487D01*
X-104015Y174133D02*
X-103907Y174094D01*
X-103800Y174051D01*
X-103695Y174005D01*
X-103591Y173954D01*
X-103489Y173901D01*
X-103389Y173844D01*
X-103291Y173783D01*
X-103196Y173719D01*
X-103102Y173652D01*
X-103011Y173581D01*
X-102922Y173508D01*
X-102836Y173431D01*
X-102753Y173352D01*
X-102672Y173270D01*
X-102594Y173185D01*
X-102520Y173097D01*
X-102448Y173007D01*
X-102379Y172914D01*
X-102314Y172820D01*
X-102252Y172723D01*
X-102194Y172623D01*
X-102138Y172522D01*
X-102087Y172419D01*
X-102039Y172315D01*
X-101994Y172209D01*
X-101953Y172101D01*
X-101916Y171992D01*
X-101883Y171882D01*
X-101854Y171770D01*
X-101828Y171658D01*
X-101806Y171545D01*
X-101789Y171431D01*
X-101775Y171317D01*
X-101765Y171202D01*
X-101759Y171087D01*
X-101757Y170972D01*
X-105369Y167359D02*
X-114401Y174584D01*
X-109885Y182088D02*
X-110205Y182092D01*
X-110524Y182103D01*
X-110844Y182122D01*
X-111162Y182149D01*
X-111480Y182183D01*
X-111797Y182225D01*
X-112113Y182275D01*
X-112428Y182332D01*
X-112741Y182396D01*
X-113053Y182468D01*
X-113363Y182547D01*
X-113670Y182634D01*
X-113976Y182728D01*
X-114279Y182829D01*
X-114580Y182938D01*
X-114878Y183053D01*
X-115174Y183176D01*
X-115466Y183306D01*
X-115755Y183443D01*
X-115756Y183442D02*
X-115864Y183481D01*
X-115971Y183524D01*
X-116076Y183570D01*
X-116180Y183621D01*
X-116282Y183674D01*
X-116382Y183731D01*
X-116480Y183792D01*
X-116575Y183856D01*
X-116669Y183923D01*
X-116760Y183994D01*
X-116849Y184067D01*
X-116935Y184144D01*
X-117018Y184223D01*
X-117099Y184305D01*
X-117177Y184390D01*
X-117251Y184478D01*
X-117323Y184568D01*
X-117391Y184660D01*
X-117457Y184755D01*
X-117519Y184852D01*
X-117577Y184951D01*
X-117633Y185053D01*
X-117684Y185155D01*
X-117732Y185260D01*
X-117777Y185366D01*
X-117818Y185474D01*
X-117855Y185583D01*
X-117888Y185693D01*
X-117917Y185805D01*
X-117943Y185917D01*
X-117965Y186030D01*
X-117982Y186144D01*
X-117996Y186258D01*
X-118006Y186373D01*
X-118012Y186488D01*
X-118014Y186603D01*
X-118013Y186603D02*
X-118011Y186718D01*
X-118005Y186833D01*
X-117995Y186948D01*
X-117981Y187062D01*
X-117964Y187176D01*
X-117942Y187289D01*
X-117916Y187401D01*
X-117887Y187513D01*
X-117854Y187623D01*
X-117817Y187732D01*
X-117776Y187840D01*
X-117731Y187946D01*
X-117683Y188051D01*
X-117632Y188153D01*
X-117576Y188254D01*
X-117518Y188354D01*
X-117456Y188451D01*
X-117391Y188545D01*
X-117322Y188638D01*
X-117250Y188728D01*
X-117176Y188816D01*
X-117098Y188901D01*
X-117017Y188983D01*
X-116934Y189062D01*
X-116848Y189139D01*
X-116759Y189212D01*
X-116668Y189283D01*
X-116574Y189350D01*
X-116479Y189414D01*
X-116381Y189475D01*
X-116281Y189532D01*
X-116179Y189585D01*
X-116075Y189636D01*
X-115970Y189682D01*
X-115863Y189725D01*
X-115755Y189764D01*
X-115755Y189763D02*
X-115466Y189900D01*
X-115174Y190030D01*
X-114878Y190153D01*
X-114580Y190268D01*
X-114279Y190377D01*
X-113976Y190478D01*
X-113670Y190572D01*
X-113363Y190659D01*
X-113053Y190738D01*
X-112741Y190810D01*
X-112428Y190874D01*
X-112113Y190931D01*
X-111797Y190981D01*
X-111480Y191023D01*
X-111162Y191057D01*
X-110844Y191084D01*
X-110524Y191103D01*
X-110205Y191114D01*
X-109885Y191118D01*
X-109885Y182088D02*
X-109565Y182092D01*
X-109246Y182103D01*
X-108926Y182122D01*
X-108608Y182149D01*
X-108290Y182183D01*
X-107973Y182225D01*
X-107657Y182275D01*
X-107342Y182332D01*
X-107029Y182396D01*
X-106717Y182468D01*
X-106407Y182547D01*
X-106100Y182634D01*
X-105794Y182728D01*
X-105491Y182829D01*
X-105190Y182938D01*
X-104892Y183053D01*
X-104596Y183176D01*
X-104304Y183306D01*
X-104015Y183443D01*
X-104015Y183442D02*
X-103907Y183481D01*
X-103800Y183524D01*
X-103695Y183570D01*
X-103591Y183621D01*
X-103489Y183674D01*
X-103389Y183731D01*
X-103291Y183792D01*
X-103196Y183856D01*
X-103102Y183923D01*
X-103011Y183994D01*
X-102922Y184067D01*
X-102836Y184144D01*
X-102753Y184223D01*
X-102672Y184305D01*
X-102594Y184390D01*
X-102520Y184478D01*
X-102448Y184568D01*
X-102379Y184661D01*
X-102314Y184755D01*
X-102252Y184852D01*
X-102194Y184952D01*
X-102138Y185053D01*
X-102087Y185155D01*
X-102039Y185260D01*
X-101994Y185366D01*
X-101953Y185474D01*
X-101916Y185583D01*
X-101883Y185693D01*
X-101854Y185805D01*
X-101828Y185917D01*
X-101806Y186030D01*
X-101789Y186144D01*
X-101775Y186258D01*
X-101765Y186373D01*
X-101759Y186488D01*
X-101757Y186603D01*
X-104015Y189763D02*
X-104304Y189900D01*
X-104596Y190030D01*
X-104892Y190153D01*
X-105190Y190268D01*
X-105491Y190377D01*
X-105794Y190478D01*
X-106100Y190572D01*
X-106407Y190659D01*
X-106717Y190738D01*
X-107029Y190810D01*
X-107342Y190874D01*
X-107657Y190931D01*
X-107973Y190981D01*
X-108290Y191023D01*
X-108608Y191057D01*
X-108926Y191084D01*
X-109246Y191103D01*
X-109565Y191114D01*
X-109885Y191118D01*
X-104015Y189764D02*
X-103907Y189725D01*
X-103800Y189682D01*
X-103695Y189636D01*
X-103591Y189585D01*
X-103489Y189532D01*
X-103389Y189475D01*
X-103291Y189414D01*
X-103196Y189350D01*
X-103102Y189283D01*
X-103011Y189212D01*
X-102922Y189139D01*
X-102836Y189062D01*
X-102753Y188983D01*
X-102672Y188901D01*
X-102594Y188816D01*
X-102520Y188728D01*
X-102448Y188638D01*
X-102379Y188545D01*
X-102314Y188451D01*
X-102252Y188354D01*
X-102194Y188254D01*
X-102138Y188153D01*
X-102087Y188050D01*
X-102039Y187946D01*
X-101994Y187840D01*
X-101953Y187732D01*
X-101916Y187623D01*
X-101883Y187513D01*
X-101854Y187401D01*
X-101828Y187289D01*
X-101806Y187176D01*
X-101789Y187062D01*
X-101775Y186948D01*
X-101765Y186833D01*
X-101759Y186718D01*
X-101757Y186603D01*
X-105369Y182991D02*
X-114401Y190215D01*
D10*
X619000Y320000D02*
X619003Y368719D01*
X3Y368759D02*
X0Y320040D01*
X652Y349259D02*
X618352Y349219D01*
X593002Y352413D01*
X593002Y346028D01*
X618352Y349219D01*
X593002Y350520D01*
X593002Y347920D02*
X618352Y349219D01*
X593002Y351820D01*
X593002Y346620D02*
X618352Y349219D01*
X26002Y352449D02*
X652Y349259D01*
X26002Y352449D02*
X26002Y346065D01*
X652Y349259D01*
X26002Y350557D01*
X26002Y347957D02*
X652Y349259D01*
X26002Y351857D01*
X26002Y346657D02*
X652Y349259D01*
D11*
X278444Y364779D02*
X283862Y364779D01*
X283862Y364778D02*
X283980Y364776D01*
X284098Y364770D01*
X284216Y364761D01*
X284333Y364747D01*
X284450Y364730D01*
X284567Y364709D01*
X284682Y364684D01*
X284797Y364655D01*
X284911Y364622D01*
X285023Y364586D01*
X285134Y364546D01*
X285244Y364503D01*
X285353Y364456D01*
X285460Y364406D01*
X285565Y364351D01*
X285668Y364294D01*
X285769Y364233D01*
X285869Y364169D01*
X285966Y364102D01*
X286061Y364032D01*
X286153Y363958D01*
X286244Y363882D01*
X286331Y363802D01*
X286416Y363720D01*
X286498Y363635D01*
X286578Y363548D01*
X286654Y363457D01*
X286728Y363365D01*
X286798Y363270D01*
X286865Y363173D01*
X286929Y363073D01*
X286990Y362972D01*
X287047Y362869D01*
X287102Y362764D01*
X287152Y362657D01*
X287199Y362548D01*
X287242Y362438D01*
X287282Y362327D01*
X287318Y362215D01*
X287351Y362101D01*
X287380Y361986D01*
X287405Y361871D01*
X287426Y361754D01*
X287443Y361637D01*
X287457Y361520D01*
X287466Y361402D01*
X287472Y361284D01*
X287474Y361166D01*
X287475Y361166D02*
X287475Y360263D01*
X287473Y360130D01*
X287467Y359998D01*
X287457Y359866D01*
X287444Y359734D01*
X287426Y359602D01*
X287405Y359472D01*
X287380Y359341D01*
X287351Y359212D01*
X287318Y359084D01*
X287282Y358956D01*
X287242Y358830D01*
X287198Y358705D01*
X287150Y358581D01*
X287099Y358459D01*
X287044Y358338D01*
X286986Y358219D01*
X286924Y358101D01*
X286859Y357986D01*
X286790Y357872D01*
X286719Y357761D01*
X286643Y357652D01*
X286565Y357545D01*
X286484Y357440D01*
X286399Y357338D01*
X286312Y357238D01*
X286222Y357141D01*
X286129Y357046D01*
X286033Y356955D01*
X285935Y356866D01*
X285834Y356780D01*
X285730Y356697D01*
X285624Y356617D01*
X285516Y356541D01*
X285406Y356467D01*
X285293Y356397D01*
X285179Y356330D01*
X285062Y356267D01*
X284944Y356207D01*
X284824Y356150D01*
X284702Y356097D01*
X284579Y356048D01*
X284455Y356002D01*
X284329Y355960D01*
X284202Y355922D01*
X284074Y355887D01*
X283945Y355856D01*
X283816Y355829D01*
X283685Y355806D01*
X283554Y355786D01*
X283422Y355771D01*
X283290Y355759D01*
X283158Y355751D01*
X283025Y355747D01*
X282893Y355747D01*
X282760Y355751D01*
X282628Y355759D01*
X282496Y355771D01*
X282364Y355786D01*
X282233Y355806D01*
X282102Y355829D01*
X281973Y355856D01*
X281844Y355887D01*
X281716Y355922D01*
X281589Y355960D01*
X281463Y356002D01*
X281339Y356048D01*
X281216Y356097D01*
X281094Y356150D01*
X280974Y356207D01*
X280856Y356267D01*
X280739Y356330D01*
X280625Y356397D01*
X280512Y356467D01*
X280402Y356541D01*
X280294Y356617D01*
X280188Y356697D01*
X280084Y356780D01*
X279983Y356866D01*
X279885Y356955D01*
X279789Y357046D01*
X279696Y357141D01*
X279606Y357238D01*
X279519Y357338D01*
X279434Y357440D01*
X279353Y357545D01*
X279275Y357652D01*
X279199Y357761D01*
X279128Y357872D01*
X279059Y357986D01*
X278994Y358101D01*
X278932Y358219D01*
X278874Y358338D01*
X278819Y358459D01*
X278768Y358581D01*
X278720Y358705D01*
X278676Y358830D01*
X278636Y358956D01*
X278600Y359084D01*
X278567Y359212D01*
X278538Y359341D01*
X278513Y359472D01*
X278492Y359602D01*
X278474Y359734D01*
X278461Y359866D01*
X278451Y359998D01*
X278445Y360130D01*
X278443Y360263D01*
X278444Y360263D02*
X278444Y364779D01*
X278443Y364779D02*
X278445Y364956D01*
X278452Y365134D01*
X278463Y365311D01*
X278478Y365487D01*
X278497Y365663D01*
X278521Y365839D01*
X278549Y366014D01*
X278582Y366189D01*
X278619Y366362D01*
X278660Y366535D01*
X278705Y366706D01*
X278754Y366876D01*
X278808Y367045D01*
X278865Y367213D01*
X278927Y367379D01*
X278993Y367544D01*
X279063Y367707D01*
X279137Y367868D01*
X279214Y368027D01*
X279296Y368185D01*
X279382Y368340D01*
X279471Y368493D01*
X279564Y368644D01*
X279661Y368793D01*
X279761Y368939D01*
X279865Y369083D01*
X279972Y369224D01*
X280083Y369362D01*
X280197Y369498D01*
X280315Y369631D01*
X280435Y369761D01*
X280559Y369888D01*
X280686Y370012D01*
X280816Y370132D01*
X280949Y370250D01*
X281084Y370364D01*
X281223Y370475D01*
X281364Y370582D01*
X281508Y370686D01*
X281654Y370786D01*
X281803Y370883D01*
X281954Y370976D01*
X282107Y371065D01*
X282262Y371151D01*
X282420Y371233D01*
X282579Y371310D01*
X282740Y371384D01*
X282903Y371454D01*
X283068Y371520D01*
X283234Y371582D01*
X283402Y371639D01*
X283571Y371693D01*
X283741Y371742D01*
X283912Y371787D01*
X284085Y371828D01*
X284258Y371865D01*
X284433Y371898D01*
X284608Y371926D01*
X284784Y371950D01*
X284960Y371969D01*
X285136Y371984D01*
X285313Y371995D01*
X285491Y372002D01*
X285668Y372004D01*
X294075Y368391D02*
X298590Y372004D01*
X298590Y355748D01*
X294075Y355748D02*
X303106Y355748D01*
X309081Y355748D02*
X309081Y356651D01*
X309984Y356651D01*
X309984Y355748D01*
X309081Y355748D01*
X319571Y362973D02*
X324990Y362973D01*
X319571Y362973D02*
X319453Y362975D01*
X319335Y362981D01*
X319217Y362990D01*
X319100Y363004D01*
X318983Y363021D01*
X318866Y363042D01*
X318751Y363067D01*
X318636Y363096D01*
X318522Y363129D01*
X318410Y363165D01*
X318299Y363205D01*
X318189Y363248D01*
X318080Y363295D01*
X317973Y363345D01*
X317868Y363400D01*
X317765Y363457D01*
X317664Y363518D01*
X317564Y363582D01*
X317467Y363649D01*
X317372Y363719D01*
X317280Y363793D01*
X317189Y363869D01*
X317102Y363949D01*
X317017Y364031D01*
X316935Y364116D01*
X316855Y364203D01*
X316779Y364294D01*
X316705Y364386D01*
X316635Y364481D01*
X316568Y364578D01*
X316504Y364678D01*
X316443Y364779D01*
X316386Y364882D01*
X316331Y364987D01*
X316281Y365094D01*
X316234Y365203D01*
X316191Y365313D01*
X316151Y365424D01*
X316115Y365536D01*
X316082Y365650D01*
X316053Y365765D01*
X316028Y365880D01*
X316007Y365997D01*
X315990Y366114D01*
X315976Y366231D01*
X315967Y366349D01*
X315961Y366467D01*
X315959Y366585D01*
X315958Y366585D02*
X315958Y367488D01*
X315960Y367621D01*
X315966Y367753D01*
X315976Y367885D01*
X315989Y368017D01*
X316007Y368149D01*
X316028Y368279D01*
X316053Y368410D01*
X316082Y368539D01*
X316115Y368667D01*
X316151Y368795D01*
X316191Y368921D01*
X316235Y369046D01*
X316283Y369170D01*
X316334Y369292D01*
X316389Y369413D01*
X316447Y369532D01*
X316509Y369650D01*
X316574Y369765D01*
X316643Y369879D01*
X316714Y369990D01*
X316790Y370099D01*
X316868Y370206D01*
X316949Y370311D01*
X317034Y370413D01*
X317121Y370513D01*
X317211Y370610D01*
X317304Y370705D01*
X317400Y370796D01*
X317498Y370885D01*
X317599Y370971D01*
X317703Y371054D01*
X317809Y371134D01*
X317917Y371210D01*
X318027Y371284D01*
X318140Y371354D01*
X318254Y371421D01*
X318371Y371484D01*
X318489Y371544D01*
X318609Y371601D01*
X318731Y371654D01*
X318854Y371703D01*
X318978Y371749D01*
X319104Y371791D01*
X319231Y371829D01*
X319359Y371864D01*
X319488Y371895D01*
X319617Y371922D01*
X319748Y371945D01*
X319879Y371965D01*
X320011Y371980D01*
X320143Y371992D01*
X320275Y372000D01*
X320408Y372004D01*
X320540Y372004D01*
X320673Y372000D01*
X320805Y371992D01*
X320937Y371980D01*
X321069Y371965D01*
X321200Y371945D01*
X321331Y371922D01*
X321460Y371895D01*
X321589Y371864D01*
X321717Y371829D01*
X321844Y371791D01*
X321970Y371749D01*
X322094Y371703D01*
X322217Y371654D01*
X322339Y371601D01*
X322459Y371544D01*
X322577Y371484D01*
X322694Y371421D01*
X322808Y371354D01*
X322921Y371284D01*
X323031Y371210D01*
X323139Y371134D01*
X323245Y371054D01*
X323349Y370971D01*
X323450Y370885D01*
X323548Y370796D01*
X323644Y370705D01*
X323737Y370610D01*
X323827Y370513D01*
X323914Y370413D01*
X323999Y370311D01*
X324080Y370206D01*
X324158Y370099D01*
X324234Y369990D01*
X324305Y369879D01*
X324374Y369765D01*
X324439Y369650D01*
X324501Y369532D01*
X324559Y369413D01*
X324614Y369292D01*
X324665Y369170D01*
X324713Y369046D01*
X324757Y368921D01*
X324797Y368795D01*
X324833Y368667D01*
X324866Y368539D01*
X324895Y368410D01*
X324920Y368279D01*
X324941Y368149D01*
X324959Y368017D01*
X324972Y367885D01*
X324982Y367753D01*
X324988Y367621D01*
X324990Y367488D01*
X324990Y362973D01*
X324988Y362798D01*
X324982Y362624D01*
X324971Y362450D01*
X324956Y362276D01*
X324937Y362102D01*
X324914Y361929D01*
X324887Y361757D01*
X324855Y361585D01*
X324820Y361414D01*
X324780Y361244D01*
X324736Y361075D01*
X324688Y360907D01*
X324636Y360740D01*
X324580Y360575D01*
X324520Y360411D01*
X324457Y360248D01*
X324389Y360088D01*
X324317Y359928D01*
X324242Y359771D01*
X324162Y359615D01*
X324079Y359462D01*
X323993Y359310D01*
X323902Y359161D01*
X323808Y359014D01*
X323711Y358869D01*
X323610Y358726D01*
X323506Y358586D01*
X323398Y358449D01*
X323287Y358314D01*
X323173Y358182D01*
X323056Y358053D01*
X322935Y357926D01*
X322812Y357803D01*
X322685Y357682D01*
X322556Y357565D01*
X322424Y357451D01*
X322289Y357340D01*
X322152Y357232D01*
X322012Y357128D01*
X321869Y357027D01*
X321724Y356930D01*
X321577Y356836D01*
X321428Y356745D01*
X321276Y356659D01*
X321123Y356576D01*
X320967Y356496D01*
X320810Y356421D01*
X320650Y356349D01*
X320490Y356281D01*
X320327Y356218D01*
X320163Y356158D01*
X319998Y356102D01*
X319831Y356050D01*
X319663Y356002D01*
X319494Y355958D01*
X319324Y355918D01*
X319153Y355883D01*
X318981Y355851D01*
X318809Y355824D01*
X318636Y355801D01*
X318462Y355782D01*
X318288Y355767D01*
X318114Y355756D01*
X317940Y355750D01*
X317765Y355748D01*
X331590Y363876D02*
X331594Y364196D01*
X331605Y364515D01*
X331624Y364835D01*
X331651Y365153D01*
X331685Y365471D01*
X331727Y365788D01*
X331777Y366104D01*
X331834Y366419D01*
X331898Y366732D01*
X331970Y367044D01*
X332049Y367354D01*
X332136Y367661D01*
X332230Y367967D01*
X332331Y368270D01*
X332440Y368571D01*
X332555Y368869D01*
X332678Y369165D01*
X332808Y369457D01*
X332945Y369746D01*
X332944Y369746D02*
X332983Y369854D01*
X333026Y369961D01*
X333072Y370066D01*
X333123Y370170D01*
X333176Y370272D01*
X333233Y370372D01*
X333294Y370470D01*
X333358Y370565D01*
X333425Y370659D01*
X333496Y370750D01*
X333569Y370839D01*
X333646Y370925D01*
X333725Y371008D01*
X333807Y371089D01*
X333892Y371167D01*
X333980Y371241D01*
X334070Y371313D01*
X334162Y371381D01*
X334257Y371447D01*
X334354Y371509D01*
X334453Y371567D01*
X334555Y371623D01*
X334657Y371674D01*
X334762Y371722D01*
X334868Y371767D01*
X334976Y371808D01*
X335085Y371845D01*
X335195Y371878D01*
X335307Y371907D01*
X335419Y371933D01*
X335532Y371955D01*
X335646Y371972D01*
X335760Y371986D01*
X335875Y371996D01*
X335990Y372002D01*
X336105Y372004D01*
X336220Y372002D01*
X336335Y371996D01*
X336450Y371986D01*
X336564Y371972D01*
X336678Y371955D01*
X336791Y371933D01*
X336903Y371907D01*
X337015Y371878D01*
X337125Y371845D01*
X337234Y371808D01*
X337342Y371767D01*
X337448Y371722D01*
X337553Y371674D01*
X337655Y371623D01*
X337756Y371567D01*
X337856Y371509D01*
X337953Y371447D01*
X338047Y371382D01*
X338140Y371313D01*
X338230Y371241D01*
X338318Y371167D01*
X338403Y371089D01*
X338485Y371008D01*
X338564Y370925D01*
X338641Y370839D01*
X338714Y370750D01*
X338785Y370659D01*
X338852Y370565D01*
X338916Y370470D01*
X338977Y370372D01*
X339034Y370272D01*
X339087Y370170D01*
X339138Y370066D01*
X339184Y369961D01*
X339227Y369854D01*
X339266Y369746D01*
X339403Y369457D01*
X339533Y369165D01*
X339656Y368869D01*
X339771Y368571D01*
X339880Y368270D01*
X339981Y367967D01*
X340075Y367661D01*
X340162Y367354D01*
X340241Y367044D01*
X340313Y366732D01*
X340377Y366419D01*
X340434Y366104D01*
X340484Y365788D01*
X340526Y365471D01*
X340560Y365153D01*
X340587Y364835D01*
X340606Y364515D01*
X340617Y364196D01*
X340621Y363876D01*
X331590Y363876D02*
X331594Y363556D01*
X331605Y363237D01*
X331624Y362917D01*
X331651Y362599D01*
X331685Y362281D01*
X331727Y361964D01*
X331777Y361648D01*
X331834Y361333D01*
X331898Y361020D01*
X331970Y360708D01*
X332049Y360398D01*
X332136Y360091D01*
X332230Y359785D01*
X332331Y359482D01*
X332440Y359181D01*
X332555Y358883D01*
X332678Y358587D01*
X332808Y358295D01*
X332945Y358006D01*
X332944Y358005D02*
X332983Y357897D01*
X333026Y357790D01*
X333072Y357685D01*
X333123Y357581D01*
X333176Y357479D01*
X333233Y357379D01*
X333294Y357281D01*
X333358Y357186D01*
X333425Y357092D01*
X333496Y357001D01*
X333569Y356912D01*
X333646Y356826D01*
X333725Y356743D01*
X333807Y356662D01*
X333892Y356584D01*
X333980Y356510D01*
X334070Y356438D01*
X334163Y356369D01*
X334257Y356304D01*
X334354Y356242D01*
X334454Y356184D01*
X334555Y356128D01*
X334657Y356077D01*
X334762Y356029D01*
X334868Y355984D01*
X334976Y355943D01*
X335085Y355906D01*
X335195Y355873D01*
X335307Y355844D01*
X335419Y355818D01*
X335532Y355796D01*
X335646Y355779D01*
X335760Y355765D01*
X335875Y355755D01*
X335990Y355749D01*
X336105Y355747D01*
X339265Y358006D02*
X339402Y358295D01*
X339532Y358587D01*
X339655Y358883D01*
X339770Y359181D01*
X339879Y359482D01*
X339980Y359785D01*
X340074Y360091D01*
X340161Y360398D01*
X340240Y360708D01*
X340312Y361020D01*
X340376Y361333D01*
X340433Y361648D01*
X340483Y361964D01*
X340525Y362281D01*
X340559Y362599D01*
X340586Y362917D01*
X340605Y363237D01*
X340616Y363556D01*
X340620Y363876D01*
X339266Y358005D02*
X339227Y357897D01*
X339184Y357790D01*
X339138Y357685D01*
X339087Y357581D01*
X339034Y357479D01*
X338977Y357379D01*
X338916Y357281D01*
X338852Y357186D01*
X338785Y357092D01*
X338714Y357001D01*
X338641Y356912D01*
X338564Y356826D01*
X338485Y356743D01*
X338403Y356662D01*
X338318Y356584D01*
X338230Y356510D01*
X338140Y356438D01*
X338047Y356369D01*
X337953Y356304D01*
X337856Y356242D01*
X337756Y356184D01*
X337655Y356128D01*
X337552Y356077D01*
X337448Y356029D01*
X337342Y355984D01*
X337234Y355943D01*
X337125Y355906D01*
X337015Y355873D01*
X336903Y355844D01*
X336791Y355818D01*
X336678Y355796D01*
X336564Y355779D01*
X336450Y355765D01*
X336335Y355755D01*
X336220Y355749D01*
X336105Y355747D01*
X332493Y359360D02*
X339718Y368391D01*
D12*
X523900Y260350D03*
X542900Y260350D03*
D13*
X552450Y153010D03*
X552450Y134010D03*
D14*
X488950Y50800D03*
X488950Y25400D03*
D15*
X514350Y182800D03*
D16*
X533400Y182800D03*
D15*
X552450Y182800D03*
X552450Y236300D03*
D16*
X533400Y236300D03*
D15*
X514350Y236300D03*
D17*
X444500Y94100D03*
X444500Y109100D03*
D12*
X257150Y139700D03*
X238150Y139700D03*
X259690Y200660D03*
X240690Y200660D03*
D13*
X457200Y28600D03*
X457200Y47600D03*
D18*
X313600Y91800D03*
X397600Y91800D03*
X313600Y136800D03*
X397600Y136800D03*
X313600Y199750D03*
X397600Y199750D03*
X313600Y244750D03*
X397600Y244750D03*
D19*
X17250Y86450D03*
X29950Y86450D03*
X42650Y86450D03*
X55350Y86450D03*
X68050Y86450D03*
X80750Y86450D03*
X93450Y86450D03*
X106150Y86450D03*
X118850Y86450D03*
X131550Y86450D03*
X144250Y86450D03*
X156950Y86450D03*
X169650Y86450D03*
X182350Y86450D03*
D20*
X192350Y114300D03*
X192350Y127000D03*
X192350Y139700D03*
X192350Y152400D03*
X192350Y165100D03*
X192350Y177800D03*
X192350Y190500D03*
X192350Y203200D03*
X192350Y215900D03*
X192350Y228600D03*
D19*
X182350Y256450D03*
X169650Y256450D03*
X156950Y256450D03*
X144250Y256450D03*
X131550Y256450D03*
X118850Y256450D03*
X106150Y256450D03*
X93450Y256450D03*
X80750Y256450D03*
X68050Y256450D03*
X55350Y256450D03*
X42650Y256450D03*
X29950Y256450D03*
X17250Y256450D03*
D21*
X73900Y143100D03*
X73900Y179800D03*
X92250Y143100D03*
X92250Y179800D03*
X110600Y143100D03*
X110600Y179800D03*
D22*
X83075Y161450D03*
X101425Y161450D03*
D14*
X247650Y292100D03*
X273050Y292100D03*
X298450Y292100D03*
X222250Y292100D03*
X196850Y292100D03*
X171450Y292100D03*
X146050Y292100D03*
X120650Y292100D03*
X95250Y292100D03*
X69850Y292100D03*
X44450Y292100D03*
X19050Y292100D03*
D17*
X177800Y45600D03*
X177800Y30600D03*
X285750Y30600D03*
X285750Y45600D03*
D13*
X203200Y28600D03*
X203200Y47600D03*
X311150Y47600D03*
X311150Y28600D03*
D23*
X520700Y152400D03*
D24*
X520700Y139700D03*
X520700Y127000D03*
D14*
X482600Y203200D03*
X482600Y228600D03*
X482600Y254000D03*
X482600Y177800D03*
X482600Y152400D03*
X438150Y203200D03*
X438150Y177800D03*
X438150Y152400D03*
X438150Y228600D03*
X438150Y254000D03*
X387350Y292100D03*
X412750Y292100D03*
X438150Y292100D03*
D12*
X238150Y88900D03*
X257150Y88900D03*
X257150Y114300D03*
X238150Y114300D03*
X240690Y251460D03*
X259690Y251460D03*
X259690Y226060D03*
X240690Y226060D03*
D13*
X393700Y47600D03*
X393700Y28600D03*
X425450Y28600D03*
X425450Y47600D03*
D25*
X88900Y38100D03*
X247650Y38100D03*
X139700Y38100D03*
X499110Y287020D03*
X349250Y38100D03*
X342900Y292100D03*
X584200Y190500D03*
X584200Y247650D03*
D13*
X24384Y50648D03*
X24384Y31648D03*
X49784Y50648D03*
X49784Y31648D03*
X476250Y111100D03*
X476250Y92100D03*
D14*
X585470Y292100D03*
X560070Y292100D03*
X534670Y292100D03*
D26*
X555498Y86100D02*
X577342Y86100D01*
X596420Y49022D02*
X596420Y27178D01*
X536420Y27178D02*
X536420Y49022D01*
D27*
X533400Y127000D02*
X520700Y139700D01*
X533400Y127000D02*
X533400Y119380D01*
X506120Y92100D01*
X476250Y92100D01*
X29950Y86450D02*
X29950Y56214D01*
X24384Y50648D01*
X49784Y50648D01*
X88748Y11684D01*
X210820Y11684D01*
X220980Y21844D01*
X220980Y40640D01*
X214020Y47600D01*
X203200Y47600D01*
X210820Y11684D02*
X294234Y11684D01*
X311150Y28600D01*
X476250Y92100D02*
X477520Y90830D01*
X477520Y68580D01*
X482600Y63500D01*
X497840Y63500D01*
X502920Y58420D01*
X502920Y15240D01*
X499364Y11684D01*
X325120Y11684D01*
X311150Y25654D01*
X311150Y28600D01*
X477520Y67920D02*
X477520Y68580D01*
X477520Y67920D02*
X457200Y47600D01*
X240690Y200660D02*
X228600Y200660D01*
D28*
X228600Y200660D03*
X223520Y149860D03*
D27*
X233680Y139700D01*
X238150Y139700D01*
X231140Y139700D01*
X223520Y132080D01*
X223520Y96520D01*
D28*
X223520Y96520D03*
X220980Y53340D03*
D27*
X215240Y47600D01*
X214020Y47600D01*
D28*
X17780Y274320D03*
X17780Y66040D03*
X38100Y15240D03*
X398780Y114300D03*
X444500Y78740D03*
X533400Y210820D03*
X381000Y200660D03*
X261620Y266700D03*
D27*
X259690Y264770D02*
X259690Y251460D01*
X259690Y264770D02*
X261620Y266700D01*
X397600Y244750D02*
X406850Y254000D01*
X438150Y254000D01*
X533400Y236300D02*
X542900Y245800D01*
X542900Y260350D01*
X533400Y236300D02*
X533400Y210820D01*
X533400Y182800D01*
X384200Y38100D02*
X349250Y38100D01*
X384200Y38100D02*
X393700Y28600D01*
X49784Y31648D02*
X38100Y19964D01*
X38100Y15240D01*
X38100Y17932D02*
X24384Y31648D01*
X38100Y17932D02*
X38100Y15240D01*
X17780Y66040D02*
X17250Y66570D01*
X17250Y86450D01*
X17250Y256450D02*
X17250Y273790D01*
X17780Y274320D01*
D28*
X271780Y91440D03*
D27*
X259690Y91440D02*
X257150Y88900D01*
X259690Y91440D02*
X271780Y91440D01*
D28*
X208280Y119380D03*
D27*
X197430Y119380D02*
X192350Y114300D01*
X197430Y119380D02*
X208280Y119380D01*
X397600Y136800D02*
X398780Y135620D01*
X398780Y114300D01*
X397600Y113120D02*
X397600Y91800D01*
X397600Y113120D02*
X398780Y114300D01*
X444500Y94100D02*
X444500Y78740D01*
X396690Y200660D02*
X381000Y200660D01*
X396690Y200660D02*
X397600Y199750D01*
X83075Y170625D02*
X73900Y179800D01*
X83075Y170625D02*
X83075Y161450D01*
X83075Y170625D02*
X92250Y179800D01*
X101425Y170625D01*
X101425Y161450D01*
X101425Y170625D02*
X110600Y179800D01*
X101425Y152275D02*
X110600Y143100D01*
X101425Y152275D02*
X101425Y161450D01*
X101425Y152275D02*
X92250Y143100D01*
X83075Y152275D01*
X83075Y161450D01*
X83075Y152275D02*
X73900Y143100D01*
X552450Y134010D02*
X566420Y120040D01*
X566420Y86100D01*
D29*
X238150Y88900D02*
X238150Y114300D01*
X44450Y84650D02*
X42650Y86450D01*
X50800Y69850D02*
X63500Y69850D01*
X88900Y44450D01*
X88900Y38100D01*
X203200Y88900D02*
X238150Y88900D01*
D28*
X203200Y88900D03*
D29*
X50800Y69850D02*
X44450Y76200D01*
X44450Y84650D01*
X182350Y256450D02*
X207100Y256450D01*
X240690Y251460D02*
X240690Y226060D01*
X240690Y251460D02*
X235700Y256450D01*
X207100Y256450D01*
X279400Y273050D02*
X298450Y292100D01*
X279400Y273050D02*
X222250Y273050D01*
X207100Y257900D01*
X207100Y256450D01*
X209550Y228600D02*
X192350Y228600D01*
D28*
X209550Y228600D03*
D29*
X169650Y271250D02*
X171450Y273050D01*
X241300Y292100D02*
X247650Y292100D01*
X177800Y273050D02*
X171450Y273050D01*
X177800Y273050D02*
X184150Y279400D01*
X228600Y279400D02*
X241300Y292100D01*
X228600Y279400D02*
X184150Y279400D01*
X169650Y271250D02*
X169650Y256450D01*
X209550Y304800D02*
X222250Y292100D01*
X165100Y304800D02*
X158750Y298450D01*
X165100Y304800D02*
X209550Y304800D01*
X152400Y279400D02*
X146050Y279400D01*
X152400Y279400D02*
X158750Y285750D01*
X158750Y298450D01*
X131550Y264900D02*
X131550Y256450D01*
X131550Y264900D02*
X146050Y279400D01*
X419100Y184150D02*
X438150Y203200D01*
X419100Y184150D02*
X336550Y184150D01*
X317500Y165100D01*
X215900Y165100D01*
X209550Y158750D01*
X209550Y133350D01*
X203200Y127000D01*
X192350Y127000D01*
X368300Y228600D02*
X438150Y228600D01*
X368300Y228600D02*
X311150Y171450D01*
X228600Y171450D01*
X209550Y190500D01*
X209550Y209550D01*
X203200Y215900D01*
X192350Y215900D01*
X156950Y256450D02*
X156950Y271250D01*
X165100Y279400D02*
X177800Y279400D01*
X190500Y292100D02*
X196850Y292100D01*
X165100Y279400D02*
X156950Y271250D01*
X177800Y279400D02*
X190500Y292100D01*
X144250Y271250D02*
X144250Y256450D01*
X144250Y271250D02*
X146050Y273050D01*
X152400Y273050D01*
X171450Y292100D01*
D28*
X134645Y278105D03*
D29*
X118850Y262309D01*
X118850Y256450D01*
X342900Y292100D02*
X355600Y279400D01*
X400050Y279400D01*
X412750Y292100D01*
X146050Y292100D02*
X139700Y292100D01*
X127000Y279400D01*
X106150Y271250D02*
X106150Y256450D01*
X114300Y279400D02*
X127000Y279400D01*
X114300Y279400D02*
X106150Y271250D01*
X80750Y271250D02*
X80750Y256450D01*
X107950Y279400D02*
X120650Y292100D01*
X88900Y279400D02*
X80750Y271250D01*
X88900Y279400D02*
X107950Y279400D01*
X44450Y258250D02*
X42650Y256450D01*
X44450Y258250D02*
X44450Y266700D01*
X57150Y279400D01*
X82550Y279400D02*
X95250Y292100D01*
X82550Y279400D02*
X57150Y279400D01*
X31750Y258250D02*
X29950Y256450D01*
X31750Y258250D02*
X31750Y266700D01*
X44450Y279400D01*
X50800Y279400D01*
X63500Y292100D01*
X69850Y292100D01*
D28*
X114300Y114300D03*
D29*
X131550Y97050D01*
X131550Y86450D01*
D28*
X133350Y107950D03*
D29*
X144250Y97050D01*
X144250Y86450D01*
X147200Y45600D02*
X139700Y38100D01*
X147200Y45600D02*
X177800Y45600D01*
X106150Y78000D02*
X106150Y86450D01*
X139700Y44450D02*
X139700Y38100D01*
X139700Y44450D02*
X106150Y78000D01*
X118850Y78000D02*
X118850Y86450D01*
X118850Y78000D02*
X133350Y63500D01*
X222250Y63500D01*
X247650Y38100D01*
X278250Y38100D01*
X285750Y30600D01*
X57150Y254650D02*
X55350Y256450D01*
X57150Y254650D02*
X57150Y241300D01*
X69850Y228600D01*
X165100Y228600D01*
X176854Y240354D01*
X210496Y240354D02*
X215900Y234950D01*
X215900Y190500D01*
X228600Y177800D01*
X273050Y177800D01*
X292100Y196850D01*
X292100Y254000D01*
X210496Y240354D02*
X176854Y240354D01*
X307594Y269494D02*
X476250Y269494D01*
X482600Y263144D01*
X482600Y254000D01*
X307594Y269494D02*
X292100Y254000D01*
X69850Y254650D02*
X68050Y256450D01*
X69850Y254650D02*
X69850Y241300D01*
X76200Y234950D01*
X166242Y234950D01*
X176000Y244708D01*
X176798Y243910D01*
X213290Y243910D01*
X222250Y234950D02*
X222250Y190500D01*
X228600Y184150D01*
X273050Y184150D01*
X285750Y196850D01*
X285750Y254000D01*
X304800Y273050D01*
X481728Y273050D02*
X495300Y259478D01*
X495300Y241300D01*
X482600Y228600D01*
X222250Y234950D02*
X213290Y243910D01*
X304800Y273050D02*
X481728Y273050D01*
X203200Y28600D02*
X201200Y30600D01*
X177800Y30600D01*
X285750Y45600D02*
X287750Y47600D01*
X311150Y47600D01*
D27*
X514350Y158750D02*
X520700Y152400D01*
X514350Y158750D02*
X514350Y182800D01*
X521310Y153010D02*
X520700Y152400D01*
X521310Y153010D02*
X552450Y153010D01*
X584200Y184760D01*
X584200Y190500D01*
X520700Y127000D02*
X508000Y127000D01*
X482600Y152400D01*
D29*
X438150Y177800D02*
X342900Y177800D01*
X323850Y158750D01*
X222250Y158750D01*
X215900Y152400D01*
X215900Y114300D01*
X188050Y86450D01*
X182350Y86450D01*
X419100Y133350D02*
X438150Y152400D01*
X419100Y133350D02*
X419100Y88900D01*
X404110Y73910D02*
X173740Y73910D01*
X404110Y73910D02*
X419100Y88900D01*
X173740Y73910D02*
X169650Y78000D01*
X169650Y86450D01*
D27*
X584200Y247650D02*
X584200Y267970D01*
X560070Y292100D01*
X547370Y279400D01*
X533400Y279400D01*
X523900Y269900D01*
X523900Y260350D01*
X514350Y250800D02*
X514350Y236300D01*
X514350Y250800D02*
X523900Y260350D01*
X584200Y214550D02*
X552450Y182800D01*
X584200Y214550D02*
X584200Y247650D01*
D29*
X156950Y86450D02*
X156950Y78000D01*
X165100Y69850D01*
X378433Y47600D02*
X393700Y47600D01*
X425450Y47600D01*
X378433Y47600D02*
X356183Y69850D01*
X165100Y69850D01*
X425450Y28600D02*
X457200Y28600D01*
X485750Y28600D01*
X488950Y25400D01*
X474250Y109100D02*
X476250Y111100D01*
X474250Y109100D02*
X444500Y109100D01*
X313600Y199750D02*
X313600Y244750D01*
X273050Y226060D02*
X273050Y266700D01*
X273050Y226060D02*
X273050Y214020D01*
X259690Y200660D01*
D28*
X273050Y266700D03*
X311150Y260350D03*
D29*
X313600Y257900D01*
X313600Y244750D01*
X273050Y226060D02*
X259690Y226060D01*
X313600Y136800D02*
X313600Y91800D01*
X313600Y136800D02*
X310700Y139700D01*
X257150Y139700D01*
X257150Y114300D01*
M02*
