G04 EAGLE Gerber RS-274X export*
G75*
%MOMM*%
%FSLAX34Y34*%
%LPD*%
%INBottom Copper*%
%IPPOS*%
%AMOC8*
5,1,8,0,0,1.08239X$1,22.5*%
G01*
%ADD10C,1.524000*%
%ADD11C,1.422400*%
%ADD12R,1.000000X1.000000*%
%ADD13C,1.000000*%
%ADD14P,2.749271X8X22.500000*%
%ADD15C,2.184400*%
%ADD16C,0.604000*%
%ADD17C,0.304800*%
%ADD18C,0.355600*%
%ADD19C,0.203200*%

G36*
X599466Y3814D02*
X599466Y3814D01*
X599492Y3812D01*
X599639Y3834D01*
X599786Y3851D01*
X599811Y3859D01*
X599837Y3863D01*
X599975Y3918D01*
X600114Y3968D01*
X600136Y3982D01*
X600161Y3992D01*
X600282Y4077D01*
X600407Y4157D01*
X600425Y4176D01*
X600447Y4191D01*
X600546Y4301D01*
X600649Y4408D01*
X600663Y4430D01*
X600680Y4450D01*
X600752Y4580D01*
X600828Y4707D01*
X600836Y4732D01*
X600849Y4755D01*
X600889Y4898D01*
X600934Y5039D01*
X600936Y5065D01*
X600944Y5090D01*
X600963Y5334D01*
X600963Y12484D01*
X600947Y12628D01*
X600935Y12773D01*
X600927Y12801D01*
X600923Y12830D01*
X600874Y12967D01*
X600830Y13106D01*
X600816Y13130D01*
X600806Y13158D01*
X600727Y13280D01*
X600653Y13405D01*
X600633Y13426D01*
X600617Y13451D01*
X600512Y13552D01*
X600411Y13657D01*
X600387Y13673D01*
X600366Y13693D01*
X600241Y13768D01*
X600119Y13847D01*
X600092Y13857D01*
X600067Y13872D01*
X599928Y13916D01*
X599792Y13966D01*
X599763Y13969D01*
X599735Y13978D01*
X599590Y13990D01*
X599446Y14007D01*
X599410Y14004D01*
X599388Y14006D01*
X599339Y13999D01*
X599202Y13988D01*
X598419Y13864D01*
X598419Y37624D01*
X598416Y37650D01*
X598418Y37676D01*
X598396Y37823D01*
X598379Y37970D01*
X598371Y37995D01*
X598367Y38021D01*
X598334Y38102D01*
X598345Y38140D01*
X598390Y38281D01*
X598392Y38307D01*
X598400Y38332D01*
X598419Y38576D01*
X598419Y62336D01*
X599202Y62212D01*
X599347Y62206D01*
X599492Y62194D01*
X599521Y62198D01*
X599550Y62197D01*
X599693Y62224D01*
X599837Y62246D01*
X599864Y62257D01*
X599892Y62262D01*
X600026Y62321D01*
X600161Y62375D01*
X600185Y62391D01*
X600211Y62403D01*
X600328Y62491D01*
X600447Y62573D01*
X600466Y62595D01*
X600490Y62612D01*
X600583Y62724D01*
X600680Y62832D01*
X600694Y62858D01*
X600713Y62880D01*
X600778Y63010D01*
X600849Y63137D01*
X600857Y63165D01*
X600870Y63191D01*
X600904Y63333D01*
X600944Y63473D01*
X600946Y63508D01*
X600952Y63530D01*
X600952Y63579D01*
X600963Y63716D01*
X600963Y66835D01*
X600952Y66935D01*
X600950Y67035D01*
X600932Y67107D01*
X600923Y67181D01*
X600890Y67276D01*
X600865Y67373D01*
X600831Y67439D01*
X600806Y67509D01*
X600751Y67594D01*
X600705Y67683D01*
X600657Y67740D01*
X600617Y67802D01*
X600545Y67872D01*
X600480Y67948D01*
X600420Y67993D01*
X600366Y68044D01*
X600280Y68096D01*
X600199Y68156D01*
X600131Y68185D01*
X600067Y68223D01*
X599972Y68254D01*
X599879Y68294D01*
X599806Y68307D01*
X599735Y68329D01*
X599635Y68337D01*
X599536Y68355D01*
X599462Y68351D01*
X599388Y68357D01*
X599288Y68342D01*
X599188Y68337D01*
X599117Y68317D01*
X599043Y68306D01*
X598950Y68269D01*
X598853Y68241D01*
X598788Y68204D01*
X598719Y68177D01*
X598637Y68120D01*
X598549Y68071D01*
X598473Y68006D01*
X598433Y67978D01*
X598409Y67952D01*
X598363Y67912D01*
X594867Y64416D01*
X594788Y64317D01*
X594704Y64223D01*
X594680Y64181D01*
X594650Y64143D01*
X594596Y64029D01*
X594535Y63918D01*
X594522Y63872D01*
X594501Y63828D01*
X594475Y63705D01*
X594440Y63583D01*
X594435Y63522D01*
X594428Y63487D01*
X594429Y63439D01*
X594421Y63339D01*
X594421Y40099D01*
X582957Y40099D01*
X582957Y48829D01*
X582946Y48929D01*
X582944Y49029D01*
X582926Y49101D01*
X582917Y49175D01*
X582884Y49270D01*
X582859Y49367D01*
X582825Y49433D01*
X582800Y49503D01*
X582745Y49588D01*
X582699Y49677D01*
X582651Y49734D01*
X582611Y49796D01*
X582539Y49866D01*
X582474Y49942D01*
X582414Y49987D01*
X582360Y50038D01*
X582274Y50090D01*
X582193Y50150D01*
X582125Y50179D01*
X582061Y50217D01*
X581965Y50248D01*
X581873Y50288D01*
X581800Y50301D01*
X581729Y50323D01*
X581629Y50332D01*
X581530Y50349D01*
X581456Y50345D01*
X581382Y50351D01*
X581282Y50337D01*
X581182Y50331D01*
X581111Y50311D01*
X581037Y50300D01*
X580944Y50263D01*
X580847Y50235D01*
X580782Y50198D01*
X580713Y50171D01*
X580631Y50114D01*
X580543Y50065D01*
X580467Y50000D01*
X580427Y49972D01*
X580403Y49946D01*
X580357Y49906D01*
X565248Y34797D01*
X550390Y34797D01*
X550364Y34794D01*
X550338Y34796D01*
X550191Y34774D01*
X550044Y34757D01*
X550019Y34749D01*
X549993Y34745D01*
X549855Y34690D01*
X549716Y34640D01*
X549694Y34626D01*
X549669Y34616D01*
X549548Y34531D01*
X549423Y34451D01*
X549405Y34432D01*
X549383Y34417D01*
X549284Y34307D01*
X549181Y34200D01*
X549167Y34178D01*
X549150Y34158D01*
X549078Y34028D01*
X549002Y33901D01*
X548994Y33876D01*
X548981Y33853D01*
X548941Y33710D01*
X548896Y33569D01*
X548894Y33543D01*
X548886Y33518D01*
X548867Y33274D01*
X548867Y24702D01*
X546972Y20127D01*
X543471Y16626D01*
X538896Y14731D01*
X533944Y14731D01*
X529369Y16626D01*
X525868Y20127D01*
X523973Y24702D01*
X523973Y51498D01*
X525868Y56073D01*
X529369Y59574D01*
X533944Y61469D01*
X538896Y61469D01*
X543471Y59574D01*
X546972Y56073D01*
X548867Y51498D01*
X548867Y42926D01*
X548870Y42900D01*
X548868Y42874D01*
X548890Y42727D01*
X548907Y42580D01*
X548915Y42555D01*
X548919Y42529D01*
X548974Y42391D01*
X549024Y42252D01*
X549038Y42230D01*
X549048Y42205D01*
X549133Y42084D01*
X549213Y41959D01*
X549232Y41941D01*
X549247Y41919D01*
X549357Y41820D01*
X549464Y41717D01*
X549486Y41703D01*
X549506Y41686D01*
X549636Y41614D01*
X549763Y41538D01*
X549788Y41530D01*
X549811Y41517D01*
X549954Y41477D01*
X550095Y41432D01*
X550121Y41430D01*
X550146Y41422D01*
X550390Y41403D01*
X561881Y41403D01*
X562007Y41417D01*
X562133Y41424D01*
X562179Y41437D01*
X562227Y41443D01*
X562346Y41485D01*
X562468Y41520D01*
X562510Y41544D01*
X562555Y41560D01*
X562662Y41629D01*
X562772Y41690D01*
X562818Y41730D01*
X562848Y41749D01*
X562882Y41784D01*
X562958Y41849D01*
X598231Y77122D01*
X598310Y77221D01*
X598394Y77315D01*
X598418Y77357D01*
X598448Y77395D01*
X598502Y77509D01*
X598563Y77620D01*
X598576Y77666D01*
X598597Y77710D01*
X598623Y77833D01*
X598658Y77955D01*
X598663Y78016D01*
X598670Y78051D01*
X598669Y78099D01*
X598677Y78199D01*
X598677Y181183D01*
X598666Y181283D01*
X598664Y181383D01*
X598646Y181455D01*
X598637Y181529D01*
X598604Y181624D01*
X598579Y181721D01*
X598545Y181787D01*
X598520Y181857D01*
X598465Y181942D01*
X598419Y182031D01*
X598371Y182088D01*
X598331Y182150D01*
X598259Y182220D01*
X598194Y182296D01*
X598134Y182341D01*
X598080Y182392D01*
X597994Y182444D01*
X597913Y182504D01*
X597845Y182533D01*
X597781Y182571D01*
X597685Y182602D01*
X597593Y182642D01*
X597520Y182655D01*
X597449Y182677D01*
X597349Y182685D01*
X597250Y182703D01*
X597176Y182699D01*
X597102Y182705D01*
X597002Y182690D01*
X596902Y182685D01*
X596831Y182665D01*
X596757Y182654D01*
X596664Y182617D01*
X596567Y182589D01*
X596502Y182552D01*
X596433Y182525D01*
X596351Y182468D01*
X596263Y182419D01*
X596187Y182354D01*
X596147Y182326D01*
X596123Y182300D01*
X596077Y182260D01*
X590092Y176275D01*
X578308Y176275D01*
X569975Y184608D01*
X569975Y196392D01*
X578308Y204725D01*
X590092Y204725D01*
X596077Y198740D01*
X596155Y198678D01*
X596228Y198608D01*
X596292Y198569D01*
X596350Y198523D01*
X596441Y198480D01*
X596527Y198429D01*
X596598Y198406D01*
X596665Y198374D01*
X596763Y198353D01*
X596859Y198323D01*
X596933Y198317D01*
X597006Y198301D01*
X597106Y198303D01*
X597206Y198295D01*
X597280Y198306D01*
X597354Y198307D01*
X597451Y198331D01*
X597551Y198346D01*
X597620Y198374D01*
X597692Y198392D01*
X597782Y198438D01*
X597875Y198475D01*
X597936Y198517D01*
X598002Y198552D01*
X598079Y198617D01*
X598161Y198674D01*
X598211Y198729D01*
X598267Y198777D01*
X598327Y198858D01*
X598394Y198933D01*
X598430Y198998D01*
X598475Y199058D01*
X598514Y199150D01*
X598563Y199238D01*
X598583Y199309D01*
X598613Y199378D01*
X598630Y199476D01*
X598658Y199573D01*
X598666Y199673D01*
X598674Y199721D01*
X598672Y199756D01*
X598677Y199817D01*
X598677Y238333D01*
X598666Y238433D01*
X598664Y238533D01*
X598646Y238605D01*
X598637Y238679D01*
X598604Y238774D01*
X598579Y238871D01*
X598545Y238937D01*
X598520Y239007D01*
X598465Y239092D01*
X598419Y239181D01*
X598371Y239238D01*
X598331Y239300D01*
X598259Y239370D01*
X598194Y239446D01*
X598134Y239491D01*
X598080Y239542D01*
X597994Y239594D01*
X597913Y239654D01*
X597845Y239683D01*
X597781Y239721D01*
X597685Y239752D01*
X597593Y239792D01*
X597520Y239805D01*
X597449Y239827D01*
X597349Y239835D01*
X597250Y239853D01*
X597176Y239849D01*
X597102Y239855D01*
X597002Y239840D01*
X596902Y239835D01*
X596831Y239815D01*
X596757Y239804D01*
X596664Y239767D01*
X596567Y239739D01*
X596502Y239702D01*
X596433Y239675D01*
X596351Y239618D01*
X596263Y239569D01*
X596187Y239504D01*
X596147Y239476D01*
X596123Y239450D01*
X596077Y239410D01*
X590092Y233425D01*
X578308Y233425D01*
X569975Y241758D01*
X569975Y253542D01*
X578308Y261875D01*
X590092Y261875D01*
X596077Y255890D01*
X596155Y255828D01*
X596228Y255758D01*
X596292Y255719D01*
X596350Y255673D01*
X596441Y255630D01*
X596527Y255579D01*
X596598Y255556D01*
X596665Y255524D01*
X596763Y255503D01*
X596859Y255473D01*
X596933Y255467D01*
X597006Y255451D01*
X597106Y255453D01*
X597206Y255445D01*
X597280Y255456D01*
X597354Y255457D01*
X597451Y255481D01*
X597551Y255496D01*
X597620Y255524D01*
X597692Y255542D01*
X597782Y255588D01*
X597875Y255625D01*
X597936Y255667D01*
X598002Y255702D01*
X598079Y255767D01*
X598161Y255824D01*
X598211Y255879D01*
X598267Y255927D01*
X598327Y256008D01*
X598394Y256083D01*
X598430Y256148D01*
X598475Y256208D01*
X598514Y256300D01*
X598563Y256388D01*
X598583Y256459D01*
X598613Y256528D01*
X598630Y256626D01*
X598658Y256723D01*
X598666Y256823D01*
X598674Y256871D01*
X598672Y256906D01*
X598677Y256967D01*
X598677Y297721D01*
X598663Y297847D01*
X598656Y297973D01*
X598643Y298019D01*
X598637Y298067D01*
X598595Y298186D01*
X598560Y298308D01*
X598536Y298350D01*
X598520Y298395D01*
X598451Y298502D01*
X598390Y298612D01*
X598350Y298658D01*
X598331Y298688D01*
X598296Y298722D01*
X598231Y298798D01*
X593946Y303083D01*
X593847Y303162D01*
X593753Y303246D01*
X593711Y303270D01*
X593673Y303300D01*
X593559Y303354D01*
X593448Y303415D01*
X593402Y303428D01*
X593358Y303449D01*
X593235Y303475D01*
X593113Y303510D01*
X593052Y303515D01*
X593017Y303522D01*
X592969Y303521D01*
X592869Y303529D01*
X591713Y303529D01*
X591668Y303524D01*
X591623Y303527D01*
X591496Y303504D01*
X591367Y303489D01*
X591324Y303474D01*
X591280Y303466D01*
X591161Y303415D01*
X591039Y303372D01*
X591001Y303347D01*
X590959Y303329D01*
X590855Y303253D01*
X590746Y303183D01*
X590715Y303150D01*
X590678Y303123D01*
X590594Y303025D01*
X590504Y302932D01*
X590481Y302893D01*
X590451Y302859D01*
X590392Y302744D01*
X590325Y302633D01*
X590311Y302590D01*
X590290Y302549D01*
X590258Y302424D01*
X590219Y302301D01*
X590215Y302256D01*
X590204Y302212D01*
X590201Y302082D01*
X590191Y301954D01*
X590198Y301909D01*
X590197Y301863D01*
X590224Y301737D01*
X590243Y301609D01*
X590260Y301567D01*
X590269Y301522D01*
X590324Y301405D01*
X590372Y301285D01*
X590397Y301248D01*
X590417Y301207D01*
X590497Y301105D01*
X590570Y300999D01*
X590604Y300969D01*
X590632Y300933D01*
X590818Y300774D01*
X592089Y299850D01*
X593220Y298719D01*
X594160Y297425D01*
X594886Y296000D01*
X595329Y294639D01*
X586486Y294639D01*
X586460Y294636D01*
X586434Y294638D01*
X586287Y294616D01*
X586140Y294599D01*
X586115Y294591D01*
X586089Y294587D01*
X585952Y294532D01*
X585812Y294482D01*
X585790Y294468D01*
X585765Y294458D01*
X585644Y294373D01*
X585519Y294293D01*
X585501Y294274D01*
X585479Y294259D01*
X585465Y294243D01*
X585380Y294325D01*
X585357Y294339D01*
X585338Y294356D01*
X585208Y294428D01*
X585081Y294504D01*
X585056Y294512D01*
X585033Y294525D01*
X584890Y294565D01*
X584749Y294610D01*
X584723Y294612D01*
X584698Y294620D01*
X584454Y294639D01*
X575611Y294639D01*
X576054Y296000D01*
X576780Y297425D01*
X577720Y298719D01*
X578851Y299850D01*
X580122Y300774D01*
X580155Y300804D01*
X580194Y300829D01*
X580283Y300922D01*
X580379Y301009D01*
X580404Y301047D01*
X580436Y301080D01*
X580502Y301191D01*
X580575Y301297D01*
X580591Y301340D01*
X580615Y301379D01*
X580654Y301502D01*
X580701Y301622D01*
X580707Y301668D01*
X580721Y301711D01*
X580731Y301840D01*
X580749Y301967D01*
X580745Y302013D01*
X580749Y302058D01*
X580730Y302186D01*
X580718Y302315D01*
X580704Y302358D01*
X580697Y302403D01*
X580649Y302523D01*
X580609Y302646D01*
X580585Y302684D01*
X580568Y302727D01*
X580495Y302833D01*
X580427Y302943D01*
X580395Y302976D01*
X580370Y303013D01*
X580274Y303099D01*
X580183Y303191D01*
X580145Y303216D01*
X580111Y303246D01*
X579997Y303309D01*
X579889Y303378D01*
X579846Y303393D01*
X579806Y303415D01*
X579681Y303450D01*
X579559Y303492D01*
X579514Y303497D01*
X579470Y303510D01*
X579227Y303529D01*
X564032Y303529D01*
X563981Y303524D01*
X563931Y303526D01*
X563809Y303504D01*
X563685Y303489D01*
X563638Y303472D01*
X563588Y303463D01*
X563474Y303414D01*
X563357Y303372D01*
X563315Y303345D01*
X563269Y303325D01*
X563169Y303250D01*
X563064Y303183D01*
X563029Y303147D01*
X562989Y303117D01*
X562909Y303022D01*
X562822Y302932D01*
X562796Y302889D01*
X562764Y302851D01*
X562707Y302740D01*
X562643Y302633D01*
X562628Y302585D01*
X562605Y302540D01*
X562575Y302420D01*
X562537Y302301D01*
X562533Y302251D01*
X562521Y302202D01*
X562519Y302078D01*
X562509Y301954D01*
X562517Y301904D01*
X562516Y301854D01*
X562542Y301732D01*
X562561Y301609D01*
X562579Y301562D01*
X562590Y301513D01*
X562644Y301401D01*
X562690Y301285D01*
X562718Y301244D01*
X562740Y301198D01*
X562817Y301101D01*
X562889Y300999D01*
X562926Y300965D01*
X562957Y300926D01*
X563055Y300849D01*
X563147Y300766D01*
X563191Y300741D01*
X563231Y300710D01*
X563449Y300599D01*
X565250Y299853D01*
X567822Y297280D01*
X569215Y293919D01*
X569215Y290281D01*
X567822Y286920D01*
X565250Y284348D01*
X561889Y282955D01*
X558251Y282955D01*
X554890Y284348D01*
X552318Y286920D01*
X550925Y290281D01*
X550925Y293919D01*
X552318Y297280D01*
X554890Y299853D01*
X556691Y300599D01*
X556735Y300623D01*
X556783Y300640D01*
X556887Y300708D01*
X556996Y300768D01*
X557033Y300802D01*
X557076Y300829D01*
X557162Y300919D01*
X557254Y301002D01*
X557283Y301044D01*
X557318Y301080D01*
X557382Y301187D01*
X557452Y301289D01*
X557471Y301336D01*
X557497Y301379D01*
X557535Y301497D01*
X557580Y301613D01*
X557588Y301663D01*
X557603Y301711D01*
X557613Y301835D01*
X557631Y301958D01*
X557627Y302008D01*
X557631Y302058D01*
X557612Y302181D01*
X557602Y302305D01*
X557587Y302353D01*
X557579Y302403D01*
X557533Y302518D01*
X557495Y302637D01*
X557469Y302680D01*
X557450Y302727D01*
X557380Y302829D01*
X557315Y302935D01*
X557280Y302972D01*
X557251Y303013D01*
X557159Y303096D01*
X557072Y303185D01*
X557030Y303213D01*
X556993Y303246D01*
X556884Y303306D01*
X556779Y303374D01*
X556732Y303391D01*
X556688Y303415D01*
X556568Y303449D01*
X556451Y303490D01*
X556401Y303496D01*
X556352Y303510D01*
X556108Y303529D01*
X551401Y303529D01*
X551275Y303515D01*
X551149Y303508D01*
X551103Y303495D01*
X551055Y303489D01*
X550936Y303447D01*
X550814Y303412D01*
X550772Y303388D01*
X550727Y303372D01*
X550620Y303303D01*
X550510Y303242D01*
X550464Y303202D01*
X550434Y303183D01*
X550400Y303148D01*
X550324Y303083D01*
X543757Y296516D01*
X543709Y296456D01*
X543654Y296403D01*
X543601Y296320D01*
X543540Y296243D01*
X543508Y296174D01*
X543466Y296110D01*
X543433Y296017D01*
X543391Y295928D01*
X543375Y295853D01*
X543350Y295781D01*
X543339Y295683D01*
X543318Y295587D01*
X543319Y295511D01*
X543311Y295435D01*
X543322Y295337D01*
X543324Y295239D01*
X543343Y295165D01*
X543351Y295089D01*
X543397Y294947D01*
X543409Y294901D01*
X543418Y294884D01*
X543427Y294856D01*
X543815Y293919D01*
X543815Y290281D01*
X542422Y286920D01*
X539850Y284348D01*
X536489Y282955D01*
X532851Y282955D01*
X529490Y284348D01*
X526917Y286920D01*
X526529Y287857D01*
X526492Y287924D01*
X526464Y287995D01*
X526408Y288076D01*
X526360Y288162D01*
X526309Y288218D01*
X526265Y288281D01*
X526192Y288347D01*
X526126Y288420D01*
X526063Y288463D01*
X526006Y288514D01*
X525920Y288562D01*
X525839Y288618D01*
X525768Y288646D01*
X525701Y288683D01*
X525606Y288710D01*
X525515Y288746D01*
X525439Y288757D01*
X525366Y288778D01*
X525217Y288790D01*
X525170Y288797D01*
X525151Y288795D01*
X525122Y288797D01*
X521872Y288797D01*
X516951Y293718D01*
X516873Y293781D01*
X516800Y293850D01*
X516736Y293889D01*
X516678Y293935D01*
X516587Y293978D01*
X516501Y294029D01*
X516430Y294052D01*
X516363Y294084D01*
X516265Y294105D01*
X516169Y294135D01*
X516095Y294141D01*
X516022Y294157D01*
X515922Y294155D01*
X515822Y294163D01*
X515748Y294152D01*
X515674Y294151D01*
X515577Y294127D01*
X515477Y294112D01*
X515408Y294084D01*
X515336Y294066D01*
X515246Y294020D01*
X515153Y293983D01*
X515092Y293941D01*
X515026Y293906D01*
X514949Y293841D01*
X514867Y293784D01*
X514817Y293729D01*
X514761Y293681D01*
X514701Y293600D01*
X514634Y293525D01*
X514598Y293460D01*
X514553Y293400D01*
X514514Y293308D01*
X514465Y293220D01*
X514445Y293149D01*
X514415Y293080D01*
X514398Y292982D01*
X514370Y292885D01*
X514362Y292785D01*
X514354Y292737D01*
X514356Y292702D01*
X514351Y292641D01*
X514351Y289813D01*
X500380Y289813D01*
X500354Y289810D01*
X500328Y289812D01*
X500181Y289790D01*
X500034Y289773D01*
X500009Y289765D01*
X499983Y289761D01*
X499846Y289706D01*
X499706Y289656D01*
X499684Y289642D01*
X499659Y289632D01*
X499538Y289547D01*
X499413Y289467D01*
X499395Y289448D01*
X499373Y289433D01*
X499274Y289323D01*
X499171Y289216D01*
X499157Y289194D01*
X499140Y289174D01*
X499108Y289117D01*
X499097Y289132D01*
X499017Y289257D01*
X498998Y289275D01*
X498983Y289297D01*
X498873Y289396D01*
X498766Y289499D01*
X498743Y289513D01*
X498724Y289530D01*
X498594Y289602D01*
X498467Y289678D01*
X498442Y289686D01*
X498419Y289699D01*
X498276Y289739D01*
X498135Y289784D01*
X498109Y289786D01*
X498084Y289794D01*
X497840Y289813D01*
X483869Y289813D01*
X483869Y293333D01*
X489433Y298897D01*
X489496Y298975D01*
X489566Y299048D01*
X489604Y299112D01*
X489650Y299170D01*
X489693Y299261D01*
X489744Y299347D01*
X489767Y299418D01*
X489799Y299485D01*
X489820Y299583D01*
X489851Y299679D01*
X489857Y299753D01*
X489872Y299826D01*
X489870Y299926D01*
X489879Y300026D01*
X489868Y300100D01*
X489866Y300174D01*
X489842Y300271D01*
X489827Y300371D01*
X489799Y300440D01*
X489781Y300512D01*
X489735Y300602D01*
X489698Y300695D01*
X489656Y300756D01*
X489622Y300822D01*
X489556Y300899D01*
X489499Y300981D01*
X489444Y301031D01*
X489396Y301087D01*
X489315Y301147D01*
X489240Y301214D01*
X489175Y301250D01*
X489115Y301295D01*
X489023Y301334D01*
X488935Y301383D01*
X488864Y301403D01*
X488795Y301433D01*
X488697Y301450D01*
X488600Y301478D01*
X488500Y301486D01*
X488452Y301494D01*
X488417Y301492D01*
X488356Y301497D01*
X452849Y301497D01*
X452723Y301483D01*
X452597Y301476D01*
X452551Y301463D01*
X452503Y301457D01*
X452384Y301415D01*
X452262Y301380D01*
X452220Y301356D01*
X452175Y301340D01*
X452068Y301271D01*
X451958Y301210D01*
X451912Y301170D01*
X451882Y301151D01*
X451848Y301116D01*
X451772Y301051D01*
X447237Y296516D01*
X447189Y296456D01*
X447134Y296403D01*
X447081Y296320D01*
X447020Y296243D01*
X446988Y296174D01*
X446946Y296110D01*
X446913Y296017D01*
X446871Y295928D01*
X446855Y295853D01*
X446830Y295781D01*
X446819Y295683D01*
X446798Y295587D01*
X446799Y295511D01*
X446791Y295435D01*
X446802Y295337D01*
X446804Y295239D01*
X446823Y295165D01*
X446831Y295089D01*
X446877Y294947D01*
X446889Y294901D01*
X446898Y294884D01*
X446907Y294856D01*
X447295Y293919D01*
X447295Y290281D01*
X445902Y286920D01*
X443330Y284348D01*
X439969Y282955D01*
X436331Y282955D01*
X432970Y284348D01*
X430398Y286920D01*
X429005Y290281D01*
X429005Y293919D01*
X430398Y297280D01*
X432970Y299852D01*
X436331Y301245D01*
X439969Y301245D01*
X440659Y300959D01*
X440906Y300857D01*
X440980Y300836D01*
X441050Y300805D01*
X441146Y300788D01*
X441241Y300761D01*
X441317Y300757D01*
X441393Y300744D01*
X441491Y300749D01*
X441589Y300744D01*
X441664Y300758D01*
X441741Y300762D01*
X441835Y300789D01*
X441932Y300807D01*
X442002Y300837D01*
X442076Y300858D01*
X442162Y300906D01*
X442252Y300945D01*
X442313Y300991D01*
X442380Y301028D01*
X442494Y301125D01*
X442531Y301153D01*
X442544Y301168D01*
X442566Y301187D01*
X449482Y308103D01*
X511908Y308103D01*
X514289Y305722D01*
X524079Y295932D01*
X524197Y295838D01*
X524312Y295741D01*
X524333Y295730D01*
X524352Y295715D01*
X524488Y295651D01*
X524622Y295582D01*
X524645Y295576D01*
X524667Y295566D01*
X524814Y295534D01*
X524960Y295498D01*
X524984Y295498D01*
X525008Y295493D01*
X525158Y295495D01*
X525309Y295493D01*
X525332Y295498D01*
X525356Y295499D01*
X525502Y295535D01*
X525649Y295567D01*
X525671Y295578D01*
X525694Y295584D01*
X525828Y295653D01*
X525964Y295717D01*
X525983Y295732D01*
X526004Y295743D01*
X526119Y295841D01*
X526236Y295934D01*
X526251Y295953D01*
X526270Y295969D01*
X526359Y296090D01*
X526452Y296208D01*
X526465Y296234D01*
X526477Y296249D01*
X526496Y296293D01*
X526564Y296426D01*
X526917Y297280D01*
X529490Y299852D01*
X532851Y301245D01*
X536489Y301245D01*
X537179Y300959D01*
X537426Y300857D01*
X537500Y300836D01*
X537570Y300805D01*
X537666Y300788D01*
X537761Y300761D01*
X537837Y300757D01*
X537913Y300744D01*
X538011Y300749D01*
X538109Y300744D01*
X538184Y300758D01*
X538261Y300762D01*
X538355Y300789D01*
X538452Y300807D01*
X538522Y300837D01*
X538596Y300858D01*
X538682Y300906D01*
X538772Y300945D01*
X538833Y300991D01*
X538900Y301028D01*
X539014Y301125D01*
X539051Y301153D01*
X539064Y301168D01*
X539086Y301187D01*
X548034Y310135D01*
X596236Y310135D01*
X598363Y308008D01*
X598441Y307946D01*
X598514Y307876D01*
X598578Y307837D01*
X598636Y307791D01*
X598727Y307748D01*
X598813Y307697D01*
X598884Y307674D01*
X598951Y307642D01*
X599049Y307621D01*
X599145Y307591D01*
X599219Y307585D01*
X599292Y307569D01*
X599392Y307571D01*
X599492Y307563D01*
X599566Y307574D01*
X599640Y307575D01*
X599737Y307599D01*
X599837Y307614D01*
X599906Y307642D01*
X599978Y307660D01*
X600068Y307706D01*
X600161Y307743D01*
X600222Y307785D01*
X600288Y307820D01*
X600365Y307885D01*
X600447Y307942D01*
X600497Y307997D01*
X600553Y308045D01*
X600613Y308126D01*
X600680Y308201D01*
X600716Y308266D01*
X600761Y308326D01*
X600800Y308418D01*
X600849Y308506D01*
X600869Y308577D01*
X600899Y308646D01*
X600916Y308744D01*
X600944Y308841D01*
X600952Y308941D01*
X600960Y308989D01*
X600958Y309024D01*
X600963Y309085D01*
X600963Y314666D01*
X600960Y314692D01*
X600962Y314718D01*
X600940Y314865D01*
X600923Y315012D01*
X600915Y315037D01*
X600911Y315063D01*
X600856Y315201D01*
X600806Y315340D01*
X600792Y315362D01*
X600782Y315387D01*
X600697Y315508D01*
X600617Y315633D01*
X600598Y315651D01*
X600583Y315673D01*
X600473Y315772D01*
X600366Y315875D01*
X600344Y315889D01*
X600324Y315906D01*
X600194Y315978D01*
X600067Y316054D01*
X600042Y316062D01*
X600019Y316075D01*
X599876Y316115D01*
X599735Y316160D01*
X599709Y316162D01*
X599684Y316170D01*
X599440Y316189D01*
X5334Y316189D01*
X5308Y316186D01*
X5282Y316188D01*
X5135Y316166D01*
X4988Y316149D01*
X4963Y316141D01*
X4937Y316137D01*
X4799Y316082D01*
X4660Y316032D01*
X4638Y316018D01*
X4613Y316008D01*
X4492Y315923D01*
X4367Y315843D01*
X4349Y315824D01*
X4327Y315809D01*
X4228Y315699D01*
X4125Y315592D01*
X4111Y315570D01*
X4094Y315550D01*
X4022Y315420D01*
X3946Y315293D01*
X3938Y315268D01*
X3925Y315245D01*
X3885Y315102D01*
X3840Y314961D01*
X3838Y314935D01*
X3830Y314910D01*
X3811Y314666D01*
X3811Y5334D01*
X3814Y5308D01*
X3812Y5282D01*
X3834Y5135D01*
X3851Y4988D01*
X3859Y4963D01*
X3863Y4937D01*
X3918Y4799D01*
X3968Y4660D01*
X3982Y4638D01*
X3992Y4613D01*
X4077Y4492D01*
X4157Y4367D01*
X4176Y4349D01*
X4191Y4327D01*
X4301Y4228D01*
X4408Y4125D01*
X4430Y4111D01*
X4450Y4094D01*
X4580Y4022D01*
X4707Y3946D01*
X4732Y3938D01*
X4755Y3925D01*
X4898Y3885D01*
X5039Y3840D01*
X5065Y3838D01*
X5090Y3830D01*
X5334Y3811D01*
X599440Y3811D01*
X599466Y3814D01*
G37*
%LPC*%
G36*
X131467Y103405D02*
X131467Y103405D01*
X129910Y104963D01*
X129811Y105042D01*
X129717Y105126D01*
X129674Y105150D01*
X129637Y105180D01*
X129522Y105234D01*
X129412Y105295D01*
X129365Y105308D01*
X129322Y105329D01*
X129198Y105355D01*
X129076Y105390D01*
X129016Y105395D01*
X128981Y105402D01*
X128933Y105401D01*
X128833Y105409D01*
X62448Y105409D01*
X35559Y132298D01*
X35559Y271367D01*
X35545Y271492D01*
X35538Y271618D01*
X35525Y271665D01*
X35519Y271713D01*
X35477Y271832D01*
X35442Y271953D01*
X35418Y271995D01*
X35402Y272041D01*
X35333Y272147D01*
X35272Y272257D01*
X35232Y272304D01*
X35213Y272334D01*
X35178Y272367D01*
X35113Y272444D01*
X24228Y283329D01*
X24168Y283376D01*
X24115Y283431D01*
X24032Y283484D01*
X23955Y283545D01*
X23886Y283578D01*
X23822Y283619D01*
X23729Y283652D01*
X23640Y283694D01*
X23565Y283710D01*
X23493Y283736D01*
X23395Y283747D01*
X23299Y283768D01*
X23223Y283766D01*
X23147Y283775D01*
X23049Y283763D01*
X22951Y283762D01*
X22877Y283743D01*
X22801Y283734D01*
X22659Y283688D01*
X22613Y283677D01*
X22596Y283668D01*
X22568Y283659D01*
X20869Y282955D01*
X17231Y282955D01*
X13870Y284348D01*
X11298Y286920D01*
X9905Y290281D01*
X9905Y293919D01*
X11298Y297280D01*
X13870Y299852D01*
X17231Y301245D01*
X20869Y301245D01*
X24230Y299852D01*
X26802Y297280D01*
X28195Y293919D01*
X28195Y290281D01*
X27491Y288582D01*
X27470Y288508D01*
X27440Y288438D01*
X27422Y288342D01*
X27395Y288247D01*
X27392Y288171D01*
X27378Y288095D01*
X27383Y287997D01*
X27378Y287899D01*
X27392Y287824D01*
X27396Y287747D01*
X27423Y287653D01*
X27441Y287556D01*
X27471Y287486D01*
X27493Y287412D01*
X27541Y287326D01*
X27580Y287236D01*
X27625Y287175D01*
X27663Y287108D01*
X27759Y286994D01*
X27788Y286957D01*
X27802Y286944D01*
X27821Y286922D01*
X38706Y276037D01*
X39309Y275434D01*
X39387Y275372D01*
X39460Y275302D01*
X39524Y275264D01*
X39582Y275218D01*
X39673Y275175D01*
X39759Y275123D01*
X39830Y275101D01*
X39897Y275069D01*
X39995Y275048D01*
X40091Y275017D01*
X40165Y275011D01*
X40238Y274995D01*
X40338Y274997D01*
X40438Y274989D01*
X40512Y275000D01*
X40586Y275001D01*
X40683Y275026D01*
X40783Y275041D01*
X40852Y275068D01*
X40924Y275086D01*
X41013Y275132D01*
X41107Y275169D01*
X41168Y275212D01*
X41234Y275246D01*
X41311Y275311D01*
X41393Y275368D01*
X41443Y275423D01*
X41499Y275472D01*
X41559Y275553D01*
X41626Y275627D01*
X41662Y275692D01*
X41707Y275752D01*
X41746Y275844D01*
X41795Y275932D01*
X41815Y276004D01*
X41845Y276072D01*
X41862Y276171D01*
X41890Y276268D01*
X41898Y276368D01*
X41906Y276415D01*
X41904Y276451D01*
X41909Y276511D01*
X41909Y282236D01*
X41901Y282312D01*
X41902Y282389D01*
X41881Y282485D01*
X41869Y282583D01*
X41844Y282655D01*
X41827Y282729D01*
X41785Y282818D01*
X41752Y282911D01*
X41710Y282975D01*
X41678Y283044D01*
X41616Y283121D01*
X41563Y283204D01*
X41508Y283257D01*
X41460Y283316D01*
X41383Y283377D01*
X41312Y283446D01*
X41247Y283485D01*
X41187Y283532D01*
X41054Y283600D01*
X41013Y283625D01*
X40995Y283630D01*
X40969Y283644D01*
X39270Y284347D01*
X36698Y286920D01*
X35305Y290281D01*
X35305Y293919D01*
X36698Y297280D01*
X39270Y299852D01*
X42631Y301245D01*
X46269Y301245D01*
X49630Y299852D01*
X52202Y297280D01*
X53595Y293919D01*
X53595Y290281D01*
X52202Y286920D01*
X49630Y284347D01*
X47931Y283644D01*
X47864Y283607D01*
X47793Y283578D01*
X47712Y283522D01*
X47626Y283474D01*
X47570Y283423D01*
X47507Y283379D01*
X47441Y283306D01*
X47368Y283240D01*
X47325Y283177D01*
X47274Y283121D01*
X47226Y283035D01*
X47170Y282954D01*
X47142Y282882D01*
X47105Y282816D01*
X47078Y282721D01*
X47042Y282629D01*
X47031Y282554D01*
X47010Y282480D01*
X46998Y282331D01*
X46991Y282285D01*
X46993Y282265D01*
X46991Y282236D01*
X46991Y141383D01*
X47005Y141258D01*
X47012Y141132D01*
X47025Y141085D01*
X47031Y141037D01*
X47073Y140918D01*
X47108Y140797D01*
X47132Y140755D01*
X47148Y140709D01*
X47217Y140603D01*
X47278Y140493D01*
X47318Y140446D01*
X47337Y140416D01*
X47372Y140383D01*
X47437Y140306D01*
X70456Y117287D01*
X70555Y117208D01*
X70649Y117124D01*
X70691Y117100D01*
X70729Y117070D01*
X70843Y117016D01*
X70954Y116955D01*
X71001Y116942D01*
X71044Y116921D01*
X71168Y116895D01*
X71290Y116860D01*
X71350Y116855D01*
X71385Y116848D01*
X71433Y116849D01*
X71533Y116841D01*
X109783Y116841D01*
X109908Y116855D01*
X110034Y116862D01*
X110081Y116875D01*
X110129Y116881D01*
X110248Y116923D01*
X110369Y116958D01*
X110411Y116982D01*
X110457Y116998D01*
X110563Y117067D01*
X110673Y117128D01*
X110720Y117168D01*
X110750Y117187D01*
X110783Y117222D01*
X110860Y117287D01*
X112417Y118845D01*
X116183Y118845D01*
X118845Y116183D01*
X118845Y112014D01*
X118848Y111988D01*
X118846Y111962D01*
X118868Y111815D01*
X118885Y111668D01*
X118893Y111643D01*
X118897Y111617D01*
X118952Y111479D01*
X119002Y111340D01*
X119016Y111318D01*
X119026Y111293D01*
X119111Y111172D01*
X119191Y111047D01*
X119210Y111029D01*
X119225Y111007D01*
X119335Y110908D01*
X119442Y110805D01*
X119464Y110791D01*
X119484Y110774D01*
X119614Y110702D01*
X119741Y110626D01*
X119766Y110618D01*
X119789Y110605D01*
X119932Y110565D01*
X120073Y110520D01*
X120099Y110518D01*
X120124Y110510D01*
X120368Y110491D01*
X128833Y110491D01*
X128958Y110505D01*
X129084Y110512D01*
X129131Y110525D01*
X129179Y110531D01*
X129298Y110573D01*
X129419Y110608D01*
X129461Y110632D01*
X129507Y110648D01*
X129613Y110717D01*
X129723Y110778D01*
X129770Y110818D01*
X129800Y110837D01*
X129833Y110872D01*
X129910Y110937D01*
X131467Y112495D01*
X135233Y112495D01*
X137895Y109833D01*
X137895Y106067D01*
X135233Y103405D01*
X131467Y103405D01*
G37*
%LPD*%
%LPC*%
G36*
X132763Y273560D02*
X132763Y273560D01*
X130101Y276222D01*
X130101Y279987D01*
X130363Y280250D01*
X130442Y280349D01*
X130526Y280443D01*
X130550Y280485D01*
X130580Y280523D01*
X130634Y280637D01*
X130695Y280748D01*
X130708Y280794D01*
X130729Y280838D01*
X130755Y280961D01*
X130790Y281083D01*
X130795Y281144D01*
X130802Y281178D01*
X130801Y281226D01*
X130809Y281327D01*
X130809Y285649D01*
X130808Y285660D01*
X130808Y285664D01*
X130805Y285688D01*
X130798Y285749D01*
X130796Y285849D01*
X130778Y285922D01*
X130769Y285995D01*
X130736Y286090D01*
X130711Y286187D01*
X130677Y286254D01*
X130652Y286324D01*
X130597Y286408D01*
X130551Y286497D01*
X130503Y286554D01*
X130463Y286616D01*
X130391Y286686D01*
X130326Y286763D01*
X130266Y286807D01*
X130212Y286859D01*
X130126Y286910D01*
X130045Y286970D01*
X129977Y286999D01*
X129913Y287037D01*
X129817Y287068D01*
X129725Y287108D01*
X129652Y287121D01*
X129581Y287144D01*
X129481Y287152D01*
X129382Y287169D01*
X129308Y287166D01*
X129234Y287172D01*
X129134Y287157D01*
X129034Y287152D01*
X128963Y287131D01*
X128889Y287120D01*
X128796Y287083D01*
X128699Y287055D01*
X128634Y287019D01*
X128565Y286991D01*
X128483Y286934D01*
X128395Y286885D01*
X128319Y286820D01*
X128279Y286792D01*
X128255Y286766D01*
X128209Y286726D01*
X125830Y284347D01*
X122469Y282955D01*
X118831Y282955D01*
X115470Y284348D01*
X112898Y286920D01*
X111505Y290281D01*
X111505Y293919D01*
X112898Y297280D01*
X115470Y299852D01*
X118831Y301245D01*
X122469Y301245D01*
X125830Y299853D01*
X128209Y297474D01*
X128287Y297411D01*
X128360Y297341D01*
X128424Y297303D01*
X128482Y297257D01*
X128573Y297214D01*
X128659Y297163D01*
X128730Y297140D01*
X128797Y297108D01*
X128895Y297087D01*
X128991Y297056D01*
X129065Y297050D01*
X129138Y297035D01*
X129238Y297036D01*
X129338Y297028D01*
X129412Y297039D01*
X129486Y297041D01*
X129583Y297065D01*
X129683Y297080D01*
X129752Y297108D01*
X129824Y297126D01*
X129913Y297172D01*
X130007Y297209D01*
X130068Y297251D01*
X130134Y297285D01*
X130210Y297350D01*
X130293Y297408D01*
X130343Y297463D01*
X130399Y297511D01*
X130459Y297592D01*
X130526Y297667D01*
X130562Y297732D01*
X130607Y297791D01*
X130646Y297884D01*
X130695Y297972D01*
X130715Y298043D01*
X130745Y298111D01*
X130762Y298210D01*
X130790Y298307D01*
X130798Y298407D01*
X130806Y298455D01*
X130804Y298490D01*
X130809Y298551D01*
X130809Y299502D01*
X142672Y311365D01*
X327228Y311365D01*
X329163Y309430D01*
X333561Y305032D01*
X333582Y305016D01*
X333599Y304996D01*
X333718Y304907D01*
X333834Y304815D01*
X333858Y304804D01*
X333879Y304789D01*
X334015Y304730D01*
X334149Y304667D01*
X334175Y304661D01*
X334199Y304651D01*
X334345Y304624D01*
X334490Y304593D01*
X334516Y304594D01*
X334542Y304589D01*
X334690Y304597D01*
X334838Y304599D01*
X334864Y304606D01*
X334890Y304607D01*
X335032Y304648D01*
X335176Y304684D01*
X335200Y304696D01*
X335225Y304703D01*
X335354Y304776D01*
X335486Y304844D01*
X335506Y304861D01*
X335529Y304874D01*
X335715Y305032D01*
X337008Y306325D01*
X348792Y306325D01*
X357125Y297992D01*
X357125Y286208D01*
X348792Y277875D01*
X337008Y277875D01*
X328675Y286208D01*
X328675Y297992D01*
X329968Y299285D01*
X329984Y299305D01*
X330004Y299322D01*
X330092Y299442D01*
X330185Y299558D01*
X330196Y299581D01*
X330211Y299603D01*
X330270Y299739D01*
X330333Y299873D01*
X330339Y299899D01*
X330349Y299923D01*
X330376Y300069D01*
X330407Y300214D01*
X330406Y300240D01*
X330411Y300266D01*
X330403Y300414D01*
X330401Y300562D01*
X330394Y300587D01*
X330393Y300614D01*
X330352Y300756D01*
X330316Y300900D01*
X330304Y300923D01*
X330297Y300949D01*
X330224Y301078D01*
X330156Y301210D01*
X330139Y301230D01*
X330126Y301253D01*
X329968Y301439D01*
X325570Y305837D01*
X325471Y305916D01*
X325377Y306000D01*
X325335Y306024D01*
X325297Y306054D01*
X325183Y306108D01*
X325072Y306169D01*
X325025Y306182D01*
X324982Y306203D01*
X324858Y306229D01*
X324736Y306264D01*
X324676Y306269D01*
X324641Y306276D01*
X324593Y306275D01*
X324493Y306283D01*
X145407Y306283D01*
X145282Y306269D01*
X145156Y306262D01*
X145109Y306249D01*
X145061Y306243D01*
X144942Y306201D01*
X144821Y306166D01*
X144779Y306142D01*
X144733Y306126D01*
X144627Y306057D01*
X144517Y305996D01*
X144470Y305956D01*
X144440Y305937D01*
X144407Y305902D01*
X144330Y305837D01*
X141976Y303483D01*
X141944Y303443D01*
X141907Y303409D01*
X141836Y303307D01*
X141759Y303210D01*
X141738Y303164D01*
X141709Y303123D01*
X141663Y303007D01*
X141610Y302894D01*
X141600Y302845D01*
X141581Y302798D01*
X141563Y302675D01*
X141537Y302554D01*
X141538Y302504D01*
X141530Y302454D01*
X141541Y302329D01*
X141543Y302205D01*
X141555Y302157D01*
X141559Y302106D01*
X141597Y301988D01*
X141628Y301867D01*
X141651Y301823D01*
X141666Y301775D01*
X141730Y301668D01*
X141787Y301558D01*
X141820Y301519D01*
X141846Y301476D01*
X141933Y301387D01*
X142013Y301292D01*
X142054Y301262D01*
X142089Y301226D01*
X142193Y301159D01*
X142293Y301085D01*
X142340Y301065D01*
X142382Y301038D01*
X142499Y300996D01*
X142613Y300947D01*
X142663Y300938D01*
X142711Y300921D01*
X142834Y300907D01*
X142957Y300885D01*
X143007Y300888D01*
X143057Y300882D01*
X143180Y300897D01*
X143305Y300903D01*
X143353Y300917D01*
X143403Y300923D01*
X143636Y300998D01*
X144231Y301245D01*
X147869Y301245D01*
X151230Y299852D01*
X153802Y297280D01*
X155195Y293919D01*
X155195Y290281D01*
X153802Y286920D01*
X151230Y284348D01*
X147869Y282955D01*
X144231Y282955D01*
X140870Y284347D01*
X138491Y286726D01*
X138413Y286789D01*
X138340Y286859D01*
X138276Y286897D01*
X138218Y286943D01*
X138127Y286986D01*
X138041Y287037D01*
X137970Y287060D01*
X137903Y287092D01*
X137805Y287113D01*
X137709Y287144D01*
X137635Y287150D01*
X137562Y287165D01*
X137462Y287164D01*
X137362Y287172D01*
X137288Y287161D01*
X137214Y287159D01*
X137117Y287135D01*
X137017Y287120D01*
X136948Y287092D01*
X136876Y287074D01*
X136787Y287028D01*
X136693Y286991D01*
X136632Y286949D01*
X136566Y286915D01*
X136490Y286850D01*
X136407Y286792D01*
X136357Y286737D01*
X136301Y286689D01*
X136241Y286608D01*
X136174Y286533D01*
X136138Y286468D01*
X136093Y286409D01*
X136054Y286316D01*
X136005Y286228D01*
X135985Y286157D01*
X135955Y286089D01*
X135938Y285990D01*
X135910Y285893D01*
X135902Y285793D01*
X135894Y285745D01*
X135896Y285710D01*
X135891Y285649D01*
X135891Y283917D01*
X135905Y283792D01*
X135912Y283666D01*
X135925Y283619D01*
X135931Y283571D01*
X135973Y283452D01*
X136008Y283331D01*
X136032Y283289D01*
X136048Y283243D01*
X136117Y283137D01*
X136178Y283027D01*
X136218Y282980D01*
X136237Y282950D01*
X136272Y282917D01*
X136337Y282840D01*
X139190Y279987D01*
X139190Y276222D01*
X136528Y273560D01*
X132763Y273560D01*
G37*
%LPD*%
%LPC*%
G36*
X83008Y23875D02*
X83008Y23875D01*
X74675Y32208D01*
X74675Y43992D01*
X83008Y52325D01*
X94792Y52325D01*
X96085Y51032D01*
X96105Y51016D01*
X96122Y50996D01*
X96242Y50908D01*
X96358Y50815D01*
X96381Y50804D01*
X96403Y50789D01*
X96539Y50730D01*
X96673Y50667D01*
X96699Y50661D01*
X96723Y50651D01*
X96869Y50624D01*
X97014Y50593D01*
X97040Y50594D01*
X97066Y50589D01*
X97214Y50597D01*
X97362Y50599D01*
X97387Y50606D01*
X97414Y50607D01*
X97556Y50648D01*
X97700Y50684D01*
X97723Y50696D01*
X97748Y50703D01*
X97878Y50776D01*
X98010Y50844D01*
X98030Y50861D01*
X98053Y50874D01*
X98239Y51032D01*
X138648Y91441D01*
X198683Y91441D01*
X198808Y91455D01*
X198934Y91462D01*
X198981Y91475D01*
X199029Y91481D01*
X199148Y91523D01*
X199269Y91558D01*
X199311Y91582D01*
X199357Y91598D01*
X199463Y91667D01*
X199573Y91728D01*
X199620Y91768D01*
X199650Y91787D01*
X199683Y91822D01*
X199760Y91887D01*
X201317Y93445D01*
X205083Y93445D01*
X207745Y90783D01*
X207745Y87017D01*
X205083Y84355D01*
X201317Y84355D01*
X199760Y85913D01*
X199661Y85992D01*
X199567Y86076D01*
X199524Y86100D01*
X199487Y86130D01*
X199372Y86184D01*
X199262Y86245D01*
X199215Y86258D01*
X199172Y86279D01*
X199048Y86305D01*
X198926Y86340D01*
X198866Y86345D01*
X198831Y86352D01*
X198783Y86351D01*
X198683Y86359D01*
X141383Y86359D01*
X141258Y86345D01*
X141132Y86338D01*
X141085Y86325D01*
X141037Y86319D01*
X140918Y86277D01*
X140797Y86242D01*
X140755Y86218D01*
X140709Y86202D01*
X140603Y86133D01*
X140493Y86072D01*
X140446Y86032D01*
X140416Y86013D01*
X140383Y85978D01*
X140306Y85913D01*
X101832Y47439D01*
X101816Y47418D01*
X101796Y47401D01*
X101707Y47282D01*
X101615Y47166D01*
X101604Y47142D01*
X101589Y47121D01*
X101530Y46985D01*
X101467Y46851D01*
X101461Y46825D01*
X101451Y46801D01*
X101424Y46655D01*
X101393Y46510D01*
X101394Y46484D01*
X101389Y46458D01*
X101397Y46310D01*
X101399Y46162D01*
X101406Y46136D01*
X101407Y46110D01*
X101448Y45968D01*
X101484Y45824D01*
X101496Y45800D01*
X101503Y45775D01*
X101576Y45646D01*
X101644Y45514D01*
X101661Y45494D01*
X101674Y45471D01*
X101832Y45285D01*
X103125Y43992D01*
X103125Y32208D01*
X94792Y23875D01*
X83008Y23875D01*
G37*
%LPD*%
%LPC*%
G36*
X207667Y224055D02*
X207667Y224055D01*
X205005Y226717D01*
X205005Y230483D01*
X207667Y233145D01*
X209871Y233145D01*
X209996Y233159D01*
X210122Y233166D01*
X210169Y233179D01*
X210217Y233185D01*
X210336Y233227D01*
X210457Y233262D01*
X210499Y233286D01*
X210545Y233302D01*
X210651Y233371D01*
X210761Y233432D01*
X210808Y233472D01*
X210838Y233491D01*
X210871Y233526D01*
X210948Y233591D01*
X264279Y286922D01*
X264326Y286982D01*
X264381Y287035D01*
X264434Y287118D01*
X264495Y287195D01*
X264528Y287264D01*
X264569Y287328D01*
X264602Y287421D01*
X264644Y287510D01*
X264660Y287585D01*
X264686Y287657D01*
X264697Y287755D01*
X264718Y287851D01*
X264716Y287927D01*
X264725Y288003D01*
X264713Y288101D01*
X264712Y288199D01*
X264693Y288273D01*
X264684Y288349D01*
X264638Y288491D01*
X264627Y288537D01*
X264618Y288554D01*
X264609Y288582D01*
X263905Y290281D01*
X263905Y293919D01*
X265298Y297280D01*
X267870Y299852D01*
X271231Y301245D01*
X274869Y301245D01*
X278230Y299852D01*
X280802Y297280D01*
X282195Y293919D01*
X282195Y290281D01*
X280802Y286920D01*
X278230Y284348D01*
X274869Y282955D01*
X271231Y282955D01*
X269532Y283659D01*
X269458Y283680D01*
X269388Y283710D01*
X269292Y283728D01*
X269197Y283755D01*
X269121Y283758D01*
X269045Y283772D01*
X268947Y283767D01*
X268849Y283772D01*
X268774Y283758D01*
X268697Y283754D01*
X268603Y283727D01*
X268506Y283709D01*
X268436Y283679D01*
X268362Y283657D01*
X268276Y283609D01*
X268186Y283570D01*
X268125Y283525D01*
X268058Y283487D01*
X267944Y283391D01*
X267907Y283362D01*
X267894Y283348D01*
X267872Y283329D01*
X214541Y229998D01*
X214462Y229899D01*
X214378Y229805D01*
X214354Y229763D01*
X214324Y229725D01*
X214270Y229611D01*
X214209Y229500D01*
X214196Y229453D01*
X214175Y229410D01*
X214149Y229286D01*
X214114Y229164D01*
X214109Y229104D01*
X214102Y229069D01*
X214103Y229021D01*
X214095Y228921D01*
X214095Y226717D01*
X211433Y224055D01*
X207667Y224055D01*
G37*
%LPD*%
%LPC*%
G36*
X241758Y23875D02*
X241758Y23875D01*
X233425Y32208D01*
X233425Y43992D01*
X241758Y52325D01*
X253542Y52325D01*
X261875Y43992D01*
X261875Y32208D01*
X253542Y23875D01*
X241758Y23875D01*
G37*
%LPD*%
%LPC*%
G36*
X133808Y23875D02*
X133808Y23875D01*
X125475Y32208D01*
X125475Y43992D01*
X133808Y52325D01*
X145592Y52325D01*
X153925Y43992D01*
X153925Y32208D01*
X145592Y23875D01*
X133808Y23875D01*
G37*
%LPD*%
%LPC*%
G36*
X519402Y120475D02*
X519402Y120475D01*
X517004Y121469D01*
X515169Y123304D01*
X514175Y125702D01*
X514175Y128298D01*
X515169Y130696D01*
X516746Y132273D01*
X516762Y132293D01*
X516782Y132310D01*
X516870Y132430D01*
X516962Y132546D01*
X516973Y132570D01*
X516989Y132591D01*
X517048Y132727D01*
X517111Y132861D01*
X517117Y132887D01*
X517127Y132911D01*
X517153Y133057D01*
X517184Y133202D01*
X517184Y133228D01*
X517189Y133254D01*
X517181Y133402D01*
X517178Y133550D01*
X517172Y133576D01*
X517171Y133602D01*
X517130Y133744D01*
X517093Y133888D01*
X517081Y133911D01*
X517074Y133937D01*
X517002Y134066D01*
X516934Y134198D01*
X516917Y134218D01*
X516904Y134241D01*
X516746Y134427D01*
X515169Y136004D01*
X514175Y138402D01*
X514175Y140998D01*
X515169Y143396D01*
X515281Y143508D01*
X515297Y143529D01*
X515317Y143546D01*
X515405Y143665D01*
X515498Y143781D01*
X515509Y143805D01*
X515525Y143826D01*
X515583Y143963D01*
X515647Y144096D01*
X515652Y144122D01*
X515663Y144146D01*
X515689Y144292D01*
X515720Y144437D01*
X515720Y144463D01*
X515724Y144489D01*
X515717Y144637D01*
X515714Y144786D01*
X515708Y144811D01*
X515706Y144837D01*
X515665Y144979D01*
X515629Y145124D01*
X515617Y145147D01*
X515610Y145172D01*
X515537Y145301D01*
X515469Y145433D01*
X515452Y145453D01*
X515440Y145476D01*
X515281Y145663D01*
X514175Y146768D01*
X514175Y158032D01*
X515068Y158925D01*
X526332Y158925D01*
X527225Y158032D01*
X527225Y146768D01*
X526119Y145663D01*
X526103Y145642D01*
X526083Y145625D01*
X525994Y145506D01*
X525902Y145390D01*
X525891Y145366D01*
X525875Y145345D01*
X525817Y145209D01*
X525753Y145075D01*
X525748Y145049D01*
X525737Y145025D01*
X525711Y144878D01*
X525680Y144734D01*
X525680Y144708D01*
X525676Y144682D01*
X525683Y144533D01*
X525686Y144385D01*
X525692Y144360D01*
X525694Y144334D01*
X525735Y144191D01*
X525771Y144047D01*
X525783Y144024D01*
X525790Y143999D01*
X525863Y143869D01*
X525931Y143738D01*
X525948Y143718D01*
X525960Y143695D01*
X526119Y143508D01*
X526231Y143396D01*
X527225Y140998D01*
X527225Y138402D01*
X526231Y136004D01*
X524654Y134427D01*
X524638Y134407D01*
X524618Y134390D01*
X524530Y134270D01*
X524438Y134154D01*
X524427Y134130D01*
X524411Y134109D01*
X524352Y133973D01*
X524289Y133839D01*
X524283Y133813D01*
X524273Y133789D01*
X524247Y133643D01*
X524216Y133498D01*
X524216Y133472D01*
X524211Y133446D01*
X524219Y133298D01*
X524222Y133150D01*
X524228Y133124D01*
X524229Y133098D01*
X524270Y132956D01*
X524307Y132812D01*
X524319Y132789D01*
X524326Y132763D01*
X524398Y132634D01*
X524466Y132502D01*
X524483Y132482D01*
X524496Y132459D01*
X524654Y132273D01*
X526231Y130696D01*
X527225Y128298D01*
X527225Y125702D01*
X526231Y123304D01*
X524396Y121469D01*
X521998Y120475D01*
X519402Y120475D01*
G37*
%LPD*%
%LPC*%
G36*
X221637Y145315D02*
X221637Y145315D01*
X218975Y147977D01*
X218975Y151743D01*
X221637Y154405D01*
X223122Y154405D01*
X223248Y154419D01*
X223374Y154426D01*
X223420Y154439D01*
X223468Y154445D01*
X223587Y154487D01*
X223709Y154522D01*
X223751Y154546D01*
X223797Y154562D01*
X223903Y154631D01*
X224013Y154692D01*
X224059Y154732D01*
X224089Y154751D01*
X224123Y154786D01*
X224199Y154851D01*
X225105Y155757D01*
X225184Y155856D01*
X225268Y155950D01*
X225292Y155992D01*
X225322Y156030D01*
X225376Y156144D01*
X225437Y156255D01*
X225450Y156301D01*
X225471Y156345D01*
X225497Y156468D01*
X225532Y156590D01*
X225537Y156651D01*
X225544Y156686D01*
X225543Y156734D01*
X225551Y156834D01*
X225551Y196651D01*
X225537Y196776D01*
X225530Y196902D01*
X225517Y196949D01*
X225511Y196997D01*
X225469Y197116D01*
X225434Y197237D01*
X225410Y197279D01*
X225394Y197325D01*
X225325Y197431D01*
X225264Y197541D01*
X225224Y197588D01*
X225205Y197618D01*
X225170Y197651D01*
X225105Y197728D01*
X224055Y198777D01*
X224055Y202543D01*
X226717Y205205D01*
X230483Y205205D01*
X233145Y202543D01*
X233145Y198777D01*
X232095Y197728D01*
X232016Y197629D01*
X231932Y197535D01*
X231908Y197492D01*
X231878Y197455D01*
X231824Y197340D01*
X231763Y197230D01*
X231750Y197183D01*
X231729Y197140D01*
X231703Y197016D01*
X231668Y196894D01*
X231663Y196834D01*
X231656Y196799D01*
X231657Y196751D01*
X231649Y196651D01*
X231649Y153677D01*
X228511Y150539D01*
X228432Y150440D01*
X228348Y150346D01*
X228324Y150304D01*
X228294Y150266D01*
X228240Y150152D01*
X228179Y150041D01*
X228166Y149995D01*
X228145Y149951D01*
X228119Y149828D01*
X228084Y149706D01*
X228079Y149645D01*
X228072Y149610D01*
X228073Y149562D01*
X228065Y149462D01*
X228065Y147977D01*
X225403Y145315D01*
X221637Y145315D01*
G37*
%LPD*%
%LPC*%
G36*
X219097Y48795D02*
X219097Y48795D01*
X216435Y51457D01*
X216435Y55223D01*
X219116Y57903D01*
X219147Y57908D01*
X219294Y57925D01*
X219319Y57933D01*
X219345Y57937D01*
X219483Y57992D01*
X219622Y58042D01*
X219644Y58056D01*
X219669Y58066D01*
X219790Y58151D01*
X219915Y58231D01*
X219933Y58250D01*
X219955Y58265D01*
X220054Y58375D01*
X220157Y58482D01*
X220171Y58504D01*
X220188Y58524D01*
X220260Y58654D01*
X220336Y58781D01*
X220344Y58806D01*
X220357Y58829D01*
X220397Y58972D01*
X220442Y59113D01*
X220444Y59139D01*
X220452Y59164D01*
X220471Y59408D01*
X220471Y92511D01*
X220457Y92636D01*
X220450Y92762D01*
X220437Y92809D01*
X220431Y92857D01*
X220389Y92976D01*
X220354Y93097D01*
X220330Y93139D01*
X220314Y93185D01*
X220245Y93291D01*
X220184Y93401D01*
X220144Y93448D01*
X220125Y93478D01*
X220090Y93511D01*
X220025Y93588D01*
X218975Y94637D01*
X218975Y98403D01*
X221637Y101065D01*
X225403Y101065D01*
X228065Y98403D01*
X228065Y94637D01*
X227015Y93588D01*
X226936Y93489D01*
X226852Y93395D01*
X226828Y93352D01*
X226798Y93315D01*
X226744Y93200D01*
X226683Y93090D01*
X226670Y93043D01*
X226649Y93000D01*
X226623Y92876D01*
X226588Y92754D01*
X226583Y92694D01*
X226576Y92659D01*
X226577Y92611D01*
X226569Y92511D01*
X226569Y54617D01*
X225971Y54019D01*
X225892Y53920D01*
X225808Y53826D01*
X225784Y53784D01*
X225754Y53746D01*
X225700Y53632D01*
X225639Y53521D01*
X225626Y53475D01*
X225605Y53431D01*
X225579Y53308D01*
X225544Y53186D01*
X225539Y53125D01*
X225532Y53090D01*
X225533Y53042D01*
X225525Y52942D01*
X225525Y51457D01*
X222863Y48795D01*
X219097Y48795D01*
G37*
%LPD*%
%LPC*%
G36*
X309267Y255805D02*
X309267Y255805D01*
X306605Y258467D01*
X306605Y260671D01*
X306591Y260796D01*
X306584Y260922D01*
X306571Y260969D01*
X306565Y261017D01*
X306523Y261136D01*
X306488Y261257D01*
X306464Y261299D01*
X306448Y261345D01*
X306379Y261451D01*
X306318Y261561D01*
X306278Y261608D01*
X306259Y261638D01*
X306224Y261671D01*
X306159Y261748D01*
X304194Y263713D01*
X304095Y263792D01*
X304001Y263876D01*
X303959Y263900D01*
X303921Y263930D01*
X303807Y263984D01*
X303696Y264045D01*
X303649Y264058D01*
X303606Y264079D01*
X303482Y264105D01*
X303360Y264140D01*
X303300Y264145D01*
X303265Y264152D01*
X303217Y264151D01*
X303117Y264159D01*
X277567Y264159D01*
X277442Y264145D01*
X277316Y264138D01*
X277269Y264125D01*
X277221Y264119D01*
X277102Y264077D01*
X276981Y264042D01*
X276939Y264018D01*
X276893Y264002D01*
X276787Y263933D01*
X276677Y263872D01*
X276630Y263832D01*
X276600Y263813D01*
X276567Y263778D01*
X276490Y263713D01*
X274933Y262155D01*
X271167Y262155D01*
X268505Y264817D01*
X268505Y268583D01*
X271167Y271245D01*
X274933Y271245D01*
X276490Y269687D01*
X276589Y269608D01*
X276683Y269524D01*
X276726Y269500D01*
X276763Y269470D01*
X276878Y269416D01*
X276988Y269355D01*
X277035Y269342D01*
X277078Y269321D01*
X277202Y269295D01*
X277324Y269260D01*
X277384Y269255D01*
X277419Y269248D01*
X277467Y269249D01*
X277567Y269241D01*
X305852Y269241D01*
X309752Y265341D01*
X309851Y265262D01*
X309945Y265178D01*
X309987Y265154D01*
X310025Y265124D01*
X310139Y265070D01*
X310250Y265009D01*
X310297Y264996D01*
X310340Y264975D01*
X310464Y264949D01*
X310586Y264914D01*
X310646Y264909D01*
X310681Y264902D01*
X310729Y264903D01*
X310829Y264895D01*
X313033Y264895D01*
X315695Y262233D01*
X315695Y258467D01*
X313033Y255805D01*
X309267Y255805D01*
G37*
%LPD*%
%LPC*%
G36*
X296631Y282955D02*
X296631Y282955D01*
X293270Y284348D01*
X290698Y286920D01*
X289305Y290281D01*
X289305Y293919D01*
X290698Y297280D01*
X293270Y299852D01*
X296631Y301245D01*
X300269Y301245D01*
X303630Y299852D01*
X306202Y297280D01*
X307595Y293919D01*
X307595Y290281D01*
X306202Y286920D01*
X303630Y284348D01*
X300269Y282955D01*
X296631Y282955D01*
G37*
%LPD*%
%LPC*%
G36*
X410931Y282955D02*
X410931Y282955D01*
X407570Y284348D01*
X404998Y286920D01*
X403605Y290281D01*
X403605Y293919D01*
X404998Y297280D01*
X407570Y299852D01*
X410931Y301245D01*
X414569Y301245D01*
X417930Y299852D01*
X420502Y297280D01*
X421895Y293919D01*
X421895Y290281D01*
X420502Y286920D01*
X417930Y284348D01*
X414569Y282955D01*
X410931Y282955D01*
G37*
%LPD*%
%LPC*%
G36*
X93431Y282955D02*
X93431Y282955D01*
X90070Y284348D01*
X87498Y286920D01*
X86105Y290281D01*
X86105Y293919D01*
X87498Y297280D01*
X90070Y299852D01*
X93431Y301245D01*
X97069Y301245D01*
X100430Y299852D01*
X103002Y297280D01*
X104395Y293919D01*
X104395Y290281D01*
X103002Y286920D01*
X100430Y284348D01*
X97069Y282955D01*
X93431Y282955D01*
G37*
%LPD*%
%LPC*%
G36*
X436331Y143255D02*
X436331Y143255D01*
X432970Y144648D01*
X430398Y147220D01*
X429005Y150581D01*
X429005Y154219D01*
X430398Y157580D01*
X432970Y160152D01*
X436331Y161545D01*
X439969Y161545D01*
X443330Y160152D01*
X445902Y157580D01*
X447295Y154219D01*
X447295Y150581D01*
X445902Y147220D01*
X443330Y144648D01*
X439969Y143255D01*
X436331Y143255D01*
G37*
%LPD*%
%LPC*%
G36*
X480781Y143255D02*
X480781Y143255D01*
X477420Y144648D01*
X474848Y147220D01*
X473455Y150581D01*
X473455Y154219D01*
X474848Y157580D01*
X477420Y160152D01*
X480781Y161545D01*
X484419Y161545D01*
X487780Y160152D01*
X490352Y157580D01*
X491745Y154219D01*
X491745Y150581D01*
X490352Y147220D01*
X487780Y144648D01*
X484419Y143255D01*
X480781Y143255D01*
G37*
%LPD*%
%LPC*%
G36*
X245831Y282955D02*
X245831Y282955D01*
X242470Y284348D01*
X239898Y286920D01*
X238505Y290281D01*
X238505Y293919D01*
X239898Y297280D01*
X242470Y299852D01*
X245831Y301245D01*
X249469Y301245D01*
X252830Y299852D01*
X255402Y297280D01*
X256795Y293919D01*
X256795Y290281D01*
X255402Y286920D01*
X252830Y284348D01*
X249469Y282955D01*
X245831Y282955D01*
G37*
%LPD*%
%LPC*%
G36*
X220431Y282955D02*
X220431Y282955D01*
X217070Y284348D01*
X214498Y286920D01*
X213105Y290281D01*
X213105Y293919D01*
X214498Y297280D01*
X217070Y299852D01*
X220431Y301245D01*
X224069Y301245D01*
X227430Y299852D01*
X230002Y297280D01*
X231395Y293919D01*
X231395Y290281D01*
X230002Y286920D01*
X227430Y284348D01*
X224069Y282955D01*
X220431Y282955D01*
G37*
%LPD*%
%LPC*%
G36*
X436331Y168655D02*
X436331Y168655D01*
X432970Y170048D01*
X430398Y172620D01*
X429005Y175981D01*
X429005Y179619D01*
X430398Y182980D01*
X432970Y185552D01*
X436331Y186945D01*
X439969Y186945D01*
X443330Y185552D01*
X445902Y182980D01*
X447295Y179619D01*
X447295Y175981D01*
X445902Y172620D01*
X443330Y170048D01*
X439969Y168655D01*
X436331Y168655D01*
G37*
%LPD*%
%LPC*%
G36*
X487131Y16255D02*
X487131Y16255D01*
X483770Y17648D01*
X481198Y20220D01*
X479805Y23581D01*
X479805Y27219D01*
X481198Y30580D01*
X483770Y33152D01*
X487131Y34545D01*
X490769Y34545D01*
X494130Y33152D01*
X496702Y30580D01*
X498095Y27219D01*
X498095Y23581D01*
X496702Y20220D01*
X494130Y17648D01*
X490769Y16255D01*
X487131Y16255D01*
G37*
%LPD*%
%LPC*%
G36*
X169631Y282955D02*
X169631Y282955D01*
X166270Y284348D01*
X163698Y286920D01*
X162305Y290281D01*
X162305Y293919D01*
X163698Y297280D01*
X166270Y299852D01*
X169631Y301245D01*
X173269Y301245D01*
X176630Y299852D01*
X179202Y297280D01*
X180595Y293919D01*
X180595Y290281D01*
X179202Y286920D01*
X176630Y284348D01*
X173269Y282955D01*
X169631Y282955D01*
G37*
%LPD*%
%LPC*%
G36*
X195031Y282955D02*
X195031Y282955D01*
X191670Y284348D01*
X189098Y286920D01*
X187705Y290281D01*
X187705Y293919D01*
X189098Y297280D01*
X191670Y299852D01*
X195031Y301245D01*
X198669Y301245D01*
X202030Y299852D01*
X204602Y297280D01*
X205995Y293919D01*
X205995Y290281D01*
X204602Y286920D01*
X202030Y284348D01*
X198669Y282955D01*
X195031Y282955D01*
G37*
%LPD*%
%LPC*%
G36*
X436331Y194055D02*
X436331Y194055D01*
X432970Y195448D01*
X430398Y198020D01*
X429005Y201381D01*
X429005Y205019D01*
X430398Y208380D01*
X432970Y210952D01*
X436331Y212345D01*
X439969Y212345D01*
X443330Y210952D01*
X445902Y208380D01*
X447295Y205019D01*
X447295Y201381D01*
X445902Y198020D01*
X443330Y195448D01*
X439969Y194055D01*
X436331Y194055D01*
G37*
%LPD*%
%LPC*%
G36*
X480781Y244855D02*
X480781Y244855D01*
X477420Y246248D01*
X474848Y248820D01*
X473455Y252181D01*
X473455Y255819D01*
X474848Y259180D01*
X477420Y261752D01*
X480781Y263145D01*
X484419Y263145D01*
X487780Y261752D01*
X490352Y259180D01*
X491745Y255819D01*
X491745Y252181D01*
X490352Y248820D01*
X487780Y246248D01*
X484419Y244855D01*
X480781Y244855D01*
G37*
%LPD*%
%LPC*%
G36*
X480781Y194055D02*
X480781Y194055D01*
X477420Y195448D01*
X474848Y198020D01*
X473455Y201381D01*
X473455Y205019D01*
X474848Y208380D01*
X477420Y210952D01*
X480781Y212345D01*
X484419Y212345D01*
X487780Y210952D01*
X490352Y208380D01*
X491745Y205019D01*
X491745Y201381D01*
X490352Y198020D01*
X487780Y195448D01*
X484419Y194055D01*
X480781Y194055D01*
G37*
%LPD*%
%LPC*%
G36*
X68031Y282955D02*
X68031Y282955D01*
X64670Y284348D01*
X62098Y286920D01*
X60705Y290281D01*
X60705Y293919D01*
X62098Y297280D01*
X64670Y299852D01*
X68031Y301245D01*
X71669Y301245D01*
X75030Y299852D01*
X77602Y297280D01*
X78995Y293919D01*
X78995Y290281D01*
X77602Y286920D01*
X75030Y284348D01*
X71669Y282955D01*
X68031Y282955D01*
G37*
%LPD*%
%LPC*%
G36*
X480781Y219455D02*
X480781Y219455D01*
X477420Y220848D01*
X474848Y223420D01*
X473455Y226781D01*
X473455Y230419D01*
X474848Y233780D01*
X477420Y236352D01*
X480781Y237745D01*
X484419Y237745D01*
X487780Y236352D01*
X490352Y233780D01*
X491745Y230419D01*
X491745Y226781D01*
X490352Y223420D01*
X487780Y220848D01*
X484419Y219455D01*
X480781Y219455D01*
G37*
%LPD*%
%LPC*%
G36*
X436331Y219455D02*
X436331Y219455D01*
X432970Y220848D01*
X430398Y223420D01*
X429005Y226781D01*
X429005Y230419D01*
X430398Y233780D01*
X432970Y236352D01*
X436331Y237745D01*
X439969Y237745D01*
X443330Y236352D01*
X445902Y233780D01*
X447295Y230419D01*
X447295Y226781D01*
X445902Y223420D01*
X443330Y220848D01*
X439969Y219455D01*
X436331Y219455D01*
G37*
%LPD*%
%LPC*%
G36*
X568419Y88099D02*
X568419Y88099D01*
X568419Y99563D01*
X578402Y99563D01*
X580495Y99231D01*
X582510Y98576D01*
X584398Y97614D01*
X586112Y96369D01*
X587611Y94870D01*
X588856Y93156D01*
X589818Y91268D01*
X590473Y89253D01*
X590656Y88099D01*
X568419Y88099D01*
G37*
%LPD*%
%LPC*%
G36*
X542184Y88099D02*
X542184Y88099D01*
X542367Y89253D01*
X543022Y91268D01*
X543984Y93156D01*
X545229Y94870D01*
X546728Y96369D01*
X548442Y97614D01*
X550330Y98576D01*
X552345Y99231D01*
X554438Y99563D01*
X564421Y99563D01*
X564421Y88099D01*
X542184Y88099D01*
G37*
%LPD*%
%LPC*%
G36*
X568419Y72637D02*
X568419Y72637D01*
X568419Y84101D01*
X590656Y84101D01*
X590473Y82947D01*
X589818Y80932D01*
X588856Y79044D01*
X587611Y77330D01*
X586112Y75831D01*
X584398Y74586D01*
X582510Y73624D01*
X580495Y72969D01*
X578402Y72637D01*
X568419Y72637D01*
G37*
%LPD*%
%LPC*%
G36*
X593267Y14047D02*
X593267Y14047D01*
X591252Y14702D01*
X589364Y15664D01*
X587650Y16909D01*
X586151Y18408D01*
X584906Y20122D01*
X583944Y22010D01*
X583289Y24025D01*
X582957Y26118D01*
X582957Y36101D01*
X594421Y36101D01*
X594421Y13864D01*
X593267Y14047D01*
G37*
%LPD*%
%LPC*%
G36*
X554438Y72637D02*
X554438Y72637D01*
X552345Y72969D01*
X550330Y73624D01*
X548442Y74586D01*
X546728Y75831D01*
X545229Y77330D01*
X543984Y79044D01*
X543022Y80932D01*
X542367Y82947D01*
X542184Y84101D01*
X564421Y84101D01*
X564421Y72637D01*
X554438Y72637D01*
G37*
%LPD*%
%LPC*%
G36*
X352043Y40893D02*
X352043Y40893D01*
X352043Y53341D01*
X355563Y53341D01*
X364491Y44413D01*
X364491Y40893D01*
X352043Y40893D01*
G37*
%LPD*%
%LPC*%
G36*
X501903Y271779D02*
X501903Y271779D01*
X501903Y284227D01*
X514351Y284227D01*
X514351Y280707D01*
X505423Y271779D01*
X501903Y271779D01*
G37*
%LPD*%
%LPC*%
G36*
X334009Y40893D02*
X334009Y40893D01*
X334009Y44413D01*
X342937Y53341D01*
X346457Y53341D01*
X346457Y40893D01*
X334009Y40893D01*
G37*
%LPD*%
%LPC*%
G36*
X352043Y22859D02*
X352043Y22859D01*
X352043Y35307D01*
X364491Y35307D01*
X364491Y31787D01*
X355563Y22859D01*
X352043Y22859D01*
G37*
%LPD*%
%LPC*%
G36*
X492797Y271779D02*
X492797Y271779D01*
X483869Y280707D01*
X483869Y284227D01*
X496317Y284227D01*
X496317Y271779D01*
X492797Y271779D01*
G37*
%LPD*%
%LPC*%
G36*
X342937Y22859D02*
X342937Y22859D01*
X334009Y31787D01*
X334009Y35307D01*
X346457Y35307D01*
X346457Y22859D01*
X342937Y22859D01*
G37*
%LPD*%
%LPC*%
G36*
X84699Y163074D02*
X84699Y163074D01*
X84699Y170966D01*
X85335Y170865D01*
X86780Y170396D01*
X88134Y169706D01*
X89363Y168813D01*
X90438Y167738D01*
X91018Y166940D01*
X91079Y166873D01*
X91133Y166800D01*
X91197Y166745D01*
X91253Y166683D01*
X91328Y166632D01*
X91397Y166573D01*
X91472Y166534D01*
X91541Y166487D01*
X91626Y166454D01*
X91707Y166412D01*
X91788Y166392D01*
X91866Y166361D01*
X91956Y166349D01*
X92044Y166326D01*
X92128Y166324D01*
X92211Y166313D01*
X92302Y166321D01*
X92393Y166319D01*
X92475Y166336D01*
X92559Y166344D01*
X92645Y166372D01*
X92734Y166391D01*
X92810Y166427D01*
X92889Y166453D01*
X92967Y166500D01*
X93049Y166539D01*
X93115Y166591D01*
X93187Y166634D01*
X93252Y166698D01*
X93323Y166754D01*
X93400Y166844D01*
X93435Y166879D01*
X93451Y166904D01*
X93482Y166940D01*
X94062Y167738D01*
X95137Y168813D01*
X96366Y169706D01*
X97720Y170396D01*
X99165Y170865D01*
X99801Y170966D01*
X99801Y163074D01*
X84699Y163074D01*
G37*
%LPD*%
%LPC*%
G36*
X99165Y152035D02*
X99165Y152035D01*
X97720Y152504D01*
X96366Y153194D01*
X95137Y154087D01*
X94062Y155162D01*
X93482Y155960D01*
X93421Y156027D01*
X93367Y156100D01*
X93303Y156155D01*
X93247Y156217D01*
X93172Y156268D01*
X93103Y156327D01*
X93028Y156366D01*
X92959Y156413D01*
X92874Y156446D01*
X92793Y156488D01*
X92712Y156508D01*
X92634Y156539D01*
X92544Y156551D01*
X92456Y156574D01*
X92372Y156576D01*
X92289Y156587D01*
X92198Y156579D01*
X92107Y156581D01*
X92025Y156564D01*
X91941Y156556D01*
X91855Y156528D01*
X91766Y156509D01*
X91690Y156473D01*
X91610Y156447D01*
X91533Y156400D01*
X91451Y156361D01*
X91385Y156309D01*
X91313Y156266D01*
X91248Y156202D01*
X91177Y156146D01*
X91100Y156056D01*
X91065Y156021D01*
X91049Y155996D01*
X91018Y155960D01*
X90438Y155162D01*
X89363Y154087D01*
X88134Y153194D01*
X86780Y152504D01*
X85335Y152035D01*
X84699Y151934D01*
X84699Y159826D01*
X99801Y159826D01*
X99801Y151934D01*
X99165Y152035D01*
G37*
%LPD*%
%LPC*%
G36*
X103049Y163074D02*
X103049Y163074D01*
X103049Y170966D01*
X103685Y170865D01*
X105130Y170396D01*
X106484Y169706D01*
X107713Y168813D01*
X108788Y167738D01*
X109681Y166509D01*
X110371Y165155D01*
X110840Y163710D01*
X110941Y163074D01*
X103049Y163074D01*
G37*
%LPD*%
%LPC*%
G36*
X103049Y159826D02*
X103049Y159826D01*
X110941Y159826D01*
X110840Y159190D01*
X110371Y157745D01*
X109681Y156391D01*
X108788Y155162D01*
X107713Y154087D01*
X106484Y153194D01*
X105130Y152504D01*
X103685Y152035D01*
X103049Y151934D01*
X103049Y159826D01*
G37*
%LPD*%
%LPC*%
G36*
X73559Y163074D02*
X73559Y163074D01*
X73660Y163710D01*
X74129Y165155D01*
X74819Y166509D01*
X75712Y167738D01*
X76787Y168813D01*
X78016Y169706D01*
X79370Y170396D01*
X80815Y170865D01*
X81451Y170966D01*
X81451Y163074D01*
X73559Y163074D01*
G37*
%LPD*%
%LPC*%
G36*
X80815Y152035D02*
X80815Y152035D01*
X79370Y152504D01*
X78016Y153194D01*
X76787Y154087D01*
X75712Y155162D01*
X74819Y156391D01*
X74129Y157745D01*
X73660Y159190D01*
X73559Y159826D01*
X81451Y159826D01*
X81451Y151934D01*
X80815Y152035D01*
G37*
%LPD*%
%LPC*%
G36*
X485139Y180339D02*
X485139Y180339D01*
X485139Y187659D01*
X486500Y187216D01*
X487925Y186490D01*
X489219Y185550D01*
X490350Y184419D01*
X491290Y183125D01*
X492016Y181700D01*
X492459Y180339D01*
X485139Y180339D01*
G37*
%LPD*%
%LPC*%
G36*
X389889Y294639D02*
X389889Y294639D01*
X389889Y301959D01*
X391250Y301516D01*
X392675Y300790D01*
X393969Y299850D01*
X395100Y298719D01*
X396040Y297425D01*
X396766Y296000D01*
X397209Y294639D01*
X389889Y294639D01*
G37*
%LPD*%
%LPC*%
G36*
X440689Y256539D02*
X440689Y256539D01*
X440689Y263859D01*
X442050Y263416D01*
X443475Y262690D01*
X444769Y261750D01*
X445900Y260619D01*
X446840Y259325D01*
X447566Y257900D01*
X448009Y256539D01*
X440689Y256539D01*
G37*
%LPD*%
%LPC*%
G36*
X491489Y53339D02*
X491489Y53339D01*
X491489Y60659D01*
X492850Y60216D01*
X494275Y59490D01*
X495569Y58550D01*
X496700Y57419D01*
X497640Y56125D01*
X498366Y54700D01*
X498809Y53339D01*
X491489Y53339D01*
G37*
%LPD*%
%LPC*%
G36*
X440689Y251461D02*
X440689Y251461D01*
X448009Y251461D01*
X447566Y250100D01*
X446840Y248675D01*
X445900Y247381D01*
X444769Y246250D01*
X443475Y245310D01*
X442050Y244584D01*
X440689Y244141D01*
X440689Y251461D01*
G37*
%LPD*%
%LPC*%
G36*
X428291Y256539D02*
X428291Y256539D01*
X428734Y257900D01*
X429460Y259325D01*
X430400Y260619D01*
X431531Y261750D01*
X432825Y262690D01*
X434250Y263416D01*
X435611Y263859D01*
X435611Y256539D01*
X428291Y256539D01*
G37*
%LPD*%
%LPC*%
G36*
X389889Y289561D02*
X389889Y289561D01*
X397209Y289561D01*
X396766Y288200D01*
X396040Y286775D01*
X395100Y285481D01*
X393969Y284350D01*
X392675Y283410D01*
X391250Y282684D01*
X389889Y282241D01*
X389889Y289561D01*
G37*
%LPD*%
%LPC*%
G36*
X485139Y175261D02*
X485139Y175261D01*
X492459Y175261D01*
X492016Y173900D01*
X491290Y172475D01*
X490350Y171181D01*
X489219Y170050D01*
X487925Y169110D01*
X486500Y168384D01*
X485139Y167941D01*
X485139Y175261D01*
G37*
%LPD*%
%LPC*%
G36*
X472741Y180339D02*
X472741Y180339D01*
X473184Y181700D01*
X473910Y183125D01*
X474850Y184419D01*
X475981Y185550D01*
X477275Y186490D01*
X478700Y187216D01*
X480061Y187659D01*
X480061Y180339D01*
X472741Y180339D01*
G37*
%LPD*%
%LPC*%
G36*
X479091Y53339D02*
X479091Y53339D01*
X479534Y54700D01*
X480260Y56125D01*
X481200Y57419D01*
X482331Y58550D01*
X483625Y59490D01*
X485050Y60216D01*
X486411Y60659D01*
X486411Y53339D01*
X479091Y53339D01*
G37*
%LPD*%
%LPC*%
G36*
X377491Y294639D02*
X377491Y294639D01*
X377934Y296000D01*
X378660Y297425D01*
X379600Y298719D01*
X380731Y299850D01*
X382025Y300790D01*
X383450Y301516D01*
X384811Y301959D01*
X384811Y294639D01*
X377491Y294639D01*
G37*
%LPD*%
%LPC*%
G36*
X588009Y289561D02*
X588009Y289561D01*
X595329Y289561D01*
X594886Y288200D01*
X594160Y286775D01*
X593220Y285481D01*
X592089Y284350D01*
X590795Y283410D01*
X589370Y282684D01*
X588009Y282241D01*
X588009Y289561D01*
G37*
%LPD*%
%LPC*%
G36*
X491489Y48261D02*
X491489Y48261D01*
X498809Y48261D01*
X498366Y46900D01*
X497640Y45475D01*
X496700Y44181D01*
X495569Y43050D01*
X494275Y42110D01*
X492850Y41384D01*
X491489Y40941D01*
X491489Y48261D01*
G37*
%LPD*%
%LPC*%
G36*
X485050Y41384D02*
X485050Y41384D01*
X483625Y42110D01*
X482331Y43050D01*
X481200Y44181D01*
X480260Y45475D01*
X479534Y46900D01*
X479091Y48261D01*
X486411Y48261D01*
X486411Y40941D01*
X485050Y41384D01*
G37*
%LPD*%
%LPC*%
G36*
X383450Y282684D02*
X383450Y282684D01*
X382025Y283410D01*
X380731Y284350D01*
X379600Y285481D01*
X378660Y286775D01*
X377934Y288200D01*
X377491Y289561D01*
X384811Y289561D01*
X384811Y282241D01*
X383450Y282684D01*
G37*
%LPD*%
%LPC*%
G36*
X434250Y244584D02*
X434250Y244584D01*
X432825Y245310D01*
X431531Y246250D01*
X430400Y247381D01*
X429460Y248675D01*
X428734Y250100D01*
X428291Y251461D01*
X435611Y251461D01*
X435611Y244141D01*
X434250Y244584D01*
G37*
%LPD*%
%LPC*%
G36*
X581570Y282684D02*
X581570Y282684D01*
X580145Y283410D01*
X578851Y284350D01*
X577720Y285481D01*
X576780Y286775D01*
X576054Y288200D01*
X575611Y289561D01*
X582931Y289561D01*
X582931Y282241D01*
X581570Y282684D01*
G37*
%LPD*%
%LPC*%
G36*
X478700Y168384D02*
X478700Y168384D01*
X477275Y169110D01*
X475981Y170050D01*
X474850Y171181D01*
X473910Y172475D01*
X473184Y173900D01*
X472741Y175261D01*
X480061Y175261D01*
X480061Y167941D01*
X478700Y168384D01*
G37*
%LPD*%
D10*
X488950Y50800D03*
X488950Y25400D03*
D11*
X83075Y161450D03*
X101425Y161450D03*
D10*
X247650Y292100D03*
X273050Y292100D03*
X298450Y292100D03*
X222250Y292100D03*
X196850Y292100D03*
X171450Y292100D03*
X146050Y292100D03*
X120650Y292100D03*
X95250Y292100D03*
X69850Y292100D03*
X44450Y292100D03*
X19050Y292100D03*
D12*
X520700Y152400D03*
D13*
X520700Y139700D03*
X520700Y127000D03*
D10*
X482600Y203200D03*
X482600Y228600D03*
X482600Y254000D03*
X482600Y177800D03*
X482600Y152400D03*
X438150Y203200D03*
X438150Y177800D03*
X438150Y152400D03*
X438150Y228600D03*
X438150Y254000D03*
X387350Y292100D03*
X412750Y292100D03*
X438150Y292100D03*
D14*
X88900Y38100D03*
X247650Y38100D03*
X139700Y38100D03*
X499110Y287020D03*
X349250Y38100D03*
X342900Y292100D03*
X584200Y190500D03*
X584200Y247650D03*
D10*
X585470Y292100D03*
X560070Y292100D03*
X534670Y292100D03*
D15*
X555498Y86100D02*
X577342Y86100D01*
X596420Y49022D02*
X596420Y27178D01*
X536420Y27178D02*
X536420Y49022D01*
D16*
X228600Y200660D03*
D17*
X228600Y154940D01*
X223520Y149860D01*
D16*
X223520Y149860D03*
X223520Y96520D03*
D17*
X223520Y55880D01*
X220980Y53340D01*
D16*
X220980Y53340D03*
D18*
X549402Y306832D02*
X594868Y306832D01*
X549402Y306832D02*
X534670Y292100D01*
X594868Y306832D02*
X601980Y299720D01*
X534670Y292100D02*
X523240Y292100D01*
X510540Y304800D01*
X450850Y304800D01*
X438150Y292100D01*
X536420Y38100D02*
X563880Y38100D01*
X601980Y76200D01*
X601980Y299720D01*
D16*
X17780Y274320D03*
X17780Y66040D03*
X38100Y15240D03*
X398780Y114300D03*
X444500Y78740D03*
X533400Y210820D03*
X381000Y200660D03*
X261620Y266700D03*
X271780Y91440D03*
X208280Y119380D03*
X203200Y88900D03*
D19*
X139700Y88900D01*
X88900Y38100D01*
D16*
X209550Y228600D03*
D19*
X273050Y292100D01*
X326176Y308824D02*
X342900Y292100D01*
X326176Y308824D02*
X143724Y308824D01*
X133350Y298450D01*
X133350Y279400D01*
X134645Y278105D01*
D16*
X134645Y278105D03*
D19*
X44450Y292100D02*
X44450Y139700D01*
X69850Y114300D01*
D16*
X114300Y114300D03*
D19*
X69850Y114300D01*
X38100Y273050D02*
X19050Y292100D01*
X38100Y273050D02*
X38100Y133350D01*
X63500Y107950D01*
X133350Y107950D01*
D16*
X133350Y107950D03*
X273050Y266700D03*
D19*
X304800Y266700D02*
X311150Y260350D01*
D16*
X311150Y260350D03*
D19*
X304800Y266700D02*
X273050Y266700D01*
M02*
