G04 EAGLE Gerber RS-274X export*
G75*
%MOMM*%
%FSLAX34Y34*%
%LPD*%
%INCream Top*%
%IPPOS*%
%AMOC8*
5,1,8,0,0,1.08239X$1,22.5*%
G01*
%ADD10R,1.300000X1.500000*%
%ADD11R,1.500000X1.300000*%
%ADD12R,0.600000X1.050000*%
%ADD13R,1.870000X1.050000*%
%ADD14R,0.950000X0.950000*%
%ADD15R,1.600000X1.400000*%
%ADD16R,0.900000X2.000000*%
%ADD17R,2.000000X0.900000*%
%ADD18R,1.330000X1.330000*%
%ADD19C,0.254000*%


D10*
X523900Y260350D03*
X542900Y260350D03*
D11*
X552450Y153010D03*
X552450Y134010D03*
D12*
X514350Y182800D03*
D13*
X533400Y182800D03*
D12*
X552450Y182800D03*
X552450Y236300D03*
D13*
X533400Y236300D03*
D12*
X514350Y236300D03*
D14*
X444500Y94100D03*
X444500Y109100D03*
D10*
X257150Y139700D03*
X238150Y139700D03*
X259690Y200660D03*
X240690Y200660D03*
D11*
X457200Y28600D03*
X457200Y47600D03*
D15*
X313600Y91800D03*
X397600Y91800D03*
X313600Y136800D03*
X397600Y136800D03*
X313600Y199750D03*
X397600Y199750D03*
X313600Y244750D03*
X397600Y244750D03*
D16*
X17250Y86450D03*
X29950Y86450D03*
X42650Y86450D03*
X55350Y86450D03*
X68050Y86450D03*
X80750Y86450D03*
X93450Y86450D03*
X106150Y86450D03*
X118850Y86450D03*
X131550Y86450D03*
X144250Y86450D03*
X156950Y86450D03*
X169650Y86450D03*
X182350Y86450D03*
D17*
X192350Y114300D03*
X192350Y127000D03*
X192350Y139700D03*
X192350Y152400D03*
X192350Y165100D03*
X192350Y177800D03*
X192350Y190500D03*
X192350Y203200D03*
X192350Y215900D03*
X192350Y228600D03*
D16*
X182350Y256450D03*
X169650Y256450D03*
X156950Y256450D03*
X144250Y256450D03*
X131550Y256450D03*
X118850Y256450D03*
X106150Y256450D03*
X93450Y256450D03*
X80750Y256450D03*
X68050Y256450D03*
X55350Y256450D03*
X42650Y256450D03*
X29950Y256450D03*
X17250Y256450D03*
D18*
X73900Y143100D03*
X73900Y179800D03*
X92250Y143100D03*
X92250Y179800D03*
X110600Y143100D03*
X110600Y179800D03*
D14*
X177800Y45600D03*
X177800Y30600D03*
X285750Y30600D03*
X285750Y45600D03*
D11*
X203200Y28600D03*
X203200Y47600D03*
X311150Y47600D03*
X311150Y28600D03*
D10*
X238150Y88900D03*
X257150Y88900D03*
X257150Y114300D03*
X238150Y114300D03*
X240690Y251460D03*
X259690Y251460D03*
X259690Y226060D03*
X240690Y226060D03*
D11*
X393700Y47600D03*
X393700Y28600D03*
X425450Y28600D03*
X425450Y47600D03*
X24384Y50648D03*
X24384Y31648D03*
X49784Y50648D03*
X49784Y31648D03*
X476250Y111100D03*
X476250Y92100D03*
D19*
X0Y0D02*
X619000Y0D01*
X619000Y320000D01*
X0Y320000D01*
X0Y0D01*
M02*
