G04 EAGLE Gerber RS-274X export*
G75*
%MOMM*%
%FSLAX34Y34*%
%LPD*%
%INSilkscreen Top*%
%IPPOS*%
%AMOC8*
5,1,8,0,0,1.08239X$1,22.5*%
G01*
%ADD10C,0.050800*%
%ADD11C,0.254000*%
%ADD12C,0.200000*%
%ADD13C,0.127000*%
%ADD14C,0.100000*%
%ADD15C,0.200000*%
%ADD16C,0.152400*%
%ADD17C,0.101600*%


D10*
X561538Y254254D02*
X560296Y254254D01*
X560226Y254256D01*
X560157Y254262D01*
X560088Y254272D01*
X560020Y254285D01*
X559952Y254303D01*
X559886Y254324D01*
X559821Y254349D01*
X559757Y254377D01*
X559695Y254409D01*
X559635Y254444D01*
X559577Y254483D01*
X559522Y254525D01*
X559468Y254570D01*
X559418Y254618D01*
X559370Y254668D01*
X559325Y254722D01*
X559283Y254777D01*
X559244Y254835D01*
X559209Y254895D01*
X559177Y254957D01*
X559149Y255021D01*
X559124Y255086D01*
X559103Y255152D01*
X559085Y255220D01*
X559072Y255288D01*
X559062Y255357D01*
X559056Y255426D01*
X559054Y255496D01*
X559054Y258600D01*
X559056Y258670D01*
X559062Y258739D01*
X559072Y258808D01*
X559085Y258876D01*
X559103Y258944D01*
X559124Y259010D01*
X559149Y259075D01*
X559177Y259139D01*
X559209Y259201D01*
X559244Y259261D01*
X559283Y259319D01*
X559325Y259374D01*
X559370Y259428D01*
X559418Y259478D01*
X559468Y259526D01*
X559522Y259571D01*
X559577Y259613D01*
X559635Y259652D01*
X559695Y259687D01*
X559757Y259719D01*
X559821Y259747D01*
X559886Y259772D01*
X559952Y259793D01*
X560020Y259811D01*
X560088Y259824D01*
X560157Y259834D01*
X560226Y259840D01*
X560296Y259842D01*
X561538Y259842D01*
X563642Y258600D02*
X565194Y259842D01*
X565194Y254254D01*
X563642Y254254D02*
X566747Y254254D01*
X539242Y144397D02*
X539242Y143155D01*
X539240Y143085D01*
X539234Y143016D01*
X539224Y142947D01*
X539211Y142879D01*
X539193Y142811D01*
X539172Y142745D01*
X539147Y142680D01*
X539119Y142616D01*
X539087Y142554D01*
X539052Y142494D01*
X539013Y142436D01*
X538971Y142381D01*
X538926Y142327D01*
X538878Y142277D01*
X538828Y142229D01*
X538774Y142184D01*
X538719Y142142D01*
X538661Y142103D01*
X538601Y142068D01*
X538539Y142036D01*
X538475Y142008D01*
X538410Y141983D01*
X538344Y141962D01*
X538276Y141944D01*
X538208Y141931D01*
X538139Y141921D01*
X538070Y141915D01*
X538000Y141913D01*
X534896Y141913D01*
X534826Y141915D01*
X534757Y141921D01*
X534688Y141931D01*
X534620Y141944D01*
X534552Y141962D01*
X534486Y141983D01*
X534421Y142008D01*
X534357Y142036D01*
X534295Y142068D01*
X534235Y142103D01*
X534177Y142142D01*
X534122Y142184D01*
X534068Y142229D01*
X534018Y142277D01*
X533970Y142327D01*
X533925Y142381D01*
X533883Y142436D01*
X533844Y142494D01*
X533809Y142554D01*
X533777Y142616D01*
X533749Y142680D01*
X533724Y142745D01*
X533703Y142811D01*
X533685Y142879D01*
X533672Y142947D01*
X533662Y143016D01*
X533656Y143085D01*
X533654Y143155D01*
X533654Y144397D01*
X533654Y148209D02*
X533656Y148282D01*
X533662Y148355D01*
X533671Y148428D01*
X533685Y148499D01*
X533702Y148571D01*
X533722Y148641D01*
X533747Y148710D01*
X533775Y148777D01*
X533806Y148843D01*
X533841Y148908D01*
X533879Y148970D01*
X533921Y149030D01*
X533965Y149088D01*
X534013Y149144D01*
X534063Y149197D01*
X534116Y149247D01*
X534172Y149295D01*
X534230Y149339D01*
X534290Y149381D01*
X534353Y149419D01*
X534417Y149454D01*
X534483Y149485D01*
X534550Y149513D01*
X534619Y149538D01*
X534689Y149558D01*
X534761Y149575D01*
X534832Y149589D01*
X534905Y149598D01*
X534978Y149604D01*
X535051Y149606D01*
X533654Y148209D02*
X533656Y148125D01*
X533662Y148042D01*
X533671Y147959D01*
X533685Y147876D01*
X533702Y147795D01*
X533724Y147714D01*
X533749Y147634D01*
X533777Y147556D01*
X533809Y147478D01*
X533845Y147403D01*
X533884Y147329D01*
X533927Y147257D01*
X533973Y147187D01*
X534022Y147120D01*
X534075Y147054D01*
X534130Y146992D01*
X534188Y146932D01*
X534249Y146874D01*
X534312Y146820D01*
X534378Y146768D01*
X534446Y146720D01*
X534517Y146675D01*
X534589Y146633D01*
X534664Y146595D01*
X534740Y146560D01*
X534817Y146529D01*
X534896Y146501D01*
X536137Y149140D02*
X536084Y149194D01*
X536027Y149245D01*
X535968Y149293D01*
X535907Y149338D01*
X535844Y149379D01*
X535778Y149418D01*
X535711Y149453D01*
X535642Y149485D01*
X535571Y149513D01*
X535500Y149537D01*
X535427Y149558D01*
X535353Y149575D01*
X535278Y149589D01*
X535203Y149598D01*
X535127Y149604D01*
X535051Y149606D01*
X536138Y149140D02*
X539242Y146502D01*
X539242Y149606D01*
D11*
X512525Y75100D02*
X455025Y75100D01*
X455025Y1100D01*
X512525Y1100D01*
X512525Y75100D01*
D12*
X511950Y25100D02*
X506950Y25100D01*
X506950Y51100D02*
X511950Y51100D01*
X506950Y51100D02*
X506950Y25100D01*
D10*
X478860Y65908D02*
X476376Y65908D01*
X476376Y71496D01*
X478860Y71496D01*
X478239Y69012D02*
X476376Y69012D01*
X480627Y65908D02*
X484352Y71496D01*
X480627Y71496D02*
X484352Y65908D01*
X487610Y65908D02*
X487610Y71496D01*
X486058Y71496D02*
X489162Y71496D01*
X490940Y65287D02*
X493424Y65287D01*
X495833Y69012D02*
X497386Y69012D01*
X497463Y69010D01*
X497541Y69004D01*
X497617Y68995D01*
X497694Y68981D01*
X497769Y68964D01*
X497843Y68943D01*
X497917Y68918D01*
X497989Y68890D01*
X498059Y68858D01*
X498128Y68823D01*
X498195Y68784D01*
X498260Y68742D01*
X498323Y68697D01*
X498384Y68649D01*
X498442Y68598D01*
X498497Y68544D01*
X498550Y68487D01*
X498599Y68428D01*
X498646Y68366D01*
X498690Y68302D01*
X498730Y68236D01*
X498767Y68168D01*
X498801Y68098D01*
X498831Y68027D01*
X498857Y67954D01*
X498880Y67880D01*
X498899Y67805D01*
X498914Y67730D01*
X498926Y67653D01*
X498934Y67576D01*
X498938Y67499D01*
X498938Y67421D01*
X498934Y67344D01*
X498926Y67267D01*
X498914Y67190D01*
X498899Y67115D01*
X498880Y67040D01*
X498857Y66966D01*
X498831Y66893D01*
X498801Y66822D01*
X498767Y66752D01*
X498730Y66684D01*
X498690Y66618D01*
X498646Y66554D01*
X498599Y66492D01*
X498550Y66433D01*
X498497Y66376D01*
X498442Y66322D01*
X498384Y66271D01*
X498323Y66223D01*
X498260Y66178D01*
X498195Y66136D01*
X498128Y66097D01*
X498059Y66062D01*
X497989Y66030D01*
X497917Y66002D01*
X497843Y65977D01*
X497769Y65956D01*
X497694Y65939D01*
X497617Y65925D01*
X497541Y65916D01*
X497463Y65910D01*
X497386Y65908D01*
X495833Y65908D01*
X495833Y71496D01*
X497386Y71496D01*
X497456Y71494D01*
X497525Y71488D01*
X497594Y71478D01*
X497662Y71465D01*
X497730Y71447D01*
X497796Y71426D01*
X497861Y71401D01*
X497925Y71373D01*
X497987Y71341D01*
X498047Y71306D01*
X498105Y71267D01*
X498160Y71225D01*
X498214Y71180D01*
X498264Y71132D01*
X498312Y71082D01*
X498357Y71028D01*
X498399Y70973D01*
X498438Y70915D01*
X498473Y70855D01*
X498505Y70793D01*
X498533Y70729D01*
X498558Y70664D01*
X498579Y70598D01*
X498597Y70530D01*
X498610Y70462D01*
X498620Y70393D01*
X498626Y70324D01*
X498628Y70254D01*
X498626Y70184D01*
X498620Y70115D01*
X498610Y70046D01*
X498597Y69978D01*
X498579Y69910D01*
X498558Y69844D01*
X498533Y69779D01*
X498505Y69715D01*
X498473Y69653D01*
X498438Y69593D01*
X498399Y69535D01*
X498357Y69480D01*
X498312Y69426D01*
X498264Y69376D01*
X498214Y69328D01*
X498160Y69283D01*
X498105Y69241D01*
X498047Y69202D01*
X497987Y69167D01*
X497925Y69135D01*
X497861Y69107D01*
X497796Y69082D01*
X497730Y69061D01*
X497662Y69043D01*
X497594Y69030D01*
X497525Y69020D01*
X497456Y69014D01*
X497386Y69012D01*
X502240Y71496D02*
X502240Y65908D01*
X500688Y71496D02*
X503793Y71496D01*
X505992Y71496D02*
X505992Y65908D01*
X509096Y65908D02*
X505992Y71496D01*
X509096Y71496D02*
X509096Y65908D01*
D13*
X508400Y190050D02*
X508400Y229050D01*
X558400Y229050D02*
X558400Y190050D01*
D12*
X513350Y173550D02*
X513352Y173613D01*
X513358Y173675D01*
X513368Y173737D01*
X513381Y173799D01*
X513399Y173859D01*
X513420Y173918D01*
X513445Y173976D01*
X513474Y174032D01*
X513506Y174086D01*
X513541Y174138D01*
X513579Y174187D01*
X513621Y174235D01*
X513665Y174279D01*
X513713Y174321D01*
X513762Y174359D01*
X513814Y174394D01*
X513868Y174426D01*
X513924Y174455D01*
X513982Y174480D01*
X514041Y174501D01*
X514101Y174519D01*
X514163Y174532D01*
X514225Y174542D01*
X514287Y174548D01*
X514350Y174550D01*
X514413Y174548D01*
X514475Y174542D01*
X514537Y174532D01*
X514599Y174519D01*
X514659Y174501D01*
X514718Y174480D01*
X514776Y174455D01*
X514832Y174426D01*
X514886Y174394D01*
X514938Y174359D01*
X514987Y174321D01*
X515035Y174279D01*
X515079Y174235D01*
X515121Y174187D01*
X515159Y174138D01*
X515194Y174086D01*
X515226Y174032D01*
X515255Y173976D01*
X515280Y173918D01*
X515301Y173859D01*
X515319Y173799D01*
X515332Y173737D01*
X515342Y173675D01*
X515348Y173613D01*
X515350Y173550D01*
X515348Y173487D01*
X515342Y173425D01*
X515332Y173363D01*
X515319Y173301D01*
X515301Y173241D01*
X515280Y173182D01*
X515255Y173124D01*
X515226Y173068D01*
X515194Y173014D01*
X515159Y172962D01*
X515121Y172913D01*
X515079Y172865D01*
X515035Y172821D01*
X514987Y172779D01*
X514938Y172741D01*
X514886Y172706D01*
X514832Y172674D01*
X514776Y172645D01*
X514718Y172620D01*
X514659Y172599D01*
X514599Y172581D01*
X514537Y172568D01*
X514475Y172558D01*
X514413Y172552D01*
X514350Y172550D01*
X514287Y172552D01*
X514225Y172558D01*
X514163Y172568D01*
X514101Y172581D01*
X514041Y172599D01*
X513982Y172620D01*
X513924Y172645D01*
X513868Y172674D01*
X513814Y172706D01*
X513762Y172741D01*
X513713Y172779D01*
X513665Y172821D01*
X513621Y172865D01*
X513579Y172913D01*
X513541Y172962D01*
X513506Y173014D01*
X513474Y173068D01*
X513445Y173124D01*
X513420Y173182D01*
X513399Y173241D01*
X513381Y173301D01*
X513368Y173363D01*
X513358Y173425D01*
X513352Y173487D01*
X513350Y173550D01*
D10*
X567329Y206679D02*
X567329Y211025D01*
X567329Y206679D02*
X567327Y206609D01*
X567321Y206540D01*
X567311Y206471D01*
X567298Y206403D01*
X567280Y206335D01*
X567259Y206269D01*
X567234Y206204D01*
X567206Y206140D01*
X567174Y206078D01*
X567139Y206018D01*
X567100Y205960D01*
X567058Y205905D01*
X567013Y205851D01*
X566965Y205801D01*
X566915Y205753D01*
X566861Y205708D01*
X566806Y205666D01*
X566748Y205627D01*
X566688Y205592D01*
X566626Y205560D01*
X566562Y205532D01*
X566497Y205507D01*
X566431Y205486D01*
X566363Y205468D01*
X566295Y205455D01*
X566226Y205445D01*
X566157Y205439D01*
X566087Y205437D01*
X565466Y205437D01*
X569871Y209783D02*
X571423Y211025D01*
X571423Y205437D01*
X569871Y205437D02*
X572975Y205437D01*
D12*
X436250Y109100D02*
X436250Y85850D01*
X452750Y85850D01*
X452750Y109100D01*
D10*
X434594Y92464D02*
X429006Y92464D01*
X434594Y92464D02*
X434594Y94947D01*
X434594Y97219D02*
X434594Y99702D01*
X434594Y97219D02*
X429006Y97219D01*
X429006Y99702D01*
X431490Y99081D02*
X431490Y97219D01*
X429006Y101962D02*
X434594Y101962D01*
X429006Y101962D02*
X429006Y103515D01*
X429008Y103591D01*
X429013Y103667D01*
X429023Y103743D01*
X429036Y103818D01*
X429053Y103892D01*
X429073Y103966D01*
X429097Y104038D01*
X429124Y104109D01*
X429155Y104179D01*
X429189Y104247D01*
X429227Y104313D01*
X429268Y104377D01*
X429311Y104440D01*
X429358Y104500D01*
X429408Y104557D01*
X429461Y104612D01*
X429516Y104665D01*
X429573Y104715D01*
X429633Y104762D01*
X429696Y104805D01*
X429760Y104846D01*
X429826Y104884D01*
X429894Y104918D01*
X429964Y104949D01*
X430035Y104976D01*
X430108Y105000D01*
X430181Y105020D01*
X430255Y105037D01*
X430330Y105050D01*
X430406Y105060D01*
X430482Y105065D01*
X430558Y105067D01*
X433042Y105067D01*
X433118Y105065D01*
X433194Y105060D01*
X433270Y105050D01*
X433345Y105037D01*
X433419Y105020D01*
X433493Y105000D01*
X433565Y104976D01*
X433636Y104949D01*
X433706Y104918D01*
X433774Y104884D01*
X433840Y104846D01*
X433904Y104805D01*
X433967Y104762D01*
X434027Y104715D01*
X434084Y104665D01*
X434139Y104612D01*
X434192Y104557D01*
X434242Y104500D01*
X434289Y104440D01*
X434332Y104377D01*
X434373Y104313D01*
X434411Y104247D01*
X434445Y104179D01*
X434476Y104109D01*
X434503Y104038D01*
X434527Y103966D01*
X434547Y103892D01*
X434564Y103818D01*
X434577Y103743D01*
X434587Y103667D01*
X434592Y103591D01*
X434594Y103515D01*
X434594Y101962D01*
X430248Y107632D02*
X429006Y109184D01*
X434594Y109184D01*
X434594Y107632D02*
X434594Y110736D01*
X273304Y133604D02*
X273304Y139192D01*
X274856Y139192D01*
X274933Y139190D01*
X275011Y139184D01*
X275087Y139175D01*
X275164Y139161D01*
X275239Y139144D01*
X275313Y139123D01*
X275387Y139098D01*
X275459Y139070D01*
X275529Y139038D01*
X275598Y139003D01*
X275665Y138964D01*
X275730Y138922D01*
X275793Y138877D01*
X275854Y138829D01*
X275912Y138778D01*
X275967Y138724D01*
X276020Y138667D01*
X276069Y138608D01*
X276116Y138546D01*
X276160Y138482D01*
X276200Y138416D01*
X276237Y138348D01*
X276271Y138278D01*
X276301Y138207D01*
X276327Y138134D01*
X276350Y138060D01*
X276369Y137985D01*
X276384Y137910D01*
X276396Y137833D01*
X276404Y137756D01*
X276408Y137679D01*
X276408Y137601D01*
X276404Y137524D01*
X276396Y137447D01*
X276384Y137370D01*
X276369Y137295D01*
X276350Y137220D01*
X276327Y137146D01*
X276301Y137073D01*
X276271Y137002D01*
X276237Y136932D01*
X276200Y136864D01*
X276160Y136798D01*
X276116Y136734D01*
X276069Y136672D01*
X276020Y136613D01*
X275967Y136556D01*
X275912Y136502D01*
X275854Y136451D01*
X275793Y136403D01*
X275730Y136358D01*
X275665Y136316D01*
X275598Y136277D01*
X275529Y136242D01*
X275459Y136210D01*
X275387Y136182D01*
X275313Y136157D01*
X275239Y136136D01*
X275164Y136119D01*
X275087Y136105D01*
X275011Y136096D01*
X274933Y136090D01*
X274856Y136088D01*
X273304Y136088D01*
X275167Y136088D02*
X276408Y133604D01*
X278754Y137950D02*
X280307Y139192D01*
X280307Y133604D01*
X281859Y133604D02*
X278754Y133604D01*
X275844Y194564D02*
X275844Y200152D01*
X277396Y200152D01*
X277473Y200150D01*
X277551Y200144D01*
X277627Y200135D01*
X277704Y200121D01*
X277779Y200104D01*
X277853Y200083D01*
X277927Y200058D01*
X277999Y200030D01*
X278069Y199998D01*
X278138Y199963D01*
X278205Y199924D01*
X278270Y199882D01*
X278333Y199837D01*
X278394Y199789D01*
X278452Y199738D01*
X278507Y199684D01*
X278560Y199627D01*
X278609Y199568D01*
X278656Y199506D01*
X278700Y199442D01*
X278740Y199376D01*
X278777Y199308D01*
X278811Y199238D01*
X278841Y199167D01*
X278867Y199094D01*
X278890Y199020D01*
X278909Y198945D01*
X278924Y198870D01*
X278936Y198793D01*
X278944Y198716D01*
X278948Y198639D01*
X278948Y198561D01*
X278944Y198484D01*
X278936Y198407D01*
X278924Y198330D01*
X278909Y198255D01*
X278890Y198180D01*
X278867Y198106D01*
X278841Y198033D01*
X278811Y197962D01*
X278777Y197892D01*
X278740Y197824D01*
X278700Y197758D01*
X278656Y197694D01*
X278609Y197632D01*
X278560Y197573D01*
X278507Y197516D01*
X278452Y197462D01*
X278394Y197411D01*
X278333Y197363D01*
X278270Y197318D01*
X278205Y197276D01*
X278138Y197237D01*
X278069Y197202D01*
X277999Y197170D01*
X277927Y197142D01*
X277853Y197117D01*
X277779Y197096D01*
X277704Y197079D01*
X277627Y197065D01*
X277551Y197056D01*
X277473Y197050D01*
X277396Y197048D01*
X275844Y197048D01*
X277707Y197048D02*
X278948Y194564D01*
X284399Y198755D02*
X284397Y198828D01*
X284391Y198901D01*
X284382Y198974D01*
X284368Y199045D01*
X284351Y199117D01*
X284331Y199187D01*
X284306Y199256D01*
X284278Y199323D01*
X284247Y199389D01*
X284212Y199454D01*
X284174Y199516D01*
X284132Y199576D01*
X284088Y199634D01*
X284040Y199690D01*
X283990Y199743D01*
X283937Y199793D01*
X283881Y199841D01*
X283823Y199885D01*
X283763Y199927D01*
X283701Y199965D01*
X283636Y200000D01*
X283570Y200031D01*
X283503Y200059D01*
X283434Y200084D01*
X283364Y200104D01*
X283292Y200121D01*
X283221Y200135D01*
X283148Y200144D01*
X283075Y200150D01*
X283002Y200152D01*
X282918Y200150D01*
X282835Y200144D01*
X282752Y200135D01*
X282670Y200121D01*
X282588Y200104D01*
X282507Y200082D01*
X282427Y200057D01*
X282349Y200029D01*
X282271Y199997D01*
X282196Y199961D01*
X282122Y199922D01*
X282050Y199879D01*
X281980Y199833D01*
X281913Y199784D01*
X281847Y199731D01*
X281785Y199676D01*
X281725Y199618D01*
X281667Y199557D01*
X281613Y199494D01*
X281561Y199428D01*
X281513Y199360D01*
X281468Y199289D01*
X281426Y199217D01*
X281388Y199142D01*
X281353Y199066D01*
X281322Y198989D01*
X281294Y198910D01*
X283932Y197669D02*
X283986Y197722D01*
X284037Y197779D01*
X284085Y197838D01*
X284130Y197899D01*
X284171Y197962D01*
X284210Y198028D01*
X284245Y198095D01*
X284277Y198164D01*
X284305Y198235D01*
X284329Y198306D01*
X284350Y198379D01*
X284367Y198453D01*
X284381Y198528D01*
X284390Y198603D01*
X284396Y198679D01*
X284398Y198755D01*
X283933Y197668D02*
X281294Y194564D01*
X284399Y194564D01*
X463804Y35641D02*
X469392Y35641D01*
X463804Y35641D02*
X463804Y37194D01*
X463806Y37271D01*
X463812Y37349D01*
X463821Y37425D01*
X463835Y37502D01*
X463852Y37577D01*
X463873Y37651D01*
X463898Y37725D01*
X463926Y37797D01*
X463958Y37867D01*
X463993Y37936D01*
X464032Y38003D01*
X464074Y38068D01*
X464119Y38131D01*
X464167Y38192D01*
X464218Y38250D01*
X464272Y38305D01*
X464329Y38358D01*
X464388Y38407D01*
X464450Y38454D01*
X464514Y38498D01*
X464580Y38538D01*
X464648Y38575D01*
X464718Y38609D01*
X464789Y38639D01*
X464862Y38665D01*
X464936Y38688D01*
X465011Y38707D01*
X465086Y38722D01*
X465163Y38734D01*
X465240Y38742D01*
X465317Y38746D01*
X465395Y38746D01*
X465472Y38742D01*
X465549Y38734D01*
X465626Y38722D01*
X465701Y38707D01*
X465776Y38688D01*
X465850Y38665D01*
X465923Y38639D01*
X465994Y38609D01*
X466064Y38575D01*
X466132Y38538D01*
X466198Y38498D01*
X466262Y38454D01*
X466324Y38407D01*
X466383Y38358D01*
X466440Y38305D01*
X466494Y38250D01*
X466545Y38192D01*
X466593Y38131D01*
X466638Y38068D01*
X466680Y38003D01*
X466719Y37936D01*
X466754Y37867D01*
X466786Y37797D01*
X466814Y37725D01*
X466839Y37651D01*
X466860Y37577D01*
X466877Y37502D01*
X466891Y37425D01*
X466900Y37349D01*
X466906Y37271D01*
X466908Y37194D01*
X466908Y35641D01*
X466908Y37504D02*
X469392Y38746D01*
X469392Y41092D02*
X469392Y42644D01*
X469390Y42721D01*
X469384Y42799D01*
X469375Y42875D01*
X469361Y42952D01*
X469344Y43027D01*
X469323Y43101D01*
X469298Y43175D01*
X469270Y43247D01*
X469238Y43317D01*
X469203Y43386D01*
X469164Y43453D01*
X469122Y43518D01*
X469077Y43581D01*
X469029Y43642D01*
X468978Y43700D01*
X468924Y43755D01*
X468867Y43808D01*
X468808Y43857D01*
X468746Y43904D01*
X468682Y43948D01*
X468616Y43988D01*
X468548Y44025D01*
X468478Y44059D01*
X468407Y44089D01*
X468334Y44115D01*
X468260Y44138D01*
X468185Y44157D01*
X468110Y44172D01*
X468033Y44184D01*
X467956Y44192D01*
X467879Y44196D01*
X467801Y44196D01*
X467724Y44192D01*
X467647Y44184D01*
X467570Y44172D01*
X467495Y44157D01*
X467420Y44138D01*
X467346Y44115D01*
X467273Y44089D01*
X467202Y44059D01*
X467132Y44025D01*
X467064Y43988D01*
X466998Y43948D01*
X466934Y43904D01*
X466872Y43857D01*
X466813Y43808D01*
X466756Y43755D01*
X466702Y43700D01*
X466651Y43642D01*
X466603Y43581D01*
X466558Y43518D01*
X466516Y43453D01*
X466477Y43386D01*
X466442Y43317D01*
X466410Y43247D01*
X466382Y43175D01*
X466357Y43101D01*
X466336Y43027D01*
X466319Y42952D01*
X466305Y42875D01*
X466296Y42799D01*
X466290Y42721D01*
X466288Y42644D01*
X463804Y42954D02*
X463804Y41092D01*
X463804Y42954D02*
X463806Y43024D01*
X463812Y43093D01*
X463822Y43162D01*
X463835Y43230D01*
X463853Y43298D01*
X463874Y43364D01*
X463899Y43429D01*
X463927Y43493D01*
X463959Y43555D01*
X463994Y43615D01*
X464033Y43673D01*
X464075Y43728D01*
X464120Y43782D01*
X464168Y43832D01*
X464218Y43880D01*
X464272Y43925D01*
X464327Y43967D01*
X464385Y44006D01*
X464445Y44041D01*
X464507Y44073D01*
X464571Y44101D01*
X464636Y44126D01*
X464702Y44147D01*
X464770Y44165D01*
X464838Y44178D01*
X464907Y44188D01*
X464976Y44194D01*
X465046Y44196D01*
X465116Y44194D01*
X465185Y44188D01*
X465254Y44178D01*
X465322Y44165D01*
X465390Y44147D01*
X465456Y44126D01*
X465521Y44101D01*
X465585Y44073D01*
X465647Y44041D01*
X465707Y44006D01*
X465765Y43967D01*
X465820Y43925D01*
X465874Y43880D01*
X465924Y43832D01*
X465972Y43782D01*
X466017Y43728D01*
X466059Y43673D01*
X466098Y43615D01*
X466133Y43555D01*
X466165Y43493D01*
X466193Y43429D01*
X466218Y43364D01*
X466239Y43298D01*
X466257Y43230D01*
X466270Y43162D01*
X466280Y43093D01*
X466286Y43024D01*
X466288Y42954D01*
X466288Y41712D01*
D14*
X386600Y146800D02*
X324600Y146800D01*
X386600Y146800D02*
X386600Y81800D01*
X324600Y81800D01*
X324600Y146800D01*
D15*
X298600Y94300D03*
D12*
X298538Y94298D01*
X298477Y94292D01*
X298416Y94283D01*
X298356Y94270D01*
X298297Y94253D01*
X298239Y94232D01*
X298182Y94208D01*
X298127Y94181D01*
X298074Y94150D01*
X298022Y94116D01*
X297973Y94079D01*
X297926Y94039D01*
X297882Y93996D01*
X297841Y93951D01*
X297802Y93903D01*
X297766Y93852D01*
X297734Y93800D01*
X297705Y93746D01*
X297679Y93690D01*
X297657Y93632D01*
X297638Y93574D01*
X297623Y93514D01*
X297612Y93453D01*
X297604Y93392D01*
X297600Y93331D01*
X297600Y93269D01*
X297604Y93208D01*
X297612Y93147D01*
X297623Y93086D01*
X297638Y93026D01*
X297657Y92968D01*
X297679Y92910D01*
X297705Y92854D01*
X297734Y92800D01*
X297766Y92748D01*
X297802Y92697D01*
X297841Y92649D01*
X297882Y92604D01*
X297926Y92561D01*
X297973Y92521D01*
X298022Y92484D01*
X298074Y92450D01*
X298127Y92419D01*
X298182Y92392D01*
X298239Y92368D01*
X298297Y92347D01*
X298356Y92330D01*
X298416Y92317D01*
X298477Y92308D01*
X298538Y92302D01*
X298600Y92300D01*
D15*
X298600Y92300D03*
D12*
X298662Y92302D01*
X298723Y92308D01*
X298784Y92317D01*
X298844Y92330D01*
X298903Y92347D01*
X298961Y92368D01*
X299018Y92392D01*
X299073Y92419D01*
X299126Y92450D01*
X299178Y92484D01*
X299227Y92521D01*
X299274Y92561D01*
X299318Y92604D01*
X299359Y92649D01*
X299398Y92697D01*
X299434Y92748D01*
X299466Y92800D01*
X299495Y92854D01*
X299521Y92910D01*
X299543Y92968D01*
X299562Y93026D01*
X299577Y93086D01*
X299588Y93147D01*
X299596Y93208D01*
X299600Y93269D01*
X299600Y93331D01*
X299596Y93392D01*
X299588Y93453D01*
X299577Y93514D01*
X299562Y93574D01*
X299543Y93632D01*
X299521Y93690D01*
X299495Y93746D01*
X299466Y93800D01*
X299434Y93852D01*
X299398Y93903D01*
X299359Y93951D01*
X299318Y93996D01*
X299274Y94039D01*
X299227Y94079D01*
X299178Y94116D01*
X299126Y94150D01*
X299073Y94181D01*
X299018Y94208D01*
X298961Y94232D01*
X298903Y94253D01*
X298844Y94270D01*
X298784Y94283D01*
X298723Y94292D01*
X298662Y94298D01*
X298600Y94300D01*
D10*
X350259Y98806D02*
X350329Y98808D01*
X350398Y98814D01*
X350467Y98824D01*
X350535Y98837D01*
X350603Y98855D01*
X350669Y98876D01*
X350734Y98901D01*
X350798Y98929D01*
X350860Y98961D01*
X350920Y98996D01*
X350978Y99035D01*
X351033Y99077D01*
X351087Y99122D01*
X351137Y99170D01*
X351185Y99220D01*
X351230Y99274D01*
X351272Y99329D01*
X351311Y99387D01*
X351346Y99447D01*
X351378Y99509D01*
X351406Y99573D01*
X351431Y99638D01*
X351452Y99704D01*
X351470Y99772D01*
X351483Y99840D01*
X351493Y99909D01*
X351499Y99978D01*
X351501Y100048D01*
X350259Y98806D02*
X350160Y98808D01*
X350062Y98813D01*
X349964Y98823D01*
X349866Y98836D01*
X349769Y98852D01*
X349672Y98872D01*
X349577Y98896D01*
X349482Y98924D01*
X349388Y98955D01*
X349296Y98989D01*
X349205Y99027D01*
X349115Y99068D01*
X349027Y99113D01*
X348941Y99161D01*
X348857Y99212D01*
X348775Y99266D01*
X348694Y99324D01*
X348616Y99384D01*
X348541Y99447D01*
X348467Y99513D01*
X348397Y99582D01*
X348551Y103152D02*
X348553Y103222D01*
X348559Y103291D01*
X348569Y103360D01*
X348582Y103428D01*
X348600Y103496D01*
X348621Y103562D01*
X348646Y103627D01*
X348674Y103691D01*
X348706Y103753D01*
X348741Y103813D01*
X348780Y103871D01*
X348822Y103926D01*
X348867Y103980D01*
X348915Y104030D01*
X348965Y104078D01*
X349019Y104123D01*
X349074Y104165D01*
X349132Y104204D01*
X349192Y104239D01*
X349254Y104271D01*
X349318Y104299D01*
X349383Y104324D01*
X349449Y104345D01*
X349517Y104363D01*
X349585Y104376D01*
X349654Y104386D01*
X349723Y104392D01*
X349793Y104394D01*
X349887Y104392D01*
X349980Y104386D01*
X350073Y104377D01*
X350166Y104364D01*
X350258Y104347D01*
X350349Y104327D01*
X350440Y104302D01*
X350529Y104275D01*
X350617Y104243D01*
X350704Y104208D01*
X350790Y104170D01*
X350873Y104128D01*
X350955Y104083D01*
X351036Y104035D01*
X351114Y103983D01*
X351190Y103928D01*
X349172Y102066D02*
X349113Y102102D01*
X349057Y102142D01*
X349003Y102185D01*
X348951Y102230D01*
X348902Y102279D01*
X348856Y102330D01*
X348813Y102383D01*
X348772Y102439D01*
X348735Y102497D01*
X348700Y102557D01*
X348670Y102618D01*
X348642Y102681D01*
X348618Y102746D01*
X348598Y102812D01*
X348581Y102879D01*
X348568Y102946D01*
X348559Y103014D01*
X348553Y103083D01*
X348551Y103152D01*
X350879Y101134D02*
X350938Y101098D01*
X350994Y101058D01*
X351048Y101015D01*
X351100Y100970D01*
X351149Y100921D01*
X351195Y100870D01*
X351238Y100817D01*
X351279Y100761D01*
X351316Y100703D01*
X351351Y100643D01*
X351381Y100582D01*
X351409Y100519D01*
X351433Y100454D01*
X351453Y100388D01*
X351470Y100321D01*
X351483Y100254D01*
X351492Y100186D01*
X351498Y100117D01*
X351500Y100048D01*
X350880Y101134D02*
X349172Y102066D01*
X353700Y103152D02*
X355252Y104394D01*
X355252Y98806D01*
X353700Y98806D02*
X356804Y98806D01*
D14*
X386600Y254750D02*
X324600Y254750D01*
X386600Y254750D02*
X386600Y189750D01*
X324600Y189750D01*
X324600Y254750D01*
D15*
X298600Y202250D03*
D12*
X298538Y202248D01*
X298477Y202242D01*
X298416Y202233D01*
X298356Y202220D01*
X298297Y202203D01*
X298239Y202182D01*
X298182Y202158D01*
X298127Y202131D01*
X298074Y202100D01*
X298022Y202066D01*
X297973Y202029D01*
X297926Y201989D01*
X297882Y201946D01*
X297841Y201901D01*
X297802Y201853D01*
X297766Y201802D01*
X297734Y201750D01*
X297705Y201696D01*
X297679Y201640D01*
X297657Y201582D01*
X297638Y201524D01*
X297623Y201464D01*
X297612Y201403D01*
X297604Y201342D01*
X297600Y201281D01*
X297600Y201219D01*
X297604Y201158D01*
X297612Y201097D01*
X297623Y201036D01*
X297638Y200976D01*
X297657Y200918D01*
X297679Y200860D01*
X297705Y200804D01*
X297734Y200750D01*
X297766Y200698D01*
X297802Y200647D01*
X297841Y200599D01*
X297882Y200554D01*
X297926Y200511D01*
X297973Y200471D01*
X298022Y200434D01*
X298074Y200400D01*
X298127Y200369D01*
X298182Y200342D01*
X298239Y200318D01*
X298297Y200297D01*
X298356Y200280D01*
X298416Y200267D01*
X298477Y200258D01*
X298538Y200252D01*
X298600Y200250D01*
D15*
X298600Y200250D03*
D12*
X298662Y200252D01*
X298723Y200258D01*
X298784Y200267D01*
X298844Y200280D01*
X298903Y200297D01*
X298961Y200318D01*
X299018Y200342D01*
X299073Y200369D01*
X299126Y200400D01*
X299178Y200434D01*
X299227Y200471D01*
X299274Y200511D01*
X299318Y200554D01*
X299359Y200599D01*
X299398Y200647D01*
X299434Y200698D01*
X299466Y200750D01*
X299495Y200804D01*
X299521Y200860D01*
X299543Y200918D01*
X299562Y200976D01*
X299577Y201036D01*
X299588Y201097D01*
X299596Y201158D01*
X299600Y201219D01*
X299600Y201281D01*
X299596Y201342D01*
X299588Y201403D01*
X299577Y201464D01*
X299562Y201524D01*
X299543Y201582D01*
X299521Y201640D01*
X299495Y201696D01*
X299466Y201750D01*
X299434Y201802D01*
X299398Y201853D01*
X299359Y201901D01*
X299318Y201946D01*
X299274Y201989D01*
X299227Y202029D01*
X299178Y202066D01*
X299126Y202100D01*
X299073Y202131D01*
X299018Y202158D01*
X298961Y202182D01*
X298903Y202203D01*
X298844Y202220D01*
X298784Y202233D01*
X298723Y202242D01*
X298662Y202248D01*
X298600Y202250D01*
D10*
X350259Y206756D02*
X350329Y206758D01*
X350398Y206764D01*
X350467Y206774D01*
X350535Y206787D01*
X350603Y206805D01*
X350669Y206826D01*
X350734Y206851D01*
X350798Y206879D01*
X350860Y206911D01*
X350920Y206946D01*
X350978Y206985D01*
X351033Y207027D01*
X351087Y207072D01*
X351137Y207120D01*
X351185Y207170D01*
X351230Y207224D01*
X351272Y207279D01*
X351311Y207337D01*
X351346Y207397D01*
X351378Y207459D01*
X351406Y207523D01*
X351431Y207588D01*
X351452Y207654D01*
X351470Y207722D01*
X351483Y207790D01*
X351493Y207859D01*
X351499Y207928D01*
X351501Y207998D01*
X350259Y206756D02*
X350160Y206758D01*
X350062Y206763D01*
X349964Y206773D01*
X349866Y206786D01*
X349769Y206802D01*
X349672Y206822D01*
X349577Y206846D01*
X349482Y206874D01*
X349388Y206905D01*
X349296Y206939D01*
X349205Y206977D01*
X349115Y207018D01*
X349027Y207063D01*
X348941Y207111D01*
X348857Y207162D01*
X348775Y207216D01*
X348694Y207274D01*
X348616Y207334D01*
X348541Y207397D01*
X348467Y207463D01*
X348397Y207532D01*
X348551Y211102D02*
X348553Y211172D01*
X348559Y211241D01*
X348569Y211310D01*
X348582Y211378D01*
X348600Y211446D01*
X348621Y211512D01*
X348646Y211577D01*
X348674Y211641D01*
X348706Y211703D01*
X348741Y211763D01*
X348780Y211821D01*
X348822Y211876D01*
X348867Y211930D01*
X348915Y211980D01*
X348965Y212028D01*
X349019Y212073D01*
X349074Y212115D01*
X349132Y212154D01*
X349192Y212189D01*
X349254Y212221D01*
X349318Y212249D01*
X349383Y212274D01*
X349449Y212295D01*
X349517Y212313D01*
X349585Y212326D01*
X349654Y212336D01*
X349723Y212342D01*
X349793Y212344D01*
X349887Y212342D01*
X349980Y212336D01*
X350073Y212327D01*
X350166Y212314D01*
X350258Y212297D01*
X350349Y212277D01*
X350440Y212252D01*
X350529Y212225D01*
X350617Y212193D01*
X350704Y212158D01*
X350790Y212120D01*
X350873Y212078D01*
X350955Y212033D01*
X351036Y211985D01*
X351114Y211933D01*
X351190Y211878D01*
X349172Y210016D02*
X349113Y210052D01*
X349057Y210092D01*
X349003Y210135D01*
X348951Y210180D01*
X348902Y210229D01*
X348856Y210280D01*
X348813Y210333D01*
X348772Y210389D01*
X348735Y210447D01*
X348700Y210507D01*
X348670Y210568D01*
X348642Y210631D01*
X348618Y210696D01*
X348598Y210762D01*
X348581Y210829D01*
X348568Y210896D01*
X348559Y210964D01*
X348553Y211033D01*
X348551Y211102D01*
X350879Y209084D02*
X350938Y209048D01*
X350994Y209008D01*
X351048Y208965D01*
X351100Y208920D01*
X351149Y208871D01*
X351195Y208820D01*
X351238Y208767D01*
X351279Y208711D01*
X351316Y208653D01*
X351351Y208593D01*
X351381Y208532D01*
X351409Y208469D01*
X351433Y208404D01*
X351453Y208338D01*
X351470Y208271D01*
X351483Y208204D01*
X351492Y208136D01*
X351498Y208067D01*
X351500Y207998D01*
X350880Y209084D02*
X349172Y210016D01*
X355407Y212344D02*
X355480Y212342D01*
X355553Y212336D01*
X355626Y212327D01*
X355697Y212313D01*
X355769Y212296D01*
X355839Y212276D01*
X355908Y212251D01*
X355975Y212223D01*
X356041Y212192D01*
X356106Y212157D01*
X356168Y212119D01*
X356228Y212077D01*
X356286Y212033D01*
X356342Y211985D01*
X356395Y211935D01*
X356445Y211882D01*
X356493Y211826D01*
X356537Y211768D01*
X356579Y211708D01*
X356617Y211646D01*
X356652Y211581D01*
X356683Y211515D01*
X356711Y211448D01*
X356736Y211379D01*
X356756Y211309D01*
X356773Y211237D01*
X356787Y211166D01*
X356796Y211093D01*
X356802Y211020D01*
X356804Y210947D01*
X355407Y212344D02*
X355323Y212342D01*
X355240Y212336D01*
X355157Y212327D01*
X355075Y212313D01*
X354993Y212296D01*
X354912Y212274D01*
X354832Y212249D01*
X354754Y212221D01*
X354676Y212189D01*
X354601Y212153D01*
X354527Y212114D01*
X354455Y212071D01*
X354385Y212025D01*
X354318Y211976D01*
X354252Y211923D01*
X354190Y211868D01*
X354130Y211810D01*
X354072Y211749D01*
X354018Y211686D01*
X353966Y211620D01*
X353918Y211552D01*
X353873Y211481D01*
X353831Y211409D01*
X353793Y211334D01*
X353758Y211258D01*
X353727Y211181D01*
X353699Y211102D01*
X356338Y209861D02*
X356392Y209914D01*
X356443Y209971D01*
X356491Y210030D01*
X356536Y210091D01*
X356577Y210154D01*
X356616Y210220D01*
X356651Y210287D01*
X356683Y210356D01*
X356711Y210427D01*
X356735Y210498D01*
X356756Y210571D01*
X356773Y210645D01*
X356787Y210720D01*
X356796Y210795D01*
X356802Y210871D01*
X356804Y210947D01*
X356338Y209860D02*
X353700Y206756D01*
X356804Y206756D01*
D12*
X16350Y71450D02*
X16352Y71513D01*
X16358Y71575D01*
X16368Y71637D01*
X16381Y71699D01*
X16399Y71759D01*
X16420Y71818D01*
X16445Y71876D01*
X16474Y71932D01*
X16506Y71986D01*
X16541Y72038D01*
X16579Y72087D01*
X16621Y72135D01*
X16665Y72179D01*
X16713Y72221D01*
X16762Y72259D01*
X16814Y72294D01*
X16868Y72326D01*
X16924Y72355D01*
X16982Y72380D01*
X17041Y72401D01*
X17101Y72419D01*
X17163Y72432D01*
X17225Y72442D01*
X17287Y72448D01*
X17350Y72450D01*
X17413Y72448D01*
X17475Y72442D01*
X17537Y72432D01*
X17599Y72419D01*
X17659Y72401D01*
X17718Y72380D01*
X17776Y72355D01*
X17832Y72326D01*
X17886Y72294D01*
X17938Y72259D01*
X17987Y72221D01*
X18035Y72179D01*
X18079Y72135D01*
X18121Y72087D01*
X18159Y72038D01*
X18194Y71986D01*
X18226Y71932D01*
X18255Y71876D01*
X18280Y71818D01*
X18301Y71759D01*
X18319Y71699D01*
X18332Y71637D01*
X18342Y71575D01*
X18348Y71513D01*
X18350Y71450D01*
X18348Y71387D01*
X18342Y71325D01*
X18332Y71263D01*
X18319Y71201D01*
X18301Y71141D01*
X18280Y71082D01*
X18255Y71024D01*
X18226Y70968D01*
X18194Y70914D01*
X18159Y70862D01*
X18121Y70813D01*
X18079Y70765D01*
X18035Y70721D01*
X17987Y70679D01*
X17938Y70641D01*
X17886Y70606D01*
X17832Y70574D01*
X17776Y70545D01*
X17718Y70520D01*
X17659Y70499D01*
X17599Y70481D01*
X17537Y70468D01*
X17475Y70458D01*
X17413Y70452D01*
X17350Y70450D01*
X17287Y70452D01*
X17225Y70458D01*
X17163Y70468D01*
X17101Y70481D01*
X17041Y70499D01*
X16982Y70520D01*
X16924Y70545D01*
X16868Y70574D01*
X16814Y70606D01*
X16762Y70641D01*
X16713Y70679D01*
X16665Y70721D01*
X16621Y70765D01*
X16579Y70813D01*
X16541Y70862D01*
X16506Y70914D01*
X16474Y70968D01*
X16445Y71024D01*
X16420Y71082D01*
X16399Y71141D01*
X16381Y71201D01*
X16368Y71263D01*
X16358Y71325D01*
X16352Y71387D01*
X16350Y71450D01*
D13*
X190850Y81450D02*
X197350Y81450D01*
X197350Y105950D01*
X197350Y236950D02*
X197350Y261450D01*
X190850Y261450D01*
X7350Y81450D02*
X-57650Y81450D01*
X-57650Y261450D01*
X7350Y261450D01*
D11*
X-3250Y258175D02*
X-3250Y315675D01*
X-3250Y258175D02*
X320750Y258175D01*
X320750Y315675D01*
X-3250Y315675D01*
X298750Y315100D02*
X298750Y310100D01*
X18750Y310100D02*
X18750Y315100D01*
D10*
X158267Y310762D02*
X159199Y310762D01*
X159199Y307658D01*
X157336Y307658D01*
X157266Y307660D01*
X157197Y307666D01*
X157128Y307676D01*
X157060Y307689D01*
X156992Y307707D01*
X156926Y307728D01*
X156861Y307753D01*
X156797Y307781D01*
X156735Y307813D01*
X156675Y307848D01*
X156617Y307887D01*
X156562Y307929D01*
X156508Y307974D01*
X156458Y308022D01*
X156410Y308072D01*
X156365Y308126D01*
X156323Y308181D01*
X156284Y308239D01*
X156249Y308299D01*
X156217Y308361D01*
X156189Y308425D01*
X156164Y308490D01*
X156143Y308556D01*
X156125Y308624D01*
X156112Y308692D01*
X156102Y308761D01*
X156096Y308830D01*
X156094Y308900D01*
X156094Y312004D01*
X156096Y312074D01*
X156102Y312143D01*
X156112Y312212D01*
X156125Y312280D01*
X156143Y312348D01*
X156164Y312414D01*
X156189Y312479D01*
X156217Y312543D01*
X156249Y312605D01*
X156284Y312665D01*
X156323Y312723D01*
X156365Y312778D01*
X156410Y312832D01*
X156458Y312882D01*
X156508Y312930D01*
X156562Y312975D01*
X156617Y313017D01*
X156675Y313056D01*
X156735Y313091D01*
X156797Y313123D01*
X156861Y313151D01*
X156926Y313176D01*
X156992Y313197D01*
X157060Y313215D01*
X157128Y313228D01*
X157197Y313238D01*
X157266Y313244D01*
X157336Y313246D01*
X159199Y313246D01*
X162029Y313246D02*
X162029Y307658D01*
X162029Y313246D02*
X163581Y313246D01*
X163658Y313244D01*
X163736Y313238D01*
X163812Y313229D01*
X163889Y313215D01*
X163964Y313198D01*
X164038Y313177D01*
X164112Y313152D01*
X164184Y313124D01*
X164254Y313092D01*
X164323Y313057D01*
X164390Y313018D01*
X164455Y312976D01*
X164518Y312931D01*
X164579Y312883D01*
X164637Y312832D01*
X164692Y312778D01*
X164745Y312721D01*
X164794Y312662D01*
X164841Y312600D01*
X164885Y312536D01*
X164925Y312470D01*
X164962Y312402D01*
X164996Y312332D01*
X165026Y312261D01*
X165052Y312188D01*
X165075Y312114D01*
X165094Y312039D01*
X165109Y311964D01*
X165121Y311887D01*
X165129Y311810D01*
X165133Y311733D01*
X165133Y311655D01*
X165129Y311578D01*
X165121Y311501D01*
X165109Y311424D01*
X165094Y311349D01*
X165075Y311274D01*
X165052Y311200D01*
X165026Y311127D01*
X164996Y311056D01*
X164962Y310986D01*
X164925Y310918D01*
X164885Y310852D01*
X164841Y310788D01*
X164794Y310726D01*
X164745Y310667D01*
X164692Y310610D01*
X164637Y310556D01*
X164579Y310505D01*
X164518Y310457D01*
X164455Y310412D01*
X164390Y310370D01*
X164323Y310331D01*
X164254Y310296D01*
X164184Y310264D01*
X164112Y310236D01*
X164038Y310211D01*
X163964Y310190D01*
X163889Y310173D01*
X163812Y310159D01*
X163736Y310150D01*
X163658Y310144D01*
X163581Y310142D01*
X162029Y310142D01*
X167705Y307658D02*
X167705Y313246D01*
X167084Y307658D02*
X168326Y307658D01*
X168326Y313246D02*
X167084Y313246D01*
X170542Y311694D02*
X170542Y309210D01*
X170542Y311694D02*
X170544Y311771D01*
X170550Y311849D01*
X170559Y311925D01*
X170573Y312002D01*
X170590Y312077D01*
X170611Y312151D01*
X170636Y312225D01*
X170664Y312297D01*
X170696Y312367D01*
X170731Y312436D01*
X170770Y312503D01*
X170812Y312568D01*
X170857Y312631D01*
X170905Y312692D01*
X170956Y312750D01*
X171010Y312805D01*
X171067Y312858D01*
X171126Y312907D01*
X171188Y312954D01*
X171252Y312998D01*
X171318Y313038D01*
X171386Y313075D01*
X171456Y313109D01*
X171527Y313139D01*
X171600Y313165D01*
X171674Y313188D01*
X171749Y313207D01*
X171824Y313222D01*
X171901Y313234D01*
X171978Y313242D01*
X172055Y313246D01*
X172133Y313246D01*
X172210Y313242D01*
X172287Y313234D01*
X172364Y313222D01*
X172439Y313207D01*
X172514Y313188D01*
X172588Y313165D01*
X172661Y313139D01*
X172732Y313109D01*
X172802Y313075D01*
X172870Y313038D01*
X172936Y312998D01*
X173000Y312954D01*
X173062Y312907D01*
X173121Y312858D01*
X173178Y312805D01*
X173232Y312750D01*
X173283Y312692D01*
X173331Y312631D01*
X173376Y312568D01*
X173418Y312503D01*
X173457Y312436D01*
X173492Y312367D01*
X173524Y312297D01*
X173552Y312225D01*
X173577Y312151D01*
X173598Y312077D01*
X173615Y312002D01*
X173629Y311925D01*
X173638Y311849D01*
X173644Y311771D01*
X173646Y311694D01*
X173646Y309210D01*
X173644Y309133D01*
X173638Y309055D01*
X173629Y308979D01*
X173615Y308902D01*
X173598Y308827D01*
X173577Y308753D01*
X173552Y308679D01*
X173524Y308607D01*
X173492Y308537D01*
X173457Y308468D01*
X173418Y308401D01*
X173376Y308336D01*
X173331Y308273D01*
X173283Y308212D01*
X173232Y308154D01*
X173178Y308099D01*
X173121Y308046D01*
X173062Y307997D01*
X173000Y307950D01*
X172936Y307906D01*
X172870Y307866D01*
X172802Y307829D01*
X172732Y307795D01*
X172661Y307765D01*
X172588Y307739D01*
X172514Y307716D01*
X172439Y307697D01*
X172364Y307682D01*
X172287Y307670D01*
X172210Y307662D01*
X172133Y307658D01*
X172055Y307658D01*
X171978Y307662D01*
X171901Y307670D01*
X171824Y307682D01*
X171749Y307697D01*
X171674Y307716D01*
X171600Y307739D01*
X171527Y307765D01*
X171456Y307795D01*
X171386Y307829D01*
X171318Y307866D01*
X171252Y307906D01*
X171188Y307950D01*
X171126Y307997D01*
X171067Y308046D01*
X171010Y308099D01*
X170956Y308154D01*
X170905Y308212D01*
X170857Y308273D01*
X170812Y308336D01*
X170770Y308401D01*
X170731Y308468D01*
X170696Y308537D01*
X170664Y308607D01*
X170636Y308679D01*
X170611Y308753D01*
X170590Y308827D01*
X170573Y308902D01*
X170559Y308979D01*
X170550Y309055D01*
X170544Y309133D01*
X170542Y309210D01*
D12*
X186050Y53850D02*
X186050Y30600D01*
X186050Y53850D02*
X169550Y53850D01*
X169550Y30600D01*
D10*
X167894Y28964D02*
X162306Y28964D01*
X167894Y28964D02*
X167894Y31447D01*
X167894Y33719D02*
X167894Y36202D01*
X167894Y33719D02*
X162306Y33719D01*
X162306Y36202D01*
X164790Y35581D02*
X164790Y33719D01*
X162306Y38462D02*
X167894Y38462D01*
X162306Y38462D02*
X162306Y40015D01*
X162308Y40091D01*
X162313Y40167D01*
X162323Y40243D01*
X162336Y40318D01*
X162353Y40392D01*
X162373Y40466D01*
X162397Y40538D01*
X162424Y40609D01*
X162455Y40679D01*
X162489Y40747D01*
X162527Y40813D01*
X162568Y40877D01*
X162611Y40940D01*
X162658Y41000D01*
X162708Y41057D01*
X162761Y41112D01*
X162816Y41165D01*
X162873Y41215D01*
X162933Y41262D01*
X162996Y41305D01*
X163060Y41346D01*
X163126Y41384D01*
X163194Y41418D01*
X163264Y41449D01*
X163335Y41476D01*
X163408Y41500D01*
X163481Y41520D01*
X163555Y41537D01*
X163630Y41550D01*
X163706Y41560D01*
X163782Y41565D01*
X163858Y41567D01*
X166342Y41567D01*
X166418Y41565D01*
X166494Y41560D01*
X166570Y41550D01*
X166645Y41537D01*
X166719Y41520D01*
X166793Y41500D01*
X166865Y41476D01*
X166936Y41449D01*
X167006Y41418D01*
X167074Y41384D01*
X167140Y41346D01*
X167204Y41305D01*
X167267Y41262D01*
X167327Y41215D01*
X167384Y41165D01*
X167439Y41112D01*
X167492Y41057D01*
X167542Y41000D01*
X167589Y40940D01*
X167632Y40877D01*
X167673Y40813D01*
X167711Y40747D01*
X167745Y40679D01*
X167776Y40609D01*
X167803Y40538D01*
X167827Y40466D01*
X167847Y40392D01*
X167864Y40318D01*
X167877Y40243D01*
X167887Y40167D01*
X167892Y40091D01*
X167894Y40015D01*
X167894Y38462D01*
X162306Y45839D02*
X162308Y45912D01*
X162314Y45985D01*
X162323Y46058D01*
X162337Y46129D01*
X162354Y46201D01*
X162374Y46271D01*
X162399Y46340D01*
X162427Y46407D01*
X162458Y46473D01*
X162493Y46538D01*
X162531Y46600D01*
X162573Y46660D01*
X162617Y46718D01*
X162665Y46774D01*
X162715Y46827D01*
X162768Y46877D01*
X162824Y46925D01*
X162882Y46969D01*
X162942Y47011D01*
X163005Y47049D01*
X163069Y47084D01*
X163135Y47115D01*
X163202Y47143D01*
X163271Y47168D01*
X163341Y47188D01*
X163413Y47205D01*
X163484Y47219D01*
X163557Y47228D01*
X163630Y47234D01*
X163703Y47236D01*
X162306Y45839D02*
X162308Y45755D01*
X162314Y45672D01*
X162323Y45589D01*
X162337Y45506D01*
X162354Y45425D01*
X162376Y45344D01*
X162401Y45264D01*
X162429Y45186D01*
X162461Y45108D01*
X162497Y45033D01*
X162536Y44959D01*
X162579Y44887D01*
X162625Y44817D01*
X162674Y44750D01*
X162727Y44684D01*
X162782Y44622D01*
X162840Y44562D01*
X162901Y44504D01*
X162964Y44450D01*
X163030Y44398D01*
X163098Y44350D01*
X163169Y44305D01*
X163241Y44263D01*
X163316Y44225D01*
X163392Y44190D01*
X163469Y44159D01*
X163548Y44131D01*
X164789Y46770D02*
X164736Y46824D01*
X164679Y46875D01*
X164620Y46923D01*
X164559Y46968D01*
X164496Y47009D01*
X164430Y47048D01*
X164363Y47083D01*
X164294Y47115D01*
X164223Y47143D01*
X164152Y47167D01*
X164079Y47188D01*
X164005Y47205D01*
X163930Y47219D01*
X163855Y47228D01*
X163779Y47234D01*
X163703Y47236D01*
X164790Y46770D02*
X167894Y44132D01*
X167894Y47236D01*
D12*
X277500Y45600D02*
X277500Y22350D01*
X294000Y22350D01*
X294000Y45600D01*
D10*
X295656Y28964D02*
X301244Y28964D01*
X301244Y31447D01*
X301244Y33719D02*
X301244Y36202D01*
X301244Y33719D02*
X295656Y33719D01*
X295656Y36202D01*
X298140Y35581D02*
X298140Y33719D01*
X295656Y38462D02*
X301244Y38462D01*
X295656Y38462D02*
X295656Y40015D01*
X295658Y40091D01*
X295663Y40167D01*
X295673Y40243D01*
X295686Y40318D01*
X295703Y40392D01*
X295723Y40466D01*
X295747Y40538D01*
X295774Y40609D01*
X295805Y40679D01*
X295839Y40747D01*
X295877Y40813D01*
X295918Y40877D01*
X295961Y40940D01*
X296008Y41000D01*
X296058Y41057D01*
X296111Y41112D01*
X296166Y41165D01*
X296223Y41215D01*
X296283Y41262D01*
X296346Y41305D01*
X296410Y41346D01*
X296476Y41384D01*
X296544Y41418D01*
X296614Y41449D01*
X296685Y41476D01*
X296758Y41500D01*
X296831Y41520D01*
X296905Y41537D01*
X296980Y41550D01*
X297056Y41560D01*
X297132Y41565D01*
X297208Y41567D01*
X299692Y41567D01*
X299768Y41565D01*
X299844Y41560D01*
X299920Y41550D01*
X299995Y41537D01*
X300069Y41520D01*
X300143Y41500D01*
X300215Y41476D01*
X300286Y41449D01*
X300356Y41418D01*
X300424Y41384D01*
X300490Y41346D01*
X300554Y41305D01*
X300617Y41262D01*
X300677Y41215D01*
X300734Y41165D01*
X300789Y41112D01*
X300842Y41057D01*
X300892Y41000D01*
X300939Y40940D01*
X300982Y40877D01*
X301023Y40813D01*
X301061Y40747D01*
X301095Y40679D01*
X301126Y40609D01*
X301153Y40538D01*
X301177Y40466D01*
X301197Y40392D01*
X301214Y40318D01*
X301227Y40243D01*
X301237Y40167D01*
X301242Y40091D01*
X301244Y40015D01*
X301244Y38462D01*
X301244Y44132D02*
X301244Y45684D01*
X301242Y45761D01*
X301236Y45839D01*
X301227Y45915D01*
X301213Y45992D01*
X301196Y46067D01*
X301175Y46141D01*
X301150Y46215D01*
X301122Y46287D01*
X301090Y46357D01*
X301055Y46426D01*
X301016Y46493D01*
X300974Y46558D01*
X300929Y46621D01*
X300881Y46682D01*
X300830Y46740D01*
X300776Y46795D01*
X300719Y46848D01*
X300660Y46897D01*
X300598Y46944D01*
X300534Y46988D01*
X300468Y47028D01*
X300400Y47065D01*
X300330Y47099D01*
X300259Y47129D01*
X300186Y47155D01*
X300112Y47178D01*
X300037Y47197D01*
X299962Y47212D01*
X299885Y47224D01*
X299808Y47232D01*
X299731Y47236D01*
X299653Y47236D01*
X299576Y47232D01*
X299499Y47224D01*
X299422Y47212D01*
X299347Y47197D01*
X299272Y47178D01*
X299198Y47155D01*
X299125Y47129D01*
X299054Y47099D01*
X298984Y47065D01*
X298916Y47028D01*
X298850Y46988D01*
X298786Y46944D01*
X298724Y46897D01*
X298665Y46848D01*
X298608Y46795D01*
X298554Y46740D01*
X298503Y46682D01*
X298455Y46621D01*
X298410Y46558D01*
X298368Y46493D01*
X298329Y46426D01*
X298294Y46357D01*
X298262Y46287D01*
X298234Y46215D01*
X298209Y46141D01*
X298188Y46067D01*
X298171Y45992D01*
X298157Y45915D01*
X298148Y45839D01*
X298142Y45761D01*
X298140Y45684D01*
X295656Y45994D02*
X295656Y44132D01*
X295656Y45994D02*
X295658Y46064D01*
X295664Y46133D01*
X295674Y46202D01*
X295687Y46270D01*
X295705Y46338D01*
X295726Y46404D01*
X295751Y46469D01*
X295779Y46533D01*
X295811Y46595D01*
X295846Y46655D01*
X295885Y46713D01*
X295927Y46768D01*
X295972Y46822D01*
X296020Y46872D01*
X296070Y46920D01*
X296124Y46965D01*
X296179Y47007D01*
X296237Y47046D01*
X296297Y47081D01*
X296359Y47113D01*
X296423Y47141D01*
X296488Y47166D01*
X296554Y47187D01*
X296622Y47205D01*
X296690Y47218D01*
X296759Y47228D01*
X296828Y47234D01*
X296898Y47236D01*
X296968Y47234D01*
X297037Y47228D01*
X297106Y47218D01*
X297174Y47205D01*
X297242Y47187D01*
X297308Y47166D01*
X297373Y47141D01*
X297437Y47113D01*
X297499Y47081D01*
X297559Y47046D01*
X297617Y47007D01*
X297672Y46965D01*
X297726Y46920D01*
X297776Y46872D01*
X297824Y46822D01*
X297869Y46768D01*
X297911Y46713D01*
X297950Y46655D01*
X297985Y46595D01*
X298017Y46533D01*
X298045Y46469D01*
X298070Y46404D01*
X298091Y46338D01*
X298109Y46270D01*
X298122Y46202D01*
X298132Y46133D01*
X298138Y46064D01*
X298140Y45994D01*
X298140Y44753D01*
X196596Y32004D02*
X191008Y32004D01*
X191008Y33556D01*
X191010Y33633D01*
X191016Y33711D01*
X191025Y33787D01*
X191039Y33864D01*
X191056Y33939D01*
X191077Y34013D01*
X191102Y34087D01*
X191130Y34159D01*
X191162Y34229D01*
X191197Y34298D01*
X191236Y34365D01*
X191278Y34430D01*
X191323Y34493D01*
X191371Y34554D01*
X191422Y34612D01*
X191476Y34667D01*
X191533Y34720D01*
X191592Y34769D01*
X191654Y34816D01*
X191718Y34860D01*
X191784Y34900D01*
X191852Y34937D01*
X191922Y34971D01*
X191993Y35001D01*
X192066Y35027D01*
X192140Y35050D01*
X192215Y35069D01*
X192290Y35084D01*
X192367Y35096D01*
X192444Y35104D01*
X192521Y35108D01*
X192599Y35108D01*
X192676Y35104D01*
X192753Y35096D01*
X192830Y35084D01*
X192905Y35069D01*
X192980Y35050D01*
X193054Y35027D01*
X193127Y35001D01*
X193198Y34971D01*
X193268Y34937D01*
X193336Y34900D01*
X193402Y34860D01*
X193466Y34816D01*
X193528Y34769D01*
X193587Y34720D01*
X193644Y34667D01*
X193698Y34612D01*
X193749Y34554D01*
X193797Y34493D01*
X193842Y34430D01*
X193884Y34365D01*
X193923Y34298D01*
X193958Y34229D01*
X193990Y34159D01*
X194018Y34087D01*
X194043Y34013D01*
X194064Y33939D01*
X194081Y33864D01*
X194095Y33787D01*
X194104Y33711D01*
X194110Y33633D01*
X194112Y33556D01*
X194112Y32004D01*
X194112Y33867D02*
X196596Y35108D01*
X195354Y37454D02*
X191008Y38696D01*
X195354Y37454D02*
X195354Y40559D01*
X194112Y39627D02*
X196596Y39627D01*
X317754Y35641D02*
X323342Y35641D01*
X317754Y35641D02*
X317754Y37194D01*
X317756Y37271D01*
X317762Y37349D01*
X317771Y37425D01*
X317785Y37502D01*
X317802Y37577D01*
X317823Y37651D01*
X317848Y37725D01*
X317876Y37797D01*
X317908Y37867D01*
X317943Y37936D01*
X317982Y38003D01*
X318024Y38068D01*
X318069Y38131D01*
X318117Y38192D01*
X318168Y38250D01*
X318222Y38305D01*
X318279Y38358D01*
X318338Y38407D01*
X318400Y38454D01*
X318464Y38498D01*
X318530Y38538D01*
X318598Y38575D01*
X318668Y38609D01*
X318739Y38639D01*
X318812Y38665D01*
X318886Y38688D01*
X318961Y38707D01*
X319036Y38722D01*
X319113Y38734D01*
X319190Y38742D01*
X319267Y38746D01*
X319345Y38746D01*
X319422Y38742D01*
X319499Y38734D01*
X319576Y38722D01*
X319651Y38707D01*
X319726Y38688D01*
X319800Y38665D01*
X319873Y38639D01*
X319944Y38609D01*
X320014Y38575D01*
X320082Y38538D01*
X320148Y38498D01*
X320212Y38454D01*
X320274Y38407D01*
X320333Y38358D01*
X320390Y38305D01*
X320444Y38250D01*
X320495Y38192D01*
X320543Y38131D01*
X320588Y38068D01*
X320630Y38003D01*
X320669Y37936D01*
X320704Y37867D01*
X320736Y37797D01*
X320764Y37725D01*
X320789Y37651D01*
X320810Y37577D01*
X320827Y37502D01*
X320841Y37425D01*
X320850Y37349D01*
X320856Y37271D01*
X320858Y37194D01*
X320858Y35641D01*
X320858Y37504D02*
X323342Y38746D01*
X323342Y41092D02*
X323342Y42954D01*
X323340Y43024D01*
X323334Y43093D01*
X323324Y43162D01*
X323311Y43230D01*
X323293Y43298D01*
X323272Y43364D01*
X323247Y43429D01*
X323219Y43493D01*
X323187Y43555D01*
X323152Y43615D01*
X323113Y43673D01*
X323071Y43728D01*
X323026Y43782D01*
X322978Y43832D01*
X322928Y43880D01*
X322874Y43925D01*
X322819Y43967D01*
X322761Y44006D01*
X322701Y44041D01*
X322639Y44073D01*
X322575Y44101D01*
X322510Y44126D01*
X322444Y44147D01*
X322376Y44165D01*
X322308Y44178D01*
X322239Y44188D01*
X322170Y44194D01*
X322100Y44196D01*
X321479Y44196D01*
X321409Y44194D01*
X321340Y44188D01*
X321271Y44178D01*
X321203Y44165D01*
X321135Y44147D01*
X321069Y44126D01*
X321004Y44101D01*
X320940Y44073D01*
X320878Y44041D01*
X320818Y44006D01*
X320760Y43967D01*
X320705Y43925D01*
X320651Y43880D01*
X320601Y43832D01*
X320553Y43782D01*
X320508Y43728D01*
X320466Y43673D01*
X320427Y43615D01*
X320392Y43555D01*
X320360Y43493D01*
X320332Y43429D01*
X320307Y43364D01*
X320286Y43298D01*
X320268Y43230D01*
X320255Y43162D01*
X320245Y43093D01*
X320239Y43024D01*
X320237Y42954D01*
X320238Y42954D02*
X320238Y41092D01*
X317754Y41092D01*
X317754Y44196D01*
D12*
X509700Y161250D02*
X520700Y161250D01*
X509700Y161250D02*
X509700Y118150D01*
X531700Y118150D01*
X531700Y152400D01*
D10*
X503202Y137808D02*
X498856Y137808D01*
X503202Y137808D02*
X503272Y137806D01*
X503341Y137800D01*
X503410Y137790D01*
X503478Y137777D01*
X503546Y137759D01*
X503612Y137738D01*
X503677Y137713D01*
X503741Y137685D01*
X503803Y137653D01*
X503863Y137618D01*
X503921Y137579D01*
X503976Y137537D01*
X504030Y137492D01*
X504080Y137444D01*
X504128Y137394D01*
X504173Y137340D01*
X504215Y137285D01*
X504254Y137227D01*
X504289Y137167D01*
X504321Y137105D01*
X504349Y137041D01*
X504374Y136976D01*
X504395Y136910D01*
X504413Y136842D01*
X504426Y136774D01*
X504436Y136705D01*
X504442Y136636D01*
X504444Y136566D01*
X504444Y135945D01*
X498856Y142058D02*
X498858Y142131D01*
X498864Y142204D01*
X498873Y142277D01*
X498887Y142348D01*
X498904Y142420D01*
X498924Y142490D01*
X498949Y142559D01*
X498977Y142626D01*
X499008Y142692D01*
X499043Y142757D01*
X499081Y142819D01*
X499123Y142879D01*
X499167Y142937D01*
X499215Y142993D01*
X499265Y143046D01*
X499318Y143096D01*
X499374Y143144D01*
X499432Y143188D01*
X499492Y143230D01*
X499555Y143268D01*
X499619Y143303D01*
X499685Y143334D01*
X499752Y143362D01*
X499821Y143387D01*
X499891Y143407D01*
X499963Y143424D01*
X500034Y143438D01*
X500107Y143447D01*
X500180Y143453D01*
X500253Y143455D01*
X498856Y142058D02*
X498858Y141974D01*
X498864Y141891D01*
X498873Y141808D01*
X498887Y141725D01*
X498904Y141644D01*
X498926Y141563D01*
X498951Y141483D01*
X498979Y141405D01*
X499011Y141327D01*
X499047Y141252D01*
X499086Y141178D01*
X499129Y141106D01*
X499175Y141036D01*
X499224Y140969D01*
X499277Y140903D01*
X499332Y140841D01*
X499390Y140781D01*
X499451Y140723D01*
X499514Y140669D01*
X499580Y140617D01*
X499648Y140569D01*
X499719Y140524D01*
X499791Y140482D01*
X499866Y140444D01*
X499942Y140409D01*
X500019Y140378D01*
X500098Y140350D01*
X501339Y142988D02*
X501286Y143042D01*
X501229Y143093D01*
X501170Y143141D01*
X501109Y143186D01*
X501046Y143227D01*
X500980Y143266D01*
X500913Y143301D01*
X500844Y143333D01*
X500773Y143361D01*
X500702Y143385D01*
X500629Y143406D01*
X500555Y143423D01*
X500480Y143437D01*
X500405Y143446D01*
X500329Y143452D01*
X500253Y143454D01*
X501340Y142989D02*
X504444Y140350D01*
X504444Y143455D01*
D11*
X516525Y128700D02*
X459025Y128700D01*
X516525Y128700D02*
X516525Y277700D01*
X459025Y277700D01*
X459025Y128700D01*
X459600Y254200D02*
X464600Y254200D01*
X464600Y152200D02*
X459600Y152200D01*
D10*
X467804Y270284D02*
X467804Y274320D01*
X467804Y270284D02*
X467806Y270207D01*
X467812Y270129D01*
X467821Y270053D01*
X467835Y269976D01*
X467852Y269901D01*
X467873Y269827D01*
X467898Y269753D01*
X467926Y269681D01*
X467958Y269611D01*
X467993Y269542D01*
X468032Y269475D01*
X468074Y269410D01*
X468119Y269347D01*
X468167Y269286D01*
X468218Y269228D01*
X468272Y269173D01*
X468329Y269120D01*
X468388Y269071D01*
X468450Y269024D01*
X468514Y268980D01*
X468580Y268940D01*
X468648Y268903D01*
X468718Y268869D01*
X468789Y268839D01*
X468862Y268813D01*
X468936Y268790D01*
X469011Y268771D01*
X469086Y268756D01*
X469163Y268744D01*
X469240Y268736D01*
X469317Y268732D01*
X469395Y268732D01*
X469472Y268736D01*
X469549Y268744D01*
X469626Y268756D01*
X469701Y268771D01*
X469776Y268790D01*
X469850Y268813D01*
X469923Y268839D01*
X469994Y268869D01*
X470064Y268903D01*
X470132Y268940D01*
X470198Y268980D01*
X470262Y269024D01*
X470324Y269071D01*
X470383Y269120D01*
X470440Y269173D01*
X470494Y269228D01*
X470545Y269286D01*
X470593Y269347D01*
X470638Y269410D01*
X470680Y269475D01*
X470719Y269542D01*
X470754Y269611D01*
X470786Y269681D01*
X470814Y269753D01*
X470839Y269827D01*
X470860Y269901D01*
X470877Y269976D01*
X470891Y270053D01*
X470900Y270129D01*
X470906Y270207D01*
X470908Y270284D01*
X470908Y274320D01*
X475025Y274320D02*
X473163Y268732D01*
X476888Y268732D02*
X475025Y274320D01*
X476422Y270129D02*
X473628Y270129D01*
X479179Y268732D02*
X479179Y274320D01*
X480731Y274320D01*
X480808Y274318D01*
X480886Y274312D01*
X480962Y274303D01*
X481039Y274289D01*
X481114Y274272D01*
X481188Y274251D01*
X481262Y274226D01*
X481334Y274198D01*
X481404Y274166D01*
X481473Y274131D01*
X481540Y274092D01*
X481605Y274050D01*
X481668Y274005D01*
X481729Y273957D01*
X481787Y273906D01*
X481842Y273852D01*
X481895Y273795D01*
X481944Y273736D01*
X481991Y273674D01*
X482035Y273610D01*
X482075Y273544D01*
X482112Y273476D01*
X482146Y273406D01*
X482176Y273335D01*
X482202Y273262D01*
X482225Y273188D01*
X482244Y273113D01*
X482259Y273038D01*
X482271Y272961D01*
X482279Y272884D01*
X482283Y272807D01*
X482283Y272729D01*
X482279Y272652D01*
X482271Y272575D01*
X482259Y272498D01*
X482244Y272423D01*
X482225Y272348D01*
X482202Y272274D01*
X482176Y272201D01*
X482146Y272130D01*
X482112Y272060D01*
X482075Y271992D01*
X482035Y271926D01*
X481991Y271862D01*
X481944Y271800D01*
X481895Y271741D01*
X481842Y271684D01*
X481787Y271630D01*
X481729Y271579D01*
X481668Y271531D01*
X481605Y271486D01*
X481540Y271444D01*
X481473Y271405D01*
X481404Y271370D01*
X481334Y271338D01*
X481262Y271310D01*
X481188Y271285D01*
X481114Y271264D01*
X481039Y271247D01*
X480962Y271233D01*
X480886Y271224D01*
X480808Y271218D01*
X480731Y271216D01*
X479179Y271216D01*
X481041Y271216D02*
X482283Y268732D01*
X485815Y268732D02*
X485815Y274320D01*
X484263Y274320D02*
X487368Y274320D01*
D11*
X461725Y277700D02*
X404225Y277700D01*
X404225Y128700D01*
X461725Y128700D01*
X461725Y277700D01*
X461150Y152200D02*
X456150Y152200D01*
X456150Y254200D02*
X461150Y254200D01*
D10*
X429917Y269974D02*
X429917Y274320D01*
X429917Y269974D02*
X429915Y269904D01*
X429909Y269835D01*
X429899Y269766D01*
X429886Y269698D01*
X429868Y269630D01*
X429847Y269564D01*
X429822Y269499D01*
X429794Y269435D01*
X429762Y269373D01*
X429727Y269313D01*
X429688Y269255D01*
X429646Y269200D01*
X429601Y269146D01*
X429553Y269096D01*
X429503Y269048D01*
X429449Y269003D01*
X429394Y268961D01*
X429336Y268922D01*
X429276Y268887D01*
X429214Y268855D01*
X429150Y268827D01*
X429085Y268802D01*
X429019Y268781D01*
X428951Y268763D01*
X428883Y268750D01*
X428814Y268740D01*
X428745Y268734D01*
X428675Y268732D01*
X428054Y268732D01*
X433645Y268732D02*
X433645Y274320D01*
X432093Y274320D02*
X435197Y274320D01*
X438766Y274320D02*
X436903Y268732D01*
X440628Y268732D02*
X438766Y274320D01*
X440163Y270129D02*
X437369Y270129D01*
X445056Y271836D02*
X445987Y271836D01*
X445987Y268732D01*
X444125Y268732D01*
X444055Y268734D01*
X443986Y268740D01*
X443917Y268750D01*
X443849Y268763D01*
X443781Y268781D01*
X443715Y268802D01*
X443650Y268827D01*
X443586Y268855D01*
X443524Y268887D01*
X443464Y268922D01*
X443406Y268961D01*
X443351Y269003D01*
X443297Y269048D01*
X443247Y269096D01*
X443199Y269146D01*
X443154Y269200D01*
X443112Y269255D01*
X443073Y269313D01*
X443038Y269373D01*
X443006Y269435D01*
X442978Y269499D01*
X442953Y269564D01*
X442932Y269630D01*
X442914Y269698D01*
X442901Y269766D01*
X442891Y269835D01*
X442885Y269904D01*
X442883Y269974D01*
X442883Y273078D01*
X442885Y273148D01*
X442891Y273217D01*
X442901Y273286D01*
X442914Y273354D01*
X442932Y273422D01*
X442953Y273488D01*
X442978Y273553D01*
X443006Y273617D01*
X443038Y273679D01*
X443073Y273739D01*
X443112Y273797D01*
X443154Y273852D01*
X443199Y273906D01*
X443247Y273956D01*
X443297Y274004D01*
X443351Y274049D01*
X443406Y274091D01*
X443464Y274130D01*
X443524Y274165D01*
X443586Y274197D01*
X443650Y274225D01*
X443715Y274250D01*
X443781Y274271D01*
X443849Y274289D01*
X443917Y274302D01*
X443986Y274312D01*
X444055Y274318D01*
X444125Y274320D01*
X445987Y274320D01*
D11*
X363250Y258175D02*
X363250Y315675D01*
X363250Y258175D02*
X462250Y258175D01*
X462250Y315675D01*
X363250Y315675D01*
X438750Y315100D02*
X438750Y310100D01*
X387750Y310100D02*
X387750Y315100D01*
D10*
X407232Y312246D02*
X407232Y306658D01*
X409716Y306658D01*
X411987Y306658D02*
X414471Y306658D01*
X411987Y306658D02*
X411987Y312246D01*
X414471Y312246D01*
X413850Y309762D02*
X411987Y309762D01*
X416731Y312246D02*
X416731Y306658D01*
X416731Y312246D02*
X418283Y312246D01*
X418359Y312244D01*
X418435Y312239D01*
X418511Y312229D01*
X418586Y312216D01*
X418660Y312199D01*
X418734Y312179D01*
X418806Y312155D01*
X418877Y312128D01*
X418947Y312097D01*
X419015Y312063D01*
X419081Y312025D01*
X419145Y311984D01*
X419208Y311941D01*
X419268Y311894D01*
X419325Y311844D01*
X419380Y311791D01*
X419433Y311736D01*
X419483Y311679D01*
X419530Y311619D01*
X419573Y311556D01*
X419614Y311492D01*
X419652Y311426D01*
X419686Y311358D01*
X419717Y311288D01*
X419744Y311217D01*
X419768Y311144D01*
X419788Y311071D01*
X419805Y310997D01*
X419818Y310922D01*
X419828Y310846D01*
X419833Y310770D01*
X419835Y310694D01*
X419835Y308210D01*
X419833Y308131D01*
X419827Y308053D01*
X419817Y307975D01*
X419803Y307898D01*
X419785Y307821D01*
X419764Y307745D01*
X419738Y307671D01*
X419709Y307598D01*
X419676Y307527D01*
X419640Y307457D01*
X419600Y307389D01*
X419557Y307323D01*
X419510Y307260D01*
X419461Y307199D01*
X419408Y307141D01*
X419352Y307085D01*
X419294Y307032D01*
X419233Y306983D01*
X419170Y306936D01*
X419104Y306893D01*
X419036Y306853D01*
X418967Y306817D01*
X418895Y306784D01*
X418822Y306755D01*
X418748Y306729D01*
X418672Y306708D01*
X418595Y306690D01*
X418518Y306676D01*
X418440Y306666D01*
X418362Y306660D01*
X418283Y306658D01*
X416731Y306658D01*
X422162Y306037D02*
X424645Y306037D01*
X428469Y306658D02*
X428539Y306660D01*
X428608Y306666D01*
X428677Y306676D01*
X428745Y306689D01*
X428813Y306707D01*
X428879Y306728D01*
X428944Y306753D01*
X429008Y306781D01*
X429070Y306813D01*
X429130Y306848D01*
X429188Y306887D01*
X429243Y306929D01*
X429297Y306974D01*
X429347Y307022D01*
X429395Y307072D01*
X429440Y307126D01*
X429482Y307181D01*
X429521Y307239D01*
X429556Y307299D01*
X429588Y307361D01*
X429616Y307425D01*
X429641Y307490D01*
X429662Y307556D01*
X429680Y307624D01*
X429693Y307692D01*
X429703Y307761D01*
X429709Y307830D01*
X429711Y307900D01*
X428469Y306658D02*
X428370Y306660D01*
X428272Y306665D01*
X428174Y306675D01*
X428076Y306688D01*
X427979Y306704D01*
X427882Y306724D01*
X427787Y306748D01*
X427692Y306776D01*
X427598Y306807D01*
X427506Y306841D01*
X427415Y306879D01*
X427325Y306920D01*
X427237Y306965D01*
X427151Y307013D01*
X427067Y307064D01*
X426985Y307118D01*
X426904Y307176D01*
X426826Y307236D01*
X426751Y307299D01*
X426677Y307365D01*
X426607Y307434D01*
X426761Y311004D02*
X426763Y311074D01*
X426769Y311143D01*
X426779Y311212D01*
X426792Y311280D01*
X426810Y311348D01*
X426831Y311414D01*
X426856Y311479D01*
X426884Y311543D01*
X426916Y311605D01*
X426951Y311665D01*
X426990Y311723D01*
X427032Y311778D01*
X427077Y311832D01*
X427125Y311882D01*
X427175Y311930D01*
X427229Y311975D01*
X427284Y312017D01*
X427342Y312056D01*
X427402Y312091D01*
X427464Y312123D01*
X427528Y312151D01*
X427593Y312176D01*
X427659Y312197D01*
X427727Y312215D01*
X427795Y312228D01*
X427864Y312238D01*
X427933Y312244D01*
X428003Y312246D01*
X428097Y312244D01*
X428190Y312238D01*
X428283Y312229D01*
X428376Y312216D01*
X428468Y312199D01*
X428559Y312179D01*
X428650Y312154D01*
X428739Y312127D01*
X428827Y312095D01*
X428914Y312060D01*
X429000Y312022D01*
X429083Y311980D01*
X429165Y311935D01*
X429246Y311887D01*
X429324Y311835D01*
X429400Y311780D01*
X427383Y309918D02*
X427324Y309954D01*
X427268Y309994D01*
X427214Y310037D01*
X427162Y310082D01*
X427113Y310131D01*
X427067Y310182D01*
X427024Y310235D01*
X426983Y310291D01*
X426946Y310349D01*
X426911Y310409D01*
X426881Y310470D01*
X426853Y310533D01*
X426829Y310598D01*
X426809Y310664D01*
X426792Y310731D01*
X426779Y310798D01*
X426770Y310866D01*
X426764Y310935D01*
X426762Y311004D01*
X429090Y308986D02*
X429149Y308950D01*
X429205Y308910D01*
X429259Y308867D01*
X429311Y308822D01*
X429360Y308773D01*
X429406Y308722D01*
X429449Y308669D01*
X429490Y308613D01*
X429527Y308555D01*
X429562Y308495D01*
X429592Y308434D01*
X429620Y308371D01*
X429644Y308306D01*
X429664Y308240D01*
X429681Y308173D01*
X429694Y308106D01*
X429703Y308038D01*
X429709Y307969D01*
X429711Y307900D01*
X429090Y308986D02*
X427382Y309918D01*
X433096Y312246D02*
X433096Y306658D01*
X431544Y312246D02*
X434648Y312246D01*
X436884Y312246D02*
X436884Y306658D01*
X436884Y312246D02*
X438436Y312246D01*
X438513Y312244D01*
X438591Y312238D01*
X438667Y312229D01*
X438744Y312215D01*
X438819Y312198D01*
X438893Y312177D01*
X438967Y312152D01*
X439039Y312124D01*
X439109Y312092D01*
X439178Y312057D01*
X439245Y312018D01*
X439310Y311976D01*
X439373Y311931D01*
X439434Y311883D01*
X439492Y311832D01*
X439547Y311778D01*
X439600Y311721D01*
X439649Y311662D01*
X439696Y311600D01*
X439740Y311536D01*
X439780Y311470D01*
X439817Y311402D01*
X439851Y311332D01*
X439881Y311261D01*
X439907Y311188D01*
X439930Y311114D01*
X439949Y311039D01*
X439964Y310964D01*
X439976Y310887D01*
X439984Y310810D01*
X439988Y310733D01*
X439988Y310655D01*
X439984Y310578D01*
X439976Y310501D01*
X439964Y310424D01*
X439949Y310349D01*
X439930Y310274D01*
X439907Y310200D01*
X439881Y310127D01*
X439851Y310056D01*
X439817Y309986D01*
X439780Y309918D01*
X439740Y309852D01*
X439696Y309788D01*
X439649Y309726D01*
X439600Y309667D01*
X439547Y309610D01*
X439492Y309556D01*
X439434Y309505D01*
X439373Y309457D01*
X439310Y309412D01*
X439245Y309370D01*
X439178Y309331D01*
X439109Y309296D01*
X439039Y309264D01*
X438967Y309236D01*
X438893Y309211D01*
X438819Y309190D01*
X438744Y309173D01*
X438667Y309159D01*
X438591Y309150D01*
X438513Y309144D01*
X438436Y309142D01*
X436884Y309142D01*
X438746Y309142D02*
X439988Y306658D01*
X442789Y306658D02*
X442789Y312246D01*
X442168Y306658D02*
X443410Y306658D01*
X443410Y312246D02*
X442168Y312246D01*
X445892Y312246D02*
X445892Y306658D01*
X445892Y312246D02*
X447444Y312246D01*
X447521Y312244D01*
X447599Y312238D01*
X447675Y312229D01*
X447752Y312215D01*
X447827Y312198D01*
X447901Y312177D01*
X447975Y312152D01*
X448047Y312124D01*
X448117Y312092D01*
X448186Y312057D01*
X448253Y312018D01*
X448318Y311976D01*
X448381Y311931D01*
X448442Y311883D01*
X448500Y311832D01*
X448555Y311778D01*
X448608Y311721D01*
X448657Y311662D01*
X448704Y311600D01*
X448748Y311536D01*
X448788Y311470D01*
X448825Y311402D01*
X448859Y311332D01*
X448889Y311261D01*
X448915Y311188D01*
X448938Y311114D01*
X448957Y311039D01*
X448972Y310964D01*
X448984Y310887D01*
X448992Y310810D01*
X448996Y310733D01*
X448996Y310655D01*
X448992Y310578D01*
X448984Y310501D01*
X448972Y310424D01*
X448957Y310349D01*
X448938Y310274D01*
X448915Y310200D01*
X448889Y310127D01*
X448859Y310056D01*
X448825Y309986D01*
X448788Y309918D01*
X448748Y309852D01*
X448704Y309788D01*
X448657Y309726D01*
X448608Y309667D01*
X448555Y309610D01*
X448500Y309556D01*
X448442Y309505D01*
X448381Y309457D01*
X448318Y309412D01*
X448253Y309370D01*
X448186Y309331D01*
X448117Y309296D01*
X448047Y309264D01*
X447975Y309236D01*
X447901Y309211D01*
X447827Y309190D01*
X447752Y309173D01*
X447675Y309159D01*
X447599Y309150D01*
X447521Y309144D01*
X447444Y309142D01*
X445892Y309142D01*
X275788Y82804D02*
X274546Y82804D01*
X274476Y82806D01*
X274407Y82812D01*
X274338Y82822D01*
X274270Y82835D01*
X274202Y82853D01*
X274136Y82874D01*
X274071Y82899D01*
X274007Y82927D01*
X273945Y82959D01*
X273885Y82994D01*
X273827Y83033D01*
X273772Y83075D01*
X273718Y83120D01*
X273668Y83168D01*
X273620Y83218D01*
X273575Y83272D01*
X273533Y83327D01*
X273494Y83385D01*
X273459Y83445D01*
X273427Y83507D01*
X273399Y83571D01*
X273374Y83636D01*
X273353Y83702D01*
X273335Y83770D01*
X273322Y83838D01*
X273312Y83907D01*
X273306Y83976D01*
X273304Y84046D01*
X273304Y87150D01*
X273306Y87220D01*
X273312Y87289D01*
X273322Y87358D01*
X273335Y87426D01*
X273353Y87494D01*
X273374Y87560D01*
X273399Y87625D01*
X273427Y87689D01*
X273459Y87751D01*
X273494Y87811D01*
X273533Y87869D01*
X273575Y87924D01*
X273620Y87978D01*
X273668Y88028D01*
X273718Y88076D01*
X273772Y88121D01*
X273827Y88163D01*
X273885Y88202D01*
X273945Y88237D01*
X274007Y88269D01*
X274071Y88297D01*
X274136Y88322D01*
X274202Y88343D01*
X274270Y88361D01*
X274338Y88374D01*
X274407Y88384D01*
X274476Y88390D01*
X274546Y88392D01*
X275788Y88392D01*
X277892Y82804D02*
X279444Y82804D01*
X279521Y82806D01*
X279599Y82812D01*
X279675Y82821D01*
X279752Y82835D01*
X279827Y82852D01*
X279901Y82873D01*
X279975Y82898D01*
X280047Y82926D01*
X280117Y82958D01*
X280186Y82993D01*
X280253Y83032D01*
X280318Y83074D01*
X280381Y83119D01*
X280442Y83167D01*
X280500Y83218D01*
X280555Y83272D01*
X280608Y83329D01*
X280657Y83388D01*
X280704Y83450D01*
X280748Y83514D01*
X280788Y83580D01*
X280825Y83648D01*
X280859Y83718D01*
X280889Y83789D01*
X280915Y83862D01*
X280938Y83936D01*
X280957Y84011D01*
X280972Y84086D01*
X280984Y84163D01*
X280992Y84240D01*
X280996Y84317D01*
X280996Y84395D01*
X280992Y84472D01*
X280984Y84549D01*
X280972Y84626D01*
X280957Y84701D01*
X280938Y84776D01*
X280915Y84850D01*
X280889Y84923D01*
X280859Y84994D01*
X280825Y85064D01*
X280788Y85132D01*
X280748Y85198D01*
X280704Y85262D01*
X280657Y85324D01*
X280608Y85383D01*
X280555Y85440D01*
X280500Y85494D01*
X280442Y85545D01*
X280381Y85593D01*
X280318Y85638D01*
X280253Y85680D01*
X280186Y85719D01*
X280117Y85754D01*
X280047Y85786D01*
X279975Y85814D01*
X279901Y85839D01*
X279827Y85860D01*
X279752Y85877D01*
X279675Y85891D01*
X279599Y85900D01*
X279521Y85906D01*
X279444Y85908D01*
X279755Y88392D02*
X277892Y88392D01*
X279755Y88392D02*
X279825Y88390D01*
X279894Y88384D01*
X279963Y88374D01*
X280031Y88361D01*
X280099Y88343D01*
X280165Y88322D01*
X280230Y88297D01*
X280294Y88269D01*
X280356Y88237D01*
X280416Y88202D01*
X280474Y88163D01*
X280529Y88121D01*
X280583Y88076D01*
X280633Y88028D01*
X280681Y87978D01*
X280726Y87924D01*
X280768Y87869D01*
X280807Y87811D01*
X280842Y87751D01*
X280874Y87689D01*
X280902Y87625D01*
X280927Y87560D01*
X280948Y87494D01*
X280966Y87426D01*
X280979Y87358D01*
X280989Y87289D01*
X280995Y87220D01*
X280997Y87150D01*
X280995Y87080D01*
X280989Y87011D01*
X280979Y86942D01*
X280966Y86874D01*
X280948Y86806D01*
X280927Y86740D01*
X280902Y86675D01*
X280874Y86611D01*
X280842Y86549D01*
X280807Y86489D01*
X280768Y86431D01*
X280726Y86376D01*
X280681Y86322D01*
X280633Y86272D01*
X280583Y86224D01*
X280529Y86179D01*
X280474Y86137D01*
X280416Y86098D01*
X280356Y86063D01*
X280294Y86031D01*
X280230Y86003D01*
X280165Y85978D01*
X280099Y85957D01*
X280031Y85939D01*
X279963Y85926D01*
X279894Y85916D01*
X279825Y85910D01*
X279755Y85908D01*
X278513Y85908D01*
X273304Y108204D02*
X273304Y113792D01*
X274856Y113792D01*
X274933Y113790D01*
X275011Y113784D01*
X275087Y113775D01*
X275164Y113761D01*
X275239Y113744D01*
X275313Y113723D01*
X275387Y113698D01*
X275459Y113670D01*
X275529Y113638D01*
X275598Y113603D01*
X275665Y113564D01*
X275730Y113522D01*
X275793Y113477D01*
X275854Y113429D01*
X275912Y113378D01*
X275967Y113324D01*
X276020Y113267D01*
X276069Y113208D01*
X276116Y113146D01*
X276160Y113082D01*
X276200Y113016D01*
X276237Y112948D01*
X276271Y112878D01*
X276301Y112807D01*
X276327Y112734D01*
X276350Y112660D01*
X276369Y112585D01*
X276384Y112510D01*
X276396Y112433D01*
X276404Y112356D01*
X276408Y112279D01*
X276408Y112201D01*
X276404Y112124D01*
X276396Y112047D01*
X276384Y111970D01*
X276369Y111895D01*
X276350Y111820D01*
X276327Y111746D01*
X276301Y111673D01*
X276271Y111602D01*
X276237Y111532D01*
X276200Y111464D01*
X276160Y111398D01*
X276116Y111334D01*
X276069Y111272D01*
X276020Y111213D01*
X275967Y111156D01*
X275912Y111102D01*
X275854Y111051D01*
X275793Y111003D01*
X275730Y110958D01*
X275665Y110916D01*
X275598Y110877D01*
X275529Y110842D01*
X275459Y110810D01*
X275387Y110782D01*
X275313Y110757D01*
X275239Y110736D01*
X275164Y110719D01*
X275087Y110705D01*
X275011Y110696D01*
X274933Y110690D01*
X274856Y110688D01*
X273304Y110688D01*
X275167Y110688D02*
X276408Y108204D01*
X278754Y111308D02*
X280617Y111308D01*
X280617Y111309D02*
X280687Y111307D01*
X280756Y111301D01*
X280825Y111291D01*
X280893Y111278D01*
X280961Y111260D01*
X281027Y111239D01*
X281092Y111214D01*
X281156Y111186D01*
X281218Y111154D01*
X281278Y111119D01*
X281336Y111080D01*
X281391Y111038D01*
X281445Y110993D01*
X281495Y110945D01*
X281543Y110895D01*
X281588Y110841D01*
X281630Y110786D01*
X281669Y110728D01*
X281704Y110668D01*
X281736Y110606D01*
X281764Y110542D01*
X281789Y110477D01*
X281810Y110411D01*
X281828Y110343D01*
X281841Y110275D01*
X281851Y110206D01*
X281857Y110137D01*
X281859Y110067D01*
X281859Y109756D01*
X281857Y109679D01*
X281851Y109601D01*
X281842Y109525D01*
X281828Y109448D01*
X281811Y109373D01*
X281790Y109299D01*
X281765Y109225D01*
X281737Y109153D01*
X281705Y109083D01*
X281670Y109014D01*
X281631Y108947D01*
X281589Y108882D01*
X281544Y108819D01*
X281496Y108758D01*
X281445Y108700D01*
X281391Y108645D01*
X281334Y108592D01*
X281275Y108543D01*
X281213Y108496D01*
X281149Y108452D01*
X281083Y108412D01*
X281015Y108375D01*
X280945Y108341D01*
X280874Y108311D01*
X280801Y108285D01*
X280727Y108262D01*
X280652Y108243D01*
X280577Y108228D01*
X280500Y108216D01*
X280423Y108208D01*
X280346Y108204D01*
X280268Y108204D01*
X280191Y108208D01*
X280114Y108216D01*
X280037Y108228D01*
X279962Y108243D01*
X279887Y108262D01*
X279813Y108285D01*
X279740Y108311D01*
X279669Y108341D01*
X279599Y108375D01*
X279531Y108412D01*
X279465Y108452D01*
X279401Y108496D01*
X279339Y108543D01*
X279280Y108592D01*
X279223Y108645D01*
X279169Y108700D01*
X279118Y108758D01*
X279070Y108819D01*
X279025Y108882D01*
X278983Y108947D01*
X278944Y109014D01*
X278909Y109083D01*
X278877Y109153D01*
X278849Y109225D01*
X278824Y109299D01*
X278803Y109373D01*
X278786Y109448D01*
X278772Y109525D01*
X278763Y109601D01*
X278757Y109679D01*
X278755Y109756D01*
X278754Y109756D02*
X278754Y111308D01*
X278756Y111406D01*
X278762Y111503D01*
X278771Y111600D01*
X278785Y111697D01*
X278802Y111793D01*
X278823Y111888D01*
X278847Y111982D01*
X278876Y112076D01*
X278908Y112168D01*
X278943Y112259D01*
X278982Y112348D01*
X279025Y112436D01*
X279071Y112522D01*
X279120Y112606D01*
X279173Y112688D01*
X279228Y112768D01*
X279287Y112846D01*
X279349Y112921D01*
X279414Y112994D01*
X279482Y113064D01*
X279552Y113132D01*
X279625Y113197D01*
X279700Y113259D01*
X279778Y113318D01*
X279858Y113373D01*
X279940Y113426D01*
X280024Y113475D01*
X280110Y113521D01*
X280198Y113564D01*
X280287Y113603D01*
X280378Y113638D01*
X280470Y113670D01*
X280564Y113699D01*
X280658Y113723D01*
X280753Y113744D01*
X280849Y113761D01*
X280946Y113775D01*
X281043Y113784D01*
X281140Y113790D01*
X281238Y113792D01*
X278328Y245364D02*
X277086Y245364D01*
X277016Y245366D01*
X276947Y245372D01*
X276878Y245382D01*
X276810Y245395D01*
X276742Y245413D01*
X276676Y245434D01*
X276611Y245459D01*
X276547Y245487D01*
X276485Y245519D01*
X276425Y245554D01*
X276367Y245593D01*
X276312Y245635D01*
X276258Y245680D01*
X276208Y245728D01*
X276160Y245778D01*
X276115Y245832D01*
X276073Y245887D01*
X276034Y245945D01*
X275999Y246005D01*
X275967Y246067D01*
X275939Y246131D01*
X275914Y246196D01*
X275893Y246262D01*
X275875Y246330D01*
X275862Y246398D01*
X275852Y246467D01*
X275846Y246536D01*
X275844Y246606D01*
X275844Y249710D01*
X275846Y249780D01*
X275852Y249849D01*
X275862Y249918D01*
X275875Y249986D01*
X275893Y250054D01*
X275914Y250120D01*
X275939Y250185D01*
X275967Y250249D01*
X275999Y250311D01*
X276034Y250371D01*
X276073Y250429D01*
X276115Y250484D01*
X276160Y250538D01*
X276208Y250588D01*
X276258Y250636D01*
X276312Y250681D01*
X276367Y250723D01*
X276425Y250762D01*
X276485Y250797D01*
X276547Y250829D01*
X276611Y250857D01*
X276676Y250882D01*
X276742Y250903D01*
X276810Y250921D01*
X276878Y250934D01*
X276947Y250944D01*
X277016Y250950D01*
X277086Y250952D01*
X278328Y250952D01*
X281674Y250952D02*
X280432Y246606D01*
X283537Y246606D01*
X282605Y247848D02*
X282605Y245364D01*
X275844Y225552D02*
X275844Y219964D01*
X275844Y225552D02*
X277396Y225552D01*
X277473Y225550D01*
X277551Y225544D01*
X277627Y225535D01*
X277704Y225521D01*
X277779Y225504D01*
X277853Y225483D01*
X277927Y225458D01*
X277999Y225430D01*
X278069Y225398D01*
X278138Y225363D01*
X278205Y225324D01*
X278270Y225282D01*
X278333Y225237D01*
X278394Y225189D01*
X278452Y225138D01*
X278507Y225084D01*
X278560Y225027D01*
X278609Y224968D01*
X278656Y224906D01*
X278700Y224842D01*
X278740Y224776D01*
X278777Y224708D01*
X278811Y224638D01*
X278841Y224567D01*
X278867Y224494D01*
X278890Y224420D01*
X278909Y224345D01*
X278924Y224270D01*
X278936Y224193D01*
X278944Y224116D01*
X278948Y224039D01*
X278948Y223961D01*
X278944Y223884D01*
X278936Y223807D01*
X278924Y223730D01*
X278909Y223655D01*
X278890Y223580D01*
X278867Y223506D01*
X278841Y223433D01*
X278811Y223362D01*
X278777Y223292D01*
X278740Y223224D01*
X278700Y223158D01*
X278656Y223094D01*
X278609Y223032D01*
X278560Y222973D01*
X278507Y222916D01*
X278452Y222862D01*
X278394Y222811D01*
X278333Y222763D01*
X278270Y222718D01*
X278205Y222676D01*
X278138Y222637D01*
X278069Y222602D01*
X277999Y222570D01*
X277927Y222542D01*
X277853Y222517D01*
X277779Y222496D01*
X277704Y222479D01*
X277627Y222465D01*
X277551Y222456D01*
X277473Y222450D01*
X277396Y222448D01*
X275844Y222448D01*
X277707Y222448D02*
X278948Y219964D01*
X281294Y224931D02*
X281294Y225552D01*
X284399Y225552D01*
X282847Y219964D01*
X405892Y38987D02*
X405892Y37745D01*
X405890Y37675D01*
X405884Y37606D01*
X405874Y37537D01*
X405861Y37469D01*
X405843Y37401D01*
X405822Y37335D01*
X405797Y37270D01*
X405769Y37206D01*
X405737Y37144D01*
X405702Y37084D01*
X405663Y37026D01*
X405621Y36971D01*
X405576Y36917D01*
X405528Y36867D01*
X405478Y36819D01*
X405424Y36774D01*
X405369Y36732D01*
X405311Y36693D01*
X405251Y36658D01*
X405189Y36626D01*
X405125Y36598D01*
X405060Y36573D01*
X404994Y36552D01*
X404926Y36534D01*
X404858Y36521D01*
X404789Y36511D01*
X404720Y36505D01*
X404650Y36503D01*
X401546Y36503D01*
X401476Y36505D01*
X401407Y36511D01*
X401338Y36521D01*
X401270Y36534D01*
X401202Y36552D01*
X401136Y36573D01*
X401071Y36598D01*
X401007Y36626D01*
X400945Y36658D01*
X400885Y36693D01*
X400827Y36732D01*
X400772Y36774D01*
X400718Y36819D01*
X400668Y36867D01*
X400620Y36917D01*
X400575Y36971D01*
X400533Y37026D01*
X400494Y37084D01*
X400459Y37144D01*
X400427Y37206D01*
X400399Y37270D01*
X400374Y37335D01*
X400353Y37401D01*
X400335Y37469D01*
X400322Y37537D01*
X400312Y37606D01*
X400306Y37675D01*
X400304Y37745D01*
X400304Y38987D01*
X405892Y41092D02*
X405892Y42954D01*
X405890Y43024D01*
X405884Y43093D01*
X405874Y43162D01*
X405861Y43230D01*
X405843Y43298D01*
X405822Y43364D01*
X405797Y43429D01*
X405769Y43493D01*
X405737Y43555D01*
X405702Y43615D01*
X405663Y43673D01*
X405621Y43728D01*
X405576Y43782D01*
X405528Y43832D01*
X405478Y43880D01*
X405424Y43925D01*
X405369Y43967D01*
X405311Y44006D01*
X405251Y44041D01*
X405189Y44073D01*
X405125Y44101D01*
X405060Y44126D01*
X404994Y44147D01*
X404926Y44165D01*
X404858Y44178D01*
X404789Y44188D01*
X404720Y44194D01*
X404650Y44196D01*
X404029Y44196D01*
X403959Y44194D01*
X403890Y44188D01*
X403821Y44178D01*
X403753Y44165D01*
X403685Y44147D01*
X403619Y44126D01*
X403554Y44101D01*
X403490Y44073D01*
X403428Y44041D01*
X403368Y44006D01*
X403310Y43967D01*
X403255Y43925D01*
X403201Y43880D01*
X403151Y43832D01*
X403103Y43782D01*
X403058Y43728D01*
X403016Y43673D01*
X402977Y43615D01*
X402942Y43555D01*
X402910Y43493D01*
X402882Y43429D01*
X402857Y43364D01*
X402836Y43298D01*
X402818Y43230D01*
X402805Y43162D01*
X402795Y43093D01*
X402789Y43024D01*
X402787Y42954D01*
X402788Y42954D02*
X402788Y41092D01*
X400304Y41092D01*
X400304Y44196D01*
X432054Y35641D02*
X437642Y35641D01*
X432054Y35641D02*
X432054Y37194D01*
X432056Y37271D01*
X432062Y37349D01*
X432071Y37425D01*
X432085Y37502D01*
X432102Y37577D01*
X432123Y37651D01*
X432148Y37725D01*
X432176Y37797D01*
X432208Y37867D01*
X432243Y37936D01*
X432282Y38003D01*
X432324Y38068D01*
X432369Y38131D01*
X432417Y38192D01*
X432468Y38250D01*
X432522Y38305D01*
X432579Y38358D01*
X432638Y38407D01*
X432700Y38454D01*
X432764Y38498D01*
X432830Y38538D01*
X432898Y38575D01*
X432968Y38609D01*
X433039Y38639D01*
X433112Y38665D01*
X433186Y38688D01*
X433261Y38707D01*
X433336Y38722D01*
X433413Y38734D01*
X433490Y38742D01*
X433567Y38746D01*
X433645Y38746D01*
X433722Y38742D01*
X433799Y38734D01*
X433876Y38722D01*
X433951Y38707D01*
X434026Y38688D01*
X434100Y38665D01*
X434173Y38639D01*
X434244Y38609D01*
X434314Y38575D01*
X434382Y38538D01*
X434448Y38498D01*
X434512Y38454D01*
X434574Y38407D01*
X434633Y38358D01*
X434690Y38305D01*
X434744Y38250D01*
X434795Y38192D01*
X434843Y38131D01*
X434888Y38068D01*
X434930Y38003D01*
X434969Y37936D01*
X435004Y37867D01*
X435036Y37797D01*
X435064Y37725D01*
X435089Y37651D01*
X435110Y37577D01*
X435127Y37502D01*
X435141Y37425D01*
X435150Y37349D01*
X435156Y37271D01*
X435158Y37194D01*
X435158Y35641D01*
X435158Y37504D02*
X437642Y38746D01*
X436090Y41092D02*
X436013Y41094D01*
X435935Y41100D01*
X435859Y41109D01*
X435782Y41123D01*
X435707Y41140D01*
X435633Y41161D01*
X435559Y41186D01*
X435487Y41214D01*
X435417Y41246D01*
X435348Y41281D01*
X435281Y41320D01*
X435216Y41362D01*
X435153Y41407D01*
X435092Y41455D01*
X435034Y41506D01*
X434979Y41560D01*
X434926Y41617D01*
X434877Y41676D01*
X434830Y41738D01*
X434786Y41802D01*
X434746Y41868D01*
X434709Y41936D01*
X434675Y42006D01*
X434645Y42077D01*
X434619Y42150D01*
X434596Y42224D01*
X434577Y42299D01*
X434562Y42374D01*
X434550Y42451D01*
X434542Y42528D01*
X434538Y42605D01*
X434538Y42683D01*
X434542Y42760D01*
X434550Y42837D01*
X434562Y42914D01*
X434577Y42989D01*
X434596Y43064D01*
X434619Y43138D01*
X434645Y43211D01*
X434675Y43282D01*
X434709Y43352D01*
X434746Y43420D01*
X434786Y43486D01*
X434830Y43550D01*
X434877Y43612D01*
X434926Y43671D01*
X434979Y43728D01*
X435034Y43782D01*
X435092Y43833D01*
X435153Y43881D01*
X435216Y43926D01*
X435281Y43968D01*
X435348Y44007D01*
X435417Y44042D01*
X435487Y44074D01*
X435559Y44102D01*
X435633Y44127D01*
X435707Y44148D01*
X435782Y44165D01*
X435859Y44179D01*
X435935Y44188D01*
X436013Y44194D01*
X436090Y44196D01*
X436167Y44194D01*
X436245Y44188D01*
X436321Y44179D01*
X436398Y44165D01*
X436473Y44148D01*
X436547Y44127D01*
X436621Y44102D01*
X436693Y44074D01*
X436763Y44042D01*
X436832Y44007D01*
X436899Y43968D01*
X436964Y43926D01*
X437027Y43881D01*
X437088Y43833D01*
X437146Y43782D01*
X437201Y43728D01*
X437254Y43671D01*
X437303Y43612D01*
X437350Y43550D01*
X437394Y43486D01*
X437434Y43420D01*
X437471Y43352D01*
X437505Y43282D01*
X437535Y43211D01*
X437561Y43138D01*
X437584Y43064D01*
X437603Y42989D01*
X437618Y42914D01*
X437630Y42837D01*
X437638Y42760D01*
X437642Y42683D01*
X437642Y42605D01*
X437638Y42528D01*
X437630Y42451D01*
X437618Y42374D01*
X437603Y42299D01*
X437584Y42224D01*
X437561Y42150D01*
X437535Y42077D01*
X437505Y42006D01*
X437471Y41936D01*
X437434Y41868D01*
X437394Y41802D01*
X437350Y41738D01*
X437303Y41676D01*
X437254Y41617D01*
X437201Y41560D01*
X437146Y41506D01*
X437088Y41455D01*
X437027Y41407D01*
X436964Y41362D01*
X436899Y41320D01*
X436832Y41281D01*
X436763Y41246D01*
X436693Y41214D01*
X436621Y41186D01*
X436547Y41161D01*
X436473Y41140D01*
X436398Y41123D01*
X436321Y41109D01*
X436245Y41100D01*
X436167Y41094D01*
X436090Y41092D01*
X433296Y41402D02*
X433226Y41404D01*
X433157Y41410D01*
X433088Y41420D01*
X433020Y41433D01*
X432952Y41451D01*
X432886Y41472D01*
X432821Y41497D01*
X432757Y41525D01*
X432695Y41557D01*
X432635Y41592D01*
X432577Y41631D01*
X432522Y41673D01*
X432468Y41718D01*
X432418Y41766D01*
X432370Y41816D01*
X432325Y41870D01*
X432283Y41925D01*
X432244Y41983D01*
X432209Y42043D01*
X432177Y42105D01*
X432149Y42169D01*
X432124Y42234D01*
X432103Y42300D01*
X432085Y42368D01*
X432072Y42436D01*
X432062Y42505D01*
X432056Y42574D01*
X432054Y42644D01*
X432056Y42714D01*
X432062Y42783D01*
X432072Y42852D01*
X432085Y42920D01*
X432103Y42988D01*
X432124Y43054D01*
X432149Y43119D01*
X432177Y43183D01*
X432209Y43245D01*
X432244Y43305D01*
X432283Y43363D01*
X432325Y43418D01*
X432370Y43472D01*
X432418Y43522D01*
X432468Y43570D01*
X432522Y43615D01*
X432577Y43657D01*
X432635Y43696D01*
X432695Y43731D01*
X432757Y43763D01*
X432821Y43791D01*
X432886Y43816D01*
X432952Y43837D01*
X433020Y43855D01*
X433088Y43868D01*
X433157Y43878D01*
X433226Y43884D01*
X433296Y43886D01*
X433366Y43884D01*
X433435Y43878D01*
X433504Y43868D01*
X433572Y43855D01*
X433640Y43837D01*
X433706Y43816D01*
X433771Y43791D01*
X433835Y43763D01*
X433897Y43731D01*
X433957Y43696D01*
X434015Y43657D01*
X434070Y43615D01*
X434124Y43570D01*
X434174Y43522D01*
X434222Y43472D01*
X434267Y43418D01*
X434309Y43363D01*
X434348Y43305D01*
X434383Y43245D01*
X434415Y43183D01*
X434443Y43119D01*
X434468Y43054D01*
X434489Y42988D01*
X434507Y42920D01*
X434520Y42852D01*
X434530Y42783D01*
X434536Y42714D01*
X434538Y42644D01*
X434536Y42574D01*
X434530Y42505D01*
X434520Y42436D01*
X434507Y42368D01*
X434489Y42300D01*
X434468Y42234D01*
X434443Y42169D01*
X434415Y42105D01*
X434383Y42043D01*
X434348Y41983D01*
X434309Y41925D01*
X434267Y41870D01*
X434222Y41816D01*
X434174Y41766D01*
X434124Y41718D01*
X434070Y41673D01*
X434015Y41631D01*
X433957Y41592D01*
X433897Y41557D01*
X433835Y41525D01*
X433771Y41497D01*
X433706Y41472D01*
X433640Y41451D01*
X433572Y41433D01*
X433504Y41420D01*
X433435Y41410D01*
X433366Y41404D01*
X433296Y41402D01*
D16*
X101600Y45720D02*
X101600Y50800D01*
X96520Y50800D01*
X76200Y50800D02*
X76200Y45720D01*
X76200Y50800D02*
X81280Y50800D01*
X76200Y30480D02*
X76200Y25400D01*
X81280Y25400D01*
X96520Y25400D02*
X101600Y25400D01*
X101600Y30480D01*
D10*
X72588Y15494D02*
X70104Y15494D01*
X70104Y21082D01*
X72588Y21082D01*
X71967Y18598D02*
X70104Y18598D01*
X76345Y15494D02*
X76415Y15496D01*
X76484Y15502D01*
X76553Y15512D01*
X76621Y15525D01*
X76689Y15543D01*
X76755Y15564D01*
X76820Y15589D01*
X76884Y15617D01*
X76946Y15649D01*
X77006Y15684D01*
X77064Y15723D01*
X77119Y15765D01*
X77173Y15810D01*
X77223Y15858D01*
X77271Y15908D01*
X77316Y15962D01*
X77358Y16017D01*
X77397Y16075D01*
X77432Y16135D01*
X77464Y16197D01*
X77492Y16261D01*
X77517Y16326D01*
X77538Y16392D01*
X77556Y16460D01*
X77569Y16528D01*
X77579Y16597D01*
X77585Y16666D01*
X77587Y16736D01*
X76345Y15494D02*
X76246Y15496D01*
X76148Y15501D01*
X76050Y15511D01*
X75952Y15524D01*
X75855Y15540D01*
X75758Y15560D01*
X75663Y15584D01*
X75568Y15612D01*
X75474Y15643D01*
X75382Y15677D01*
X75291Y15715D01*
X75201Y15756D01*
X75113Y15801D01*
X75027Y15849D01*
X74943Y15900D01*
X74861Y15954D01*
X74780Y16012D01*
X74702Y16072D01*
X74627Y16135D01*
X74553Y16201D01*
X74483Y16270D01*
X74637Y19840D02*
X74639Y19910D01*
X74645Y19979D01*
X74655Y20048D01*
X74668Y20116D01*
X74686Y20184D01*
X74707Y20250D01*
X74732Y20315D01*
X74760Y20379D01*
X74792Y20441D01*
X74827Y20501D01*
X74866Y20559D01*
X74908Y20614D01*
X74953Y20668D01*
X75001Y20718D01*
X75051Y20766D01*
X75105Y20811D01*
X75160Y20853D01*
X75218Y20892D01*
X75278Y20927D01*
X75340Y20959D01*
X75404Y20987D01*
X75469Y21012D01*
X75535Y21033D01*
X75603Y21051D01*
X75671Y21064D01*
X75740Y21074D01*
X75809Y21080D01*
X75879Y21082D01*
X75973Y21080D01*
X76066Y21074D01*
X76159Y21065D01*
X76252Y21052D01*
X76344Y21035D01*
X76435Y21015D01*
X76526Y20990D01*
X76615Y20963D01*
X76703Y20931D01*
X76790Y20896D01*
X76876Y20858D01*
X76959Y20816D01*
X77041Y20771D01*
X77122Y20723D01*
X77200Y20671D01*
X77276Y20616D01*
X75258Y18754D02*
X75199Y18790D01*
X75143Y18830D01*
X75089Y18873D01*
X75037Y18918D01*
X74988Y18967D01*
X74942Y19018D01*
X74899Y19071D01*
X74858Y19127D01*
X74821Y19185D01*
X74786Y19245D01*
X74756Y19306D01*
X74728Y19369D01*
X74704Y19434D01*
X74684Y19500D01*
X74667Y19567D01*
X74654Y19634D01*
X74645Y19702D01*
X74639Y19771D01*
X74637Y19840D01*
X76965Y17822D02*
X77024Y17786D01*
X77080Y17746D01*
X77134Y17703D01*
X77186Y17658D01*
X77235Y17609D01*
X77281Y17558D01*
X77324Y17505D01*
X77365Y17449D01*
X77402Y17391D01*
X77437Y17331D01*
X77467Y17270D01*
X77495Y17207D01*
X77519Y17142D01*
X77539Y17076D01*
X77556Y17009D01*
X77569Y16942D01*
X77578Y16874D01*
X77584Y16805D01*
X77586Y16736D01*
X76966Y17822D02*
X75258Y18754D01*
X80051Y21082D02*
X80051Y15494D01*
X80051Y21082D02*
X81604Y21082D01*
X81681Y21080D01*
X81759Y21074D01*
X81835Y21065D01*
X81912Y21051D01*
X81987Y21034D01*
X82061Y21013D01*
X82135Y20988D01*
X82207Y20960D01*
X82277Y20928D01*
X82346Y20893D01*
X82413Y20854D01*
X82478Y20812D01*
X82541Y20767D01*
X82602Y20719D01*
X82660Y20668D01*
X82715Y20614D01*
X82768Y20557D01*
X82817Y20498D01*
X82864Y20436D01*
X82908Y20372D01*
X82948Y20306D01*
X82985Y20238D01*
X83019Y20168D01*
X83049Y20097D01*
X83075Y20024D01*
X83098Y19950D01*
X83117Y19875D01*
X83132Y19800D01*
X83144Y19723D01*
X83152Y19646D01*
X83156Y19569D01*
X83156Y19491D01*
X83152Y19414D01*
X83144Y19337D01*
X83132Y19260D01*
X83117Y19185D01*
X83098Y19110D01*
X83075Y19036D01*
X83049Y18963D01*
X83019Y18892D01*
X82985Y18822D01*
X82948Y18754D01*
X82908Y18688D01*
X82864Y18624D01*
X82817Y18562D01*
X82768Y18503D01*
X82715Y18446D01*
X82660Y18392D01*
X82602Y18341D01*
X82541Y18293D01*
X82478Y18248D01*
X82413Y18206D01*
X82346Y18167D01*
X82277Y18132D01*
X82207Y18100D01*
X82135Y18072D01*
X82061Y18047D01*
X81987Y18026D01*
X81912Y18009D01*
X81835Y17995D01*
X81759Y17986D01*
X81681Y17980D01*
X81604Y17978D01*
X80051Y17978D01*
X85034Y14873D02*
X87517Y14873D01*
X89855Y15494D02*
X92338Y15494D01*
X89855Y15494D02*
X89855Y21082D01*
X92338Y21082D01*
X91718Y18598D02*
X89855Y18598D01*
X94599Y21082D02*
X94599Y15494D01*
X97703Y15494D02*
X94599Y21082D01*
X97703Y21082D02*
X97703Y15494D01*
D16*
X260350Y45720D02*
X260350Y50800D01*
X255270Y50800D01*
X234950Y50800D02*
X234950Y45720D01*
X234950Y50800D02*
X240030Y50800D01*
X234950Y30480D02*
X234950Y25400D01*
X240030Y25400D01*
X255270Y25400D02*
X260350Y25400D01*
X260350Y30480D01*
D10*
X231338Y15494D02*
X228854Y15494D01*
X228854Y21082D01*
X231338Y21082D01*
X230717Y18598D02*
X228854Y18598D01*
X235095Y15494D02*
X235165Y15496D01*
X235234Y15502D01*
X235303Y15512D01*
X235371Y15525D01*
X235439Y15543D01*
X235505Y15564D01*
X235570Y15589D01*
X235634Y15617D01*
X235696Y15649D01*
X235756Y15684D01*
X235814Y15723D01*
X235869Y15765D01*
X235923Y15810D01*
X235973Y15858D01*
X236021Y15908D01*
X236066Y15962D01*
X236108Y16017D01*
X236147Y16075D01*
X236182Y16135D01*
X236214Y16197D01*
X236242Y16261D01*
X236267Y16326D01*
X236288Y16392D01*
X236306Y16460D01*
X236319Y16528D01*
X236329Y16597D01*
X236335Y16666D01*
X236337Y16736D01*
X235095Y15494D02*
X234996Y15496D01*
X234898Y15501D01*
X234800Y15511D01*
X234702Y15524D01*
X234605Y15540D01*
X234508Y15560D01*
X234413Y15584D01*
X234318Y15612D01*
X234224Y15643D01*
X234132Y15677D01*
X234041Y15715D01*
X233951Y15756D01*
X233863Y15801D01*
X233777Y15849D01*
X233693Y15900D01*
X233611Y15954D01*
X233530Y16012D01*
X233452Y16072D01*
X233377Y16135D01*
X233303Y16201D01*
X233233Y16270D01*
X233387Y19840D02*
X233389Y19910D01*
X233395Y19979D01*
X233405Y20048D01*
X233418Y20116D01*
X233436Y20184D01*
X233457Y20250D01*
X233482Y20315D01*
X233510Y20379D01*
X233542Y20441D01*
X233577Y20501D01*
X233616Y20559D01*
X233658Y20614D01*
X233703Y20668D01*
X233751Y20718D01*
X233801Y20766D01*
X233855Y20811D01*
X233910Y20853D01*
X233968Y20892D01*
X234028Y20927D01*
X234090Y20959D01*
X234154Y20987D01*
X234219Y21012D01*
X234285Y21033D01*
X234353Y21051D01*
X234421Y21064D01*
X234490Y21074D01*
X234559Y21080D01*
X234629Y21082D01*
X234723Y21080D01*
X234816Y21074D01*
X234909Y21065D01*
X235002Y21052D01*
X235094Y21035D01*
X235185Y21015D01*
X235276Y20990D01*
X235365Y20963D01*
X235453Y20931D01*
X235540Y20896D01*
X235626Y20858D01*
X235709Y20816D01*
X235791Y20771D01*
X235872Y20723D01*
X235950Y20671D01*
X236026Y20616D01*
X234008Y18754D02*
X233949Y18790D01*
X233893Y18830D01*
X233839Y18873D01*
X233787Y18918D01*
X233738Y18967D01*
X233692Y19018D01*
X233649Y19071D01*
X233608Y19127D01*
X233571Y19185D01*
X233536Y19245D01*
X233506Y19306D01*
X233478Y19369D01*
X233454Y19434D01*
X233434Y19500D01*
X233417Y19567D01*
X233404Y19634D01*
X233395Y19702D01*
X233389Y19771D01*
X233387Y19840D01*
X235715Y17822D02*
X235774Y17786D01*
X235830Y17746D01*
X235884Y17703D01*
X235936Y17658D01*
X235985Y17609D01*
X236031Y17558D01*
X236074Y17505D01*
X236115Y17449D01*
X236152Y17391D01*
X236187Y17331D01*
X236217Y17270D01*
X236245Y17207D01*
X236269Y17142D01*
X236289Y17076D01*
X236306Y17009D01*
X236319Y16942D01*
X236328Y16874D01*
X236334Y16805D01*
X236336Y16736D01*
X235716Y17822D02*
X234008Y18754D01*
X238801Y21082D02*
X238801Y15494D01*
X238801Y21082D02*
X240354Y21082D01*
X240431Y21080D01*
X240509Y21074D01*
X240585Y21065D01*
X240662Y21051D01*
X240737Y21034D01*
X240811Y21013D01*
X240885Y20988D01*
X240957Y20960D01*
X241027Y20928D01*
X241096Y20893D01*
X241163Y20854D01*
X241228Y20812D01*
X241291Y20767D01*
X241352Y20719D01*
X241410Y20668D01*
X241465Y20614D01*
X241518Y20557D01*
X241567Y20498D01*
X241614Y20436D01*
X241658Y20372D01*
X241698Y20306D01*
X241735Y20238D01*
X241769Y20168D01*
X241799Y20097D01*
X241825Y20024D01*
X241848Y19950D01*
X241867Y19875D01*
X241882Y19800D01*
X241894Y19723D01*
X241902Y19646D01*
X241906Y19569D01*
X241906Y19491D01*
X241902Y19414D01*
X241894Y19337D01*
X241882Y19260D01*
X241867Y19185D01*
X241848Y19110D01*
X241825Y19036D01*
X241799Y18963D01*
X241769Y18892D01*
X241735Y18822D01*
X241698Y18754D01*
X241658Y18688D01*
X241614Y18624D01*
X241567Y18562D01*
X241518Y18503D01*
X241465Y18446D01*
X241410Y18392D01*
X241352Y18341D01*
X241291Y18293D01*
X241228Y18248D01*
X241163Y18206D01*
X241096Y18167D01*
X241027Y18132D01*
X240957Y18100D01*
X240885Y18072D01*
X240811Y18047D01*
X240737Y18026D01*
X240662Y18009D01*
X240585Y17995D01*
X240509Y17986D01*
X240431Y17980D01*
X240354Y17978D01*
X238801Y17978D01*
X243784Y14873D02*
X246267Y14873D01*
X248866Y15494D02*
X248866Y21082D01*
X248245Y15494D02*
X249487Y15494D01*
X249487Y21082D02*
X248245Y21082D01*
X251703Y19530D02*
X251703Y17046D01*
X251703Y19530D02*
X251705Y19607D01*
X251711Y19685D01*
X251720Y19761D01*
X251734Y19838D01*
X251751Y19913D01*
X251772Y19987D01*
X251797Y20061D01*
X251825Y20133D01*
X251857Y20203D01*
X251892Y20272D01*
X251931Y20339D01*
X251973Y20404D01*
X252018Y20467D01*
X252066Y20528D01*
X252117Y20586D01*
X252171Y20641D01*
X252228Y20694D01*
X252287Y20743D01*
X252349Y20790D01*
X252413Y20834D01*
X252479Y20874D01*
X252547Y20911D01*
X252617Y20945D01*
X252688Y20975D01*
X252761Y21001D01*
X252835Y21024D01*
X252910Y21043D01*
X252985Y21058D01*
X253062Y21070D01*
X253139Y21078D01*
X253216Y21082D01*
X253294Y21082D01*
X253371Y21078D01*
X253448Y21070D01*
X253525Y21058D01*
X253600Y21043D01*
X253675Y21024D01*
X253749Y21001D01*
X253822Y20975D01*
X253893Y20945D01*
X253963Y20911D01*
X254031Y20874D01*
X254097Y20834D01*
X254161Y20790D01*
X254223Y20743D01*
X254282Y20694D01*
X254339Y20641D01*
X254393Y20586D01*
X254444Y20528D01*
X254492Y20467D01*
X254537Y20404D01*
X254579Y20339D01*
X254618Y20272D01*
X254653Y20203D01*
X254685Y20133D01*
X254713Y20061D01*
X254738Y19987D01*
X254759Y19913D01*
X254776Y19838D01*
X254790Y19761D01*
X254799Y19685D01*
X254805Y19607D01*
X254807Y19530D01*
X254807Y17046D01*
X254805Y16969D01*
X254799Y16891D01*
X254790Y16815D01*
X254776Y16738D01*
X254759Y16663D01*
X254738Y16589D01*
X254713Y16515D01*
X254685Y16443D01*
X254653Y16373D01*
X254618Y16304D01*
X254579Y16237D01*
X254537Y16172D01*
X254492Y16109D01*
X254444Y16048D01*
X254393Y15990D01*
X254339Y15935D01*
X254282Y15882D01*
X254223Y15833D01*
X254161Y15786D01*
X254097Y15742D01*
X254031Y15702D01*
X253963Y15665D01*
X253893Y15631D01*
X253822Y15601D01*
X253749Y15575D01*
X253675Y15552D01*
X253600Y15533D01*
X253525Y15518D01*
X253448Y15506D01*
X253371Y15498D01*
X253294Y15494D01*
X253216Y15494D01*
X253139Y15498D01*
X253062Y15506D01*
X252985Y15518D01*
X252910Y15533D01*
X252835Y15552D01*
X252761Y15575D01*
X252688Y15601D01*
X252617Y15631D01*
X252547Y15665D01*
X252479Y15702D01*
X252413Y15742D01*
X252349Y15786D01*
X252287Y15833D01*
X252228Y15882D01*
X252171Y15935D01*
X252117Y15990D01*
X252066Y16048D01*
X252018Y16109D01*
X251973Y16172D01*
X251931Y16237D01*
X251892Y16304D01*
X251857Y16373D01*
X251825Y16443D01*
X251797Y16515D01*
X251772Y16589D01*
X251751Y16663D01*
X251734Y16738D01*
X251720Y16815D01*
X251711Y16891D01*
X251705Y16969D01*
X251703Y17046D01*
X257189Y15494D02*
X258741Y15494D01*
X258818Y15496D01*
X258896Y15502D01*
X258972Y15511D01*
X259049Y15525D01*
X259124Y15542D01*
X259198Y15563D01*
X259272Y15588D01*
X259344Y15616D01*
X259414Y15648D01*
X259483Y15683D01*
X259550Y15722D01*
X259615Y15764D01*
X259678Y15809D01*
X259739Y15857D01*
X259797Y15908D01*
X259852Y15962D01*
X259905Y16019D01*
X259954Y16078D01*
X260001Y16140D01*
X260045Y16204D01*
X260085Y16270D01*
X260122Y16338D01*
X260156Y16408D01*
X260186Y16479D01*
X260212Y16552D01*
X260235Y16626D01*
X260254Y16701D01*
X260269Y16776D01*
X260281Y16853D01*
X260289Y16930D01*
X260293Y17007D01*
X260293Y17085D01*
X260289Y17162D01*
X260281Y17239D01*
X260269Y17316D01*
X260254Y17391D01*
X260235Y17466D01*
X260212Y17540D01*
X260186Y17613D01*
X260156Y17684D01*
X260122Y17754D01*
X260085Y17822D01*
X260045Y17888D01*
X260001Y17952D01*
X259954Y18014D01*
X259905Y18073D01*
X259852Y18130D01*
X259797Y18184D01*
X259739Y18235D01*
X259678Y18283D01*
X259615Y18328D01*
X259550Y18370D01*
X259483Y18409D01*
X259414Y18444D01*
X259344Y18476D01*
X259272Y18504D01*
X259198Y18529D01*
X259124Y18550D01*
X259049Y18567D01*
X258972Y18581D01*
X258896Y18590D01*
X258818Y18596D01*
X258741Y18598D01*
X259052Y21082D02*
X257189Y21082D01*
X259052Y21082D02*
X259122Y21080D01*
X259191Y21074D01*
X259260Y21064D01*
X259328Y21051D01*
X259396Y21033D01*
X259462Y21012D01*
X259527Y20987D01*
X259591Y20959D01*
X259653Y20927D01*
X259713Y20892D01*
X259771Y20853D01*
X259826Y20811D01*
X259880Y20766D01*
X259930Y20718D01*
X259978Y20668D01*
X260023Y20614D01*
X260065Y20559D01*
X260104Y20501D01*
X260139Y20441D01*
X260171Y20379D01*
X260199Y20315D01*
X260224Y20250D01*
X260245Y20184D01*
X260263Y20116D01*
X260276Y20048D01*
X260286Y19979D01*
X260292Y19910D01*
X260294Y19840D01*
X260292Y19770D01*
X260286Y19701D01*
X260276Y19632D01*
X260263Y19564D01*
X260245Y19496D01*
X260224Y19430D01*
X260199Y19365D01*
X260171Y19301D01*
X260139Y19239D01*
X260104Y19179D01*
X260065Y19121D01*
X260023Y19066D01*
X259978Y19012D01*
X259930Y18962D01*
X259880Y18914D01*
X259826Y18869D01*
X259771Y18827D01*
X259713Y18788D01*
X259653Y18753D01*
X259591Y18721D01*
X259527Y18693D01*
X259462Y18668D01*
X259396Y18647D01*
X259328Y18629D01*
X259260Y18616D01*
X259191Y18606D01*
X259122Y18600D01*
X259052Y18598D01*
X257810Y18598D01*
X262676Y15494D02*
X264228Y15494D01*
X264305Y15496D01*
X264383Y15502D01*
X264459Y15511D01*
X264536Y15525D01*
X264611Y15542D01*
X264685Y15563D01*
X264759Y15588D01*
X264831Y15616D01*
X264901Y15648D01*
X264970Y15683D01*
X265037Y15722D01*
X265102Y15764D01*
X265165Y15809D01*
X265226Y15857D01*
X265284Y15908D01*
X265339Y15962D01*
X265392Y16019D01*
X265441Y16078D01*
X265488Y16140D01*
X265532Y16204D01*
X265572Y16270D01*
X265609Y16338D01*
X265643Y16408D01*
X265673Y16479D01*
X265699Y16552D01*
X265722Y16626D01*
X265741Y16701D01*
X265756Y16776D01*
X265768Y16853D01*
X265776Y16930D01*
X265780Y17007D01*
X265780Y17085D01*
X265776Y17162D01*
X265768Y17239D01*
X265756Y17316D01*
X265741Y17391D01*
X265722Y17466D01*
X265699Y17540D01*
X265673Y17613D01*
X265643Y17684D01*
X265609Y17754D01*
X265572Y17822D01*
X265532Y17888D01*
X265488Y17952D01*
X265441Y18014D01*
X265392Y18073D01*
X265339Y18130D01*
X265284Y18184D01*
X265226Y18235D01*
X265165Y18283D01*
X265102Y18328D01*
X265037Y18370D01*
X264970Y18409D01*
X264901Y18444D01*
X264831Y18476D01*
X264759Y18504D01*
X264685Y18529D01*
X264611Y18550D01*
X264536Y18567D01*
X264459Y18581D01*
X264383Y18590D01*
X264305Y18596D01*
X264228Y18598D01*
X264538Y21082D02*
X262676Y21082D01*
X264538Y21082D02*
X264608Y21080D01*
X264677Y21074D01*
X264746Y21064D01*
X264814Y21051D01*
X264882Y21033D01*
X264948Y21012D01*
X265013Y20987D01*
X265077Y20959D01*
X265139Y20927D01*
X265199Y20892D01*
X265257Y20853D01*
X265312Y20811D01*
X265366Y20766D01*
X265416Y20718D01*
X265464Y20668D01*
X265509Y20614D01*
X265551Y20559D01*
X265590Y20501D01*
X265625Y20441D01*
X265657Y20379D01*
X265685Y20315D01*
X265710Y20250D01*
X265731Y20184D01*
X265749Y20116D01*
X265762Y20048D01*
X265772Y19979D01*
X265778Y19910D01*
X265780Y19840D01*
X265778Y19770D01*
X265772Y19701D01*
X265762Y19632D01*
X265749Y19564D01*
X265731Y19496D01*
X265710Y19430D01*
X265685Y19365D01*
X265657Y19301D01*
X265625Y19239D01*
X265590Y19179D01*
X265551Y19121D01*
X265509Y19066D01*
X265464Y19012D01*
X265416Y18962D01*
X265366Y18914D01*
X265312Y18869D01*
X265257Y18827D01*
X265199Y18788D01*
X265139Y18753D01*
X265077Y18721D01*
X265013Y18693D01*
X264948Y18668D01*
X264882Y18647D01*
X264814Y18629D01*
X264746Y18616D01*
X264677Y18606D01*
X264608Y18600D01*
X264538Y18598D01*
X263296Y18598D01*
D16*
X152400Y45720D02*
X152400Y50800D01*
X147320Y50800D01*
X127000Y50800D02*
X127000Y45720D01*
X127000Y50800D02*
X132080Y50800D01*
X127000Y30480D02*
X127000Y25400D01*
X132080Y25400D01*
X147320Y25400D02*
X152400Y25400D01*
X152400Y30480D01*
D10*
X123388Y15494D02*
X120904Y15494D01*
X120904Y21082D01*
X123388Y21082D01*
X122767Y18598D02*
X120904Y18598D01*
X127145Y15494D02*
X127215Y15496D01*
X127284Y15502D01*
X127353Y15512D01*
X127421Y15525D01*
X127489Y15543D01*
X127555Y15564D01*
X127620Y15589D01*
X127684Y15617D01*
X127746Y15649D01*
X127806Y15684D01*
X127864Y15723D01*
X127919Y15765D01*
X127973Y15810D01*
X128023Y15858D01*
X128071Y15908D01*
X128116Y15962D01*
X128158Y16017D01*
X128197Y16075D01*
X128232Y16135D01*
X128264Y16197D01*
X128292Y16261D01*
X128317Y16326D01*
X128338Y16392D01*
X128356Y16460D01*
X128369Y16528D01*
X128379Y16597D01*
X128385Y16666D01*
X128387Y16736D01*
X127145Y15494D02*
X127046Y15496D01*
X126948Y15501D01*
X126850Y15511D01*
X126752Y15524D01*
X126655Y15540D01*
X126558Y15560D01*
X126463Y15584D01*
X126368Y15612D01*
X126274Y15643D01*
X126182Y15677D01*
X126091Y15715D01*
X126001Y15756D01*
X125913Y15801D01*
X125827Y15849D01*
X125743Y15900D01*
X125661Y15954D01*
X125580Y16012D01*
X125502Y16072D01*
X125427Y16135D01*
X125353Y16201D01*
X125283Y16270D01*
X125437Y19840D02*
X125439Y19910D01*
X125445Y19979D01*
X125455Y20048D01*
X125468Y20116D01*
X125486Y20184D01*
X125507Y20250D01*
X125532Y20315D01*
X125560Y20379D01*
X125592Y20441D01*
X125627Y20501D01*
X125666Y20559D01*
X125708Y20614D01*
X125753Y20668D01*
X125801Y20718D01*
X125851Y20766D01*
X125905Y20811D01*
X125960Y20853D01*
X126018Y20892D01*
X126078Y20927D01*
X126140Y20959D01*
X126204Y20987D01*
X126269Y21012D01*
X126335Y21033D01*
X126403Y21051D01*
X126471Y21064D01*
X126540Y21074D01*
X126609Y21080D01*
X126679Y21082D01*
X126773Y21080D01*
X126866Y21074D01*
X126959Y21065D01*
X127052Y21052D01*
X127144Y21035D01*
X127235Y21015D01*
X127326Y20990D01*
X127415Y20963D01*
X127503Y20931D01*
X127590Y20896D01*
X127676Y20858D01*
X127759Y20816D01*
X127841Y20771D01*
X127922Y20723D01*
X128000Y20671D01*
X128076Y20616D01*
X126058Y18754D02*
X125999Y18790D01*
X125943Y18830D01*
X125889Y18873D01*
X125837Y18918D01*
X125788Y18967D01*
X125742Y19018D01*
X125699Y19071D01*
X125658Y19127D01*
X125621Y19185D01*
X125586Y19245D01*
X125556Y19306D01*
X125528Y19369D01*
X125504Y19434D01*
X125484Y19500D01*
X125467Y19567D01*
X125454Y19634D01*
X125445Y19702D01*
X125439Y19771D01*
X125437Y19840D01*
X127765Y17822D02*
X127824Y17786D01*
X127880Y17746D01*
X127934Y17703D01*
X127986Y17658D01*
X128035Y17609D01*
X128081Y17558D01*
X128124Y17505D01*
X128165Y17449D01*
X128202Y17391D01*
X128237Y17331D01*
X128267Y17270D01*
X128295Y17207D01*
X128319Y17142D01*
X128339Y17076D01*
X128356Y17009D01*
X128369Y16942D01*
X128378Y16874D01*
X128384Y16805D01*
X128386Y16736D01*
X127766Y17822D02*
X126058Y18754D01*
X130851Y21082D02*
X130851Y15494D01*
X130851Y21082D02*
X132404Y21082D01*
X132481Y21080D01*
X132559Y21074D01*
X132635Y21065D01*
X132712Y21051D01*
X132787Y21034D01*
X132861Y21013D01*
X132935Y20988D01*
X133007Y20960D01*
X133077Y20928D01*
X133146Y20893D01*
X133213Y20854D01*
X133278Y20812D01*
X133341Y20767D01*
X133402Y20719D01*
X133460Y20668D01*
X133515Y20614D01*
X133568Y20557D01*
X133617Y20498D01*
X133664Y20436D01*
X133708Y20372D01*
X133748Y20306D01*
X133785Y20238D01*
X133819Y20168D01*
X133849Y20097D01*
X133875Y20024D01*
X133898Y19950D01*
X133917Y19875D01*
X133932Y19800D01*
X133944Y19723D01*
X133952Y19646D01*
X133956Y19569D01*
X133956Y19491D01*
X133952Y19414D01*
X133944Y19337D01*
X133932Y19260D01*
X133917Y19185D01*
X133898Y19110D01*
X133875Y19036D01*
X133849Y18963D01*
X133819Y18892D01*
X133785Y18822D01*
X133748Y18754D01*
X133708Y18688D01*
X133664Y18624D01*
X133617Y18562D01*
X133568Y18503D01*
X133515Y18446D01*
X133460Y18392D01*
X133402Y18341D01*
X133341Y18293D01*
X133278Y18248D01*
X133213Y18206D01*
X133146Y18167D01*
X133077Y18132D01*
X133007Y18100D01*
X132935Y18072D01*
X132861Y18047D01*
X132787Y18026D01*
X132712Y18009D01*
X132635Y17995D01*
X132559Y17986D01*
X132481Y17980D01*
X132404Y17978D01*
X130851Y17978D01*
X135834Y14873D02*
X138317Y14873D01*
X140916Y15494D02*
X140916Y21082D01*
X140295Y15494D02*
X141537Y15494D01*
X141537Y21082D02*
X140295Y21082D01*
X143753Y19530D02*
X143753Y17046D01*
X143753Y19530D02*
X143755Y19607D01*
X143761Y19685D01*
X143770Y19761D01*
X143784Y19838D01*
X143801Y19913D01*
X143822Y19987D01*
X143847Y20061D01*
X143875Y20133D01*
X143907Y20203D01*
X143942Y20272D01*
X143981Y20339D01*
X144023Y20404D01*
X144068Y20467D01*
X144116Y20528D01*
X144167Y20586D01*
X144221Y20641D01*
X144278Y20694D01*
X144337Y20743D01*
X144399Y20790D01*
X144463Y20834D01*
X144529Y20874D01*
X144597Y20911D01*
X144667Y20945D01*
X144738Y20975D01*
X144811Y21001D01*
X144885Y21024D01*
X144960Y21043D01*
X145035Y21058D01*
X145112Y21070D01*
X145189Y21078D01*
X145266Y21082D01*
X145344Y21082D01*
X145421Y21078D01*
X145498Y21070D01*
X145575Y21058D01*
X145650Y21043D01*
X145725Y21024D01*
X145799Y21001D01*
X145872Y20975D01*
X145943Y20945D01*
X146013Y20911D01*
X146081Y20874D01*
X146147Y20834D01*
X146211Y20790D01*
X146273Y20743D01*
X146332Y20694D01*
X146389Y20641D01*
X146443Y20586D01*
X146494Y20528D01*
X146542Y20467D01*
X146587Y20404D01*
X146629Y20339D01*
X146668Y20272D01*
X146703Y20203D01*
X146735Y20133D01*
X146763Y20061D01*
X146788Y19987D01*
X146809Y19913D01*
X146826Y19838D01*
X146840Y19761D01*
X146849Y19685D01*
X146855Y19607D01*
X146857Y19530D01*
X146857Y17046D01*
X146855Y16969D01*
X146849Y16891D01*
X146840Y16815D01*
X146826Y16738D01*
X146809Y16663D01*
X146788Y16589D01*
X146763Y16515D01*
X146735Y16443D01*
X146703Y16373D01*
X146668Y16304D01*
X146629Y16237D01*
X146587Y16172D01*
X146542Y16109D01*
X146494Y16048D01*
X146443Y15990D01*
X146389Y15935D01*
X146332Y15882D01*
X146273Y15833D01*
X146211Y15786D01*
X146147Y15742D01*
X146081Y15702D01*
X146013Y15665D01*
X145943Y15631D01*
X145872Y15601D01*
X145799Y15575D01*
X145725Y15552D01*
X145650Y15533D01*
X145575Y15518D01*
X145498Y15506D01*
X145421Y15498D01*
X145344Y15494D01*
X145266Y15494D01*
X145189Y15498D01*
X145112Y15506D01*
X145035Y15518D01*
X144960Y15533D01*
X144885Y15552D01*
X144811Y15575D01*
X144738Y15601D01*
X144667Y15631D01*
X144597Y15665D01*
X144529Y15702D01*
X144463Y15742D01*
X144399Y15786D01*
X144337Y15833D01*
X144278Y15882D01*
X144221Y15935D01*
X144167Y15990D01*
X144116Y16048D01*
X144068Y16109D01*
X144023Y16172D01*
X143981Y16237D01*
X143942Y16304D01*
X143907Y16373D01*
X143875Y16443D01*
X143847Y16515D01*
X143822Y16589D01*
X143801Y16663D01*
X143784Y16738D01*
X143770Y16815D01*
X143761Y16891D01*
X143755Y16969D01*
X143753Y17046D01*
X149239Y15494D02*
X150791Y15494D01*
X150868Y15496D01*
X150946Y15502D01*
X151022Y15511D01*
X151099Y15525D01*
X151174Y15542D01*
X151248Y15563D01*
X151322Y15588D01*
X151394Y15616D01*
X151464Y15648D01*
X151533Y15683D01*
X151600Y15722D01*
X151665Y15764D01*
X151728Y15809D01*
X151789Y15857D01*
X151847Y15908D01*
X151902Y15962D01*
X151955Y16019D01*
X152004Y16078D01*
X152051Y16140D01*
X152095Y16204D01*
X152135Y16270D01*
X152172Y16338D01*
X152206Y16408D01*
X152236Y16479D01*
X152262Y16552D01*
X152285Y16626D01*
X152304Y16701D01*
X152319Y16776D01*
X152331Y16853D01*
X152339Y16930D01*
X152343Y17007D01*
X152343Y17085D01*
X152339Y17162D01*
X152331Y17239D01*
X152319Y17316D01*
X152304Y17391D01*
X152285Y17466D01*
X152262Y17540D01*
X152236Y17613D01*
X152206Y17684D01*
X152172Y17754D01*
X152135Y17822D01*
X152095Y17888D01*
X152051Y17952D01*
X152004Y18014D01*
X151955Y18073D01*
X151902Y18130D01*
X151847Y18184D01*
X151789Y18235D01*
X151728Y18283D01*
X151665Y18328D01*
X151600Y18370D01*
X151533Y18409D01*
X151464Y18444D01*
X151394Y18476D01*
X151322Y18504D01*
X151248Y18529D01*
X151174Y18550D01*
X151099Y18567D01*
X151022Y18581D01*
X150946Y18590D01*
X150868Y18596D01*
X150791Y18598D01*
X151102Y21082D02*
X149239Y21082D01*
X151102Y21082D02*
X151172Y21080D01*
X151241Y21074D01*
X151310Y21064D01*
X151378Y21051D01*
X151446Y21033D01*
X151512Y21012D01*
X151577Y20987D01*
X151641Y20959D01*
X151703Y20927D01*
X151763Y20892D01*
X151821Y20853D01*
X151876Y20811D01*
X151930Y20766D01*
X151980Y20718D01*
X152028Y20668D01*
X152073Y20614D01*
X152115Y20559D01*
X152154Y20501D01*
X152189Y20441D01*
X152221Y20379D01*
X152249Y20315D01*
X152274Y20250D01*
X152295Y20184D01*
X152313Y20116D01*
X152326Y20048D01*
X152336Y19979D01*
X152342Y19910D01*
X152344Y19840D01*
X152342Y19770D01*
X152336Y19701D01*
X152326Y19632D01*
X152313Y19564D01*
X152295Y19496D01*
X152274Y19430D01*
X152249Y19365D01*
X152221Y19301D01*
X152189Y19239D01*
X152154Y19179D01*
X152115Y19121D01*
X152073Y19066D01*
X152028Y19012D01*
X151980Y18962D01*
X151930Y18914D01*
X151876Y18869D01*
X151821Y18827D01*
X151763Y18788D01*
X151703Y18753D01*
X151641Y18721D01*
X151577Y18693D01*
X151512Y18668D01*
X151446Y18647D01*
X151378Y18629D01*
X151310Y18616D01*
X151241Y18606D01*
X151172Y18600D01*
X151102Y18598D01*
X149860Y18598D01*
X156433Y21082D02*
X156506Y21080D01*
X156579Y21074D01*
X156652Y21065D01*
X156723Y21051D01*
X156795Y21034D01*
X156865Y21014D01*
X156934Y20989D01*
X157001Y20961D01*
X157067Y20930D01*
X157132Y20895D01*
X157194Y20857D01*
X157254Y20815D01*
X157312Y20771D01*
X157368Y20723D01*
X157421Y20673D01*
X157471Y20620D01*
X157519Y20564D01*
X157563Y20506D01*
X157605Y20446D01*
X157643Y20384D01*
X157678Y20319D01*
X157709Y20253D01*
X157737Y20186D01*
X157762Y20117D01*
X157782Y20047D01*
X157799Y19975D01*
X157813Y19904D01*
X157822Y19831D01*
X157828Y19758D01*
X157830Y19685D01*
X156433Y21082D02*
X156349Y21080D01*
X156266Y21074D01*
X156183Y21065D01*
X156101Y21051D01*
X156019Y21034D01*
X155938Y21012D01*
X155858Y20987D01*
X155780Y20959D01*
X155702Y20927D01*
X155627Y20891D01*
X155553Y20852D01*
X155481Y20809D01*
X155411Y20763D01*
X155344Y20714D01*
X155278Y20661D01*
X155216Y20606D01*
X155156Y20548D01*
X155098Y20487D01*
X155044Y20424D01*
X154992Y20358D01*
X154944Y20290D01*
X154899Y20219D01*
X154857Y20147D01*
X154819Y20072D01*
X154784Y19996D01*
X154753Y19919D01*
X154725Y19840D01*
X157364Y18599D02*
X157418Y18652D01*
X157469Y18709D01*
X157517Y18768D01*
X157562Y18829D01*
X157603Y18892D01*
X157642Y18958D01*
X157677Y19025D01*
X157709Y19094D01*
X157737Y19165D01*
X157761Y19236D01*
X157782Y19309D01*
X157799Y19383D01*
X157813Y19458D01*
X157822Y19533D01*
X157828Y19609D01*
X157830Y19685D01*
X157364Y18598D02*
X154726Y15494D01*
X157830Y15494D01*
D16*
X511810Y294640D02*
X511810Y299720D01*
X506730Y299720D01*
X486410Y299720D02*
X486410Y294640D01*
X486410Y299720D02*
X491490Y299720D01*
X486410Y279400D02*
X486410Y274320D01*
X491490Y274320D01*
X506730Y274320D02*
X511810Y274320D01*
X511810Y279400D01*
D10*
X494183Y305872D02*
X493251Y305872D01*
X494183Y305872D02*
X494183Y302768D01*
X492320Y302768D01*
X492250Y302770D01*
X492181Y302776D01*
X492112Y302786D01*
X492044Y302799D01*
X491976Y302817D01*
X491910Y302838D01*
X491845Y302863D01*
X491781Y302891D01*
X491719Y302923D01*
X491659Y302958D01*
X491601Y302997D01*
X491546Y303039D01*
X491492Y303084D01*
X491442Y303132D01*
X491394Y303182D01*
X491349Y303236D01*
X491307Y303291D01*
X491268Y303349D01*
X491233Y303409D01*
X491201Y303471D01*
X491173Y303535D01*
X491148Y303600D01*
X491127Y303666D01*
X491109Y303734D01*
X491096Y303802D01*
X491086Y303871D01*
X491080Y303940D01*
X491078Y304010D01*
X491078Y307114D01*
X491080Y307184D01*
X491086Y307253D01*
X491096Y307322D01*
X491109Y307390D01*
X491127Y307458D01*
X491148Y307524D01*
X491173Y307589D01*
X491201Y307653D01*
X491233Y307715D01*
X491268Y307775D01*
X491307Y307833D01*
X491349Y307888D01*
X491394Y307942D01*
X491442Y307992D01*
X491492Y308040D01*
X491546Y308085D01*
X491601Y308127D01*
X491659Y308166D01*
X491719Y308201D01*
X491781Y308233D01*
X491845Y308261D01*
X491910Y308286D01*
X491976Y308307D01*
X492044Y308325D01*
X492112Y308338D01*
X492181Y308348D01*
X492250Y308354D01*
X492320Y308356D01*
X494183Y308356D01*
X496930Y308356D02*
X496930Y302768D01*
X500035Y302768D02*
X496930Y308356D01*
X500035Y308356D02*
X500035Y302768D01*
X502782Y302768D02*
X502782Y308356D01*
X504335Y308356D01*
X504411Y308354D01*
X504487Y308349D01*
X504563Y308339D01*
X504638Y308326D01*
X504712Y308309D01*
X504786Y308289D01*
X504858Y308265D01*
X504929Y308238D01*
X504999Y308207D01*
X505067Y308173D01*
X505133Y308135D01*
X505197Y308094D01*
X505260Y308051D01*
X505320Y308004D01*
X505377Y307954D01*
X505432Y307901D01*
X505485Y307846D01*
X505535Y307789D01*
X505582Y307729D01*
X505625Y307666D01*
X505666Y307602D01*
X505704Y307536D01*
X505738Y307468D01*
X505769Y307398D01*
X505796Y307327D01*
X505820Y307254D01*
X505840Y307181D01*
X505857Y307107D01*
X505870Y307032D01*
X505880Y306956D01*
X505885Y306880D01*
X505887Y306804D01*
X505887Y304320D01*
X505885Y304241D01*
X505879Y304163D01*
X505869Y304085D01*
X505855Y304008D01*
X505837Y303931D01*
X505816Y303855D01*
X505790Y303781D01*
X505761Y303708D01*
X505728Y303637D01*
X505692Y303567D01*
X505652Y303499D01*
X505609Y303433D01*
X505562Y303370D01*
X505513Y303309D01*
X505460Y303251D01*
X505404Y303195D01*
X505346Y303142D01*
X505285Y303093D01*
X505222Y303046D01*
X505156Y303003D01*
X505088Y302963D01*
X505019Y302927D01*
X504947Y302894D01*
X504874Y302865D01*
X504800Y302839D01*
X504724Y302818D01*
X504647Y302800D01*
X504570Y302786D01*
X504492Y302776D01*
X504414Y302770D01*
X504335Y302768D01*
X502782Y302768D01*
X508452Y305562D02*
X508454Y305693D01*
X508459Y305823D01*
X508469Y305953D01*
X508482Y306083D01*
X508498Y306213D01*
X508518Y306342D01*
X508542Y306470D01*
X508570Y306597D01*
X508601Y306724D01*
X508636Y306850D01*
X508674Y306975D01*
X508716Y307099D01*
X508761Y307221D01*
X508810Y307342D01*
X508862Y307462D01*
X508918Y307580D01*
X508917Y307580D02*
X508940Y307640D01*
X508966Y307700D01*
X508995Y307757D01*
X509028Y307813D01*
X509064Y307867D01*
X509102Y307919D01*
X509144Y307969D01*
X509188Y308016D01*
X509235Y308061D01*
X509285Y308103D01*
X509336Y308142D01*
X509390Y308178D01*
X509446Y308211D01*
X509503Y308241D01*
X509562Y308268D01*
X509623Y308291D01*
X509684Y308311D01*
X509747Y308327D01*
X509811Y308340D01*
X509875Y308349D01*
X509939Y308354D01*
X510004Y308356D01*
X510069Y308354D01*
X510133Y308349D01*
X510197Y308340D01*
X510261Y308327D01*
X510324Y308311D01*
X510385Y308291D01*
X510446Y308268D01*
X510505Y308241D01*
X510562Y308211D01*
X510618Y308178D01*
X510672Y308142D01*
X510723Y308103D01*
X510773Y308061D01*
X510820Y308016D01*
X510864Y307969D01*
X510906Y307919D01*
X510944Y307867D01*
X510980Y307813D01*
X511013Y307757D01*
X511042Y307700D01*
X511068Y307640D01*
X511091Y307580D01*
X511090Y307580D02*
X511146Y307462D01*
X511198Y307342D01*
X511247Y307221D01*
X511292Y307099D01*
X511334Y306975D01*
X511372Y306850D01*
X511407Y306724D01*
X511438Y306598D01*
X511466Y306470D01*
X511490Y306342D01*
X511510Y306213D01*
X511526Y306083D01*
X511539Y305953D01*
X511549Y305823D01*
X511554Y305693D01*
X511556Y305562D01*
X508452Y305562D02*
X508454Y305431D01*
X508459Y305301D01*
X508469Y305171D01*
X508482Y305041D01*
X508498Y304911D01*
X508518Y304782D01*
X508542Y304654D01*
X508570Y304527D01*
X508601Y304400D01*
X508636Y304274D01*
X508674Y304149D01*
X508716Y304025D01*
X508761Y303903D01*
X508810Y303782D01*
X508862Y303662D01*
X508918Y303544D01*
X508917Y303544D02*
X508940Y303484D01*
X508966Y303424D01*
X508995Y303367D01*
X509028Y303311D01*
X509064Y303257D01*
X509102Y303205D01*
X509144Y303155D01*
X509188Y303108D01*
X509235Y303063D01*
X509285Y303021D01*
X509336Y302982D01*
X509390Y302946D01*
X509446Y302913D01*
X509503Y302883D01*
X509562Y302856D01*
X509623Y302833D01*
X509684Y302813D01*
X509747Y302797D01*
X509811Y302784D01*
X509875Y302775D01*
X509939Y302770D01*
X510004Y302768D01*
X511090Y303544D02*
X511146Y303662D01*
X511198Y303782D01*
X511247Y303903D01*
X511292Y304025D01*
X511334Y304149D01*
X511372Y304274D01*
X511407Y304400D01*
X511438Y304526D01*
X511466Y304654D01*
X511490Y304782D01*
X511510Y304911D01*
X511526Y305041D01*
X511539Y305171D01*
X511549Y305301D01*
X511554Y305431D01*
X511556Y305562D01*
X511091Y303544D02*
X511068Y303484D01*
X511042Y303424D01*
X511013Y303367D01*
X510980Y303311D01*
X510944Y303257D01*
X510906Y303205D01*
X510864Y303155D01*
X510820Y303108D01*
X510773Y303063D01*
X510723Y303021D01*
X510672Y302982D01*
X510618Y302946D01*
X510562Y302913D01*
X510505Y302883D01*
X510446Y302856D01*
X510385Y302833D01*
X510324Y302813D01*
X510261Y302797D01*
X510197Y302784D01*
X510133Y302775D01*
X510069Y302770D01*
X510004Y302768D01*
X508762Y304010D02*
X511246Y307114D01*
D16*
X361950Y50800D02*
X361950Y45720D01*
X361950Y50800D02*
X356870Y50800D01*
X336550Y50800D02*
X336550Y45720D01*
X336550Y50800D02*
X341630Y50800D01*
X336550Y30480D02*
X336550Y25400D01*
X341630Y25400D01*
X356870Y25400D02*
X361950Y25400D01*
X361950Y30480D01*
D10*
X339908Y18598D02*
X338977Y18598D01*
X339908Y18598D02*
X339908Y15494D01*
X338046Y15494D01*
X337976Y15496D01*
X337907Y15502D01*
X337838Y15512D01*
X337770Y15525D01*
X337702Y15543D01*
X337636Y15564D01*
X337571Y15589D01*
X337507Y15617D01*
X337445Y15649D01*
X337385Y15684D01*
X337327Y15723D01*
X337272Y15765D01*
X337218Y15810D01*
X337168Y15858D01*
X337120Y15908D01*
X337075Y15962D01*
X337033Y16017D01*
X336994Y16075D01*
X336959Y16135D01*
X336927Y16197D01*
X336899Y16261D01*
X336874Y16326D01*
X336853Y16392D01*
X336835Y16460D01*
X336822Y16528D01*
X336812Y16597D01*
X336806Y16666D01*
X336804Y16736D01*
X336804Y19840D01*
X336806Y19910D01*
X336812Y19979D01*
X336822Y20048D01*
X336835Y20116D01*
X336853Y20184D01*
X336874Y20250D01*
X336899Y20315D01*
X336927Y20379D01*
X336959Y20441D01*
X336994Y20501D01*
X337033Y20559D01*
X337075Y20614D01*
X337120Y20668D01*
X337168Y20718D01*
X337218Y20766D01*
X337272Y20811D01*
X337327Y20853D01*
X337385Y20892D01*
X337445Y20927D01*
X337507Y20959D01*
X337571Y20987D01*
X337636Y21012D01*
X337702Y21033D01*
X337770Y21051D01*
X337838Y21064D01*
X337907Y21074D01*
X337976Y21080D01*
X338046Y21082D01*
X339908Y21082D01*
X342656Y21082D02*
X342656Y15494D01*
X345761Y15494D02*
X342656Y21082D01*
X345761Y21082D02*
X345761Y15494D01*
X348508Y15494D02*
X348508Y21082D01*
X350060Y21082D01*
X350136Y21080D01*
X350212Y21075D01*
X350288Y21065D01*
X350363Y21052D01*
X350437Y21035D01*
X350511Y21015D01*
X350583Y20991D01*
X350654Y20964D01*
X350724Y20933D01*
X350792Y20899D01*
X350858Y20861D01*
X350922Y20820D01*
X350985Y20777D01*
X351045Y20730D01*
X351102Y20680D01*
X351157Y20627D01*
X351210Y20572D01*
X351260Y20515D01*
X351307Y20455D01*
X351350Y20392D01*
X351391Y20328D01*
X351429Y20262D01*
X351463Y20194D01*
X351494Y20124D01*
X351521Y20053D01*
X351545Y19980D01*
X351565Y19907D01*
X351582Y19833D01*
X351595Y19758D01*
X351605Y19682D01*
X351610Y19606D01*
X351612Y19530D01*
X351613Y19530D02*
X351613Y17046D01*
X351612Y17046D02*
X351610Y16967D01*
X351604Y16889D01*
X351594Y16811D01*
X351580Y16734D01*
X351562Y16657D01*
X351541Y16581D01*
X351515Y16507D01*
X351486Y16434D01*
X351453Y16363D01*
X351417Y16293D01*
X351377Y16225D01*
X351334Y16159D01*
X351287Y16096D01*
X351238Y16035D01*
X351185Y15977D01*
X351129Y15921D01*
X351071Y15868D01*
X351010Y15819D01*
X350947Y15772D01*
X350881Y15729D01*
X350813Y15689D01*
X350744Y15653D01*
X350672Y15620D01*
X350599Y15591D01*
X350525Y15565D01*
X350449Y15544D01*
X350372Y15526D01*
X350295Y15512D01*
X350217Y15502D01*
X350139Y15496D01*
X350060Y15494D01*
X348508Y15494D01*
X354178Y19840D02*
X355730Y21082D01*
X355730Y15494D01*
X354178Y15494D02*
X357282Y15494D01*
D16*
X355600Y299720D02*
X355600Y304800D01*
X350520Y304800D01*
X330200Y304800D02*
X330200Y299720D01*
X330200Y304800D02*
X335280Y304800D01*
X330200Y284480D02*
X330200Y279400D01*
X335280Y279400D01*
X350520Y279400D02*
X355600Y279400D01*
X355600Y284480D01*
D10*
X332938Y307594D02*
X330454Y307594D01*
X330454Y313182D01*
X332938Y313182D01*
X332317Y310698D02*
X330454Y310698D01*
X336695Y307594D02*
X336765Y307596D01*
X336834Y307602D01*
X336903Y307612D01*
X336971Y307625D01*
X337039Y307643D01*
X337105Y307664D01*
X337170Y307689D01*
X337234Y307717D01*
X337296Y307749D01*
X337356Y307784D01*
X337414Y307823D01*
X337469Y307865D01*
X337523Y307910D01*
X337573Y307958D01*
X337621Y308008D01*
X337666Y308062D01*
X337708Y308117D01*
X337747Y308175D01*
X337782Y308235D01*
X337814Y308297D01*
X337842Y308361D01*
X337867Y308426D01*
X337888Y308492D01*
X337906Y308560D01*
X337919Y308628D01*
X337929Y308697D01*
X337935Y308766D01*
X337937Y308836D01*
X336695Y307594D02*
X336596Y307596D01*
X336498Y307601D01*
X336400Y307611D01*
X336302Y307624D01*
X336205Y307640D01*
X336108Y307660D01*
X336013Y307684D01*
X335918Y307712D01*
X335824Y307743D01*
X335732Y307777D01*
X335641Y307815D01*
X335551Y307856D01*
X335463Y307901D01*
X335377Y307949D01*
X335293Y308000D01*
X335211Y308054D01*
X335130Y308112D01*
X335052Y308172D01*
X334977Y308235D01*
X334903Y308301D01*
X334833Y308370D01*
X334987Y311940D02*
X334989Y312010D01*
X334995Y312079D01*
X335005Y312148D01*
X335018Y312216D01*
X335036Y312284D01*
X335057Y312350D01*
X335082Y312415D01*
X335110Y312479D01*
X335142Y312541D01*
X335177Y312601D01*
X335216Y312659D01*
X335258Y312714D01*
X335303Y312768D01*
X335351Y312818D01*
X335401Y312866D01*
X335455Y312911D01*
X335510Y312953D01*
X335568Y312992D01*
X335628Y313027D01*
X335690Y313059D01*
X335754Y313087D01*
X335819Y313112D01*
X335885Y313133D01*
X335953Y313151D01*
X336021Y313164D01*
X336090Y313174D01*
X336159Y313180D01*
X336229Y313182D01*
X336323Y313180D01*
X336416Y313174D01*
X336509Y313165D01*
X336602Y313152D01*
X336694Y313135D01*
X336785Y313115D01*
X336876Y313090D01*
X336965Y313063D01*
X337053Y313031D01*
X337140Y312996D01*
X337226Y312958D01*
X337309Y312916D01*
X337391Y312871D01*
X337472Y312823D01*
X337550Y312771D01*
X337626Y312716D01*
X335608Y310854D02*
X335549Y310890D01*
X335493Y310930D01*
X335439Y310973D01*
X335387Y311018D01*
X335338Y311067D01*
X335292Y311118D01*
X335249Y311171D01*
X335208Y311227D01*
X335171Y311285D01*
X335136Y311345D01*
X335106Y311406D01*
X335078Y311469D01*
X335054Y311534D01*
X335034Y311600D01*
X335017Y311667D01*
X335004Y311734D01*
X334995Y311802D01*
X334989Y311871D01*
X334987Y311940D01*
X337315Y309922D02*
X337374Y309886D01*
X337430Y309846D01*
X337484Y309803D01*
X337536Y309758D01*
X337585Y309709D01*
X337631Y309658D01*
X337674Y309605D01*
X337715Y309549D01*
X337752Y309491D01*
X337787Y309431D01*
X337817Y309370D01*
X337845Y309307D01*
X337869Y309242D01*
X337889Y309176D01*
X337906Y309109D01*
X337919Y309042D01*
X337928Y308974D01*
X337934Y308905D01*
X337936Y308836D01*
X337316Y309922D02*
X335608Y310854D01*
X340401Y313182D02*
X340401Y307594D01*
X340401Y313182D02*
X341954Y313182D01*
X342031Y313180D01*
X342109Y313174D01*
X342185Y313165D01*
X342262Y313151D01*
X342337Y313134D01*
X342411Y313113D01*
X342485Y313088D01*
X342557Y313060D01*
X342627Y313028D01*
X342696Y312993D01*
X342763Y312954D01*
X342828Y312912D01*
X342891Y312867D01*
X342952Y312819D01*
X343010Y312768D01*
X343065Y312714D01*
X343118Y312657D01*
X343167Y312598D01*
X343214Y312536D01*
X343258Y312472D01*
X343298Y312406D01*
X343335Y312338D01*
X343369Y312268D01*
X343399Y312197D01*
X343425Y312124D01*
X343448Y312050D01*
X343467Y311975D01*
X343482Y311900D01*
X343494Y311823D01*
X343502Y311746D01*
X343506Y311669D01*
X343506Y311591D01*
X343502Y311514D01*
X343494Y311437D01*
X343482Y311360D01*
X343467Y311285D01*
X343448Y311210D01*
X343425Y311136D01*
X343399Y311063D01*
X343369Y310992D01*
X343335Y310922D01*
X343298Y310854D01*
X343258Y310788D01*
X343214Y310724D01*
X343167Y310662D01*
X343118Y310603D01*
X343065Y310546D01*
X343010Y310492D01*
X342952Y310441D01*
X342891Y310393D01*
X342828Y310348D01*
X342763Y310306D01*
X342696Y310267D01*
X342627Y310232D01*
X342557Y310200D01*
X342485Y310172D01*
X342411Y310147D01*
X342337Y310126D01*
X342262Y310109D01*
X342185Y310095D01*
X342109Y310086D01*
X342031Y310080D01*
X341954Y310078D01*
X340401Y310078D01*
X345384Y306973D02*
X347867Y306973D01*
X350466Y307594D02*
X350466Y313182D01*
X349845Y307594D02*
X351087Y307594D01*
X351087Y313182D02*
X349845Y313182D01*
X353303Y311630D02*
X353303Y309146D01*
X353303Y311630D02*
X353305Y311707D01*
X353311Y311785D01*
X353320Y311861D01*
X353334Y311938D01*
X353351Y312013D01*
X353372Y312087D01*
X353397Y312161D01*
X353425Y312233D01*
X353457Y312303D01*
X353492Y312372D01*
X353531Y312439D01*
X353573Y312504D01*
X353618Y312567D01*
X353666Y312628D01*
X353717Y312686D01*
X353771Y312741D01*
X353828Y312794D01*
X353887Y312843D01*
X353949Y312890D01*
X354013Y312934D01*
X354079Y312974D01*
X354147Y313011D01*
X354217Y313045D01*
X354288Y313075D01*
X354361Y313101D01*
X354435Y313124D01*
X354510Y313143D01*
X354585Y313158D01*
X354662Y313170D01*
X354739Y313178D01*
X354816Y313182D01*
X354894Y313182D01*
X354971Y313178D01*
X355048Y313170D01*
X355125Y313158D01*
X355200Y313143D01*
X355275Y313124D01*
X355349Y313101D01*
X355422Y313075D01*
X355493Y313045D01*
X355563Y313011D01*
X355631Y312974D01*
X355697Y312934D01*
X355761Y312890D01*
X355823Y312843D01*
X355882Y312794D01*
X355939Y312741D01*
X355993Y312686D01*
X356044Y312628D01*
X356092Y312567D01*
X356137Y312504D01*
X356179Y312439D01*
X356218Y312372D01*
X356253Y312303D01*
X356285Y312233D01*
X356313Y312161D01*
X356338Y312087D01*
X356359Y312013D01*
X356376Y311938D01*
X356390Y311861D01*
X356399Y311785D01*
X356405Y311707D01*
X356407Y311630D01*
X356407Y309146D01*
X356405Y309069D01*
X356399Y308991D01*
X356390Y308915D01*
X356376Y308838D01*
X356359Y308763D01*
X356338Y308689D01*
X356313Y308615D01*
X356285Y308543D01*
X356253Y308473D01*
X356218Y308404D01*
X356179Y308337D01*
X356137Y308272D01*
X356092Y308209D01*
X356044Y308148D01*
X355993Y308090D01*
X355939Y308035D01*
X355882Y307982D01*
X355823Y307933D01*
X355761Y307886D01*
X355697Y307842D01*
X355631Y307802D01*
X355563Y307765D01*
X355493Y307731D01*
X355422Y307701D01*
X355349Y307675D01*
X355275Y307652D01*
X355200Y307633D01*
X355125Y307618D01*
X355048Y307606D01*
X354971Y307598D01*
X354894Y307594D01*
X354816Y307594D01*
X354739Y307598D01*
X354662Y307606D01*
X354585Y307618D01*
X354510Y307633D01*
X354435Y307652D01*
X354361Y307675D01*
X354288Y307701D01*
X354217Y307731D01*
X354147Y307765D01*
X354079Y307802D01*
X354013Y307842D01*
X353949Y307886D01*
X353887Y307933D01*
X353828Y307982D01*
X353771Y308035D01*
X353717Y308090D01*
X353666Y308148D01*
X353618Y308209D01*
X353573Y308272D01*
X353531Y308337D01*
X353492Y308404D01*
X353457Y308473D01*
X353425Y308543D01*
X353397Y308615D01*
X353372Y308689D01*
X353351Y308763D01*
X353334Y308838D01*
X353320Y308915D01*
X353311Y308991D01*
X353305Y309069D01*
X353303Y309146D01*
X358789Y311940D02*
X360341Y313182D01*
X360341Y307594D01*
X358789Y307594D02*
X361894Y307594D01*
X364276Y309146D02*
X364278Y309223D01*
X364284Y309301D01*
X364293Y309377D01*
X364307Y309454D01*
X364324Y309529D01*
X364345Y309603D01*
X364370Y309677D01*
X364398Y309749D01*
X364430Y309819D01*
X364465Y309888D01*
X364504Y309955D01*
X364546Y310020D01*
X364591Y310083D01*
X364639Y310144D01*
X364690Y310202D01*
X364744Y310257D01*
X364801Y310310D01*
X364860Y310359D01*
X364922Y310406D01*
X364986Y310450D01*
X365052Y310490D01*
X365120Y310527D01*
X365190Y310561D01*
X365261Y310591D01*
X365334Y310617D01*
X365408Y310640D01*
X365483Y310659D01*
X365558Y310674D01*
X365635Y310686D01*
X365712Y310694D01*
X365789Y310698D01*
X365867Y310698D01*
X365944Y310694D01*
X366021Y310686D01*
X366098Y310674D01*
X366173Y310659D01*
X366248Y310640D01*
X366322Y310617D01*
X366395Y310591D01*
X366466Y310561D01*
X366536Y310527D01*
X366604Y310490D01*
X366670Y310450D01*
X366734Y310406D01*
X366796Y310359D01*
X366855Y310310D01*
X366912Y310257D01*
X366966Y310202D01*
X367017Y310144D01*
X367065Y310083D01*
X367110Y310020D01*
X367152Y309955D01*
X367191Y309888D01*
X367226Y309819D01*
X367258Y309749D01*
X367286Y309677D01*
X367311Y309603D01*
X367332Y309529D01*
X367349Y309454D01*
X367363Y309377D01*
X367372Y309301D01*
X367378Y309223D01*
X367380Y309146D01*
X367378Y309069D01*
X367372Y308991D01*
X367363Y308915D01*
X367349Y308838D01*
X367332Y308763D01*
X367311Y308689D01*
X367286Y308615D01*
X367258Y308543D01*
X367226Y308473D01*
X367191Y308404D01*
X367152Y308337D01*
X367110Y308272D01*
X367065Y308209D01*
X367017Y308148D01*
X366966Y308090D01*
X366912Y308035D01*
X366855Y307982D01*
X366796Y307933D01*
X366734Y307886D01*
X366670Y307842D01*
X366604Y307802D01*
X366536Y307765D01*
X366466Y307731D01*
X366395Y307701D01*
X366322Y307675D01*
X366248Y307652D01*
X366173Y307633D01*
X366098Y307618D01*
X366021Y307606D01*
X365944Y307598D01*
X365867Y307594D01*
X365789Y307594D01*
X365712Y307598D01*
X365635Y307606D01*
X365558Y307618D01*
X365483Y307633D01*
X365408Y307652D01*
X365334Y307675D01*
X365261Y307701D01*
X365190Y307731D01*
X365120Y307765D01*
X365052Y307802D01*
X364986Y307842D01*
X364922Y307886D01*
X364860Y307933D01*
X364801Y307982D01*
X364744Y308035D01*
X364690Y308090D01*
X364639Y308148D01*
X364591Y308209D01*
X364546Y308272D01*
X364504Y308337D01*
X364465Y308404D01*
X364430Y308473D01*
X364398Y308543D01*
X364370Y308615D01*
X364345Y308689D01*
X364324Y308763D01*
X364307Y308838D01*
X364293Y308915D01*
X364284Y308991D01*
X364278Y309069D01*
X364276Y309146D01*
X364586Y311940D02*
X364588Y312010D01*
X364594Y312079D01*
X364604Y312148D01*
X364617Y312216D01*
X364635Y312284D01*
X364656Y312350D01*
X364681Y312415D01*
X364709Y312479D01*
X364741Y312541D01*
X364776Y312601D01*
X364815Y312659D01*
X364857Y312714D01*
X364902Y312768D01*
X364950Y312818D01*
X365000Y312866D01*
X365054Y312911D01*
X365109Y312953D01*
X365167Y312992D01*
X365227Y313027D01*
X365289Y313059D01*
X365353Y313087D01*
X365418Y313112D01*
X365484Y313133D01*
X365552Y313151D01*
X365620Y313164D01*
X365689Y313174D01*
X365758Y313180D01*
X365828Y313182D01*
X365898Y313180D01*
X365967Y313174D01*
X366036Y313164D01*
X366104Y313151D01*
X366172Y313133D01*
X366238Y313112D01*
X366303Y313087D01*
X366367Y313059D01*
X366429Y313027D01*
X366489Y312992D01*
X366547Y312953D01*
X366602Y312911D01*
X366656Y312866D01*
X366706Y312818D01*
X366754Y312768D01*
X366799Y312714D01*
X366841Y312659D01*
X366880Y312601D01*
X366915Y312541D01*
X366947Y312479D01*
X366975Y312415D01*
X367000Y312350D01*
X367021Y312284D01*
X367039Y312216D01*
X367052Y312148D01*
X367062Y312079D01*
X367068Y312010D01*
X367070Y311940D01*
X367068Y311870D01*
X367062Y311801D01*
X367052Y311732D01*
X367039Y311664D01*
X367021Y311596D01*
X367000Y311530D01*
X366975Y311465D01*
X366947Y311401D01*
X366915Y311339D01*
X366880Y311279D01*
X366841Y311221D01*
X366799Y311166D01*
X366754Y311112D01*
X366706Y311062D01*
X366656Y311014D01*
X366602Y310969D01*
X366547Y310927D01*
X366489Y310888D01*
X366429Y310853D01*
X366367Y310821D01*
X366303Y310793D01*
X366238Y310768D01*
X366172Y310747D01*
X366104Y310729D01*
X366036Y310716D01*
X365967Y310706D01*
X365898Y310700D01*
X365828Y310698D01*
X365758Y310700D01*
X365689Y310706D01*
X365620Y310716D01*
X365552Y310729D01*
X365484Y310747D01*
X365418Y310768D01*
X365353Y310793D01*
X365289Y310821D01*
X365227Y310853D01*
X365167Y310888D01*
X365109Y310927D01*
X365054Y310969D01*
X365000Y311014D01*
X364950Y311062D01*
X364902Y311112D01*
X364857Y311166D01*
X364815Y311221D01*
X364776Y311279D01*
X364741Y311339D01*
X364709Y311401D01*
X364681Y311465D01*
X364656Y311530D01*
X364635Y311596D01*
X364617Y311664D01*
X364604Y311732D01*
X364594Y311801D01*
X364588Y311870D01*
X364586Y311940D01*
D16*
X596900Y203200D02*
X596900Y198120D01*
X596900Y203200D02*
X591820Y203200D01*
X571500Y203200D02*
X571500Y198120D01*
X571500Y203200D02*
X576580Y203200D01*
X571500Y182880D02*
X571500Y177800D01*
X576580Y177800D01*
X591820Y177800D02*
X596900Y177800D01*
X596900Y182880D01*
D10*
X557699Y170067D02*
X553974Y170067D01*
X555837Y168204D02*
X555837Y171930D01*
X560137Y167894D02*
X561689Y167894D01*
X561766Y167896D01*
X561844Y167902D01*
X561920Y167911D01*
X561997Y167925D01*
X562072Y167942D01*
X562146Y167963D01*
X562220Y167988D01*
X562292Y168016D01*
X562362Y168048D01*
X562431Y168083D01*
X562498Y168122D01*
X562563Y168164D01*
X562626Y168209D01*
X562687Y168257D01*
X562745Y168308D01*
X562800Y168362D01*
X562853Y168419D01*
X562902Y168478D01*
X562949Y168540D01*
X562993Y168604D01*
X563033Y168670D01*
X563070Y168738D01*
X563104Y168808D01*
X563134Y168879D01*
X563160Y168952D01*
X563183Y169026D01*
X563202Y169101D01*
X563217Y169176D01*
X563229Y169253D01*
X563237Y169330D01*
X563241Y169407D01*
X563241Y169485D01*
X563237Y169562D01*
X563229Y169639D01*
X563217Y169716D01*
X563202Y169791D01*
X563183Y169866D01*
X563160Y169940D01*
X563134Y170013D01*
X563104Y170084D01*
X563070Y170154D01*
X563033Y170222D01*
X562993Y170288D01*
X562949Y170352D01*
X562902Y170414D01*
X562853Y170473D01*
X562800Y170530D01*
X562745Y170584D01*
X562687Y170635D01*
X562626Y170683D01*
X562563Y170728D01*
X562498Y170770D01*
X562431Y170809D01*
X562362Y170844D01*
X562292Y170876D01*
X562220Y170904D01*
X562146Y170929D01*
X562072Y170950D01*
X561997Y170967D01*
X561920Y170981D01*
X561844Y170990D01*
X561766Y170996D01*
X561689Y170998D01*
X561999Y173482D02*
X560137Y173482D01*
X561999Y173482D02*
X562069Y173480D01*
X562138Y173474D01*
X562207Y173464D01*
X562275Y173451D01*
X562343Y173433D01*
X562409Y173412D01*
X562474Y173387D01*
X562538Y173359D01*
X562600Y173327D01*
X562660Y173292D01*
X562718Y173253D01*
X562773Y173211D01*
X562827Y173166D01*
X562877Y173118D01*
X562925Y173068D01*
X562970Y173014D01*
X563012Y172959D01*
X563051Y172901D01*
X563086Y172841D01*
X563118Y172779D01*
X563146Y172715D01*
X563171Y172650D01*
X563192Y172584D01*
X563210Y172516D01*
X563223Y172448D01*
X563233Y172379D01*
X563239Y172310D01*
X563241Y172240D01*
X563239Y172170D01*
X563233Y172101D01*
X563223Y172032D01*
X563210Y171964D01*
X563192Y171896D01*
X563171Y171830D01*
X563146Y171765D01*
X563118Y171701D01*
X563086Y171639D01*
X563051Y171579D01*
X563012Y171521D01*
X562970Y171466D01*
X562925Y171412D01*
X562877Y171362D01*
X562827Y171314D01*
X562773Y171269D01*
X562718Y171227D01*
X562660Y171188D01*
X562600Y171153D01*
X562538Y171121D01*
X562474Y171093D01*
X562409Y171068D01*
X562343Y171047D01*
X562275Y171029D01*
X562207Y171016D01*
X562138Y171006D01*
X562069Y171000D01*
X561999Y170998D01*
X560757Y170998D01*
X565313Y173482D02*
X567175Y167894D01*
X569038Y173482D01*
X571109Y167894D02*
X572662Y167894D01*
X572739Y167896D01*
X572817Y167902D01*
X572893Y167911D01*
X572970Y167925D01*
X573045Y167942D01*
X573119Y167963D01*
X573193Y167988D01*
X573265Y168016D01*
X573335Y168048D01*
X573404Y168083D01*
X573471Y168122D01*
X573536Y168164D01*
X573599Y168209D01*
X573660Y168257D01*
X573718Y168308D01*
X573773Y168362D01*
X573826Y168419D01*
X573875Y168478D01*
X573922Y168540D01*
X573966Y168604D01*
X574006Y168670D01*
X574043Y168738D01*
X574077Y168808D01*
X574107Y168879D01*
X574133Y168952D01*
X574156Y169026D01*
X574175Y169101D01*
X574190Y169176D01*
X574202Y169253D01*
X574210Y169330D01*
X574214Y169407D01*
X574214Y169485D01*
X574210Y169562D01*
X574202Y169639D01*
X574190Y169716D01*
X574175Y169791D01*
X574156Y169866D01*
X574133Y169940D01*
X574107Y170013D01*
X574077Y170084D01*
X574043Y170154D01*
X574006Y170222D01*
X573966Y170288D01*
X573922Y170352D01*
X573875Y170414D01*
X573826Y170473D01*
X573773Y170530D01*
X573718Y170584D01*
X573660Y170635D01*
X573599Y170683D01*
X573536Y170728D01*
X573471Y170770D01*
X573404Y170809D01*
X573335Y170844D01*
X573265Y170876D01*
X573193Y170904D01*
X573119Y170929D01*
X573045Y170950D01*
X572970Y170967D01*
X572893Y170981D01*
X572817Y170990D01*
X572739Y170996D01*
X572662Y170998D01*
X572972Y173482D02*
X571109Y173482D01*
X572972Y173482D02*
X573042Y173480D01*
X573111Y173474D01*
X573180Y173464D01*
X573248Y173451D01*
X573316Y173433D01*
X573382Y173412D01*
X573447Y173387D01*
X573511Y173359D01*
X573573Y173327D01*
X573633Y173292D01*
X573691Y173253D01*
X573746Y173211D01*
X573800Y173166D01*
X573850Y173118D01*
X573898Y173068D01*
X573943Y173014D01*
X573985Y172959D01*
X574024Y172901D01*
X574059Y172841D01*
X574091Y172779D01*
X574119Y172715D01*
X574144Y172650D01*
X574165Y172584D01*
X574183Y172516D01*
X574196Y172448D01*
X574206Y172379D01*
X574212Y172310D01*
X574214Y172240D01*
X574212Y172170D01*
X574206Y172101D01*
X574196Y172032D01*
X574183Y171964D01*
X574165Y171896D01*
X574144Y171830D01*
X574119Y171765D01*
X574091Y171701D01*
X574059Y171639D01*
X574024Y171579D01*
X573985Y171521D01*
X573943Y171466D01*
X573898Y171412D01*
X573850Y171362D01*
X573800Y171314D01*
X573746Y171269D01*
X573691Y171227D01*
X573633Y171188D01*
X573573Y171153D01*
X573511Y171121D01*
X573447Y171093D01*
X573382Y171068D01*
X573316Y171047D01*
X573248Y171029D01*
X573180Y171016D01*
X573111Y171006D01*
X573042Y171000D01*
X572972Y170998D01*
X571730Y170998D01*
X576358Y167273D02*
X578841Y167273D01*
X581204Y167894D02*
X581204Y173482D01*
X582756Y173482D01*
X582833Y173480D01*
X582911Y173474D01*
X582987Y173465D01*
X583064Y173451D01*
X583139Y173434D01*
X583213Y173413D01*
X583287Y173388D01*
X583359Y173360D01*
X583429Y173328D01*
X583498Y173293D01*
X583565Y173254D01*
X583630Y173212D01*
X583693Y173167D01*
X583754Y173119D01*
X583812Y173068D01*
X583867Y173014D01*
X583920Y172957D01*
X583969Y172898D01*
X584016Y172836D01*
X584060Y172772D01*
X584100Y172706D01*
X584137Y172638D01*
X584171Y172568D01*
X584201Y172497D01*
X584227Y172424D01*
X584250Y172350D01*
X584269Y172275D01*
X584284Y172200D01*
X584296Y172123D01*
X584304Y172046D01*
X584308Y171969D01*
X584308Y171891D01*
X584304Y171814D01*
X584296Y171737D01*
X584284Y171660D01*
X584269Y171585D01*
X584250Y171510D01*
X584227Y171436D01*
X584201Y171363D01*
X584171Y171292D01*
X584137Y171222D01*
X584100Y171154D01*
X584060Y171088D01*
X584016Y171024D01*
X583969Y170962D01*
X583920Y170903D01*
X583867Y170846D01*
X583812Y170792D01*
X583754Y170741D01*
X583693Y170693D01*
X583630Y170648D01*
X583565Y170606D01*
X583498Y170567D01*
X583429Y170532D01*
X583359Y170500D01*
X583287Y170472D01*
X583213Y170447D01*
X583139Y170426D01*
X583064Y170409D01*
X582987Y170395D01*
X582911Y170386D01*
X582833Y170380D01*
X582756Y170378D01*
X581204Y170378D01*
X583066Y170378D02*
X584308Y167894D01*
X586848Y167894D02*
X589332Y167894D01*
X586848Y167894D02*
X586848Y173482D01*
X589332Y173482D01*
X588711Y170998D02*
X586848Y170998D01*
X593765Y170998D02*
X594696Y170998D01*
X594696Y167894D01*
X592833Y167894D01*
X592763Y167896D01*
X592694Y167902D01*
X592625Y167912D01*
X592557Y167925D01*
X592489Y167943D01*
X592423Y167964D01*
X592358Y167989D01*
X592294Y168017D01*
X592232Y168049D01*
X592172Y168084D01*
X592114Y168123D01*
X592059Y168165D01*
X592005Y168210D01*
X591955Y168258D01*
X591907Y168308D01*
X591862Y168362D01*
X591820Y168417D01*
X591781Y168475D01*
X591746Y168535D01*
X591714Y168597D01*
X591686Y168661D01*
X591661Y168726D01*
X591640Y168792D01*
X591622Y168860D01*
X591609Y168928D01*
X591599Y168997D01*
X591593Y169066D01*
X591591Y169136D01*
X591592Y169136D02*
X591592Y172240D01*
X591594Y172310D01*
X591600Y172379D01*
X591610Y172448D01*
X591623Y172516D01*
X591641Y172584D01*
X591662Y172650D01*
X591687Y172715D01*
X591715Y172779D01*
X591747Y172841D01*
X591782Y172901D01*
X591821Y172959D01*
X591863Y173014D01*
X591908Y173068D01*
X591956Y173118D01*
X592006Y173166D01*
X592060Y173211D01*
X592115Y173253D01*
X592173Y173292D01*
X592233Y173327D01*
X592295Y173359D01*
X592359Y173387D01*
X592424Y173412D01*
X592490Y173433D01*
X592558Y173451D01*
X592626Y173464D01*
X592695Y173474D01*
X592764Y173480D01*
X592834Y173482D01*
X592833Y173482D02*
X594696Y173482D01*
D16*
X596900Y255270D02*
X596900Y260350D01*
X591820Y260350D01*
X571500Y260350D02*
X571500Y255270D01*
X571500Y260350D02*
X576580Y260350D01*
X571500Y240030D02*
X571500Y234950D01*
X576580Y234950D01*
X591820Y234950D02*
X596900Y234950D01*
X596900Y240030D01*
D10*
X571754Y263144D02*
X571754Y268732D01*
X573306Y268732D01*
X573383Y268730D01*
X573461Y268724D01*
X573537Y268715D01*
X573614Y268701D01*
X573689Y268684D01*
X573763Y268663D01*
X573837Y268638D01*
X573909Y268610D01*
X573979Y268578D01*
X574048Y268543D01*
X574115Y268504D01*
X574180Y268462D01*
X574243Y268417D01*
X574304Y268369D01*
X574362Y268318D01*
X574417Y268264D01*
X574470Y268207D01*
X574519Y268148D01*
X574566Y268086D01*
X574610Y268022D01*
X574650Y267956D01*
X574687Y267888D01*
X574721Y267818D01*
X574751Y267747D01*
X574777Y267674D01*
X574800Y267600D01*
X574819Y267525D01*
X574834Y267450D01*
X574846Y267373D01*
X574854Y267296D01*
X574858Y267219D01*
X574858Y267141D01*
X574854Y267064D01*
X574846Y266987D01*
X574834Y266910D01*
X574819Y266835D01*
X574800Y266760D01*
X574777Y266686D01*
X574751Y266613D01*
X574721Y266542D01*
X574687Y266472D01*
X574650Y266404D01*
X574610Y266338D01*
X574566Y266274D01*
X574519Y266212D01*
X574470Y266153D01*
X574417Y266096D01*
X574362Y266042D01*
X574304Y265991D01*
X574243Y265943D01*
X574180Y265898D01*
X574115Y265856D01*
X574048Y265817D01*
X573979Y265782D01*
X573909Y265750D01*
X573837Y265722D01*
X573763Y265697D01*
X573689Y265676D01*
X573614Y265659D01*
X573537Y265645D01*
X573461Y265636D01*
X573383Y265630D01*
X573306Y265628D01*
X571754Y265628D01*
X576775Y268732D02*
X578016Y263144D01*
X579258Y266869D01*
X580500Y263144D01*
X581742Y268732D01*
X584143Y268732D02*
X584143Y263144D01*
X584143Y268732D02*
X585695Y268732D01*
X585772Y268730D01*
X585850Y268724D01*
X585926Y268715D01*
X586003Y268701D01*
X586078Y268684D01*
X586152Y268663D01*
X586226Y268638D01*
X586298Y268610D01*
X586368Y268578D01*
X586437Y268543D01*
X586504Y268504D01*
X586569Y268462D01*
X586632Y268417D01*
X586693Y268369D01*
X586751Y268318D01*
X586806Y268264D01*
X586859Y268207D01*
X586908Y268148D01*
X586955Y268086D01*
X586999Y268022D01*
X587039Y267956D01*
X587076Y267888D01*
X587110Y267818D01*
X587140Y267747D01*
X587166Y267674D01*
X587189Y267600D01*
X587208Y267525D01*
X587223Y267450D01*
X587235Y267373D01*
X587243Y267296D01*
X587247Y267219D01*
X587247Y267141D01*
X587243Y267064D01*
X587235Y266987D01*
X587223Y266910D01*
X587208Y266835D01*
X587189Y266760D01*
X587166Y266686D01*
X587140Y266613D01*
X587110Y266542D01*
X587076Y266472D01*
X587039Y266404D01*
X586999Y266338D01*
X586955Y266274D01*
X586908Y266212D01*
X586859Y266153D01*
X586806Y266096D01*
X586751Y266042D01*
X586693Y265991D01*
X586632Y265943D01*
X586569Y265898D01*
X586504Y265856D01*
X586437Y265817D01*
X586368Y265782D01*
X586298Y265750D01*
X586226Y265722D01*
X586152Y265697D01*
X586078Y265676D01*
X586003Y265659D01*
X585926Y265645D01*
X585850Y265636D01*
X585772Y265630D01*
X585695Y265628D01*
X584143Y265628D01*
X586006Y265628D02*
X587247Y263144D01*
X36576Y42035D02*
X36576Y40793D01*
X36574Y40723D01*
X36568Y40654D01*
X36558Y40585D01*
X36545Y40517D01*
X36527Y40449D01*
X36506Y40383D01*
X36481Y40318D01*
X36453Y40254D01*
X36421Y40192D01*
X36386Y40132D01*
X36347Y40074D01*
X36305Y40019D01*
X36260Y39965D01*
X36212Y39915D01*
X36162Y39867D01*
X36108Y39822D01*
X36053Y39780D01*
X35995Y39741D01*
X35935Y39706D01*
X35873Y39674D01*
X35809Y39646D01*
X35744Y39621D01*
X35678Y39600D01*
X35610Y39582D01*
X35542Y39569D01*
X35473Y39559D01*
X35404Y39553D01*
X35334Y39551D01*
X32230Y39551D01*
X32160Y39553D01*
X32091Y39559D01*
X32022Y39569D01*
X31954Y39582D01*
X31886Y39600D01*
X31820Y39621D01*
X31755Y39646D01*
X31691Y39674D01*
X31629Y39706D01*
X31569Y39741D01*
X31511Y39780D01*
X31456Y39822D01*
X31402Y39867D01*
X31352Y39915D01*
X31304Y39965D01*
X31259Y40019D01*
X31217Y40074D01*
X31178Y40132D01*
X31143Y40192D01*
X31111Y40254D01*
X31083Y40318D01*
X31058Y40383D01*
X31037Y40449D01*
X31019Y40517D01*
X31006Y40585D01*
X30996Y40654D01*
X30990Y40723D01*
X30988Y40793D01*
X30988Y42035D01*
X33472Y44140D02*
X33472Y46002D01*
X33471Y46002D02*
X33473Y46072D01*
X33479Y46141D01*
X33489Y46210D01*
X33502Y46278D01*
X33520Y46346D01*
X33541Y46412D01*
X33566Y46477D01*
X33594Y46541D01*
X33626Y46603D01*
X33661Y46663D01*
X33700Y46721D01*
X33742Y46776D01*
X33787Y46830D01*
X33835Y46880D01*
X33885Y46928D01*
X33939Y46973D01*
X33994Y47015D01*
X34052Y47054D01*
X34112Y47089D01*
X34174Y47121D01*
X34238Y47149D01*
X34303Y47174D01*
X34369Y47195D01*
X34437Y47213D01*
X34505Y47226D01*
X34574Y47236D01*
X34643Y47242D01*
X34713Y47244D01*
X35024Y47244D01*
X35101Y47242D01*
X35179Y47236D01*
X35255Y47227D01*
X35332Y47213D01*
X35407Y47196D01*
X35481Y47175D01*
X35555Y47150D01*
X35627Y47122D01*
X35697Y47090D01*
X35766Y47055D01*
X35833Y47016D01*
X35898Y46974D01*
X35961Y46929D01*
X36022Y46881D01*
X36080Y46830D01*
X36135Y46776D01*
X36188Y46719D01*
X36237Y46660D01*
X36284Y46598D01*
X36328Y46534D01*
X36368Y46468D01*
X36405Y46400D01*
X36439Y46330D01*
X36469Y46259D01*
X36495Y46186D01*
X36518Y46112D01*
X36537Y46037D01*
X36552Y45962D01*
X36564Y45885D01*
X36572Y45808D01*
X36576Y45731D01*
X36576Y45653D01*
X36572Y45576D01*
X36564Y45499D01*
X36552Y45422D01*
X36537Y45347D01*
X36518Y45272D01*
X36495Y45198D01*
X36469Y45125D01*
X36439Y45054D01*
X36405Y44984D01*
X36368Y44916D01*
X36328Y44850D01*
X36284Y44786D01*
X36237Y44724D01*
X36188Y44665D01*
X36135Y44608D01*
X36080Y44554D01*
X36022Y44503D01*
X35961Y44455D01*
X35898Y44410D01*
X35833Y44368D01*
X35766Y44329D01*
X35697Y44294D01*
X35627Y44262D01*
X35555Y44234D01*
X35481Y44209D01*
X35407Y44188D01*
X35332Y44171D01*
X35255Y44157D01*
X35179Y44148D01*
X35101Y44142D01*
X35024Y44140D01*
X33472Y44140D01*
X33472Y44139D02*
X33374Y44141D01*
X33277Y44147D01*
X33180Y44156D01*
X33083Y44170D01*
X32987Y44187D01*
X32892Y44208D01*
X32798Y44232D01*
X32704Y44261D01*
X32612Y44293D01*
X32521Y44328D01*
X32432Y44367D01*
X32344Y44410D01*
X32258Y44456D01*
X32174Y44505D01*
X32092Y44558D01*
X32012Y44613D01*
X31934Y44672D01*
X31859Y44734D01*
X31786Y44799D01*
X31716Y44867D01*
X31648Y44937D01*
X31583Y45010D01*
X31521Y45085D01*
X31462Y45163D01*
X31407Y45243D01*
X31354Y45325D01*
X31305Y45409D01*
X31259Y45495D01*
X31216Y45583D01*
X31177Y45672D01*
X31142Y45763D01*
X31110Y45855D01*
X31081Y45949D01*
X31057Y46043D01*
X31036Y46138D01*
X31019Y46234D01*
X31005Y46331D01*
X30996Y46428D01*
X30990Y46525D01*
X30988Y46623D01*
X61976Y42035D02*
X61976Y40793D01*
X61974Y40723D01*
X61968Y40654D01*
X61958Y40585D01*
X61945Y40517D01*
X61927Y40449D01*
X61906Y40383D01*
X61881Y40318D01*
X61853Y40254D01*
X61821Y40192D01*
X61786Y40132D01*
X61747Y40074D01*
X61705Y40019D01*
X61660Y39965D01*
X61612Y39915D01*
X61562Y39867D01*
X61508Y39822D01*
X61453Y39780D01*
X61395Y39741D01*
X61335Y39706D01*
X61273Y39674D01*
X61209Y39646D01*
X61144Y39621D01*
X61078Y39600D01*
X61010Y39582D01*
X60942Y39569D01*
X60873Y39559D01*
X60804Y39553D01*
X60734Y39551D01*
X57630Y39551D01*
X57560Y39553D01*
X57491Y39559D01*
X57422Y39569D01*
X57354Y39582D01*
X57286Y39600D01*
X57220Y39621D01*
X57155Y39646D01*
X57091Y39674D01*
X57029Y39706D01*
X56969Y39741D01*
X56911Y39780D01*
X56856Y39822D01*
X56802Y39867D01*
X56752Y39915D01*
X56704Y39965D01*
X56659Y40019D01*
X56617Y40074D01*
X56578Y40132D01*
X56543Y40192D01*
X56511Y40254D01*
X56483Y40318D01*
X56458Y40383D01*
X56437Y40449D01*
X56419Y40517D01*
X56406Y40585D01*
X56396Y40654D01*
X56390Y40723D01*
X56388Y40793D01*
X56388Y42035D01*
X56388Y44140D02*
X57009Y44140D01*
X56388Y44140D02*
X56388Y47244D01*
X61976Y45692D01*
X464058Y95504D02*
X469646Y95504D01*
X464058Y95504D02*
X464058Y97056D01*
X464060Y97133D01*
X464066Y97211D01*
X464075Y97287D01*
X464089Y97364D01*
X464106Y97439D01*
X464127Y97513D01*
X464152Y97587D01*
X464180Y97659D01*
X464212Y97729D01*
X464247Y97798D01*
X464286Y97865D01*
X464328Y97930D01*
X464373Y97993D01*
X464421Y98054D01*
X464472Y98112D01*
X464526Y98167D01*
X464583Y98220D01*
X464642Y98269D01*
X464704Y98316D01*
X464768Y98360D01*
X464834Y98400D01*
X464902Y98437D01*
X464972Y98471D01*
X465043Y98501D01*
X465116Y98527D01*
X465190Y98550D01*
X465265Y98569D01*
X465340Y98584D01*
X465417Y98596D01*
X465494Y98604D01*
X465571Y98608D01*
X465649Y98608D01*
X465726Y98604D01*
X465803Y98596D01*
X465880Y98584D01*
X465955Y98569D01*
X466030Y98550D01*
X466104Y98527D01*
X466177Y98501D01*
X466248Y98471D01*
X466318Y98437D01*
X466386Y98400D01*
X466452Y98360D01*
X466516Y98316D01*
X466578Y98269D01*
X466637Y98220D01*
X466694Y98167D01*
X466748Y98112D01*
X466799Y98054D01*
X466847Y97993D01*
X466892Y97930D01*
X466934Y97865D01*
X466973Y97798D01*
X467008Y97729D01*
X467040Y97659D01*
X467068Y97587D01*
X467093Y97513D01*
X467114Y97439D01*
X467131Y97364D01*
X467145Y97287D01*
X467154Y97211D01*
X467160Y97133D01*
X467162Y97056D01*
X467162Y95504D01*
X467162Y97367D02*
X469646Y98608D01*
X467162Y102196D02*
X467162Y104059D01*
X467163Y102196D02*
X467161Y102126D01*
X467155Y102057D01*
X467145Y101988D01*
X467132Y101920D01*
X467114Y101852D01*
X467093Y101786D01*
X467068Y101721D01*
X467040Y101657D01*
X467008Y101595D01*
X466973Y101535D01*
X466934Y101477D01*
X466892Y101422D01*
X466847Y101368D01*
X466799Y101318D01*
X466749Y101270D01*
X466695Y101225D01*
X466640Y101183D01*
X466582Y101144D01*
X466522Y101109D01*
X466460Y101077D01*
X466396Y101049D01*
X466331Y101024D01*
X466265Y101003D01*
X466197Y100985D01*
X466129Y100972D01*
X466060Y100962D01*
X465991Y100956D01*
X465921Y100954D01*
X465610Y100954D01*
X465610Y100955D02*
X465533Y100957D01*
X465455Y100963D01*
X465379Y100972D01*
X465302Y100986D01*
X465227Y101003D01*
X465153Y101024D01*
X465079Y101049D01*
X465007Y101077D01*
X464937Y101109D01*
X464868Y101144D01*
X464801Y101183D01*
X464736Y101225D01*
X464673Y101270D01*
X464612Y101318D01*
X464554Y101369D01*
X464499Y101423D01*
X464446Y101480D01*
X464397Y101539D01*
X464350Y101601D01*
X464306Y101665D01*
X464266Y101731D01*
X464229Y101799D01*
X464195Y101869D01*
X464165Y101940D01*
X464139Y102013D01*
X464116Y102087D01*
X464097Y102162D01*
X464082Y102237D01*
X464070Y102314D01*
X464062Y102391D01*
X464058Y102468D01*
X464058Y102546D01*
X464062Y102623D01*
X464070Y102700D01*
X464082Y102777D01*
X464097Y102852D01*
X464116Y102927D01*
X464139Y103001D01*
X464165Y103074D01*
X464195Y103145D01*
X464229Y103215D01*
X464266Y103283D01*
X464306Y103349D01*
X464350Y103413D01*
X464397Y103475D01*
X464446Y103534D01*
X464499Y103591D01*
X464554Y103645D01*
X464612Y103696D01*
X464673Y103744D01*
X464736Y103789D01*
X464801Y103831D01*
X464868Y103870D01*
X464937Y103905D01*
X465007Y103937D01*
X465079Y103965D01*
X465153Y103990D01*
X465227Y104011D01*
X465302Y104028D01*
X465379Y104042D01*
X465455Y104051D01*
X465533Y104057D01*
X465610Y104059D01*
X467162Y104059D01*
X467260Y104057D01*
X467357Y104051D01*
X467454Y104042D01*
X467551Y104028D01*
X467647Y104011D01*
X467742Y103990D01*
X467836Y103966D01*
X467930Y103937D01*
X468022Y103905D01*
X468113Y103870D01*
X468202Y103831D01*
X468290Y103788D01*
X468376Y103742D01*
X468460Y103693D01*
X468542Y103640D01*
X468622Y103585D01*
X468700Y103526D01*
X468775Y103464D01*
X468848Y103399D01*
X468918Y103331D01*
X468986Y103261D01*
X469051Y103188D01*
X469113Y103113D01*
X469172Y103035D01*
X469227Y102955D01*
X469280Y102873D01*
X469329Y102789D01*
X469375Y102703D01*
X469418Y102615D01*
X469457Y102526D01*
X469492Y102435D01*
X469524Y102343D01*
X469553Y102249D01*
X469577Y102155D01*
X469598Y102060D01*
X469615Y101964D01*
X469629Y101867D01*
X469638Y101770D01*
X469644Y101672D01*
X469646Y101575D01*
D11*
X609570Y268525D02*
X609570Y326025D01*
X510570Y326025D01*
X510570Y268525D01*
X609570Y268525D01*
X534070Y269100D02*
X534070Y274100D01*
X585070Y274100D02*
X585070Y269100D01*
D10*
X548382Y303958D02*
X548382Y309546D01*
X549934Y309546D01*
X550011Y309544D01*
X550089Y309538D01*
X550165Y309529D01*
X550242Y309515D01*
X550317Y309498D01*
X550391Y309477D01*
X550465Y309452D01*
X550537Y309424D01*
X550607Y309392D01*
X550676Y309357D01*
X550743Y309318D01*
X550808Y309276D01*
X550871Y309231D01*
X550932Y309183D01*
X550990Y309132D01*
X551045Y309078D01*
X551098Y309021D01*
X551147Y308962D01*
X551194Y308900D01*
X551238Y308836D01*
X551278Y308770D01*
X551315Y308702D01*
X551349Y308632D01*
X551379Y308561D01*
X551405Y308488D01*
X551428Y308414D01*
X551447Y308339D01*
X551462Y308264D01*
X551474Y308187D01*
X551482Y308110D01*
X551486Y308033D01*
X551486Y307955D01*
X551482Y307878D01*
X551474Y307801D01*
X551462Y307724D01*
X551447Y307649D01*
X551428Y307574D01*
X551405Y307500D01*
X551379Y307427D01*
X551349Y307356D01*
X551315Y307286D01*
X551278Y307218D01*
X551238Y307152D01*
X551194Y307088D01*
X551147Y307026D01*
X551098Y306967D01*
X551045Y306910D01*
X550990Y306856D01*
X550932Y306805D01*
X550871Y306757D01*
X550808Y306712D01*
X550743Y306670D01*
X550676Y306631D01*
X550607Y306596D01*
X550537Y306564D01*
X550465Y306536D01*
X550391Y306511D01*
X550317Y306490D01*
X550242Y306473D01*
X550165Y306459D01*
X550089Y306450D01*
X550011Y306444D01*
X549934Y306442D01*
X548382Y306442D01*
X553602Y305510D02*
X553602Y307994D01*
X553604Y308071D01*
X553610Y308149D01*
X553619Y308225D01*
X553633Y308302D01*
X553650Y308377D01*
X553671Y308451D01*
X553696Y308525D01*
X553724Y308597D01*
X553756Y308667D01*
X553791Y308736D01*
X553830Y308803D01*
X553872Y308868D01*
X553917Y308931D01*
X553965Y308992D01*
X554016Y309050D01*
X554070Y309105D01*
X554127Y309158D01*
X554186Y309207D01*
X554248Y309254D01*
X554312Y309298D01*
X554378Y309338D01*
X554446Y309375D01*
X554516Y309409D01*
X554587Y309439D01*
X554660Y309465D01*
X554734Y309488D01*
X554809Y309507D01*
X554884Y309522D01*
X554961Y309534D01*
X555038Y309542D01*
X555115Y309546D01*
X555193Y309546D01*
X555270Y309542D01*
X555347Y309534D01*
X555424Y309522D01*
X555499Y309507D01*
X555574Y309488D01*
X555648Y309465D01*
X555721Y309439D01*
X555792Y309409D01*
X555862Y309375D01*
X555930Y309338D01*
X555996Y309298D01*
X556060Y309254D01*
X556122Y309207D01*
X556181Y309158D01*
X556238Y309105D01*
X556292Y309050D01*
X556343Y308992D01*
X556391Y308931D01*
X556436Y308868D01*
X556478Y308803D01*
X556517Y308736D01*
X556552Y308667D01*
X556584Y308597D01*
X556612Y308525D01*
X556637Y308451D01*
X556658Y308377D01*
X556675Y308302D01*
X556689Y308225D01*
X556698Y308149D01*
X556704Y308071D01*
X556706Y307994D01*
X556706Y305510D01*
X556704Y305433D01*
X556698Y305355D01*
X556689Y305279D01*
X556675Y305202D01*
X556658Y305127D01*
X556637Y305053D01*
X556612Y304979D01*
X556584Y304907D01*
X556552Y304837D01*
X556517Y304768D01*
X556478Y304701D01*
X556436Y304636D01*
X556391Y304573D01*
X556343Y304512D01*
X556292Y304454D01*
X556238Y304399D01*
X556181Y304346D01*
X556122Y304297D01*
X556060Y304250D01*
X555996Y304206D01*
X555930Y304166D01*
X555862Y304129D01*
X555792Y304095D01*
X555721Y304065D01*
X555648Y304039D01*
X555574Y304016D01*
X555499Y303997D01*
X555424Y303982D01*
X555347Y303970D01*
X555270Y303962D01*
X555193Y303958D01*
X555115Y303958D01*
X555038Y303962D01*
X554961Y303970D01*
X554884Y303982D01*
X554809Y303997D01*
X554734Y304016D01*
X554660Y304039D01*
X554587Y304065D01*
X554516Y304095D01*
X554446Y304129D01*
X554378Y304166D01*
X554312Y304206D01*
X554248Y304250D01*
X554186Y304297D01*
X554127Y304346D01*
X554070Y304399D01*
X554016Y304454D01*
X553965Y304512D01*
X553917Y304573D01*
X553872Y304636D01*
X553830Y304701D01*
X553791Y304768D01*
X553756Y304837D01*
X553724Y304907D01*
X553696Y304979D01*
X553671Y305053D01*
X553650Y305127D01*
X553633Y305202D01*
X553619Y305279D01*
X553610Y305355D01*
X553604Y305433D01*
X553602Y305510D01*
X558889Y309546D02*
X560130Y303958D01*
X561372Y307683D01*
X562614Y303958D01*
X563856Y309546D01*
X566232Y303958D02*
X568715Y303958D01*
X566232Y303958D02*
X566232Y309546D01*
X568715Y309546D01*
X568094Y307062D02*
X566232Y307062D01*
X571012Y309546D02*
X571012Y303958D01*
X571012Y309546D02*
X572564Y309546D01*
X572641Y309544D01*
X572719Y309538D01*
X572795Y309529D01*
X572872Y309515D01*
X572947Y309498D01*
X573021Y309477D01*
X573095Y309452D01*
X573167Y309424D01*
X573237Y309392D01*
X573306Y309357D01*
X573373Y309318D01*
X573438Y309276D01*
X573501Y309231D01*
X573562Y309183D01*
X573620Y309132D01*
X573675Y309078D01*
X573728Y309021D01*
X573777Y308962D01*
X573824Y308900D01*
X573868Y308836D01*
X573908Y308770D01*
X573945Y308702D01*
X573979Y308632D01*
X574009Y308561D01*
X574035Y308488D01*
X574058Y308414D01*
X574077Y308339D01*
X574092Y308264D01*
X574104Y308187D01*
X574112Y308110D01*
X574116Y308033D01*
X574116Y307955D01*
X574112Y307878D01*
X574104Y307801D01*
X574092Y307724D01*
X574077Y307649D01*
X574058Y307574D01*
X574035Y307500D01*
X574009Y307427D01*
X573979Y307356D01*
X573945Y307286D01*
X573908Y307218D01*
X573868Y307152D01*
X573824Y307088D01*
X573777Y307026D01*
X573728Y306967D01*
X573675Y306910D01*
X573620Y306856D01*
X573562Y306805D01*
X573501Y306757D01*
X573438Y306712D01*
X573373Y306670D01*
X573306Y306631D01*
X573237Y306596D01*
X573167Y306564D01*
X573095Y306536D01*
X573021Y306511D01*
X572947Y306490D01*
X572872Y306473D01*
X572795Y306459D01*
X572719Y306450D01*
X572641Y306444D01*
X572564Y306442D01*
X571012Y306442D01*
X572874Y306442D02*
X574116Y303958D01*
D14*
X673920Y83100D02*
X673920Y70100D01*
X673920Y6100D01*
X673920Y-6900D01*
X638920Y-1900D02*
X638920Y83100D01*
X638920Y-1900D02*
X638920Y-6900D01*
X638920Y-1900D02*
X553920Y-1900D01*
X553920Y-6900D01*
X673920Y-6900D01*
X553920Y-1900D02*
X538920Y-1900D01*
X533920Y-1900D01*
X663920Y6100D02*
X673920Y6100D01*
X653920Y6100D02*
X643920Y6100D01*
X633920Y6100D02*
X623920Y6100D01*
X613920Y6100D02*
X603920Y6100D01*
X593920Y6100D02*
X583920Y6100D01*
X663920Y70100D02*
X673920Y70100D01*
X653920Y70100D02*
X643920Y70100D01*
X633920Y70100D02*
X623920Y70100D01*
X613920Y70100D02*
X603920Y70100D01*
X593920Y70100D02*
X583920Y70100D01*
X583920Y55433D01*
X583920Y45433D02*
X583920Y30767D01*
X583920Y20767D02*
X583920Y6100D01*
X653920Y28100D02*
X654164Y28103D01*
X654407Y28112D01*
X654650Y28127D01*
X654893Y28147D01*
X655135Y28174D01*
X655376Y28207D01*
X655616Y28245D01*
X655856Y28289D01*
X656094Y28339D01*
X656331Y28395D01*
X656567Y28457D01*
X656801Y28524D01*
X657033Y28597D01*
X657264Y28676D01*
X657492Y28760D01*
X657719Y28850D01*
X657943Y28945D01*
X658165Y29046D01*
X658384Y29152D01*
X658600Y29263D01*
X658814Y29380D01*
X659025Y29501D01*
X659233Y29628D01*
X659438Y29760D01*
X659639Y29897D01*
X659837Y30039D01*
X660032Y30185D01*
X660223Y30336D01*
X660410Y30492D01*
X660593Y30652D01*
X660773Y30817D01*
X660948Y30986D01*
X661119Y31159D01*
X661286Y31337D01*
X661448Y31518D01*
X661606Y31703D01*
X661760Y31892D01*
X661909Y32085D01*
X662053Y32281D01*
X662192Y32481D01*
X662327Y32684D01*
X662456Y32891D01*
X662580Y33100D01*
X662699Y33312D01*
X662813Y33528D01*
X662922Y33745D01*
X663025Y33966D01*
X663123Y34189D01*
X663216Y34414D01*
X663303Y34642D01*
X663384Y34871D01*
X663460Y35103D01*
X663530Y35336D01*
X663595Y35571D01*
X663654Y35807D01*
X663707Y36045D01*
X663754Y36284D01*
X663795Y36524D01*
X663830Y36765D01*
X663860Y37006D01*
X663884Y37249D01*
X663901Y37492D01*
X663913Y37735D01*
X663919Y37978D01*
X663919Y38222D01*
X663913Y38465D01*
X663901Y38708D01*
X663884Y38951D01*
X663860Y39194D01*
X663830Y39435D01*
X663795Y39676D01*
X663754Y39916D01*
X663707Y40155D01*
X663654Y40393D01*
X663595Y40629D01*
X663530Y40864D01*
X663460Y41097D01*
X663384Y41329D01*
X663303Y41558D01*
X663216Y41786D01*
X663123Y42011D01*
X663025Y42234D01*
X662922Y42455D01*
X662813Y42672D01*
X662699Y42888D01*
X662580Y43100D01*
X662456Y43309D01*
X662327Y43516D01*
X662192Y43719D01*
X662053Y43919D01*
X661909Y44115D01*
X661760Y44308D01*
X661606Y44497D01*
X661448Y44682D01*
X661286Y44863D01*
X661119Y45041D01*
X660948Y45214D01*
X660773Y45383D01*
X660593Y45548D01*
X660410Y45708D01*
X660223Y45864D01*
X660032Y46015D01*
X659837Y46161D01*
X659639Y46303D01*
X659438Y46440D01*
X659233Y46572D01*
X659025Y46699D01*
X658814Y46820D01*
X658600Y46937D01*
X658384Y47048D01*
X658165Y47154D01*
X657943Y47255D01*
X657719Y47350D01*
X657492Y47440D01*
X657264Y47524D01*
X657033Y47603D01*
X656801Y47676D01*
X656567Y47743D01*
X656331Y47805D01*
X656094Y47861D01*
X655856Y47911D01*
X655616Y47955D01*
X655376Y47993D01*
X655135Y48026D01*
X654893Y48053D01*
X654650Y48073D01*
X654407Y48088D01*
X654164Y48097D01*
X653920Y48100D01*
X673920Y83100D02*
X592020Y83100D01*
X538920Y78100D02*
X533920Y78100D01*
X533920Y61600D01*
X533920Y14600D02*
X533920Y-1900D01*
X553920Y-1900D02*
X553920Y65400D01*
X538920Y14600D02*
X538920Y-1900D01*
X538920Y61600D02*
X538920Y78100D01*
D17*
X519858Y76764D02*
X519858Y85852D01*
X519857Y76764D02*
X519855Y76665D01*
X519849Y76565D01*
X519840Y76466D01*
X519827Y76368D01*
X519810Y76270D01*
X519789Y76172D01*
X519764Y76076D01*
X519736Y75981D01*
X519704Y75887D01*
X519669Y75794D01*
X519630Y75702D01*
X519587Y75612D01*
X519542Y75524D01*
X519492Y75437D01*
X519440Y75353D01*
X519384Y75270D01*
X519326Y75190D01*
X519264Y75112D01*
X519199Y75037D01*
X519131Y74964D01*
X519061Y74894D01*
X518988Y74826D01*
X518913Y74761D01*
X518835Y74699D01*
X518755Y74641D01*
X518672Y74585D01*
X518588Y74533D01*
X518501Y74483D01*
X518413Y74438D01*
X518323Y74395D01*
X518231Y74356D01*
X518138Y74321D01*
X518044Y74289D01*
X517949Y74261D01*
X517853Y74236D01*
X517755Y74215D01*
X517657Y74198D01*
X517559Y74185D01*
X517460Y74176D01*
X517360Y74170D01*
X517261Y74168D01*
X515963Y74168D01*
X525131Y76764D02*
X527727Y85852D01*
X525131Y76764D02*
X531622Y76764D01*
X529675Y79361D02*
X529675Y74168D01*
M02*
