G04 EAGLE Gerber RS-274X export*
G75*
%MOMM*%
%FSLAX34Y34*%
%LPD*%
%INSolderpaste Top*%
%IPPOS*%
%AMOC8*
5,1,8,0,0,1.08239X$1,22.5*%
G01*
%ADD10R,1.398400X1.198400*%
%ADD11R,1.498400X2.598400*%
%ADD12R,1.118400X0.808400*%
%ADD13C,0.148400*%
%ADD14R,3.298400X1.798400*%
%ADD15R,2.598400X1.498400*%
%ADD16R,1.198400X1.398400*%
%ADD17R,0.898400X0.998400*%
%ADD18R,1.550000X1.550000*%
%ADD19R,0.758400X0.168400*%
%ADD20R,0.168400X0.758400*%
%ADD21R,0.698400X0.198400*%
%ADD22R,0.548400X0.198400*%
%ADD23R,0.848400X0.298400*%
%ADD24R,0.498400X2.098400*%
%ADD25R,1.098400X1.098400*%
%ADD26R,1.398400X1.498400*%
%ADD27R,1.020000X0.560000*%
%ADD28R,0.178400X0.638400*%
%ADD29R,1.798400X3.298400*%
%ADD30C,0.049837*%
%ADD31R,1.398400X0.298400*%
%ADD32C,0.077519*%
%ADD33R,0.848400X0.848400*%
%ADD34C,0.390894*%
%ADD35C,0.195359*%
%ADD36R,0.457200X1.879600*%
%ADD37R,0.298400X1.248400*%
%ADD38R,1.998400X1.498400*%
%ADD39R,1.798400X1.798400*%
%ADD40R,1.698400X1.798400*%
%ADD41R,0.448400X0.498400*%
%ADD42R,0.598400X0.898400*%
%ADD43R,1.298400X0.898400*%
%ADD44R,0.898400X3.398400*%
%ADD45R,1.398400X3.298400*%
%ADD46R,2.531044X2.533469*%
%ADD47C,0.364494*%


D10*
X197693Y357480D03*
X197693Y338480D03*
X194375Y495275D03*
X194375Y476275D03*
X232826Y357480D03*
X232826Y338480D03*
X303530Y476275D03*
X303530Y495275D03*
X147320Y642010D03*
X147320Y661010D03*
X139617Y724434D03*
X139617Y743434D03*
X64770Y724434D03*
X64770Y743434D03*
D11*
X151240Y603250D03*
X123240Y603250D03*
D10*
X248920Y403250D03*
X248920Y422250D03*
X128409Y495275D03*
X128409Y476275D03*
D12*
X229910Y502125D03*
X229910Y469425D03*
X267995Y469425D03*
X267995Y502125D03*
X270510Y331630D03*
X270510Y364330D03*
D13*
X187700Y421480D02*
X176700Y421480D01*
X176700Y416480D02*
X187700Y416480D01*
X187700Y411480D02*
X176700Y411480D01*
X176700Y406480D02*
X187700Y406480D01*
X187700Y401480D02*
X176700Y401480D01*
X218700Y421480D02*
X229700Y421480D01*
X229700Y416480D02*
X218700Y416480D01*
X218700Y411480D02*
X229700Y411480D01*
X229700Y406480D02*
X218700Y406480D01*
X218700Y401480D02*
X229700Y401480D01*
D14*
X102194Y705670D03*
X102194Y744670D03*
D15*
X309880Y387380D03*
X309880Y359380D03*
X309880Y420340D03*
X309880Y448340D03*
D16*
X288900Y675640D03*
X269900Y675640D03*
D10*
X200632Y724434D03*
X200632Y743434D03*
X231140Y743434D03*
X231140Y724434D03*
X161392Y476275D03*
X161392Y495275D03*
D17*
X119103Y417513D03*
X136103Y417513D03*
D10*
X162560Y338480D03*
X162560Y357480D03*
D16*
X137103Y385445D03*
X118103Y385445D03*
D18*
X208280Y650240D03*
D19*
X227630Y637740D03*
X227630Y642740D03*
X227630Y647740D03*
X227630Y652740D03*
X227630Y657740D03*
X227630Y662740D03*
X188930Y662740D03*
X188930Y657740D03*
X188930Y652740D03*
X188930Y647740D03*
X188930Y642740D03*
X188930Y637740D03*
D20*
X195780Y630890D03*
X200780Y630890D03*
X205780Y630890D03*
X210780Y630890D03*
X215780Y630890D03*
X220780Y630890D03*
X220780Y669590D03*
X215780Y669590D03*
X210780Y669590D03*
X205780Y669590D03*
X200780Y669590D03*
X195780Y669590D03*
D21*
X150950Y283060D03*
D22*
X180460Y280060D03*
D21*
X150950Y277060D03*
D22*
X180460Y274060D03*
D21*
X150950Y271060D03*
D22*
X180460Y268060D03*
D21*
X150950Y265060D03*
D22*
X180460Y262060D03*
D21*
X150950Y259060D03*
D22*
X180460Y256060D03*
D21*
X150950Y253060D03*
D22*
X180460Y250060D03*
D21*
X150950Y247060D03*
D22*
X180460Y244060D03*
D21*
X150950Y241060D03*
D22*
X180460Y238060D03*
D21*
X150950Y235060D03*
D22*
X180460Y232060D03*
D21*
X150950Y229060D03*
D22*
X180460Y226060D03*
D21*
X150950Y223060D03*
D22*
X180460Y220060D03*
D21*
X150950Y217060D03*
D22*
X180460Y214060D03*
D21*
X150950Y211060D03*
D22*
X180460Y208060D03*
D21*
X150950Y205060D03*
D22*
X180460Y202060D03*
D21*
X150950Y199060D03*
D22*
X180460Y196060D03*
D21*
X150950Y193060D03*
D22*
X180460Y190060D03*
D21*
X150950Y187060D03*
D22*
X180460Y184060D03*
D21*
X150950Y181060D03*
D22*
X180460Y178060D03*
D21*
X150950Y175060D03*
D22*
X180460Y172060D03*
D21*
X150950Y169060D03*
D23*
X153700Y290060D03*
X153700Y162060D03*
D24*
X158750Y81880D03*
X158750Y29880D03*
X171450Y81880D03*
X146050Y81880D03*
X133350Y81880D03*
X171450Y29880D03*
X146050Y29880D03*
X133350Y29880D03*
D10*
X99060Y80670D03*
X99060Y99670D03*
D25*
X130590Y130650D03*
X130590Y110650D03*
D26*
X163090Y120650D03*
D16*
X282550Y730250D03*
X263550Y730250D03*
D10*
X170125Y724434D03*
X170125Y743434D03*
D27*
X30480Y497840D03*
D28*
X22980Y487990D03*
X27980Y487990D03*
X32980Y487990D03*
X37980Y487990D03*
X37980Y507690D03*
X32980Y507690D03*
X27980Y507690D03*
X22980Y507690D03*
D29*
X27490Y535940D03*
X66490Y535940D03*
D16*
X64541Y595630D03*
X83541Y595630D03*
D10*
X60960Y495021D03*
X60960Y476021D03*
D16*
X424840Y486410D03*
X443840Y486410D03*
X424840Y389890D03*
X443840Y389890D03*
X443840Y454660D03*
X424840Y454660D03*
X424840Y422910D03*
X443840Y422910D03*
D30*
X314513Y196553D02*
X296327Y196553D01*
X314513Y196553D02*
X314513Y192067D01*
X296327Y192067D01*
X296327Y196553D01*
X296327Y192540D02*
X314513Y192540D01*
X314513Y193013D02*
X296327Y193013D01*
X296327Y193486D02*
X314513Y193486D01*
X314513Y193959D02*
X296327Y193959D01*
X296327Y194432D02*
X314513Y194432D01*
X314513Y194905D02*
X296327Y194905D01*
X296327Y195378D02*
X314513Y195378D01*
X314513Y195851D02*
X296327Y195851D01*
X296327Y196324D02*
X314513Y196324D01*
X314513Y209253D02*
X296327Y209253D01*
X314513Y209253D02*
X314513Y204767D01*
X296327Y204767D01*
X296327Y209253D01*
X296327Y205240D02*
X314513Y205240D01*
X314513Y205713D02*
X296327Y205713D01*
X296327Y206186D02*
X314513Y206186D01*
X314513Y206659D02*
X296327Y206659D01*
X296327Y207132D02*
X314513Y207132D01*
X314513Y207605D02*
X296327Y207605D01*
X296327Y208078D02*
X314513Y208078D01*
X314513Y208551D02*
X296327Y208551D01*
X296327Y209024D02*
X314513Y209024D01*
X314513Y221953D02*
X296327Y221953D01*
X314513Y221953D02*
X314513Y217467D01*
X296327Y217467D01*
X296327Y221953D01*
X296327Y217940D02*
X314513Y217940D01*
X314513Y218413D02*
X296327Y218413D01*
X296327Y218886D02*
X314513Y218886D01*
X314513Y219359D02*
X296327Y219359D01*
X296327Y219832D02*
X314513Y219832D01*
X314513Y220305D02*
X296327Y220305D01*
X296327Y220778D02*
X314513Y220778D01*
X314513Y221251D02*
X296327Y221251D01*
X296327Y221724D02*
X314513Y221724D01*
X314513Y234653D02*
X296327Y234653D01*
X314513Y234653D02*
X314513Y230167D01*
X296327Y230167D01*
X296327Y234653D01*
X296327Y230640D02*
X314513Y230640D01*
X314513Y231113D02*
X296327Y231113D01*
X296327Y231586D02*
X314513Y231586D01*
X314513Y232059D02*
X296327Y232059D01*
X296327Y232532D02*
X314513Y232532D01*
X314513Y233005D02*
X296327Y233005D01*
X296327Y233478D02*
X314513Y233478D01*
X314513Y233951D02*
X296327Y233951D01*
X296327Y234424D02*
X314513Y234424D01*
X314513Y247353D02*
X296327Y247353D01*
X314513Y247353D02*
X314513Y242867D01*
X296327Y242867D01*
X296327Y247353D01*
X296327Y243340D02*
X314513Y243340D01*
X314513Y243813D02*
X296327Y243813D01*
X296327Y244286D02*
X314513Y244286D01*
X314513Y244759D02*
X296327Y244759D01*
X296327Y245232D02*
X314513Y245232D01*
X314513Y245705D02*
X296327Y245705D01*
X296327Y246178D02*
X314513Y246178D01*
X314513Y246651D02*
X296327Y246651D01*
X296327Y247124D02*
X314513Y247124D01*
X314513Y260053D02*
X296327Y260053D01*
X314513Y260053D02*
X314513Y255567D01*
X296327Y255567D01*
X296327Y260053D01*
X296327Y256040D02*
X314513Y256040D01*
X314513Y256513D02*
X296327Y256513D01*
X296327Y256986D02*
X314513Y256986D01*
X314513Y257459D02*
X296327Y257459D01*
X296327Y257932D02*
X314513Y257932D01*
X314513Y258405D02*
X296327Y258405D01*
X296327Y258878D02*
X314513Y258878D01*
X314513Y259351D02*
X296327Y259351D01*
X296327Y259824D02*
X314513Y259824D01*
X314513Y272753D02*
X296327Y272753D01*
X314513Y272753D02*
X314513Y268267D01*
X296327Y268267D01*
X296327Y272753D01*
X296327Y268740D02*
X314513Y268740D01*
X314513Y269213D02*
X296327Y269213D01*
X296327Y269686D02*
X314513Y269686D01*
X314513Y270159D02*
X296327Y270159D01*
X296327Y270632D02*
X314513Y270632D01*
X314513Y271105D02*
X296327Y271105D01*
X296327Y271578D02*
X314513Y271578D01*
X314513Y272051D02*
X296327Y272051D01*
X296327Y272524D02*
X314513Y272524D01*
X314513Y285453D02*
X296327Y285453D01*
X314513Y285453D02*
X314513Y280967D01*
X296327Y280967D01*
X296327Y285453D01*
X296327Y281440D02*
X314513Y281440D01*
X314513Y281913D02*
X296327Y281913D01*
X296327Y282386D02*
X314513Y282386D01*
X314513Y282859D02*
X296327Y282859D01*
X296327Y283332D02*
X314513Y283332D01*
X314513Y283805D02*
X296327Y283805D01*
X296327Y284278D02*
X314513Y284278D01*
X314513Y284751D02*
X296327Y284751D01*
X296327Y285224D02*
X314513Y285224D01*
X265013Y285453D02*
X246827Y285453D01*
X265013Y285453D02*
X265013Y280967D01*
X246827Y280967D01*
X246827Y285453D01*
X246827Y281440D02*
X265013Y281440D01*
X265013Y281913D02*
X246827Y281913D01*
X246827Y282386D02*
X265013Y282386D01*
X265013Y282859D02*
X246827Y282859D01*
X246827Y283332D02*
X265013Y283332D01*
X265013Y283805D02*
X246827Y283805D01*
X246827Y284278D02*
X265013Y284278D01*
X265013Y284751D02*
X246827Y284751D01*
X246827Y285224D02*
X265013Y285224D01*
X265013Y272753D02*
X246827Y272753D01*
X265013Y272753D02*
X265013Y268267D01*
X246827Y268267D01*
X246827Y272753D01*
X246827Y268740D02*
X265013Y268740D01*
X265013Y269213D02*
X246827Y269213D01*
X246827Y269686D02*
X265013Y269686D01*
X265013Y270159D02*
X246827Y270159D01*
X246827Y270632D02*
X265013Y270632D01*
X265013Y271105D02*
X246827Y271105D01*
X246827Y271578D02*
X265013Y271578D01*
X265013Y272051D02*
X246827Y272051D01*
X246827Y272524D02*
X265013Y272524D01*
X265013Y260053D02*
X246827Y260053D01*
X265013Y260053D02*
X265013Y255567D01*
X246827Y255567D01*
X246827Y260053D01*
X246827Y256040D02*
X265013Y256040D01*
X265013Y256513D02*
X246827Y256513D01*
X246827Y256986D02*
X265013Y256986D01*
X265013Y257459D02*
X246827Y257459D01*
X246827Y257932D02*
X265013Y257932D01*
X265013Y258405D02*
X246827Y258405D01*
X246827Y258878D02*
X265013Y258878D01*
X265013Y259351D02*
X246827Y259351D01*
X246827Y259824D02*
X265013Y259824D01*
X265013Y247353D02*
X246827Y247353D01*
X265013Y247353D02*
X265013Y242867D01*
X246827Y242867D01*
X246827Y247353D01*
X246827Y243340D02*
X265013Y243340D01*
X265013Y243813D02*
X246827Y243813D01*
X246827Y244286D02*
X265013Y244286D01*
X265013Y244759D02*
X246827Y244759D01*
X246827Y245232D02*
X265013Y245232D01*
X265013Y245705D02*
X246827Y245705D01*
X246827Y246178D02*
X265013Y246178D01*
X265013Y246651D02*
X246827Y246651D01*
X246827Y247124D02*
X265013Y247124D01*
X265013Y234653D02*
X246827Y234653D01*
X265013Y234653D02*
X265013Y230167D01*
X246827Y230167D01*
X246827Y234653D01*
X246827Y230640D02*
X265013Y230640D01*
X265013Y231113D02*
X246827Y231113D01*
X246827Y231586D02*
X265013Y231586D01*
X265013Y232059D02*
X246827Y232059D01*
X246827Y232532D02*
X265013Y232532D01*
X265013Y233005D02*
X246827Y233005D01*
X246827Y233478D02*
X265013Y233478D01*
X265013Y233951D02*
X246827Y233951D01*
X246827Y234424D02*
X265013Y234424D01*
X265013Y221953D02*
X246827Y221953D01*
X265013Y221953D02*
X265013Y217467D01*
X246827Y217467D01*
X246827Y221953D01*
X246827Y217940D02*
X265013Y217940D01*
X265013Y218413D02*
X246827Y218413D01*
X246827Y218886D02*
X265013Y218886D01*
X265013Y219359D02*
X246827Y219359D01*
X246827Y219832D02*
X265013Y219832D01*
X265013Y220305D02*
X246827Y220305D01*
X246827Y220778D02*
X265013Y220778D01*
X265013Y221251D02*
X246827Y221251D01*
X246827Y221724D02*
X265013Y221724D01*
X265013Y209253D02*
X246827Y209253D01*
X265013Y209253D02*
X265013Y204767D01*
X246827Y204767D01*
X246827Y209253D01*
X246827Y205240D02*
X265013Y205240D01*
X265013Y205713D02*
X246827Y205713D01*
X246827Y206186D02*
X265013Y206186D01*
X265013Y206659D02*
X246827Y206659D01*
X246827Y207132D02*
X265013Y207132D01*
X265013Y207605D02*
X246827Y207605D01*
X246827Y208078D02*
X265013Y208078D01*
X265013Y208551D02*
X246827Y208551D01*
X246827Y209024D02*
X265013Y209024D01*
X265013Y196553D02*
X246827Y196553D01*
X265013Y196553D02*
X265013Y192067D01*
X246827Y192067D01*
X246827Y196553D01*
X246827Y192540D02*
X265013Y192540D01*
X265013Y193013D02*
X246827Y193013D01*
X246827Y193486D02*
X265013Y193486D01*
X265013Y193959D02*
X246827Y193959D01*
X246827Y194432D02*
X265013Y194432D01*
X265013Y194905D02*
X246827Y194905D01*
X246827Y195378D02*
X265013Y195378D01*
X265013Y195851D02*
X246827Y195851D01*
X246827Y196324D02*
X265013Y196324D01*
D31*
X508690Y511470D03*
X508690Y517970D03*
X508690Y524470D03*
X508690Y530970D03*
X508690Y537470D03*
X508690Y543970D03*
X508690Y550470D03*
X508690Y556970D03*
X508690Y563470D03*
X508690Y569970D03*
X508690Y576470D03*
X508690Y582970D03*
X508690Y589470D03*
X508690Y595970D03*
X436190Y595970D03*
X436190Y589470D03*
X436190Y582970D03*
X436190Y576470D03*
X436190Y569970D03*
X436190Y563470D03*
X436190Y556970D03*
X436190Y550470D03*
X436190Y543970D03*
X436190Y537470D03*
X436190Y530970D03*
X436190Y524470D03*
X436190Y517970D03*
X436190Y511470D03*
D10*
X529590Y560730D03*
X529590Y579730D03*
X512826Y625500D03*
X512826Y644500D03*
D32*
X509507Y433522D02*
X517917Y433522D01*
X509507Y433522D02*
X509507Y435332D01*
X517917Y435332D01*
X517917Y433522D01*
X517917Y434258D02*
X509507Y434258D01*
X509507Y434994D02*
X517917Y434994D01*
X517917Y427022D02*
X509507Y427022D01*
X509507Y428832D01*
X517917Y428832D01*
X517917Y427022D01*
X517917Y427758D02*
X509507Y427758D01*
X509507Y428494D02*
X517917Y428494D01*
X517917Y420522D02*
X509507Y420522D01*
X509507Y422332D01*
X517917Y422332D01*
X517917Y420522D01*
X517917Y421258D02*
X509507Y421258D01*
X509507Y421994D02*
X517917Y421994D01*
X528607Y422332D02*
X537017Y422332D01*
X537017Y420522D01*
X528607Y420522D01*
X528607Y422332D01*
X528607Y421258D02*
X537017Y421258D01*
X537017Y421994D02*
X528607Y421994D01*
X528607Y428832D02*
X537017Y428832D01*
X537017Y427022D01*
X528607Y427022D01*
X528607Y428832D01*
X528607Y427758D02*
X537017Y427758D01*
X537017Y428494D02*
X528607Y428494D01*
X528607Y435332D02*
X537017Y435332D01*
X537017Y433522D01*
X528607Y433522D01*
X528607Y435332D01*
X528607Y434258D02*
X537017Y434258D01*
X537017Y434994D02*
X528607Y434994D01*
D16*
X532587Y466090D03*
X513587Y466090D03*
X512317Y389764D03*
X531317Y389764D03*
D33*
X391503Y530345D03*
X391503Y545345D03*
D10*
X391503Y576605D03*
X391503Y595605D03*
D33*
X350520Y530345D03*
X350520Y545345D03*
D10*
X351790Y576605D03*
X351790Y595605D03*
D34*
X358208Y620092D02*
X358208Y627768D01*
X358208Y620092D02*
X353232Y620092D01*
X353232Y627768D01*
X358208Y627768D01*
X358208Y623806D02*
X353232Y623806D01*
X353232Y627520D02*
X358208Y627520D01*
D35*
X374185Y628745D02*
X374185Y619115D01*
X371255Y619115D01*
X371255Y628745D01*
X374185Y628745D01*
X374185Y620971D02*
X371255Y620971D01*
X371255Y622827D02*
X374185Y622827D01*
X374185Y624683D02*
X371255Y624683D01*
X371255Y626539D02*
X374185Y626539D01*
X374185Y628395D02*
X371255Y628395D01*
X374185Y638715D02*
X374185Y648345D01*
X374185Y638715D02*
X371255Y638715D01*
X371255Y648345D01*
X374185Y648345D01*
X374185Y640571D02*
X371255Y640571D01*
X371255Y642427D02*
X374185Y642427D01*
X374185Y644283D02*
X371255Y644283D01*
X371255Y646139D02*
X374185Y646139D01*
X374185Y647995D02*
X371255Y647995D01*
X355185Y648345D02*
X355185Y638715D01*
X352255Y638715D01*
X352255Y648345D01*
X355185Y648345D01*
X355185Y640571D02*
X352255Y640571D01*
X352255Y642427D02*
X355185Y642427D01*
X355185Y644283D02*
X352255Y644283D01*
X352255Y646139D02*
X355185Y646139D01*
X355185Y647995D02*
X352255Y647995D01*
D33*
X146512Y568325D03*
X131512Y568325D03*
D16*
X129512Y535686D03*
X148512Y535686D03*
D33*
X201704Y567055D03*
X186704Y567055D03*
D16*
X184704Y534416D03*
X203704Y534416D03*
D36*
X228600Y65532D03*
X241300Y65532D03*
X254000Y65532D03*
X266700Y65532D03*
X266700Y114808D03*
X254000Y114808D03*
X241300Y114808D03*
X228600Y114808D03*
X72390Y80518D03*
X59690Y80518D03*
X46990Y80518D03*
X34290Y80518D03*
X34290Y31242D03*
X46990Y31242D03*
X59690Y31242D03*
X72390Y31242D03*
D10*
X101918Y356877D03*
X101918Y337877D03*
D16*
X277520Y38735D03*
X296520Y38735D03*
X37490Y146050D03*
X56490Y146050D03*
X118167Y447040D03*
X137167Y447040D03*
D10*
X132080Y356877D03*
X132080Y337877D03*
D16*
X249530Y38735D03*
X230530Y38735D03*
X37490Y120015D03*
X56490Y120015D03*
D10*
X95425Y476275D03*
X95425Y495275D03*
D16*
X269900Y639128D03*
X288900Y639128D03*
D10*
X546100Y624230D03*
X546100Y643230D03*
X474472Y625500D03*
X474472Y644500D03*
D37*
X478790Y717550D03*
X485290Y717550D03*
X472290Y717550D03*
X491790Y717550D03*
X465790Y717550D03*
D38*
X509790Y718800D03*
X447790Y718800D03*
D39*
X490790Y744300D03*
X466790Y744300D03*
D40*
X516790Y744300D03*
X440790Y744300D03*
D41*
X265070Y710080D03*
X265070Y697080D03*
X283570Y703580D03*
D42*
X382355Y497360D03*
X345355Y497360D03*
X382355Y437360D03*
X345355Y437360D03*
X382355Y402110D03*
X345355Y402110D03*
X382355Y342110D03*
X345355Y342110D03*
D41*
X69490Y448460D03*
X69490Y435460D03*
X87990Y441960D03*
D43*
X49960Y392430D03*
X71960Y401930D03*
X71960Y382930D03*
D10*
X44450Y431190D03*
X44450Y450190D03*
D44*
X346870Y681990D03*
X366870Y681990D03*
D45*
X323370Y739490D03*
X390370Y739490D03*
D10*
X99060Y642010D03*
X99060Y661010D03*
D46*
X488565Y204317D03*
D47*
X564150Y273680D02*
X564150Y283520D01*
X568790Y283520D01*
X568790Y273680D01*
X564150Y273680D01*
X564150Y277143D02*
X568790Y277143D01*
X568790Y280606D02*
X564150Y280606D01*
X551450Y283520D02*
X551450Y273680D01*
X551450Y283520D02*
X556090Y283520D01*
X556090Y273680D01*
X551450Y273680D01*
X551450Y277143D02*
X556090Y277143D01*
X556090Y280606D02*
X551450Y280606D01*
X538750Y283520D02*
X538750Y273680D01*
X538750Y283520D02*
X543390Y283520D01*
X543390Y273680D01*
X538750Y273680D01*
X538750Y277143D02*
X543390Y277143D01*
X543390Y280606D02*
X538750Y280606D01*
X526050Y283520D02*
X526050Y273680D01*
X526050Y283520D02*
X530690Y283520D01*
X530690Y273680D01*
X526050Y273680D01*
X526050Y277143D02*
X530690Y277143D01*
X530690Y280606D02*
X526050Y280606D01*
X513350Y283520D02*
X513350Y273680D01*
X513350Y283520D02*
X517990Y283520D01*
X517990Y273680D01*
X513350Y273680D01*
X513350Y277143D02*
X517990Y277143D01*
X517990Y280606D02*
X513350Y280606D01*
X500650Y283520D02*
X500650Y273680D01*
X500650Y283520D02*
X505290Y283520D01*
X505290Y273680D01*
X500650Y273680D01*
X500650Y277143D02*
X505290Y277143D01*
X505290Y280606D02*
X500650Y280606D01*
X487950Y283520D02*
X487950Y273680D01*
X487950Y283520D02*
X492590Y283520D01*
X492590Y273680D01*
X487950Y273680D01*
X487950Y277143D02*
X492590Y277143D01*
X492590Y280606D02*
X487950Y280606D01*
X475250Y283520D02*
X475250Y273680D01*
X475250Y283520D02*
X479890Y283520D01*
X479890Y273680D01*
X475250Y273680D01*
X475250Y277143D02*
X479890Y277143D01*
X479890Y280606D02*
X475250Y280606D01*
X462550Y283520D02*
X462550Y273680D01*
X462550Y283520D02*
X467190Y283520D01*
X467190Y273680D01*
X462550Y273680D01*
X462550Y277143D02*
X467190Y277143D01*
X467190Y280606D02*
X462550Y280606D01*
X449850Y283520D02*
X449850Y273680D01*
X449850Y283520D02*
X454490Y283520D01*
X454490Y273680D01*
X449850Y273680D01*
X449850Y277143D02*
X454490Y277143D01*
X454490Y280606D02*
X449850Y280606D01*
X437150Y283520D02*
X437150Y273680D01*
X437150Y283520D02*
X441790Y283520D01*
X441790Y273680D01*
X437150Y273680D01*
X437150Y277143D02*
X441790Y277143D01*
X441790Y280606D02*
X437150Y280606D01*
X424450Y283520D02*
X424450Y273680D01*
X424450Y283520D02*
X429090Y283520D01*
X429090Y273680D01*
X424450Y273680D01*
X424450Y277143D02*
X429090Y277143D01*
X429090Y280606D02*
X424450Y280606D01*
X411750Y283520D02*
X411750Y273680D01*
X411750Y283520D02*
X416390Y283520D01*
X416390Y273680D01*
X411750Y273680D01*
X411750Y277143D02*
X416390Y277143D01*
X416390Y280606D02*
X411750Y280606D01*
X399050Y283520D02*
X399050Y273680D01*
X399050Y283520D02*
X403690Y283520D01*
X403690Y273680D01*
X399050Y273680D01*
X399050Y277143D02*
X403690Y277143D01*
X403690Y280606D02*
X399050Y280606D01*
X386350Y283520D02*
X386350Y273680D01*
X386350Y283520D02*
X390990Y283520D01*
X390990Y273680D01*
X386350Y273680D01*
X386350Y277143D02*
X390990Y277143D01*
X390990Y280606D02*
X386350Y280606D01*
X373650Y283520D02*
X373650Y273680D01*
X373650Y283520D02*
X378290Y283520D01*
X378290Y273680D01*
X373650Y273680D01*
X373650Y277143D02*
X378290Y277143D01*
X378290Y280606D02*
X373650Y280606D01*
X360950Y283520D02*
X360950Y273680D01*
X360950Y283520D02*
X365590Y283520D01*
X365590Y273680D01*
X360950Y273680D01*
X360950Y277143D02*
X365590Y277143D01*
X365590Y280606D02*
X360950Y280606D01*
X348250Y283520D02*
X348250Y273680D01*
X348250Y283520D02*
X352890Y283520D01*
X352890Y273680D01*
X348250Y273680D01*
X348250Y277143D02*
X352890Y277143D01*
X352890Y280606D02*
X348250Y280606D01*
X335550Y283520D02*
X335550Y273680D01*
X335550Y283520D02*
X340190Y283520D01*
X340190Y273680D01*
X335550Y273680D01*
X335550Y277143D02*
X340190Y277143D01*
X340190Y280606D02*
X335550Y280606D01*
X340190Y107320D02*
X340190Y97480D01*
X335550Y97480D01*
X335550Y107320D01*
X340190Y107320D01*
X340190Y100943D02*
X335550Y100943D01*
X335550Y104406D02*
X340190Y104406D01*
X352890Y107320D02*
X352890Y97480D01*
X348250Y97480D01*
X348250Y107320D01*
X352890Y107320D01*
X352890Y100943D02*
X348250Y100943D01*
X348250Y104406D02*
X352890Y104406D01*
X365590Y107320D02*
X365590Y97480D01*
X360950Y97480D01*
X360950Y107320D01*
X365590Y107320D01*
X365590Y100943D02*
X360950Y100943D01*
X360950Y104406D02*
X365590Y104406D01*
X378290Y107320D02*
X378290Y97480D01*
X373650Y97480D01*
X373650Y107320D01*
X378290Y107320D01*
X378290Y100943D02*
X373650Y100943D01*
X373650Y104406D02*
X378290Y104406D01*
X390990Y107320D02*
X390990Y97480D01*
X386350Y97480D01*
X386350Y107320D01*
X390990Y107320D01*
X390990Y100943D02*
X386350Y100943D01*
X386350Y104406D02*
X390990Y104406D01*
X403690Y107320D02*
X403690Y97480D01*
X399050Y97480D01*
X399050Y107320D01*
X403690Y107320D01*
X403690Y100943D02*
X399050Y100943D01*
X399050Y104406D02*
X403690Y104406D01*
X416390Y107320D02*
X416390Y97480D01*
X411750Y97480D01*
X411750Y107320D01*
X416390Y107320D01*
X416390Y100943D02*
X411750Y100943D01*
X411750Y104406D02*
X416390Y104406D01*
X429090Y107320D02*
X429090Y97480D01*
X424450Y97480D01*
X424450Y107320D01*
X429090Y107320D01*
X429090Y100943D02*
X424450Y100943D01*
X424450Y104406D02*
X429090Y104406D01*
X441790Y107320D02*
X441790Y97480D01*
X437150Y97480D01*
X437150Y107320D01*
X441790Y107320D01*
X441790Y100943D02*
X437150Y100943D01*
X437150Y104406D02*
X441790Y104406D01*
X454490Y107320D02*
X454490Y97480D01*
X449850Y97480D01*
X449850Y107320D01*
X454490Y107320D01*
X454490Y100943D02*
X449850Y100943D01*
X449850Y104406D02*
X454490Y104406D01*
X467190Y107320D02*
X467190Y97480D01*
X462550Y97480D01*
X462550Y107320D01*
X467190Y107320D01*
X467190Y100943D02*
X462550Y100943D01*
X462550Y104406D02*
X467190Y104406D01*
X479890Y107320D02*
X479890Y97480D01*
X475250Y97480D01*
X475250Y107320D01*
X479890Y107320D01*
X479890Y100943D02*
X475250Y100943D01*
X475250Y104406D02*
X479890Y104406D01*
X492590Y107320D02*
X492590Y97480D01*
X487950Y97480D01*
X487950Y107320D01*
X492590Y107320D01*
X492590Y100943D02*
X487950Y100943D01*
X487950Y104406D02*
X492590Y104406D01*
X505290Y107320D02*
X505290Y97480D01*
X500650Y97480D01*
X500650Y107320D01*
X505290Y107320D01*
X505290Y100943D02*
X500650Y100943D01*
X500650Y104406D02*
X505290Y104406D01*
X517990Y107320D02*
X517990Y97480D01*
X513350Y97480D01*
X513350Y107320D01*
X517990Y107320D01*
X517990Y100943D02*
X513350Y100943D01*
X513350Y104406D02*
X517990Y104406D01*
X530690Y107320D02*
X530690Y97480D01*
X526050Y97480D01*
X526050Y107320D01*
X530690Y107320D01*
X530690Y100943D02*
X526050Y100943D01*
X526050Y104406D02*
X530690Y104406D01*
X543390Y107320D02*
X543390Y97480D01*
X538750Y97480D01*
X538750Y107320D01*
X543390Y107320D01*
X543390Y100943D02*
X538750Y100943D01*
X538750Y104406D02*
X543390Y104406D01*
X556090Y107320D02*
X556090Y97480D01*
X551450Y97480D01*
X551450Y107320D01*
X556090Y107320D01*
X556090Y100943D02*
X551450Y100943D01*
X551450Y104406D02*
X556090Y104406D01*
X568790Y107320D02*
X568790Y97480D01*
X564150Y97480D01*
X564150Y107320D01*
X568790Y107320D01*
X568790Y100943D02*
X564150Y100943D01*
X564150Y104406D02*
X568790Y104406D01*
D16*
X512470Y355600D03*
X531470Y355600D03*
X445110Y354330D03*
X426110Y354330D03*
X445110Y320040D03*
X426110Y320040D03*
D10*
X243840Y573380D03*
X243840Y554380D03*
X287020Y573380D03*
X287020Y554380D03*
M02*
