G04 EAGLE Gerber RS-274X export*
G75*
%MOMM*%
%FSLAX34Y34*%
%LPD*%
%INSoldermask Top*%
%IPPOS*%
%AMOC8*
5,1,8,0,0,1.08239X$1,22.5*%
G01*
%ADD10R,1.703200X1.503200*%
%ADD11R,1.803200X2.903200*%
%ADD12R,1.423200X1.113200*%
%ADD13C,0.453200*%
%ADD14R,3.603200X2.103200*%
%ADD15R,2.903200X1.803200*%
%ADD16R,1.503200X1.703200*%
%ADD17R,1.203200X1.303200*%
%ADD18C,0.269722*%
%ADD19R,2.653200X2.653200*%
%ADD20R,1.003200X0.503200*%
%ADD21R,0.853200X0.503200*%
%ADD22R,1.153200X0.603200*%
%ADD23R,0.803200X2.403200*%
%ADD24R,1.403200X1.403200*%
%ADD25R,1.703200X1.803200*%
%ADD26C,0.275422*%
%ADD27R,1.803200X1.103200*%
%ADD28C,0.127000*%
%ADD29R,2.103200X3.603200*%
%ADD30C,0.353406*%
%ADD31C,2.032000*%
%ADD32R,1.703200X0.603200*%
%ADD33C,0.382975*%
%ADD34R,1.153200X1.153200*%
%ADD35C,0.703987*%
%ADD36C,0.499716*%
%ADD37C,1.473200*%
%ADD38P,4.129406X8X22.500000*%
%ADD39R,0.762000X2.184400*%
%ADD40R,0.603200X1.553200*%
%ADD41R,2.303200X1.803200*%
%ADD42R,2.103200X2.103200*%
%ADD43R,2.003200X2.103200*%
%ADD44R,0.753200X0.803200*%
%ADD45R,0.903200X1.203200*%
%ADD46R,1.603200X1.203200*%
%ADD47R,1.203200X3.703200*%
%ADD48R,1.703200X3.603200*%
%ADD49C,0.668588*%
%ADD50R,4.203200X4.203200*%
%ADD51C,0.705600*%


D10*
X197693Y357480D03*
X197693Y338480D03*
X194375Y495275D03*
X194375Y476275D03*
X232826Y357480D03*
X232826Y338480D03*
X303530Y476275D03*
X303530Y495275D03*
X147320Y642010D03*
X147320Y661010D03*
X139617Y724434D03*
X139617Y743434D03*
X64770Y724434D03*
X64770Y743434D03*
D11*
X151240Y603250D03*
X123240Y603250D03*
D10*
X248920Y403250D03*
X248920Y422250D03*
X128409Y495275D03*
X128409Y476275D03*
D12*
X229910Y502125D03*
X229910Y469425D03*
X267995Y469425D03*
X267995Y502125D03*
X270510Y331630D03*
X270510Y364330D03*
D13*
X187700Y421480D02*
X176700Y421480D01*
X176700Y416480D02*
X187700Y416480D01*
X187700Y411480D02*
X176700Y411480D01*
X176700Y406480D02*
X187700Y406480D01*
X187700Y401480D02*
X176700Y401480D01*
X218700Y421480D02*
X229700Y421480D01*
X229700Y416480D02*
X218700Y416480D01*
X218700Y411480D02*
X229700Y411480D01*
X229700Y406480D02*
X218700Y406480D01*
X218700Y401480D02*
X229700Y401480D01*
D14*
X102194Y705670D03*
X102194Y744670D03*
D15*
X309880Y387380D03*
X309880Y359380D03*
X309880Y420340D03*
X309880Y448340D03*
D16*
X288900Y675640D03*
X269900Y675640D03*
D10*
X200632Y724434D03*
X200632Y743434D03*
X231140Y743434D03*
X231140Y724434D03*
X161392Y476275D03*
X161392Y495275D03*
D17*
X119103Y417513D03*
X136103Y417513D03*
D10*
X162560Y338480D03*
X162560Y357480D03*
D16*
X137103Y385445D03*
X118103Y385445D03*
D18*
X223662Y638758D02*
X231598Y638758D01*
X231598Y636722D01*
X223662Y636722D01*
X223662Y638758D01*
X223662Y643758D02*
X231598Y643758D01*
X231598Y641722D01*
X223662Y641722D01*
X223662Y643758D01*
X223662Y648758D02*
X231598Y648758D01*
X231598Y646722D01*
X223662Y646722D01*
X223662Y648758D01*
X223662Y653758D02*
X231598Y653758D01*
X231598Y651722D01*
X223662Y651722D01*
X223662Y653758D01*
X223662Y658758D02*
X231598Y658758D01*
X231598Y656722D01*
X223662Y656722D01*
X223662Y658758D01*
X223662Y663758D02*
X231598Y663758D01*
X231598Y661722D01*
X223662Y661722D01*
X223662Y663758D01*
X192898Y663758D02*
X184962Y663758D01*
X192898Y663758D02*
X192898Y661722D01*
X184962Y661722D01*
X184962Y663758D01*
X184962Y658758D02*
X192898Y658758D01*
X192898Y656722D01*
X184962Y656722D01*
X184962Y658758D01*
X184962Y653758D02*
X192898Y653758D01*
X192898Y651722D01*
X184962Y651722D01*
X184962Y653758D01*
X184962Y648758D02*
X192898Y648758D01*
X192898Y646722D01*
X184962Y646722D01*
X184962Y648758D01*
X184962Y643758D02*
X192898Y643758D01*
X192898Y641722D01*
X184962Y641722D01*
X184962Y643758D01*
X184962Y638758D02*
X192898Y638758D01*
X192898Y636722D01*
X184962Y636722D01*
X184962Y638758D01*
X196798Y634858D02*
X196798Y626922D01*
X194762Y626922D01*
X194762Y634858D01*
X196798Y634858D01*
X196798Y629484D02*
X194762Y629484D01*
X194762Y632046D02*
X196798Y632046D01*
X196798Y634608D02*
X194762Y634608D01*
X201798Y634858D02*
X201798Y626922D01*
X199762Y626922D01*
X199762Y634858D01*
X201798Y634858D01*
X201798Y629484D02*
X199762Y629484D01*
X199762Y632046D02*
X201798Y632046D01*
X201798Y634608D02*
X199762Y634608D01*
X206798Y634858D02*
X206798Y626922D01*
X204762Y626922D01*
X204762Y634858D01*
X206798Y634858D01*
X206798Y629484D02*
X204762Y629484D01*
X204762Y632046D02*
X206798Y632046D01*
X206798Y634608D02*
X204762Y634608D01*
X211798Y634858D02*
X211798Y626922D01*
X209762Y626922D01*
X209762Y634858D01*
X211798Y634858D01*
X211798Y629484D02*
X209762Y629484D01*
X209762Y632046D02*
X211798Y632046D01*
X211798Y634608D02*
X209762Y634608D01*
X216798Y634858D02*
X216798Y626922D01*
X214762Y626922D01*
X214762Y634858D01*
X216798Y634858D01*
X216798Y629484D02*
X214762Y629484D01*
X214762Y632046D02*
X216798Y632046D01*
X216798Y634608D02*
X214762Y634608D01*
X221798Y634858D02*
X221798Y626922D01*
X219762Y626922D01*
X219762Y634858D01*
X221798Y634858D01*
X221798Y629484D02*
X219762Y629484D01*
X219762Y632046D02*
X221798Y632046D01*
X221798Y634608D02*
X219762Y634608D01*
X221798Y665622D02*
X221798Y673558D01*
X221798Y665622D02*
X219762Y665622D01*
X219762Y673558D01*
X221798Y673558D01*
X221798Y668184D02*
X219762Y668184D01*
X219762Y670746D02*
X221798Y670746D01*
X221798Y673308D02*
X219762Y673308D01*
X216798Y673558D02*
X216798Y665622D01*
X214762Y665622D01*
X214762Y673558D01*
X216798Y673558D01*
X216798Y668184D02*
X214762Y668184D01*
X214762Y670746D02*
X216798Y670746D01*
X216798Y673308D02*
X214762Y673308D01*
X211798Y673558D02*
X211798Y665622D01*
X209762Y665622D01*
X209762Y673558D01*
X211798Y673558D01*
X211798Y668184D02*
X209762Y668184D01*
X209762Y670746D02*
X211798Y670746D01*
X211798Y673308D02*
X209762Y673308D01*
X206798Y673558D02*
X206798Y665622D01*
X204762Y665622D01*
X204762Y673558D01*
X206798Y673558D01*
X206798Y668184D02*
X204762Y668184D01*
X204762Y670746D02*
X206798Y670746D01*
X206798Y673308D02*
X204762Y673308D01*
X201798Y673558D02*
X201798Y665622D01*
X199762Y665622D01*
X199762Y673558D01*
X201798Y673558D01*
X201798Y668184D02*
X199762Y668184D01*
X199762Y670746D02*
X201798Y670746D01*
X201798Y673308D02*
X199762Y673308D01*
X196798Y673558D02*
X196798Y665622D01*
X194762Y665622D01*
X194762Y673558D01*
X196798Y673558D01*
X196798Y668184D02*
X194762Y668184D01*
X194762Y670746D02*
X196798Y670746D01*
X196798Y673308D02*
X194762Y673308D01*
D19*
X208280Y650240D03*
D20*
X150950Y283060D03*
D21*
X180460Y280060D03*
D20*
X150950Y277060D03*
D21*
X180460Y274060D03*
D20*
X150950Y271060D03*
D21*
X180460Y268060D03*
D20*
X150950Y265060D03*
D21*
X180460Y262060D03*
D20*
X150950Y259060D03*
D21*
X180460Y256060D03*
D20*
X150950Y253060D03*
D21*
X180460Y250060D03*
D20*
X150950Y247060D03*
D21*
X180460Y244060D03*
D20*
X150950Y241060D03*
D21*
X180460Y238060D03*
D20*
X150950Y235060D03*
D21*
X180460Y232060D03*
D20*
X150950Y229060D03*
D21*
X180460Y226060D03*
D20*
X150950Y223060D03*
D21*
X180460Y220060D03*
D20*
X150950Y217060D03*
D21*
X180460Y214060D03*
D20*
X150950Y211060D03*
D21*
X180460Y208060D03*
D20*
X150950Y205060D03*
D21*
X180460Y202060D03*
D20*
X150950Y199060D03*
D21*
X180460Y196060D03*
D20*
X150950Y193060D03*
D21*
X180460Y190060D03*
D20*
X150950Y187060D03*
D21*
X180460Y184060D03*
D20*
X150950Y181060D03*
D21*
X180460Y178060D03*
D20*
X150950Y175060D03*
D21*
X180460Y172060D03*
D20*
X150950Y169060D03*
D22*
X153700Y290060D03*
X153700Y162060D03*
D23*
X158750Y81880D03*
X158750Y29880D03*
X171450Y81880D03*
X146050Y81880D03*
X133350Y81880D03*
X171450Y29880D03*
X146050Y29880D03*
X133350Y29880D03*
D10*
X99060Y80670D03*
X99060Y99670D03*
D24*
X130590Y130650D03*
X130590Y110650D03*
D25*
X163090Y120650D03*
D16*
X282550Y730250D03*
X263550Y730250D03*
D10*
X170125Y724434D03*
X170125Y743434D03*
D26*
X24019Y491329D02*
X24019Y484651D01*
X21941Y484651D01*
X21941Y491329D01*
X24019Y491329D01*
X24019Y487267D02*
X21941Y487267D01*
X21941Y489883D02*
X24019Y489883D01*
X29019Y491329D02*
X29019Y484651D01*
X26941Y484651D01*
X26941Y491329D01*
X29019Y491329D01*
X29019Y487267D02*
X26941Y487267D01*
X26941Y489883D02*
X29019Y489883D01*
X34019Y491329D02*
X34019Y484651D01*
X31941Y484651D01*
X31941Y491329D01*
X34019Y491329D01*
X34019Y487267D02*
X31941Y487267D01*
X31941Y489883D02*
X34019Y489883D01*
X39019Y491329D02*
X39019Y484651D01*
X36941Y484651D01*
X36941Y491329D01*
X39019Y491329D01*
X39019Y487267D02*
X36941Y487267D01*
X36941Y489883D02*
X39019Y489883D01*
X39019Y504351D02*
X39019Y511029D01*
X39019Y504351D02*
X36941Y504351D01*
X36941Y511029D01*
X39019Y511029D01*
X39019Y506967D02*
X36941Y506967D01*
X36941Y509583D02*
X39019Y509583D01*
X34019Y511029D02*
X34019Y504351D01*
X31941Y504351D01*
X31941Y511029D01*
X34019Y511029D01*
X34019Y506967D02*
X31941Y506967D01*
X31941Y509583D02*
X34019Y509583D01*
X29019Y511029D02*
X29019Y504351D01*
X26941Y504351D01*
X26941Y511029D01*
X29019Y511029D01*
X29019Y506967D02*
X26941Y506967D01*
X26941Y509583D02*
X29019Y509583D01*
X24019Y511029D02*
X24019Y504351D01*
X21941Y504351D01*
X21941Y511029D01*
X24019Y511029D01*
X24019Y506967D02*
X21941Y506967D01*
X21941Y509583D02*
X24019Y509583D01*
D27*
X30480Y497840D03*
D28*
X22156Y497840D02*
X22158Y497944D01*
X22164Y498048D01*
X22174Y498152D01*
X22188Y498255D01*
X22205Y498358D01*
X22227Y498460D01*
X22253Y498561D01*
X22282Y498661D01*
X22315Y498759D01*
X22352Y498857D01*
X22393Y498953D01*
X22437Y499047D01*
X22484Y499140D01*
X22536Y499230D01*
X22590Y499319D01*
X22648Y499406D01*
X22710Y499490D01*
X22774Y499572D01*
X22841Y499651D01*
X22912Y499728D01*
X22985Y499802D01*
X23061Y499873D01*
X23140Y499941D01*
X23221Y500007D01*
X23305Y500069D01*
X23391Y500127D01*
X23479Y500183D01*
X23569Y500235D01*
X23661Y500284D01*
X23755Y500329D01*
X23851Y500370D01*
X23948Y500408D01*
X24047Y500442D01*
X24146Y500472D01*
X24247Y500499D01*
X24349Y500522D01*
X24451Y500540D01*
X24554Y500555D01*
X24658Y500566D01*
X24762Y500573D01*
X24866Y500576D01*
X24970Y500575D01*
X25074Y500570D01*
X25178Y500561D01*
X25281Y500548D01*
X25384Y500531D01*
X25486Y500511D01*
X25588Y500486D01*
X25688Y500458D01*
X25787Y500426D01*
X25885Y500390D01*
X25981Y500350D01*
X26076Y500307D01*
X26169Y500260D01*
X26260Y500209D01*
X26349Y500156D01*
X26436Y500098D01*
X26521Y500038D01*
X26604Y499974D01*
X26684Y499908D01*
X26761Y499838D01*
X26836Y499765D01*
X26908Y499690D01*
X26977Y499612D01*
X27043Y499531D01*
X27105Y499448D01*
X27165Y499363D01*
X27221Y499275D01*
X27274Y499185D01*
X27324Y499094D01*
X27370Y499000D01*
X27412Y498905D01*
X27451Y498808D01*
X27486Y498710D01*
X27517Y498611D01*
X27545Y498510D01*
X27568Y498409D01*
X27588Y498307D01*
X27604Y498204D01*
X27616Y498100D01*
X27624Y497996D01*
X27628Y497892D01*
X27628Y497788D01*
X27624Y497684D01*
X27616Y497580D01*
X27604Y497476D01*
X27588Y497373D01*
X27568Y497271D01*
X27545Y497170D01*
X27517Y497069D01*
X27486Y496970D01*
X27451Y496872D01*
X27412Y496775D01*
X27370Y496680D01*
X27324Y496586D01*
X27274Y496495D01*
X27221Y496405D01*
X27165Y496317D01*
X27105Y496232D01*
X27043Y496149D01*
X26977Y496068D01*
X26908Y495990D01*
X26836Y495915D01*
X26761Y495842D01*
X26684Y495772D01*
X26604Y495706D01*
X26521Y495642D01*
X26436Y495582D01*
X26349Y495524D01*
X26260Y495471D01*
X26169Y495420D01*
X26076Y495373D01*
X25981Y495330D01*
X25885Y495290D01*
X25787Y495254D01*
X25688Y495222D01*
X25588Y495194D01*
X25486Y495169D01*
X25384Y495149D01*
X25281Y495132D01*
X25178Y495119D01*
X25074Y495110D01*
X24970Y495105D01*
X24866Y495104D01*
X24762Y495107D01*
X24658Y495114D01*
X24554Y495125D01*
X24451Y495140D01*
X24349Y495158D01*
X24247Y495181D01*
X24146Y495208D01*
X24047Y495238D01*
X23948Y495272D01*
X23851Y495310D01*
X23755Y495351D01*
X23661Y495396D01*
X23569Y495445D01*
X23479Y495497D01*
X23391Y495553D01*
X23305Y495611D01*
X23221Y495673D01*
X23140Y495739D01*
X23061Y495807D01*
X22985Y495878D01*
X22912Y495952D01*
X22841Y496029D01*
X22774Y496108D01*
X22710Y496190D01*
X22648Y496274D01*
X22590Y496361D01*
X22536Y496450D01*
X22484Y496540D01*
X22437Y496633D01*
X22393Y496727D01*
X22352Y496823D01*
X22315Y496921D01*
X22282Y497019D01*
X22253Y497119D01*
X22227Y497220D01*
X22205Y497322D01*
X22188Y497425D01*
X22174Y497528D01*
X22164Y497632D01*
X22158Y497736D01*
X22156Y497840D01*
X33416Y497840D02*
X33418Y497943D01*
X33424Y498046D01*
X33434Y498148D01*
X33448Y498250D01*
X33466Y498351D01*
X33487Y498452D01*
X33513Y498551D01*
X33543Y498650D01*
X33576Y498747D01*
X33613Y498843D01*
X33654Y498937D01*
X33698Y499030D01*
X33746Y499121D01*
X33797Y499210D01*
X33852Y499297D01*
X33910Y499382D01*
X33972Y499465D01*
X34036Y499545D01*
X34104Y499622D01*
X34175Y499697D01*
X34248Y499769D01*
X34324Y499838D01*
X34403Y499904D01*
X34484Y499967D01*
X34568Y500027D01*
X34654Y500084D01*
X34742Y500137D01*
X34832Y500186D01*
X34924Y500233D01*
X35018Y500275D01*
X35113Y500314D01*
X35209Y500349D01*
X35307Y500381D01*
X35406Y500408D01*
X35507Y500432D01*
X35607Y500452D01*
X35709Y500468D01*
X35811Y500480D01*
X35914Y500488D01*
X36017Y500492D01*
X36119Y500492D01*
X36222Y500488D01*
X36325Y500480D01*
X36427Y500468D01*
X36529Y500452D01*
X36629Y500432D01*
X36730Y500408D01*
X36829Y500381D01*
X36927Y500349D01*
X37023Y500314D01*
X37118Y500275D01*
X37212Y500233D01*
X37304Y500186D01*
X37394Y500137D01*
X37482Y500084D01*
X37568Y500027D01*
X37652Y499967D01*
X37733Y499904D01*
X37812Y499838D01*
X37888Y499769D01*
X37961Y499697D01*
X38032Y499622D01*
X38100Y499545D01*
X38164Y499465D01*
X38226Y499382D01*
X38284Y499297D01*
X38339Y499210D01*
X38390Y499121D01*
X38438Y499030D01*
X38482Y498937D01*
X38523Y498843D01*
X38560Y498747D01*
X38593Y498650D01*
X38623Y498551D01*
X38649Y498452D01*
X38670Y498351D01*
X38688Y498250D01*
X38702Y498148D01*
X38712Y498046D01*
X38718Y497943D01*
X38720Y497840D01*
X38718Y497737D01*
X38712Y497634D01*
X38702Y497532D01*
X38688Y497430D01*
X38670Y497329D01*
X38649Y497228D01*
X38623Y497129D01*
X38593Y497030D01*
X38560Y496933D01*
X38523Y496837D01*
X38482Y496743D01*
X38438Y496650D01*
X38390Y496559D01*
X38339Y496470D01*
X38284Y496383D01*
X38226Y496298D01*
X38164Y496215D01*
X38100Y496135D01*
X38032Y496058D01*
X37961Y495983D01*
X37888Y495911D01*
X37812Y495842D01*
X37733Y495776D01*
X37652Y495713D01*
X37568Y495653D01*
X37482Y495596D01*
X37394Y495543D01*
X37304Y495494D01*
X37212Y495447D01*
X37118Y495405D01*
X37023Y495366D01*
X36927Y495331D01*
X36829Y495299D01*
X36730Y495272D01*
X36629Y495248D01*
X36529Y495228D01*
X36427Y495212D01*
X36325Y495200D01*
X36222Y495192D01*
X36119Y495188D01*
X36017Y495188D01*
X35914Y495192D01*
X35811Y495200D01*
X35709Y495212D01*
X35607Y495228D01*
X35507Y495248D01*
X35406Y495272D01*
X35307Y495299D01*
X35209Y495331D01*
X35113Y495366D01*
X35018Y495405D01*
X34924Y495447D01*
X34832Y495494D01*
X34742Y495543D01*
X34654Y495596D01*
X34568Y495653D01*
X34484Y495713D01*
X34403Y495776D01*
X34324Y495842D01*
X34248Y495911D01*
X34175Y495983D01*
X34104Y496058D01*
X34036Y496135D01*
X33972Y496215D01*
X33910Y496298D01*
X33852Y496383D01*
X33797Y496470D01*
X33746Y496559D01*
X33698Y496650D01*
X33654Y496743D01*
X33613Y496837D01*
X33576Y496933D01*
X33543Y497030D01*
X33513Y497129D01*
X33487Y497228D01*
X33466Y497329D01*
X33448Y497430D01*
X33434Y497532D01*
X33424Y497634D01*
X33418Y497737D01*
X33416Y497840D01*
D29*
X27490Y535940D03*
X66490Y535940D03*
D16*
X64541Y595630D03*
X83541Y595630D03*
D10*
X60960Y495021D03*
X60960Y476021D03*
D16*
X424840Y486410D03*
X443840Y486410D03*
X424840Y389890D03*
X443840Y389890D03*
X443840Y454660D03*
X424840Y454660D03*
X424840Y422910D03*
X443840Y422910D03*
D30*
X314519Y196559D02*
X296321Y196559D01*
X314519Y196559D02*
X314519Y192061D01*
X296321Y192061D01*
X296321Y196559D01*
X296321Y195418D02*
X314519Y195418D01*
X314519Y209259D02*
X296321Y209259D01*
X314519Y209259D02*
X314519Y204761D01*
X296321Y204761D01*
X296321Y209259D01*
X296321Y208118D02*
X314519Y208118D01*
X314519Y221959D02*
X296321Y221959D01*
X314519Y221959D02*
X314519Y217461D01*
X296321Y217461D01*
X296321Y221959D01*
X296321Y220818D02*
X314519Y220818D01*
X314519Y234659D02*
X296321Y234659D01*
X314519Y234659D02*
X314519Y230161D01*
X296321Y230161D01*
X296321Y234659D01*
X296321Y233518D02*
X314519Y233518D01*
X314519Y247359D02*
X296321Y247359D01*
X314519Y247359D02*
X314519Y242861D01*
X296321Y242861D01*
X296321Y247359D01*
X296321Y246218D02*
X314519Y246218D01*
X314519Y260059D02*
X296321Y260059D01*
X314519Y260059D02*
X314519Y255561D01*
X296321Y255561D01*
X296321Y260059D01*
X296321Y258918D02*
X314519Y258918D01*
X314519Y272759D02*
X296321Y272759D01*
X314519Y272759D02*
X314519Y268261D01*
X296321Y268261D01*
X296321Y272759D01*
X296321Y271618D02*
X314519Y271618D01*
X314519Y285459D02*
X296321Y285459D01*
X314519Y285459D02*
X314519Y280961D01*
X296321Y280961D01*
X296321Y285459D01*
X296321Y284318D02*
X314519Y284318D01*
X265019Y285459D02*
X246821Y285459D01*
X265019Y285459D02*
X265019Y280961D01*
X246821Y280961D01*
X246821Y285459D01*
X246821Y284318D02*
X265019Y284318D01*
X265019Y272759D02*
X246821Y272759D01*
X265019Y272759D02*
X265019Y268261D01*
X246821Y268261D01*
X246821Y272759D01*
X246821Y271618D02*
X265019Y271618D01*
X265019Y260059D02*
X246821Y260059D01*
X265019Y260059D02*
X265019Y255561D01*
X246821Y255561D01*
X246821Y260059D01*
X246821Y258918D02*
X265019Y258918D01*
X265019Y247359D02*
X246821Y247359D01*
X265019Y247359D02*
X265019Y242861D01*
X246821Y242861D01*
X246821Y247359D01*
X246821Y246218D02*
X265019Y246218D01*
X265019Y234659D02*
X246821Y234659D01*
X265019Y234659D02*
X265019Y230161D01*
X246821Y230161D01*
X246821Y234659D01*
X246821Y233518D02*
X265019Y233518D01*
X265019Y221959D02*
X246821Y221959D01*
X265019Y221959D02*
X265019Y217461D01*
X246821Y217461D01*
X246821Y221959D01*
X246821Y220818D02*
X265019Y220818D01*
X265019Y209259D02*
X246821Y209259D01*
X265019Y209259D02*
X265019Y204761D01*
X246821Y204761D01*
X246821Y209259D01*
X246821Y208118D02*
X265019Y208118D01*
X265019Y196559D02*
X246821Y196559D01*
X265019Y196559D02*
X265019Y192061D01*
X246821Y192061D01*
X246821Y196559D01*
X246821Y195418D02*
X265019Y195418D01*
D31*
X394970Y29845D03*
X420370Y29845D03*
X445770Y29845D03*
X369570Y29845D03*
X344170Y29845D03*
X486410Y29845D03*
X511810Y29845D03*
X537210Y29845D03*
D32*
X508690Y511470D03*
X508690Y517970D03*
X508690Y524470D03*
X508690Y530970D03*
X508690Y537470D03*
X508690Y543970D03*
X508690Y550470D03*
X508690Y556970D03*
X508690Y563470D03*
X508690Y569970D03*
X508690Y576470D03*
X508690Y582970D03*
X508690Y589470D03*
X508690Y595970D03*
X436190Y595970D03*
X436190Y589470D03*
X436190Y582970D03*
X436190Y576470D03*
X436190Y569970D03*
X436190Y563470D03*
X436190Y556970D03*
X436190Y550470D03*
X436190Y543970D03*
X436190Y537470D03*
X436190Y530970D03*
X436190Y524470D03*
X436190Y517970D03*
X436190Y511470D03*
D10*
X529590Y560730D03*
X529590Y579730D03*
X512826Y625500D03*
X512826Y644500D03*
D33*
X509511Y433526D02*
X517913Y433526D01*
X509511Y433526D02*
X509511Y435328D01*
X517913Y435328D01*
X517913Y433526D01*
X517913Y427026D02*
X509511Y427026D01*
X509511Y428828D01*
X517913Y428828D01*
X517913Y427026D01*
X517913Y420526D02*
X509511Y420526D01*
X509511Y422328D01*
X517913Y422328D01*
X517913Y420526D01*
X528611Y422328D02*
X537013Y422328D01*
X537013Y420526D01*
X528611Y420526D01*
X528611Y422328D01*
X528611Y428828D02*
X537013Y428828D01*
X537013Y427026D01*
X528611Y427026D01*
X528611Y428828D01*
X528611Y435328D02*
X537013Y435328D01*
X537013Y433526D01*
X528611Y433526D01*
X528611Y435328D01*
D16*
X532587Y466090D03*
X513587Y466090D03*
X512317Y389764D03*
X531317Y389764D03*
D34*
X391503Y530345D03*
X391503Y545345D03*
D10*
X391503Y576605D03*
X391503Y595605D03*
D34*
X350520Y530345D03*
X350520Y545345D03*
D10*
X351790Y576605D03*
X351790Y595605D03*
D35*
X358166Y620134D02*
X358166Y627726D01*
X358166Y620134D02*
X353274Y620134D01*
X353274Y627726D01*
X358166Y627726D01*
X358166Y626822D02*
X353274Y626822D01*
D36*
X374188Y628748D02*
X374188Y619112D01*
X371252Y619112D01*
X371252Y628748D01*
X374188Y628748D01*
X374188Y623859D02*
X371252Y623859D01*
X371252Y628606D02*
X374188Y628606D01*
X374188Y638712D02*
X374188Y648348D01*
X374188Y638712D02*
X371252Y638712D01*
X371252Y648348D01*
X374188Y648348D01*
X374188Y643459D02*
X371252Y643459D01*
X371252Y648206D02*
X374188Y648206D01*
X355188Y648348D02*
X355188Y638712D01*
X352252Y638712D01*
X352252Y648348D01*
X355188Y648348D01*
X355188Y643459D02*
X352252Y643459D01*
X352252Y648206D02*
X355188Y648206D01*
D37*
X524510Y48260D03*
X548640Y46990D03*
X539115Y528320D03*
X539115Y497840D03*
X328930Y320040D03*
X530860Y308610D03*
X402590Y403860D03*
X66040Y346710D03*
X209550Y67310D03*
D34*
X146512Y568325D03*
X131512Y568325D03*
D16*
X129512Y535686D03*
X148512Y535686D03*
D38*
X57150Y654050D03*
D34*
X201704Y567055D03*
X186704Y567055D03*
D16*
X184704Y534416D03*
X203704Y534416D03*
D37*
X66040Y622300D03*
D39*
X228600Y65532D03*
X241300Y65532D03*
X254000Y65532D03*
X266700Y65532D03*
X266700Y114808D03*
X254000Y114808D03*
X241300Y114808D03*
X228600Y114808D03*
X72390Y80518D03*
X59690Y80518D03*
X46990Y80518D03*
X34290Y80518D03*
X34290Y31242D03*
X46990Y31242D03*
X59690Y31242D03*
X72390Y31242D03*
D10*
X101918Y356877D03*
X101918Y337877D03*
D16*
X277520Y38735D03*
X296520Y38735D03*
X37490Y146050D03*
X56490Y146050D03*
X118167Y447040D03*
X137167Y447040D03*
D10*
X132080Y356877D03*
X132080Y337877D03*
D16*
X249530Y38735D03*
X230530Y38735D03*
X37490Y120015D03*
X56490Y120015D03*
D10*
X95425Y476275D03*
X95425Y495275D03*
D37*
X33020Y310515D03*
X196850Y309245D03*
X102870Y35560D03*
X205740Y114300D03*
D16*
X269900Y639128D03*
X288900Y639128D03*
D10*
X546100Y624230D03*
X546100Y643230D03*
X474472Y625500D03*
X474472Y644500D03*
D40*
X478790Y717550D03*
X485290Y717550D03*
X472290Y717550D03*
X491790Y717550D03*
X465790Y717550D03*
D41*
X509790Y718800D03*
X447790Y718800D03*
D42*
X490790Y744300D03*
X466790Y744300D03*
D43*
X516790Y744300D03*
X440790Y744300D03*
D44*
X265070Y710080D03*
X265070Y697080D03*
X283570Y703580D03*
D45*
X382355Y497360D03*
X345355Y497360D03*
X382355Y437360D03*
X345355Y437360D03*
X382355Y402110D03*
X345355Y402110D03*
X382355Y342110D03*
X345355Y342110D03*
D44*
X69490Y448460D03*
X69490Y435460D03*
X87990Y441960D03*
D46*
X49960Y392430D03*
X71960Y401930D03*
X71960Y382930D03*
D10*
X44450Y431190D03*
X44450Y450190D03*
D47*
X346870Y681990D03*
X366870Y681990D03*
D48*
X323370Y739490D03*
X390370Y739490D03*
D10*
X99060Y642010D03*
X99060Y661010D03*
D49*
X564147Y283523D02*
X564147Y273677D01*
X564147Y283523D02*
X568793Y283523D01*
X568793Y273677D01*
X564147Y273677D01*
X564147Y280029D02*
X568793Y280029D01*
X551447Y283523D02*
X551447Y273677D01*
X551447Y283523D02*
X556093Y283523D01*
X556093Y273677D01*
X551447Y273677D01*
X551447Y280029D02*
X556093Y280029D01*
X538747Y283523D02*
X538747Y273677D01*
X538747Y283523D02*
X543393Y283523D01*
X543393Y273677D01*
X538747Y273677D01*
X538747Y280029D02*
X543393Y280029D01*
X526047Y283523D02*
X526047Y273677D01*
X526047Y283523D02*
X530693Y283523D01*
X530693Y273677D01*
X526047Y273677D01*
X526047Y280029D02*
X530693Y280029D01*
X513347Y283523D02*
X513347Y273677D01*
X513347Y283523D02*
X517993Y283523D01*
X517993Y273677D01*
X513347Y273677D01*
X513347Y280029D02*
X517993Y280029D01*
X500647Y283523D02*
X500647Y273677D01*
X500647Y283523D02*
X505293Y283523D01*
X505293Y273677D01*
X500647Y273677D01*
X500647Y280029D02*
X505293Y280029D01*
X487947Y283523D02*
X487947Y273677D01*
X487947Y283523D02*
X492593Y283523D01*
X492593Y273677D01*
X487947Y273677D01*
X487947Y280029D02*
X492593Y280029D01*
X475247Y283523D02*
X475247Y273677D01*
X475247Y283523D02*
X479893Y283523D01*
X479893Y273677D01*
X475247Y273677D01*
X475247Y280029D02*
X479893Y280029D01*
X462547Y283523D02*
X462547Y273677D01*
X462547Y283523D02*
X467193Y283523D01*
X467193Y273677D01*
X462547Y273677D01*
X462547Y280029D02*
X467193Y280029D01*
X449847Y283523D02*
X449847Y273677D01*
X449847Y283523D02*
X454493Y283523D01*
X454493Y273677D01*
X449847Y273677D01*
X449847Y280029D02*
X454493Y280029D01*
X437147Y283523D02*
X437147Y273677D01*
X437147Y283523D02*
X441793Y283523D01*
X441793Y273677D01*
X437147Y273677D01*
X437147Y280029D02*
X441793Y280029D01*
X424447Y283523D02*
X424447Y273677D01*
X424447Y283523D02*
X429093Y283523D01*
X429093Y273677D01*
X424447Y273677D01*
X424447Y280029D02*
X429093Y280029D01*
X411747Y283523D02*
X411747Y273677D01*
X411747Y283523D02*
X416393Y283523D01*
X416393Y273677D01*
X411747Y273677D01*
X411747Y280029D02*
X416393Y280029D01*
X399047Y283523D02*
X399047Y273677D01*
X399047Y283523D02*
X403693Y283523D01*
X403693Y273677D01*
X399047Y273677D01*
X399047Y280029D02*
X403693Y280029D01*
X386347Y283523D02*
X386347Y273677D01*
X386347Y283523D02*
X390993Y283523D01*
X390993Y273677D01*
X386347Y273677D01*
X386347Y280029D02*
X390993Y280029D01*
X373647Y283523D02*
X373647Y273677D01*
X373647Y283523D02*
X378293Y283523D01*
X378293Y273677D01*
X373647Y273677D01*
X373647Y280029D02*
X378293Y280029D01*
X360947Y283523D02*
X360947Y273677D01*
X360947Y283523D02*
X365593Y283523D01*
X365593Y273677D01*
X360947Y273677D01*
X360947Y280029D02*
X365593Y280029D01*
X348247Y283523D02*
X348247Y273677D01*
X348247Y283523D02*
X352893Y283523D01*
X352893Y273677D01*
X348247Y273677D01*
X348247Y280029D02*
X352893Y280029D01*
X335547Y283523D02*
X335547Y273677D01*
X335547Y283523D02*
X340193Y283523D01*
X340193Y273677D01*
X335547Y273677D01*
X335547Y280029D02*
X340193Y280029D01*
X340193Y107323D02*
X340193Y97477D01*
X335547Y97477D01*
X335547Y107323D01*
X340193Y107323D01*
X340193Y103829D02*
X335547Y103829D01*
X352893Y107323D02*
X352893Y97477D01*
X348247Y97477D01*
X348247Y107323D01*
X352893Y107323D01*
X352893Y103829D02*
X348247Y103829D01*
X365593Y107323D02*
X365593Y97477D01*
X360947Y97477D01*
X360947Y107323D01*
X365593Y107323D01*
X365593Y103829D02*
X360947Y103829D01*
X378293Y107323D02*
X378293Y97477D01*
X373647Y97477D01*
X373647Y107323D01*
X378293Y107323D01*
X378293Y103829D02*
X373647Y103829D01*
X390993Y107323D02*
X390993Y97477D01*
X386347Y97477D01*
X386347Y107323D01*
X390993Y107323D01*
X390993Y103829D02*
X386347Y103829D01*
X403693Y107323D02*
X403693Y97477D01*
X399047Y97477D01*
X399047Y107323D01*
X403693Y107323D01*
X403693Y103829D02*
X399047Y103829D01*
X416393Y107323D02*
X416393Y97477D01*
X411747Y97477D01*
X411747Y107323D01*
X416393Y107323D01*
X416393Y103829D02*
X411747Y103829D01*
X429093Y107323D02*
X429093Y97477D01*
X424447Y97477D01*
X424447Y107323D01*
X429093Y107323D01*
X429093Y103829D02*
X424447Y103829D01*
X441793Y107323D02*
X441793Y97477D01*
X437147Y97477D01*
X437147Y107323D01*
X441793Y107323D01*
X441793Y103829D02*
X437147Y103829D01*
X454493Y107323D02*
X454493Y97477D01*
X449847Y97477D01*
X449847Y107323D01*
X454493Y107323D01*
X454493Y103829D02*
X449847Y103829D01*
X467193Y107323D02*
X467193Y97477D01*
X462547Y97477D01*
X462547Y107323D01*
X467193Y107323D01*
X467193Y103829D02*
X462547Y103829D01*
X479893Y107323D02*
X479893Y97477D01*
X475247Y97477D01*
X475247Y107323D01*
X479893Y107323D01*
X479893Y103829D02*
X475247Y103829D01*
X492593Y107323D02*
X492593Y97477D01*
X487947Y97477D01*
X487947Y107323D01*
X492593Y107323D01*
X492593Y103829D02*
X487947Y103829D01*
X505293Y107323D02*
X505293Y97477D01*
X500647Y97477D01*
X500647Y107323D01*
X505293Y107323D01*
X505293Y103829D02*
X500647Y103829D01*
X517993Y107323D02*
X517993Y97477D01*
X513347Y97477D01*
X513347Y107323D01*
X517993Y107323D01*
X517993Y103829D02*
X513347Y103829D01*
X530693Y107323D02*
X530693Y97477D01*
X526047Y97477D01*
X526047Y107323D01*
X530693Y107323D01*
X530693Y103829D02*
X526047Y103829D01*
X543393Y107323D02*
X543393Y97477D01*
X538747Y97477D01*
X538747Y107323D01*
X543393Y107323D01*
X543393Y103829D02*
X538747Y103829D01*
X556093Y107323D02*
X556093Y97477D01*
X551447Y97477D01*
X551447Y107323D01*
X556093Y107323D01*
X556093Y103829D02*
X551447Y103829D01*
X568793Y107323D02*
X568793Y97477D01*
X564147Y97477D01*
X564147Y107323D01*
X568793Y107323D01*
X568793Y103829D02*
X564147Y103829D01*
D50*
X488570Y204300D03*
D16*
X512470Y355600D03*
X531470Y355600D03*
X445110Y354330D03*
X426110Y354330D03*
X445110Y320040D03*
X426110Y320040D03*
D10*
X243840Y573380D03*
X243840Y554380D03*
X287020Y573380D03*
X287020Y554380D03*
D51*
X158750Y701040D03*
X165100Y645160D03*
X240030Y689610D03*
X240030Y706120D03*
X142240Y267970D03*
X196850Y257810D03*
X196850Y139700D03*
X196850Y154940D03*
X189230Y199390D03*
X161290Y204470D03*
X241300Y245110D03*
X190500Y193040D03*
X242288Y200660D03*
X123190Y279400D03*
X172720Y281940D03*
X228600Y83820D03*
X218440Y111760D03*
X120650Y287020D03*
X138430Y285750D03*
X160020Y246380D03*
X214848Y240248D03*
X171450Y243840D03*
X199390Y238760D03*
X170597Y232827D03*
X210820Y208280D03*
X166370Y227330D03*
X194310Y220980D03*
X237490Y640080D03*
X185420Y626110D03*
X556260Y347980D03*
X425450Y405130D03*
X522262Y405130D03*
X544830Y229870D03*
X496570Y293370D03*
X496570Y252730D03*
X506730Y124460D03*
X506730Y45720D03*
X224790Y245110D03*
X222250Y267970D03*
X171450Y252730D03*
X379730Y115570D03*
X208280Y245588D03*
X383540Y53340D03*
X162560Y182880D03*
X243840Y186690D03*
X477520Y291747D03*
X481330Y243840D03*
X160020Y254000D03*
X187960Y260350D03*
X171450Y214128D03*
X100330Y214630D03*
X168910Y435610D03*
X198120Y427990D03*
X160020Y220980D03*
X167640Y265430D03*
X317500Y311150D03*
X271780Y309880D03*
X449580Y582930D03*
X463550Y568960D03*
X521970Y539750D03*
X548640Y539750D03*
X567690Y314960D03*
X567690Y257810D03*
X565150Y81280D03*
X565150Y137160D03*
X525780Y511810D03*
X556260Y505460D03*
X562610Y299720D03*
X562610Y264160D03*
X557530Y154940D03*
X557530Y81280D03*
X198443Y681043D03*
X303530Y636270D03*
X360680Y637540D03*
X422910Y556260D03*
X424180Y579120D03*
X520700Y548640D03*
X562610Y643890D03*
X527050Y645160D03*
X490220Y645160D03*
X543560Y580390D03*
X309880Y38100D03*
X247650Y52070D03*
X247650Y130810D03*
X119380Y127000D03*
X26670Y30480D03*
X67310Y146050D03*
X172438Y187983D03*
X158750Y193040D03*
X137577Y259933D03*
X139187Y273818D03*
X185420Y354330D03*
X82550Y341630D03*
X85090Y401320D03*
X105410Y386080D03*
X109220Y417830D03*
X149860Y447040D03*
X261620Y422910D03*
X257810Y468630D03*
X62230Y463550D03*
X33020Y479425D03*
X128270Y464820D03*
X345355Y372110D03*
X345440Y468630D03*
X414020Y454660D03*
X424180Y527050D03*
X330200Y680720D03*
X293370Y730250D03*
X231140Y754380D03*
X170180Y755650D03*
X139700Y754380D03*
X52070Y744220D03*
X133350Y661670D03*
X123190Y623570D03*
X170180Y411480D03*
X234950Y417062D03*
X210683Y406263D03*
X300990Y675640D03*
X238760Y647772D03*
X336550Y680720D03*
X458470Y704850D03*
X412750Y354330D03*
X388620Y293370D03*
X304800Y292100D03*
X544830Y355600D03*
X572488Y303530D03*
X518160Y204470D03*
X488950Y231140D03*
X490220Y179070D03*
X461010Y204470D03*
X572770Y87630D03*
X369570Y318770D03*
X491490Y243840D03*
X488950Y293442D03*
X414020Y294640D03*
X500380Y118110D03*
X496570Y45720D03*
X505460Y293370D03*
X505460Y251460D03*
X511810Y116840D03*
X511810Y53340D03*
X313690Y513080D03*
X372110Y510540D03*
X322580Y537210D03*
X514350Y330200D03*
X528320Y325120D03*
X280670Y269240D03*
X273050Y232410D03*
X285750Y281940D03*
X285750Y232410D03*
X201930Y656590D03*
X201930Y646430D03*
X208280Y651510D03*
X214630Y656590D03*
X214630Y646430D03*
M02*
