G04 EAGLE Gerber RS-274X export*
G75*
%MOMM*%
%FSLAX34Y34*%
%LPD*%
%INTop Copper*%
%IPPOS*%
%AMOC8*
5,1,8,0,0,1.08239X$1,22.5*%
G01*
%ADD10R,1.500000X1.300000*%
%ADD11R,1.600000X2.700000*%
%ADD12R,1.220000X0.910000*%
%ADD13C,0.250000*%
%ADD14R,3.400000X1.900000*%
%ADD15R,2.700000X1.600000*%
%ADD16R,1.300000X1.500000*%
%ADD17R,1.000000X1.100000*%
%ADD18C,0.067500*%
%ADD19R,2.450000X2.450000*%
%ADD20R,0.800000X0.300000*%
%ADD21R,0.650000X0.300000*%
%ADD22R,0.950000X0.400000*%
%ADD23R,0.600000X2.200000*%
%ADD24R,1.200000X1.200000*%
%ADD25R,1.500000X1.600000*%
%ADD26C,0.070000*%
%ADD27R,1.600000X0.900000*%
%ADD28C,0.908000*%
%ADD29R,1.900000X3.400000*%
%ADD30C,0.150000*%
%ADD31C,1.828800*%
%ADD32R,1.500000X0.400000*%
%ADD33C,0.180000*%
%ADD34R,0.950000X0.950000*%
%ADD35C,0.495000*%
%ADD36C,0.295000*%
%ADD37C,1.270000*%
%ADD38P,3.909464X8X22.500000*%
%ADD39R,0.558800X1.981200*%
%ADD40R,0.400000X1.350000*%
%ADD41R,2.100000X1.600000*%
%ADD42R,1.900000X1.900000*%
%ADD43R,1.800000X1.900000*%
%ADD44R,0.550000X0.600000*%
%ADD45R,0.700000X1.000000*%
%ADD46R,1.400000X1.000000*%
%ADD47R,1.000000X3.500000*%
%ADD48R,1.500000X3.400000*%
%ADD49C,0.465000*%
%ADD50R,4.000000X4.000000*%
%ADD51C,0.360000*%
%ADD52C,0.254000*%
%ADD53C,0.203200*%
%ADD54C,0.502400*%
%ADD55C,0.304800*%
%ADD56C,0.508000*%
%ADD57C,1.016000*%
%ADD58C,1.000000*%

G36*
X336825Y670564D02*
X336825Y670564D01*
X336859Y670562D01*
X337048Y670584D01*
X337239Y670601D01*
X337272Y670610D01*
X337306Y670614D01*
X337488Y670669D01*
X337673Y670719D01*
X337704Y670734D01*
X337737Y670744D01*
X337908Y670831D01*
X338080Y670913D01*
X338108Y670933D01*
X338139Y670948D01*
X338291Y671064D01*
X338446Y671175D01*
X338470Y671200D01*
X338497Y671220D01*
X338626Y671361D01*
X338760Y671497D01*
X338779Y671526D01*
X338803Y671552D01*
X338905Y671712D01*
X339012Y671870D01*
X339026Y671902D01*
X339044Y671931D01*
X339117Y672108D01*
X339194Y672282D01*
X339202Y672316D01*
X339215Y672348D01*
X339255Y672535D01*
X339301Y672720D01*
X339303Y672754D01*
X339310Y672788D01*
X339329Y673100D01*
X339329Y679451D01*
X346710Y679451D01*
X346745Y679454D01*
X346779Y679452D01*
X346968Y679474D01*
X347159Y679490D01*
X347192Y679500D01*
X347226Y679504D01*
X347409Y679559D01*
X347593Y679609D01*
X347624Y679624D01*
X347657Y679634D01*
X347828Y679721D01*
X348000Y679802D01*
X348028Y679823D01*
X348059Y679838D01*
X348211Y679953D01*
X348366Y680065D01*
X348390Y680089D01*
X348417Y680110D01*
X348546Y680250D01*
X348680Y680387D01*
X348699Y680416D01*
X348723Y680441D01*
X348825Y680602D01*
X348932Y680760D01*
X348946Y680792D01*
X348964Y680821D01*
X349037Y680998D01*
X349114Y681172D01*
X349122Y681206D01*
X349135Y681238D01*
X349175Y681424D01*
X349221Y681609D01*
X349223Y681644D01*
X349230Y681678D01*
X349249Y681990D01*
X349246Y682025D01*
X349248Y682059D01*
X349226Y682249D01*
X349209Y682439D01*
X349200Y682472D01*
X349196Y682506D01*
X349141Y682689D01*
X349091Y682873D01*
X349076Y682904D01*
X349066Y682937D01*
X348979Y683108D01*
X348897Y683280D01*
X348877Y683308D01*
X348862Y683339D01*
X348746Y683491D01*
X348635Y683646D01*
X348610Y683670D01*
X348590Y683697D01*
X348450Y683827D01*
X348313Y683960D01*
X348284Y683979D01*
X348258Y684003D01*
X348097Y684105D01*
X347940Y684212D01*
X347908Y684226D01*
X347879Y684244D01*
X347702Y684317D01*
X347528Y684394D01*
X347494Y684402D01*
X347462Y684415D01*
X347275Y684456D01*
X347090Y684501D01*
X347056Y684503D01*
X347022Y684510D01*
X346710Y684529D01*
X339329Y684529D01*
X339329Y689610D01*
X339326Y689645D01*
X339328Y689679D01*
X339306Y689869D01*
X339289Y690058D01*
X339280Y690092D01*
X339276Y690126D01*
X339221Y690309D01*
X339171Y690493D01*
X339156Y690524D01*
X339146Y690557D01*
X339059Y690727D01*
X338977Y690900D01*
X338957Y690928D01*
X338942Y690959D01*
X338827Y691110D01*
X338715Y691266D01*
X338690Y691290D01*
X338670Y691317D01*
X338530Y691446D01*
X338393Y691580D01*
X338364Y691599D01*
X338338Y691623D01*
X338177Y691725D01*
X338020Y691832D01*
X337988Y691846D01*
X337959Y691864D01*
X337782Y691937D01*
X337608Y692014D01*
X337574Y692022D01*
X337542Y692035D01*
X337355Y692076D01*
X337170Y692121D01*
X337136Y692123D01*
X337102Y692130D01*
X336790Y692149D01*
X328930Y692149D01*
X328896Y692146D01*
X328861Y692148D01*
X328672Y692126D01*
X328482Y692109D01*
X328448Y692100D01*
X328414Y692096D01*
X328231Y692041D01*
X328047Y691991D01*
X328016Y691976D01*
X327983Y691966D01*
X327812Y691879D01*
X327641Y691797D01*
X327612Y691777D01*
X327581Y691762D01*
X327429Y691646D01*
X327274Y691535D01*
X327250Y691510D01*
X327223Y691490D01*
X327094Y691350D01*
X326960Y691213D01*
X326941Y691184D01*
X326918Y691158D01*
X326815Y690997D01*
X326708Y690840D01*
X326694Y690808D01*
X326676Y690779D01*
X326603Y690602D01*
X326526Y690428D01*
X326518Y690394D01*
X326505Y690362D01*
X326465Y690175D01*
X326419Y689990D01*
X326417Y689956D01*
X326410Y689922D01*
X326391Y689610D01*
X326391Y673100D01*
X326394Y673066D01*
X326392Y673031D01*
X326414Y672842D01*
X326431Y672652D01*
X326440Y672618D01*
X326444Y672584D01*
X326499Y672401D01*
X326549Y672217D01*
X326564Y672186D01*
X326574Y672153D01*
X326661Y671982D01*
X326743Y671811D01*
X326763Y671782D01*
X326778Y671751D01*
X326894Y671599D01*
X327005Y671444D01*
X327030Y671420D01*
X327050Y671393D01*
X327191Y671264D01*
X327327Y671130D01*
X327356Y671111D01*
X327382Y671088D01*
X327543Y670985D01*
X327700Y670878D01*
X327732Y670864D01*
X327761Y670846D01*
X327938Y670773D01*
X328112Y670696D01*
X328146Y670688D01*
X328178Y670675D01*
X328365Y670635D01*
X328550Y670589D01*
X328584Y670587D01*
X328618Y670580D01*
X328930Y670561D01*
X336790Y670561D01*
X336825Y670564D01*
G37*
D10*
X197693Y357480D03*
X197693Y338480D03*
X194375Y495275D03*
X194375Y476275D03*
X232826Y357480D03*
X232826Y338480D03*
X303530Y476275D03*
X303530Y495275D03*
X147320Y642010D03*
X147320Y661010D03*
X139617Y724434D03*
X139617Y743434D03*
X64770Y724434D03*
X64770Y743434D03*
D11*
X151240Y603250D03*
X123240Y603250D03*
D10*
X248920Y403250D03*
X248920Y422250D03*
X128409Y495275D03*
X128409Y476275D03*
D12*
X229910Y502125D03*
X229910Y469425D03*
X267995Y469425D03*
X267995Y502125D03*
X270510Y331630D03*
X270510Y364330D03*
D13*
X187700Y421480D02*
X176700Y421480D01*
X176700Y416480D02*
X187700Y416480D01*
X187700Y411480D02*
X176700Y411480D01*
X176700Y406480D02*
X187700Y406480D01*
X187700Y401480D02*
X176700Y401480D01*
X218700Y421480D02*
X229700Y421480D01*
X229700Y416480D02*
X218700Y416480D01*
X218700Y411480D02*
X229700Y411480D01*
X229700Y406480D02*
X218700Y406480D01*
X218700Y401480D02*
X229700Y401480D01*
D14*
X102194Y705670D03*
X102194Y744670D03*
D15*
X309880Y387380D03*
X309880Y359380D03*
X309880Y420340D03*
X309880Y448340D03*
D16*
X288900Y675640D03*
X269900Y675640D03*
D10*
X200632Y724434D03*
X200632Y743434D03*
X231140Y743434D03*
X231140Y724434D03*
X161392Y476275D03*
X161392Y495275D03*
D17*
X119103Y417513D03*
X136103Y417513D03*
D10*
X162560Y338480D03*
X162560Y357480D03*
D16*
X137103Y385445D03*
X118103Y385445D03*
D18*
X223667Y638753D02*
X231593Y638753D01*
X231593Y636727D01*
X223667Y636727D01*
X223667Y638753D01*
X223667Y637368D02*
X231593Y637368D01*
X231593Y638009D02*
X223667Y638009D01*
X223667Y638650D02*
X231593Y638650D01*
X231593Y643753D02*
X223667Y643753D01*
X231593Y643753D02*
X231593Y641727D01*
X223667Y641727D01*
X223667Y643753D01*
X223667Y642368D02*
X231593Y642368D01*
X231593Y643009D02*
X223667Y643009D01*
X223667Y643650D02*
X231593Y643650D01*
X231593Y648753D02*
X223667Y648753D01*
X231593Y648753D02*
X231593Y646727D01*
X223667Y646727D01*
X223667Y648753D01*
X223667Y647368D02*
X231593Y647368D01*
X231593Y648009D02*
X223667Y648009D01*
X223667Y648650D02*
X231593Y648650D01*
X231593Y653753D02*
X223667Y653753D01*
X231593Y653753D02*
X231593Y651727D01*
X223667Y651727D01*
X223667Y653753D01*
X223667Y652368D02*
X231593Y652368D01*
X231593Y653009D02*
X223667Y653009D01*
X223667Y653650D02*
X231593Y653650D01*
X231593Y658753D02*
X223667Y658753D01*
X231593Y658753D02*
X231593Y656727D01*
X223667Y656727D01*
X223667Y658753D01*
X223667Y657368D02*
X231593Y657368D01*
X231593Y658009D02*
X223667Y658009D01*
X223667Y658650D02*
X231593Y658650D01*
X231593Y663753D02*
X223667Y663753D01*
X231593Y663753D02*
X231593Y661727D01*
X223667Y661727D01*
X223667Y663753D01*
X223667Y662368D02*
X231593Y662368D01*
X231593Y663009D02*
X223667Y663009D01*
X223667Y663650D02*
X231593Y663650D01*
X192893Y663753D02*
X184967Y663753D01*
X192893Y663753D02*
X192893Y661727D01*
X184967Y661727D01*
X184967Y663753D01*
X184967Y662368D02*
X192893Y662368D01*
X192893Y663009D02*
X184967Y663009D01*
X184967Y663650D02*
X192893Y663650D01*
X192893Y658753D02*
X184967Y658753D01*
X192893Y658753D02*
X192893Y656727D01*
X184967Y656727D01*
X184967Y658753D01*
X184967Y657368D02*
X192893Y657368D01*
X192893Y658009D02*
X184967Y658009D01*
X184967Y658650D02*
X192893Y658650D01*
X192893Y653753D02*
X184967Y653753D01*
X192893Y653753D02*
X192893Y651727D01*
X184967Y651727D01*
X184967Y653753D01*
X184967Y652368D02*
X192893Y652368D01*
X192893Y653009D02*
X184967Y653009D01*
X184967Y653650D02*
X192893Y653650D01*
X192893Y648753D02*
X184967Y648753D01*
X192893Y648753D02*
X192893Y646727D01*
X184967Y646727D01*
X184967Y648753D01*
X184967Y647368D02*
X192893Y647368D01*
X192893Y648009D02*
X184967Y648009D01*
X184967Y648650D02*
X192893Y648650D01*
X192893Y643753D02*
X184967Y643753D01*
X192893Y643753D02*
X192893Y641727D01*
X184967Y641727D01*
X184967Y643753D01*
X184967Y642368D02*
X192893Y642368D01*
X192893Y643009D02*
X184967Y643009D01*
X184967Y643650D02*
X192893Y643650D01*
X192893Y638753D02*
X184967Y638753D01*
X192893Y638753D02*
X192893Y636727D01*
X184967Y636727D01*
X184967Y638753D01*
X184967Y637368D02*
X192893Y637368D01*
X192893Y638009D02*
X184967Y638009D01*
X184967Y638650D02*
X192893Y638650D01*
X196793Y634853D02*
X196793Y626927D01*
X194767Y626927D01*
X194767Y634853D01*
X196793Y634853D01*
X196793Y627568D02*
X194767Y627568D01*
X194767Y628209D02*
X196793Y628209D01*
X196793Y628850D02*
X194767Y628850D01*
X194767Y629491D02*
X196793Y629491D01*
X196793Y630132D02*
X194767Y630132D01*
X194767Y630773D02*
X196793Y630773D01*
X196793Y631414D02*
X194767Y631414D01*
X194767Y632055D02*
X196793Y632055D01*
X196793Y632696D02*
X194767Y632696D01*
X194767Y633337D02*
X196793Y633337D01*
X196793Y633978D02*
X194767Y633978D01*
X194767Y634619D02*
X196793Y634619D01*
X201793Y634853D02*
X201793Y626927D01*
X199767Y626927D01*
X199767Y634853D01*
X201793Y634853D01*
X201793Y627568D02*
X199767Y627568D01*
X199767Y628209D02*
X201793Y628209D01*
X201793Y628850D02*
X199767Y628850D01*
X199767Y629491D02*
X201793Y629491D01*
X201793Y630132D02*
X199767Y630132D01*
X199767Y630773D02*
X201793Y630773D01*
X201793Y631414D02*
X199767Y631414D01*
X199767Y632055D02*
X201793Y632055D01*
X201793Y632696D02*
X199767Y632696D01*
X199767Y633337D02*
X201793Y633337D01*
X201793Y633978D02*
X199767Y633978D01*
X199767Y634619D02*
X201793Y634619D01*
X206793Y634853D02*
X206793Y626927D01*
X204767Y626927D01*
X204767Y634853D01*
X206793Y634853D01*
X206793Y627568D02*
X204767Y627568D01*
X204767Y628209D02*
X206793Y628209D01*
X206793Y628850D02*
X204767Y628850D01*
X204767Y629491D02*
X206793Y629491D01*
X206793Y630132D02*
X204767Y630132D01*
X204767Y630773D02*
X206793Y630773D01*
X206793Y631414D02*
X204767Y631414D01*
X204767Y632055D02*
X206793Y632055D01*
X206793Y632696D02*
X204767Y632696D01*
X204767Y633337D02*
X206793Y633337D01*
X206793Y633978D02*
X204767Y633978D01*
X204767Y634619D02*
X206793Y634619D01*
X211793Y634853D02*
X211793Y626927D01*
X209767Y626927D01*
X209767Y634853D01*
X211793Y634853D01*
X211793Y627568D02*
X209767Y627568D01*
X209767Y628209D02*
X211793Y628209D01*
X211793Y628850D02*
X209767Y628850D01*
X209767Y629491D02*
X211793Y629491D01*
X211793Y630132D02*
X209767Y630132D01*
X209767Y630773D02*
X211793Y630773D01*
X211793Y631414D02*
X209767Y631414D01*
X209767Y632055D02*
X211793Y632055D01*
X211793Y632696D02*
X209767Y632696D01*
X209767Y633337D02*
X211793Y633337D01*
X211793Y633978D02*
X209767Y633978D01*
X209767Y634619D02*
X211793Y634619D01*
X216793Y634853D02*
X216793Y626927D01*
X214767Y626927D01*
X214767Y634853D01*
X216793Y634853D01*
X216793Y627568D02*
X214767Y627568D01*
X214767Y628209D02*
X216793Y628209D01*
X216793Y628850D02*
X214767Y628850D01*
X214767Y629491D02*
X216793Y629491D01*
X216793Y630132D02*
X214767Y630132D01*
X214767Y630773D02*
X216793Y630773D01*
X216793Y631414D02*
X214767Y631414D01*
X214767Y632055D02*
X216793Y632055D01*
X216793Y632696D02*
X214767Y632696D01*
X214767Y633337D02*
X216793Y633337D01*
X216793Y633978D02*
X214767Y633978D01*
X214767Y634619D02*
X216793Y634619D01*
X221793Y634853D02*
X221793Y626927D01*
X219767Y626927D01*
X219767Y634853D01*
X221793Y634853D01*
X221793Y627568D02*
X219767Y627568D01*
X219767Y628209D02*
X221793Y628209D01*
X221793Y628850D02*
X219767Y628850D01*
X219767Y629491D02*
X221793Y629491D01*
X221793Y630132D02*
X219767Y630132D01*
X219767Y630773D02*
X221793Y630773D01*
X221793Y631414D02*
X219767Y631414D01*
X219767Y632055D02*
X221793Y632055D01*
X221793Y632696D02*
X219767Y632696D01*
X219767Y633337D02*
X221793Y633337D01*
X221793Y633978D02*
X219767Y633978D01*
X219767Y634619D02*
X221793Y634619D01*
X221793Y665627D02*
X221793Y673553D01*
X221793Y665627D02*
X219767Y665627D01*
X219767Y673553D01*
X221793Y673553D01*
X221793Y666268D02*
X219767Y666268D01*
X219767Y666909D02*
X221793Y666909D01*
X221793Y667550D02*
X219767Y667550D01*
X219767Y668191D02*
X221793Y668191D01*
X221793Y668832D02*
X219767Y668832D01*
X219767Y669473D02*
X221793Y669473D01*
X221793Y670114D02*
X219767Y670114D01*
X219767Y670755D02*
X221793Y670755D01*
X221793Y671396D02*
X219767Y671396D01*
X219767Y672037D02*
X221793Y672037D01*
X221793Y672678D02*
X219767Y672678D01*
X219767Y673319D02*
X221793Y673319D01*
X216793Y673553D02*
X216793Y665627D01*
X214767Y665627D01*
X214767Y673553D01*
X216793Y673553D01*
X216793Y666268D02*
X214767Y666268D01*
X214767Y666909D02*
X216793Y666909D01*
X216793Y667550D02*
X214767Y667550D01*
X214767Y668191D02*
X216793Y668191D01*
X216793Y668832D02*
X214767Y668832D01*
X214767Y669473D02*
X216793Y669473D01*
X216793Y670114D02*
X214767Y670114D01*
X214767Y670755D02*
X216793Y670755D01*
X216793Y671396D02*
X214767Y671396D01*
X214767Y672037D02*
X216793Y672037D01*
X216793Y672678D02*
X214767Y672678D01*
X214767Y673319D02*
X216793Y673319D01*
X211793Y673553D02*
X211793Y665627D01*
X209767Y665627D01*
X209767Y673553D01*
X211793Y673553D01*
X211793Y666268D02*
X209767Y666268D01*
X209767Y666909D02*
X211793Y666909D01*
X211793Y667550D02*
X209767Y667550D01*
X209767Y668191D02*
X211793Y668191D01*
X211793Y668832D02*
X209767Y668832D01*
X209767Y669473D02*
X211793Y669473D01*
X211793Y670114D02*
X209767Y670114D01*
X209767Y670755D02*
X211793Y670755D01*
X211793Y671396D02*
X209767Y671396D01*
X209767Y672037D02*
X211793Y672037D01*
X211793Y672678D02*
X209767Y672678D01*
X209767Y673319D02*
X211793Y673319D01*
X206793Y673553D02*
X206793Y665627D01*
X204767Y665627D01*
X204767Y673553D01*
X206793Y673553D01*
X206793Y666268D02*
X204767Y666268D01*
X204767Y666909D02*
X206793Y666909D01*
X206793Y667550D02*
X204767Y667550D01*
X204767Y668191D02*
X206793Y668191D01*
X206793Y668832D02*
X204767Y668832D01*
X204767Y669473D02*
X206793Y669473D01*
X206793Y670114D02*
X204767Y670114D01*
X204767Y670755D02*
X206793Y670755D01*
X206793Y671396D02*
X204767Y671396D01*
X204767Y672037D02*
X206793Y672037D01*
X206793Y672678D02*
X204767Y672678D01*
X204767Y673319D02*
X206793Y673319D01*
X201793Y673553D02*
X201793Y665627D01*
X199767Y665627D01*
X199767Y673553D01*
X201793Y673553D01*
X201793Y666268D02*
X199767Y666268D01*
X199767Y666909D02*
X201793Y666909D01*
X201793Y667550D02*
X199767Y667550D01*
X199767Y668191D02*
X201793Y668191D01*
X201793Y668832D02*
X199767Y668832D01*
X199767Y669473D02*
X201793Y669473D01*
X201793Y670114D02*
X199767Y670114D01*
X199767Y670755D02*
X201793Y670755D01*
X201793Y671396D02*
X199767Y671396D01*
X199767Y672037D02*
X201793Y672037D01*
X201793Y672678D02*
X199767Y672678D01*
X199767Y673319D02*
X201793Y673319D01*
X196793Y673553D02*
X196793Y665627D01*
X194767Y665627D01*
X194767Y673553D01*
X196793Y673553D01*
X196793Y666268D02*
X194767Y666268D01*
X194767Y666909D02*
X196793Y666909D01*
X196793Y667550D02*
X194767Y667550D01*
X194767Y668191D02*
X196793Y668191D01*
X196793Y668832D02*
X194767Y668832D01*
X194767Y669473D02*
X196793Y669473D01*
X196793Y670114D02*
X194767Y670114D01*
X194767Y670755D02*
X196793Y670755D01*
X196793Y671396D02*
X194767Y671396D01*
X194767Y672037D02*
X196793Y672037D01*
X196793Y672678D02*
X194767Y672678D01*
X194767Y673319D02*
X196793Y673319D01*
D19*
X208280Y650240D03*
D20*
X150950Y283060D03*
D21*
X180460Y280060D03*
D20*
X150950Y277060D03*
D21*
X180460Y274060D03*
D20*
X150950Y271060D03*
D21*
X180460Y268060D03*
D20*
X150950Y265060D03*
D21*
X180460Y262060D03*
D20*
X150950Y259060D03*
D21*
X180460Y256060D03*
D20*
X150950Y253060D03*
D21*
X180460Y250060D03*
D20*
X150950Y247060D03*
D21*
X180460Y244060D03*
D20*
X150950Y241060D03*
D21*
X180460Y238060D03*
D20*
X150950Y235060D03*
D21*
X180460Y232060D03*
D20*
X150950Y229060D03*
D21*
X180460Y226060D03*
D20*
X150950Y223060D03*
D21*
X180460Y220060D03*
D20*
X150950Y217060D03*
D21*
X180460Y214060D03*
D20*
X150950Y211060D03*
D21*
X180460Y208060D03*
D20*
X150950Y205060D03*
D21*
X180460Y202060D03*
D20*
X150950Y199060D03*
D21*
X180460Y196060D03*
D20*
X150950Y193060D03*
D21*
X180460Y190060D03*
D20*
X150950Y187060D03*
D21*
X180460Y184060D03*
D20*
X150950Y181060D03*
D21*
X180460Y178060D03*
D20*
X150950Y175060D03*
D21*
X180460Y172060D03*
D20*
X150950Y169060D03*
D22*
X153700Y290060D03*
X153700Y162060D03*
D23*
X158750Y81880D03*
X158750Y29880D03*
X171450Y81880D03*
X146050Y81880D03*
X133350Y81880D03*
X171450Y29880D03*
X146050Y29880D03*
X133350Y29880D03*
D10*
X99060Y80670D03*
X99060Y99670D03*
D24*
X130590Y130650D03*
X130590Y110650D03*
D25*
X163090Y120650D03*
D16*
X282550Y730250D03*
X263550Y730250D03*
D10*
X170125Y724434D03*
X170125Y743434D03*
D26*
X24030Y491340D02*
X24030Y484640D01*
X21930Y484640D01*
X21930Y491340D01*
X24030Y491340D01*
X24030Y485305D02*
X21930Y485305D01*
X21930Y485970D02*
X24030Y485970D01*
X24030Y486635D02*
X21930Y486635D01*
X21930Y487300D02*
X24030Y487300D01*
X24030Y487965D02*
X21930Y487965D01*
X21930Y488630D02*
X24030Y488630D01*
X24030Y489295D02*
X21930Y489295D01*
X21930Y489960D02*
X24030Y489960D01*
X24030Y490625D02*
X21930Y490625D01*
X21930Y491290D02*
X24030Y491290D01*
X29030Y491340D02*
X29030Y484640D01*
X26930Y484640D01*
X26930Y491340D01*
X29030Y491340D01*
X29030Y485305D02*
X26930Y485305D01*
X26930Y485970D02*
X29030Y485970D01*
X29030Y486635D02*
X26930Y486635D01*
X26930Y487300D02*
X29030Y487300D01*
X29030Y487965D02*
X26930Y487965D01*
X26930Y488630D02*
X29030Y488630D01*
X29030Y489295D02*
X26930Y489295D01*
X26930Y489960D02*
X29030Y489960D01*
X29030Y490625D02*
X26930Y490625D01*
X26930Y491290D02*
X29030Y491290D01*
X34030Y491340D02*
X34030Y484640D01*
X31930Y484640D01*
X31930Y491340D01*
X34030Y491340D01*
X34030Y485305D02*
X31930Y485305D01*
X31930Y485970D02*
X34030Y485970D01*
X34030Y486635D02*
X31930Y486635D01*
X31930Y487300D02*
X34030Y487300D01*
X34030Y487965D02*
X31930Y487965D01*
X31930Y488630D02*
X34030Y488630D01*
X34030Y489295D02*
X31930Y489295D01*
X31930Y489960D02*
X34030Y489960D01*
X34030Y490625D02*
X31930Y490625D01*
X31930Y491290D02*
X34030Y491290D01*
X39030Y491340D02*
X39030Y484640D01*
X36930Y484640D01*
X36930Y491340D01*
X39030Y491340D01*
X39030Y485305D02*
X36930Y485305D01*
X36930Y485970D02*
X39030Y485970D01*
X39030Y486635D02*
X36930Y486635D01*
X36930Y487300D02*
X39030Y487300D01*
X39030Y487965D02*
X36930Y487965D01*
X36930Y488630D02*
X39030Y488630D01*
X39030Y489295D02*
X36930Y489295D01*
X36930Y489960D02*
X39030Y489960D01*
X39030Y490625D02*
X36930Y490625D01*
X36930Y491290D02*
X39030Y491290D01*
X39030Y504340D02*
X39030Y511040D01*
X39030Y504340D02*
X36930Y504340D01*
X36930Y511040D01*
X39030Y511040D01*
X39030Y505005D02*
X36930Y505005D01*
X36930Y505670D02*
X39030Y505670D01*
X39030Y506335D02*
X36930Y506335D01*
X36930Y507000D02*
X39030Y507000D01*
X39030Y507665D02*
X36930Y507665D01*
X36930Y508330D02*
X39030Y508330D01*
X39030Y508995D02*
X36930Y508995D01*
X36930Y509660D02*
X39030Y509660D01*
X39030Y510325D02*
X36930Y510325D01*
X36930Y510990D02*
X39030Y510990D01*
X34030Y511040D02*
X34030Y504340D01*
X31930Y504340D01*
X31930Y511040D01*
X34030Y511040D01*
X34030Y505005D02*
X31930Y505005D01*
X31930Y505670D02*
X34030Y505670D01*
X34030Y506335D02*
X31930Y506335D01*
X31930Y507000D02*
X34030Y507000D01*
X34030Y507665D02*
X31930Y507665D01*
X31930Y508330D02*
X34030Y508330D01*
X34030Y508995D02*
X31930Y508995D01*
X31930Y509660D02*
X34030Y509660D01*
X34030Y510325D02*
X31930Y510325D01*
X31930Y510990D02*
X34030Y510990D01*
X29030Y511040D02*
X29030Y504340D01*
X26930Y504340D01*
X26930Y511040D01*
X29030Y511040D01*
X29030Y505005D02*
X26930Y505005D01*
X26930Y505670D02*
X29030Y505670D01*
X29030Y506335D02*
X26930Y506335D01*
X26930Y507000D02*
X29030Y507000D01*
X29030Y507665D02*
X26930Y507665D01*
X26930Y508330D02*
X29030Y508330D01*
X29030Y508995D02*
X26930Y508995D01*
X26930Y509660D02*
X29030Y509660D01*
X29030Y510325D02*
X26930Y510325D01*
X26930Y510990D02*
X29030Y510990D01*
X24030Y511040D02*
X24030Y504340D01*
X21930Y504340D01*
X21930Y511040D01*
X24030Y511040D01*
X24030Y505005D02*
X21930Y505005D01*
X21930Y505670D02*
X24030Y505670D01*
X24030Y506335D02*
X21930Y506335D01*
X21930Y507000D02*
X24030Y507000D01*
X24030Y507665D02*
X21930Y507665D01*
X21930Y508330D02*
X24030Y508330D01*
X24030Y508995D02*
X21930Y508995D01*
X21930Y509660D02*
X24030Y509660D01*
X24030Y510325D02*
X21930Y510325D01*
X21930Y510990D02*
X24030Y510990D01*
D27*
X30480Y497840D03*
D28*
X24980Y497840D03*
X35980Y497840D03*
D29*
X27490Y535940D03*
X66490Y535940D03*
D16*
X64541Y595630D03*
X83541Y595630D03*
D10*
X60960Y495021D03*
X60960Y476021D03*
D16*
X424840Y486410D03*
X443840Y486410D03*
X424840Y389890D03*
X443840Y389890D03*
X443840Y454660D03*
X424840Y454660D03*
X424840Y422910D03*
X443840Y422910D03*
D30*
X314520Y196560D02*
X296320Y196560D01*
X314520Y196560D02*
X314520Y192060D01*
X296320Y192060D01*
X296320Y196560D01*
X296320Y193485D02*
X314520Y193485D01*
X314520Y194910D02*
X296320Y194910D01*
X296320Y196335D02*
X314520Y196335D01*
X314520Y209260D02*
X296320Y209260D01*
X314520Y209260D02*
X314520Y204760D01*
X296320Y204760D01*
X296320Y209260D01*
X296320Y206185D02*
X314520Y206185D01*
X314520Y207610D02*
X296320Y207610D01*
X296320Y209035D02*
X314520Y209035D01*
X314520Y221960D02*
X296320Y221960D01*
X314520Y221960D02*
X314520Y217460D01*
X296320Y217460D01*
X296320Y221960D01*
X296320Y218885D02*
X314520Y218885D01*
X314520Y220310D02*
X296320Y220310D01*
X296320Y221735D02*
X314520Y221735D01*
X314520Y234660D02*
X296320Y234660D01*
X314520Y234660D02*
X314520Y230160D01*
X296320Y230160D01*
X296320Y234660D01*
X296320Y231585D02*
X314520Y231585D01*
X314520Y233010D02*
X296320Y233010D01*
X296320Y234435D02*
X314520Y234435D01*
X314520Y247360D02*
X296320Y247360D01*
X314520Y247360D02*
X314520Y242860D01*
X296320Y242860D01*
X296320Y247360D01*
X296320Y244285D02*
X314520Y244285D01*
X314520Y245710D02*
X296320Y245710D01*
X296320Y247135D02*
X314520Y247135D01*
X314520Y260060D02*
X296320Y260060D01*
X314520Y260060D02*
X314520Y255560D01*
X296320Y255560D01*
X296320Y260060D01*
X296320Y256985D02*
X314520Y256985D01*
X314520Y258410D02*
X296320Y258410D01*
X296320Y259835D02*
X314520Y259835D01*
X314520Y272760D02*
X296320Y272760D01*
X314520Y272760D02*
X314520Y268260D01*
X296320Y268260D01*
X296320Y272760D01*
X296320Y269685D02*
X314520Y269685D01*
X314520Y271110D02*
X296320Y271110D01*
X296320Y272535D02*
X314520Y272535D01*
X314520Y285460D02*
X296320Y285460D01*
X314520Y285460D02*
X314520Y280960D01*
X296320Y280960D01*
X296320Y285460D01*
X296320Y282385D02*
X314520Y282385D01*
X314520Y283810D02*
X296320Y283810D01*
X296320Y285235D02*
X314520Y285235D01*
X265020Y285460D02*
X246820Y285460D01*
X265020Y285460D02*
X265020Y280960D01*
X246820Y280960D01*
X246820Y285460D01*
X246820Y282385D02*
X265020Y282385D01*
X265020Y283810D02*
X246820Y283810D01*
X246820Y285235D02*
X265020Y285235D01*
X265020Y272760D02*
X246820Y272760D01*
X265020Y272760D02*
X265020Y268260D01*
X246820Y268260D01*
X246820Y272760D01*
X246820Y269685D02*
X265020Y269685D01*
X265020Y271110D02*
X246820Y271110D01*
X246820Y272535D02*
X265020Y272535D01*
X265020Y260060D02*
X246820Y260060D01*
X265020Y260060D02*
X265020Y255560D01*
X246820Y255560D01*
X246820Y260060D01*
X246820Y256985D02*
X265020Y256985D01*
X265020Y258410D02*
X246820Y258410D01*
X246820Y259835D02*
X265020Y259835D01*
X265020Y247360D02*
X246820Y247360D01*
X265020Y247360D02*
X265020Y242860D01*
X246820Y242860D01*
X246820Y247360D01*
X246820Y244285D02*
X265020Y244285D01*
X265020Y245710D02*
X246820Y245710D01*
X246820Y247135D02*
X265020Y247135D01*
X265020Y234660D02*
X246820Y234660D01*
X265020Y234660D02*
X265020Y230160D01*
X246820Y230160D01*
X246820Y234660D01*
X246820Y231585D02*
X265020Y231585D01*
X265020Y233010D02*
X246820Y233010D01*
X246820Y234435D02*
X265020Y234435D01*
X265020Y221960D02*
X246820Y221960D01*
X265020Y221960D02*
X265020Y217460D01*
X246820Y217460D01*
X246820Y221960D01*
X246820Y218885D02*
X265020Y218885D01*
X265020Y220310D02*
X246820Y220310D01*
X246820Y221735D02*
X265020Y221735D01*
X265020Y209260D02*
X246820Y209260D01*
X265020Y209260D02*
X265020Y204760D01*
X246820Y204760D01*
X246820Y209260D01*
X246820Y206185D02*
X265020Y206185D01*
X265020Y207610D02*
X246820Y207610D01*
X246820Y209035D02*
X265020Y209035D01*
X265020Y196560D02*
X246820Y196560D01*
X265020Y196560D02*
X265020Y192060D01*
X246820Y192060D01*
X246820Y196560D01*
X246820Y193485D02*
X265020Y193485D01*
X265020Y194910D02*
X246820Y194910D01*
X246820Y196335D02*
X265020Y196335D01*
D31*
X394970Y29845D03*
X420370Y29845D03*
X445770Y29845D03*
X369570Y29845D03*
X344170Y29845D03*
X486410Y29845D03*
X511810Y29845D03*
X537210Y29845D03*
D32*
X508690Y511470D03*
X508690Y517970D03*
X508690Y524470D03*
X508690Y530970D03*
X508690Y537470D03*
X508690Y543970D03*
X508690Y550470D03*
X508690Y556970D03*
X508690Y563470D03*
X508690Y569970D03*
X508690Y576470D03*
X508690Y582970D03*
X508690Y589470D03*
X508690Y595970D03*
X436190Y595970D03*
X436190Y589470D03*
X436190Y582970D03*
X436190Y576470D03*
X436190Y569970D03*
X436190Y563470D03*
X436190Y556970D03*
X436190Y550470D03*
X436190Y543970D03*
X436190Y537470D03*
X436190Y530970D03*
X436190Y524470D03*
X436190Y517970D03*
X436190Y511470D03*
D10*
X529590Y560730D03*
X529590Y579730D03*
X512826Y625500D03*
X512826Y644500D03*
D33*
X509512Y433527D02*
X517912Y433527D01*
X509512Y433527D02*
X509512Y435327D01*
X517912Y435327D01*
X517912Y433527D01*
X517912Y435237D02*
X509512Y435237D01*
X509512Y427027D02*
X517912Y427027D01*
X509512Y427027D02*
X509512Y428827D01*
X517912Y428827D01*
X517912Y427027D01*
X517912Y428737D02*
X509512Y428737D01*
X509512Y420527D02*
X517912Y420527D01*
X509512Y420527D02*
X509512Y422327D01*
X517912Y422327D01*
X517912Y420527D01*
X517912Y422237D02*
X509512Y422237D01*
X528612Y422327D02*
X537012Y422327D01*
X537012Y420527D01*
X528612Y420527D01*
X528612Y422327D01*
X528612Y422237D02*
X537012Y422237D01*
X537012Y428827D02*
X528612Y428827D01*
X537012Y428827D02*
X537012Y427027D01*
X528612Y427027D01*
X528612Y428827D01*
X528612Y428737D02*
X537012Y428737D01*
X537012Y435327D02*
X528612Y435327D01*
X537012Y435327D02*
X537012Y433527D01*
X528612Y433527D01*
X528612Y435327D01*
X528612Y435237D02*
X537012Y435237D01*
D16*
X532587Y466090D03*
X513587Y466090D03*
X512317Y389764D03*
X531317Y389764D03*
D34*
X391503Y530345D03*
X391503Y545345D03*
D10*
X391503Y576605D03*
X391503Y595605D03*
D34*
X350520Y530345D03*
X350520Y545345D03*
D10*
X351790Y576605D03*
X351790Y595605D03*
D35*
X358195Y620105D02*
X358195Y627755D01*
X358195Y620105D02*
X353245Y620105D01*
X353245Y627755D01*
X358195Y627755D01*
X358195Y624807D02*
X353245Y624807D01*
D36*
X374195Y628755D02*
X374195Y619105D01*
X371245Y619105D01*
X371245Y628755D01*
X374195Y628755D01*
X374195Y621907D02*
X371245Y621907D01*
X371245Y624709D02*
X374195Y624709D01*
X374195Y627511D02*
X371245Y627511D01*
X374195Y638705D02*
X374195Y648355D01*
X374195Y638705D02*
X371245Y638705D01*
X371245Y648355D01*
X374195Y648355D01*
X374195Y641507D02*
X371245Y641507D01*
X371245Y644309D02*
X374195Y644309D01*
X374195Y647111D02*
X371245Y647111D01*
X355195Y648355D02*
X355195Y638705D01*
X352245Y638705D01*
X352245Y648355D01*
X355195Y648355D01*
X355195Y641507D02*
X352245Y641507D01*
X352245Y644309D02*
X355195Y644309D01*
X355195Y647111D02*
X352245Y647111D01*
D37*
X524510Y48260D03*
X548640Y46990D03*
X539115Y528320D03*
X539115Y497840D03*
X328930Y320040D03*
X530860Y308610D03*
X402590Y403860D03*
X66040Y346710D03*
X209550Y67310D03*
D34*
X146512Y568325D03*
X131512Y568325D03*
D16*
X129512Y535686D03*
X148512Y535686D03*
D38*
X57150Y654050D03*
D34*
X201704Y567055D03*
X186704Y567055D03*
D16*
X184704Y534416D03*
X203704Y534416D03*
D37*
X66040Y622300D03*
D39*
X228600Y65532D03*
X241300Y65532D03*
X254000Y65532D03*
X266700Y65532D03*
X266700Y114808D03*
X254000Y114808D03*
X241300Y114808D03*
X228600Y114808D03*
X72390Y80518D03*
X59690Y80518D03*
X46990Y80518D03*
X34290Y80518D03*
X34290Y31242D03*
X46990Y31242D03*
X59690Y31242D03*
X72390Y31242D03*
D10*
X101918Y356877D03*
X101918Y337877D03*
D16*
X277520Y38735D03*
X296520Y38735D03*
X37490Y146050D03*
X56490Y146050D03*
X118167Y447040D03*
X137167Y447040D03*
D10*
X132080Y356877D03*
X132080Y337877D03*
D16*
X249530Y38735D03*
X230530Y38735D03*
X37490Y120015D03*
X56490Y120015D03*
D10*
X95425Y476275D03*
X95425Y495275D03*
D37*
X33020Y310515D03*
X196850Y309245D03*
X102870Y35560D03*
X205740Y114300D03*
D16*
X269900Y639128D03*
X288900Y639128D03*
D10*
X546100Y624230D03*
X546100Y643230D03*
X474472Y625500D03*
X474472Y644500D03*
D40*
X478790Y717550D03*
X485290Y717550D03*
X472290Y717550D03*
X491790Y717550D03*
X465790Y717550D03*
D41*
X509790Y718800D03*
X447790Y718800D03*
D42*
X490790Y744300D03*
X466790Y744300D03*
D43*
X516790Y744300D03*
X440790Y744300D03*
D44*
X265070Y710080D03*
X265070Y697080D03*
X283570Y703580D03*
D45*
X382355Y497360D03*
X345355Y497360D03*
X382355Y437360D03*
X345355Y437360D03*
X382355Y402110D03*
X345355Y402110D03*
X382355Y342110D03*
X345355Y342110D03*
D44*
X69490Y448460D03*
X69490Y435460D03*
X87990Y441960D03*
D46*
X49960Y392430D03*
X71960Y401930D03*
X71960Y382930D03*
D10*
X44450Y431190D03*
X44450Y450190D03*
D47*
X346870Y681990D03*
X366870Y681990D03*
D48*
X323370Y739490D03*
X390370Y739490D03*
D10*
X99060Y642010D03*
X99060Y661010D03*
D49*
X564145Y283525D02*
X564145Y273675D01*
X564145Y283525D02*
X568795Y283525D01*
X568795Y273675D01*
X564145Y273675D01*
X564145Y278092D02*
X568795Y278092D01*
X568795Y282509D02*
X564145Y282509D01*
X551445Y283525D02*
X551445Y273675D01*
X551445Y283525D02*
X556095Y283525D01*
X556095Y273675D01*
X551445Y273675D01*
X551445Y278092D02*
X556095Y278092D01*
X556095Y282509D02*
X551445Y282509D01*
X538745Y283525D02*
X538745Y273675D01*
X538745Y283525D02*
X543395Y283525D01*
X543395Y273675D01*
X538745Y273675D01*
X538745Y278092D02*
X543395Y278092D01*
X543395Y282509D02*
X538745Y282509D01*
X526045Y283525D02*
X526045Y273675D01*
X526045Y283525D02*
X530695Y283525D01*
X530695Y273675D01*
X526045Y273675D01*
X526045Y278092D02*
X530695Y278092D01*
X530695Y282509D02*
X526045Y282509D01*
X513345Y283525D02*
X513345Y273675D01*
X513345Y283525D02*
X517995Y283525D01*
X517995Y273675D01*
X513345Y273675D01*
X513345Y278092D02*
X517995Y278092D01*
X517995Y282509D02*
X513345Y282509D01*
X500645Y283525D02*
X500645Y273675D01*
X500645Y283525D02*
X505295Y283525D01*
X505295Y273675D01*
X500645Y273675D01*
X500645Y278092D02*
X505295Y278092D01*
X505295Y282509D02*
X500645Y282509D01*
X487945Y283525D02*
X487945Y273675D01*
X487945Y283525D02*
X492595Y283525D01*
X492595Y273675D01*
X487945Y273675D01*
X487945Y278092D02*
X492595Y278092D01*
X492595Y282509D02*
X487945Y282509D01*
X475245Y283525D02*
X475245Y273675D01*
X475245Y283525D02*
X479895Y283525D01*
X479895Y273675D01*
X475245Y273675D01*
X475245Y278092D02*
X479895Y278092D01*
X479895Y282509D02*
X475245Y282509D01*
X462545Y283525D02*
X462545Y273675D01*
X462545Y283525D02*
X467195Y283525D01*
X467195Y273675D01*
X462545Y273675D01*
X462545Y278092D02*
X467195Y278092D01*
X467195Y282509D02*
X462545Y282509D01*
X449845Y283525D02*
X449845Y273675D01*
X449845Y283525D02*
X454495Y283525D01*
X454495Y273675D01*
X449845Y273675D01*
X449845Y278092D02*
X454495Y278092D01*
X454495Y282509D02*
X449845Y282509D01*
X437145Y283525D02*
X437145Y273675D01*
X437145Y283525D02*
X441795Y283525D01*
X441795Y273675D01*
X437145Y273675D01*
X437145Y278092D02*
X441795Y278092D01*
X441795Y282509D02*
X437145Y282509D01*
X424445Y283525D02*
X424445Y273675D01*
X424445Y283525D02*
X429095Y283525D01*
X429095Y273675D01*
X424445Y273675D01*
X424445Y278092D02*
X429095Y278092D01*
X429095Y282509D02*
X424445Y282509D01*
X411745Y283525D02*
X411745Y273675D01*
X411745Y283525D02*
X416395Y283525D01*
X416395Y273675D01*
X411745Y273675D01*
X411745Y278092D02*
X416395Y278092D01*
X416395Y282509D02*
X411745Y282509D01*
X399045Y283525D02*
X399045Y273675D01*
X399045Y283525D02*
X403695Y283525D01*
X403695Y273675D01*
X399045Y273675D01*
X399045Y278092D02*
X403695Y278092D01*
X403695Y282509D02*
X399045Y282509D01*
X386345Y283525D02*
X386345Y273675D01*
X386345Y283525D02*
X390995Y283525D01*
X390995Y273675D01*
X386345Y273675D01*
X386345Y278092D02*
X390995Y278092D01*
X390995Y282509D02*
X386345Y282509D01*
X373645Y283525D02*
X373645Y273675D01*
X373645Y283525D02*
X378295Y283525D01*
X378295Y273675D01*
X373645Y273675D01*
X373645Y278092D02*
X378295Y278092D01*
X378295Y282509D02*
X373645Y282509D01*
X360945Y283525D02*
X360945Y273675D01*
X360945Y283525D02*
X365595Y283525D01*
X365595Y273675D01*
X360945Y273675D01*
X360945Y278092D02*
X365595Y278092D01*
X365595Y282509D02*
X360945Y282509D01*
X348245Y283525D02*
X348245Y273675D01*
X348245Y283525D02*
X352895Y283525D01*
X352895Y273675D01*
X348245Y273675D01*
X348245Y278092D02*
X352895Y278092D01*
X352895Y282509D02*
X348245Y282509D01*
X335545Y283525D02*
X335545Y273675D01*
X335545Y283525D02*
X340195Y283525D01*
X340195Y273675D01*
X335545Y273675D01*
X335545Y278092D02*
X340195Y278092D01*
X340195Y282509D02*
X335545Y282509D01*
X340195Y107325D02*
X340195Y97475D01*
X335545Y97475D01*
X335545Y107325D01*
X340195Y107325D01*
X340195Y101892D02*
X335545Y101892D01*
X335545Y106309D02*
X340195Y106309D01*
X352895Y107325D02*
X352895Y97475D01*
X348245Y97475D01*
X348245Y107325D01*
X352895Y107325D01*
X352895Y101892D02*
X348245Y101892D01*
X348245Y106309D02*
X352895Y106309D01*
X365595Y107325D02*
X365595Y97475D01*
X360945Y97475D01*
X360945Y107325D01*
X365595Y107325D01*
X365595Y101892D02*
X360945Y101892D01*
X360945Y106309D02*
X365595Y106309D01*
X378295Y107325D02*
X378295Y97475D01*
X373645Y97475D01*
X373645Y107325D01*
X378295Y107325D01*
X378295Y101892D02*
X373645Y101892D01*
X373645Y106309D02*
X378295Y106309D01*
X390995Y107325D02*
X390995Y97475D01*
X386345Y97475D01*
X386345Y107325D01*
X390995Y107325D01*
X390995Y101892D02*
X386345Y101892D01*
X386345Y106309D02*
X390995Y106309D01*
X403695Y107325D02*
X403695Y97475D01*
X399045Y97475D01*
X399045Y107325D01*
X403695Y107325D01*
X403695Y101892D02*
X399045Y101892D01*
X399045Y106309D02*
X403695Y106309D01*
X416395Y107325D02*
X416395Y97475D01*
X411745Y97475D01*
X411745Y107325D01*
X416395Y107325D01*
X416395Y101892D02*
X411745Y101892D01*
X411745Y106309D02*
X416395Y106309D01*
X429095Y107325D02*
X429095Y97475D01*
X424445Y97475D01*
X424445Y107325D01*
X429095Y107325D01*
X429095Y101892D02*
X424445Y101892D01*
X424445Y106309D02*
X429095Y106309D01*
X441795Y107325D02*
X441795Y97475D01*
X437145Y97475D01*
X437145Y107325D01*
X441795Y107325D01*
X441795Y101892D02*
X437145Y101892D01*
X437145Y106309D02*
X441795Y106309D01*
X454495Y107325D02*
X454495Y97475D01*
X449845Y97475D01*
X449845Y107325D01*
X454495Y107325D01*
X454495Y101892D02*
X449845Y101892D01*
X449845Y106309D02*
X454495Y106309D01*
X467195Y107325D02*
X467195Y97475D01*
X462545Y97475D01*
X462545Y107325D01*
X467195Y107325D01*
X467195Y101892D02*
X462545Y101892D01*
X462545Y106309D02*
X467195Y106309D01*
X479895Y107325D02*
X479895Y97475D01*
X475245Y97475D01*
X475245Y107325D01*
X479895Y107325D01*
X479895Y101892D02*
X475245Y101892D01*
X475245Y106309D02*
X479895Y106309D01*
X492595Y107325D02*
X492595Y97475D01*
X487945Y97475D01*
X487945Y107325D01*
X492595Y107325D01*
X492595Y101892D02*
X487945Y101892D01*
X487945Y106309D02*
X492595Y106309D01*
X505295Y107325D02*
X505295Y97475D01*
X500645Y97475D01*
X500645Y107325D01*
X505295Y107325D01*
X505295Y101892D02*
X500645Y101892D01*
X500645Y106309D02*
X505295Y106309D01*
X517995Y107325D02*
X517995Y97475D01*
X513345Y97475D01*
X513345Y107325D01*
X517995Y107325D01*
X517995Y101892D02*
X513345Y101892D01*
X513345Y106309D02*
X517995Y106309D01*
X530695Y107325D02*
X530695Y97475D01*
X526045Y97475D01*
X526045Y107325D01*
X530695Y107325D01*
X530695Y101892D02*
X526045Y101892D01*
X526045Y106309D02*
X530695Y106309D01*
X543395Y107325D02*
X543395Y97475D01*
X538745Y97475D01*
X538745Y107325D01*
X543395Y107325D01*
X543395Y101892D02*
X538745Y101892D01*
X538745Y106309D02*
X543395Y106309D01*
X556095Y107325D02*
X556095Y97475D01*
X551445Y97475D01*
X551445Y107325D01*
X556095Y107325D01*
X556095Y101892D02*
X551445Y101892D01*
X551445Y106309D02*
X556095Y106309D01*
X568795Y107325D02*
X568795Y97475D01*
X564145Y97475D01*
X564145Y107325D01*
X568795Y107325D01*
X568795Y101892D02*
X564145Y101892D01*
X564145Y106309D02*
X568795Y106309D01*
D50*
X488570Y204300D03*
D16*
X512470Y355600D03*
X531470Y355600D03*
X445110Y354330D03*
X426110Y354330D03*
X445110Y320040D03*
X426110Y320040D03*
D10*
X243840Y573380D03*
X243840Y554380D03*
X287020Y573380D03*
X287020Y554380D03*
D51*
X265070Y697080D02*
X228600Y697080D01*
X225910Y697080D01*
X223520Y694690D02*
X220780Y691950D01*
X223520Y694690D02*
X225910Y697080D01*
X220780Y691950D02*
X220780Y678380D01*
D52*
X220780Y669590D01*
X215780Y669590D01*
D51*
X170125Y713795D02*
X170125Y724434D01*
X170125Y713795D02*
X172720Y711200D01*
X214480Y711200D02*
X224080Y701600D01*
X228600Y697080D01*
X214480Y711200D02*
X172720Y711200D01*
D53*
X223520Y701040D02*
X223520Y694690D01*
X223520Y701040D02*
X224080Y701600D01*
X158750Y701040D02*
X153670Y706120D01*
X153670Y730250D01*
X157480Y734060D01*
X188444Y743434D02*
X200632Y743434D01*
X179070Y734060D02*
X157480Y734060D01*
X179070Y734060D02*
X188444Y743434D01*
D54*
X158750Y701040D03*
D53*
X161950Y642010D02*
X147320Y642010D01*
X161950Y642010D02*
X165100Y645160D01*
D54*
X165100Y645160D03*
D53*
X167680Y647740D01*
X188930Y647740D01*
X188930Y657740D02*
X188930Y662740D01*
X102194Y664144D02*
X102194Y705670D01*
X102194Y664144D02*
X99060Y661010D01*
X172920Y662740D02*
X188930Y662740D01*
X172920Y662740D02*
X161290Y674370D01*
X135890Y674370D01*
X122530Y661010D02*
X99060Y661010D01*
X122530Y661010D02*
X135890Y674370D01*
X188810Y642620D02*
X188930Y642740D01*
X151240Y619870D02*
X151240Y603250D01*
X173990Y642620D02*
X188810Y642620D01*
X173990Y642620D02*
X151240Y619870D01*
X227630Y652740D02*
X238720Y652740D01*
X261620Y675640D02*
X269900Y675640D01*
X261620Y675640D02*
X238720Y652740D01*
X231140Y724434D02*
X200632Y724434D01*
X227630Y657740D02*
X234830Y657740D01*
X240030Y662940D02*
X240030Y689610D01*
D54*
X240030Y689610D03*
X240030Y706120D03*
D53*
X231140Y715010D01*
X231140Y724434D01*
X240030Y662940D02*
X234830Y657740D01*
X227630Y657740D02*
X227630Y662740D01*
X270510Y364330D02*
X271780Y364330D01*
X304930Y364330D02*
X309880Y359380D01*
X304930Y364330D02*
X271780Y364330D01*
X270510Y364330D02*
X261780Y364330D01*
X224630Y401480D02*
X224200Y401480D01*
X224630Y401480D02*
X261780Y364330D01*
X137738Y386080D02*
X137103Y385445D01*
X163990Y401480D02*
X182200Y401480D01*
X148590Y386080D02*
X137738Y386080D01*
X148590Y386080D02*
X163990Y401480D01*
X189191Y366400D02*
X206195Y366400D01*
X163830Y357480D02*
X162560Y357480D01*
X163830Y357480D02*
X180271Y357480D01*
X215115Y357480D02*
X232826Y357480D01*
X189191Y366400D02*
X180271Y357480D01*
X206195Y366400D02*
X215115Y357480D01*
X137103Y372167D02*
X137103Y385445D01*
X161900Y359410D02*
X163830Y357480D01*
X149860Y359410D02*
X137103Y372167D01*
X149860Y359410D02*
X161900Y359410D01*
D51*
X182200Y421480D02*
X182200Y453980D01*
X194375Y466155D02*
X194375Y476275D01*
X194375Y466155D02*
X182200Y453980D01*
D53*
X182200Y421480D02*
X152240Y421480D01*
X148273Y417513D02*
X136103Y417513D01*
X148273Y417513D02*
X152240Y421480D01*
X161392Y476275D02*
X194375Y476275D01*
X292125Y495275D02*
X303530Y495275D01*
X285275Y502125D02*
X267995Y502125D01*
X285275Y502125D02*
X292125Y495275D01*
X267995Y502125D02*
X229910Y502125D01*
X232250Y421480D02*
X224200Y421480D01*
X232250Y421480D02*
X234950Y424180D01*
X234950Y434340D01*
X248950Y448340D01*
X309880Y448340D01*
X303530Y476275D02*
X303530Y476275D01*
X303530Y466090D01*
X309880Y459740D02*
X309880Y448340D01*
X309880Y459740D02*
X303530Y466090D01*
D54*
X142240Y267970D03*
D53*
X142240Y266700D01*
X143880Y265060D01*
X150950Y265060D01*
D54*
X196850Y257810D03*
D53*
X255920Y257810D01*
D55*
X180986Y220060D02*
X180460Y220060D01*
D53*
X171450Y81880D02*
X158750Y81880D01*
D51*
X171450Y81880D02*
X194980Y81880D01*
X209550Y67310D01*
X171450Y81880D02*
X171450Y97790D01*
X196850Y123190D02*
X196850Y139700D01*
D54*
X196850Y139700D03*
X196850Y154940D03*
D51*
X196850Y123190D02*
X171450Y97790D01*
X189230Y212090D02*
X189230Y217170D01*
X186690Y219710D01*
D53*
X186340Y220060D01*
X180986Y220060D01*
D51*
X196850Y204470D02*
X196850Y154940D01*
X196850Y204470D02*
X189230Y212090D01*
D54*
X189230Y199390D03*
D53*
X186560Y202060D02*
X180460Y202060D01*
X186560Y202060D02*
X189230Y199390D01*
D54*
X161290Y204470D03*
D53*
X151540Y204470D01*
X150950Y205060D01*
X241300Y245110D02*
X255920Y245110D01*
D54*
X241300Y245110D03*
D53*
X151150Y175260D02*
X150950Y175060D01*
X180900Y190500D02*
X185420Y190500D01*
X180900Y190500D02*
X180460Y190060D01*
X165510Y175260D02*
X172496Y168274D01*
X184657Y168274D02*
X187960Y171577D01*
X165510Y175260D02*
X151150Y175260D01*
X172496Y168274D02*
X184657Y168274D01*
X187960Y171577D02*
X187960Y187960D01*
X186055Y189865D02*
X185420Y190500D01*
X186055Y189865D02*
X187960Y187960D01*
X187325Y189865D02*
X186055Y189865D01*
X187325Y189865D02*
X190500Y193040D01*
D54*
X190500Y193040D03*
D53*
X245110Y219710D02*
X255920Y219710D01*
X245110Y219710D02*
X242288Y216888D01*
X242288Y200660D01*
D54*
X242288Y200660D03*
D51*
X232826Y338480D02*
X197693Y338480D01*
X162560Y338480D01*
X132683Y338480D01*
X132080Y337877D01*
X130810Y336607D01*
X130810Y219710D01*
X130810Y213360D01*
X134620Y217170D02*
X139700Y217170D01*
D52*
X150840Y217170D01*
X150950Y217060D01*
D51*
X253840Y331630D02*
X270510Y331630D01*
X246990Y338480D02*
X232826Y338480D01*
X246990Y338480D02*
X253840Y331630D01*
X228600Y137160D02*
X228600Y114808D01*
X218440Y147320D02*
X156210Y147320D01*
X130810Y172720D01*
X218440Y147320D02*
X228600Y137160D01*
X130810Y172720D02*
X130810Y213360D01*
X134620Y217170D01*
X133350Y217170D01*
X130810Y219710D01*
X196850Y309245D02*
X196850Y337637D01*
X197693Y338480D01*
X205105Y38735D02*
X230530Y38735D01*
X196250Y29880D02*
X171450Y29880D01*
X196250Y29880D02*
X201930Y35560D01*
X205105Y38735D01*
X228600Y40665D02*
X230530Y38735D01*
X228600Y40665D02*
X228600Y65532D01*
X201930Y41910D02*
X205105Y38735D01*
X201930Y41910D02*
X195580Y48260D01*
X144780Y48260D01*
D54*
X123190Y279400D03*
D51*
X119380Y275590D01*
D55*
X174600Y280060D02*
X180460Y280060D01*
X174600Y280060D02*
X172720Y281940D01*
D54*
X172720Y281940D03*
D55*
X201930Y41910D02*
X201930Y35560D01*
D51*
X228600Y65532D02*
X228600Y83820D01*
X228600Y83820D01*
D54*
X228600Y83820D03*
X218440Y111760D03*
D51*
X215900Y114300D01*
X205740Y114300D01*
X144780Y48260D02*
X139700Y53340D01*
X119380Y175260D02*
X119380Y275590D01*
X139700Y154940D02*
X139700Y53340D01*
X139700Y154940D02*
X119380Y175260D01*
X56490Y120015D02*
X56490Y108610D01*
X72390Y92710D01*
X72390Y80518D01*
X72542Y80670D01*
X99060Y80670D01*
X132140Y80670D01*
X133350Y81880D01*
X102870Y76860D02*
X99060Y80670D01*
X102870Y76860D02*
X102870Y35560D01*
X75565Y120015D02*
X56490Y120015D01*
X75565Y120015D02*
X107950Y152400D01*
X107950Y281940D01*
X113030Y287020D01*
X120650Y287020D01*
D54*
X120650Y287020D03*
X138430Y285750D03*
D55*
X141120Y283060D02*
X150950Y283060D01*
X141120Y283060D02*
X138430Y285750D01*
D53*
X452170Y278600D02*
X452756Y278014D01*
X452756Y267955D01*
X423561Y238760D01*
X180786Y250386D02*
X180460Y250060D01*
X238760Y238760D02*
X423561Y238760D01*
X238760Y238760D02*
X227134Y250386D01*
X180786Y250386D01*
X159340Y247060D02*
X150950Y247060D01*
X159340Y247060D02*
X160020Y246380D01*
D54*
X160020Y246380D03*
D53*
X229362Y181708D02*
X243938Y167132D01*
X282038Y167132D01*
X305562Y143608D02*
X305562Y119478D01*
X337918Y87122D01*
X305562Y143608D02*
X282038Y167132D01*
X337918Y87122D02*
X409702Y87122D01*
X414070Y91490D02*
X414070Y102400D01*
X414070Y91490D02*
X409702Y87122D01*
X229362Y181708D02*
X229362Y225733D01*
X214848Y240248D01*
D54*
X214848Y240248D03*
D53*
X180661Y243859D02*
X180460Y244060D01*
X180661Y243859D02*
X203181Y243859D01*
X334010Y83820D02*
X447040Y83820D01*
X452650Y89430D01*
X334010Y83820D02*
X299720Y118110D01*
X299720Y142240D01*
X279400Y162560D01*
X242570Y162560D01*
X224790Y180340D01*
X224790Y222250D01*
X203181Y243859D01*
X452650Y101920D02*
X452650Y89430D01*
X452650Y101920D02*
X452170Y102400D01*
D54*
X171450Y243840D03*
X199390Y238760D03*
D53*
X171450Y243840D02*
X165100Y243840D01*
X457200Y80010D02*
X465350Y88160D01*
X162320Y241060D02*
X150950Y241060D01*
X162320Y241060D02*
X165100Y243840D01*
X240030Y158750D02*
X274320Y158750D01*
X240030Y158750D02*
X219710Y179070D01*
X330200Y80010D02*
X457200Y80010D01*
X330200Y80010D02*
X294640Y115570D01*
X294640Y138430D01*
X274320Y158750D01*
X219710Y179070D02*
X219710Y218440D01*
X199390Y238760D01*
X465350Y101920D02*
X465350Y88160D01*
X465350Y101920D02*
X464870Y102400D01*
X478050Y84350D02*
X469900Y76200D01*
X326390Y76200D02*
X289560Y113030D01*
X289560Y135890D01*
X192060Y238060D02*
X180460Y238060D01*
X326390Y76200D02*
X469900Y76200D01*
X289560Y135890D02*
X271780Y153670D01*
X215618Y214502D02*
X192060Y238060D01*
X215618Y214502D02*
X215618Y176812D01*
X238760Y153670D02*
X271780Y153670D01*
X238760Y153670D02*
X215618Y176812D01*
X478050Y101920D02*
X478050Y84350D01*
X478050Y101920D02*
X477570Y102400D01*
X168365Y235060D02*
X150950Y235060D01*
X168365Y235060D02*
X170597Y232827D01*
D54*
X170597Y232827D03*
D53*
X487680Y71120D02*
X504190Y87630D01*
X284480Y110490D02*
X284480Y133350D01*
D54*
X210820Y208280D03*
D53*
X323850Y71120D02*
X487680Y71120D01*
X323850Y71120D02*
X284480Y110490D01*
X210820Y175260D02*
X210820Y208280D01*
X237490Y148590D02*
X269240Y148590D01*
X284480Y133350D01*
X237490Y148590D02*
X210820Y175260D01*
X504190Y101180D02*
X504190Y87630D01*
X504190Y101180D02*
X502970Y102400D01*
X180594Y231926D02*
X180460Y232060D01*
X180594Y231926D02*
X190984Y231926D01*
X519430Y66040D02*
X541550Y88160D01*
X205740Y217170D02*
X190984Y231926D01*
X321310Y66040D02*
X519430Y66040D01*
X321310Y66040D02*
X279400Y107950D01*
X279400Y130810D01*
X266700Y143510D01*
X236220Y143510D02*
X205740Y173990D01*
X236220Y143510D02*
X266700Y143510D01*
X205740Y173990D02*
X205740Y217170D01*
X541550Y101920D02*
X541550Y88160D01*
X541550Y101920D02*
X541070Y102400D01*
X164640Y229060D02*
X150950Y229060D01*
X164640Y229060D02*
X166370Y227330D01*
D54*
X166370Y227330D03*
X194310Y220980D03*
D53*
X320040Y59690D02*
X527050Y59690D01*
X320040Y59690D02*
X274320Y105410D01*
X262890Y138430D02*
X234950Y138430D01*
X262890Y138430D02*
X274320Y127000D01*
X234950Y138430D02*
X201295Y172085D01*
X274320Y127000D02*
X274320Y105410D01*
X553770Y102400D02*
X553770Y86410D01*
X527050Y59690D01*
X195580Y219710D02*
X194310Y220980D01*
X195580Y219710D02*
X195580Y213360D01*
X201295Y207645D02*
X201295Y172085D01*
X201295Y207645D02*
X195580Y213360D01*
D51*
X112370Y99670D02*
X99060Y99670D01*
X123350Y110650D02*
X130590Y110650D01*
X123350Y110650D02*
X112370Y99670D01*
X146050Y81880D02*
X146050Y81880D01*
X146050Y97790D01*
X152400Y104140D01*
X160020Y104140D01*
X163090Y107210D01*
X163090Y120650D01*
X366870Y681990D02*
X366870Y701200D01*
X363220Y704850D01*
X284840Y704850D02*
X283570Y703580D01*
X284840Y704850D02*
X363220Y704850D01*
X265070Y710080D02*
X265070Y728730D01*
X263550Y730250D01*
D53*
X27490Y535940D02*
X27490Y508180D01*
X27980Y507690D01*
X32980Y507690D02*
X32980Y514310D01*
X34290Y515620D01*
X39370Y515620D01*
X49490Y525740D01*
X64541Y574699D02*
X64541Y595630D01*
X49490Y559648D02*
X49490Y525740D01*
X49490Y559648D02*
X64541Y574699D01*
X64541Y595630D02*
X64541Y620801D01*
X66040Y622300D01*
D51*
X269900Y639128D02*
X269900Y648360D01*
X298450Y651510D02*
X306430Y643530D01*
X298450Y651510D02*
X273050Y651510D01*
X269900Y648360D01*
X268948Y640080D02*
X269900Y639128D01*
D52*
X234830Y642740D02*
X227630Y642740D01*
X234830Y642740D02*
X237490Y640080D01*
D51*
X344170Y619760D02*
X351790Y612140D01*
X344170Y619760D02*
X344170Y633370D01*
X350065Y639265D02*
X350700Y639900D01*
X350065Y639265D02*
X344170Y633370D01*
X351790Y612140D02*
X351790Y595605D01*
X391503Y595605D01*
X423170Y569970D02*
X436190Y569970D01*
X397535Y595605D02*
X391503Y595605D01*
X397535Y595605D02*
X423170Y569970D01*
X514096Y624230D02*
X546100Y624230D01*
X514096Y624230D02*
X512826Y625500D01*
X436190Y569970D02*
X436190Y563470D01*
X436190Y569970D02*
X449320Y569970D01*
D54*
X237490Y640080D03*
D51*
X268948Y640080D01*
D54*
X185420Y626110D03*
D51*
X181610Y629920D01*
X185620Y637740D02*
X188930Y637740D01*
X185420Y626110D02*
X187960Y623570D01*
X181610Y629920D02*
X181610Y633730D01*
X185620Y637740D01*
X187960Y623570D02*
X193040Y623570D01*
X195780Y626310D01*
X195780Y630890D01*
X200780Y630890D01*
X350700Y640510D02*
X353720Y643530D01*
X350700Y640510D02*
X350700Y639900D01*
X347980Y643530D02*
X353720Y643530D01*
X347980Y643530D02*
X306430Y643530D01*
X347980Y643530D02*
X350065Y641445D01*
X350065Y639265D01*
D53*
X204470Y533650D02*
X203704Y534416D01*
D51*
X204470Y521970D02*
X201930Y519430D01*
X204470Y521970D02*
X204470Y533650D01*
X491790Y667720D02*
X491790Y717550D01*
X496570Y662940D02*
X496570Y633730D01*
X496570Y662940D02*
X491790Y667720D01*
X494030Y631190D02*
X488340Y625500D01*
X494030Y631190D02*
X496570Y633730D01*
X488340Y625500D02*
X474472Y625500D01*
X504800Y625500D02*
X512826Y625500D01*
X499110Y631190D02*
X496570Y633730D01*
X499110Y631190D02*
X504800Y625500D01*
X499110Y631190D02*
X494030Y631190D01*
X474472Y625500D02*
X474472Y595122D01*
X449320Y569970D01*
X167640Y589280D02*
X167640Y608330D01*
X167640Y589280D02*
X161290Y582930D01*
X129735Y582930D02*
X115570Y568765D01*
X115570Y527050D01*
X123190Y519430D01*
X144780Y519430D01*
X148512Y523162D01*
X148512Y535686D01*
X167640Y608330D02*
X185420Y626110D01*
X161290Y582930D02*
X129735Y582930D01*
X144780Y519430D02*
X152244Y519430D01*
X201930Y519430D01*
X152244Y519430D02*
X148512Y523162D01*
D53*
X502707Y421427D02*
X513712Y421427D01*
X502707Y421427D02*
X480143Y398863D01*
X443840Y422910D02*
X443840Y454660D01*
X443840Y422910D02*
X452120Y422910D01*
X476167Y398863D02*
X477520Y398863D01*
X480143Y398863D01*
X476167Y398863D02*
X452120Y422910D01*
X477520Y398863D02*
X506813Y369570D01*
X518160Y369570D01*
X521970Y365760D01*
X521970Y317500D01*
X541550Y279080D02*
X541070Y278600D01*
X541550Y279080D02*
X541550Y297180D01*
X530225Y309245D02*
X521970Y317500D01*
X530225Y309245D02*
X530860Y308610D01*
X530225Y308505D02*
X541550Y297180D01*
X530225Y308505D02*
X530225Y309245D01*
X522262Y405130D02*
X524802Y407670D01*
X524802Y430412D01*
X528817Y434427D01*
X532812Y434427D01*
X544830Y229870D02*
X544830Y184150D01*
D54*
X556260Y347980D03*
D53*
X544830Y184150D02*
X475262Y114582D01*
X382355Y342110D02*
X382355Y402110D01*
D54*
X425450Y405130D03*
X522262Y405130D03*
D53*
X522531Y404861D01*
X522531Y381317D01*
X425450Y390500D02*
X424840Y389890D01*
X424180Y403860D02*
X422910Y405130D01*
X424180Y403860D02*
X425450Y402590D01*
X425450Y390500D01*
X425450Y402590D02*
X425450Y405130D01*
X422910Y405130D01*
X400840Y402110D02*
X382355Y402110D01*
X400840Y402110D02*
X402590Y403860D01*
X403860Y405130D01*
X422910Y405130D01*
X424180Y403860D02*
X425450Y405130D01*
X401370Y111810D02*
X401370Y102400D01*
X404142Y114582D02*
X475262Y114582D01*
X404142Y114582D02*
X401370Y111810D01*
D54*
X544830Y229870D03*
D53*
X530468Y373380D02*
X522531Y381317D01*
X556260Y367030D02*
X556260Y347980D01*
X549910Y373380D02*
X530468Y373380D01*
X549910Y373380D02*
X556260Y367030D01*
X424840Y486410D02*
X405130Y486410D01*
X382355Y449665D02*
X382355Y449580D01*
X382355Y437360D01*
X405130Y486410D02*
X394970Y496570D01*
X383145Y496570D02*
X382355Y497360D01*
X383145Y496570D02*
X394970Y496570D01*
X388620Y422910D02*
X424840Y422910D01*
X388620Y422910D02*
X382270Y429260D01*
X382270Y437275D01*
X382355Y437360D01*
X382355Y449665D02*
X382355Y497360D01*
X477570Y278600D02*
X476886Y277916D01*
X476886Y266685D01*
X429911Y219710D01*
X305420Y219710D01*
X464870Y268020D02*
X464870Y278600D01*
X422910Y226060D02*
X293370Y226060D01*
X289560Y222250D01*
X293370Y207010D02*
X305420Y207010D01*
X422910Y226060D02*
X464870Y268020D01*
X289560Y222250D02*
X289560Y210820D01*
X293370Y207010D01*
X401370Y278600D02*
X401370Y289510D01*
X401320Y289560D01*
X401320Y293370D01*
X407797Y299847D01*
X490093Y299847D02*
X496570Y293370D01*
D54*
X496570Y293370D03*
X496570Y252730D03*
D53*
X490093Y299847D02*
X407797Y299847D01*
X494030Y250190D02*
X496570Y252730D01*
X479489Y250190D02*
X423609Y194310D01*
X479489Y250190D02*
X494030Y250190D01*
X423609Y194310D02*
X305420Y194310D01*
X496570Y252730D02*
X505460Y243840D01*
X551180Y243840D02*
X554990Y240030D01*
X554990Y180340D01*
X506730Y132080D02*
X506730Y124460D01*
D54*
X506730Y124460D03*
X506730Y45720D03*
D53*
X499110Y38100D01*
X499110Y17780D01*
X494030Y12700D01*
X437515Y12700D02*
X420370Y29845D01*
X505460Y243840D02*
X551180Y243840D01*
X554990Y180340D02*
X506730Y132080D01*
X494030Y12700D02*
X437515Y12700D01*
X180550Y267970D02*
X180460Y268060D01*
X388670Y119330D02*
X388670Y102400D01*
X286043Y176276D02*
X245403Y176276D01*
X237490Y184189D02*
X237490Y232410D01*
X224790Y245110D01*
D54*
X224790Y245110D03*
X222250Y267970D03*
D53*
X180550Y267970D01*
X386715Y121285D02*
X388670Y119330D01*
X245403Y176276D02*
X237490Y184189D01*
X286043Y176276D02*
X313690Y148629D01*
X316865Y121285D02*
X386715Y121285D01*
X313690Y124460D02*
X313690Y148629D01*
X313690Y124460D02*
X316865Y121285D01*
D54*
X171450Y252730D03*
D53*
X158750Y265430D01*
X158750Y267970D01*
X155660Y271060D01*
X150950Y271060D01*
X375970Y113080D02*
X375970Y102400D01*
D54*
X379730Y115570D03*
D53*
X233624Y183386D02*
X233624Y228656D01*
X233624Y183386D02*
X245306Y171704D01*
X373480Y115570D02*
X375970Y113080D01*
X309880Y121920D02*
X309880Y146050D01*
X284226Y171704D01*
X316230Y115570D02*
X373480Y115570D01*
X316230Y115570D02*
X309880Y121920D01*
X284226Y171704D02*
X245306Y171704D01*
X216692Y245588D02*
X208280Y245588D01*
D54*
X208280Y245588D03*
D53*
X216692Y245588D02*
X233624Y228656D01*
X373480Y115570D02*
X379730Y115570D01*
X378460Y115570D02*
X375970Y113080D01*
X378460Y115570D02*
X379730Y115570D01*
D54*
X383540Y53340D03*
D53*
X383540Y43815D01*
X369570Y29845D01*
X180460Y172060D02*
X173380Y172060D01*
X158380Y187060D02*
X150950Y187060D01*
X162560Y182880D02*
X173380Y172060D01*
X162560Y182880D02*
X158380Y187060D01*
D54*
X162560Y182880D03*
X243840Y186690D03*
D53*
X439420Y278650D02*
X439470Y278600D01*
X439420Y278650D02*
X439420Y288290D01*
X442877Y291747D01*
X477520Y291747D01*
D54*
X477520Y291747D03*
X481330Y243840D03*
D53*
X424180Y186690D01*
X243840Y186690D01*
D54*
X160020Y254000D03*
D53*
X151280Y252730D02*
X150950Y253060D01*
X158750Y252730D02*
X160020Y254000D01*
X158750Y252730D02*
X151280Y252730D01*
X426770Y268020D02*
X426770Y278600D01*
D54*
X187960Y260350D03*
D53*
X190706Y263096D01*
X421846Y263096D01*
X426770Y268020D01*
D51*
X194375Y495275D02*
X161392Y495275D01*
X128409Y495275D01*
X95425Y495275D01*
X194375Y495275D02*
X215925Y495275D01*
X229910Y481290D02*
X229910Y469425D01*
X229910Y481290D02*
X215925Y495275D01*
X95425Y495275D02*
X94180Y494030D01*
X86360Y494030D01*
X81280Y488950D01*
X81280Y421640D01*
X76200Y416560D01*
X67310Y416560D01*
X60960Y410210D01*
X60960Y370840D01*
X59690Y31242D02*
X46990Y31242D01*
X19050Y328930D02*
X60960Y370840D01*
X19050Y328930D02*
X19050Y313690D01*
X19050Y309880D01*
X19050Y306070D01*
X19050Y228600D01*
X46990Y80518D02*
X59690Y80518D01*
X59690Y31242D01*
D54*
X171450Y214128D03*
D51*
X171454Y214132D01*
D55*
X180388Y214132D01*
X180460Y214060D01*
D51*
X30480Y217170D02*
X19050Y228600D01*
X30480Y217170D02*
X33020Y214630D01*
X34290Y213360D01*
X33020Y214630D02*
X100330Y214630D01*
D54*
X100330Y214630D03*
D51*
X34290Y213360D02*
X29845Y208915D01*
X19050Y198120D01*
X19050Y64770D02*
X24130Y59690D01*
X43180Y59690D01*
X46990Y63500D01*
X46990Y80518D01*
X19050Y64770D02*
X19050Y198120D01*
X32385Y309880D02*
X33020Y310515D01*
X32385Y309880D02*
X22860Y309880D01*
X19050Y309880D01*
X22860Y309880D02*
X19050Y313690D01*
X22860Y309880D02*
X19050Y306070D01*
X29845Y216535D02*
X29845Y208915D01*
X29845Y216535D02*
X30480Y217170D01*
X110490Y434340D02*
X168910Y434340D01*
X170180Y435610D01*
X168910Y435610D01*
D54*
X168910Y435610D03*
X198120Y427990D03*
D51*
X214630Y411480D01*
X110490Y434340D02*
X102870Y441960D01*
D55*
X214630Y411480D02*
X224200Y411480D01*
D51*
X241910Y403250D02*
X248920Y403250D01*
X241910Y403250D02*
X233680Y411480D01*
D55*
X224200Y411480D01*
D51*
X248920Y403250D02*
X276200Y403250D01*
X292070Y387380D02*
X309880Y387380D01*
X292070Y387380D02*
X276200Y403250D01*
X309880Y387380D02*
X309880Y420340D01*
X102870Y441960D02*
X87990Y441960D01*
D53*
X172460Y178060D02*
X180460Y178060D01*
X172460Y178060D02*
X167640Y182880D01*
X172720Y196060D02*
X180460Y196060D01*
X167400Y211060D02*
X161290Y211060D01*
X158750Y211060D01*
X150950Y211060D01*
X167400Y211060D02*
X170400Y208060D01*
X145720Y199060D02*
X143510Y196850D01*
X145720Y199060D02*
X150950Y199060D01*
X150710Y210820D02*
X150950Y211060D01*
X150710Y210820D02*
X146050Y210820D01*
X143510Y208280D01*
X143510Y201270D01*
X145720Y199060D01*
X175740Y256060D02*
X180460Y256060D01*
X173990Y257810D02*
X173990Y260350D01*
X173990Y261620D01*
X173990Y264160D01*
X173990Y265430D01*
X173990Y267970D01*
X173990Y271780D01*
X176270Y274060D02*
X180460Y274060D01*
X173990Y257810D02*
X175740Y256060D01*
X173990Y271780D02*
X176270Y274060D01*
X176090Y262060D02*
X180460Y262060D01*
X175700Y262060D02*
X174430Y262060D01*
X173990Y261620D01*
X175260Y262890D02*
X176090Y262060D01*
X175260Y262890D02*
X173990Y264160D01*
X175700Y262060D02*
X176090Y262060D01*
X175700Y262060D02*
X173990Y260350D01*
X143510Y201270D02*
X143510Y196850D01*
X145330Y181060D02*
X150950Y181060D01*
X143510Y182880D02*
X143510Y196850D01*
X143510Y182880D02*
X145330Y181060D01*
X161290Y211060D02*
X160020Y212330D01*
X160020Y220980D01*
D54*
X160020Y220980D03*
X167640Y265430D03*
D53*
X171450Y265430D01*
X173990Y265430D01*
X171450Y265430D02*
X173990Y267970D01*
X173990Y262890D02*
X175260Y262890D01*
X173990Y262890D02*
X171450Y265430D01*
X160020Y212330D02*
X158750Y211060D01*
X172500Y208060D02*
X180460Y208060D01*
X172500Y208060D02*
X170400Y208060D01*
X171210Y194550D02*
X167640Y190980D01*
X171210Y194550D02*
X172720Y196060D01*
X167640Y190980D02*
X167640Y182880D01*
X172720Y196060D02*
X171210Y197570D01*
X170180Y198600D01*
X170180Y205740D01*
X172500Y208060D01*
X170180Y207840D02*
X170180Y205740D01*
X170180Y207840D02*
X170400Y208060D01*
D51*
X309880Y387380D02*
X327630Y387380D01*
X331470Y383540D01*
X331470Y322580D01*
X328930Y320040D01*
X320040Y311150D01*
X317500Y311150D01*
D54*
X317500Y311150D03*
X271780Y309880D03*
D51*
X229870Y309880D02*
X194310Y274320D01*
D53*
X194050Y274060D01*
X180460Y274060D01*
D51*
X229870Y309880D02*
X271780Y309880D01*
D53*
X171210Y197570D02*
X171210Y194550D01*
D51*
X436230Y582930D02*
X436190Y582970D01*
X436230Y582930D02*
X449580Y582930D01*
D54*
X449580Y582930D03*
X463550Y568960D03*
D51*
X463550Y560070D02*
X492650Y530970D01*
X463550Y560070D02*
X463550Y568960D01*
X492650Y530970D02*
X508690Y530970D01*
X527160Y530970D01*
X529590Y533400D01*
X529590Y560730D01*
D53*
X542925Y431165D02*
X539687Y427927D01*
X532812Y427927D01*
X542925Y431165D02*
X542925Y442595D01*
X532587Y452933D02*
X532587Y466090D01*
X532587Y452933D02*
X542925Y442595D01*
X521232Y426242D02*
X519287Y428187D01*
X521232Y426242D02*
X521232Y419152D01*
X513712Y427927D02*
X513972Y428187D01*
X519287Y428187D01*
X521232Y419152D02*
X514350Y412270D01*
X514350Y391797D02*
X512317Y389764D01*
X514350Y391797D02*
X514350Y412270D01*
X508690Y524470D02*
X538440Y524470D01*
X539115Y525145D02*
X539115Y528320D01*
X539115Y525145D02*
X538440Y524470D01*
X557530Y394970D02*
X552324Y389764D01*
X531317Y389764D01*
X532812Y391259D01*
X532812Y421427D01*
X557530Y469999D02*
X548640Y478889D01*
X548640Y518795D02*
X539115Y528320D01*
X548640Y518795D02*
X548640Y478889D01*
X557530Y469999D02*
X557530Y394970D01*
X513587Y466090D02*
X513587Y472312D01*
X539115Y497840D01*
X538480Y498475D01*
X538480Y509270D01*
X529780Y517970D01*
X508690Y517970D01*
X513587Y466090D02*
X513712Y465965D01*
X513712Y434427D01*
X508690Y537470D02*
X519690Y537470D01*
X521970Y539750D01*
D54*
X521970Y539750D03*
X548640Y539750D03*
X567690Y314960D03*
D53*
X548640Y523844D02*
X548640Y539750D01*
X567210Y315440D02*
X567690Y314960D01*
X567210Y505274D02*
X548640Y523844D01*
X567210Y505274D02*
X567210Y315440D01*
X548640Y41275D02*
X537210Y29845D01*
X548640Y45720D02*
X548640Y46990D01*
X548640Y45720D02*
X548640Y41275D01*
D54*
X567690Y257810D03*
D53*
X567690Y151130D01*
X528320Y111760D02*
X528320Y102450D01*
X528370Y102400D01*
D54*
X565150Y81280D03*
D53*
X565150Y62230D01*
X548640Y45720D01*
X565150Y148590D02*
X567690Y151130D01*
X565150Y148590D02*
X561975Y145415D01*
D54*
X565150Y137160D03*
D53*
X561975Y145415D02*
X528320Y111760D01*
X565150Y137160D02*
X565150Y143510D01*
X565150Y146050D01*
X565150Y148590D01*
X565150Y146050D02*
X564515Y145415D01*
X563245Y145415D01*
X565150Y143510D01*
X563245Y145415D02*
X561975Y145415D01*
X525440Y511470D02*
X508690Y511470D01*
X525440Y511470D02*
X525780Y511810D01*
D54*
X525780Y511810D03*
X556260Y505460D03*
D53*
X557530Y505460D01*
X562370Y500620D01*
X562370Y299960D02*
X562610Y299720D01*
X562370Y299960D02*
X562370Y500620D01*
D54*
X562610Y299720D03*
D53*
X524510Y48260D02*
X524510Y42545D01*
X511810Y29845D01*
D54*
X562610Y264160D03*
D53*
X562610Y168910D01*
X557530Y163830D01*
X555625Y161925D01*
X554355Y160655D01*
X557530Y160020D02*
X557530Y163830D01*
D54*
X557530Y154940D03*
D53*
X557530Y158750D02*
X557530Y160020D01*
X557530Y158750D02*
X557530Y154940D01*
D54*
X557530Y81280D03*
D53*
X524510Y48260D01*
X556260Y160020D02*
X557530Y160020D01*
X554990Y160020D02*
X554355Y160655D01*
X555625Y161925D02*
X557530Y160020D01*
X557530Y158750D02*
X556260Y160020D01*
X554990Y160020D01*
X516608Y114853D02*
X515670Y113915D01*
X515670Y102400D01*
X516608Y114853D02*
X516608Y122908D01*
X554355Y160655D01*
D51*
X351790Y546615D02*
X351790Y576605D01*
X351790Y546615D02*
X350520Y545345D01*
X350520Y530345D02*
X368815Y530345D01*
X381000Y518160D01*
X401320Y518160D01*
X427130Y543970D02*
X436190Y543970D01*
X427130Y543970D02*
X401320Y518160D01*
X391503Y545345D02*
X391503Y576605D01*
X391503Y530345D02*
X399535Y530345D01*
X419660Y550470D02*
X436190Y550470D01*
X419660Y550470D02*
X399535Y530345D01*
D53*
X123240Y603250D02*
X123190Y603250D01*
X200660Y669710D02*
X200780Y669590D01*
X200660Y679450D02*
X198755Y681355D01*
X198120Y681990D01*
X200660Y679450D02*
X200660Y669710D01*
X195780Y669590D02*
X195780Y679650D01*
X198120Y681990D01*
X198755Y681355D02*
X198443Y681043D01*
D54*
X198443Y681043D03*
D51*
X288900Y639128D02*
X300673Y639128D01*
X303530Y636270D01*
D54*
X303530Y636270D03*
D51*
X355720Y632580D02*
X355720Y623930D01*
X355720Y632580D02*
X360680Y637540D01*
D54*
X360680Y637540D03*
D51*
X423620Y556970D02*
X436190Y556970D01*
X423620Y556970D02*
X422910Y556260D01*
D54*
X422910Y556260D03*
D51*
X426830Y576470D02*
X436190Y576470D01*
X426830Y576470D02*
X424180Y579120D01*
D54*
X424180Y579120D03*
D51*
X508690Y550470D02*
X518870Y550470D01*
X520700Y548640D01*
D54*
X520700Y548640D03*
D51*
X561950Y643230D02*
X562610Y643890D01*
X561950Y643230D02*
X546100Y643230D01*
D54*
X562610Y643890D03*
D51*
X527050Y645160D02*
X526390Y644500D01*
X512826Y644500D01*
D54*
X527050Y645160D03*
D51*
X489560Y644500D02*
X474472Y644500D01*
X489560Y644500D02*
X490220Y645160D01*
D54*
X490220Y645160D03*
D51*
X530250Y580390D02*
X529590Y579730D01*
X530250Y580390D02*
X543560Y580390D01*
D54*
X543560Y580390D03*
D51*
X309245Y38735D02*
X296520Y38735D01*
X309245Y38735D02*
X309880Y38100D01*
D54*
X309880Y38100D03*
D51*
X241300Y65532D02*
X241300Y65532D01*
X241300Y54610D01*
X243840Y52070D01*
X247650Y52070D01*
D54*
X247650Y52070D03*
D51*
X254000Y65532D02*
X254000Y65532D01*
X254000Y54610D01*
X251460Y52070D01*
X247650Y52070D01*
X241300Y114808D02*
X241300Y128270D01*
X243840Y130810D01*
X247650Y130810D01*
D54*
X247650Y130810D03*
D51*
X130590Y130650D02*
X129480Y129540D01*
X121920Y129540D02*
X119380Y127000D01*
D54*
X119380Y127000D03*
D51*
X121920Y129540D02*
X129480Y129540D01*
X34290Y31242D02*
X33528Y30480D01*
X26670Y30480D01*
D54*
X26670Y30480D03*
D51*
X56490Y146050D02*
X67310Y146050D01*
D54*
X67310Y146050D03*
D55*
X175350Y184060D02*
X180460Y184060D01*
X172438Y186972D02*
X172438Y187983D01*
D54*
X172438Y187983D03*
D55*
X172438Y186972D02*
X175350Y184060D01*
X158730Y193060D02*
X150950Y193060D01*
X158730Y193060D02*
X158750Y193040D01*
D54*
X158750Y193040D03*
D55*
X150950Y259060D02*
X138450Y259060D01*
X137577Y259933D01*
D54*
X137577Y259933D03*
D55*
X144980Y277060D02*
X150950Y277060D01*
X141738Y273818D02*
X139187Y273818D01*
D54*
X139187Y273818D03*
D55*
X141738Y273818D02*
X144980Y277060D01*
D51*
X194543Y354330D02*
X197693Y357480D01*
X194543Y354330D02*
X185420Y354330D01*
D54*
X185420Y354330D03*
D51*
X101918Y337877D02*
X101861Y337820D01*
X86360Y337820D01*
X82550Y341630D01*
D54*
X82550Y341630D03*
D51*
X77470Y346710D02*
X66040Y346710D01*
X77470Y346710D02*
X82550Y341630D01*
X84480Y401930D02*
X71960Y401930D01*
X84480Y401930D02*
X85090Y401320D01*
D54*
X85090Y401320D03*
D51*
X106045Y385445D02*
X118103Y385445D01*
X106045Y385445D02*
X105410Y386080D01*
D54*
X105410Y386080D03*
D51*
X109538Y417513D02*
X119103Y417513D01*
X109538Y417513D02*
X109220Y417830D01*
D54*
X109220Y417830D03*
D51*
X137167Y447040D02*
X149860Y447040D01*
D54*
X149860Y447040D03*
D51*
X248920Y422250D02*
X249580Y422910D01*
X261620Y422910D01*
D54*
X261620Y422910D03*
D51*
X267200Y468630D02*
X267995Y469425D01*
X267200Y468630D02*
X257810Y468630D01*
D54*
X257810Y468630D03*
D51*
X62230Y474751D02*
X60960Y476021D01*
X62230Y474751D02*
X62230Y463550D01*
D54*
X62230Y463550D03*
D51*
X27980Y481370D02*
X27980Y487990D01*
X27980Y481370D02*
X27940Y481330D01*
X29845Y479425D01*
X33020Y479425D01*
X36195Y479425D01*
X37980Y481210D02*
X37980Y487990D01*
X37980Y481210D02*
X36195Y479425D01*
X32980Y479465D02*
X32980Y487990D01*
X32980Y479465D02*
X33020Y479425D01*
D54*
X33020Y479425D03*
D51*
X128409Y476275D02*
X128409Y464959D01*
X128270Y464820D01*
D54*
X128270Y464820D03*
D51*
X345355Y402110D02*
X345355Y372110D01*
D54*
X345355Y372110D03*
D51*
X345355Y437360D02*
X345355Y468545D01*
X345440Y468630D01*
D54*
X345440Y468630D03*
D51*
X345440Y497275D01*
X345355Y497360D01*
X414020Y454660D02*
X424840Y454660D01*
D54*
X414020Y454660D03*
D51*
X425490Y524470D02*
X436190Y524470D01*
X425490Y524470D02*
X424180Y525780D01*
X425560Y530970D02*
X436190Y530970D01*
X424180Y529590D02*
X424180Y527050D01*
X424180Y529590D02*
X425560Y530970D01*
X424180Y527050D02*
X424180Y525780D01*
D54*
X424180Y527050D03*
D56*
X345600Y680720D02*
X346870Y681990D01*
D54*
X330200Y680720D03*
D51*
X293370Y730250D02*
X282550Y730250D01*
D54*
X293370Y730250D03*
D51*
X231140Y743434D02*
X231140Y754380D01*
X231140Y754380D01*
D54*
X231140Y754380D03*
D51*
X170125Y755595D02*
X170125Y743434D01*
X170125Y755595D02*
X170180Y755650D01*
D54*
X170180Y755650D03*
D51*
X139617Y754297D02*
X139617Y743434D01*
X139617Y754297D02*
X139700Y754380D01*
D54*
X139700Y754380D03*
D51*
X64770Y743434D02*
X52856Y743434D01*
X52070Y744220D01*
D54*
X52070Y744220D03*
D51*
X133350Y661010D02*
X147320Y661010D01*
X133350Y661010D02*
X133350Y661670D01*
D54*
X133350Y661670D03*
D51*
X123240Y623520D02*
X123240Y603250D01*
X123240Y623520D02*
X123190Y623570D01*
D54*
X123190Y623570D03*
D51*
X254000Y127000D02*
X254000Y114808D01*
X254000Y127000D02*
X250190Y130810D01*
X247650Y130810D01*
D55*
X182200Y411480D02*
X170180Y411480D01*
D54*
X170180Y411480D03*
D55*
X224200Y416480D02*
X224782Y417062D01*
X234950Y417062D01*
D54*
X234950Y417062D03*
D55*
X224200Y406480D02*
X223983Y406263D01*
X210683Y406263D01*
D54*
X210683Y406263D03*
D51*
X288900Y675640D02*
X300990Y675640D01*
D54*
X300990Y675640D03*
D55*
X238728Y647740D02*
X227630Y647740D01*
X238728Y647740D02*
X238760Y647772D01*
D54*
X238760Y647772D03*
D51*
X35980Y497840D02*
X30480Y497840D01*
D54*
X336550Y680720D03*
D57*
X340360Y681990D02*
X346870Y681990D01*
X340360Y681990D02*
X335280Y687070D01*
X341790Y687070D01*
X346870Y681990D01*
X340520Y675640D01*
X331470Y675640D01*
D51*
X465790Y708360D02*
X465790Y717550D01*
X465790Y708360D02*
X462280Y704850D01*
X458470Y704850D01*
D54*
X458470Y704850D03*
D53*
X426110Y354330D02*
X412750Y354330D01*
D54*
X412750Y354330D03*
D51*
X345355Y342110D02*
X345355Y372110D01*
X388670Y293320D02*
X388670Y278600D01*
X388670Y293320D02*
X388620Y293370D01*
D54*
X388620Y293370D03*
D51*
X305420Y291480D02*
X305420Y283210D01*
X305420Y291480D02*
X304800Y292100D01*
D54*
X304800Y292100D03*
D53*
X531470Y355600D02*
X544830Y355600D01*
D54*
X544830Y355600D03*
X572488Y303530D03*
D51*
X566470Y295686D02*
X566470Y278600D01*
X566470Y295686D02*
X572488Y301704D01*
X572488Y303530D01*
D58*
X488740Y204470D02*
X488570Y204300D01*
X488740Y204470D02*
X518160Y204470D01*
D54*
X518160Y204470D03*
D58*
X488570Y204300D02*
X488570Y230760D01*
X488950Y231140D01*
D54*
X488950Y231140D03*
D58*
X488570Y204300D02*
X490220Y202650D01*
X490220Y179070D01*
D54*
X490220Y179070D03*
D58*
X488570Y204300D02*
X461180Y204300D01*
X461010Y204470D01*
D54*
X461010Y204470D03*
D51*
X566470Y102400D02*
X572770Y96100D01*
X572770Y87630D01*
D54*
X572770Y87630D03*
X369570Y318770D03*
D53*
X358140Y330200D01*
X358140Y496570D02*
X349250Y505460D01*
X295910Y541020D02*
X250190Y541020D01*
X243840Y547370D01*
X243840Y554380D01*
X358140Y496570D02*
X358140Y330200D01*
X349250Y505460D02*
X331470Y505460D01*
X295910Y541020D01*
X243840Y554380D02*
X225400Y554380D01*
X215780Y564000D01*
X215780Y630890D01*
D54*
X491490Y243840D03*
D53*
X488243Y293442D02*
X485140Y296545D01*
X488243Y293442D02*
X488950Y293442D01*
D54*
X488950Y293442D03*
X414020Y294640D03*
D53*
X414070Y294590D01*
X414070Y278600D01*
X414020Y294640D02*
X415925Y296545D01*
X485140Y296545D01*
X549628Y238760D02*
X549628Y182188D01*
X500380Y132940D02*
X500380Y118110D01*
D54*
X500380Y118110D03*
D53*
X500380Y132940D02*
X549628Y182188D01*
D54*
X496570Y45720D03*
D53*
X494030Y43180D01*
X459105Y43180D02*
X445770Y29845D01*
X459105Y43180D02*
X494030Y43180D01*
X494030Y238760D02*
X491490Y241300D01*
X491490Y243840D01*
X494030Y238760D02*
X549628Y238760D01*
X375970Y278600D02*
X375970Y316280D01*
X375970Y318770D01*
X375970Y321260D01*
X375970Y325070D01*
X364490Y336550D01*
X287020Y554380D02*
X273660Y554380D01*
X264160Y563880D02*
X231140Y563880D01*
X220780Y574240D01*
X264160Y563880D02*
X273660Y554380D01*
X220780Y574240D02*
X220780Y630890D01*
X287020Y554380D02*
X291440Y554380D01*
X335280Y510540D02*
X351790Y510540D01*
X364490Y497840D01*
X335280Y510540D02*
X291440Y554380D01*
X364490Y497840D02*
X364490Y336550D01*
X375970Y318770D02*
X378460Y318770D01*
X381000Y318770D01*
X414020Y303530D02*
X495300Y303530D01*
X505460Y293370D01*
D54*
X505460Y293370D03*
X505460Y251460D03*
D53*
X386080Y313690D02*
X381000Y318770D01*
X386080Y313690D02*
X403860Y313690D01*
X414020Y303530D01*
X505460Y251460D02*
X509270Y247650D01*
X554990Y247650D01*
X558800Y243840D01*
X558800Y175260D01*
X511810Y128270D01*
X511810Y116840D01*
D54*
X511810Y116840D03*
X511810Y53340D03*
D53*
X415925Y50800D02*
X394970Y29845D01*
X509270Y50800D02*
X511810Y53340D01*
X509270Y50800D02*
X415925Y50800D01*
X375970Y316280D02*
X378460Y318770D01*
X375970Y321260D01*
X227630Y633430D02*
X227630Y637740D01*
X386080Y320040D02*
X426110Y320040D01*
X369570Y336550D02*
X369570Y499110D01*
X354330Y514350D01*
X369570Y336550D02*
X386080Y320040D01*
X238760Y622300D02*
X227630Y633430D01*
X238760Y622300D02*
X278130Y622300D01*
X330200Y570230D01*
X330200Y525780D01*
X341630Y514350D01*
X354330Y514350D01*
X426110Y320040D02*
X426110Y309220D01*
X427990Y307340D01*
X528370Y292050D02*
X528370Y278600D01*
X528370Y292050D02*
X513080Y307340D01*
X427990Y307340D01*
X132052Y567785D02*
X131512Y568325D01*
X132052Y567785D02*
X132052Y538226D01*
X129512Y535686D01*
D51*
X66490Y535940D02*
X66490Y561790D01*
X85090Y580390D01*
X85090Y594081D01*
X83541Y595630D01*
X60960Y495021D02*
X53340Y495021D01*
X46990Y452730D02*
X44450Y450190D01*
X46990Y452730D02*
X46990Y488671D01*
X53340Y495021D01*
X62380Y435460D02*
X69490Y435460D01*
X62380Y435460D02*
X59690Y438150D01*
X59690Y445770D01*
X55270Y450190D01*
X44450Y450190D01*
X443840Y486410D02*
X445770Y486410D01*
X436880Y499110D02*
X402590Y499110D01*
X436880Y499110D02*
X445770Y490220D01*
X445770Y486410D01*
X66490Y512260D02*
X66490Y535940D01*
X60960Y504190D02*
X60960Y495021D01*
X60960Y504190D02*
X60960Y506730D01*
X62230Y508000D02*
X66490Y512260D01*
X62230Y508000D02*
X60960Y506730D01*
X59690Y508000D01*
X57150Y508000D01*
X44450Y508000D01*
X59690Y508000D02*
X62230Y508000D01*
X60960Y504190D02*
X57150Y508000D01*
D55*
X44450Y508000D02*
X38290Y508000D01*
X37980Y507690D01*
D51*
X105410Y513080D02*
X313690Y513080D01*
X105410Y513080D02*
X82550Y535940D01*
X66490Y535940D01*
X443840Y486410D02*
X443840Y476860D01*
X434340Y467360D01*
D53*
X434340Y392430D01*
X436880Y389890D02*
X443840Y389890D01*
X436880Y389890D02*
X434340Y392430D01*
D51*
X443840Y389890D02*
X443840Y355600D01*
X445110Y354330D01*
X445110Y320040D01*
D54*
X313690Y513080D03*
X372110Y510540D03*
D51*
X391160Y510540D01*
X402590Y499110D01*
D54*
X322580Y537210D03*
D51*
X322580Y557530D01*
X306730Y573380D01*
X287020Y573380D01*
X243840Y573380D01*
X445110Y354330D02*
X511200Y354330D01*
X512470Y355600D01*
X512470Y332080D01*
X514350Y330200D01*
D54*
X514350Y330200D03*
X528320Y325120D03*
D51*
X552450Y300990D01*
X552450Y279920D02*
X553770Y278600D01*
X552450Y279920D02*
X552450Y300990D01*
X287592Y207010D02*
X255920Y207010D01*
X287592Y207010D02*
X293662Y200940D01*
X255920Y207010D02*
X255920Y194310D01*
X553770Y266750D02*
X553770Y278600D01*
X478790Y259080D02*
X420650Y200940D01*
X546100Y259080D02*
X553770Y266750D01*
X546100Y259080D02*
X478790Y259080D01*
X420650Y200940D02*
X293662Y200940D01*
D53*
X281316Y357494D02*
X257113Y357494D01*
X191850Y416480D02*
X182200Y416480D01*
X321310Y300555D02*
X321310Y273050D01*
X321310Y300555D02*
X312702Y309163D01*
X312702Y326108D01*
X321310Y273050D02*
X318770Y270510D01*
X305420Y270510D01*
X312702Y326108D02*
X281316Y357494D01*
X208280Y400050D02*
X191850Y416480D01*
X208280Y400050D02*
X214630Y400050D01*
X257113Y357567D01*
X257113Y357494D01*
X191690Y406480D02*
X182200Y406480D01*
X191690Y406480D02*
X201930Y396240D01*
X211299Y396240D02*
X254987Y352552D01*
X211299Y396240D02*
X201930Y396240D01*
X254987Y352552D02*
X278228Y352552D01*
X292100Y338680D01*
X292100Y280670D01*
X280670Y269240D01*
D54*
X280670Y269240D03*
X273050Y232410D03*
D53*
X255920Y232410D01*
X140970Y723081D02*
X139617Y724434D01*
X140970Y723081D02*
X140970Y709930D01*
X163830Y687070D01*
X199390Y687070D01*
X205780Y680680D01*
X205780Y669590D01*
X210780Y669590D01*
X139617Y724434D02*
X122430Y724434D01*
X102194Y744670D01*
X81958Y724434D01*
X64770Y724434D01*
X46990Y724434D01*
X12700Y690144D01*
X16820Y507690D02*
X22980Y507690D01*
X12700Y511810D02*
X12700Y690144D01*
X12700Y511810D02*
X16820Y507690D01*
X16820Y491180D01*
X20010Y487990D02*
X22980Y487990D01*
X20010Y487990D02*
X16820Y491180D01*
X146512Y568325D02*
X158115Y568325D01*
X205780Y615990D02*
X205780Y630890D01*
X205780Y615990D02*
X158115Y568325D01*
X201704Y567055D02*
X201704Y601754D01*
X210780Y610830D01*
X210780Y630890D01*
X186704Y567055D02*
X186704Y542576D01*
X184704Y534416D01*
X85090Y353060D02*
X90170Y347980D01*
X81890Y382930D02*
X71960Y382930D01*
X85090Y379730D02*
X85090Y353060D01*
X85090Y379730D02*
X81890Y382930D01*
D54*
X285750Y281940D03*
D53*
X285750Y330273D02*
X268043Y347980D01*
X285750Y330273D02*
X285750Y281940D01*
D54*
X285750Y232410D03*
D53*
X305420Y232410D01*
X268043Y347980D02*
X90170Y347980D01*
X95425Y464995D02*
X95425Y476275D01*
X95425Y464995D02*
X95250Y464820D01*
X95250Y459740D01*
X107950Y447040D02*
X118167Y447040D01*
X107950Y447040D02*
X95250Y459740D01*
X37490Y146050D02*
X37490Y120015D01*
D51*
X249530Y38735D02*
X277520Y38735D01*
D53*
X132080Y356877D02*
X101918Y356877D01*
X478790Y697230D02*
X478790Y717550D01*
X478790Y697230D02*
X478470Y696910D01*
X478398Y696841D01*
X478324Y696774D01*
X478247Y696711D01*
X478168Y696650D01*
X478086Y696593D01*
X478002Y696539D01*
X477917Y696488D01*
X477829Y696440D01*
X477740Y696396D01*
X477649Y696355D01*
X477556Y696318D01*
X477462Y696284D01*
X477367Y696254D01*
X477271Y696227D01*
X477174Y696205D01*
X477076Y696186D01*
X476977Y696170D01*
X476878Y696159D01*
X476779Y696151D01*
X476679Y696147D01*
X476579Y696147D01*
X476479Y696151D01*
X476380Y696159D01*
X476281Y696170D01*
X476182Y696186D01*
X476084Y696205D01*
X475987Y696227D01*
X475891Y696254D01*
X475796Y696284D01*
X475702Y696318D01*
X475609Y696355D01*
X475518Y696396D01*
X475429Y696440D01*
X475341Y696488D01*
X475256Y696539D01*
X475172Y696593D01*
X475090Y696650D01*
X475011Y696711D01*
X474934Y696774D01*
X474860Y696841D01*
X474788Y696910D01*
X473344Y698354D01*
X473272Y698423D01*
X473198Y698490D01*
X473121Y698553D01*
X473042Y698614D01*
X472960Y698671D01*
X472876Y698725D01*
X472791Y698776D01*
X472703Y698824D01*
X472614Y698868D01*
X472523Y698909D01*
X472430Y698946D01*
X472336Y698980D01*
X472241Y699010D01*
X472145Y699037D01*
X472048Y699059D01*
X471950Y699078D01*
X471851Y699094D01*
X471752Y699105D01*
X471653Y699113D01*
X471553Y699117D01*
X471453Y699117D01*
X471353Y699113D01*
X471254Y699105D01*
X471155Y699094D01*
X471056Y699078D01*
X470958Y699059D01*
X470861Y699037D01*
X470765Y699010D01*
X470670Y698980D01*
X470576Y698946D01*
X470483Y698909D01*
X470392Y698868D01*
X470303Y698824D01*
X470215Y698776D01*
X470130Y698725D01*
X470046Y698671D01*
X469964Y698614D01*
X469885Y698553D01*
X469808Y698490D01*
X469734Y698423D01*
X469662Y698354D01*
X451607Y680298D01*
X451606Y680298D02*
X451537Y680226D01*
X451470Y680152D01*
X451407Y680075D01*
X451346Y679996D01*
X451289Y679914D01*
X451235Y679830D01*
X451184Y679745D01*
X451136Y679657D01*
X451092Y679568D01*
X451051Y679477D01*
X451014Y679384D01*
X450980Y679290D01*
X450950Y679195D01*
X450923Y679099D01*
X450901Y679002D01*
X450882Y678904D01*
X450866Y678805D01*
X450855Y678706D01*
X450847Y678607D01*
X450843Y678507D01*
X450843Y678407D01*
X450847Y678307D01*
X450855Y678208D01*
X450866Y678109D01*
X450882Y678010D01*
X450901Y677912D01*
X450923Y677815D01*
X450950Y677719D01*
X450980Y677624D01*
X451014Y677530D01*
X451051Y677437D01*
X451092Y677346D01*
X451136Y677257D01*
X451184Y677169D01*
X451235Y677084D01*
X451289Y677000D01*
X451346Y676918D01*
X451407Y676839D01*
X451470Y676762D01*
X451537Y676688D01*
X451606Y676616D01*
X451607Y676616D02*
X458176Y670046D01*
X458176Y670047D02*
X458245Y669975D01*
X458312Y669901D01*
X458375Y669824D01*
X458436Y669745D01*
X458493Y669663D01*
X458547Y669579D01*
X458598Y669494D01*
X458646Y669406D01*
X458690Y669317D01*
X458731Y669226D01*
X458768Y669133D01*
X458802Y669039D01*
X458832Y668944D01*
X458859Y668848D01*
X458881Y668751D01*
X458900Y668653D01*
X458916Y668554D01*
X458927Y668455D01*
X458935Y668356D01*
X458939Y668256D01*
X458939Y668156D01*
X458935Y668056D01*
X458927Y667957D01*
X458916Y667858D01*
X458900Y667759D01*
X458881Y667661D01*
X458859Y667564D01*
X458832Y667468D01*
X458802Y667373D01*
X458768Y667279D01*
X458731Y667186D01*
X458690Y667095D01*
X458646Y667006D01*
X458598Y666918D01*
X458547Y666833D01*
X458493Y666749D01*
X458436Y666667D01*
X458375Y666588D01*
X458312Y666511D01*
X458245Y666437D01*
X458176Y666365D01*
X440120Y648309D01*
X440048Y648240D01*
X439974Y648173D01*
X439897Y648110D01*
X439818Y648049D01*
X439736Y647992D01*
X439652Y647938D01*
X439567Y647887D01*
X439479Y647839D01*
X439390Y647795D01*
X439299Y647754D01*
X439206Y647717D01*
X439112Y647683D01*
X439017Y647653D01*
X438921Y647626D01*
X438824Y647604D01*
X438726Y647585D01*
X438627Y647569D01*
X438528Y647558D01*
X438429Y647550D01*
X438329Y647546D01*
X438229Y647546D01*
X438129Y647550D01*
X438030Y647558D01*
X437931Y647569D01*
X437832Y647585D01*
X437734Y647604D01*
X437637Y647626D01*
X437541Y647653D01*
X437446Y647683D01*
X437352Y647717D01*
X437259Y647754D01*
X437168Y647795D01*
X437079Y647839D01*
X436991Y647887D01*
X436906Y647938D01*
X436822Y647992D01*
X436740Y648049D01*
X436661Y648110D01*
X436584Y648173D01*
X436510Y648240D01*
X436438Y648309D01*
X436439Y648309D02*
X429869Y654879D01*
X429797Y654948D01*
X429723Y655015D01*
X429646Y655078D01*
X429567Y655139D01*
X429485Y655196D01*
X429401Y655250D01*
X429316Y655301D01*
X429228Y655349D01*
X429139Y655393D01*
X429048Y655434D01*
X428955Y655471D01*
X428861Y655505D01*
X428766Y655535D01*
X428670Y655562D01*
X428573Y655584D01*
X428475Y655603D01*
X428376Y655619D01*
X428277Y655630D01*
X428178Y655638D01*
X428078Y655642D01*
X427978Y655642D01*
X427878Y655638D01*
X427779Y655630D01*
X427680Y655619D01*
X427581Y655603D01*
X427483Y655584D01*
X427386Y655562D01*
X427290Y655535D01*
X427195Y655505D01*
X427101Y655471D01*
X427008Y655434D01*
X426917Y655393D01*
X426828Y655349D01*
X426740Y655301D01*
X426655Y655250D01*
X426571Y655196D01*
X426489Y655139D01*
X426410Y655078D01*
X426333Y655015D01*
X426259Y654948D01*
X426187Y654879D01*
X408131Y636823D01*
X408062Y636751D01*
X407995Y636677D01*
X407932Y636600D01*
X407871Y636521D01*
X407814Y636439D01*
X407760Y636355D01*
X407709Y636270D01*
X407661Y636182D01*
X407617Y636093D01*
X407576Y636002D01*
X407539Y635909D01*
X407505Y635815D01*
X407475Y635720D01*
X407448Y635624D01*
X407426Y635527D01*
X407407Y635429D01*
X407391Y635330D01*
X407380Y635231D01*
X407372Y635132D01*
X407368Y635032D01*
X407368Y634932D01*
X407372Y634832D01*
X407380Y634733D01*
X407391Y634634D01*
X407407Y634535D01*
X407426Y634437D01*
X407448Y634340D01*
X407475Y634244D01*
X407505Y634149D01*
X407539Y634055D01*
X407576Y633962D01*
X407617Y633871D01*
X407661Y633782D01*
X407709Y633694D01*
X407760Y633609D01*
X407814Y633525D01*
X407871Y633443D01*
X407932Y633364D01*
X407995Y633287D01*
X408062Y633213D01*
X408131Y633141D01*
X409575Y631697D01*
X409644Y631625D01*
X409711Y631551D01*
X409774Y631474D01*
X409835Y631395D01*
X409892Y631313D01*
X409946Y631229D01*
X409997Y631144D01*
X410045Y631056D01*
X410089Y630967D01*
X410130Y630876D01*
X410167Y630783D01*
X410201Y630689D01*
X410231Y630594D01*
X410258Y630498D01*
X410280Y630401D01*
X410299Y630303D01*
X410315Y630204D01*
X410326Y630105D01*
X410334Y630006D01*
X410338Y629906D01*
X410338Y629806D01*
X410334Y629706D01*
X410326Y629607D01*
X410315Y629508D01*
X410299Y629409D01*
X410280Y629311D01*
X410258Y629214D01*
X410231Y629118D01*
X410201Y629023D01*
X410167Y628929D01*
X410130Y628836D01*
X410089Y628745D01*
X410045Y628656D01*
X409997Y628568D01*
X409946Y628483D01*
X409892Y628399D01*
X409835Y628317D01*
X409774Y628238D01*
X409711Y628161D01*
X409644Y628087D01*
X409575Y628015D01*
X405130Y623570D01*
X373080Y623570D01*
X372720Y623930D01*
X432720Y613410D02*
X436190Y609940D01*
X436190Y595970D01*
X372720Y616610D02*
X372720Y623930D01*
X375920Y613410D02*
X382037Y613410D01*
X382037Y613411D02*
X382137Y613409D01*
X382236Y613403D01*
X382336Y613394D01*
X382434Y613380D01*
X382533Y613363D01*
X382630Y613343D01*
X382727Y613318D01*
X382823Y613290D01*
X382917Y613258D01*
X383010Y613222D01*
X383102Y613183D01*
X383192Y613141D01*
X383281Y613095D01*
X383368Y613045D01*
X383452Y612993D01*
X383535Y612937D01*
X383616Y612878D01*
X383694Y612816D01*
X383770Y612751D01*
X383843Y612683D01*
X383913Y612613D01*
X383981Y612540D01*
X384046Y612464D01*
X384108Y612386D01*
X384167Y612305D01*
X384223Y612222D01*
X384275Y612138D01*
X384325Y612051D01*
X384371Y611962D01*
X384413Y611872D01*
X384452Y611780D01*
X384488Y611687D01*
X384520Y611593D01*
X384548Y611497D01*
X384573Y611400D01*
X384593Y611303D01*
X384610Y611204D01*
X384624Y611106D01*
X384633Y611006D01*
X384639Y610907D01*
X384641Y610807D01*
X384641Y610383D01*
X384640Y610383D02*
X384642Y610311D01*
X384648Y610239D01*
X384658Y610167D01*
X384671Y610096D01*
X384689Y610026D01*
X384710Y609957D01*
X384735Y609889D01*
X384763Y609823D01*
X384795Y609758D01*
X384831Y609695D01*
X384870Y609634D01*
X384912Y609576D01*
X384957Y609519D01*
X385006Y609466D01*
X385057Y609415D01*
X385110Y609366D01*
X385167Y609321D01*
X385225Y609279D01*
X385286Y609240D01*
X385349Y609204D01*
X385414Y609172D01*
X385480Y609144D01*
X385548Y609119D01*
X385617Y609098D01*
X385687Y609080D01*
X385758Y609067D01*
X385830Y609057D01*
X385902Y609051D01*
X385974Y609049D01*
X385974Y609050D02*
X397312Y609050D01*
X397312Y609049D02*
X397384Y609051D01*
X397456Y609057D01*
X397528Y609067D01*
X397599Y609080D01*
X397669Y609098D01*
X397738Y609119D01*
X397806Y609144D01*
X397872Y609172D01*
X397937Y609204D01*
X398000Y609240D01*
X398061Y609279D01*
X398119Y609321D01*
X398176Y609366D01*
X398229Y609415D01*
X398280Y609466D01*
X398329Y609519D01*
X398374Y609576D01*
X398416Y609634D01*
X398455Y609695D01*
X398491Y609758D01*
X398523Y609823D01*
X398551Y609889D01*
X398576Y609957D01*
X398597Y610026D01*
X398615Y610096D01*
X398628Y610167D01*
X398638Y610239D01*
X398644Y610311D01*
X398646Y610383D01*
X398646Y616437D01*
X398645Y616437D02*
X398647Y616537D01*
X398653Y616636D01*
X398662Y616736D01*
X398676Y616834D01*
X398693Y616933D01*
X398713Y617030D01*
X398738Y617127D01*
X398766Y617223D01*
X398798Y617317D01*
X398834Y617410D01*
X398873Y617502D01*
X398915Y617592D01*
X398961Y617681D01*
X399011Y617768D01*
X399063Y617852D01*
X399119Y617935D01*
X399178Y618016D01*
X399240Y618094D01*
X399305Y618170D01*
X399373Y618243D01*
X399443Y618313D01*
X399516Y618381D01*
X399592Y618446D01*
X399670Y618508D01*
X399751Y618567D01*
X399834Y618623D01*
X399918Y618675D01*
X400005Y618725D01*
X400094Y618771D01*
X400184Y618813D01*
X400276Y618852D01*
X400369Y618888D01*
X400463Y618920D01*
X400559Y618948D01*
X400656Y618973D01*
X400753Y618993D01*
X400852Y619010D01*
X400950Y619024D01*
X401050Y619033D01*
X401149Y619039D01*
X401249Y619041D01*
X401249Y619040D02*
X410048Y619040D01*
X410048Y619041D02*
X410148Y619039D01*
X410247Y619033D01*
X410347Y619024D01*
X410445Y619010D01*
X410544Y618993D01*
X410641Y618973D01*
X410738Y618948D01*
X410834Y618920D01*
X410928Y618888D01*
X411021Y618852D01*
X411113Y618813D01*
X411203Y618771D01*
X411292Y618725D01*
X411379Y618675D01*
X411463Y618623D01*
X411546Y618567D01*
X411627Y618508D01*
X411705Y618446D01*
X411781Y618381D01*
X411854Y618313D01*
X411924Y618243D01*
X411992Y618170D01*
X412057Y618094D01*
X412119Y618016D01*
X412178Y617935D01*
X412234Y617852D01*
X412286Y617768D01*
X412336Y617681D01*
X412382Y617592D01*
X412424Y617502D01*
X412463Y617410D01*
X412499Y617317D01*
X412531Y617223D01*
X412559Y617127D01*
X412584Y617030D01*
X412604Y616933D01*
X412621Y616834D01*
X412635Y616736D01*
X412644Y616636D01*
X412650Y616537D01*
X412652Y616437D01*
X412651Y616437D02*
X412651Y610383D01*
X412653Y610261D01*
X412659Y610140D01*
X412668Y610018D01*
X412682Y609897D01*
X412699Y609777D01*
X412720Y609657D01*
X412744Y609538D01*
X412773Y609420D01*
X412805Y609302D01*
X412841Y609186D01*
X412880Y609071D01*
X412923Y608957D01*
X412970Y608844D01*
X413020Y608734D01*
X413073Y608624D01*
X413130Y608517D01*
X413190Y608411D01*
X413254Y608307D01*
X413321Y608205D01*
X413391Y608106D01*
X413464Y608009D01*
X413540Y607914D01*
X413619Y607821D01*
X413701Y607731D01*
X413786Y607644D01*
X413873Y607559D01*
X413963Y607477D01*
X414056Y607398D01*
X414151Y607322D01*
X414248Y607249D01*
X414347Y607179D01*
X414449Y607112D01*
X414553Y607048D01*
X414659Y606988D01*
X414766Y606931D01*
X414876Y606878D01*
X414986Y606828D01*
X415099Y606781D01*
X415213Y606738D01*
X415328Y606699D01*
X415444Y606663D01*
X415562Y606631D01*
X415680Y606602D01*
X415799Y606578D01*
X415919Y606557D01*
X416039Y606540D01*
X416160Y606526D01*
X416282Y606517D01*
X416403Y606511D01*
X416525Y606509D01*
X416525Y606510D02*
X422783Y606510D01*
X422783Y606509D02*
X422905Y606511D01*
X423026Y606517D01*
X423148Y606526D01*
X423269Y606540D01*
X423389Y606557D01*
X423509Y606578D01*
X423628Y606602D01*
X423746Y606631D01*
X423864Y606663D01*
X423980Y606699D01*
X424095Y606738D01*
X424209Y606781D01*
X424322Y606828D01*
X424432Y606878D01*
X424542Y606931D01*
X424649Y606988D01*
X424755Y607048D01*
X424859Y607112D01*
X424961Y607179D01*
X425060Y607249D01*
X425157Y607322D01*
X425252Y607398D01*
X425345Y607477D01*
X425435Y607559D01*
X425522Y607644D01*
X425607Y607731D01*
X425689Y607821D01*
X425768Y607914D01*
X425844Y608009D01*
X425917Y608106D01*
X425987Y608205D01*
X426054Y608307D01*
X426118Y608411D01*
X426178Y608517D01*
X426235Y608624D01*
X426288Y608734D01*
X426338Y608844D01*
X426385Y608957D01*
X426428Y609071D01*
X426467Y609186D01*
X426503Y609302D01*
X426535Y609420D01*
X426564Y609538D01*
X426588Y609657D01*
X426609Y609777D01*
X426626Y609897D01*
X426640Y610018D01*
X426649Y610140D01*
X426655Y610261D01*
X426657Y610383D01*
X426657Y610807D01*
X426656Y610807D02*
X426658Y610907D01*
X426664Y611006D01*
X426673Y611106D01*
X426687Y611204D01*
X426704Y611303D01*
X426724Y611400D01*
X426749Y611497D01*
X426777Y611593D01*
X426809Y611687D01*
X426845Y611780D01*
X426884Y611872D01*
X426926Y611962D01*
X426972Y612051D01*
X427022Y612138D01*
X427074Y612222D01*
X427130Y612305D01*
X427189Y612386D01*
X427251Y612464D01*
X427316Y612540D01*
X427384Y612613D01*
X427454Y612683D01*
X427527Y612751D01*
X427603Y612816D01*
X427681Y612878D01*
X427762Y612937D01*
X427845Y612993D01*
X427929Y613045D01*
X428016Y613095D01*
X428105Y613141D01*
X428195Y613183D01*
X428287Y613222D01*
X428380Y613258D01*
X428474Y613290D01*
X428570Y613318D01*
X428667Y613343D01*
X428764Y613363D01*
X428863Y613380D01*
X428961Y613394D01*
X429061Y613403D01*
X429160Y613409D01*
X429260Y613411D01*
X429260Y613410D02*
X432720Y613410D01*
X375920Y613410D02*
X372720Y616610D01*
D51*
X59030Y431190D02*
X44450Y431190D01*
X62230Y427990D02*
X73660Y427990D01*
X76200Y430530D01*
X76200Y445770D01*
X73510Y448460D01*
X69490Y448460D01*
X59030Y431190D02*
X62230Y427990D01*
D53*
X44450Y431190D02*
X44450Y417830D01*
X49960Y412320D02*
X49960Y392430D01*
X49960Y412320D02*
X44450Y417830D01*
D54*
X201930Y656590D03*
X201930Y646430D03*
X208280Y651510D03*
D53*
X485140Y717700D02*
X485290Y717550D01*
X485140Y717700D02*
X485140Y726440D01*
X481330Y730250D01*
X430530Y730250D01*
X407670Y707390D01*
X407670Y651510D01*
X399690Y643530D01*
X372720Y643530D01*
X365760Y636570D01*
X375822Y605028D02*
X399313Y605028D01*
X414871Y589470D01*
X436190Y589470D01*
X365760Y615090D02*
X365760Y636570D01*
X365760Y615090D02*
X375822Y605028D01*
X188930Y652740D02*
X188414Y652224D01*
X137874Y652224D01*
X127660Y642010D02*
X99060Y642010D01*
X127660Y642010D02*
X137874Y652224D01*
D54*
X214630Y656590D03*
X214630Y646430D03*
M02*
