G04 EAGLE Gerber RS-274X export*
G75*
%MOMM*%
%FSLAX34Y34*%
%LPD*%
%INSilkscreen Bottom*%
%IPPOS*%
%AMOC8*
5,1,8,0,0,1.08239X$1,22.5*%
G01*
%ADD10C,0.177800*%
%ADD11C,0.101600*%


D10*
X348760Y405906D02*
X348762Y405774D01*
X348768Y405642D01*
X348778Y405510D01*
X348791Y405379D01*
X348809Y405248D01*
X348830Y405117D01*
X348856Y404988D01*
X348885Y404859D01*
X348918Y404731D01*
X348954Y404604D01*
X348995Y404478D01*
X349039Y404353D01*
X349087Y404230D01*
X349138Y404108D01*
X349193Y403988D01*
X349252Y403870D01*
X349314Y403753D01*
X349380Y403638D01*
X349448Y403526D01*
X349521Y403415D01*
X349596Y403306D01*
X349675Y403200D01*
X349756Y403096D01*
X349841Y402995D01*
X349929Y402896D01*
X350020Y402800D01*
X350113Y402707D01*
X350209Y402616D01*
X350308Y402528D01*
X350409Y402443D01*
X350513Y402362D01*
X350619Y402283D01*
X350728Y402208D01*
X350839Y402135D01*
X350951Y402067D01*
X351066Y402001D01*
X351183Y401939D01*
X351301Y401880D01*
X351421Y401825D01*
X351543Y401774D01*
X351666Y401726D01*
X351791Y401682D01*
X351917Y401641D01*
X352044Y401605D01*
X352172Y401572D01*
X352301Y401543D01*
X352430Y401517D01*
X352561Y401496D01*
X352692Y401478D01*
X352823Y401465D01*
X352955Y401455D01*
X353087Y401449D01*
X353219Y401447D01*
X353444Y401450D01*
X353670Y401458D01*
X353895Y401471D01*
X354119Y401490D01*
X354343Y401514D01*
X354567Y401544D01*
X354789Y401579D01*
X355011Y401619D01*
X355232Y401665D01*
X355451Y401715D01*
X355670Y401771D01*
X355887Y401833D01*
X356102Y401899D01*
X356316Y401971D01*
X356528Y402047D01*
X356738Y402129D01*
X356946Y402216D01*
X357152Y402307D01*
X357355Y402404D01*
X357557Y402505D01*
X357756Y402611D01*
X357952Y402722D01*
X358145Y402838D01*
X358336Y402958D01*
X358524Y403083D01*
X358708Y403212D01*
X358890Y403345D01*
X359068Y403483D01*
X359243Y403625D01*
X359415Y403771D01*
X359583Y403922D01*
X359747Y404076D01*
X359908Y404234D01*
X359350Y417054D02*
X359348Y417186D01*
X359342Y417318D01*
X359332Y417450D01*
X359319Y417581D01*
X359301Y417712D01*
X359280Y417843D01*
X359254Y417972D01*
X359225Y418101D01*
X359192Y418229D01*
X359156Y418356D01*
X359115Y418482D01*
X359071Y418607D01*
X359023Y418730D01*
X358972Y418852D01*
X358917Y418972D01*
X358858Y419090D01*
X358796Y419207D01*
X358730Y419322D01*
X358662Y419434D01*
X358589Y419545D01*
X358514Y419654D01*
X358435Y419760D01*
X358354Y419864D01*
X358269Y419965D01*
X358181Y420064D01*
X358090Y420160D01*
X357997Y420253D01*
X357901Y420344D01*
X357802Y420432D01*
X357701Y420517D01*
X357597Y420598D01*
X357491Y420677D01*
X357382Y420752D01*
X357271Y420825D01*
X357159Y420893D01*
X357044Y420959D01*
X356927Y421021D01*
X356809Y421080D01*
X356689Y421135D01*
X356567Y421186D01*
X356444Y421234D01*
X356319Y421278D01*
X356193Y421319D01*
X356066Y421355D01*
X355938Y421388D01*
X355809Y421417D01*
X355680Y421443D01*
X355549Y421464D01*
X355418Y421482D01*
X355287Y421495D01*
X355155Y421505D01*
X355023Y421511D01*
X354891Y421513D01*
X354692Y421511D01*
X354493Y421504D01*
X354294Y421492D01*
X354095Y421475D01*
X353897Y421454D01*
X353699Y421428D01*
X353503Y421397D01*
X353306Y421361D01*
X353111Y421321D01*
X352917Y421277D01*
X352724Y421227D01*
X352532Y421173D01*
X352342Y421115D01*
X352153Y421052D01*
X351965Y420984D01*
X351779Y420912D01*
X351595Y420836D01*
X351413Y420755D01*
X351233Y420670D01*
X351055Y420581D01*
X350879Y420487D01*
X350705Y420390D01*
X350534Y420288D01*
X350365Y420182D01*
X350199Y420072D01*
X350035Y419958D01*
X349874Y419841D01*
X357120Y413152D02*
X357232Y413220D01*
X357341Y413291D01*
X357449Y413365D01*
X357554Y413443D01*
X357657Y413523D01*
X357758Y413606D01*
X357856Y413692D01*
X357952Y413781D01*
X358045Y413873D01*
X358135Y413967D01*
X358223Y414064D01*
X358308Y414163D01*
X358390Y414265D01*
X358468Y414369D01*
X358544Y414476D01*
X358617Y414584D01*
X358687Y414695D01*
X358753Y414807D01*
X358816Y414921D01*
X358876Y415037D01*
X358933Y415155D01*
X358986Y415275D01*
X359035Y415395D01*
X359081Y415518D01*
X359124Y415641D01*
X359163Y415766D01*
X359198Y415892D01*
X359230Y416018D01*
X359258Y416146D01*
X359282Y416274D01*
X359303Y416403D01*
X359320Y416533D01*
X359333Y416663D01*
X359342Y416793D01*
X359348Y416923D01*
X359350Y417054D01*
X350989Y409808D02*
X350877Y409740D01*
X350768Y409669D01*
X350660Y409595D01*
X350555Y409517D01*
X350452Y409437D01*
X350351Y409354D01*
X350253Y409268D01*
X350157Y409179D01*
X350064Y409087D01*
X349974Y408993D01*
X349886Y408896D01*
X349801Y408797D01*
X349719Y408695D01*
X349641Y408591D01*
X349565Y408484D01*
X349492Y408376D01*
X349422Y408265D01*
X349356Y408153D01*
X349293Y408039D01*
X349233Y407923D01*
X349176Y407805D01*
X349123Y407685D01*
X349074Y407565D01*
X349028Y407442D01*
X348985Y407319D01*
X348946Y407194D01*
X348911Y407068D01*
X348879Y406942D01*
X348851Y406814D01*
X348827Y406686D01*
X348806Y406557D01*
X348789Y406427D01*
X348776Y406297D01*
X348767Y406167D01*
X348761Y406037D01*
X348759Y405906D01*
X350989Y409808D02*
X357120Y413152D01*
X341425Y414824D02*
X341425Y394758D01*
X341425Y414824D02*
X335851Y414824D01*
X335737Y414822D01*
X335623Y414816D01*
X335509Y414806D01*
X335396Y414793D01*
X335283Y414775D01*
X335171Y414754D01*
X335059Y414729D01*
X334949Y414700D01*
X334839Y414667D01*
X334731Y414631D01*
X334624Y414591D01*
X334519Y414547D01*
X334415Y414500D01*
X334313Y414449D01*
X334212Y414395D01*
X334114Y414337D01*
X334017Y414276D01*
X333923Y414212D01*
X333830Y414145D01*
X333741Y414074D01*
X333653Y414000D01*
X333569Y413924D01*
X333486Y413845D01*
X333407Y413762D01*
X333331Y413678D01*
X333257Y413590D01*
X333187Y413501D01*
X333119Y413408D01*
X333055Y413314D01*
X332994Y413218D01*
X332936Y413119D01*
X332882Y413018D01*
X332831Y412916D01*
X332784Y412812D01*
X332740Y412707D01*
X332700Y412600D01*
X332664Y412492D01*
X332631Y412382D01*
X332602Y412272D01*
X332577Y412160D01*
X332556Y412048D01*
X332538Y411935D01*
X332525Y411822D01*
X332515Y411708D01*
X332509Y411594D01*
X332507Y411480D01*
X332507Y404791D01*
X332509Y404677D01*
X332515Y404563D01*
X332525Y404449D01*
X332538Y404336D01*
X332556Y404223D01*
X332577Y404111D01*
X332602Y403999D01*
X332631Y403889D01*
X332664Y403779D01*
X332700Y403671D01*
X332740Y403564D01*
X332784Y403459D01*
X332831Y403355D01*
X332882Y403253D01*
X332936Y403152D01*
X332994Y403054D01*
X333055Y402957D01*
X333119Y402863D01*
X333186Y402770D01*
X333257Y402681D01*
X333331Y402593D01*
X333407Y402509D01*
X333486Y402426D01*
X333569Y402347D01*
X333653Y402271D01*
X333741Y402197D01*
X333830Y402126D01*
X333923Y402059D01*
X334017Y401995D01*
X334114Y401934D01*
X334212Y401876D01*
X334313Y401822D01*
X334415Y401771D01*
X334519Y401724D01*
X334624Y401680D01*
X334731Y401640D01*
X334839Y401604D01*
X334949Y401571D01*
X335059Y401542D01*
X335171Y401517D01*
X335283Y401496D01*
X335396Y401478D01*
X335509Y401465D01*
X335623Y401455D01*
X335737Y401449D01*
X335851Y401447D01*
X341425Y401447D01*
X325424Y405906D02*
X325424Y410365D01*
X325423Y410365D02*
X325421Y410497D01*
X325415Y410629D01*
X325405Y410761D01*
X325392Y410892D01*
X325374Y411023D01*
X325353Y411154D01*
X325327Y411283D01*
X325298Y411412D01*
X325265Y411540D01*
X325229Y411667D01*
X325188Y411793D01*
X325144Y411918D01*
X325096Y412041D01*
X325045Y412163D01*
X324990Y412283D01*
X324931Y412401D01*
X324869Y412518D01*
X324803Y412633D01*
X324735Y412745D01*
X324662Y412856D01*
X324587Y412965D01*
X324508Y413071D01*
X324427Y413175D01*
X324342Y413276D01*
X324254Y413375D01*
X324163Y413471D01*
X324070Y413564D01*
X323974Y413655D01*
X323875Y413743D01*
X323774Y413828D01*
X323670Y413909D01*
X323564Y413988D01*
X323455Y414063D01*
X323344Y414136D01*
X323232Y414204D01*
X323117Y414270D01*
X323000Y414332D01*
X322882Y414391D01*
X322762Y414446D01*
X322640Y414497D01*
X322517Y414545D01*
X322392Y414589D01*
X322266Y414630D01*
X322139Y414666D01*
X322011Y414699D01*
X321882Y414728D01*
X321753Y414754D01*
X321622Y414775D01*
X321491Y414793D01*
X321360Y414806D01*
X321228Y414816D01*
X321096Y414822D01*
X320964Y414824D01*
X320832Y414822D01*
X320700Y414816D01*
X320568Y414806D01*
X320437Y414793D01*
X320306Y414775D01*
X320175Y414754D01*
X320046Y414728D01*
X319917Y414699D01*
X319789Y414666D01*
X319662Y414630D01*
X319536Y414589D01*
X319411Y414545D01*
X319288Y414497D01*
X319166Y414446D01*
X319046Y414391D01*
X318928Y414332D01*
X318811Y414270D01*
X318696Y414204D01*
X318584Y414136D01*
X318473Y414063D01*
X318364Y413988D01*
X318258Y413909D01*
X318154Y413828D01*
X318053Y413743D01*
X317954Y413655D01*
X317858Y413564D01*
X317765Y413471D01*
X317674Y413375D01*
X317586Y413276D01*
X317501Y413175D01*
X317420Y413071D01*
X317341Y412965D01*
X317266Y412856D01*
X317193Y412745D01*
X317125Y412633D01*
X317059Y412518D01*
X316997Y412401D01*
X316938Y412283D01*
X316883Y412163D01*
X316832Y412041D01*
X316784Y411918D01*
X316740Y411793D01*
X316699Y411667D01*
X316663Y411540D01*
X316630Y411412D01*
X316601Y411283D01*
X316575Y411154D01*
X316554Y411023D01*
X316536Y410892D01*
X316523Y410761D01*
X316513Y410629D01*
X316507Y410497D01*
X316505Y410365D01*
X316505Y405906D01*
X316507Y405774D01*
X316513Y405642D01*
X316523Y405510D01*
X316536Y405379D01*
X316554Y405248D01*
X316575Y405117D01*
X316601Y404988D01*
X316630Y404859D01*
X316663Y404731D01*
X316699Y404604D01*
X316740Y404478D01*
X316784Y404353D01*
X316832Y404230D01*
X316883Y404108D01*
X316938Y403988D01*
X316997Y403870D01*
X317059Y403753D01*
X317125Y403638D01*
X317193Y403526D01*
X317266Y403415D01*
X317341Y403306D01*
X317420Y403200D01*
X317501Y403096D01*
X317586Y402995D01*
X317674Y402896D01*
X317765Y402800D01*
X317858Y402707D01*
X317954Y402616D01*
X318053Y402528D01*
X318154Y402443D01*
X318258Y402362D01*
X318364Y402283D01*
X318473Y402208D01*
X318584Y402135D01*
X318696Y402067D01*
X318811Y402001D01*
X318928Y401939D01*
X319046Y401880D01*
X319166Y401825D01*
X319288Y401774D01*
X319411Y401726D01*
X319536Y401682D01*
X319662Y401641D01*
X319789Y401605D01*
X319917Y401572D01*
X320046Y401543D01*
X320175Y401517D01*
X320306Y401496D01*
X320437Y401478D01*
X320568Y401465D01*
X320700Y401455D01*
X320832Y401449D01*
X320964Y401447D01*
X321096Y401449D01*
X321228Y401455D01*
X321360Y401465D01*
X321491Y401478D01*
X321622Y401496D01*
X321753Y401517D01*
X321882Y401543D01*
X322011Y401572D01*
X322139Y401605D01*
X322266Y401641D01*
X322392Y401682D01*
X322517Y401726D01*
X322640Y401774D01*
X322762Y401825D01*
X322882Y401880D01*
X323000Y401939D01*
X323117Y402001D01*
X323232Y402067D01*
X323344Y402135D01*
X323455Y402208D01*
X323564Y402283D01*
X323670Y402362D01*
X323774Y402443D01*
X323875Y402528D01*
X323974Y402616D01*
X324070Y402707D01*
X324163Y402800D01*
X324254Y402896D01*
X324342Y402995D01*
X324427Y403096D01*
X324508Y403200D01*
X324587Y403306D01*
X324662Y403415D01*
X324735Y403526D01*
X324803Y403638D01*
X324869Y403753D01*
X324931Y403870D01*
X324990Y403988D01*
X325045Y404108D01*
X325096Y404230D01*
X325144Y404353D01*
X325188Y404478D01*
X325229Y404604D01*
X325265Y404731D01*
X325298Y404859D01*
X325327Y404988D01*
X325353Y405117D01*
X325374Y405248D01*
X325392Y405379D01*
X325405Y405510D01*
X325415Y405642D01*
X325421Y405774D01*
X325423Y405906D01*
X310819Y414824D02*
X304130Y414824D01*
X308589Y421513D02*
X308589Y404791D01*
X308587Y404677D01*
X308581Y404563D01*
X308571Y404449D01*
X308558Y404336D01*
X308540Y404223D01*
X308519Y404111D01*
X308494Y403999D01*
X308465Y403889D01*
X308432Y403779D01*
X308396Y403671D01*
X308356Y403564D01*
X308312Y403459D01*
X308265Y403355D01*
X308214Y403253D01*
X308160Y403152D01*
X308102Y403054D01*
X308041Y402957D01*
X307977Y402863D01*
X307910Y402770D01*
X307839Y402681D01*
X307765Y402593D01*
X307689Y402509D01*
X307610Y402426D01*
X307527Y402347D01*
X307443Y402271D01*
X307355Y402197D01*
X307266Y402126D01*
X307173Y402059D01*
X307079Y401995D01*
X306982Y401934D01*
X306884Y401876D01*
X306783Y401822D01*
X306681Y401771D01*
X306577Y401724D01*
X306472Y401680D01*
X306365Y401640D01*
X306257Y401604D01*
X306147Y401571D01*
X306037Y401542D01*
X305925Y401517D01*
X305813Y401496D01*
X305700Y401478D01*
X305587Y401465D01*
X305473Y401455D01*
X305359Y401449D01*
X305245Y401447D01*
X304130Y401447D01*
X283181Y401447D02*
X278722Y401447D01*
X283181Y401447D02*
X283313Y401449D01*
X283445Y401455D01*
X283577Y401465D01*
X283708Y401478D01*
X283839Y401496D01*
X283970Y401517D01*
X284099Y401543D01*
X284228Y401572D01*
X284356Y401605D01*
X284483Y401641D01*
X284609Y401682D01*
X284734Y401726D01*
X284857Y401774D01*
X284979Y401825D01*
X285099Y401880D01*
X285217Y401939D01*
X285334Y402001D01*
X285449Y402067D01*
X285561Y402135D01*
X285672Y402208D01*
X285781Y402283D01*
X285887Y402362D01*
X285991Y402443D01*
X286092Y402528D01*
X286191Y402616D01*
X286287Y402707D01*
X286380Y402800D01*
X286471Y402896D01*
X286559Y402995D01*
X286644Y403096D01*
X286725Y403200D01*
X286804Y403307D01*
X286879Y403415D01*
X286952Y403526D01*
X287020Y403638D01*
X287086Y403753D01*
X287148Y403870D01*
X287207Y403988D01*
X287262Y404108D01*
X287313Y404230D01*
X287361Y404353D01*
X287405Y404478D01*
X287446Y404604D01*
X287482Y404731D01*
X287515Y404859D01*
X287544Y404988D01*
X287570Y405117D01*
X287591Y405248D01*
X287609Y405379D01*
X287622Y405510D01*
X287632Y405642D01*
X287638Y405774D01*
X287640Y405906D01*
X287640Y417054D01*
X287638Y417186D01*
X287632Y417318D01*
X287622Y417450D01*
X287609Y417581D01*
X287591Y417712D01*
X287570Y417843D01*
X287544Y417972D01*
X287515Y418101D01*
X287482Y418229D01*
X287446Y418356D01*
X287405Y418482D01*
X287361Y418607D01*
X287313Y418730D01*
X287262Y418852D01*
X287207Y418972D01*
X287148Y419090D01*
X287086Y419207D01*
X287020Y419322D01*
X286952Y419434D01*
X286879Y419545D01*
X286804Y419653D01*
X286725Y419760D01*
X286644Y419864D01*
X286559Y419965D01*
X286471Y420064D01*
X286380Y420160D01*
X286287Y420253D01*
X286191Y420344D01*
X286092Y420432D01*
X285991Y420516D01*
X285887Y420598D01*
X285781Y420677D01*
X285672Y420752D01*
X285561Y420824D01*
X285449Y420893D01*
X285334Y420959D01*
X285217Y421021D01*
X285099Y421080D01*
X284979Y421135D01*
X284857Y421186D01*
X284734Y421234D01*
X284609Y421278D01*
X284483Y421319D01*
X284356Y421355D01*
X284228Y421388D01*
X284100Y421417D01*
X283970Y421443D01*
X283839Y421464D01*
X283708Y421482D01*
X283577Y421495D01*
X283445Y421505D01*
X283313Y421511D01*
X283181Y421513D01*
X278722Y421513D01*
X271662Y421513D02*
X271662Y401447D01*
X271662Y414824D02*
X266089Y414824D01*
X265975Y414822D01*
X265861Y414816D01*
X265747Y414806D01*
X265634Y414793D01*
X265521Y414775D01*
X265409Y414754D01*
X265297Y414729D01*
X265187Y414700D01*
X265077Y414667D01*
X264969Y414631D01*
X264862Y414591D01*
X264757Y414547D01*
X264653Y414500D01*
X264551Y414449D01*
X264450Y414395D01*
X264352Y414337D01*
X264255Y414276D01*
X264161Y414212D01*
X264068Y414145D01*
X263979Y414074D01*
X263891Y414000D01*
X263807Y413924D01*
X263724Y413845D01*
X263645Y413762D01*
X263569Y413678D01*
X263495Y413590D01*
X263425Y413501D01*
X263357Y413408D01*
X263293Y413314D01*
X263232Y413218D01*
X263174Y413119D01*
X263120Y413018D01*
X263069Y412916D01*
X263022Y412812D01*
X262978Y412707D01*
X262938Y412600D01*
X262902Y412492D01*
X262869Y412382D01*
X262840Y412272D01*
X262815Y412160D01*
X262794Y412048D01*
X262776Y411935D01*
X262763Y411822D01*
X262753Y411708D01*
X262747Y411594D01*
X262745Y411480D01*
X262744Y411480D02*
X262744Y401447D01*
X251634Y401447D02*
X246060Y401447D01*
X251634Y401447D02*
X251748Y401449D01*
X251862Y401455D01*
X251976Y401465D01*
X252089Y401478D01*
X252202Y401496D01*
X252314Y401517D01*
X252426Y401542D01*
X252536Y401571D01*
X252646Y401604D01*
X252754Y401640D01*
X252861Y401680D01*
X252966Y401724D01*
X253070Y401771D01*
X253172Y401822D01*
X253273Y401876D01*
X253371Y401934D01*
X253468Y401995D01*
X253562Y402059D01*
X253655Y402126D01*
X253744Y402197D01*
X253832Y402271D01*
X253916Y402347D01*
X253999Y402426D01*
X254078Y402509D01*
X254154Y402593D01*
X254228Y402681D01*
X254299Y402770D01*
X254366Y402863D01*
X254430Y402957D01*
X254491Y403054D01*
X254549Y403152D01*
X254603Y403253D01*
X254654Y403355D01*
X254701Y403459D01*
X254745Y403564D01*
X254785Y403671D01*
X254821Y403779D01*
X254854Y403889D01*
X254883Y403999D01*
X254908Y404111D01*
X254929Y404223D01*
X254947Y404336D01*
X254960Y404449D01*
X254970Y404563D01*
X254976Y404677D01*
X254978Y404791D01*
X254978Y410365D01*
X254976Y410497D01*
X254970Y410629D01*
X254960Y410761D01*
X254947Y410892D01*
X254929Y411023D01*
X254908Y411154D01*
X254882Y411283D01*
X254853Y411412D01*
X254820Y411540D01*
X254784Y411667D01*
X254743Y411793D01*
X254699Y411918D01*
X254651Y412041D01*
X254600Y412163D01*
X254545Y412283D01*
X254486Y412401D01*
X254424Y412518D01*
X254358Y412633D01*
X254290Y412745D01*
X254217Y412856D01*
X254142Y412965D01*
X254063Y413071D01*
X253982Y413175D01*
X253897Y413276D01*
X253809Y413375D01*
X253718Y413471D01*
X253625Y413564D01*
X253529Y413655D01*
X253430Y413743D01*
X253329Y413828D01*
X253225Y413909D01*
X253119Y413988D01*
X253010Y414063D01*
X252899Y414136D01*
X252787Y414204D01*
X252672Y414270D01*
X252555Y414332D01*
X252437Y414391D01*
X252317Y414446D01*
X252195Y414497D01*
X252072Y414545D01*
X251947Y414589D01*
X251821Y414630D01*
X251694Y414666D01*
X251566Y414699D01*
X251437Y414728D01*
X251308Y414754D01*
X251177Y414775D01*
X251046Y414793D01*
X250915Y414806D01*
X250783Y414816D01*
X250651Y414822D01*
X250519Y414824D01*
X250387Y414822D01*
X250255Y414816D01*
X250123Y414806D01*
X249992Y414793D01*
X249861Y414775D01*
X249730Y414754D01*
X249601Y414728D01*
X249472Y414699D01*
X249344Y414666D01*
X249217Y414630D01*
X249091Y414589D01*
X248966Y414545D01*
X248843Y414497D01*
X248721Y414446D01*
X248601Y414391D01*
X248483Y414332D01*
X248366Y414270D01*
X248251Y414204D01*
X248139Y414136D01*
X248028Y414063D01*
X247919Y413988D01*
X247813Y413909D01*
X247709Y413828D01*
X247608Y413743D01*
X247509Y413655D01*
X247413Y413564D01*
X247320Y413471D01*
X247229Y413375D01*
X247141Y413276D01*
X247056Y413175D01*
X246975Y413071D01*
X246896Y412965D01*
X246821Y412856D01*
X246748Y412745D01*
X246680Y412633D01*
X246614Y412518D01*
X246552Y412401D01*
X246493Y412283D01*
X246438Y412163D01*
X246387Y412041D01*
X246339Y411918D01*
X246295Y411793D01*
X246254Y411667D01*
X246218Y411540D01*
X246185Y411412D01*
X246156Y411283D01*
X246130Y411154D01*
X246109Y411023D01*
X246091Y410892D01*
X246078Y410761D01*
X246068Y410629D01*
X246062Y410497D01*
X246060Y410365D01*
X246060Y408136D01*
X254978Y408136D01*
X235550Y401447D02*
X231091Y401447D01*
X235550Y401447D02*
X235664Y401449D01*
X235778Y401455D01*
X235892Y401465D01*
X236005Y401478D01*
X236118Y401496D01*
X236230Y401517D01*
X236342Y401542D01*
X236452Y401571D01*
X236562Y401604D01*
X236670Y401640D01*
X236777Y401680D01*
X236882Y401724D01*
X236986Y401771D01*
X237088Y401822D01*
X237189Y401876D01*
X237287Y401934D01*
X237384Y401995D01*
X237478Y402059D01*
X237571Y402126D01*
X237660Y402197D01*
X237748Y402271D01*
X237832Y402347D01*
X237915Y402426D01*
X237994Y402509D01*
X238070Y402593D01*
X238144Y402681D01*
X238215Y402770D01*
X238282Y402863D01*
X238346Y402957D01*
X238407Y403054D01*
X238465Y403152D01*
X238519Y403253D01*
X238570Y403355D01*
X238617Y403459D01*
X238661Y403564D01*
X238701Y403671D01*
X238737Y403779D01*
X238770Y403889D01*
X238799Y403999D01*
X238824Y404111D01*
X238845Y404223D01*
X238863Y404336D01*
X238876Y404449D01*
X238886Y404563D01*
X238892Y404677D01*
X238894Y404791D01*
X238894Y411480D01*
X238892Y411594D01*
X238886Y411708D01*
X238876Y411822D01*
X238863Y411935D01*
X238845Y412048D01*
X238824Y412160D01*
X238799Y412272D01*
X238770Y412382D01*
X238737Y412492D01*
X238701Y412600D01*
X238661Y412707D01*
X238617Y412812D01*
X238570Y412916D01*
X238519Y413018D01*
X238465Y413119D01*
X238407Y413217D01*
X238346Y413314D01*
X238282Y413408D01*
X238215Y413501D01*
X238144Y413590D01*
X238070Y413678D01*
X237994Y413762D01*
X237915Y413845D01*
X237832Y413924D01*
X237748Y414000D01*
X237660Y414074D01*
X237571Y414145D01*
X237478Y414212D01*
X237384Y414276D01*
X237287Y414337D01*
X237189Y414395D01*
X237088Y414449D01*
X236986Y414500D01*
X236882Y414547D01*
X236777Y414591D01*
X236670Y414631D01*
X236562Y414667D01*
X236452Y414700D01*
X236342Y414729D01*
X236230Y414754D01*
X236118Y414775D01*
X236005Y414793D01*
X235892Y414806D01*
X235778Y414816D01*
X235664Y414822D01*
X235550Y414824D01*
X231091Y414824D01*
X223931Y421513D02*
X223931Y401447D01*
X223931Y408136D02*
X215013Y414824D01*
X220029Y410923D02*
X215013Y401447D01*
D11*
X319939Y382502D02*
X319939Y374713D01*
X319939Y382502D02*
X316044Y382502D01*
X316044Y381204D01*
X310438Y374713D02*
X307192Y374713D01*
X310438Y374713D02*
X310525Y374715D01*
X310613Y374721D01*
X310699Y374731D01*
X310786Y374744D01*
X310871Y374762D01*
X310956Y374783D01*
X311040Y374808D01*
X311122Y374837D01*
X311203Y374870D01*
X311283Y374906D01*
X311361Y374945D01*
X311437Y374989D01*
X311511Y375035D01*
X311582Y375085D01*
X311652Y375138D01*
X311719Y375194D01*
X311783Y375253D01*
X311845Y375315D01*
X311904Y375379D01*
X311960Y375446D01*
X312013Y375516D01*
X312063Y375587D01*
X312109Y375661D01*
X312153Y375737D01*
X312192Y375815D01*
X312228Y375895D01*
X312261Y375976D01*
X312290Y376058D01*
X312315Y376142D01*
X312336Y376227D01*
X312354Y376312D01*
X312367Y376399D01*
X312377Y376485D01*
X312383Y376573D01*
X312385Y376660D01*
X312385Y379906D01*
X312383Y380007D01*
X312377Y380107D01*
X312367Y380207D01*
X312354Y380307D01*
X312336Y380406D01*
X312315Y380505D01*
X312290Y380602D01*
X312261Y380699D01*
X312228Y380794D01*
X312192Y380888D01*
X312152Y380980D01*
X312109Y381071D01*
X312062Y381160D01*
X312012Y381247D01*
X311958Y381333D01*
X311901Y381416D01*
X311841Y381496D01*
X311778Y381575D01*
X311711Y381651D01*
X311642Y381724D01*
X311570Y381794D01*
X311496Y381862D01*
X311419Y381927D01*
X311339Y381988D01*
X311257Y382047D01*
X311173Y382102D01*
X311087Y382154D01*
X310999Y382203D01*
X310909Y382248D01*
X310817Y382290D01*
X310724Y382328D01*
X310629Y382362D01*
X310534Y382393D01*
X310437Y382420D01*
X310339Y382443D01*
X310240Y382463D01*
X310140Y382478D01*
X310040Y382490D01*
X309940Y382498D01*
X309839Y382502D01*
X309739Y382502D01*
X309638Y382498D01*
X309538Y382490D01*
X309438Y382478D01*
X309338Y382463D01*
X309239Y382443D01*
X309141Y382420D01*
X309044Y382393D01*
X308949Y382362D01*
X308854Y382328D01*
X308761Y382290D01*
X308669Y382248D01*
X308579Y382203D01*
X308491Y382154D01*
X308405Y382102D01*
X308321Y382047D01*
X308239Y381988D01*
X308159Y381927D01*
X308082Y381862D01*
X308008Y381794D01*
X307936Y381724D01*
X307867Y381651D01*
X307800Y381575D01*
X307737Y381496D01*
X307677Y381416D01*
X307620Y381333D01*
X307566Y381247D01*
X307516Y381160D01*
X307469Y381071D01*
X307426Y380980D01*
X307386Y380888D01*
X307350Y380794D01*
X307317Y380699D01*
X307288Y380602D01*
X307263Y380505D01*
X307242Y380406D01*
X307224Y380307D01*
X307211Y380207D01*
X307201Y380107D01*
X307195Y380007D01*
X307193Y379906D01*
X307192Y379906D02*
X307192Y378608D01*
X312385Y378608D01*
X302860Y382502D02*
X300264Y374713D01*
X297667Y382502D01*
X293730Y375362D02*
X293730Y374713D01*
X293730Y375362D02*
X293081Y375362D01*
X293081Y374713D01*
X293730Y374713D01*
X282554Y374713D02*
X279309Y374713D01*
X279196Y374715D01*
X279083Y374721D01*
X278970Y374731D01*
X278857Y374745D01*
X278745Y374762D01*
X278634Y374784D01*
X278524Y374809D01*
X278414Y374839D01*
X278306Y374872D01*
X278199Y374909D01*
X278093Y374949D01*
X277989Y374994D01*
X277886Y375042D01*
X277785Y375093D01*
X277686Y375148D01*
X277589Y375206D01*
X277494Y375268D01*
X277401Y375333D01*
X277311Y375401D01*
X277223Y375472D01*
X277137Y375547D01*
X277054Y375624D01*
X276974Y375704D01*
X276897Y375787D01*
X276822Y375873D01*
X276751Y375961D01*
X276683Y376051D01*
X276618Y376144D01*
X276556Y376239D01*
X276498Y376336D01*
X276443Y376435D01*
X276392Y376536D01*
X276344Y376639D01*
X276299Y376743D01*
X276259Y376849D01*
X276222Y376956D01*
X276189Y377064D01*
X276159Y377174D01*
X276134Y377284D01*
X276112Y377395D01*
X276095Y377507D01*
X276081Y377620D01*
X276071Y377733D01*
X276065Y377846D01*
X276063Y377959D01*
X276065Y378072D01*
X276071Y378185D01*
X276081Y378298D01*
X276095Y378411D01*
X276112Y378523D01*
X276134Y378634D01*
X276159Y378744D01*
X276189Y378854D01*
X276222Y378962D01*
X276259Y379069D01*
X276299Y379175D01*
X276344Y379279D01*
X276392Y379382D01*
X276443Y379483D01*
X276498Y379582D01*
X276556Y379679D01*
X276618Y379774D01*
X276683Y379867D01*
X276751Y379957D01*
X276822Y380045D01*
X276897Y380131D01*
X276974Y380214D01*
X277054Y380294D01*
X277137Y380371D01*
X277223Y380446D01*
X277311Y380517D01*
X277401Y380585D01*
X277494Y380650D01*
X277589Y380712D01*
X277686Y380770D01*
X277785Y380825D01*
X277886Y380876D01*
X277989Y380924D01*
X278093Y380969D01*
X278199Y381009D01*
X278306Y381046D01*
X278414Y381079D01*
X278524Y381109D01*
X278634Y381134D01*
X278745Y381156D01*
X278857Y381173D01*
X278970Y381187D01*
X279083Y381197D01*
X279196Y381203D01*
X279309Y381205D01*
X278660Y386397D02*
X282554Y386397D01*
X278660Y386397D02*
X278559Y386395D01*
X278459Y386389D01*
X278359Y386379D01*
X278259Y386366D01*
X278160Y386348D01*
X278061Y386327D01*
X277964Y386302D01*
X277867Y386273D01*
X277772Y386240D01*
X277678Y386204D01*
X277586Y386164D01*
X277495Y386121D01*
X277406Y386074D01*
X277319Y386024D01*
X277233Y385970D01*
X277150Y385913D01*
X277070Y385853D01*
X276991Y385790D01*
X276915Y385723D01*
X276842Y385654D01*
X276772Y385582D01*
X276704Y385508D01*
X276639Y385431D01*
X276578Y385351D01*
X276519Y385269D01*
X276464Y385185D01*
X276412Y385099D01*
X276363Y385011D01*
X276318Y384921D01*
X276276Y384829D01*
X276238Y384736D01*
X276204Y384641D01*
X276173Y384546D01*
X276146Y384449D01*
X276123Y384351D01*
X276103Y384252D01*
X276088Y384152D01*
X276076Y384052D01*
X276068Y383952D01*
X276064Y383851D01*
X276064Y383751D01*
X276068Y383650D01*
X276076Y383550D01*
X276088Y383450D01*
X276103Y383350D01*
X276123Y383251D01*
X276146Y383153D01*
X276173Y383056D01*
X276204Y382961D01*
X276238Y382866D01*
X276276Y382773D01*
X276318Y382681D01*
X276363Y382591D01*
X276412Y382503D01*
X276464Y382417D01*
X276519Y382333D01*
X276578Y382251D01*
X276639Y382171D01*
X276704Y382094D01*
X276772Y382020D01*
X276842Y381948D01*
X276915Y381879D01*
X276991Y381812D01*
X277070Y381749D01*
X277150Y381689D01*
X277233Y381632D01*
X277319Y381578D01*
X277406Y381528D01*
X277495Y381481D01*
X277586Y381438D01*
X277678Y381398D01*
X277772Y381362D01*
X277867Y381329D01*
X277964Y381300D01*
X278061Y381275D01*
X278160Y381254D01*
X278259Y381236D01*
X278359Y381223D01*
X278459Y381213D01*
X278559Y381207D01*
X278660Y381205D01*
X278660Y381204D02*
X281256Y381204D01*
X271632Y375362D02*
X271632Y374713D01*
X271632Y375362D02*
X270983Y375362D01*
X270983Y374713D01*
X271632Y374713D01*
X266552Y383801D02*
X263307Y386397D01*
X263307Y374713D01*
X266552Y374713D02*
X260061Y374713D01*
X313989Y365724D02*
X314088Y365517D01*
X314181Y365307D01*
X314269Y365094D01*
X314352Y364880D01*
X314430Y364664D01*
X314503Y364446D01*
X314571Y364226D01*
X314633Y364005D01*
X314690Y363782D01*
X314742Y363558D01*
X314788Y363333D01*
X314829Y363107D01*
X314864Y362880D01*
X314894Y362652D01*
X314919Y362423D01*
X314938Y362194D01*
X314952Y361965D01*
X314960Y361735D01*
X314963Y361505D01*
X313989Y365724D02*
X313956Y365814D01*
X313920Y365903D01*
X313880Y365991D01*
X313836Y366076D01*
X313789Y366160D01*
X313739Y366242D01*
X313685Y366322D01*
X313629Y366399D01*
X313569Y366475D01*
X313506Y366548D01*
X313441Y366618D01*
X313372Y366686D01*
X313301Y366750D01*
X313228Y366812D01*
X313152Y366871D01*
X313074Y366927D01*
X312993Y366980D01*
X312911Y367029D01*
X312827Y367075D01*
X312740Y367118D01*
X312653Y367157D01*
X312563Y367193D01*
X312473Y367225D01*
X312381Y367253D01*
X312288Y367278D01*
X312194Y367299D01*
X312100Y367316D01*
X312005Y367330D01*
X311909Y367339D01*
X311813Y367345D01*
X311717Y367347D01*
X311621Y367345D01*
X311525Y367339D01*
X311429Y367330D01*
X311334Y367316D01*
X311240Y367299D01*
X311146Y367278D01*
X311053Y367253D01*
X310961Y367225D01*
X310871Y367193D01*
X310781Y367157D01*
X310694Y367118D01*
X310607Y367075D01*
X310523Y367029D01*
X310441Y366980D01*
X310360Y366927D01*
X310282Y366871D01*
X310206Y366812D01*
X310133Y366750D01*
X310062Y366686D01*
X309993Y366618D01*
X309928Y366548D01*
X309865Y366475D01*
X309805Y366400D01*
X309749Y366322D01*
X309695Y366242D01*
X309645Y366160D01*
X309598Y366076D01*
X309555Y365991D01*
X309514Y365903D01*
X309478Y365814D01*
X309445Y365724D01*
X309446Y365724D02*
X309347Y365516D01*
X309254Y365306D01*
X309166Y365094D01*
X309083Y364880D01*
X309005Y364663D01*
X308932Y364445D01*
X308864Y364226D01*
X308802Y364004D01*
X308745Y363782D01*
X308693Y363558D01*
X308647Y363333D01*
X308606Y363107D01*
X308571Y362879D01*
X308541Y362652D01*
X308516Y362423D01*
X308497Y362194D01*
X308483Y361965D01*
X308475Y361735D01*
X308472Y361505D01*
X314963Y361505D02*
X314960Y361275D01*
X314952Y361045D01*
X314938Y360816D01*
X314919Y360587D01*
X314894Y360358D01*
X314864Y360130D01*
X314829Y359903D01*
X314788Y359677D01*
X314742Y359452D01*
X314690Y359228D01*
X314633Y359005D01*
X314571Y358784D01*
X314503Y358564D01*
X314430Y358346D01*
X314352Y358130D01*
X314269Y357916D01*
X314181Y357704D01*
X314088Y357493D01*
X313989Y357286D01*
X313956Y357196D01*
X313920Y357107D01*
X313879Y357019D01*
X313836Y356934D01*
X313789Y356850D01*
X313739Y356768D01*
X313685Y356688D01*
X313629Y356611D01*
X313569Y356535D01*
X313506Y356462D01*
X313441Y356392D01*
X313372Y356324D01*
X313301Y356260D01*
X313228Y356198D01*
X313152Y356139D01*
X313074Y356083D01*
X312993Y356030D01*
X312911Y355981D01*
X312827Y355935D01*
X312740Y355892D01*
X312653Y355853D01*
X312563Y355817D01*
X312473Y355785D01*
X312381Y355757D01*
X312288Y355732D01*
X312194Y355711D01*
X312100Y355694D01*
X312005Y355680D01*
X311909Y355671D01*
X311813Y355665D01*
X311717Y355663D01*
X309445Y357286D02*
X309346Y357493D01*
X309253Y357704D01*
X309165Y357916D01*
X309082Y358130D01*
X309004Y358346D01*
X308931Y358564D01*
X308863Y358784D01*
X308801Y359005D01*
X308744Y359228D01*
X308692Y359452D01*
X308646Y359677D01*
X308605Y359903D01*
X308570Y360130D01*
X308540Y360358D01*
X308515Y360587D01*
X308496Y360816D01*
X308482Y361045D01*
X308474Y361275D01*
X308471Y361505D01*
X309445Y357286D02*
X309478Y357196D01*
X309514Y357107D01*
X309555Y357019D01*
X309598Y356934D01*
X309645Y356850D01*
X309695Y356768D01*
X309749Y356688D01*
X309805Y356610D01*
X309865Y356535D01*
X309928Y356462D01*
X309993Y356392D01*
X310062Y356324D01*
X310133Y356260D01*
X310206Y356198D01*
X310282Y356139D01*
X310360Y356083D01*
X310441Y356030D01*
X310523Y355981D01*
X310607Y355935D01*
X310694Y355892D01*
X310781Y355853D01*
X310871Y355817D01*
X310961Y355785D01*
X311053Y355757D01*
X311146Y355732D01*
X311240Y355711D01*
X311334Y355694D01*
X311429Y355680D01*
X311525Y355671D01*
X311621Y355665D01*
X311717Y355663D01*
X314313Y358259D02*
X309121Y364751D01*
X303533Y358259D02*
X300936Y367347D01*
X303533Y358259D02*
X297041Y358259D01*
X298989Y355663D02*
X298989Y360856D01*
X292596Y354365D02*
X287404Y368645D01*
X279388Y367347D02*
X279281Y367345D01*
X279175Y367339D01*
X279069Y367329D01*
X278963Y367316D01*
X278857Y367298D01*
X278753Y367277D01*
X278649Y367252D01*
X278546Y367223D01*
X278445Y367191D01*
X278345Y367154D01*
X278246Y367114D01*
X278148Y367071D01*
X278052Y367024D01*
X277958Y366973D01*
X277866Y366919D01*
X277776Y366862D01*
X277688Y366802D01*
X277603Y366738D01*
X277520Y366671D01*
X277439Y366601D01*
X277361Y366529D01*
X277285Y366453D01*
X277213Y366375D01*
X277143Y366294D01*
X277076Y366211D01*
X277012Y366126D01*
X276952Y366038D01*
X276895Y365948D01*
X276841Y365856D01*
X276790Y365762D01*
X276743Y365666D01*
X276700Y365568D01*
X276660Y365469D01*
X276623Y365369D01*
X276591Y365268D01*
X276562Y365165D01*
X276537Y365061D01*
X276516Y364957D01*
X276498Y364851D01*
X276485Y364745D01*
X276475Y364639D01*
X276469Y364533D01*
X276467Y364426D01*
X279388Y367347D02*
X279509Y367345D01*
X279630Y367339D01*
X279750Y367329D01*
X279871Y367316D01*
X279990Y367298D01*
X280110Y367277D01*
X280228Y367252D01*
X280345Y367223D01*
X280462Y367190D01*
X280577Y367154D01*
X280691Y367113D01*
X280804Y367070D01*
X280916Y367022D01*
X281025Y366971D01*
X281133Y366916D01*
X281240Y366858D01*
X281344Y366797D01*
X281446Y366732D01*
X281546Y366664D01*
X281644Y366593D01*
X281740Y366519D01*
X281833Y366442D01*
X281923Y366361D01*
X282011Y366278D01*
X282096Y366192D01*
X282179Y366103D01*
X282258Y366012D01*
X282335Y365918D01*
X282408Y365822D01*
X282478Y365724D01*
X282545Y365623D01*
X282609Y365520D01*
X282670Y365415D01*
X282727Y365308D01*
X282780Y365200D01*
X282830Y365090D01*
X282876Y364978D01*
X282919Y364865D01*
X282958Y364750D01*
X277442Y362154D02*
X277363Y362232D01*
X277287Y362312D01*
X277214Y362395D01*
X277144Y362481D01*
X277077Y362568D01*
X277013Y362659D01*
X276953Y362751D01*
X276895Y362845D01*
X276841Y362942D01*
X276791Y363040D01*
X276744Y363140D01*
X276700Y363241D01*
X276660Y363344D01*
X276624Y363449D01*
X276592Y363554D01*
X276563Y363661D01*
X276538Y363768D01*
X276516Y363877D01*
X276499Y363986D01*
X276485Y364095D01*
X276476Y364205D01*
X276470Y364316D01*
X276468Y364426D01*
X277441Y362154D02*
X282959Y355663D01*
X276467Y355663D01*
X265038Y364426D02*
X265040Y364533D01*
X265046Y364639D01*
X265056Y364745D01*
X265069Y364851D01*
X265087Y364957D01*
X265108Y365061D01*
X265133Y365165D01*
X265162Y365268D01*
X265194Y365369D01*
X265231Y365469D01*
X265271Y365568D01*
X265314Y365666D01*
X265361Y365762D01*
X265412Y365856D01*
X265466Y365948D01*
X265523Y366038D01*
X265583Y366126D01*
X265647Y366211D01*
X265714Y366294D01*
X265784Y366375D01*
X265856Y366453D01*
X265932Y366529D01*
X266010Y366601D01*
X266091Y366671D01*
X266174Y366738D01*
X266259Y366802D01*
X266347Y366862D01*
X266437Y366919D01*
X266529Y366973D01*
X266623Y367024D01*
X266719Y367071D01*
X266817Y367114D01*
X266916Y367154D01*
X267016Y367191D01*
X267117Y367223D01*
X267220Y367252D01*
X267324Y367277D01*
X267428Y367298D01*
X267534Y367316D01*
X267640Y367329D01*
X267746Y367339D01*
X267852Y367345D01*
X267959Y367347D01*
X268080Y367345D01*
X268201Y367339D01*
X268321Y367329D01*
X268442Y367316D01*
X268561Y367298D01*
X268681Y367277D01*
X268799Y367252D01*
X268916Y367223D01*
X269033Y367190D01*
X269148Y367154D01*
X269262Y367113D01*
X269375Y367070D01*
X269487Y367022D01*
X269596Y366971D01*
X269704Y366916D01*
X269811Y366858D01*
X269915Y366797D01*
X270017Y366732D01*
X270117Y366664D01*
X270215Y366593D01*
X270311Y366519D01*
X270404Y366442D01*
X270494Y366361D01*
X270582Y366278D01*
X270667Y366192D01*
X270750Y366103D01*
X270829Y366012D01*
X270906Y365918D01*
X270979Y365822D01*
X271049Y365724D01*
X271116Y365623D01*
X271180Y365520D01*
X271241Y365415D01*
X271298Y365308D01*
X271351Y365200D01*
X271401Y365090D01*
X271447Y364978D01*
X271490Y364865D01*
X271529Y364750D01*
X266012Y362154D02*
X265933Y362232D01*
X265857Y362312D01*
X265784Y362395D01*
X265714Y362481D01*
X265647Y362568D01*
X265583Y362659D01*
X265523Y362751D01*
X265465Y362845D01*
X265411Y362942D01*
X265361Y363040D01*
X265314Y363140D01*
X265270Y363241D01*
X265230Y363344D01*
X265194Y363449D01*
X265162Y363554D01*
X265133Y363661D01*
X265108Y363768D01*
X265086Y363877D01*
X265069Y363986D01*
X265055Y364095D01*
X265046Y364205D01*
X265040Y364316D01*
X265038Y364426D01*
X266011Y362154D02*
X271529Y355663D01*
X265038Y355663D01*
D10*
X348721Y103392D02*
X348723Y103260D01*
X348729Y103128D01*
X348739Y102996D01*
X348752Y102865D01*
X348770Y102734D01*
X348791Y102603D01*
X348817Y102474D01*
X348846Y102345D01*
X348879Y102217D01*
X348915Y102090D01*
X348956Y101964D01*
X349000Y101839D01*
X349048Y101716D01*
X349099Y101594D01*
X349154Y101474D01*
X349213Y101356D01*
X349275Y101239D01*
X349341Y101124D01*
X349409Y101012D01*
X349482Y100901D01*
X349557Y100792D01*
X349636Y100686D01*
X349717Y100582D01*
X349802Y100481D01*
X349890Y100382D01*
X349981Y100286D01*
X350074Y100193D01*
X350170Y100102D01*
X350269Y100014D01*
X350370Y99929D01*
X350474Y99848D01*
X350580Y99769D01*
X350689Y99694D01*
X350800Y99621D01*
X350912Y99553D01*
X351027Y99487D01*
X351144Y99425D01*
X351262Y99366D01*
X351382Y99311D01*
X351504Y99260D01*
X351627Y99212D01*
X351752Y99168D01*
X351878Y99127D01*
X352005Y99091D01*
X352133Y99058D01*
X352262Y99029D01*
X352391Y99003D01*
X352522Y98982D01*
X352653Y98964D01*
X352784Y98951D01*
X352916Y98941D01*
X353048Y98935D01*
X353180Y98933D01*
X353405Y98936D01*
X353631Y98944D01*
X353856Y98957D01*
X354080Y98976D01*
X354304Y99000D01*
X354528Y99030D01*
X354750Y99065D01*
X354972Y99105D01*
X355193Y99151D01*
X355412Y99201D01*
X355631Y99257D01*
X355848Y99319D01*
X356063Y99385D01*
X356277Y99457D01*
X356489Y99533D01*
X356699Y99615D01*
X356907Y99702D01*
X357113Y99793D01*
X357316Y99890D01*
X357518Y99991D01*
X357717Y100097D01*
X357913Y100208D01*
X358106Y100324D01*
X358297Y100444D01*
X358485Y100569D01*
X358669Y100698D01*
X358851Y100831D01*
X359029Y100969D01*
X359204Y101111D01*
X359376Y101257D01*
X359544Y101408D01*
X359708Y101562D01*
X359869Y101720D01*
X359311Y114540D02*
X359309Y114672D01*
X359303Y114804D01*
X359293Y114936D01*
X359280Y115067D01*
X359262Y115198D01*
X359241Y115329D01*
X359215Y115458D01*
X359186Y115587D01*
X359153Y115715D01*
X359117Y115842D01*
X359076Y115968D01*
X359032Y116093D01*
X358984Y116216D01*
X358933Y116338D01*
X358878Y116458D01*
X358819Y116576D01*
X358757Y116693D01*
X358691Y116808D01*
X358623Y116920D01*
X358550Y117031D01*
X358475Y117140D01*
X358396Y117246D01*
X358315Y117350D01*
X358230Y117451D01*
X358142Y117550D01*
X358051Y117646D01*
X357958Y117739D01*
X357862Y117830D01*
X357763Y117918D01*
X357662Y118003D01*
X357558Y118084D01*
X357452Y118163D01*
X357343Y118238D01*
X357232Y118311D01*
X357120Y118379D01*
X357005Y118445D01*
X356888Y118507D01*
X356770Y118566D01*
X356650Y118621D01*
X356528Y118672D01*
X356405Y118720D01*
X356280Y118764D01*
X356154Y118805D01*
X356027Y118841D01*
X355899Y118874D01*
X355770Y118903D01*
X355641Y118929D01*
X355510Y118950D01*
X355379Y118968D01*
X355248Y118981D01*
X355116Y118991D01*
X354984Y118997D01*
X354852Y118999D01*
X354653Y118997D01*
X354454Y118990D01*
X354255Y118978D01*
X354056Y118961D01*
X353858Y118940D01*
X353660Y118914D01*
X353464Y118883D01*
X353267Y118847D01*
X353072Y118807D01*
X352878Y118763D01*
X352685Y118713D01*
X352493Y118659D01*
X352303Y118601D01*
X352114Y118538D01*
X351926Y118470D01*
X351740Y118398D01*
X351556Y118322D01*
X351374Y118241D01*
X351194Y118156D01*
X351016Y118067D01*
X350840Y117973D01*
X350666Y117876D01*
X350495Y117774D01*
X350326Y117668D01*
X350160Y117558D01*
X349996Y117444D01*
X349835Y117327D01*
X357081Y110638D02*
X357193Y110706D01*
X357302Y110777D01*
X357410Y110851D01*
X357515Y110929D01*
X357618Y111009D01*
X357719Y111092D01*
X357817Y111178D01*
X357913Y111267D01*
X358006Y111359D01*
X358096Y111453D01*
X358184Y111550D01*
X358269Y111649D01*
X358351Y111751D01*
X358429Y111855D01*
X358505Y111962D01*
X358578Y112070D01*
X358648Y112181D01*
X358714Y112293D01*
X358777Y112407D01*
X358837Y112523D01*
X358894Y112641D01*
X358947Y112761D01*
X358996Y112881D01*
X359042Y113004D01*
X359085Y113127D01*
X359124Y113252D01*
X359159Y113378D01*
X359191Y113504D01*
X359219Y113632D01*
X359243Y113760D01*
X359264Y113889D01*
X359281Y114019D01*
X359294Y114149D01*
X359303Y114279D01*
X359309Y114409D01*
X359311Y114540D01*
X350950Y107294D02*
X350838Y107226D01*
X350729Y107155D01*
X350621Y107081D01*
X350516Y107003D01*
X350413Y106923D01*
X350312Y106840D01*
X350214Y106754D01*
X350118Y106665D01*
X350025Y106573D01*
X349935Y106479D01*
X349847Y106382D01*
X349762Y106283D01*
X349680Y106181D01*
X349602Y106077D01*
X349526Y105970D01*
X349453Y105862D01*
X349383Y105751D01*
X349317Y105639D01*
X349254Y105525D01*
X349194Y105409D01*
X349137Y105291D01*
X349084Y105171D01*
X349035Y105051D01*
X348989Y104928D01*
X348946Y104805D01*
X348907Y104680D01*
X348872Y104554D01*
X348840Y104428D01*
X348812Y104300D01*
X348788Y104172D01*
X348767Y104043D01*
X348750Y103913D01*
X348737Y103783D01*
X348728Y103653D01*
X348722Y103523D01*
X348720Y103392D01*
X350950Y107294D02*
X357081Y110638D01*
X328838Y98933D02*
X323264Y98933D01*
X328838Y98933D02*
X328952Y98935D01*
X329066Y98941D01*
X329180Y98951D01*
X329293Y98964D01*
X329406Y98982D01*
X329518Y99003D01*
X329630Y99028D01*
X329740Y99057D01*
X329850Y99090D01*
X329958Y99126D01*
X330065Y99166D01*
X330170Y99210D01*
X330274Y99257D01*
X330376Y99308D01*
X330477Y99362D01*
X330575Y99420D01*
X330672Y99481D01*
X330766Y99545D01*
X330859Y99612D01*
X330948Y99683D01*
X331036Y99757D01*
X331120Y99833D01*
X331203Y99912D01*
X331282Y99995D01*
X331358Y100079D01*
X331432Y100167D01*
X331503Y100256D01*
X331570Y100349D01*
X331634Y100443D01*
X331695Y100540D01*
X331753Y100638D01*
X331807Y100739D01*
X331858Y100841D01*
X331905Y100945D01*
X331949Y101050D01*
X331989Y101157D01*
X332025Y101265D01*
X332058Y101375D01*
X332087Y101485D01*
X332112Y101597D01*
X332133Y101709D01*
X332151Y101822D01*
X332164Y101935D01*
X332174Y102049D01*
X332180Y102163D01*
X332182Y102277D01*
X332182Y107851D01*
X332180Y107983D01*
X332174Y108115D01*
X332164Y108247D01*
X332151Y108378D01*
X332133Y108509D01*
X332112Y108640D01*
X332086Y108769D01*
X332057Y108898D01*
X332024Y109026D01*
X331988Y109153D01*
X331947Y109279D01*
X331903Y109404D01*
X331855Y109527D01*
X331804Y109649D01*
X331749Y109769D01*
X331690Y109887D01*
X331628Y110004D01*
X331562Y110119D01*
X331494Y110231D01*
X331421Y110342D01*
X331346Y110451D01*
X331267Y110557D01*
X331186Y110661D01*
X331101Y110762D01*
X331013Y110861D01*
X330922Y110957D01*
X330829Y111050D01*
X330733Y111141D01*
X330634Y111229D01*
X330533Y111314D01*
X330429Y111395D01*
X330323Y111474D01*
X330214Y111549D01*
X330103Y111622D01*
X329991Y111690D01*
X329876Y111756D01*
X329759Y111818D01*
X329641Y111877D01*
X329521Y111932D01*
X329399Y111983D01*
X329276Y112031D01*
X329151Y112075D01*
X329025Y112116D01*
X328898Y112152D01*
X328770Y112185D01*
X328641Y112214D01*
X328512Y112240D01*
X328381Y112261D01*
X328250Y112279D01*
X328119Y112292D01*
X327987Y112302D01*
X327855Y112308D01*
X327723Y112310D01*
X327591Y112308D01*
X327459Y112302D01*
X327327Y112292D01*
X327196Y112279D01*
X327065Y112261D01*
X326934Y112240D01*
X326805Y112214D01*
X326676Y112185D01*
X326548Y112152D01*
X326421Y112116D01*
X326295Y112075D01*
X326170Y112031D01*
X326047Y111983D01*
X325925Y111932D01*
X325805Y111877D01*
X325687Y111818D01*
X325570Y111756D01*
X325455Y111690D01*
X325343Y111622D01*
X325232Y111549D01*
X325123Y111474D01*
X325017Y111395D01*
X324913Y111314D01*
X324812Y111229D01*
X324713Y111141D01*
X324617Y111050D01*
X324524Y110957D01*
X324433Y110861D01*
X324345Y110762D01*
X324260Y110661D01*
X324179Y110557D01*
X324100Y110451D01*
X324025Y110342D01*
X323952Y110231D01*
X323884Y110119D01*
X323818Y110004D01*
X323756Y109887D01*
X323697Y109769D01*
X323642Y109649D01*
X323591Y109527D01*
X323543Y109404D01*
X323499Y109279D01*
X323458Y109153D01*
X323422Y109026D01*
X323389Y108898D01*
X323360Y108769D01*
X323334Y108640D01*
X323313Y108509D01*
X323295Y108378D01*
X323282Y108247D01*
X323272Y108115D01*
X323266Y107983D01*
X323264Y107851D01*
X323264Y105622D01*
X332182Y105622D01*
X302867Y98933D02*
X298408Y98933D01*
X302867Y98933D02*
X302981Y98935D01*
X303095Y98941D01*
X303209Y98951D01*
X303322Y98964D01*
X303435Y98982D01*
X303547Y99003D01*
X303659Y99028D01*
X303769Y99057D01*
X303879Y99090D01*
X303987Y99126D01*
X304094Y99166D01*
X304199Y99210D01*
X304303Y99257D01*
X304405Y99308D01*
X304506Y99362D01*
X304604Y99420D01*
X304701Y99481D01*
X304795Y99545D01*
X304888Y99612D01*
X304977Y99683D01*
X305065Y99757D01*
X305149Y99833D01*
X305232Y99912D01*
X305311Y99995D01*
X305387Y100079D01*
X305461Y100167D01*
X305532Y100256D01*
X305599Y100349D01*
X305663Y100443D01*
X305724Y100540D01*
X305782Y100638D01*
X305836Y100739D01*
X305887Y100841D01*
X305934Y100945D01*
X305978Y101050D01*
X306018Y101157D01*
X306054Y101265D01*
X306087Y101375D01*
X306116Y101485D01*
X306141Y101597D01*
X306162Y101709D01*
X306180Y101822D01*
X306193Y101935D01*
X306203Y102049D01*
X306209Y102163D01*
X306211Y102277D01*
X306211Y108966D01*
X306209Y109080D01*
X306203Y109194D01*
X306193Y109308D01*
X306180Y109421D01*
X306162Y109534D01*
X306141Y109646D01*
X306116Y109758D01*
X306087Y109868D01*
X306054Y109978D01*
X306018Y110086D01*
X305978Y110193D01*
X305934Y110298D01*
X305887Y110402D01*
X305836Y110504D01*
X305782Y110605D01*
X305724Y110703D01*
X305663Y110800D01*
X305599Y110894D01*
X305532Y110987D01*
X305461Y111076D01*
X305387Y111164D01*
X305311Y111248D01*
X305232Y111331D01*
X305149Y111410D01*
X305065Y111486D01*
X304977Y111560D01*
X304888Y111631D01*
X304795Y111698D01*
X304701Y111762D01*
X304604Y111823D01*
X304506Y111881D01*
X304405Y111935D01*
X304303Y111986D01*
X304199Y112033D01*
X304094Y112077D01*
X303987Y112117D01*
X303879Y112153D01*
X303769Y112186D01*
X303659Y112215D01*
X303547Y112240D01*
X303435Y112261D01*
X303322Y112279D01*
X303209Y112292D01*
X303095Y112302D01*
X302981Y112308D01*
X302867Y112310D01*
X298408Y112310D01*
X282128Y107851D02*
X282128Y103392D01*
X282128Y107851D02*
X282126Y107983D01*
X282120Y108115D01*
X282110Y108247D01*
X282097Y108378D01*
X282079Y108509D01*
X282058Y108640D01*
X282032Y108769D01*
X282003Y108898D01*
X281970Y109026D01*
X281934Y109153D01*
X281893Y109279D01*
X281849Y109404D01*
X281801Y109527D01*
X281750Y109649D01*
X281695Y109769D01*
X281636Y109887D01*
X281574Y110004D01*
X281508Y110119D01*
X281440Y110231D01*
X281367Y110342D01*
X281292Y110451D01*
X281213Y110557D01*
X281132Y110661D01*
X281047Y110762D01*
X280959Y110861D01*
X280868Y110957D01*
X280775Y111050D01*
X280679Y111141D01*
X280580Y111229D01*
X280479Y111314D01*
X280375Y111395D01*
X280269Y111474D01*
X280160Y111549D01*
X280049Y111622D01*
X279937Y111690D01*
X279822Y111756D01*
X279705Y111818D01*
X279587Y111877D01*
X279467Y111932D01*
X279345Y111983D01*
X279222Y112031D01*
X279097Y112075D01*
X278971Y112116D01*
X278844Y112152D01*
X278716Y112185D01*
X278587Y112214D01*
X278458Y112240D01*
X278327Y112261D01*
X278196Y112279D01*
X278065Y112292D01*
X277933Y112302D01*
X277801Y112308D01*
X277669Y112310D01*
X277537Y112308D01*
X277405Y112302D01*
X277273Y112292D01*
X277142Y112279D01*
X277011Y112261D01*
X276880Y112240D01*
X276751Y112214D01*
X276622Y112185D01*
X276494Y112152D01*
X276367Y112116D01*
X276241Y112075D01*
X276116Y112031D01*
X275993Y111983D01*
X275871Y111932D01*
X275751Y111877D01*
X275633Y111818D01*
X275516Y111756D01*
X275401Y111690D01*
X275289Y111622D01*
X275178Y111549D01*
X275069Y111474D01*
X274963Y111395D01*
X274859Y111314D01*
X274758Y111229D01*
X274659Y111141D01*
X274563Y111050D01*
X274470Y110957D01*
X274379Y110861D01*
X274291Y110762D01*
X274206Y110661D01*
X274125Y110557D01*
X274046Y110451D01*
X273971Y110342D01*
X273898Y110231D01*
X273830Y110119D01*
X273764Y110004D01*
X273702Y109887D01*
X273643Y109769D01*
X273588Y109649D01*
X273537Y109527D01*
X273489Y109404D01*
X273445Y109279D01*
X273404Y109153D01*
X273368Y109026D01*
X273335Y108898D01*
X273306Y108769D01*
X273280Y108640D01*
X273259Y108509D01*
X273241Y108378D01*
X273228Y108247D01*
X273218Y108115D01*
X273212Y107983D01*
X273210Y107851D01*
X273210Y103392D01*
X273212Y103260D01*
X273218Y103128D01*
X273228Y102996D01*
X273241Y102865D01*
X273259Y102734D01*
X273280Y102603D01*
X273306Y102474D01*
X273335Y102345D01*
X273368Y102217D01*
X273404Y102090D01*
X273445Y101964D01*
X273489Y101839D01*
X273537Y101716D01*
X273588Y101594D01*
X273643Y101474D01*
X273702Y101356D01*
X273764Y101239D01*
X273830Y101124D01*
X273898Y101012D01*
X273971Y100901D01*
X274046Y100792D01*
X274125Y100686D01*
X274206Y100582D01*
X274291Y100481D01*
X274379Y100382D01*
X274470Y100286D01*
X274563Y100193D01*
X274659Y100102D01*
X274758Y100014D01*
X274859Y99929D01*
X274963Y99848D01*
X275069Y99769D01*
X275178Y99694D01*
X275289Y99621D01*
X275401Y99553D01*
X275516Y99487D01*
X275633Y99425D01*
X275751Y99366D01*
X275871Y99311D01*
X275993Y99260D01*
X276116Y99212D01*
X276241Y99168D01*
X276367Y99127D01*
X276494Y99091D01*
X276622Y99058D01*
X276751Y99029D01*
X276880Y99003D01*
X277011Y98982D01*
X277142Y98964D01*
X277273Y98951D01*
X277405Y98941D01*
X277537Y98935D01*
X277669Y98933D01*
X277801Y98935D01*
X277933Y98941D01*
X278065Y98951D01*
X278196Y98964D01*
X278327Y98982D01*
X278458Y99003D01*
X278587Y99029D01*
X278716Y99058D01*
X278844Y99091D01*
X278971Y99127D01*
X279097Y99168D01*
X279222Y99212D01*
X279345Y99260D01*
X279467Y99311D01*
X279587Y99366D01*
X279705Y99425D01*
X279822Y99487D01*
X279937Y99553D01*
X280049Y99621D01*
X280160Y99694D01*
X280269Y99769D01*
X280375Y99848D01*
X280479Y99929D01*
X280580Y100014D01*
X280679Y100102D01*
X280775Y100193D01*
X280868Y100286D01*
X280959Y100382D01*
X281047Y100481D01*
X281132Y100582D01*
X281213Y100686D01*
X281292Y100792D01*
X281367Y100901D01*
X281440Y101012D01*
X281508Y101124D01*
X281574Y101239D01*
X281636Y101356D01*
X281695Y101474D01*
X281750Y101594D01*
X281801Y101716D01*
X281849Y101839D01*
X281893Y101964D01*
X281934Y102090D01*
X281970Y102217D01*
X282003Y102345D01*
X282032Y102474D01*
X282058Y102603D01*
X282079Y102734D01*
X282097Y102865D01*
X282110Y102996D01*
X282120Y103128D01*
X282126Y103260D01*
X282128Y103392D01*
X255557Y98933D02*
X255557Y112310D01*
X249983Y112310D01*
X249869Y112308D01*
X249755Y112302D01*
X249641Y112292D01*
X249528Y112279D01*
X249415Y112261D01*
X249303Y112240D01*
X249191Y112215D01*
X249081Y112186D01*
X248971Y112153D01*
X248863Y112117D01*
X248756Y112077D01*
X248651Y112033D01*
X248547Y111986D01*
X248445Y111935D01*
X248344Y111881D01*
X248246Y111823D01*
X248149Y111762D01*
X248055Y111698D01*
X247962Y111631D01*
X247873Y111560D01*
X247785Y111486D01*
X247701Y111410D01*
X247618Y111331D01*
X247539Y111248D01*
X247463Y111164D01*
X247389Y111076D01*
X247319Y110987D01*
X247251Y110894D01*
X247187Y110800D01*
X247126Y110704D01*
X247068Y110605D01*
X247014Y110504D01*
X246963Y110402D01*
X246916Y110298D01*
X246872Y110193D01*
X246832Y110086D01*
X246796Y109978D01*
X246763Y109868D01*
X246734Y109758D01*
X246709Y109646D01*
X246688Y109534D01*
X246670Y109421D01*
X246657Y109308D01*
X246647Y109194D01*
X246641Y109080D01*
X246639Y108966D01*
X246639Y98933D01*
X220132Y98933D02*
X220132Y118999D01*
X220132Y98933D02*
X225706Y98933D01*
X225820Y98935D01*
X225934Y98941D01*
X226048Y98951D01*
X226161Y98964D01*
X226274Y98982D01*
X226386Y99003D01*
X226498Y99028D01*
X226608Y99057D01*
X226718Y99090D01*
X226826Y99126D01*
X226933Y99166D01*
X227038Y99210D01*
X227142Y99257D01*
X227244Y99308D01*
X227345Y99362D01*
X227443Y99420D01*
X227540Y99481D01*
X227634Y99545D01*
X227727Y99612D01*
X227816Y99683D01*
X227904Y99757D01*
X227988Y99833D01*
X228071Y99912D01*
X228150Y99995D01*
X228226Y100079D01*
X228300Y100167D01*
X228371Y100256D01*
X228438Y100349D01*
X228502Y100443D01*
X228563Y100540D01*
X228621Y100638D01*
X228675Y100739D01*
X228726Y100841D01*
X228773Y100945D01*
X228817Y101050D01*
X228857Y101157D01*
X228893Y101265D01*
X228926Y101375D01*
X228955Y101485D01*
X228980Y101597D01*
X229001Y101709D01*
X229019Y101822D01*
X229032Y101935D01*
X229042Y102049D01*
X229048Y102163D01*
X229050Y102277D01*
X229050Y108966D01*
X229048Y109080D01*
X229042Y109194D01*
X229032Y109308D01*
X229019Y109421D01*
X229001Y109534D01*
X228980Y109646D01*
X228955Y109758D01*
X228926Y109868D01*
X228893Y109978D01*
X228857Y110086D01*
X228817Y110193D01*
X228773Y110298D01*
X228726Y110402D01*
X228675Y110504D01*
X228621Y110605D01*
X228563Y110703D01*
X228502Y110800D01*
X228438Y110894D01*
X228371Y110987D01*
X228300Y111076D01*
X228226Y111164D01*
X228150Y111248D01*
X228071Y111331D01*
X227988Y111410D01*
X227904Y111486D01*
X227816Y111560D01*
X227727Y111631D01*
X227634Y111698D01*
X227540Y111762D01*
X227443Y111823D01*
X227345Y111881D01*
X227244Y111935D01*
X227142Y111986D01*
X227038Y112033D01*
X226933Y112077D01*
X226826Y112117D01*
X226718Y112153D01*
X226608Y112186D01*
X226498Y112215D01*
X226386Y112240D01*
X226274Y112261D01*
X226161Y112279D01*
X226048Y112292D01*
X225934Y112302D01*
X225820Y112308D01*
X225706Y112310D01*
X220132Y112310D01*
X341614Y70626D02*
X341616Y70494D01*
X341622Y70362D01*
X341632Y70230D01*
X341645Y70099D01*
X341663Y69968D01*
X341684Y69837D01*
X341710Y69708D01*
X341739Y69579D01*
X341772Y69451D01*
X341808Y69324D01*
X341849Y69198D01*
X341893Y69073D01*
X341941Y68950D01*
X341992Y68828D01*
X342047Y68708D01*
X342106Y68590D01*
X342168Y68473D01*
X342234Y68358D01*
X342302Y68246D01*
X342375Y68135D01*
X342450Y68026D01*
X342529Y67920D01*
X342610Y67816D01*
X342695Y67715D01*
X342783Y67616D01*
X342874Y67520D01*
X342967Y67427D01*
X343063Y67336D01*
X343162Y67248D01*
X343263Y67163D01*
X343367Y67082D01*
X343473Y67003D01*
X343582Y66928D01*
X343693Y66855D01*
X343805Y66787D01*
X343920Y66721D01*
X344037Y66659D01*
X344155Y66600D01*
X344275Y66545D01*
X344397Y66494D01*
X344520Y66446D01*
X344645Y66402D01*
X344771Y66361D01*
X344898Y66325D01*
X345026Y66292D01*
X345155Y66263D01*
X345284Y66237D01*
X345415Y66216D01*
X345546Y66198D01*
X345677Y66185D01*
X345809Y66175D01*
X345941Y66169D01*
X346073Y66167D01*
X346298Y66170D01*
X346524Y66178D01*
X346749Y66191D01*
X346973Y66210D01*
X347197Y66234D01*
X347421Y66264D01*
X347643Y66299D01*
X347865Y66339D01*
X348086Y66385D01*
X348305Y66435D01*
X348524Y66491D01*
X348741Y66553D01*
X348956Y66619D01*
X349170Y66691D01*
X349382Y66767D01*
X349592Y66849D01*
X349800Y66936D01*
X350006Y67027D01*
X350209Y67124D01*
X350411Y67225D01*
X350610Y67331D01*
X350806Y67442D01*
X350999Y67558D01*
X351190Y67678D01*
X351378Y67803D01*
X351562Y67932D01*
X351744Y68065D01*
X351922Y68203D01*
X352097Y68345D01*
X352269Y68491D01*
X352437Y68642D01*
X352601Y68796D01*
X352762Y68954D01*
X352204Y81774D02*
X352202Y81906D01*
X352196Y82038D01*
X352186Y82170D01*
X352173Y82301D01*
X352155Y82432D01*
X352134Y82563D01*
X352108Y82692D01*
X352079Y82821D01*
X352046Y82949D01*
X352010Y83076D01*
X351969Y83202D01*
X351925Y83327D01*
X351877Y83450D01*
X351826Y83572D01*
X351771Y83692D01*
X351712Y83810D01*
X351650Y83927D01*
X351584Y84042D01*
X351516Y84154D01*
X351443Y84265D01*
X351368Y84374D01*
X351289Y84480D01*
X351208Y84584D01*
X351123Y84685D01*
X351035Y84784D01*
X350944Y84880D01*
X350851Y84973D01*
X350755Y85064D01*
X350656Y85152D01*
X350555Y85237D01*
X350451Y85318D01*
X350345Y85397D01*
X350236Y85472D01*
X350125Y85545D01*
X350013Y85613D01*
X349898Y85679D01*
X349781Y85741D01*
X349663Y85800D01*
X349543Y85855D01*
X349421Y85906D01*
X349298Y85954D01*
X349173Y85998D01*
X349047Y86039D01*
X348920Y86075D01*
X348792Y86108D01*
X348663Y86137D01*
X348534Y86163D01*
X348403Y86184D01*
X348272Y86202D01*
X348141Y86215D01*
X348009Y86225D01*
X347877Y86231D01*
X347745Y86233D01*
X347546Y86231D01*
X347347Y86224D01*
X347148Y86212D01*
X346949Y86195D01*
X346751Y86174D01*
X346553Y86148D01*
X346357Y86117D01*
X346160Y86081D01*
X345965Y86041D01*
X345771Y85997D01*
X345578Y85947D01*
X345386Y85893D01*
X345196Y85835D01*
X345007Y85772D01*
X344819Y85704D01*
X344633Y85632D01*
X344449Y85556D01*
X344267Y85475D01*
X344087Y85390D01*
X343909Y85301D01*
X343733Y85207D01*
X343559Y85110D01*
X343388Y85008D01*
X343219Y84902D01*
X343053Y84792D01*
X342889Y84678D01*
X342728Y84561D01*
X349975Y77872D02*
X350087Y77940D01*
X350196Y78011D01*
X350304Y78085D01*
X350409Y78163D01*
X350512Y78243D01*
X350613Y78326D01*
X350711Y78412D01*
X350807Y78501D01*
X350900Y78593D01*
X350990Y78687D01*
X351078Y78784D01*
X351163Y78883D01*
X351245Y78985D01*
X351323Y79089D01*
X351399Y79196D01*
X351472Y79304D01*
X351542Y79415D01*
X351608Y79527D01*
X351671Y79641D01*
X351731Y79757D01*
X351788Y79875D01*
X351841Y79995D01*
X351890Y80115D01*
X351936Y80238D01*
X351979Y80361D01*
X352018Y80486D01*
X352053Y80612D01*
X352085Y80738D01*
X352113Y80866D01*
X352137Y80994D01*
X352158Y81123D01*
X352175Y81253D01*
X352188Y81383D01*
X352197Y81513D01*
X352203Y81643D01*
X352205Y81774D01*
X343844Y74528D02*
X343732Y74460D01*
X343623Y74389D01*
X343515Y74315D01*
X343410Y74237D01*
X343307Y74157D01*
X343206Y74074D01*
X343108Y73988D01*
X343012Y73899D01*
X342919Y73807D01*
X342829Y73713D01*
X342741Y73616D01*
X342656Y73517D01*
X342574Y73415D01*
X342496Y73311D01*
X342420Y73204D01*
X342347Y73096D01*
X342277Y72985D01*
X342211Y72873D01*
X342148Y72759D01*
X342088Y72643D01*
X342031Y72525D01*
X341978Y72405D01*
X341929Y72285D01*
X341883Y72162D01*
X341840Y72039D01*
X341801Y71914D01*
X341766Y71788D01*
X341734Y71662D01*
X341706Y71534D01*
X341682Y71406D01*
X341661Y71277D01*
X341644Y71147D01*
X341631Y71017D01*
X341622Y70887D01*
X341616Y70757D01*
X341614Y70626D01*
X343844Y74528D02*
X349975Y77872D01*
X326537Y79544D02*
X319849Y79544D01*
X324308Y86233D02*
X324308Y69511D01*
X324307Y69511D02*
X324305Y69397D01*
X324299Y69283D01*
X324289Y69169D01*
X324276Y69056D01*
X324258Y68943D01*
X324237Y68831D01*
X324212Y68719D01*
X324183Y68609D01*
X324150Y68499D01*
X324114Y68391D01*
X324074Y68284D01*
X324030Y68179D01*
X323983Y68075D01*
X323932Y67973D01*
X323878Y67872D01*
X323820Y67774D01*
X323759Y67677D01*
X323695Y67583D01*
X323628Y67490D01*
X323557Y67401D01*
X323483Y67313D01*
X323407Y67229D01*
X323328Y67146D01*
X323245Y67067D01*
X323161Y66991D01*
X323073Y66917D01*
X322984Y66846D01*
X322891Y66779D01*
X322797Y66715D01*
X322700Y66654D01*
X322602Y66596D01*
X322501Y66542D01*
X322399Y66491D01*
X322295Y66444D01*
X322190Y66400D01*
X322083Y66360D01*
X321975Y66324D01*
X321865Y66291D01*
X321755Y66262D01*
X321643Y66237D01*
X321531Y66216D01*
X321418Y66198D01*
X321305Y66185D01*
X321191Y66175D01*
X321077Y66169D01*
X320963Y66167D01*
X319849Y66167D01*
X302751Y66167D02*
X302751Y79544D01*
X296062Y79544D01*
X296062Y77315D01*
X280450Y79544D02*
X280450Y66167D01*
X281007Y85118D02*
X281007Y86233D01*
X279893Y86233D01*
X279893Y85118D01*
X281007Y85118D01*
X262663Y79544D02*
X262663Y66167D01*
X262663Y79544D02*
X257089Y79544D01*
X256975Y79542D01*
X256861Y79536D01*
X256747Y79526D01*
X256634Y79513D01*
X256521Y79495D01*
X256409Y79474D01*
X256297Y79449D01*
X256187Y79420D01*
X256077Y79387D01*
X255969Y79351D01*
X255862Y79311D01*
X255757Y79267D01*
X255653Y79220D01*
X255551Y79169D01*
X255450Y79115D01*
X255352Y79057D01*
X255255Y78996D01*
X255161Y78932D01*
X255068Y78865D01*
X254979Y78794D01*
X254891Y78720D01*
X254807Y78644D01*
X254724Y78565D01*
X254645Y78482D01*
X254569Y78398D01*
X254495Y78310D01*
X254425Y78221D01*
X254357Y78128D01*
X254293Y78034D01*
X254232Y77938D01*
X254174Y77839D01*
X254120Y77738D01*
X254069Y77636D01*
X254022Y77532D01*
X253978Y77427D01*
X253938Y77320D01*
X253902Y77212D01*
X253869Y77102D01*
X253840Y76992D01*
X253815Y76880D01*
X253794Y76768D01*
X253776Y76655D01*
X253763Y76542D01*
X253753Y76428D01*
X253747Y76314D01*
X253745Y76200D01*
X253745Y66167D01*
X232812Y66167D02*
X227238Y66167D01*
X232812Y66167D02*
X232926Y66169D01*
X233040Y66175D01*
X233154Y66185D01*
X233267Y66198D01*
X233380Y66216D01*
X233492Y66237D01*
X233604Y66262D01*
X233714Y66291D01*
X233824Y66324D01*
X233932Y66360D01*
X234039Y66400D01*
X234144Y66444D01*
X234248Y66491D01*
X234350Y66542D01*
X234451Y66596D01*
X234549Y66654D01*
X234646Y66715D01*
X234740Y66779D01*
X234833Y66846D01*
X234922Y66917D01*
X235010Y66991D01*
X235094Y67067D01*
X235177Y67146D01*
X235256Y67229D01*
X235332Y67313D01*
X235406Y67401D01*
X235477Y67490D01*
X235544Y67583D01*
X235608Y67677D01*
X235669Y67774D01*
X235727Y67872D01*
X235781Y67973D01*
X235832Y68075D01*
X235879Y68179D01*
X235923Y68284D01*
X235963Y68391D01*
X235999Y68499D01*
X236032Y68609D01*
X236061Y68719D01*
X236086Y68831D01*
X236107Y68943D01*
X236125Y69056D01*
X236138Y69169D01*
X236148Y69283D01*
X236154Y69397D01*
X236156Y69511D01*
X236156Y76200D01*
X236154Y76314D01*
X236148Y76428D01*
X236138Y76542D01*
X236125Y76655D01*
X236107Y76768D01*
X236086Y76880D01*
X236061Y76992D01*
X236032Y77102D01*
X235999Y77212D01*
X235963Y77320D01*
X235923Y77427D01*
X235879Y77532D01*
X235832Y77636D01*
X235781Y77738D01*
X235727Y77839D01*
X235669Y77937D01*
X235608Y78034D01*
X235544Y78128D01*
X235477Y78221D01*
X235406Y78310D01*
X235332Y78398D01*
X235256Y78482D01*
X235177Y78565D01*
X235094Y78644D01*
X235010Y78720D01*
X234922Y78794D01*
X234833Y78865D01*
X234740Y78932D01*
X234646Y78996D01*
X234549Y79057D01*
X234451Y79115D01*
X234350Y79169D01*
X234248Y79220D01*
X234144Y79267D01*
X234039Y79311D01*
X233932Y79351D01*
X233824Y79387D01*
X233714Y79420D01*
X233604Y79449D01*
X233492Y79474D01*
X233380Y79495D01*
X233267Y79513D01*
X233154Y79526D01*
X233040Y79536D01*
X232926Y79542D01*
X232812Y79544D01*
X227238Y79544D01*
X227238Y62823D01*
X227239Y62823D02*
X227241Y62709D01*
X227247Y62595D01*
X227257Y62481D01*
X227270Y62368D01*
X227288Y62255D01*
X227309Y62143D01*
X227334Y62031D01*
X227363Y61921D01*
X227396Y61811D01*
X227432Y61703D01*
X227472Y61596D01*
X227516Y61491D01*
X227563Y61387D01*
X227614Y61285D01*
X227668Y61184D01*
X227726Y61086D01*
X227787Y60989D01*
X227851Y60895D01*
X227918Y60802D01*
X227989Y60713D01*
X228063Y60625D01*
X228139Y60541D01*
X228218Y60458D01*
X228301Y60379D01*
X228385Y60303D01*
X228473Y60229D01*
X228562Y60158D01*
X228655Y60091D01*
X228749Y60027D01*
X228846Y59966D01*
X228944Y59908D01*
X229045Y59854D01*
X229147Y59803D01*
X229251Y59756D01*
X229356Y59712D01*
X229463Y59672D01*
X229571Y59636D01*
X229681Y59603D01*
X229791Y59574D01*
X229903Y59549D01*
X230015Y59528D01*
X230128Y59510D01*
X230241Y59497D01*
X230355Y59487D01*
X230469Y59481D01*
X230583Y59479D01*
X230583Y59478D02*
X235042Y59478D01*
X356756Y37860D02*
X356758Y37728D01*
X356764Y37596D01*
X356774Y37464D01*
X356787Y37333D01*
X356805Y37202D01*
X356826Y37071D01*
X356852Y36942D01*
X356881Y36813D01*
X356914Y36685D01*
X356950Y36558D01*
X356991Y36432D01*
X357035Y36307D01*
X357083Y36184D01*
X357134Y36062D01*
X357189Y35942D01*
X357248Y35824D01*
X357310Y35707D01*
X357376Y35592D01*
X357444Y35480D01*
X357517Y35369D01*
X357592Y35260D01*
X357671Y35154D01*
X357752Y35050D01*
X357837Y34949D01*
X357925Y34850D01*
X358016Y34754D01*
X358109Y34661D01*
X358205Y34570D01*
X358304Y34482D01*
X358405Y34397D01*
X358509Y34316D01*
X358615Y34237D01*
X358724Y34162D01*
X358835Y34089D01*
X358947Y34021D01*
X359062Y33955D01*
X359179Y33893D01*
X359297Y33834D01*
X359417Y33779D01*
X359539Y33728D01*
X359662Y33680D01*
X359787Y33636D01*
X359913Y33595D01*
X360040Y33559D01*
X360168Y33526D01*
X360297Y33497D01*
X360426Y33471D01*
X360557Y33450D01*
X360688Y33432D01*
X360819Y33419D01*
X360951Y33409D01*
X361083Y33403D01*
X361215Y33401D01*
X361440Y33404D01*
X361666Y33412D01*
X361891Y33425D01*
X362115Y33444D01*
X362339Y33468D01*
X362563Y33498D01*
X362785Y33533D01*
X363007Y33573D01*
X363228Y33619D01*
X363447Y33669D01*
X363666Y33725D01*
X363883Y33787D01*
X364098Y33853D01*
X364312Y33925D01*
X364524Y34001D01*
X364734Y34083D01*
X364942Y34170D01*
X365148Y34261D01*
X365351Y34358D01*
X365553Y34459D01*
X365752Y34565D01*
X365948Y34676D01*
X366141Y34792D01*
X366332Y34912D01*
X366520Y35037D01*
X366704Y35166D01*
X366886Y35299D01*
X367064Y35437D01*
X367239Y35579D01*
X367411Y35725D01*
X367579Y35876D01*
X367743Y36030D01*
X367904Y36188D01*
X367346Y49008D02*
X367344Y49140D01*
X367338Y49272D01*
X367328Y49404D01*
X367315Y49535D01*
X367297Y49666D01*
X367276Y49797D01*
X367250Y49926D01*
X367221Y50055D01*
X367188Y50183D01*
X367152Y50310D01*
X367111Y50436D01*
X367067Y50561D01*
X367019Y50684D01*
X366968Y50806D01*
X366913Y50926D01*
X366854Y51044D01*
X366792Y51161D01*
X366726Y51276D01*
X366658Y51388D01*
X366585Y51499D01*
X366510Y51608D01*
X366431Y51714D01*
X366350Y51818D01*
X366265Y51919D01*
X366177Y52018D01*
X366086Y52114D01*
X365993Y52207D01*
X365897Y52298D01*
X365798Y52386D01*
X365697Y52471D01*
X365593Y52552D01*
X365487Y52631D01*
X365378Y52706D01*
X365267Y52779D01*
X365155Y52847D01*
X365040Y52913D01*
X364923Y52975D01*
X364805Y53034D01*
X364685Y53089D01*
X364563Y53140D01*
X364440Y53188D01*
X364315Y53232D01*
X364189Y53273D01*
X364062Y53309D01*
X363934Y53342D01*
X363805Y53371D01*
X363676Y53397D01*
X363545Y53418D01*
X363414Y53436D01*
X363283Y53449D01*
X363151Y53459D01*
X363019Y53465D01*
X362887Y53467D01*
X362688Y53465D01*
X362489Y53458D01*
X362290Y53446D01*
X362091Y53429D01*
X361893Y53408D01*
X361695Y53382D01*
X361499Y53351D01*
X361302Y53315D01*
X361107Y53275D01*
X360913Y53231D01*
X360720Y53181D01*
X360528Y53127D01*
X360338Y53069D01*
X360149Y53006D01*
X359961Y52938D01*
X359775Y52866D01*
X359591Y52790D01*
X359409Y52709D01*
X359229Y52624D01*
X359051Y52535D01*
X358875Y52441D01*
X358701Y52344D01*
X358530Y52242D01*
X358361Y52136D01*
X358195Y52026D01*
X358031Y51912D01*
X357870Y51795D01*
X365116Y45106D02*
X365228Y45174D01*
X365337Y45245D01*
X365445Y45319D01*
X365550Y45397D01*
X365653Y45477D01*
X365754Y45560D01*
X365852Y45646D01*
X365948Y45735D01*
X366041Y45827D01*
X366131Y45921D01*
X366219Y46018D01*
X366304Y46117D01*
X366386Y46219D01*
X366464Y46323D01*
X366540Y46430D01*
X366613Y46538D01*
X366683Y46649D01*
X366749Y46761D01*
X366812Y46875D01*
X366872Y46991D01*
X366929Y47109D01*
X366982Y47229D01*
X367031Y47349D01*
X367077Y47472D01*
X367120Y47595D01*
X367159Y47720D01*
X367194Y47846D01*
X367226Y47972D01*
X367254Y48100D01*
X367278Y48228D01*
X367299Y48357D01*
X367316Y48487D01*
X367329Y48617D01*
X367338Y48747D01*
X367344Y48877D01*
X367346Y49008D01*
X358986Y41762D02*
X358874Y41694D01*
X358765Y41623D01*
X358657Y41549D01*
X358552Y41471D01*
X358449Y41391D01*
X358348Y41308D01*
X358250Y41222D01*
X358154Y41133D01*
X358061Y41041D01*
X357971Y40947D01*
X357883Y40850D01*
X357798Y40751D01*
X357716Y40649D01*
X357638Y40545D01*
X357562Y40438D01*
X357489Y40330D01*
X357419Y40219D01*
X357353Y40107D01*
X357290Y39993D01*
X357230Y39877D01*
X357173Y39759D01*
X357120Y39639D01*
X357071Y39519D01*
X357025Y39396D01*
X356982Y39273D01*
X356943Y39148D01*
X356908Y39022D01*
X356876Y38896D01*
X356848Y38768D01*
X356824Y38640D01*
X356803Y38511D01*
X356786Y38381D01*
X356773Y38251D01*
X356764Y38121D01*
X356758Y37991D01*
X356756Y37860D01*
X358985Y41762D02*
X365117Y45106D01*
X341679Y46778D02*
X334990Y46778D01*
X339450Y53467D02*
X339450Y36745D01*
X339449Y36745D02*
X339447Y36631D01*
X339441Y36517D01*
X339431Y36403D01*
X339418Y36290D01*
X339400Y36177D01*
X339379Y36065D01*
X339354Y35953D01*
X339325Y35843D01*
X339292Y35733D01*
X339256Y35625D01*
X339216Y35518D01*
X339172Y35413D01*
X339125Y35309D01*
X339074Y35207D01*
X339020Y35106D01*
X338962Y35008D01*
X338901Y34911D01*
X338837Y34817D01*
X338770Y34724D01*
X338699Y34635D01*
X338625Y34547D01*
X338549Y34463D01*
X338470Y34380D01*
X338387Y34301D01*
X338303Y34225D01*
X338215Y34151D01*
X338126Y34080D01*
X338033Y34013D01*
X337939Y33949D01*
X337842Y33888D01*
X337744Y33830D01*
X337643Y33776D01*
X337541Y33725D01*
X337437Y33678D01*
X337332Y33634D01*
X337225Y33594D01*
X337117Y33558D01*
X337007Y33525D01*
X336897Y33496D01*
X336785Y33471D01*
X336673Y33450D01*
X336560Y33432D01*
X336447Y33419D01*
X336333Y33409D01*
X336219Y33403D01*
X336105Y33401D01*
X334990Y33401D01*
X317971Y36745D02*
X317971Y46778D01*
X317971Y36745D02*
X317969Y36631D01*
X317963Y36517D01*
X317953Y36403D01*
X317940Y36290D01*
X317922Y36177D01*
X317901Y36065D01*
X317876Y35953D01*
X317847Y35843D01*
X317814Y35733D01*
X317778Y35625D01*
X317738Y35518D01*
X317694Y35413D01*
X317647Y35309D01*
X317596Y35207D01*
X317542Y35106D01*
X317484Y35008D01*
X317423Y34911D01*
X317359Y34817D01*
X317292Y34724D01*
X317221Y34635D01*
X317147Y34547D01*
X317071Y34463D01*
X316992Y34380D01*
X316909Y34301D01*
X316825Y34225D01*
X316737Y34151D01*
X316648Y34080D01*
X316555Y34013D01*
X316461Y33949D01*
X316364Y33888D01*
X316266Y33830D01*
X316165Y33776D01*
X316063Y33725D01*
X315959Y33678D01*
X315854Y33634D01*
X315747Y33594D01*
X315639Y33558D01*
X315529Y33525D01*
X315419Y33496D01*
X315307Y33471D01*
X315195Y33450D01*
X315082Y33432D01*
X314969Y33419D01*
X314855Y33409D01*
X314741Y33403D01*
X314627Y33401D01*
X309053Y33401D01*
X309053Y46778D01*
X282546Y53467D02*
X282546Y33401D01*
X288120Y33401D01*
X288234Y33403D01*
X288348Y33409D01*
X288462Y33419D01*
X288575Y33432D01*
X288688Y33450D01*
X288800Y33471D01*
X288912Y33496D01*
X289022Y33525D01*
X289132Y33558D01*
X289240Y33594D01*
X289347Y33634D01*
X289452Y33678D01*
X289556Y33725D01*
X289658Y33776D01*
X289759Y33830D01*
X289857Y33888D01*
X289954Y33949D01*
X290048Y34013D01*
X290141Y34080D01*
X290230Y34151D01*
X290318Y34225D01*
X290402Y34301D01*
X290485Y34380D01*
X290564Y34463D01*
X290640Y34547D01*
X290714Y34635D01*
X290785Y34724D01*
X290852Y34817D01*
X290916Y34911D01*
X290977Y35008D01*
X291035Y35106D01*
X291089Y35207D01*
X291140Y35309D01*
X291187Y35413D01*
X291231Y35518D01*
X291271Y35625D01*
X291307Y35733D01*
X291340Y35843D01*
X291369Y35953D01*
X291394Y36065D01*
X291415Y36177D01*
X291433Y36290D01*
X291446Y36403D01*
X291456Y36517D01*
X291462Y36631D01*
X291464Y36745D01*
X291465Y36745D02*
X291465Y43434D01*
X291464Y43434D02*
X291462Y43548D01*
X291456Y43662D01*
X291446Y43776D01*
X291433Y43889D01*
X291415Y44002D01*
X291394Y44114D01*
X291369Y44226D01*
X291340Y44336D01*
X291307Y44446D01*
X291271Y44554D01*
X291231Y44661D01*
X291187Y44766D01*
X291140Y44870D01*
X291089Y44972D01*
X291035Y45073D01*
X290977Y45171D01*
X290916Y45268D01*
X290852Y45362D01*
X290785Y45455D01*
X290714Y45544D01*
X290640Y45632D01*
X290564Y45716D01*
X290485Y45799D01*
X290402Y45878D01*
X290318Y45954D01*
X290230Y46028D01*
X290141Y46099D01*
X290048Y46166D01*
X289954Y46230D01*
X289857Y46291D01*
X289759Y46349D01*
X289658Y46403D01*
X289556Y46454D01*
X289452Y46501D01*
X289347Y46545D01*
X289240Y46585D01*
X289132Y46621D01*
X289022Y46654D01*
X288912Y46683D01*
X288800Y46708D01*
X288688Y46729D01*
X288575Y46747D01*
X288462Y46760D01*
X288348Y46770D01*
X288234Y46776D01*
X288120Y46778D01*
X282546Y46778D01*
X264695Y46778D02*
X264695Y33401D01*
X265252Y52352D02*
X265252Y53467D01*
X264137Y53467D01*
X264137Y52352D01*
X265252Y52352D01*
X247526Y42319D02*
X247526Y37860D01*
X247526Y42319D02*
X247524Y42451D01*
X247518Y42583D01*
X247508Y42715D01*
X247495Y42846D01*
X247477Y42977D01*
X247456Y43108D01*
X247430Y43237D01*
X247401Y43366D01*
X247368Y43494D01*
X247332Y43621D01*
X247291Y43747D01*
X247247Y43872D01*
X247199Y43995D01*
X247148Y44117D01*
X247093Y44237D01*
X247034Y44355D01*
X246972Y44472D01*
X246906Y44587D01*
X246838Y44699D01*
X246765Y44810D01*
X246690Y44919D01*
X246611Y45025D01*
X246530Y45129D01*
X246445Y45230D01*
X246357Y45329D01*
X246266Y45425D01*
X246173Y45518D01*
X246077Y45609D01*
X245978Y45697D01*
X245877Y45782D01*
X245773Y45863D01*
X245667Y45942D01*
X245558Y46017D01*
X245447Y46090D01*
X245335Y46158D01*
X245220Y46224D01*
X245103Y46286D01*
X244985Y46345D01*
X244865Y46400D01*
X244743Y46451D01*
X244620Y46499D01*
X244495Y46543D01*
X244369Y46584D01*
X244242Y46620D01*
X244114Y46653D01*
X243985Y46682D01*
X243856Y46708D01*
X243725Y46729D01*
X243594Y46747D01*
X243463Y46760D01*
X243331Y46770D01*
X243199Y46776D01*
X243067Y46778D01*
X242935Y46776D01*
X242803Y46770D01*
X242671Y46760D01*
X242540Y46747D01*
X242409Y46729D01*
X242278Y46708D01*
X242149Y46682D01*
X242020Y46653D01*
X241892Y46620D01*
X241765Y46584D01*
X241639Y46543D01*
X241514Y46499D01*
X241391Y46451D01*
X241269Y46400D01*
X241149Y46345D01*
X241031Y46286D01*
X240914Y46224D01*
X240799Y46158D01*
X240687Y46090D01*
X240576Y46017D01*
X240467Y45942D01*
X240361Y45863D01*
X240257Y45782D01*
X240156Y45697D01*
X240057Y45609D01*
X239961Y45518D01*
X239868Y45425D01*
X239777Y45329D01*
X239689Y45230D01*
X239604Y45129D01*
X239523Y45025D01*
X239444Y44919D01*
X239369Y44810D01*
X239296Y44699D01*
X239228Y44587D01*
X239162Y44472D01*
X239100Y44355D01*
X239041Y44237D01*
X238986Y44117D01*
X238935Y43995D01*
X238887Y43872D01*
X238843Y43747D01*
X238802Y43621D01*
X238766Y43494D01*
X238733Y43366D01*
X238704Y43237D01*
X238678Y43108D01*
X238657Y42977D01*
X238639Y42846D01*
X238626Y42715D01*
X238616Y42583D01*
X238610Y42451D01*
X238608Y42319D01*
X238607Y42319D02*
X238607Y37860D01*
X238608Y37860D02*
X238610Y37728D01*
X238616Y37596D01*
X238626Y37464D01*
X238639Y37333D01*
X238657Y37202D01*
X238678Y37071D01*
X238704Y36942D01*
X238733Y36813D01*
X238766Y36685D01*
X238802Y36558D01*
X238843Y36432D01*
X238887Y36307D01*
X238935Y36184D01*
X238986Y36062D01*
X239041Y35942D01*
X239100Y35824D01*
X239162Y35707D01*
X239228Y35592D01*
X239296Y35480D01*
X239369Y35369D01*
X239444Y35260D01*
X239523Y35154D01*
X239604Y35050D01*
X239689Y34949D01*
X239777Y34850D01*
X239868Y34754D01*
X239961Y34661D01*
X240057Y34570D01*
X240156Y34482D01*
X240257Y34397D01*
X240361Y34316D01*
X240467Y34237D01*
X240576Y34162D01*
X240687Y34089D01*
X240799Y34021D01*
X240914Y33955D01*
X241031Y33893D01*
X241149Y33834D01*
X241269Y33779D01*
X241391Y33728D01*
X241514Y33680D01*
X241639Y33636D01*
X241765Y33595D01*
X241892Y33559D01*
X242020Y33526D01*
X242149Y33497D01*
X242278Y33471D01*
X242409Y33450D01*
X242540Y33432D01*
X242671Y33419D01*
X242803Y33409D01*
X242935Y33403D01*
X243067Y33401D01*
X243199Y33403D01*
X243331Y33409D01*
X243463Y33419D01*
X243594Y33432D01*
X243725Y33450D01*
X243856Y33471D01*
X243985Y33497D01*
X244114Y33526D01*
X244242Y33559D01*
X244369Y33595D01*
X244495Y33636D01*
X244620Y33680D01*
X244743Y33728D01*
X244865Y33779D01*
X244985Y33834D01*
X245103Y33893D01*
X245220Y33955D01*
X245335Y34021D01*
X245447Y34089D01*
X245558Y34162D01*
X245667Y34237D01*
X245773Y34316D01*
X245877Y34397D01*
X245978Y34482D01*
X246077Y34570D01*
X246173Y34661D01*
X246266Y34754D01*
X246357Y34850D01*
X246445Y34949D01*
X246530Y35050D01*
X246611Y35154D01*
X246690Y35260D01*
X246765Y35369D01*
X246838Y35480D01*
X246906Y35592D01*
X246972Y35707D01*
X247034Y35824D01*
X247093Y35942D01*
X247148Y36062D01*
X247199Y36184D01*
X247247Y36307D01*
X247291Y36432D01*
X247332Y36558D01*
X247368Y36685D01*
X247401Y36813D01*
X247430Y36942D01*
X247456Y37071D01*
X247477Y37202D01*
X247495Y37333D01*
X247508Y37464D01*
X247518Y37596D01*
X247524Y37728D01*
X247526Y37860D01*
X219900Y41204D02*
X214326Y38975D01*
X219899Y41205D02*
X219998Y41246D01*
X220095Y41291D01*
X220190Y41340D01*
X220283Y41392D01*
X220375Y41448D01*
X220464Y41507D01*
X220551Y41569D01*
X220635Y41635D01*
X220718Y41703D01*
X220797Y41775D01*
X220874Y41849D01*
X220948Y41926D01*
X221019Y42006D01*
X221087Y42088D01*
X221152Y42173D01*
X221214Y42260D01*
X221273Y42350D01*
X221328Y42441D01*
X221380Y42535D01*
X221428Y42630D01*
X221473Y42728D01*
X221514Y42826D01*
X221551Y42926D01*
X221585Y43028D01*
X221615Y43131D01*
X221641Y43234D01*
X221663Y43339D01*
X221682Y43444D01*
X221696Y43550D01*
X221707Y43657D01*
X221713Y43763D01*
X221716Y43870D01*
X221715Y43977D01*
X221709Y44084D01*
X221700Y44191D01*
X221687Y44297D01*
X221670Y44402D01*
X221649Y44507D01*
X221624Y44611D01*
X221595Y44714D01*
X221563Y44816D01*
X221527Y44917D01*
X221487Y45016D01*
X221443Y45114D01*
X221396Y45210D01*
X221345Y45304D01*
X221291Y45396D01*
X221234Y45486D01*
X221173Y45574D01*
X221109Y45660D01*
X221042Y45743D01*
X220972Y45824D01*
X220899Y45902D01*
X220823Y45977D01*
X220744Y46050D01*
X220663Y46119D01*
X220579Y46186D01*
X220493Y46249D01*
X220404Y46309D01*
X220314Y46366D01*
X220221Y46419D01*
X220127Y46469D01*
X220030Y46515D01*
X219932Y46558D01*
X219833Y46597D01*
X219732Y46632D01*
X219630Y46664D01*
X219526Y46692D01*
X219422Y46716D01*
X219317Y46736D01*
X219211Y46752D01*
X219105Y46764D01*
X218999Y46773D01*
X218892Y46777D01*
X218785Y46778D01*
X218481Y46770D01*
X218177Y46754D01*
X217873Y46732D01*
X217570Y46702D01*
X217268Y46665D01*
X216967Y46620D01*
X216667Y46569D01*
X216369Y46510D01*
X216071Y46444D01*
X215776Y46370D01*
X215482Y46290D01*
X215191Y46203D01*
X214901Y46109D01*
X214614Y46008D01*
X214330Y45899D01*
X214048Y45785D01*
X213769Y45663D01*
X214326Y38974D02*
X214227Y38933D01*
X214130Y38888D01*
X214035Y38839D01*
X213942Y38787D01*
X213850Y38731D01*
X213761Y38672D01*
X213674Y38610D01*
X213590Y38544D01*
X213507Y38476D01*
X213428Y38404D01*
X213351Y38330D01*
X213277Y38253D01*
X213206Y38173D01*
X213138Y38091D01*
X213073Y38006D01*
X213011Y37919D01*
X212952Y37829D01*
X212897Y37738D01*
X212845Y37644D01*
X212797Y37549D01*
X212752Y37451D01*
X212711Y37353D01*
X212674Y37253D01*
X212640Y37151D01*
X212610Y37048D01*
X212584Y36945D01*
X212562Y36840D01*
X212543Y36735D01*
X212529Y36629D01*
X212518Y36522D01*
X212512Y36416D01*
X212509Y36309D01*
X212510Y36202D01*
X212516Y36095D01*
X212525Y35988D01*
X212538Y35882D01*
X212555Y35777D01*
X212576Y35672D01*
X212601Y35568D01*
X212630Y35465D01*
X212662Y35363D01*
X212698Y35262D01*
X212738Y35163D01*
X212782Y35065D01*
X212829Y34969D01*
X212880Y34875D01*
X212934Y34783D01*
X212991Y34693D01*
X213052Y34605D01*
X213116Y34519D01*
X213183Y34436D01*
X213253Y34355D01*
X213326Y34277D01*
X213402Y34202D01*
X213481Y34129D01*
X213562Y34060D01*
X213646Y33993D01*
X213732Y33930D01*
X213821Y33870D01*
X213911Y33813D01*
X214004Y33760D01*
X214098Y33710D01*
X214195Y33664D01*
X214293Y33621D01*
X214392Y33582D01*
X214493Y33547D01*
X214595Y33515D01*
X214699Y33487D01*
X214803Y33463D01*
X214908Y33443D01*
X215014Y33427D01*
X215120Y33415D01*
X215226Y33406D01*
X215333Y33402D01*
X215440Y33401D01*
X215441Y33401D02*
X215888Y33413D01*
X216335Y33435D01*
X216781Y33468D01*
X217226Y33511D01*
X217670Y33565D01*
X218112Y33629D01*
X218553Y33704D01*
X218992Y33789D01*
X219429Y33885D01*
X219863Y33991D01*
X220295Y34107D01*
X220724Y34233D01*
X221150Y34369D01*
X221572Y34516D01*
M02*
