G04 EAGLE Gerber RS-274X export*
G75*
%MOMM*%
%FSLAX34Y34*%
%LPD*%
%INBottom Copper*%
%IPPOS*%
%AMOC8*
5,1,8,0,0,1.08239X$1,22.5*%
G01*
%ADD10C,0.908000*%
%ADD11C,1.828800*%
%ADD12P,3.909464X8X22.500000*%
%ADD13C,0.230000*%
%ADD14C,0.502400*%
%ADD15C,0.203200*%
%ADD16C,0.360000*%

G36*
X577042Y2009D02*
X577042Y2009D01*
X577100Y2007D01*
X577182Y2029D01*
X577266Y2041D01*
X577319Y2064D01*
X577375Y2079D01*
X577448Y2122D01*
X577525Y2157D01*
X577570Y2195D01*
X577620Y2224D01*
X577678Y2286D01*
X577742Y2340D01*
X577774Y2389D01*
X577814Y2432D01*
X577853Y2507D01*
X577900Y2577D01*
X577917Y2633D01*
X577944Y2685D01*
X577955Y2753D01*
X577985Y2848D01*
X577988Y2948D01*
X577999Y3016D01*
X577999Y99484D01*
X577991Y99539D01*
X577993Y99581D01*
X577992Y99583D01*
X577993Y99600D01*
X577971Y99682D01*
X577959Y99766D01*
X577936Y99819D01*
X577921Y99875D01*
X577878Y99948D01*
X577843Y100025D01*
X577805Y100070D01*
X577776Y100120D01*
X577714Y100178D01*
X577660Y100242D01*
X577611Y100274D01*
X577568Y100314D01*
X577493Y100353D01*
X577423Y100400D01*
X577367Y100417D01*
X577315Y100444D01*
X577247Y100455D01*
X577194Y100472D01*
X577166Y100500D01*
X577166Y280788D01*
X577197Y280818D01*
X577266Y280828D01*
X577319Y280852D01*
X577375Y280867D01*
X577448Y280910D01*
X577525Y280944D01*
X577570Y280982D01*
X577620Y281012D01*
X577678Y281073D01*
X577742Y281128D01*
X577774Y281176D01*
X577814Y281219D01*
X577853Y281294D01*
X577900Y281364D01*
X577917Y281420D01*
X577944Y281472D01*
X577955Y281540D01*
X577985Y281636D01*
X577988Y281735D01*
X577999Y281803D01*
X577999Y766984D01*
X577991Y767042D01*
X577993Y767100D01*
X577971Y767182D01*
X577959Y767266D01*
X577936Y767319D01*
X577921Y767375D01*
X577878Y767448D01*
X577843Y767525D01*
X577805Y767570D01*
X577776Y767620D01*
X577714Y767678D01*
X577660Y767742D01*
X577611Y767774D01*
X577568Y767814D01*
X577493Y767853D01*
X577423Y767900D01*
X577367Y767917D01*
X577315Y767944D01*
X577247Y767955D01*
X577152Y767985D01*
X577052Y767988D01*
X576984Y767999D01*
X3016Y767999D01*
X2958Y767991D01*
X2900Y767993D01*
X2818Y767971D01*
X2734Y767959D01*
X2681Y767936D01*
X2625Y767921D01*
X2552Y767878D01*
X2475Y767843D01*
X2430Y767805D01*
X2380Y767776D01*
X2322Y767714D01*
X2258Y767660D01*
X2226Y767611D01*
X2186Y767568D01*
X2147Y767493D01*
X2100Y767423D01*
X2083Y767367D01*
X2056Y767315D01*
X2045Y767247D01*
X2015Y767152D01*
X2012Y767052D01*
X2001Y766984D01*
X2001Y3016D01*
X2009Y2958D01*
X2007Y2900D01*
X2029Y2818D01*
X2041Y2734D01*
X2064Y2681D01*
X2079Y2625D01*
X2122Y2552D01*
X2157Y2475D01*
X2195Y2430D01*
X2224Y2380D01*
X2286Y2322D01*
X2340Y2258D01*
X2389Y2226D01*
X2432Y2186D01*
X2507Y2147D01*
X2577Y2100D01*
X2633Y2083D01*
X2685Y2056D01*
X2753Y2045D01*
X2848Y2015D01*
X2948Y2012D01*
X3016Y2001D01*
X576984Y2001D01*
X577042Y2009D01*
G37*
%LPC*%
G36*
X209253Y204497D02*
X209253Y204497D01*
X207037Y206713D01*
X207037Y209847D01*
X208236Y211046D01*
X208288Y211115D01*
X208348Y211179D01*
X208374Y211229D01*
X208407Y211273D01*
X208438Y211354D01*
X208478Y211432D01*
X208486Y211480D01*
X208508Y211538D01*
X208520Y211686D01*
X208533Y211763D01*
X208533Y216637D01*
X208521Y216723D01*
X208518Y216811D01*
X208501Y216864D01*
X208493Y216918D01*
X208458Y216998D01*
X208431Y217081D01*
X208403Y217121D01*
X208377Y217178D01*
X208281Y217291D01*
X208236Y217355D01*
X199575Y226016D01*
X199505Y226068D01*
X199441Y226128D01*
X199392Y226154D01*
X199348Y226187D01*
X199266Y226218D01*
X199188Y226258D01*
X199140Y226266D01*
X199082Y226288D01*
X198934Y226300D01*
X198857Y226313D01*
X196777Y226313D01*
X196748Y226309D01*
X196719Y226312D01*
X196608Y226289D01*
X196496Y226273D01*
X196469Y226261D01*
X196440Y226256D01*
X196340Y226203D01*
X196236Y226157D01*
X196214Y226138D01*
X196188Y226125D01*
X196106Y226047D01*
X196019Y225974D01*
X196003Y225949D01*
X195982Y225929D01*
X195925Y225831D01*
X195862Y225737D01*
X195853Y225709D01*
X195838Y225684D01*
X195810Y225574D01*
X195776Y225466D01*
X195775Y225436D01*
X195768Y225408D01*
X195772Y225295D01*
X195769Y225182D01*
X195776Y225153D01*
X195777Y225124D01*
X195812Y225016D01*
X195841Y224907D01*
X195856Y224881D01*
X195865Y224853D01*
X195910Y224790D01*
X195986Y224662D01*
X196031Y224619D01*
X196059Y224580D01*
X198093Y222547D01*
X198093Y219413D01*
X195877Y217197D01*
X192743Y217197D01*
X190527Y219413D01*
X190527Y220218D01*
X190519Y220276D01*
X190521Y220334D01*
X190499Y220416D01*
X190487Y220500D01*
X190464Y220553D01*
X190449Y220609D01*
X190406Y220682D01*
X190371Y220759D01*
X190333Y220804D01*
X190304Y220854D01*
X190242Y220912D01*
X190188Y220976D01*
X190139Y221008D01*
X190096Y221048D01*
X190021Y221087D01*
X189951Y221134D01*
X189895Y221151D01*
X189843Y221178D01*
X189775Y221189D01*
X189680Y221219D01*
X189580Y221222D01*
X189512Y221233D01*
X169233Y221233D01*
X167216Y223250D01*
X167146Y223302D01*
X167082Y223362D01*
X167033Y223388D01*
X166989Y223421D01*
X166907Y223452D01*
X166829Y223492D01*
X166782Y223500D01*
X166723Y223522D01*
X166576Y223534D01*
X166498Y223547D01*
X164818Y223547D01*
X164760Y223539D01*
X164702Y223541D01*
X164620Y223519D01*
X164536Y223507D01*
X164483Y223484D01*
X164427Y223469D01*
X164354Y223426D01*
X164277Y223391D01*
X164232Y223353D01*
X164182Y223324D01*
X164124Y223262D01*
X164060Y223208D01*
X164028Y223159D01*
X163988Y223116D01*
X163949Y223041D01*
X163902Y222971D01*
X163885Y222915D01*
X163858Y222863D01*
X163847Y222795D01*
X163817Y222700D01*
X163814Y222600D01*
X163803Y222532D01*
X163803Y219413D01*
X163321Y218932D01*
X163304Y218908D01*
X163281Y218889D01*
X163219Y218795D01*
X163151Y218705D01*
X163140Y218677D01*
X163124Y218653D01*
X163090Y218545D01*
X163049Y218439D01*
X163047Y218410D01*
X163038Y218382D01*
X163035Y218268D01*
X163026Y218156D01*
X163032Y218127D01*
X163031Y218098D01*
X163059Y217988D01*
X163082Y217877D01*
X163095Y217851D01*
X163103Y217823D01*
X163160Y217725D01*
X163213Y217625D01*
X163233Y217603D01*
X163248Y217578D01*
X163330Y217501D01*
X163408Y217419D01*
X163434Y217404D01*
X163455Y217384D01*
X163556Y217332D01*
X163654Y217275D01*
X163682Y217268D01*
X163708Y217254D01*
X163786Y217241D01*
X163929Y217205D01*
X163992Y217207D01*
X164039Y217199D01*
X168751Y217199D01*
X168837Y217211D01*
X168925Y217214D01*
X168977Y217231D01*
X169032Y217239D01*
X169112Y217274D01*
X169195Y217301D01*
X169235Y217329D01*
X169292Y217355D01*
X169405Y217451D01*
X169469Y217496D01*
X169883Y217911D01*
X173017Y217911D01*
X175233Y215695D01*
X175233Y212561D01*
X173017Y210345D01*
X169883Y210345D01*
X169469Y210760D01*
X169399Y210812D01*
X169335Y210872D01*
X169286Y210898D01*
X169241Y210931D01*
X169160Y210962D01*
X169082Y211002D01*
X169034Y211010D01*
X168976Y211032D01*
X168828Y211044D01*
X168751Y211057D01*
X102527Y211057D01*
X102441Y211045D01*
X102353Y211042D01*
X102301Y211025D01*
X102246Y211017D01*
X102166Y210982D01*
X102083Y210955D01*
X102044Y210927D01*
X101986Y210901D01*
X101923Y210847D01*
X98763Y210847D01*
X96547Y213063D01*
X96547Y216197D01*
X98763Y218413D01*
X101897Y218413D01*
X102814Y217496D01*
X102883Y217444D01*
X102947Y217384D01*
X102997Y217358D01*
X103041Y217325D01*
X103122Y217294D01*
X103200Y217254D01*
X103248Y217246D01*
X103306Y217224D01*
X103454Y217212D01*
X103531Y217199D01*
X156001Y217199D01*
X156030Y217203D01*
X156059Y217200D01*
X156170Y217223D01*
X156282Y217239D01*
X156309Y217251D01*
X156338Y217256D01*
X156438Y217309D01*
X156542Y217355D01*
X156564Y217374D01*
X156590Y217387D01*
X156672Y217465D01*
X156759Y217538D01*
X156775Y217563D01*
X156796Y217583D01*
X156853Y217681D01*
X156916Y217775D01*
X156925Y217803D01*
X156940Y217828D01*
X156968Y217938D01*
X157002Y218046D01*
X157003Y218076D01*
X157010Y218104D01*
X157006Y218217D01*
X157009Y218330D01*
X157002Y218359D01*
X157001Y218388D01*
X156966Y218496D01*
X156937Y218605D01*
X156922Y218631D01*
X156913Y218659D01*
X156868Y218723D01*
X156792Y218850D01*
X156760Y218880D01*
X156757Y218885D01*
X156742Y218899D01*
X156719Y218932D01*
X156237Y219413D01*
X156237Y221108D01*
X156225Y221195D01*
X156222Y221282D01*
X156205Y221335D01*
X156197Y221390D01*
X156162Y221470D01*
X156135Y221553D01*
X156107Y221592D01*
X156081Y221649D01*
X155985Y221762D01*
X155940Y221826D01*
X138683Y239083D01*
X138683Y257487D01*
X143650Y262454D01*
X143668Y262478D01*
X143690Y262497D01*
X143753Y262591D01*
X143821Y262681D01*
X143832Y262709D01*
X143848Y262733D01*
X143882Y262841D01*
X143922Y262947D01*
X143925Y262976D01*
X143934Y263004D01*
X143937Y263118D01*
X143946Y263230D01*
X143940Y263259D01*
X143941Y263288D01*
X143912Y263398D01*
X143890Y263509D01*
X143876Y263535D01*
X143869Y263563D01*
X143811Y263661D01*
X143759Y263761D01*
X143739Y263783D01*
X143724Y263808D01*
X143641Y263885D01*
X143563Y263967D01*
X143538Y263982D01*
X143517Y264002D01*
X143416Y264054D01*
X143318Y264111D01*
X143290Y264118D01*
X143263Y264132D01*
X143186Y264145D01*
X143042Y264181D01*
X142980Y264179D01*
X142932Y264187D01*
X140673Y264187D01*
X138457Y266403D01*
X138457Y269537D01*
X140673Y271753D01*
X142368Y271753D01*
X142455Y271765D01*
X142542Y271768D01*
X142595Y271785D01*
X142650Y271793D01*
X142729Y271828D01*
X142813Y271855D01*
X142852Y271883D01*
X142909Y271909D01*
X143022Y272005D01*
X143086Y272050D01*
X143466Y272430D01*
X145103Y274067D01*
X184263Y274067D01*
X196439Y261890D01*
X196509Y261838D01*
X196573Y261778D01*
X196622Y261752D01*
X196666Y261719D01*
X196748Y261688D01*
X196826Y261648D01*
X196874Y261640D01*
X196932Y261618D01*
X197080Y261606D01*
X197157Y261593D01*
X198417Y261593D01*
X200633Y259377D01*
X200633Y256032D01*
X200641Y255974D01*
X200639Y255916D01*
X200661Y255834D01*
X200673Y255750D01*
X200696Y255697D01*
X200711Y255641D01*
X200754Y255568D01*
X200789Y255491D01*
X200827Y255446D01*
X200856Y255396D01*
X200918Y255338D01*
X200972Y255274D01*
X201021Y255242D01*
X201064Y255202D01*
X201139Y255163D01*
X201209Y255116D01*
X201265Y255099D01*
X201317Y255072D01*
X201385Y255061D01*
X201480Y255031D01*
X201580Y255028D01*
X201648Y255017D01*
X202085Y255017D01*
X207434Y249668D01*
X207504Y249616D01*
X207568Y249556D01*
X207617Y249530D01*
X207661Y249497D01*
X207743Y249466D01*
X207821Y249426D01*
X207868Y249418D01*
X207927Y249396D01*
X208074Y249384D01*
X208152Y249371D01*
X209847Y249371D01*
X212063Y247155D01*
X212063Y245046D01*
X212071Y244988D01*
X212069Y244929D01*
X212091Y244848D01*
X212103Y244764D01*
X212126Y244711D01*
X212141Y244654D01*
X212184Y244582D01*
X212219Y244505D01*
X212257Y244460D01*
X212286Y244410D01*
X212348Y244352D01*
X212402Y244288D01*
X212451Y244255D01*
X212494Y244215D01*
X212569Y244177D01*
X212639Y244130D01*
X212695Y244113D01*
X212747Y244086D01*
X212815Y244075D01*
X212910Y244044D01*
X213010Y244042D01*
X213078Y244030D01*
X216415Y244030D01*
X218630Y241815D01*
X218630Y238681D01*
X216415Y236465D01*
X214719Y236465D01*
X214633Y236453D01*
X214545Y236450D01*
X214493Y236433D01*
X214438Y236425D01*
X214358Y236389D01*
X214275Y236362D01*
X214236Y236334D01*
X214179Y236309D01*
X214065Y236213D01*
X214002Y236168D01*
X209509Y231675D01*
X202834Y231675D01*
X202805Y231671D01*
X202776Y231674D01*
X202665Y231651D01*
X202553Y231635D01*
X202526Y231623D01*
X202497Y231618D01*
X202397Y231566D01*
X202293Y231519D01*
X202271Y231500D01*
X202245Y231487D01*
X202163Y231409D01*
X202076Y231336D01*
X202060Y231311D01*
X202039Y231291D01*
X201982Y231193D01*
X201919Y231099D01*
X201910Y231071D01*
X201895Y231046D01*
X201867Y230936D01*
X201833Y230828D01*
X201832Y230798D01*
X201825Y230770D01*
X201829Y230657D01*
X201826Y230544D01*
X201833Y230515D01*
X201834Y230486D01*
X201869Y230378D01*
X201897Y230269D01*
X201912Y230243D01*
X201921Y230215D01*
X201967Y230152D01*
X202043Y230024D01*
X202088Y229981D01*
X202116Y229942D01*
X211470Y220589D01*
X213107Y218952D01*
X213107Y211763D01*
X213119Y211677D01*
X213122Y211589D01*
X213139Y211537D01*
X213147Y211482D01*
X213182Y211402D01*
X213209Y211319D01*
X213237Y211280D01*
X213263Y211222D01*
X213359Y211109D01*
X213404Y211046D01*
X214603Y209847D01*
X214603Y206713D01*
X212387Y204497D01*
X209253Y204497D01*
G37*
%LPD*%
%LPC*%
G36*
X160993Y179097D02*
X160993Y179097D01*
X158777Y181313D01*
X158777Y184447D01*
X160993Y186663D01*
X164127Y186663D01*
X165020Y185770D01*
X165090Y185717D01*
X165154Y185657D01*
X165203Y185632D01*
X165247Y185599D01*
X165329Y185568D01*
X165407Y185528D01*
X165454Y185520D01*
X165513Y185497D01*
X165661Y185485D01*
X165738Y185472D01*
X173058Y185472D01*
X173144Y185484D01*
X173232Y185487D01*
X173284Y185504D01*
X173339Y185512D01*
X173419Y185548D01*
X173502Y185575D01*
X173542Y185603D01*
X173599Y185628D01*
X173712Y185724D01*
X173776Y185770D01*
X176983Y188977D01*
X186763Y188977D01*
X186792Y188981D01*
X186821Y188978D01*
X186932Y189001D01*
X187044Y189017D01*
X187071Y189029D01*
X187100Y189034D01*
X187200Y189087D01*
X187304Y189133D01*
X187326Y189152D01*
X187352Y189165D01*
X187434Y189243D01*
X187521Y189316D01*
X187537Y189341D01*
X187558Y189361D01*
X187615Y189459D01*
X187678Y189553D01*
X187687Y189581D01*
X187702Y189606D01*
X187730Y189716D01*
X187764Y189824D01*
X187765Y189854D01*
X187772Y189882D01*
X187768Y189995D01*
X187771Y190108D01*
X187764Y190137D01*
X187763Y190166D01*
X187728Y190274D01*
X187699Y190383D01*
X187684Y190409D01*
X187675Y190437D01*
X187630Y190501D01*
X187554Y190628D01*
X187509Y190671D01*
X187481Y190710D01*
X186717Y191473D01*
X186717Y192278D01*
X186709Y192336D01*
X186711Y192394D01*
X186689Y192476D01*
X186677Y192560D01*
X186654Y192613D01*
X186639Y192669D01*
X186596Y192742D01*
X186561Y192819D01*
X186523Y192864D01*
X186494Y192914D01*
X186432Y192972D01*
X186378Y193036D01*
X186329Y193068D01*
X186286Y193108D01*
X186211Y193147D01*
X186141Y193194D01*
X186085Y193211D01*
X186033Y193238D01*
X185965Y193249D01*
X185870Y193279D01*
X185770Y193282D01*
X185702Y193293D01*
X169233Y193293D01*
X162136Y200390D01*
X162066Y200442D01*
X162002Y200502D01*
X161953Y200528D01*
X161909Y200561D01*
X161827Y200592D01*
X161749Y200632D01*
X161702Y200640D01*
X161643Y200662D01*
X161496Y200674D01*
X161418Y200687D01*
X159723Y200687D01*
X157507Y202903D01*
X157507Y206037D01*
X159723Y208253D01*
X162857Y208253D01*
X165073Y206037D01*
X165073Y204342D01*
X165085Y204255D01*
X165088Y204168D01*
X165105Y204115D01*
X165113Y204060D01*
X165148Y203980D01*
X165175Y203897D01*
X165203Y203858D01*
X165229Y203801D01*
X165325Y203688D01*
X165370Y203624D01*
X170830Y198164D01*
X170900Y198112D01*
X170964Y198052D01*
X171013Y198026D01*
X171057Y197993D01*
X171139Y197962D01*
X171217Y197922D01*
X171264Y197914D01*
X171323Y197892D01*
X171470Y197880D01*
X171548Y197867D01*
X184052Y197867D01*
X184139Y197879D01*
X184226Y197882D01*
X184279Y197899D01*
X184334Y197907D01*
X184414Y197942D01*
X184497Y197969D01*
X184536Y197997D01*
X184593Y198023D01*
X184706Y198119D01*
X184770Y198164D01*
X185150Y198544D01*
X185202Y198614D01*
X185262Y198678D01*
X185288Y198727D01*
X185321Y198771D01*
X185352Y198853D01*
X185392Y198931D01*
X185400Y198978D01*
X185422Y199037D01*
X185434Y199184D01*
X185447Y199262D01*
X185447Y200957D01*
X187663Y203173D01*
X190797Y203173D01*
X191996Y201974D01*
X192065Y201922D01*
X192129Y201862D01*
X192179Y201836D01*
X192223Y201803D01*
X192304Y201772D01*
X192382Y201732D01*
X192430Y201724D01*
X192488Y201702D01*
X192636Y201690D01*
X192713Y201677D01*
X232312Y201677D01*
X232399Y201689D01*
X232486Y201692D01*
X232539Y201709D01*
X232594Y201717D01*
X232674Y201752D01*
X232757Y201779D01*
X232796Y201807D01*
X232853Y201833D01*
X232966Y201929D01*
X233030Y201974D01*
X234906Y203850D01*
X234958Y203920D01*
X235018Y203984D01*
X235044Y204033D01*
X235077Y204077D01*
X235108Y204159D01*
X235148Y204237D01*
X235156Y204284D01*
X235178Y204343D01*
X235190Y204490D01*
X235203Y204568D01*
X235203Y242247D01*
X237220Y244264D01*
X237272Y244334D01*
X237332Y244398D01*
X237358Y244447D01*
X237391Y244491D01*
X237422Y244573D01*
X237462Y244651D01*
X237470Y244698D01*
X237492Y244757D01*
X237504Y244904D01*
X237517Y244982D01*
X237517Y246677D01*
X239733Y248893D01*
X242867Y248893D01*
X245083Y246677D01*
X245083Y243543D01*
X242867Y241327D01*
X241172Y241327D01*
X241085Y241315D01*
X240998Y241312D01*
X240945Y241295D01*
X240890Y241287D01*
X240810Y241252D01*
X240727Y241225D01*
X240688Y241197D01*
X240631Y241171D01*
X240518Y241075D01*
X240454Y241030D01*
X240074Y240650D01*
X240022Y240580D01*
X239962Y240516D01*
X239936Y240467D01*
X239903Y240423D01*
X239872Y240341D01*
X239832Y240263D01*
X239824Y240216D01*
X239802Y240157D01*
X239790Y240010D01*
X239777Y239932D01*
X239777Y205458D01*
X239785Y205400D01*
X239783Y205342D01*
X239805Y205260D01*
X239817Y205176D01*
X239840Y205123D01*
X239855Y205067D01*
X239898Y204994D01*
X239933Y204917D01*
X239971Y204872D01*
X240000Y204822D01*
X240062Y204764D01*
X240116Y204700D01*
X240165Y204668D01*
X240208Y204628D01*
X240283Y204589D01*
X240353Y204542D01*
X240409Y204525D01*
X240461Y204498D01*
X240529Y204487D01*
X240624Y204457D01*
X240724Y204454D01*
X240792Y204443D01*
X243855Y204443D01*
X246071Y202227D01*
X246071Y199093D01*
X243855Y196877D01*
X242160Y196877D01*
X242073Y196865D01*
X241986Y196862D01*
X241933Y196845D01*
X241878Y196837D01*
X241798Y196802D01*
X241715Y196775D01*
X241676Y196747D01*
X241619Y196721D01*
X241506Y196625D01*
X241442Y196580D01*
X238155Y193293D01*
X195298Y193293D01*
X195240Y193285D01*
X195182Y193287D01*
X195100Y193265D01*
X195016Y193253D01*
X194963Y193230D01*
X194907Y193215D01*
X194834Y193172D01*
X194757Y193137D01*
X194712Y193099D01*
X194662Y193070D01*
X194604Y193008D01*
X194540Y192954D01*
X194508Y192905D01*
X194468Y192862D01*
X194429Y192787D01*
X194382Y192717D01*
X194365Y192661D01*
X194338Y192609D01*
X194327Y192541D01*
X194297Y192446D01*
X194294Y192346D01*
X194283Y192278D01*
X194283Y191473D01*
X193519Y190710D01*
X193502Y190686D01*
X193479Y190667D01*
X193417Y190573D01*
X193349Y190483D01*
X193338Y190455D01*
X193322Y190431D01*
X193288Y190323D01*
X193247Y190217D01*
X193245Y190188D01*
X193236Y190160D01*
X193233Y190046D01*
X193224Y189934D01*
X193230Y189905D01*
X193229Y189876D01*
X193257Y189766D01*
X193280Y189655D01*
X193293Y189629D01*
X193301Y189601D01*
X193358Y189503D01*
X193411Y189403D01*
X193431Y189381D01*
X193446Y189356D01*
X193528Y189279D01*
X193606Y189197D01*
X193632Y189182D01*
X193653Y189162D01*
X193754Y189110D01*
X193852Y189053D01*
X193880Y189046D01*
X193906Y189032D01*
X193984Y189019D01*
X194127Y188983D01*
X194190Y188985D01*
X194237Y188977D01*
X240357Y188977D01*
X240443Y188989D01*
X240531Y188992D01*
X240583Y189009D01*
X240638Y189017D01*
X240718Y189052D01*
X240801Y189079D01*
X240840Y189107D01*
X240898Y189133D01*
X241011Y189229D01*
X241074Y189274D01*
X242273Y190473D01*
X245407Y190473D01*
X247623Y188257D01*
X247623Y185123D01*
X245407Y182907D01*
X242273Y182907D01*
X241074Y184106D01*
X241005Y184158D01*
X240941Y184218D01*
X240891Y184244D01*
X240847Y184277D01*
X240766Y184308D01*
X240688Y184348D01*
X240640Y184356D01*
X240582Y184378D01*
X240434Y184390D01*
X240357Y184403D01*
X179298Y184403D01*
X179211Y184391D01*
X179124Y184388D01*
X179071Y184371D01*
X179016Y184363D01*
X178936Y184328D01*
X178853Y184301D01*
X178814Y184273D01*
X178757Y184247D01*
X178644Y184151D01*
X178580Y184106D01*
X175373Y180899D01*
X166349Y180899D01*
X166262Y180886D01*
X166175Y180884D01*
X166122Y180867D01*
X166067Y180859D01*
X165988Y180823D01*
X165904Y180796D01*
X165865Y180768D01*
X165808Y180743D01*
X165695Y180647D01*
X165631Y180601D01*
X164127Y179097D01*
X160993Y179097D01*
G37*
%LPD*%
%LPC*%
G36*
X495003Y41937D02*
X495003Y41937D01*
X492787Y44153D01*
X492787Y47287D01*
X495003Y49503D01*
X496698Y49503D01*
X496785Y49515D01*
X496872Y49518D01*
X496925Y49535D01*
X496980Y49543D01*
X497060Y49578D01*
X497143Y49605D01*
X497182Y49633D01*
X497239Y49659D01*
X497352Y49755D01*
X497416Y49800D01*
X497796Y50180D01*
X497848Y50250D01*
X497908Y50314D01*
X497934Y50363D01*
X497967Y50407D01*
X497998Y50489D01*
X498038Y50567D01*
X498046Y50614D01*
X498068Y50673D01*
X498080Y50820D01*
X498093Y50898D01*
X498093Y114627D01*
X498081Y114713D01*
X498078Y114801D01*
X498061Y114853D01*
X498053Y114908D01*
X498018Y114988D01*
X497991Y115071D01*
X497963Y115110D01*
X497937Y115168D01*
X497841Y115281D01*
X497796Y115344D01*
X496597Y116543D01*
X496597Y119677D01*
X498813Y121893D01*
X501932Y121893D01*
X501990Y121901D01*
X502048Y121899D01*
X502130Y121921D01*
X502214Y121933D01*
X502267Y121956D01*
X502323Y121971D01*
X502396Y122014D01*
X502473Y122049D01*
X502518Y122087D01*
X502568Y122116D01*
X502626Y122178D01*
X502690Y122232D01*
X502722Y122281D01*
X502762Y122324D01*
X502801Y122399D01*
X502848Y122469D01*
X502865Y122525D01*
X502892Y122577D01*
X502903Y122645D01*
X502933Y122740D01*
X502936Y122840D01*
X502947Y122908D01*
X502947Y126027D01*
X505163Y128243D01*
X508297Y128243D01*
X510513Y126027D01*
X510513Y122893D01*
X509975Y122356D01*
X509958Y122332D01*
X509935Y122313D01*
X509873Y122219D01*
X509805Y122129D01*
X509794Y122101D01*
X509778Y122077D01*
X509744Y121969D01*
X509703Y121863D01*
X509701Y121834D01*
X509692Y121806D01*
X509689Y121692D01*
X509680Y121580D01*
X509686Y121551D01*
X509685Y121522D01*
X509713Y121412D01*
X509736Y121301D01*
X509749Y121275D01*
X509757Y121247D01*
X509814Y121149D01*
X509867Y121049D01*
X509887Y121027D01*
X509902Y121002D01*
X509984Y120925D01*
X510062Y120843D01*
X510088Y120828D01*
X510109Y120808D01*
X510210Y120756D01*
X510308Y120699D01*
X510336Y120692D01*
X510362Y120678D01*
X510440Y120665D01*
X510583Y120629D01*
X510646Y120631D01*
X510693Y120623D01*
X513377Y120623D01*
X515593Y118407D01*
X515593Y115273D01*
X514394Y114074D01*
X514342Y114005D01*
X514282Y113941D01*
X514256Y113891D01*
X514223Y113847D01*
X514192Y113766D01*
X514152Y113688D01*
X514144Y113640D01*
X514122Y113582D01*
X514110Y113434D01*
X514097Y113357D01*
X514097Y56823D01*
X514105Y56766D01*
X514103Y56708D01*
X514111Y56680D01*
X514112Y56649D01*
X514129Y56597D01*
X514137Y56542D01*
X514161Y56487D01*
X514175Y56433D01*
X514190Y56409D01*
X514199Y56379D01*
X514227Y56340D01*
X514253Y56282D01*
X514292Y56236D01*
X514320Y56188D01*
X514364Y56147D01*
X514394Y56106D01*
X515593Y54907D01*
X515593Y51773D01*
X513377Y49557D01*
X510693Y49557D01*
X510664Y49553D01*
X510635Y49556D01*
X510524Y49533D01*
X510412Y49517D01*
X510385Y49505D01*
X510356Y49500D01*
X510256Y49447D01*
X510152Y49401D01*
X510130Y49382D01*
X510104Y49369D01*
X510022Y49291D01*
X509935Y49218D01*
X509919Y49193D01*
X509898Y49173D01*
X509841Y49075D01*
X509778Y48981D01*
X509769Y48953D01*
X509754Y48928D01*
X509726Y48818D01*
X509692Y48710D01*
X509691Y48680D01*
X509684Y48652D01*
X509688Y48539D01*
X509685Y48426D01*
X509692Y48397D01*
X509693Y48368D01*
X509728Y48260D01*
X509757Y48151D01*
X509772Y48125D01*
X509781Y48097D01*
X509826Y48033D01*
X509902Y47906D01*
X509947Y47863D01*
X509975Y47824D01*
X510513Y47287D01*
X510513Y44153D01*
X508297Y41937D01*
X505163Y41937D01*
X502947Y44153D01*
X502947Y46412D01*
X502943Y46441D01*
X502946Y46471D01*
X502923Y46582D01*
X502907Y46694D01*
X502895Y46721D01*
X502890Y46749D01*
X502837Y46850D01*
X502791Y46953D01*
X502772Y46976D01*
X502759Y47002D01*
X502681Y47084D01*
X502608Y47170D01*
X502583Y47186D01*
X502563Y47208D01*
X502465Y47265D01*
X502371Y47328D01*
X502343Y47337D01*
X502318Y47352D01*
X502208Y47379D01*
X502100Y47414D01*
X502070Y47414D01*
X502042Y47422D01*
X501929Y47418D01*
X501816Y47421D01*
X501787Y47413D01*
X501758Y47413D01*
X501650Y47378D01*
X501541Y47349D01*
X501515Y47334D01*
X501487Y47325D01*
X501423Y47279D01*
X501296Y47204D01*
X501253Y47158D01*
X501214Y47130D01*
X500650Y46566D01*
X500597Y46496D01*
X500538Y46432D01*
X500512Y46383D01*
X500479Y46339D01*
X500448Y46257D01*
X500408Y46179D01*
X500400Y46132D01*
X500378Y46073D01*
X500366Y45926D01*
X500353Y45848D01*
X500353Y44153D01*
X498137Y41937D01*
X495003Y41937D01*
G37*
%LPD*%
%LPC*%
G36*
X543263Y226087D02*
X543263Y226087D01*
X541047Y228303D01*
X541047Y231437D01*
X543263Y233653D01*
X544958Y233653D01*
X545045Y233665D01*
X545132Y233668D01*
X545185Y233685D01*
X545240Y233693D01*
X545320Y233728D01*
X545403Y233755D01*
X545442Y233783D01*
X545499Y233809D01*
X545612Y233905D01*
X545676Y233950D01*
X553676Y241950D01*
X553728Y242020D01*
X553788Y242084D01*
X553814Y242133D01*
X553847Y242177D01*
X553878Y242259D01*
X553918Y242337D01*
X553926Y242384D01*
X553948Y242443D01*
X553960Y242590D01*
X553973Y242668D01*
X553973Y344497D01*
X553961Y344583D01*
X553958Y344671D01*
X553941Y344723D01*
X553933Y344778D01*
X553898Y344858D01*
X553871Y344941D01*
X553843Y344981D01*
X553817Y345038D01*
X553721Y345151D01*
X553676Y345215D01*
X552477Y346413D01*
X552477Y349547D01*
X554693Y351763D01*
X557827Y351763D01*
X560043Y349547D01*
X560043Y346413D01*
X558844Y345215D01*
X558792Y345145D01*
X558732Y345081D01*
X558706Y345032D01*
X558673Y344987D01*
X558642Y344906D01*
X558602Y344828D01*
X558594Y344780D01*
X558572Y344722D01*
X558560Y344574D01*
X558547Y344497D01*
X558547Y303457D01*
X558551Y303428D01*
X558548Y303399D01*
X558571Y303288D01*
X558587Y303176D01*
X558599Y303149D01*
X558604Y303120D01*
X558657Y303020D01*
X558703Y302916D01*
X558722Y302894D01*
X558735Y302868D01*
X558813Y302786D01*
X558886Y302699D01*
X558911Y302683D01*
X558931Y302662D01*
X559029Y302605D01*
X559123Y302542D01*
X559151Y302533D01*
X559176Y302518D01*
X559286Y302490D01*
X559394Y302456D01*
X559424Y302455D01*
X559452Y302448D01*
X559565Y302452D01*
X559678Y302449D01*
X559707Y302456D01*
X559736Y302457D01*
X559844Y302492D01*
X559953Y302521D01*
X559979Y302536D01*
X560007Y302545D01*
X560071Y302590D01*
X560198Y302666D01*
X560241Y302711D01*
X560280Y302739D01*
X561043Y303503D01*
X564388Y303503D01*
X564446Y303511D01*
X564504Y303509D01*
X564586Y303531D01*
X564670Y303543D01*
X564723Y303566D01*
X564779Y303581D01*
X564852Y303624D01*
X564929Y303659D01*
X564974Y303697D01*
X565024Y303726D01*
X565082Y303788D01*
X565146Y303842D01*
X565178Y303891D01*
X565218Y303934D01*
X565257Y304009D01*
X565304Y304079D01*
X565321Y304135D01*
X565348Y304187D01*
X565359Y304255D01*
X565389Y304350D01*
X565392Y304450D01*
X565403Y304518D01*
X565403Y311477D01*
X565391Y311563D01*
X565388Y311651D01*
X565371Y311703D01*
X565363Y311758D01*
X565328Y311838D01*
X565301Y311921D01*
X565273Y311960D01*
X565247Y312018D01*
X565151Y312131D01*
X565106Y312194D01*
X563907Y313393D01*
X563907Y316527D01*
X566123Y318743D01*
X569257Y318743D01*
X571473Y316527D01*
X571473Y313393D01*
X570274Y312194D01*
X570222Y312125D01*
X570162Y312061D01*
X570136Y312011D01*
X570103Y311967D01*
X570072Y311886D01*
X570032Y311808D01*
X570024Y311760D01*
X570002Y311702D01*
X569990Y311554D01*
X569977Y311477D01*
X569977Y261293D01*
X569989Y261207D01*
X569992Y261119D01*
X570009Y261067D01*
X570017Y261012D01*
X570052Y260932D01*
X570079Y260849D01*
X570107Y260810D01*
X570133Y260752D01*
X570229Y260639D01*
X570274Y260576D01*
X571473Y259377D01*
X571473Y256243D01*
X569257Y254027D01*
X566123Y254027D01*
X563907Y256243D01*
X563907Y259362D01*
X563899Y259420D01*
X563901Y259478D01*
X563879Y259560D01*
X563867Y259644D01*
X563844Y259697D01*
X563829Y259753D01*
X563786Y259826D01*
X563751Y259903D01*
X563713Y259948D01*
X563684Y259998D01*
X563622Y260056D01*
X563568Y260120D01*
X563519Y260152D01*
X563476Y260192D01*
X563401Y260231D01*
X563331Y260278D01*
X563275Y260295D01*
X563223Y260322D01*
X563155Y260333D01*
X563060Y260363D01*
X562960Y260366D01*
X562892Y260377D01*
X561043Y260377D01*
X560280Y261141D01*
X560256Y261158D01*
X560237Y261181D01*
X560143Y261243D01*
X560053Y261311D01*
X560025Y261322D01*
X560001Y261338D01*
X559893Y261372D01*
X559787Y261413D01*
X559758Y261415D01*
X559730Y261424D01*
X559616Y261427D01*
X559504Y261436D01*
X559475Y261430D01*
X559446Y261431D01*
X559336Y261403D01*
X559225Y261380D01*
X559199Y261367D01*
X559171Y261359D01*
X559073Y261302D01*
X558973Y261249D01*
X558951Y261229D01*
X558926Y261214D01*
X558849Y261132D01*
X558767Y261054D01*
X558752Y261028D01*
X558732Y261007D01*
X558680Y260906D01*
X558623Y260808D01*
X558616Y260780D01*
X558602Y260754D01*
X558589Y260676D01*
X558553Y260533D01*
X558555Y260470D01*
X558547Y260423D01*
X558547Y240353D01*
X548910Y230716D01*
X548858Y230646D01*
X548798Y230582D01*
X548772Y230533D01*
X548739Y230489D01*
X548708Y230407D01*
X548668Y230329D01*
X548660Y230282D01*
X548638Y230223D01*
X548626Y230076D01*
X548613Y229998D01*
X548613Y228303D01*
X546397Y226087D01*
X543263Y226087D01*
G37*
%LPD*%
%LPC*%
G36*
X489923Y240057D02*
X489923Y240057D01*
X487707Y242273D01*
X487707Y245407D01*
X488906Y246606D01*
X488958Y246675D01*
X489018Y246739D01*
X489044Y246789D01*
X489077Y246833D01*
X489108Y246914D01*
X489148Y246992D01*
X489156Y247040D01*
X489178Y247098D01*
X489190Y247246D01*
X489203Y247323D01*
X489203Y288644D01*
X489195Y288702D01*
X489197Y288760D01*
X489175Y288842D01*
X489163Y288926D01*
X489140Y288979D01*
X489125Y289035D01*
X489082Y289108D01*
X489047Y289185D01*
X489009Y289230D01*
X488980Y289280D01*
X488918Y289338D01*
X488864Y289402D01*
X488815Y289434D01*
X488772Y289474D01*
X488697Y289513D01*
X488627Y289560D01*
X488571Y289577D01*
X488519Y289604D01*
X488451Y289615D01*
X488356Y289645D01*
X488256Y289648D01*
X488188Y289659D01*
X487383Y289659D01*
X485167Y291875D01*
X485167Y295009D01*
X487383Y297225D01*
X490517Y297225D01*
X492078Y295663D01*
X492125Y295628D01*
X492165Y295586D01*
X492238Y295543D01*
X492305Y295493D01*
X492360Y295472D01*
X492410Y295442D01*
X492492Y295421D01*
X492571Y295391D01*
X492629Y295387D01*
X492686Y295372D01*
X492770Y295375D01*
X492854Y295368D01*
X492912Y295379D01*
X492970Y295381D01*
X493050Y295407D01*
X493133Y295424D01*
X493185Y295451D01*
X493241Y295469D01*
X493297Y295509D01*
X493385Y295555D01*
X493458Y295623D01*
X493514Y295663D01*
X495003Y297153D01*
X498137Y297153D01*
X500297Y294992D01*
X500344Y294957D01*
X500384Y294915D01*
X500457Y294872D01*
X500524Y294822D01*
X500579Y294801D01*
X500629Y294771D01*
X500711Y294750D01*
X500790Y294720D01*
X500848Y294716D01*
X500905Y294701D01*
X500989Y294704D01*
X501073Y294697D01*
X501131Y294708D01*
X501189Y294710D01*
X501269Y294736D01*
X501352Y294753D01*
X501404Y294780D01*
X501460Y294798D01*
X501516Y294838D01*
X501604Y294884D01*
X501677Y294952D01*
X501733Y294992D01*
X503893Y297153D01*
X507027Y297153D01*
X509243Y294937D01*
X509243Y291803D01*
X508044Y290604D01*
X507992Y290535D01*
X507932Y290471D01*
X507906Y290421D01*
X507873Y290377D01*
X507842Y290296D01*
X507802Y290218D01*
X507794Y290170D01*
X507772Y290112D01*
X507760Y289964D01*
X507747Y289887D01*
X507747Y254943D01*
X507759Y254857D01*
X507762Y254769D01*
X507779Y254717D01*
X507787Y254662D01*
X507822Y254582D01*
X507849Y254499D01*
X507877Y254460D01*
X507903Y254402D01*
X507999Y254289D01*
X508044Y254226D01*
X509243Y253027D01*
X509243Y249893D01*
X507027Y247677D01*
X503893Y247677D01*
X501677Y249893D01*
X501677Y250037D01*
X501673Y250066D01*
X501676Y250095D01*
X501653Y250206D01*
X501637Y250318D01*
X501625Y250345D01*
X501620Y250374D01*
X501567Y250474D01*
X501521Y250578D01*
X501502Y250600D01*
X501489Y250626D01*
X501411Y250708D01*
X501338Y250795D01*
X501313Y250811D01*
X501293Y250832D01*
X501195Y250889D01*
X501101Y250952D01*
X501073Y250961D01*
X501048Y250976D01*
X500938Y251004D01*
X500830Y251038D01*
X500800Y251039D01*
X500772Y251046D01*
X500659Y251042D01*
X500546Y251045D01*
X500517Y251038D01*
X500488Y251037D01*
X500380Y251002D01*
X500271Y250973D01*
X500245Y250958D01*
X500217Y250949D01*
X500154Y250904D01*
X500026Y250828D01*
X499983Y250783D01*
X499944Y250755D01*
X498137Y248947D01*
X494792Y248947D01*
X494734Y248939D01*
X494676Y248941D01*
X494594Y248919D01*
X494510Y248907D01*
X494457Y248884D01*
X494401Y248869D01*
X494328Y248826D01*
X494251Y248791D01*
X494206Y248753D01*
X494156Y248724D01*
X494098Y248662D01*
X494034Y248608D01*
X494002Y248559D01*
X493962Y248516D01*
X493923Y248441D01*
X493876Y248371D01*
X493859Y248315D01*
X493832Y248263D01*
X493821Y248195D01*
X493791Y248100D01*
X493788Y248000D01*
X493777Y247932D01*
X493777Y247323D01*
X493789Y247237D01*
X493792Y247149D01*
X493809Y247097D01*
X493817Y247042D01*
X493852Y246962D01*
X493879Y246879D01*
X493907Y246840D01*
X493933Y246782D01*
X494029Y246669D01*
X494074Y246606D01*
X495273Y245407D01*
X495273Y242273D01*
X493057Y240057D01*
X489923Y240057D01*
G37*
%LPD*%
%LPC*%
G36*
X555963Y77497D02*
X555963Y77497D01*
X553747Y79713D01*
X553747Y82847D01*
X554946Y84046D01*
X554998Y84115D01*
X555058Y84179D01*
X555084Y84229D01*
X555117Y84273D01*
X555148Y84354D01*
X555188Y84432D01*
X555196Y84480D01*
X555218Y84538D01*
X555230Y84686D01*
X555243Y84763D01*
X555243Y151457D01*
X555231Y151543D01*
X555228Y151631D01*
X555211Y151683D01*
X555203Y151738D01*
X555168Y151818D01*
X555141Y151901D01*
X555113Y151940D01*
X555087Y151998D01*
X554991Y152111D01*
X554946Y152174D01*
X553747Y153373D01*
X553747Y156507D01*
X555963Y158723D01*
X559097Y158723D01*
X561313Y156507D01*
X561313Y153373D01*
X560114Y152174D01*
X560062Y152105D01*
X560002Y152041D01*
X559976Y151991D01*
X559943Y151947D01*
X559912Y151866D01*
X559872Y151788D01*
X559864Y151740D01*
X559842Y151682D01*
X559830Y151534D01*
X559817Y151457D01*
X559817Y139627D01*
X559821Y139598D01*
X559818Y139569D01*
X559841Y139458D01*
X559857Y139346D01*
X559869Y139319D01*
X559874Y139290D01*
X559927Y139190D01*
X559973Y139086D01*
X559992Y139064D01*
X560005Y139038D01*
X560083Y138956D01*
X560156Y138869D01*
X560181Y138853D01*
X560201Y138832D01*
X560299Y138775D01*
X560393Y138712D01*
X560421Y138703D01*
X560446Y138688D01*
X560556Y138660D01*
X560664Y138626D01*
X560694Y138625D01*
X560722Y138618D01*
X560835Y138622D01*
X560948Y138619D01*
X560977Y138626D01*
X561006Y138627D01*
X561114Y138662D01*
X561223Y138691D01*
X561249Y138706D01*
X561277Y138715D01*
X561340Y138760D01*
X561468Y138836D01*
X561511Y138881D01*
X561550Y138909D01*
X563583Y140943D01*
X566717Y140943D01*
X568933Y138727D01*
X568933Y135593D01*
X567734Y134394D01*
X567682Y134325D01*
X567622Y134261D01*
X567596Y134211D01*
X567563Y134167D01*
X567532Y134086D01*
X567492Y134008D01*
X567484Y133960D01*
X567462Y133902D01*
X567450Y133754D01*
X567437Y133677D01*
X567437Y84763D01*
X567449Y84677D01*
X567452Y84589D01*
X567469Y84537D01*
X567477Y84482D01*
X567512Y84402D01*
X567539Y84319D01*
X567567Y84280D01*
X567593Y84222D01*
X567689Y84109D01*
X567734Y84046D01*
X568933Y82847D01*
X568933Y79713D01*
X566717Y77497D01*
X563583Y77497D01*
X562058Y79023D01*
X562011Y79058D01*
X561971Y79100D01*
X561898Y79143D01*
X561831Y79193D01*
X561776Y79214D01*
X561726Y79244D01*
X561644Y79265D01*
X561565Y79295D01*
X561507Y79299D01*
X561450Y79314D01*
X561366Y79311D01*
X561282Y79318D01*
X561224Y79307D01*
X561166Y79305D01*
X561086Y79279D01*
X561003Y79262D01*
X560951Y79235D01*
X560895Y79217D01*
X560839Y79177D01*
X560751Y79131D01*
X560678Y79063D01*
X560622Y79023D01*
X559097Y77497D01*
X555963Y77497D01*
G37*
%LPD*%
%LPC*%
G36*
X183853Y622327D02*
X183853Y622327D01*
X181637Y624543D01*
X181637Y627677D01*
X183853Y629893D01*
X184440Y629893D01*
X184526Y629905D01*
X184614Y629908D01*
X184666Y629925D01*
X184721Y629933D01*
X184801Y629968D01*
X184884Y629995D01*
X184923Y630023D01*
X184980Y630049D01*
X185094Y630145D01*
X185157Y630190D01*
X196022Y641055D01*
X198271Y643304D01*
X198306Y643350D01*
X198349Y643391D01*
X198391Y643464D01*
X198442Y643531D01*
X198463Y643585D01*
X198492Y643636D01*
X198513Y643718D01*
X198543Y643797D01*
X198548Y643855D01*
X198562Y643911D01*
X198560Y643996D01*
X198567Y644080D01*
X198555Y644137D01*
X198553Y644196D01*
X198527Y644276D01*
X198511Y644359D01*
X198484Y644410D01*
X198466Y644466D01*
X198426Y644522D01*
X198380Y644611D01*
X198311Y644683D01*
X198271Y644739D01*
X198147Y644863D01*
X198147Y647997D01*
X200363Y650213D01*
X203482Y650213D01*
X203540Y650221D01*
X203598Y650219D01*
X203680Y650241D01*
X203764Y650253D01*
X203817Y650276D01*
X203873Y650291D01*
X203946Y650334D01*
X204023Y650369D01*
X204068Y650407D01*
X204118Y650436D01*
X204176Y650498D01*
X204240Y650552D01*
X204272Y650601D01*
X204312Y650644D01*
X204351Y650719D01*
X204398Y650789D01*
X204415Y650845D01*
X204442Y650897D01*
X204453Y650965D01*
X204483Y651060D01*
X204486Y651160D01*
X204497Y651228D01*
X204497Y651792D01*
X204490Y651845D01*
X204491Y651877D01*
X204490Y651880D01*
X204491Y651908D01*
X204469Y651990D01*
X204457Y652074D01*
X204434Y652127D01*
X204419Y652183D01*
X204376Y652256D01*
X204341Y652333D01*
X204303Y652378D01*
X204274Y652428D01*
X204212Y652486D01*
X204158Y652550D01*
X204109Y652582D01*
X204066Y652622D01*
X203991Y652661D01*
X203921Y652708D01*
X203865Y652725D01*
X203813Y652752D01*
X203745Y652763D01*
X203650Y652793D01*
X203550Y652796D01*
X203482Y652807D01*
X200363Y652807D01*
X198147Y655023D01*
X198147Y658157D01*
X200363Y660373D01*
X203497Y660373D01*
X205713Y658157D01*
X205713Y656308D01*
X205721Y656250D01*
X205719Y656192D01*
X205741Y656110D01*
X205753Y656026D01*
X205776Y655973D01*
X205791Y655917D01*
X205834Y655844D01*
X205869Y655767D01*
X205907Y655722D01*
X205936Y655672D01*
X205998Y655614D01*
X206052Y655550D01*
X206101Y655518D01*
X206144Y655478D01*
X206219Y655439D01*
X206289Y655392D01*
X206345Y655375D01*
X206397Y655348D01*
X206465Y655337D01*
X206560Y655307D01*
X206660Y655304D01*
X206728Y655293D01*
X209832Y655293D01*
X209890Y655301D01*
X209948Y655299D01*
X210030Y655321D01*
X210114Y655333D01*
X210167Y655356D01*
X210223Y655371D01*
X210296Y655414D01*
X210373Y655449D01*
X210418Y655487D01*
X210468Y655516D01*
X210526Y655578D01*
X210590Y655632D01*
X210622Y655681D01*
X210662Y655724D01*
X210701Y655799D01*
X210748Y655869D01*
X210765Y655925D01*
X210792Y655977D01*
X210803Y656045D01*
X210833Y656140D01*
X210836Y656240D01*
X210847Y656308D01*
X210847Y658157D01*
X213063Y660373D01*
X216197Y660373D01*
X218413Y658157D01*
X218413Y655023D01*
X216197Y652807D01*
X213078Y652807D01*
X213020Y652799D01*
X212962Y652801D01*
X212880Y652779D01*
X212796Y652767D01*
X212743Y652744D01*
X212687Y652729D01*
X212614Y652686D01*
X212537Y652651D01*
X212492Y652613D01*
X212442Y652584D01*
X212384Y652522D01*
X212320Y652468D01*
X212288Y652419D01*
X212248Y652376D01*
X212209Y652301D01*
X212162Y652231D01*
X212145Y652175D01*
X212118Y652123D01*
X212107Y652055D01*
X212077Y651960D01*
X212074Y651860D01*
X212063Y651792D01*
X212063Y651228D01*
X212071Y651170D01*
X212069Y651112D01*
X212091Y651030D01*
X212103Y650946D01*
X212126Y650893D01*
X212141Y650837D01*
X212184Y650764D01*
X212219Y650687D01*
X212257Y650642D01*
X212286Y650592D01*
X212348Y650534D01*
X212402Y650470D01*
X212451Y650438D01*
X212494Y650398D01*
X212569Y650359D01*
X212639Y650312D01*
X212695Y650295D01*
X212747Y650268D01*
X212815Y650257D01*
X212910Y650227D01*
X213010Y650224D01*
X213078Y650213D01*
X216197Y650213D01*
X218413Y647997D01*
X218413Y644858D01*
X218393Y644841D01*
X218331Y644747D01*
X218263Y644657D01*
X218252Y644629D01*
X218236Y644605D01*
X218202Y644497D01*
X218161Y644391D01*
X218159Y644362D01*
X218150Y644334D01*
X218147Y644221D01*
X218138Y644108D01*
X218144Y644079D01*
X218143Y644050D01*
X218171Y643940D01*
X218194Y643829D01*
X218207Y643803D01*
X218215Y643775D01*
X218272Y643677D01*
X218325Y643577D01*
X218345Y643555D01*
X218360Y643530D01*
X218442Y643453D01*
X218520Y643371D01*
X218546Y643356D01*
X218567Y643336D01*
X218668Y643284D01*
X218766Y643227D01*
X218794Y643220D01*
X218820Y643206D01*
X218898Y643193D01*
X219041Y643157D01*
X219104Y643159D01*
X219151Y643151D01*
X234791Y643151D01*
X234877Y643163D01*
X234965Y643166D01*
X235017Y643183D01*
X235072Y643191D01*
X235152Y643226D01*
X235235Y643253D01*
X235274Y643281D01*
X235332Y643307D01*
X235445Y643403D01*
X235508Y643448D01*
X235923Y643863D01*
X239057Y643863D01*
X241273Y641647D01*
X241273Y638513D01*
X239057Y636297D01*
X235923Y636297D01*
X235508Y636712D01*
X235439Y636764D01*
X235375Y636824D01*
X235325Y636850D01*
X235281Y636883D01*
X235200Y636914D01*
X235122Y636954D01*
X235074Y636962D01*
X235016Y636984D01*
X234868Y636996D01*
X234791Y637009D01*
X201082Y637009D01*
X200996Y636997D01*
X200908Y636994D01*
X200856Y636977D01*
X200801Y636969D01*
X200721Y636934D01*
X200638Y636907D01*
X200599Y636879D01*
X200542Y636853D01*
X200428Y636757D01*
X200365Y636712D01*
X189500Y625847D01*
X189448Y625778D01*
X189388Y625714D01*
X189362Y625664D01*
X189329Y625620D01*
X189298Y625539D01*
X189258Y625461D01*
X189250Y625413D01*
X189228Y625355D01*
X189216Y625207D01*
X189203Y625130D01*
X189203Y624543D01*
X186987Y622327D01*
X183853Y622327D01*
G37*
%LPD*%
%LPC*%
G36*
X370543Y506757D02*
X370543Y506757D01*
X370128Y507172D01*
X370059Y507224D01*
X369995Y507284D01*
X369945Y507310D01*
X369901Y507343D01*
X369820Y507374D01*
X369742Y507414D01*
X369694Y507422D01*
X369636Y507444D01*
X369488Y507456D01*
X369411Y507469D01*
X314958Y507469D01*
X313427Y509000D01*
X313358Y509052D01*
X313294Y509112D01*
X313244Y509138D01*
X313200Y509171D01*
X313119Y509202D01*
X313041Y509242D01*
X312993Y509250D01*
X312935Y509272D01*
X312787Y509284D01*
X312710Y509297D01*
X312123Y509297D01*
X309907Y511513D01*
X309907Y514647D01*
X312123Y516863D01*
X315257Y516863D01*
X317490Y514629D01*
X317497Y514597D01*
X317513Y514485D01*
X317525Y514458D01*
X317530Y514429D01*
X317582Y514329D01*
X317629Y514226D01*
X317648Y514203D01*
X317661Y514177D01*
X317739Y514095D01*
X317812Y514009D01*
X317837Y513992D01*
X317857Y513971D01*
X317955Y513914D01*
X318049Y513851D01*
X318077Y513842D01*
X318102Y513827D01*
X318212Y513799D01*
X318320Y513765D01*
X318350Y513764D01*
X318378Y513757D01*
X318491Y513761D01*
X318604Y513758D01*
X318633Y513765D01*
X318662Y513766D01*
X318770Y513801D01*
X318879Y513830D01*
X318905Y513845D01*
X318933Y513854D01*
X318996Y513899D01*
X319124Y513975D01*
X319129Y513980D01*
X319130Y513981D01*
X319168Y514021D01*
X319206Y514049D01*
X319212Y514055D01*
X319264Y514124D01*
X319324Y514188D01*
X319350Y514238D01*
X319383Y514282D01*
X319414Y514363D01*
X319454Y514441D01*
X319462Y514489D01*
X319484Y514547D01*
X319496Y514695D01*
X319509Y514772D01*
X319509Y534511D01*
X319497Y534597D01*
X319494Y534685D01*
X319477Y534737D01*
X319469Y534792D01*
X319434Y534872D01*
X319407Y534955D01*
X319379Y534994D01*
X319353Y535052D01*
X319257Y535165D01*
X319212Y535228D01*
X318797Y535643D01*
X318797Y538777D01*
X321013Y540993D01*
X324147Y540993D01*
X326363Y538777D01*
X326363Y535643D01*
X325948Y535228D01*
X325896Y535159D01*
X325836Y535095D01*
X325810Y535045D01*
X325777Y535001D01*
X325746Y534920D01*
X325706Y534842D01*
X325698Y534794D01*
X325676Y534736D01*
X325664Y534588D01*
X325651Y534511D01*
X325651Y514772D01*
X325663Y514686D01*
X325666Y514598D01*
X325683Y514546D01*
X325691Y514491D01*
X325726Y514411D01*
X325753Y514328D01*
X325781Y514289D01*
X325807Y514232D01*
X325903Y514118D01*
X325948Y514055D01*
X326095Y513908D01*
X326164Y513856D01*
X326228Y513796D01*
X326278Y513770D01*
X326322Y513737D01*
X326403Y513706D01*
X326481Y513666D01*
X326529Y513658D01*
X326587Y513636D01*
X326735Y513624D01*
X326812Y513611D01*
X369411Y513611D01*
X369497Y513623D01*
X369585Y513626D01*
X369637Y513643D01*
X369692Y513651D01*
X369772Y513686D01*
X369855Y513713D01*
X369894Y513741D01*
X369952Y513767D01*
X370065Y513863D01*
X370128Y513908D01*
X370543Y514323D01*
X373677Y514323D01*
X375893Y512107D01*
X375893Y508973D01*
X373677Y506757D01*
X370543Y506757D01*
G37*
%LPD*%
%LPC*%
G36*
X121623Y275617D02*
X121623Y275617D01*
X119407Y277833D01*
X119407Y280967D01*
X119945Y281504D01*
X119958Y281522D01*
X119972Y281534D01*
X119975Y281539D01*
X119985Y281547D01*
X120047Y281641D01*
X120115Y281731D01*
X120126Y281759D01*
X120142Y281783D01*
X120176Y281891D01*
X120217Y281997D01*
X120219Y282026D01*
X120228Y282054D01*
X120231Y282168D01*
X120240Y282280D01*
X120234Y282309D01*
X120235Y282338D01*
X120207Y282448D01*
X120184Y282559D01*
X120171Y282585D01*
X120163Y282613D01*
X120106Y282711D01*
X120053Y282811D01*
X120033Y282833D01*
X120018Y282858D01*
X119936Y282935D01*
X119858Y283017D01*
X119832Y283032D01*
X119811Y283052D01*
X119710Y283104D01*
X119612Y283161D01*
X119584Y283168D01*
X119558Y283182D01*
X119480Y283195D01*
X119337Y283231D01*
X119274Y283229D01*
X119227Y283237D01*
X119083Y283237D01*
X116867Y285453D01*
X116867Y288587D01*
X119083Y290803D01*
X122217Y290803D01*
X122632Y290388D01*
X122701Y290336D01*
X122765Y290276D01*
X122815Y290250D01*
X122859Y290217D01*
X122940Y290186D01*
X123018Y290146D01*
X123066Y290138D01*
X123124Y290116D01*
X123272Y290104D01*
X123349Y290091D01*
X138432Y290091D01*
X138693Y289830D01*
X138762Y289778D01*
X138826Y289718D01*
X138876Y289692D01*
X138920Y289659D01*
X139001Y289628D01*
X139079Y289588D01*
X139127Y289580D01*
X139185Y289558D01*
X139333Y289546D01*
X139410Y289533D01*
X139997Y289533D01*
X142213Y287317D01*
X142213Y284178D01*
X142193Y284161D01*
X142131Y284067D01*
X142063Y283977D01*
X142052Y283949D01*
X142036Y283925D01*
X142002Y283817D01*
X141961Y283711D01*
X141959Y283682D01*
X141950Y283654D01*
X141947Y283541D01*
X141938Y283428D01*
X141944Y283399D01*
X141943Y283370D01*
X141971Y283260D01*
X141994Y283149D01*
X142007Y283123D01*
X142015Y283095D01*
X142072Y282997D01*
X142125Y282897D01*
X142145Y282875D01*
X142160Y282850D01*
X142242Y282773D01*
X142320Y282691D01*
X142346Y282676D01*
X142367Y282656D01*
X142468Y282604D01*
X142566Y282547D01*
X142594Y282540D01*
X142620Y282526D01*
X142698Y282513D01*
X142841Y282477D01*
X142904Y282479D01*
X142951Y282471D01*
X152973Y282471D01*
X153060Y282483D01*
X153147Y282486D01*
X153200Y282503D01*
X153255Y282511D01*
X153335Y282546D01*
X153418Y282573D01*
X153457Y282601D01*
X153514Y282627D01*
X153628Y282723D01*
X153691Y282768D01*
X156436Y285513D01*
X170523Y285513D01*
X170609Y285525D01*
X170697Y285528D01*
X170749Y285545D01*
X170804Y285553D01*
X170884Y285588D01*
X170967Y285615D01*
X171006Y285643D01*
X171064Y285669D01*
X171127Y285723D01*
X174287Y285723D01*
X176503Y283507D01*
X176503Y280373D01*
X174287Y278157D01*
X171153Y278157D01*
X170236Y279074D01*
X170167Y279126D01*
X170103Y279186D01*
X170053Y279212D01*
X170009Y279245D01*
X169928Y279276D01*
X169850Y279316D01*
X169802Y279324D01*
X169744Y279346D01*
X169596Y279358D01*
X169519Y279371D01*
X159400Y279371D01*
X159314Y279359D01*
X159226Y279356D01*
X159174Y279339D01*
X159119Y279331D01*
X159039Y279296D01*
X158956Y279269D01*
X158916Y279241D01*
X158859Y279215D01*
X158746Y279119D01*
X158682Y279074D01*
X155938Y276329D01*
X125889Y276329D01*
X125803Y276317D01*
X125715Y276314D01*
X125663Y276297D01*
X125608Y276289D01*
X125528Y276254D01*
X125445Y276227D01*
X125406Y276199D01*
X125348Y276173D01*
X125235Y276077D01*
X125172Y276032D01*
X124757Y275617D01*
X121623Y275617D01*
G37*
%LPD*%
%LPC*%
G36*
X271483Y228627D02*
X271483Y228627D01*
X269267Y230843D01*
X269267Y233977D01*
X270466Y235176D01*
X270518Y235245D01*
X270578Y235309D01*
X270604Y235359D01*
X270637Y235403D01*
X270668Y235484D01*
X270708Y235562D01*
X270716Y235610D01*
X270738Y235668D01*
X270750Y235816D01*
X270763Y235893D01*
X270763Y262567D01*
X276590Y268394D01*
X276642Y268464D01*
X276702Y268528D01*
X276728Y268577D01*
X276761Y268621D01*
X276792Y268703D01*
X276832Y268781D01*
X276840Y268828D01*
X276862Y268887D01*
X276874Y269034D01*
X276887Y269112D01*
X276887Y270807D01*
X279103Y273023D01*
X282448Y273023D01*
X282506Y273031D01*
X282564Y273029D01*
X282646Y273051D01*
X282730Y273063D01*
X282783Y273086D01*
X282839Y273101D01*
X282912Y273144D01*
X282989Y273179D01*
X283034Y273217D01*
X283084Y273246D01*
X283142Y273308D01*
X283206Y273362D01*
X283238Y273411D01*
X283278Y273454D01*
X283317Y273529D01*
X283364Y273599D01*
X283381Y273655D01*
X283408Y273707D01*
X283419Y273775D01*
X283449Y273870D01*
X283452Y273970D01*
X283463Y274038D01*
X283463Y278457D01*
X283451Y278543D01*
X283448Y278631D01*
X283431Y278683D01*
X283423Y278738D01*
X283388Y278818D01*
X283361Y278901D01*
X283333Y278940D01*
X283307Y278998D01*
X283211Y279111D01*
X283166Y279174D01*
X281967Y280373D01*
X281967Y283507D01*
X284183Y285723D01*
X287317Y285723D01*
X289533Y283507D01*
X289533Y280373D01*
X288334Y279174D01*
X288282Y279105D01*
X288222Y279041D01*
X288196Y278991D01*
X288163Y278947D01*
X288132Y278866D01*
X288092Y278788D01*
X288084Y278740D01*
X288062Y278682D01*
X288050Y278534D01*
X288037Y278457D01*
X288037Y235893D01*
X288049Y235807D01*
X288052Y235719D01*
X288069Y235667D01*
X288077Y235612D01*
X288112Y235532D01*
X288139Y235449D01*
X288167Y235410D01*
X288193Y235352D01*
X288289Y235239D01*
X288334Y235176D01*
X289533Y233977D01*
X289533Y230843D01*
X287317Y228627D01*
X284183Y228627D01*
X281967Y230843D01*
X281967Y233977D01*
X283166Y235176D01*
X283218Y235245D01*
X283278Y235309D01*
X283304Y235359D01*
X283337Y235403D01*
X283368Y235484D01*
X283408Y235562D01*
X283416Y235610D01*
X283438Y235668D01*
X283450Y235816D01*
X283463Y235893D01*
X283463Y264442D01*
X283455Y264500D01*
X283457Y264558D01*
X283435Y264640D01*
X283423Y264724D01*
X283400Y264777D01*
X283385Y264833D01*
X283342Y264906D01*
X283307Y264983D01*
X283269Y265028D01*
X283240Y265078D01*
X283178Y265136D01*
X283124Y265200D01*
X283075Y265232D01*
X283032Y265272D01*
X282957Y265311D01*
X282887Y265358D01*
X282831Y265375D01*
X282779Y265402D01*
X282711Y265413D01*
X282616Y265443D01*
X282516Y265446D01*
X282448Y265457D01*
X280542Y265457D01*
X280455Y265445D01*
X280368Y265442D01*
X280315Y265425D01*
X280260Y265417D01*
X280180Y265382D01*
X280097Y265355D01*
X280058Y265327D01*
X280001Y265301D01*
X279888Y265205D01*
X279824Y265160D01*
X275634Y260970D01*
X275582Y260900D01*
X275522Y260836D01*
X275496Y260787D01*
X275463Y260743D01*
X275432Y260661D01*
X275392Y260583D01*
X275384Y260536D01*
X275362Y260477D01*
X275350Y260330D01*
X275337Y260252D01*
X275337Y235893D01*
X275349Y235807D01*
X275352Y235719D01*
X275369Y235667D01*
X275377Y235612D01*
X275412Y235532D01*
X275439Y235449D01*
X275467Y235410D01*
X275493Y235352D01*
X275589Y235239D01*
X275634Y235176D01*
X276833Y233977D01*
X276833Y230843D01*
X274617Y228627D01*
X271483Y228627D01*
G37*
%LPD*%
%LPC*%
G36*
X423883Y401347D02*
X423883Y401347D01*
X421667Y403563D01*
X421667Y406697D01*
X423883Y408913D01*
X427017Y408913D01*
X428216Y407714D01*
X428285Y407662D01*
X428349Y407602D01*
X428399Y407576D01*
X428443Y407543D01*
X428524Y407512D01*
X428602Y407472D01*
X428650Y407464D01*
X428708Y407442D01*
X428856Y407430D01*
X428933Y407417D01*
X518779Y407417D01*
X518865Y407429D01*
X518953Y407432D01*
X519005Y407449D01*
X519060Y407457D01*
X519140Y407492D01*
X519223Y407519D01*
X519262Y407547D01*
X519320Y407573D01*
X519433Y407669D01*
X519496Y407714D01*
X520695Y408913D01*
X523829Y408913D01*
X526045Y406697D01*
X526045Y403563D01*
X523829Y401347D01*
X520695Y401347D01*
X519496Y402546D01*
X519427Y402598D01*
X519363Y402658D01*
X519313Y402684D01*
X519269Y402717D01*
X519188Y402748D01*
X519110Y402788D01*
X519062Y402796D01*
X519004Y402818D01*
X518856Y402830D01*
X518779Y402843D01*
X428933Y402843D01*
X428847Y402831D01*
X428759Y402828D01*
X428707Y402811D01*
X428652Y402803D01*
X428572Y402768D01*
X428489Y402741D01*
X428450Y402713D01*
X428392Y402687D01*
X428279Y402591D01*
X428216Y402546D01*
X427017Y401347D01*
X423883Y401347D01*
G37*
%LPD*%
%LPC*%
G36*
X381973Y49557D02*
X381973Y49557D01*
X379757Y51773D01*
X379757Y54907D01*
X380956Y56106D01*
X380975Y56131D01*
X380996Y56149D01*
X381026Y56195D01*
X381068Y56239D01*
X381094Y56289D01*
X381127Y56333D01*
X381138Y56362D01*
X381154Y56385D01*
X381171Y56439D01*
X381198Y56492D01*
X381206Y56540D01*
X381228Y56598D01*
X381231Y56629D01*
X381239Y56656D01*
X381242Y56755D01*
X381253Y56823D01*
X381253Y110772D01*
X381245Y110830D01*
X381247Y110888D01*
X381225Y110970D01*
X381213Y111054D01*
X381190Y111107D01*
X381175Y111163D01*
X381132Y111236D01*
X381097Y111313D01*
X381059Y111358D01*
X381030Y111408D01*
X380968Y111466D01*
X380914Y111530D01*
X380865Y111562D01*
X380822Y111602D01*
X380747Y111641D01*
X380677Y111688D01*
X380621Y111705D01*
X380569Y111732D01*
X380501Y111743D01*
X380406Y111773D01*
X380306Y111776D01*
X380238Y111787D01*
X378163Y111787D01*
X375947Y114003D01*
X375947Y117137D01*
X378163Y119353D01*
X381297Y119353D01*
X383513Y117137D01*
X383513Y116712D01*
X383521Y116656D01*
X383519Y116608D01*
X383526Y116581D01*
X383528Y116538D01*
X383545Y116485D01*
X383553Y116430D01*
X383584Y116360D01*
X383591Y116333D01*
X383598Y116322D01*
X383615Y116267D01*
X383643Y116228D01*
X383669Y116171D01*
X383731Y116097D01*
X383736Y116088D01*
X383748Y116078D01*
X383765Y116058D01*
X383810Y115994D01*
X385827Y113977D01*
X385827Y56823D01*
X385835Y56766D01*
X385833Y56708D01*
X385841Y56680D01*
X385842Y56649D01*
X385859Y56597D01*
X385867Y56542D01*
X385891Y56487D01*
X385905Y56433D01*
X385920Y56409D01*
X385929Y56379D01*
X385957Y56340D01*
X385983Y56282D01*
X386022Y56236D01*
X386050Y56188D01*
X386094Y56147D01*
X386124Y56106D01*
X387323Y54907D01*
X387323Y51773D01*
X385107Y49557D01*
X381973Y49557D01*
G37*
%LPD*%
%LPC*%
G36*
X509738Y19430D02*
X509738Y19430D01*
X505910Y21016D01*
X502981Y23945D01*
X501395Y27773D01*
X501395Y31917D01*
X502981Y35745D01*
X505910Y38674D01*
X509073Y39984D01*
X509102Y40001D01*
X509129Y40007D01*
X509738Y40260D01*
X513882Y40260D01*
X517710Y38674D01*
X520639Y35745D01*
X522225Y31917D01*
X522225Y27773D01*
X520639Y23945D01*
X517710Y21016D01*
X513882Y19430D01*
X509738Y19430D01*
G37*
%LPD*%
%LPC*%
G36*
X367498Y19430D02*
X367498Y19430D01*
X363670Y21016D01*
X360741Y23945D01*
X359155Y27773D01*
X359155Y31917D01*
X360741Y35745D01*
X363670Y38674D01*
X367498Y40260D01*
X371642Y40260D01*
X375470Y38674D01*
X378399Y35745D01*
X379985Y31917D01*
X379985Y27773D01*
X378399Y23945D01*
X375470Y21016D01*
X371642Y19430D01*
X367498Y19430D01*
G37*
%LPD*%
%LPC*%
G36*
X535138Y19430D02*
X535138Y19430D01*
X531310Y21016D01*
X528381Y23945D01*
X526795Y27773D01*
X526795Y31917D01*
X528381Y35745D01*
X531310Y38674D01*
X535138Y40260D01*
X539282Y40260D01*
X543110Y38674D01*
X546039Y35745D01*
X547625Y31917D01*
X547625Y27773D01*
X546039Y23945D01*
X543110Y21016D01*
X539282Y19430D01*
X535138Y19430D01*
G37*
%LPD*%
%LPC*%
G36*
X418298Y19430D02*
X418298Y19430D01*
X414470Y21016D01*
X411541Y23945D01*
X409955Y27773D01*
X409955Y31917D01*
X411541Y35745D01*
X414470Y38674D01*
X418298Y40260D01*
X422442Y40260D01*
X426270Y38674D01*
X429199Y35745D01*
X430785Y31917D01*
X430785Y27773D01*
X429199Y23945D01*
X426270Y21016D01*
X422442Y19430D01*
X418298Y19430D01*
G37*
%LPD*%
%LPC*%
G36*
X443698Y19430D02*
X443698Y19430D01*
X439870Y21016D01*
X436941Y23945D01*
X435355Y27773D01*
X435355Y31917D01*
X436941Y35745D01*
X439870Y38674D01*
X443698Y40260D01*
X447842Y40260D01*
X451670Y38674D01*
X454599Y35745D01*
X456185Y31917D01*
X456185Y27773D01*
X454599Y23945D01*
X451670Y21016D01*
X447842Y19430D01*
X443698Y19430D01*
G37*
%LPD*%
%LPC*%
G36*
X392898Y19430D02*
X392898Y19430D01*
X389070Y21016D01*
X386141Y23945D01*
X384555Y27773D01*
X384555Y31917D01*
X386141Y35745D01*
X389070Y38674D01*
X392898Y40260D01*
X397042Y40260D01*
X400870Y38674D01*
X403799Y35745D01*
X405385Y31917D01*
X405385Y27773D01*
X403799Y23945D01*
X400870Y21016D01*
X397042Y19430D01*
X392898Y19430D01*
G37*
%LPD*%
%LPC*%
G36*
X163533Y641377D02*
X163533Y641377D01*
X161317Y643593D01*
X161317Y646727D01*
X162516Y647926D01*
X162568Y647995D01*
X162628Y648059D01*
X162654Y648109D01*
X162687Y648153D01*
X162718Y648234D01*
X162758Y648312D01*
X162766Y648360D01*
X162788Y648418D01*
X162799Y648545D01*
X162799Y648547D01*
X162800Y648557D01*
X162800Y648566D01*
X162813Y648643D01*
X162813Y662653D01*
X162801Y662740D01*
X162798Y662827D01*
X162781Y662880D01*
X162773Y662934D01*
X162738Y663014D01*
X162711Y663097D01*
X162683Y663137D01*
X162679Y663144D01*
X162679Y693267D01*
X162667Y693353D01*
X162664Y693441D01*
X162647Y693493D01*
X162639Y693548D01*
X162604Y693628D01*
X162577Y693711D01*
X162549Y693751D01*
X162523Y693808D01*
X162427Y693921D01*
X162382Y693985D01*
X159407Y696960D01*
X159337Y697012D01*
X159273Y697072D01*
X159224Y697098D01*
X159179Y697131D01*
X159098Y697162D01*
X159020Y697202D01*
X158972Y697210D01*
X158914Y697232D01*
X158766Y697244D01*
X158689Y697257D01*
X157183Y697257D01*
X154967Y699473D01*
X154967Y702607D01*
X157183Y704823D01*
X160317Y704823D01*
X162533Y702607D01*
X162533Y701101D01*
X162545Y701015D01*
X162548Y700927D01*
X162565Y700875D01*
X162573Y700820D01*
X162608Y700740D01*
X162635Y700657D01*
X162663Y700617D01*
X162689Y700560D01*
X162785Y700447D01*
X162830Y700383D01*
X167521Y695693D01*
X167521Y663154D01*
X167513Y663144D01*
X167482Y663062D01*
X167442Y662984D01*
X167434Y662936D01*
X167412Y662878D01*
X167400Y662730D01*
X167387Y662653D01*
X167387Y648643D01*
X167399Y648557D01*
X167402Y648469D01*
X167419Y648417D01*
X167427Y648362D01*
X167462Y648282D01*
X167489Y648199D01*
X167517Y648160D01*
X167543Y648102D01*
X167639Y647989D01*
X167684Y647926D01*
X168883Y646727D01*
X168883Y643593D01*
X166667Y641377D01*
X163533Y641377D01*
G37*
%LPD*%
%LPC*%
G36*
X270213Y306097D02*
X270213Y306097D01*
X267997Y308313D01*
X267997Y311447D01*
X270213Y313663D01*
X273347Y313663D01*
X273762Y313248D01*
X273831Y313196D01*
X273895Y313136D01*
X273945Y313110D01*
X273989Y313077D01*
X274070Y313046D01*
X274148Y313006D01*
X274196Y312998D01*
X274254Y312976D01*
X274402Y312964D01*
X274479Y312951D01*
X313531Y312951D01*
X313617Y312963D01*
X313705Y312966D01*
X313757Y312983D01*
X313812Y312991D01*
X313892Y313026D01*
X313975Y313053D01*
X314014Y313081D01*
X314072Y313107D01*
X314185Y313203D01*
X314248Y313248D01*
X315933Y314933D01*
X319067Y314933D01*
X321283Y312717D01*
X321283Y309583D01*
X319067Y307367D01*
X318480Y307367D01*
X318394Y307355D01*
X318306Y307352D01*
X318254Y307335D01*
X318199Y307327D01*
X318119Y307292D01*
X318036Y307265D01*
X317997Y307237D01*
X317940Y307211D01*
X317826Y307115D01*
X317763Y307070D01*
X317502Y306809D01*
X274479Y306809D01*
X274393Y306797D01*
X274305Y306794D01*
X274253Y306777D01*
X274198Y306769D01*
X274118Y306734D01*
X274035Y306707D01*
X273996Y306679D01*
X273938Y306653D01*
X273825Y306557D01*
X273762Y306512D01*
X273347Y306097D01*
X270213Y306097D01*
G37*
%LPD*%
%LPC*%
G36*
X412453Y290857D02*
X412453Y290857D01*
X410237Y293073D01*
X410237Y294768D01*
X410225Y294855D01*
X410222Y294942D01*
X410205Y294995D01*
X410197Y295050D01*
X410162Y295130D01*
X410135Y295213D01*
X410107Y295252D01*
X410081Y295309D01*
X409985Y295422D01*
X409940Y295486D01*
X408290Y297136D01*
X408220Y297188D01*
X408156Y297248D01*
X408107Y297274D01*
X408063Y297307D01*
X407981Y297338D01*
X407903Y297378D01*
X407856Y297386D01*
X407797Y297408D01*
X407650Y297420D01*
X407572Y297433D01*
X387673Y297433D01*
X386036Y299070D01*
X370416Y314690D01*
X370346Y314742D01*
X370282Y314802D01*
X370233Y314828D01*
X370189Y314861D01*
X370107Y314892D01*
X370029Y314932D01*
X369982Y314940D01*
X369923Y314962D01*
X369776Y314974D01*
X369698Y314987D01*
X368003Y314987D01*
X365787Y317203D01*
X365787Y320337D01*
X368003Y322553D01*
X371137Y322553D01*
X373353Y320337D01*
X373353Y318642D01*
X373365Y318555D01*
X373368Y318468D01*
X373385Y318415D01*
X373393Y318360D01*
X373428Y318280D01*
X373455Y318197D01*
X373483Y318158D01*
X373509Y318101D01*
X373605Y317988D01*
X373650Y317924D01*
X389270Y302304D01*
X389340Y302252D01*
X389404Y302192D01*
X389453Y302166D01*
X389497Y302133D01*
X389579Y302102D01*
X389657Y302062D01*
X389704Y302054D01*
X389763Y302032D01*
X389910Y302020D01*
X389988Y302007D01*
X409887Y302007D01*
X413174Y298720D01*
X413244Y298668D01*
X413308Y298608D01*
X413357Y298582D01*
X413401Y298549D01*
X413483Y298518D01*
X413561Y298478D01*
X413608Y298470D01*
X413667Y298448D01*
X413814Y298436D01*
X413892Y298423D01*
X415587Y298423D01*
X417803Y296207D01*
X417803Y293073D01*
X415587Y290857D01*
X412453Y290857D01*
G37*
%LPD*%
%LPC*%
G36*
X479763Y240057D02*
X479763Y240057D01*
X477547Y242273D01*
X477547Y245407D01*
X478746Y246606D01*
X478798Y246675D01*
X478858Y246739D01*
X478884Y246789D01*
X478917Y246833D01*
X478948Y246914D01*
X478988Y246992D01*
X478996Y247040D01*
X479018Y247098D01*
X479030Y247246D01*
X479043Y247323D01*
X479043Y286569D01*
X479031Y286656D01*
X479028Y286743D01*
X479011Y286796D01*
X479003Y286851D01*
X478968Y286931D01*
X478941Y287014D01*
X478913Y287053D01*
X478887Y287110D01*
X478791Y287223D01*
X478746Y287287D01*
X478366Y287667D01*
X478296Y287719D01*
X478232Y287779D01*
X478183Y287805D01*
X478139Y287838D01*
X478057Y287869D01*
X477979Y287909D01*
X477932Y287917D01*
X477873Y287939D01*
X477726Y287951D01*
X477648Y287964D01*
X475953Y287964D01*
X473737Y290180D01*
X473737Y293314D01*
X475953Y295530D01*
X479087Y295530D01*
X481303Y293314D01*
X481303Y291619D01*
X481315Y291532D01*
X481318Y291445D01*
X481335Y291392D01*
X481343Y291337D01*
X481378Y291257D01*
X481405Y291174D01*
X481433Y291135D01*
X481459Y291078D01*
X481555Y290965D01*
X481600Y290901D01*
X483617Y288884D01*
X483617Y247323D01*
X483629Y247237D01*
X483632Y247149D01*
X483649Y247097D01*
X483657Y247042D01*
X483692Y246962D01*
X483719Y246879D01*
X483747Y246840D01*
X483773Y246782D01*
X483869Y246669D01*
X483914Y246606D01*
X485113Y245407D01*
X485113Y242273D01*
X482897Y240057D01*
X479763Y240057D01*
G37*
%LPD*%
%LPC*%
G36*
X59181Y656081D02*
X59181Y656081D01*
X59181Y674650D01*
X65683Y674650D01*
X77750Y662583D01*
X77750Y656081D01*
X59181Y656081D01*
G37*
%LPD*%
%LPC*%
G36*
X59181Y633450D02*
X59181Y633450D01*
X59181Y652019D01*
X77750Y652019D01*
X77750Y645517D01*
X65683Y633450D01*
X59181Y633450D01*
G37*
%LPD*%
%LPC*%
G36*
X36550Y656081D02*
X36550Y656081D01*
X36550Y662583D01*
X48617Y674650D01*
X55119Y674650D01*
X55119Y656081D01*
X36550Y656081D01*
G37*
%LPD*%
%LPC*%
G36*
X48617Y633450D02*
X48617Y633450D01*
X36550Y645517D01*
X36550Y652019D01*
X55119Y652019D01*
X55119Y633450D01*
X48617Y633450D01*
G37*
%LPD*%
%LPC*%
G36*
X196553Y424207D02*
X196553Y424207D01*
X194337Y426423D01*
X194337Y427010D01*
X194325Y427096D01*
X194322Y427184D01*
X194305Y427236D01*
X194297Y427291D01*
X194262Y427371D01*
X194235Y427454D01*
X194207Y427493D01*
X194181Y427550D01*
X194085Y427664D01*
X194040Y427727D01*
X189525Y432242D01*
X189456Y432294D01*
X189392Y432354D01*
X189342Y432380D01*
X189298Y432413D01*
X189217Y432444D01*
X189139Y432484D01*
X189091Y432492D01*
X189033Y432514D01*
X188885Y432526D01*
X188808Y432539D01*
X171609Y432539D01*
X171523Y432527D01*
X171435Y432524D01*
X171383Y432507D01*
X171328Y432499D01*
X171248Y432464D01*
X171165Y432437D01*
X171126Y432409D01*
X171068Y432383D01*
X170955Y432287D01*
X170892Y432242D01*
X170477Y431827D01*
X167343Y431827D01*
X165127Y434043D01*
X165127Y437177D01*
X167343Y439393D01*
X170477Y439393D01*
X170892Y438978D01*
X170961Y438926D01*
X171025Y438866D01*
X171075Y438840D01*
X171119Y438807D01*
X171200Y438776D01*
X171278Y438736D01*
X171326Y438728D01*
X171384Y438706D01*
X171532Y438694D01*
X171609Y438681D01*
X191772Y438681D01*
X198383Y432070D01*
X198452Y432018D01*
X198516Y431958D01*
X198566Y431932D01*
X198610Y431899D01*
X198691Y431868D01*
X198769Y431828D01*
X198817Y431820D01*
X198875Y431798D01*
X199023Y431786D01*
X199100Y431773D01*
X199687Y431773D01*
X201903Y429557D01*
X201903Y426423D01*
X199687Y424207D01*
X196553Y424207D01*
G37*
%LPD*%
%LPC*%
G36*
X227033Y80037D02*
X227033Y80037D01*
X224817Y82253D01*
X224817Y85387D01*
X225232Y85802D01*
X225284Y85871D01*
X225344Y85935D01*
X225370Y85985D01*
X225403Y86029D01*
X225434Y86110D01*
X225474Y86188D01*
X225482Y86236D01*
X225504Y86294D01*
X225516Y86442D01*
X225529Y86519D01*
X225529Y99908D01*
X225517Y99994D01*
X225514Y100082D01*
X225497Y100134D01*
X225489Y100189D01*
X225454Y100269D01*
X225427Y100352D01*
X225399Y100391D01*
X225373Y100448D01*
X225277Y100562D01*
X225232Y100625D01*
X218177Y107680D01*
X218108Y107732D01*
X218044Y107792D01*
X217994Y107818D01*
X217950Y107851D01*
X217869Y107882D01*
X217791Y107922D01*
X217743Y107930D01*
X217685Y107952D01*
X217537Y107964D01*
X217460Y107977D01*
X216873Y107977D01*
X214657Y110193D01*
X214657Y113327D01*
X216873Y115543D01*
X220007Y115543D01*
X222223Y113327D01*
X222223Y112740D01*
X222235Y112654D01*
X222238Y112566D01*
X222255Y112514D01*
X222263Y112459D01*
X222298Y112379D01*
X222325Y112296D01*
X222353Y112257D01*
X222379Y112200D01*
X222475Y112086D01*
X222520Y112023D01*
X231671Y102872D01*
X231671Y86519D01*
X231683Y86433D01*
X231686Y86345D01*
X231703Y86293D01*
X231711Y86238D01*
X231746Y86158D01*
X231773Y86075D01*
X231801Y86036D01*
X231827Y85978D01*
X231923Y85865D01*
X231968Y85802D01*
X232383Y85387D01*
X232383Y82253D01*
X230167Y80037D01*
X227033Y80037D01*
G37*
%LPD*%
%LPC*%
G36*
X554693Y501677D02*
X554693Y501677D01*
X552477Y503893D01*
X552477Y505399D01*
X552465Y505485D01*
X552462Y505573D01*
X552445Y505625D01*
X552437Y505680D01*
X552402Y505760D01*
X552375Y505843D01*
X552347Y505883D01*
X552321Y505940D01*
X552225Y506053D01*
X552180Y506117D01*
X549205Y509092D01*
X549135Y509144D01*
X549071Y509204D01*
X549022Y509230D01*
X548977Y509263D01*
X548896Y509294D01*
X548818Y509334D01*
X548770Y509342D01*
X548712Y509364D01*
X548564Y509376D01*
X548487Y509389D01*
X529129Y509389D01*
X529043Y509377D01*
X528955Y509374D01*
X528903Y509357D01*
X528848Y509349D01*
X528768Y509314D01*
X528685Y509287D01*
X528645Y509259D01*
X528588Y509233D01*
X528475Y509137D01*
X528411Y509092D01*
X527347Y508027D01*
X524213Y508027D01*
X521997Y510243D01*
X521997Y513377D01*
X524213Y515593D01*
X527347Y515593D01*
X528411Y514528D01*
X528481Y514476D01*
X528545Y514416D01*
X528594Y514390D01*
X528639Y514357D01*
X528720Y514326D01*
X528798Y514286D01*
X528846Y514278D01*
X528904Y514256D01*
X529052Y514244D01*
X529129Y514231D01*
X550913Y514231D01*
X555603Y509540D01*
X555673Y509488D01*
X555737Y509428D01*
X555786Y509402D01*
X555831Y509369D01*
X555912Y509338D01*
X555990Y509298D01*
X556038Y509290D01*
X556096Y509268D01*
X556244Y509256D01*
X556321Y509243D01*
X557827Y509243D01*
X560043Y507027D01*
X560043Y503893D01*
X557827Y501677D01*
X554693Y501677D01*
G37*
%LPD*%
%LPC*%
G36*
X520403Y535967D02*
X520403Y535967D01*
X518187Y538183D01*
X518187Y541317D01*
X520403Y543533D01*
X523537Y543533D01*
X524602Y542468D01*
X524671Y542416D01*
X524735Y542356D01*
X524785Y542330D01*
X524829Y542297D01*
X524910Y542266D01*
X524988Y542226D01*
X525036Y542218D01*
X525094Y542196D01*
X525242Y542184D01*
X525319Y542171D01*
X545291Y542171D01*
X545377Y542183D01*
X545465Y542186D01*
X545517Y542203D01*
X545572Y542211D01*
X545652Y542246D01*
X545735Y542273D01*
X545774Y542301D01*
X545832Y542327D01*
X545945Y542423D01*
X546008Y542468D01*
X547073Y543533D01*
X550207Y543533D01*
X552423Y541317D01*
X552423Y538183D01*
X550207Y535967D01*
X547073Y535967D01*
X546008Y537032D01*
X545939Y537084D01*
X545875Y537144D01*
X545825Y537170D01*
X545781Y537203D01*
X545700Y537234D01*
X545622Y537274D01*
X545574Y537282D01*
X545516Y537304D01*
X545368Y537316D01*
X545291Y537329D01*
X525319Y537329D01*
X525233Y537317D01*
X525145Y537314D01*
X525093Y537297D01*
X525038Y537289D01*
X524958Y537254D01*
X524875Y537227D01*
X524836Y537199D01*
X524778Y537173D01*
X524665Y537077D01*
X524602Y537032D01*
X523537Y535967D01*
X520403Y535967D01*
G37*
%LPD*%
%LPC*%
G36*
X461983Y565177D02*
X461983Y565177D01*
X459767Y567393D01*
X459767Y567980D01*
X459755Y568066D01*
X459752Y568154D01*
X459735Y568206D01*
X459727Y568261D01*
X459692Y568341D01*
X459665Y568424D01*
X459637Y568463D01*
X459611Y568520D01*
X459515Y568634D01*
X459470Y568697D01*
X449317Y578850D01*
X449248Y578902D01*
X449184Y578962D01*
X449134Y578988D01*
X449090Y579021D01*
X449009Y579052D01*
X448931Y579092D01*
X448883Y579100D01*
X448825Y579122D01*
X448677Y579134D01*
X448600Y579147D01*
X448013Y579147D01*
X445797Y581363D01*
X445797Y584497D01*
X448013Y586713D01*
X451147Y586713D01*
X453363Y584497D01*
X453363Y583910D01*
X453375Y583824D01*
X453378Y583736D01*
X453395Y583684D01*
X453403Y583629D01*
X453438Y583549D01*
X453465Y583466D01*
X453493Y583427D01*
X453519Y583370D01*
X453615Y583256D01*
X453660Y583193D01*
X463813Y573040D01*
X463882Y572988D01*
X463946Y572928D01*
X463996Y572902D01*
X464040Y572869D01*
X464121Y572838D01*
X464199Y572798D01*
X464247Y572790D01*
X464305Y572768D01*
X464453Y572756D01*
X464530Y572743D01*
X465117Y572743D01*
X467333Y570527D01*
X467333Y567393D01*
X465117Y565177D01*
X461983Y565177D01*
G37*
%LPD*%
%LPC*%
G36*
X223223Y241327D02*
X223223Y241327D01*
X221007Y243543D01*
X221007Y246677D01*
X222206Y247876D01*
X222258Y247945D01*
X222318Y248009D01*
X222344Y248059D01*
X222377Y248103D01*
X222408Y248184D01*
X222448Y248262D01*
X222456Y248310D01*
X222478Y248368D01*
X222490Y248516D01*
X222503Y248593D01*
X222503Y263172D01*
X222495Y263230D01*
X222497Y263288D01*
X222475Y263370D01*
X222463Y263454D01*
X222440Y263507D01*
X222425Y263563D01*
X222382Y263636D01*
X222347Y263713D01*
X222309Y263758D01*
X222280Y263808D01*
X222218Y263866D01*
X222164Y263930D01*
X222115Y263962D01*
X222072Y264002D01*
X221997Y264041D01*
X221927Y264088D01*
X221871Y264105D01*
X221819Y264132D01*
X221751Y264143D01*
X221656Y264173D01*
X221556Y264176D01*
X221488Y264187D01*
X220683Y264187D01*
X218467Y266403D01*
X218467Y269537D01*
X220683Y271753D01*
X223817Y271753D01*
X226033Y269537D01*
X226033Y267842D01*
X226045Y267755D01*
X226048Y267668D01*
X226065Y267615D01*
X226073Y267560D01*
X226108Y267480D01*
X226135Y267397D01*
X226163Y267358D01*
X226189Y267301D01*
X226285Y267188D01*
X226330Y267124D01*
X227077Y266377D01*
X227077Y248593D01*
X227089Y248507D01*
X227092Y248419D01*
X227109Y248367D01*
X227117Y248312D01*
X227152Y248232D01*
X227179Y248149D01*
X227207Y248110D01*
X227233Y248052D01*
X227329Y247939D01*
X227374Y247876D01*
X228573Y246677D01*
X228573Y243543D01*
X226357Y241327D01*
X223223Y241327D01*
G37*
%LPD*%
%LPC*%
G36*
X526753Y321337D02*
X526753Y321337D01*
X526338Y321752D01*
X526269Y321804D01*
X526205Y321864D01*
X526155Y321890D01*
X526111Y321923D01*
X526030Y321954D01*
X525952Y321994D01*
X525904Y322002D01*
X525846Y322024D01*
X525698Y322036D01*
X525621Y322049D01*
X518158Y322049D01*
X514087Y326120D01*
X514018Y326172D01*
X513954Y326232D01*
X513904Y326258D01*
X513860Y326291D01*
X513779Y326322D01*
X513701Y326362D01*
X513653Y326370D01*
X513595Y326392D01*
X513447Y326404D01*
X513370Y326417D01*
X512783Y326417D01*
X510567Y328633D01*
X510567Y331767D01*
X512783Y333983D01*
X515917Y333983D01*
X518133Y331767D01*
X518133Y331180D01*
X518145Y331094D01*
X518148Y331006D01*
X518165Y330954D01*
X518173Y330899D01*
X518208Y330819D01*
X518235Y330736D01*
X518263Y330697D01*
X518289Y330640D01*
X518385Y330526D01*
X518430Y330463D01*
X520405Y328488D01*
X520474Y328436D01*
X520538Y328376D01*
X520588Y328350D01*
X520632Y328317D01*
X520713Y328286D01*
X520791Y328246D01*
X520839Y328238D01*
X520897Y328216D01*
X521045Y328204D01*
X521122Y328191D01*
X525621Y328191D01*
X525707Y328203D01*
X525795Y328206D01*
X525847Y328223D01*
X525902Y328231D01*
X525982Y328266D01*
X526065Y328293D01*
X526104Y328321D01*
X526162Y328347D01*
X526275Y328443D01*
X526338Y328488D01*
X526753Y328903D01*
X529887Y328903D01*
X532103Y326687D01*
X532103Y323553D01*
X529887Y321337D01*
X526753Y321337D01*
G37*
%LPD*%
%LPC*%
G36*
X195283Y135917D02*
X195283Y135917D01*
X193067Y138133D01*
X193067Y141267D01*
X193482Y141682D01*
X193534Y141751D01*
X193594Y141815D01*
X193620Y141865D01*
X193653Y141909D01*
X193684Y141990D01*
X193724Y142068D01*
X193732Y142116D01*
X193754Y142174D01*
X193766Y142322D01*
X193779Y142399D01*
X193779Y152241D01*
X193767Y152327D01*
X193764Y152415D01*
X193747Y152467D01*
X193739Y152522D01*
X193704Y152602D01*
X193677Y152685D01*
X193649Y152724D01*
X193623Y152782D01*
X193562Y152854D01*
X193538Y152894D01*
X193508Y152922D01*
X193482Y152958D01*
X193067Y153373D01*
X193067Y156507D01*
X195283Y158723D01*
X198417Y158723D01*
X200633Y156507D01*
X200633Y153373D01*
X200218Y152958D01*
X200206Y152942D01*
X200195Y152933D01*
X200165Y152888D01*
X200106Y152825D01*
X200080Y152775D01*
X200047Y152731D01*
X200016Y152650D01*
X199976Y152572D01*
X199968Y152524D01*
X199946Y152466D01*
X199934Y152318D01*
X199921Y152241D01*
X199921Y142399D01*
X199933Y142313D01*
X199936Y142225D01*
X199953Y142173D01*
X199961Y142118D01*
X199996Y142038D01*
X200023Y141955D01*
X200051Y141916D01*
X200077Y141858D01*
X200173Y141745D01*
X200218Y141682D01*
X200633Y141267D01*
X200633Y138133D01*
X198417Y135917D01*
X195283Y135917D01*
G37*
%LPD*%
%LPC*%
G36*
X238463Y685827D02*
X238463Y685827D01*
X236247Y688043D01*
X236247Y691177D01*
X237312Y692242D01*
X237364Y692311D01*
X237424Y692375D01*
X237450Y692425D01*
X237483Y692469D01*
X237514Y692550D01*
X237554Y692628D01*
X237562Y692676D01*
X237584Y692734D01*
X237596Y692882D01*
X237609Y692959D01*
X237609Y702771D01*
X237597Y702857D01*
X237594Y702945D01*
X237577Y702997D01*
X237569Y703052D01*
X237534Y703132D01*
X237507Y703215D01*
X237479Y703254D01*
X237453Y703312D01*
X237357Y703425D01*
X237312Y703488D01*
X236247Y704553D01*
X236247Y707687D01*
X238463Y709903D01*
X241597Y709903D01*
X243813Y707687D01*
X243813Y704553D01*
X242748Y703488D01*
X242696Y703419D01*
X242636Y703355D01*
X242610Y703305D01*
X242577Y703261D01*
X242546Y703180D01*
X242506Y703102D01*
X242498Y703054D01*
X242476Y702996D01*
X242464Y702848D01*
X242451Y702771D01*
X242451Y692959D01*
X242463Y692873D01*
X242466Y692785D01*
X242483Y692733D01*
X242491Y692678D01*
X242526Y692598D01*
X242553Y692515D01*
X242581Y692476D01*
X242607Y692418D01*
X242703Y692305D01*
X242748Y692242D01*
X243813Y691177D01*
X243813Y688043D01*
X241597Y685827D01*
X238463Y685827D01*
G37*
%LPD*%
%LPC*%
G36*
X346201Y31876D02*
X346201Y31876D01*
X346201Y41354D01*
X346906Y41242D01*
X348655Y40674D01*
X350294Y39839D01*
X351782Y38758D01*
X353083Y37457D01*
X354164Y35969D01*
X354999Y34330D01*
X355567Y32581D01*
X355679Y31876D01*
X346201Y31876D01*
G37*
%LPD*%
%LPC*%
G36*
X488441Y31876D02*
X488441Y31876D01*
X488441Y41354D01*
X489146Y41242D01*
X490895Y40674D01*
X492534Y39839D01*
X494022Y38758D01*
X495323Y37457D01*
X496404Y35969D01*
X497239Y34330D01*
X497807Y32581D01*
X497919Y31876D01*
X488441Y31876D01*
G37*
%LPD*%
%LPC*%
G36*
X332661Y31876D02*
X332661Y31876D01*
X332773Y32581D01*
X333341Y34330D01*
X334176Y35969D01*
X335257Y37457D01*
X336558Y38758D01*
X338046Y39839D01*
X339685Y40674D01*
X341434Y41242D01*
X342139Y41354D01*
X342139Y31876D01*
X332661Y31876D01*
G37*
%LPD*%
%LPC*%
G36*
X488441Y27814D02*
X488441Y27814D01*
X497919Y27814D01*
X497807Y27109D01*
X497239Y25360D01*
X496404Y23721D01*
X495323Y22233D01*
X494022Y20932D01*
X492534Y19851D01*
X490895Y19016D01*
X489146Y18448D01*
X488441Y18336D01*
X488441Y27814D01*
G37*
%LPD*%
%LPC*%
G36*
X474901Y31876D02*
X474901Y31876D01*
X475013Y32581D01*
X475581Y34330D01*
X476416Y35969D01*
X477497Y37457D01*
X478798Y38758D01*
X480286Y39839D01*
X481925Y40674D01*
X483674Y41242D01*
X484379Y41354D01*
X484379Y31876D01*
X474901Y31876D01*
G37*
%LPD*%
%LPC*%
G36*
X346201Y27814D02*
X346201Y27814D01*
X355679Y27814D01*
X355567Y27109D01*
X354999Y25360D01*
X354164Y23721D01*
X353083Y22233D01*
X351782Y20932D01*
X350294Y19851D01*
X348655Y19016D01*
X346906Y18448D01*
X346201Y18336D01*
X346201Y27814D01*
G37*
%LPD*%
%LPC*%
G36*
X483674Y18448D02*
X483674Y18448D01*
X481925Y19016D01*
X480286Y19851D01*
X478798Y20932D01*
X477497Y22233D01*
X476416Y23721D01*
X475581Y25360D01*
X475013Y27109D01*
X474901Y27814D01*
X484379Y27814D01*
X484379Y18336D01*
X483674Y18448D01*
G37*
%LPD*%
%LPC*%
G36*
X341434Y18448D02*
X341434Y18448D01*
X339685Y19016D01*
X338046Y19851D01*
X336558Y20932D01*
X335257Y22233D01*
X334176Y23721D01*
X333341Y25360D01*
X332773Y27109D01*
X332661Y27814D01*
X342139Y27814D01*
X342139Y18336D01*
X341434Y18448D01*
G37*
%LPD*%
%LPC*%
G36*
X25995Y498855D02*
X25995Y498855D01*
X25995Y504857D01*
X27045Y504649D01*
X28334Y504115D01*
X29494Y503340D01*
X29762Y503072D01*
X29809Y503036D01*
X29849Y502994D01*
X29922Y502951D01*
X29989Y502901D01*
X30044Y502880D01*
X30094Y502850D01*
X30176Y502830D01*
X30255Y502799D01*
X30313Y502795D01*
X30370Y502780D01*
X30454Y502783D01*
X30538Y502776D01*
X30596Y502787D01*
X30654Y502789D01*
X30734Y502815D01*
X30817Y502832D01*
X30869Y502859D01*
X30925Y502877D01*
X30981Y502917D01*
X31069Y502963D01*
X31142Y503032D01*
X31198Y503072D01*
X31466Y503340D01*
X32626Y504115D01*
X33915Y504649D01*
X34965Y504857D01*
X34965Y498855D01*
X25995Y498855D01*
G37*
%LPD*%
%LPC*%
G36*
X25995Y496825D02*
X25995Y496825D01*
X34965Y496825D01*
X34965Y490823D01*
X33915Y491031D01*
X32626Y491565D01*
X31466Y492340D01*
X31198Y492608D01*
X31151Y492644D01*
X31111Y492686D01*
X31038Y492729D01*
X30971Y492779D01*
X30916Y492800D01*
X30866Y492830D01*
X30784Y492851D01*
X30705Y492881D01*
X30647Y492885D01*
X30590Y492900D01*
X30506Y492897D01*
X30422Y492904D01*
X30364Y492893D01*
X30306Y492891D01*
X30226Y492865D01*
X30143Y492848D01*
X30091Y492821D01*
X30035Y492803D01*
X29979Y492763D01*
X29891Y492717D01*
X29818Y492648D01*
X29762Y492608D01*
X29494Y492340D01*
X28334Y491565D01*
X27045Y491031D01*
X25995Y490823D01*
X25995Y496825D01*
G37*
%LPD*%
%LPC*%
G36*
X36995Y498855D02*
X36995Y498855D01*
X36995Y504857D01*
X38045Y504649D01*
X39334Y504115D01*
X40494Y503340D01*
X41480Y502354D01*
X42255Y501194D01*
X42789Y499905D01*
X42997Y498855D01*
X36995Y498855D01*
G37*
%LPD*%
%LPC*%
G36*
X17963Y498855D02*
X17963Y498855D01*
X18171Y499905D01*
X18705Y501194D01*
X19480Y502354D01*
X20466Y503340D01*
X21626Y504115D01*
X22915Y504649D01*
X23965Y504857D01*
X23965Y498855D01*
X17963Y498855D01*
G37*
%LPD*%
%LPC*%
G36*
X36995Y496825D02*
X36995Y496825D01*
X42997Y496825D01*
X42789Y495775D01*
X42255Y494486D01*
X41480Y493326D01*
X40494Y492340D01*
X39334Y491565D01*
X38045Y491031D01*
X36995Y490823D01*
X36995Y496825D01*
G37*
%LPD*%
%LPC*%
G36*
X22915Y491031D02*
X22915Y491031D01*
X21626Y491565D01*
X20466Y492340D01*
X19480Y493326D01*
X18705Y494486D01*
X18171Y495775D01*
X17963Y496825D01*
X23965Y496825D01*
X23965Y490823D01*
X22915Y491031D01*
G37*
%LPD*%
%LPC*%
G36*
X57149Y654049D02*
X57149Y654049D01*
X57149Y654051D01*
X57151Y654051D01*
X57151Y654049D01*
X57149Y654049D01*
G37*
%LPD*%
%LPC*%
G36*
X486409Y29844D02*
X486409Y29844D01*
X486409Y29846D01*
X486411Y29846D01*
X486411Y29844D01*
X486409Y29844D01*
G37*
%LPD*%
%LPC*%
G36*
X344169Y29844D02*
X344169Y29844D01*
X344169Y29846D01*
X344171Y29846D01*
X344171Y29844D01*
X344169Y29844D01*
G37*
%LPD*%
D10*
X24980Y497840D03*
X35980Y497840D03*
D11*
X394970Y29845D03*
X420370Y29845D03*
X445770Y29845D03*
X369570Y29845D03*
X344170Y29845D03*
X486410Y29845D03*
X511810Y29845D03*
X537210Y29845D03*
D12*
X57150Y654050D03*
D13*
X158750Y701040D02*
X165100Y694690D01*
X165100Y664210D01*
D14*
X158750Y701040D03*
X165100Y645160D03*
D15*
X165100Y664210D01*
D14*
X240030Y689610D03*
D13*
X240030Y706120D01*
D14*
X240030Y706120D03*
D15*
X146050Y271780D02*
X142240Y267970D01*
D14*
X142240Y267970D03*
X196850Y257810D03*
D15*
X196850Y258245D01*
X183315Y271780D01*
X146050Y271780D01*
D14*
X196850Y139700D03*
D16*
X196850Y154940D01*
D14*
X196850Y154940D03*
X189230Y199390D03*
D15*
X185420Y195580D01*
X170180Y195580D01*
X161290Y204470D01*
D14*
X161290Y204470D03*
X241300Y245110D03*
D15*
X208715Y199390D02*
X189230Y199390D01*
X237490Y241300D02*
X241300Y245110D01*
X237490Y241300D02*
X237490Y203200D01*
X233680Y199390D01*
X208715Y199390D01*
D14*
X190500Y193040D03*
X242288Y200660D03*
D15*
X237208Y195580D01*
X193040Y195580D02*
X190500Y193040D01*
X193040Y195580D02*
X237208Y195580D01*
D14*
X123190Y279400D03*
D16*
X154666Y279400D01*
X157708Y282442D01*
D14*
X172720Y281940D03*
D16*
X172218Y282442D01*
X157708Y282442D01*
D14*
X228600Y83820D03*
D16*
X228600Y101600D01*
X218440Y111760D01*
D14*
X218440Y111760D03*
X120650Y287020D03*
D16*
X137160Y287020D01*
X138430Y285750D01*
D14*
X138430Y285750D03*
X160020Y246380D03*
X214848Y240248D03*
D15*
X171315Y238895D02*
X167505Y238895D01*
X160020Y246380D01*
X176248Y233962D02*
X208562Y233962D01*
X176248Y233962D02*
X171315Y238895D01*
X208562Y233962D02*
X214848Y240248D01*
D14*
X171450Y243840D03*
D15*
X172720Y242570D01*
X184150Y242570D01*
X187960Y238760D02*
X199390Y238760D01*
D14*
X199390Y238760D03*
D15*
X187960Y238760D02*
X184150Y242570D01*
D14*
X170597Y232827D03*
D15*
X174825Y228600D01*
X200225Y228600D01*
X210820Y218005D01*
D14*
X210820Y208280D03*
D15*
X210820Y218005D01*
D14*
X166370Y227330D03*
D15*
X170180Y223520D01*
D14*
X194310Y220980D03*
D15*
X191770Y223520D01*
X170180Y223520D01*
D14*
X237490Y640080D03*
D16*
X199390Y640080D01*
X185420Y626110D01*
D14*
X185420Y626110D03*
X556260Y347980D03*
X425450Y405130D03*
D15*
X522262Y405130D01*
D14*
X522262Y405130D03*
X544830Y229870D03*
D15*
X556260Y241300D01*
X556260Y347980D01*
D14*
X496570Y293370D03*
D15*
X496570Y252730D01*
D14*
X496570Y252730D03*
X506730Y124460D03*
X506730Y45720D03*
D15*
X506730Y124460D01*
D14*
X224790Y245110D03*
D15*
X224790Y265430D01*
X222250Y267970D01*
D14*
X222250Y267970D03*
X171450Y252730D03*
X379730Y115570D03*
D15*
X381000Y115570D01*
X383540Y113030D01*
X201138Y252730D02*
X171450Y252730D01*
D14*
X208280Y245588D03*
D15*
X201138Y252730D01*
X383540Y113030D02*
X383540Y53340D01*
D14*
X383540Y53340D03*
X162560Y182880D03*
X243840Y186690D03*
D15*
X177930Y186690D01*
X174425Y183185D01*
X162865Y183185D01*
X162560Y182880D01*
D14*
X477520Y291747D03*
D15*
X481330Y287937D01*
X481330Y243840D01*
D14*
X481330Y243840D03*
D15*
X166370Y260350D02*
X160020Y254000D01*
D14*
X160020Y254000D03*
X187960Y260350D03*
D15*
X166370Y260350D01*
D14*
X171450Y214128D03*
X100330Y214630D03*
D16*
X100832Y214128D01*
X171450Y214128D01*
D14*
X168910Y435610D03*
D16*
X190500Y435610D01*
X198120Y427990D01*
D14*
X198120Y427990D03*
X160020Y220980D03*
D15*
X140970Y240030D02*
X140970Y256540D01*
X149860Y265430D01*
X167640Y265430D01*
D14*
X167640Y265430D03*
D15*
X140970Y240030D02*
X160020Y220980D01*
D14*
X317500Y311150D03*
D16*
X316230Y309880D01*
X271780Y309880D01*
D14*
X271780Y309880D03*
X449580Y582930D03*
D16*
X463550Y568960D01*
D14*
X463550Y568960D03*
X521970Y539750D03*
D13*
X548640Y539750D01*
D14*
X548640Y539750D03*
X567690Y314960D03*
D15*
X567690Y257810D01*
D14*
X567690Y257810D03*
D15*
X565150Y137160D02*
X565150Y81280D01*
D14*
X565150Y81280D03*
X565150Y137160D03*
X525780Y511810D03*
D13*
X549910Y511810D01*
X556260Y505460D01*
D14*
X556260Y505460D03*
X562610Y299720D03*
D15*
X562610Y264160D01*
D14*
X562610Y264160D03*
X557530Y154940D03*
D15*
X557530Y81280D01*
D14*
X557530Y81280D03*
X198443Y681043D03*
X303530Y636270D03*
X360680Y637540D03*
X422910Y556260D03*
X424180Y579120D03*
X520700Y548640D03*
X562610Y643890D03*
X527050Y645160D03*
X490220Y645160D03*
X543560Y580390D03*
X309880Y38100D03*
X247650Y52070D03*
X247650Y130810D03*
X119380Y127000D03*
X26670Y30480D03*
X67310Y146050D03*
X172438Y187983D03*
X158750Y193040D03*
X137577Y259933D03*
X139187Y273818D03*
X185420Y354330D03*
X82550Y341630D03*
X85090Y401320D03*
X105410Y386080D03*
X109220Y417830D03*
X149860Y447040D03*
X261620Y422910D03*
X257810Y468630D03*
X62230Y463550D03*
X33020Y479425D03*
X128270Y464820D03*
X345355Y372110D03*
X345440Y468630D03*
X414020Y454660D03*
X424180Y527050D03*
X330200Y680720D03*
X293370Y730250D03*
X231140Y754380D03*
X170180Y755650D03*
X139700Y754380D03*
X52070Y744220D03*
X133350Y661670D03*
X123190Y623570D03*
X170180Y411480D03*
X234950Y417062D03*
X210683Y406263D03*
X300990Y675640D03*
X238760Y647772D03*
X336550Y680720D03*
X458470Y704850D03*
X412750Y354330D03*
X388620Y293370D03*
X304800Y292100D03*
X544830Y355600D03*
X572488Y303530D03*
X518160Y204470D03*
X488950Y231140D03*
X490220Y179070D03*
X461010Y204470D03*
X572770Y87630D03*
D15*
X388620Y299720D02*
X369570Y318770D01*
D14*
X369570Y318770D03*
D15*
X488950Y293442D02*
X491490Y290902D01*
X491490Y243840D01*
D14*
X491490Y243840D03*
X488950Y293442D03*
D15*
X414020Y294640D02*
X408940Y299720D01*
D14*
X414020Y294640D03*
D15*
X408940Y299720D02*
X388620Y299720D01*
D14*
X500380Y118110D03*
D15*
X500380Y49530D01*
X496570Y45720D01*
D14*
X496570Y45720D03*
X505460Y293370D03*
D15*
X505460Y251460D01*
D14*
X505460Y251460D03*
X511810Y116840D03*
D15*
X511810Y53340D01*
D14*
X511810Y53340D03*
X313690Y513080D03*
D16*
X316230Y510540D01*
D14*
X372110Y510540D03*
D16*
X320040Y510540D02*
X316230Y510540D01*
X320040Y510540D02*
X325120Y510540D01*
X372110Y510540D01*
X325120Y510540D02*
X322580Y513080D01*
X322580Y537210D01*
D14*
X322580Y537210D03*
D16*
X322580Y513080D02*
X320040Y510540D01*
D14*
X514350Y330200D03*
X528320Y325120D03*
D16*
X519430Y325120D02*
X514350Y330200D01*
X519430Y325120D02*
X528320Y325120D01*
D14*
X280670Y269240D03*
D15*
X273050Y261620D01*
X273050Y245110D01*
D14*
X273050Y232410D03*
D15*
X273050Y245110D01*
D14*
X285750Y281940D03*
D15*
X285750Y232410D01*
D14*
X285750Y232410D03*
X201930Y656590D03*
X201930Y646430D03*
X208280Y651510D03*
X214630Y656590D03*
X214630Y646430D03*
M02*
