G04 EAGLE Gerber RS-274X export*
G75*
%MOMM*%
%FSLAX34Y34*%
%LPD*%
%INBottom Copper*%
%IPPOS*%
%AMOC8*
5,1,8,0,0,1.08239X$1,22.5*%
G01*
%ADD10C,1.700000*%
%ADD11R,1.600000X1.600000*%
%ADD12C,1.524000*%
%ADD13P,1.429621X8X112.500000*%
%ADD14P,1.429621X8X292.500000*%
%ADD15C,1.676400*%
%ADD16C,1.320800*%
%ADD17C,2.184400*%
%ADD18P,1.649562X8X292.500000*%
%ADD19P,1.429621X8X22.500000*%
%ADD20C,1.524000*%
%ADD21C,1.320800*%
%ADD22P,2.749271X8X22.500000*%
%ADD23R,1.890000X1.890000*%
%ADD24C,1.890000*%
%ADD25P,1.429621X8X202.500000*%
%ADD26C,0.203200*%
%ADD27C,0.756400*%
%ADD28C,0.508000*%

G36*
X610788Y111776D02*
X610788Y111776D01*
X610907Y111783D01*
X610945Y111796D01*
X610986Y111801D01*
X611096Y111844D01*
X611209Y111881D01*
X611244Y111903D01*
X611281Y111918D01*
X611377Y111987D01*
X611478Y112051D01*
X611506Y112081D01*
X611539Y112104D01*
X611615Y112196D01*
X611696Y112283D01*
X611716Y112318D01*
X611741Y112349D01*
X611792Y112457D01*
X611850Y112561D01*
X611860Y112601D01*
X611877Y112637D01*
X611899Y112754D01*
X611929Y112869D01*
X611933Y112929D01*
X611937Y112949D01*
X611935Y112970D01*
X611939Y113030D01*
X611939Y992380D01*
X611924Y992498D01*
X611917Y992617D01*
X611904Y992655D01*
X611899Y992696D01*
X611856Y992806D01*
X611819Y992919D01*
X611797Y992954D01*
X611782Y992991D01*
X611713Y993087D01*
X611649Y993188D01*
X611619Y993216D01*
X611596Y993249D01*
X611504Y993325D01*
X611417Y993406D01*
X611382Y993426D01*
X611351Y993451D01*
X611243Y993502D01*
X611139Y993560D01*
X611099Y993570D01*
X611063Y993587D01*
X610946Y993609D01*
X610831Y993639D01*
X610771Y993643D01*
X610751Y993647D01*
X610730Y993645D01*
X610670Y993649D01*
X-1270Y993649D01*
X-1388Y993634D01*
X-1507Y993627D01*
X-1545Y993614D01*
X-1586Y993609D01*
X-1696Y993566D01*
X-1809Y993529D01*
X-1844Y993507D01*
X-1881Y993492D01*
X-1977Y993423D01*
X-2078Y993359D01*
X-2106Y993329D01*
X-2139Y993306D01*
X-2215Y993214D01*
X-2296Y993127D01*
X-2316Y993092D01*
X-2341Y993061D01*
X-2392Y992953D01*
X-2450Y992849D01*
X-2460Y992809D01*
X-2477Y992773D01*
X-2499Y992656D01*
X-2529Y992541D01*
X-2533Y992481D01*
X-2537Y992461D01*
X-2535Y992440D01*
X-2539Y992380D01*
X-2539Y113030D01*
X-2524Y112912D01*
X-2517Y112793D01*
X-2504Y112755D01*
X-2499Y112714D01*
X-2456Y112604D01*
X-2419Y112491D01*
X-2397Y112456D01*
X-2382Y112419D01*
X-2313Y112323D01*
X-2249Y112222D01*
X-2219Y112194D01*
X-2196Y112161D01*
X-2104Y112085D01*
X-2017Y112004D01*
X-1982Y111984D01*
X-1951Y111959D01*
X-1843Y111908D01*
X-1739Y111850D01*
X-1699Y111840D01*
X-1663Y111823D01*
X-1546Y111801D01*
X-1431Y111771D01*
X-1371Y111767D01*
X-1351Y111763D01*
X-1330Y111765D01*
X-1270Y111761D01*
X610670Y111761D01*
X610788Y111776D01*
G37*
%LPC*%
G36*
X470624Y170941D02*
X470624Y170941D01*
X466329Y172720D01*
X463042Y176007D01*
X461263Y180302D01*
X461263Y184950D01*
X463042Y189245D01*
X466329Y192532D01*
X470624Y194311D01*
X474218Y194311D01*
X474336Y194326D01*
X474455Y194333D01*
X474493Y194346D01*
X474534Y194351D01*
X474644Y194394D01*
X474757Y194431D01*
X474792Y194453D01*
X474829Y194468D01*
X474925Y194537D01*
X475026Y194601D01*
X475054Y194631D01*
X475087Y194654D01*
X475163Y194746D01*
X475244Y194833D01*
X475264Y194868D01*
X475289Y194899D01*
X475340Y195007D01*
X475398Y195111D01*
X475408Y195151D01*
X475425Y195187D01*
X475447Y195304D01*
X475477Y195419D01*
X475481Y195479D01*
X475485Y195499D01*
X475483Y195520D01*
X475487Y195580D01*
X475487Y253515D01*
X475481Y253564D01*
X475483Y253614D01*
X475461Y253721D01*
X475447Y253830D01*
X475429Y253877D01*
X475419Y253925D01*
X475371Y254024D01*
X475330Y254126D01*
X475301Y254166D01*
X475279Y254211D01*
X475208Y254294D01*
X475144Y254383D01*
X475105Y254415D01*
X475073Y254453D01*
X474983Y254516D01*
X474899Y254586D01*
X474854Y254607D01*
X474813Y254636D01*
X474710Y254675D01*
X474611Y254722D01*
X474562Y254731D01*
X474516Y254749D01*
X474406Y254761D01*
X474299Y254781D01*
X474249Y254778D01*
X474200Y254784D01*
X474091Y254769D01*
X473981Y254762D01*
X473934Y254746D01*
X473885Y254739D01*
X473732Y254687D01*
X472399Y254135D01*
X467401Y254135D01*
X462783Y256048D01*
X459248Y259583D01*
X458373Y261696D01*
X458304Y261817D01*
X458239Y261940D01*
X458225Y261955D01*
X458215Y261973D01*
X458118Y262073D01*
X458025Y262175D01*
X458008Y262186D01*
X457994Y262201D01*
X457875Y262274D01*
X457759Y262350D01*
X457740Y262357D01*
X457723Y262367D01*
X457590Y262408D01*
X457458Y262453D01*
X457438Y262455D01*
X457419Y262461D01*
X457280Y262467D01*
X457141Y262478D01*
X457121Y262475D01*
X457101Y262476D01*
X456965Y262448D01*
X456828Y262424D01*
X456809Y262416D01*
X456790Y262412D01*
X456664Y262351D01*
X456538Y262294D01*
X456522Y262281D01*
X456504Y262272D01*
X456398Y262182D01*
X456290Y262095D01*
X456277Y262079D01*
X456262Y262066D01*
X456182Y261952D01*
X456098Y261841D01*
X456086Y261816D01*
X456079Y261806D01*
X456072Y261786D01*
X456027Y261696D01*
X455152Y259583D01*
X451617Y256048D01*
X446999Y254135D01*
X442001Y254135D01*
X437383Y256048D01*
X433848Y259583D01*
X431935Y264201D01*
X431935Y269199D01*
X433848Y273817D01*
X437383Y277352D01*
X441645Y279117D01*
X441706Y279152D01*
X441771Y279178D01*
X441843Y279230D01*
X441921Y279275D01*
X441971Y279323D01*
X442028Y279364D01*
X442085Y279434D01*
X442150Y279496D01*
X442186Y279556D01*
X442231Y279609D01*
X442269Y279691D01*
X442316Y279767D01*
X442337Y279834D01*
X442366Y279897D01*
X442383Y279985D01*
X442410Y280071D01*
X442413Y280141D01*
X442426Y280210D01*
X442420Y280299D01*
X442425Y280389D01*
X442411Y280457D01*
X442406Y280527D01*
X442379Y280612D01*
X442360Y280700D01*
X442330Y280763D01*
X442308Y280829D01*
X442260Y280905D01*
X442221Y280986D01*
X442175Y281039D01*
X442138Y281098D01*
X442073Y281160D01*
X442014Y281228D01*
X441957Y281268D01*
X441906Y281316D01*
X441828Y281359D01*
X441754Y281411D01*
X441689Y281436D01*
X441628Y281470D01*
X441541Y281492D01*
X441457Y281524D01*
X441387Y281532D01*
X441320Y281549D01*
X441159Y281559D01*
X436166Y281559D01*
X435519Y281732D01*
X434940Y282067D01*
X434467Y282540D01*
X434132Y283119D01*
X433959Y283766D01*
X433959Y289561D01*
X443230Y289561D01*
X443348Y289576D01*
X443467Y289583D01*
X443505Y289596D01*
X443545Y289601D01*
X443656Y289644D01*
X443769Y289681D01*
X443803Y289703D01*
X443841Y289718D01*
X443937Y289788D01*
X444038Y289851D01*
X444066Y289881D01*
X444098Y289904D01*
X444174Y289996D01*
X444256Y290083D01*
X444275Y290118D01*
X444301Y290149D01*
X444352Y290257D01*
X444409Y290361D01*
X444420Y290401D01*
X444437Y290437D01*
X444459Y290554D01*
X444489Y290669D01*
X444493Y290730D01*
X444497Y290750D01*
X444495Y290770D01*
X444499Y290830D01*
X444499Y292101D01*
X445770Y292101D01*
X445888Y292116D01*
X446007Y292123D01*
X446045Y292136D01*
X446085Y292141D01*
X446196Y292185D01*
X446309Y292221D01*
X446344Y292243D01*
X446381Y292258D01*
X446477Y292328D01*
X446578Y292391D01*
X446606Y292421D01*
X446639Y292445D01*
X446714Y292536D01*
X446796Y292623D01*
X446816Y292658D01*
X446841Y292690D01*
X446892Y292797D01*
X446950Y292902D01*
X446960Y292941D01*
X446977Y292977D01*
X446999Y293094D01*
X447029Y293209D01*
X447033Y293270D01*
X447037Y293290D01*
X447035Y293310D01*
X447039Y293370D01*
X447039Y302641D01*
X452834Y302641D01*
X453481Y302468D01*
X454060Y302133D01*
X454533Y301660D01*
X454868Y301081D01*
X455041Y300434D01*
X455041Y295441D01*
X455049Y295371D01*
X455048Y295302D01*
X455069Y295214D01*
X455081Y295125D01*
X455106Y295060D01*
X455123Y294992D01*
X455165Y294913D01*
X455198Y294829D01*
X455239Y294773D01*
X455271Y294711D01*
X455332Y294645D01*
X455384Y294572D01*
X455438Y294528D01*
X455485Y294476D01*
X455560Y294427D01*
X455629Y294369D01*
X455693Y294340D01*
X455751Y294301D01*
X455836Y294272D01*
X455917Y294234D01*
X455986Y294221D01*
X456052Y294198D01*
X456141Y294191D01*
X456229Y294174D01*
X456299Y294178D01*
X456369Y294173D01*
X456457Y294188D01*
X456547Y294194D01*
X456613Y294215D01*
X456682Y294227D01*
X456764Y294264D01*
X456849Y294292D01*
X456908Y294329D01*
X456972Y294358D01*
X457042Y294414D01*
X457118Y294462D01*
X457166Y294513D01*
X457220Y294556D01*
X457275Y294628D01*
X457336Y294694D01*
X457370Y294755D01*
X457412Y294810D01*
X457483Y294955D01*
X459248Y299217D01*
X462783Y302752D01*
X467401Y304665D01*
X472486Y304665D01*
X472623Y304682D01*
X472762Y304695D01*
X472781Y304702D01*
X472801Y304705D01*
X472930Y304756D01*
X473061Y304803D01*
X473078Y304814D01*
X473097Y304822D01*
X473209Y304903D01*
X473325Y304981D01*
X473338Y304997D01*
X473354Y305008D01*
X473443Y305116D01*
X473535Y305220D01*
X473544Y305238D01*
X473557Y305253D01*
X473616Y305379D01*
X473680Y305503D01*
X473684Y305523D01*
X473693Y305541D01*
X473719Y305677D01*
X473749Y305813D01*
X473749Y305834D01*
X473752Y305853D01*
X473744Y305992D01*
X473740Y306131D01*
X473734Y306151D01*
X473733Y306171D01*
X473690Y306303D01*
X473651Y306437D01*
X473641Y306454D01*
X473635Y306473D01*
X473560Y306591D01*
X473490Y306711D01*
X473471Y306732D01*
X473465Y306742D01*
X473450Y306756D01*
X473383Y306831D01*
X468167Y312048D01*
X468089Y312108D01*
X468017Y312176D01*
X467964Y312205D01*
X467916Y312242D01*
X467825Y312282D01*
X467738Y312330D01*
X467680Y312345D01*
X467624Y312369D01*
X467526Y312384D01*
X467430Y312409D01*
X467330Y312415D01*
X467310Y312419D01*
X467298Y312417D01*
X467270Y312419D01*
X243168Y312419D01*
X243070Y312407D01*
X242971Y312404D01*
X242913Y312387D01*
X242853Y312379D01*
X242761Y312343D01*
X242666Y312315D01*
X242613Y312285D01*
X242557Y312262D01*
X242477Y312204D01*
X242392Y312154D01*
X242316Y312088D01*
X242300Y312076D01*
X242292Y312066D01*
X242271Y312048D01*
X229579Y299356D01*
X229561Y299333D01*
X229539Y299314D01*
X229464Y299208D01*
X229384Y299105D01*
X229373Y299078D01*
X229356Y299054D01*
X229310Y298932D01*
X229258Y298813D01*
X229253Y298784D01*
X229243Y298756D01*
X229229Y298627D01*
X229208Y298499D01*
X229211Y298469D01*
X229208Y298440D01*
X229226Y298312D01*
X229238Y298182D01*
X229248Y298154D01*
X229252Y298125D01*
X229304Y297973D01*
X229617Y297218D01*
X229617Y292570D01*
X227838Y288275D01*
X224551Y284988D01*
X220256Y283209D01*
X200368Y283209D01*
X196073Y284988D01*
X192786Y288275D01*
X191007Y292570D01*
X191007Y297218D01*
X192786Y301513D01*
X196073Y304800D01*
X200368Y306579D01*
X220256Y306579D01*
X221011Y306266D01*
X221039Y306258D01*
X221066Y306245D01*
X221192Y306216D01*
X221318Y306182D01*
X221347Y306182D01*
X221376Y306175D01*
X221506Y306179D01*
X221636Y306177D01*
X221664Y306184D01*
X221694Y306185D01*
X221818Y306221D01*
X221945Y306251D01*
X221971Y306265D01*
X221999Y306273D01*
X222111Y306339D01*
X222226Y306400D01*
X222248Y306420D01*
X222273Y306435D01*
X222394Y306541D01*
X237660Y321807D01*
X239527Y322581D01*
X470911Y322581D01*
X472778Y321807D01*
X490164Y304421D01*
X490188Y304403D01*
X490207Y304380D01*
X490313Y304306D01*
X490416Y304226D01*
X490443Y304214D01*
X490467Y304197D01*
X490588Y304151D01*
X490708Y304100D01*
X490737Y304095D01*
X490764Y304084D01*
X490893Y304070D01*
X491022Y304050D01*
X491051Y304052D01*
X491080Y304049D01*
X491209Y304067D01*
X491338Y304080D01*
X491366Y304090D01*
X491395Y304094D01*
X491548Y304146D01*
X492801Y304665D01*
X497886Y304665D01*
X498023Y304682D01*
X498162Y304695D01*
X498181Y304702D01*
X498201Y304705D01*
X498330Y304756D01*
X498461Y304803D01*
X498478Y304814D01*
X498497Y304822D01*
X498609Y304903D01*
X498725Y304981D01*
X498738Y304997D01*
X498754Y305008D01*
X498843Y305116D01*
X498935Y305220D01*
X498944Y305238D01*
X498957Y305253D01*
X499016Y305379D01*
X499080Y305503D01*
X499084Y305523D01*
X499093Y305541D01*
X499119Y305677D01*
X499149Y305813D01*
X499149Y305834D01*
X499152Y305853D01*
X499144Y305992D01*
X499140Y306131D01*
X499134Y306151D01*
X499133Y306171D01*
X499090Y306303D01*
X499051Y306437D01*
X499041Y306454D01*
X499035Y306473D01*
X498960Y306591D01*
X498890Y306711D01*
X498871Y306732D01*
X498865Y306742D01*
X498850Y306756D01*
X498783Y306831D01*
X442767Y362848D01*
X442689Y362908D01*
X442617Y362976D01*
X442564Y363005D01*
X442516Y363042D01*
X442425Y363082D01*
X442338Y363130D01*
X442280Y363145D01*
X442224Y363169D01*
X442126Y363184D01*
X442030Y363209D01*
X441930Y363215D01*
X441910Y363219D01*
X441898Y363217D01*
X441870Y363219D01*
X69811Y363219D01*
X69782Y363216D01*
X69752Y363218D01*
X69624Y363196D01*
X69496Y363179D01*
X69468Y363169D01*
X69439Y363164D01*
X69320Y363110D01*
X69200Y363062D01*
X69176Y363045D01*
X69149Y363033D01*
X69048Y362952D01*
X68942Y362876D01*
X68924Y362853D01*
X68901Y362834D01*
X68822Y362731D01*
X68740Y362631D01*
X68727Y362604D01*
X68709Y362580D01*
X68638Y362436D01*
X68326Y361681D01*
X65039Y358394D01*
X60744Y356615D01*
X40856Y356615D01*
X36561Y358394D01*
X33274Y361681D01*
X31495Y365976D01*
X31495Y370624D01*
X33274Y374919D01*
X36561Y378206D01*
X40476Y379827D01*
X40596Y379896D01*
X40720Y379961D01*
X40734Y379975D01*
X40752Y379985D01*
X40852Y380082D01*
X40955Y380175D01*
X40966Y380192D01*
X40981Y380206D01*
X41053Y380324D01*
X41130Y380441D01*
X41136Y380460D01*
X41147Y380477D01*
X41188Y380610D01*
X41233Y380742D01*
X41234Y380762D01*
X41240Y380781D01*
X41247Y380920D01*
X41258Y381059D01*
X41255Y381079D01*
X41256Y381099D01*
X41228Y381235D01*
X41204Y381372D01*
X41195Y381390D01*
X41191Y381410D01*
X41130Y381536D01*
X41073Y381662D01*
X41060Y381678D01*
X41052Y381696D01*
X40961Y381802D01*
X40874Y381910D01*
X40858Y381923D01*
X40845Y381938D01*
X40731Y382018D01*
X40620Y382102D01*
X40595Y382114D01*
X40585Y382121D01*
X40566Y382128D01*
X40476Y382173D01*
X36561Y383794D01*
X33274Y387081D01*
X31495Y391376D01*
X31495Y396024D01*
X33274Y400319D01*
X36561Y403606D01*
X40856Y405385D01*
X60744Y405385D01*
X65039Y403606D01*
X68326Y400319D01*
X70105Y396024D01*
X70105Y391376D01*
X68326Y387081D01*
X65039Y383794D01*
X61124Y382173D01*
X61003Y382104D01*
X60880Y382039D01*
X60865Y382025D01*
X60848Y382015D01*
X60748Y381918D01*
X60645Y381825D01*
X60634Y381808D01*
X60619Y381794D01*
X60547Y381675D01*
X60470Y381559D01*
X60464Y381540D01*
X60453Y381523D01*
X60412Y381390D01*
X60367Y381258D01*
X60366Y381238D01*
X60360Y381219D01*
X60353Y381080D01*
X60342Y380941D01*
X60345Y380921D01*
X60344Y380901D01*
X60373Y380765D01*
X60396Y380628D01*
X60405Y380609D01*
X60409Y380590D01*
X60470Y380464D01*
X60527Y380338D01*
X60540Y380322D01*
X60548Y380304D01*
X60639Y380198D01*
X60726Y380090D01*
X60742Y380077D01*
X60755Y380062D01*
X60869Y379982D01*
X60980Y379898D01*
X61005Y379886D01*
X61015Y379879D01*
X61034Y379872D01*
X61124Y379827D01*
X65039Y378206D01*
X68326Y374919D01*
X68638Y374164D01*
X68653Y374139D01*
X68662Y374111D01*
X68732Y374001D01*
X68796Y373888D01*
X68816Y373867D01*
X68832Y373842D01*
X68927Y373753D01*
X69017Y373660D01*
X69042Y373644D01*
X69064Y373624D01*
X69178Y373561D01*
X69288Y373493D01*
X69317Y373485D01*
X69342Y373470D01*
X69468Y373438D01*
X69592Y373400D01*
X69622Y373398D01*
X69650Y373391D01*
X69811Y373381D01*
X272858Y373381D01*
X272996Y373398D01*
X273134Y373411D01*
X273153Y373418D01*
X273174Y373421D01*
X273303Y373472D01*
X273434Y373519D01*
X273451Y373530D01*
X273469Y373538D01*
X273582Y373619D01*
X273697Y373697D01*
X273710Y373713D01*
X273727Y373724D01*
X273815Y373832D01*
X273907Y373936D01*
X273917Y373954D01*
X273929Y373969D01*
X273989Y374095D01*
X274052Y374219D01*
X274056Y374239D01*
X274065Y374257D01*
X274091Y374394D01*
X274122Y374529D01*
X274121Y374550D01*
X274125Y374569D01*
X274116Y374708D01*
X274112Y374847D01*
X274106Y374867D01*
X274105Y374887D01*
X274062Y375019D01*
X274024Y375153D01*
X274013Y375170D01*
X274007Y375189D01*
X273933Y375307D01*
X273862Y375427D01*
X273843Y375448D01*
X273837Y375458D01*
X273822Y375472D01*
X273756Y375547D01*
X272748Y376555D01*
X271553Y379439D01*
X271553Y382561D01*
X272748Y385445D01*
X274955Y387652D01*
X277839Y388847D01*
X280961Y388847D01*
X283845Y387652D01*
X285044Y386452D01*
X285123Y386392D01*
X285195Y386324D01*
X285248Y386295D01*
X285296Y386258D01*
X285387Y386218D01*
X285473Y386170D01*
X285532Y386155D01*
X285588Y386131D01*
X285686Y386116D01*
X285781Y386091D01*
X285881Y386085D01*
X285902Y386081D01*
X285914Y386083D01*
X285942Y386081D01*
X309122Y386081D01*
X309260Y386098D01*
X309399Y386111D01*
X309418Y386118D01*
X309438Y386121D01*
X309567Y386172D01*
X309698Y386219D01*
X309715Y386230D01*
X309734Y386238D01*
X309846Y386319D01*
X309961Y386397D01*
X309975Y386413D01*
X309991Y386424D01*
X310080Y386532D01*
X310172Y386636D01*
X310181Y386654D01*
X310194Y386669D01*
X310253Y386795D01*
X310316Y386919D01*
X310321Y386939D01*
X310329Y386957D01*
X310355Y387093D01*
X310386Y387229D01*
X310385Y387250D01*
X310389Y387269D01*
X310381Y387408D01*
X310376Y387547D01*
X310371Y387567D01*
X310369Y387587D01*
X310327Y387719D01*
X310288Y387853D01*
X310278Y387870D01*
X310271Y387889D01*
X310197Y388007D01*
X310126Y388127D01*
X310108Y388148D01*
X310101Y388158D01*
X310086Y388172D01*
X310020Y388247D01*
X308355Y389912D01*
X308355Y391669D01*
X316738Y391669D01*
X316856Y391684D01*
X316975Y391691D01*
X317013Y391703D01*
X317053Y391709D01*
X317164Y391752D01*
X317277Y391789D01*
X317311Y391811D01*
X317349Y391826D01*
X317445Y391895D01*
X317497Y391928D01*
X317515Y391912D01*
X317550Y391892D01*
X317582Y391867D01*
X317689Y391816D01*
X317794Y391758D01*
X317833Y391748D01*
X317869Y391731D01*
X317986Y391709D01*
X318102Y391679D01*
X318162Y391675D01*
X318182Y391671D01*
X318202Y391673D01*
X318262Y391669D01*
X326645Y391669D01*
X326645Y389912D01*
X324980Y388247D01*
X324895Y388138D01*
X324806Y388031D01*
X324798Y388012D01*
X324785Y387996D01*
X324730Y387868D01*
X324671Y387743D01*
X324667Y387723D01*
X324659Y387704D01*
X324637Y387566D01*
X324611Y387430D01*
X324612Y387410D01*
X324609Y387390D01*
X324622Y387251D01*
X324631Y387113D01*
X324637Y387094D01*
X324639Y387074D01*
X324686Y386942D01*
X324729Y386811D01*
X324739Y386793D01*
X324746Y386774D01*
X324824Y386659D01*
X324899Y386542D01*
X324914Y386528D01*
X324925Y386511D01*
X325029Y386419D01*
X325130Y386324D01*
X325148Y386314D01*
X325163Y386301D01*
X325287Y386237D01*
X325409Y386170D01*
X325428Y386165D01*
X325447Y386156D01*
X325582Y386126D01*
X325717Y386091D01*
X325745Y386089D01*
X325757Y386086D01*
X325777Y386087D01*
X325878Y386081D01*
X349058Y386081D01*
X349156Y386093D01*
X349255Y386096D01*
X349313Y386113D01*
X349374Y386121D01*
X349466Y386157D01*
X349561Y386185D01*
X349613Y386215D01*
X349669Y386238D01*
X349749Y386296D01*
X349835Y386346D01*
X349910Y386412D01*
X349927Y386424D01*
X349934Y386434D01*
X349956Y386452D01*
X351155Y387652D01*
X354039Y388847D01*
X357161Y388847D01*
X360045Y387652D01*
X362252Y385445D01*
X363447Y382561D01*
X363447Y379439D01*
X362252Y376555D01*
X361244Y375547D01*
X361160Y375438D01*
X361071Y375331D01*
X361062Y375312D01*
X361050Y375296D01*
X360994Y375169D01*
X360935Y375043D01*
X360931Y375023D01*
X360923Y375004D01*
X360901Y374866D01*
X360875Y374730D01*
X360876Y374710D01*
X360873Y374690D01*
X360886Y374551D01*
X360895Y374413D01*
X360901Y374394D01*
X360903Y374374D01*
X360950Y374242D01*
X360993Y374111D01*
X361004Y374093D01*
X361011Y374074D01*
X361089Y373959D01*
X361163Y373842D01*
X361178Y373828D01*
X361189Y373811D01*
X361293Y373719D01*
X361395Y373624D01*
X361413Y373614D01*
X361428Y373601D01*
X361551Y373538D01*
X361673Y373470D01*
X361693Y373465D01*
X361711Y373456D01*
X361847Y373426D01*
X361981Y373391D01*
X362009Y373389D01*
X362021Y373386D01*
X362042Y373387D01*
X362142Y373381D01*
X445511Y373381D01*
X447378Y372607D01*
X515564Y304421D01*
X515588Y304403D01*
X515607Y304380D01*
X515713Y304306D01*
X515816Y304226D01*
X515843Y304214D01*
X515867Y304197D01*
X515988Y304151D01*
X516108Y304100D01*
X516137Y304095D01*
X516164Y304084D01*
X516293Y304070D01*
X516422Y304050D01*
X516451Y304052D01*
X516480Y304049D01*
X516609Y304067D01*
X516738Y304080D01*
X516766Y304090D01*
X516795Y304094D01*
X516948Y304146D01*
X518201Y304665D01*
X523199Y304665D01*
X527817Y302752D01*
X531352Y299217D01*
X533265Y294599D01*
X533265Y289601D01*
X531352Y284983D01*
X527817Y281448D01*
X525704Y280573D01*
X525583Y280504D01*
X525460Y280439D01*
X525445Y280425D01*
X525427Y280415D01*
X525327Y280318D01*
X525225Y280225D01*
X525214Y280208D01*
X525199Y280194D01*
X525126Y280075D01*
X525050Y279959D01*
X525043Y279940D01*
X525033Y279923D01*
X524992Y279790D01*
X524947Y279658D01*
X524945Y279638D01*
X524939Y279619D01*
X524933Y279480D01*
X524922Y279341D01*
X524925Y279321D01*
X524924Y279301D01*
X524952Y279165D01*
X524976Y279028D01*
X524984Y279009D01*
X524988Y278990D01*
X525049Y278864D01*
X525106Y278738D01*
X525119Y278722D01*
X525128Y278704D01*
X525218Y278598D01*
X525305Y278490D01*
X525321Y278477D01*
X525334Y278462D01*
X525448Y278382D01*
X525559Y278298D01*
X525584Y278286D01*
X525594Y278279D01*
X525614Y278272D01*
X525704Y278227D01*
X527817Y277352D01*
X531352Y273817D01*
X533265Y269199D01*
X533265Y264201D01*
X531352Y259583D01*
X527817Y256048D01*
X523199Y254135D01*
X518201Y254135D01*
X513583Y256048D01*
X510048Y259583D01*
X509173Y261696D01*
X509104Y261817D01*
X509039Y261940D01*
X509025Y261955D01*
X509015Y261973D01*
X508918Y262073D01*
X508825Y262175D01*
X508808Y262186D01*
X508794Y262201D01*
X508675Y262274D01*
X508559Y262350D01*
X508540Y262357D01*
X508523Y262367D01*
X508390Y262408D01*
X508258Y262453D01*
X508238Y262455D01*
X508219Y262461D01*
X508080Y262467D01*
X507941Y262478D01*
X507921Y262475D01*
X507901Y262476D01*
X507765Y262448D01*
X507628Y262424D01*
X507609Y262416D01*
X507590Y262412D01*
X507464Y262351D01*
X507338Y262294D01*
X507322Y262281D01*
X507304Y262272D01*
X507198Y262182D01*
X507090Y262095D01*
X507077Y262079D01*
X507062Y262066D01*
X506982Y261952D01*
X506898Y261841D01*
X506886Y261816D01*
X506879Y261806D01*
X506872Y261786D01*
X506827Y261696D01*
X505952Y259583D01*
X502417Y256048D01*
X497799Y254135D01*
X492801Y254135D01*
X488183Y256048D01*
X487816Y256415D01*
X487706Y256500D01*
X487599Y256589D01*
X487580Y256598D01*
X487564Y256610D01*
X487436Y256666D01*
X487311Y256725D01*
X487291Y256729D01*
X487272Y256737D01*
X487134Y256759D01*
X486998Y256785D01*
X486978Y256783D01*
X486958Y256786D01*
X486819Y256773D01*
X486681Y256765D01*
X486662Y256759D01*
X486642Y256757D01*
X486511Y256710D01*
X486379Y256667D01*
X486361Y256656D01*
X486342Y256649D01*
X486228Y256571D01*
X486110Y256497D01*
X486096Y256482D01*
X486079Y256470D01*
X485987Y256366D01*
X485892Y256265D01*
X485882Y256247D01*
X485869Y256232D01*
X485806Y256108D01*
X485738Y255986D01*
X485733Y255967D01*
X485724Y255949D01*
X485694Y255813D01*
X485659Y255679D01*
X485657Y255650D01*
X485654Y255639D01*
X485655Y255618D01*
X485649Y255518D01*
X485649Y195580D01*
X485664Y195462D01*
X485671Y195343D01*
X485684Y195305D01*
X485689Y195264D01*
X485733Y195153D01*
X485769Y195041D01*
X485791Y195006D01*
X485806Y194969D01*
X485875Y194873D01*
X485939Y194772D01*
X485969Y194744D01*
X485992Y194711D01*
X486084Y194635D01*
X486171Y194554D01*
X486206Y194534D01*
X486237Y194509D01*
X486345Y194458D01*
X486449Y194400D01*
X486489Y194390D01*
X486525Y194373D01*
X486642Y194351D01*
X486757Y194321D01*
X486817Y194317D01*
X486837Y194313D01*
X486858Y194315D01*
X486918Y194311D01*
X490512Y194311D01*
X494807Y192532D01*
X498094Y189245D01*
X499873Y184950D01*
X499873Y180302D01*
X498094Y176007D01*
X494807Y172720D01*
X490512Y170941D01*
X470624Y170941D01*
G37*
%LPD*%
%LPC*%
G36*
X81063Y138659D02*
X81063Y138659D01*
X65845Y142410D01*
X51967Y149693D01*
X40235Y160087D01*
X31332Y172986D01*
X25774Y187641D01*
X23885Y203200D01*
X25774Y218759D01*
X31332Y233414D01*
X40235Y246313D01*
X51967Y256707D01*
X65845Y263990D01*
X81063Y267741D01*
X96737Y267741D01*
X111955Y263990D01*
X125833Y256707D01*
X137565Y246313D01*
X146468Y233414D01*
X152026Y218759D01*
X153915Y203200D01*
X152026Y187641D01*
X146468Y172986D01*
X137565Y160087D01*
X125833Y149693D01*
X111955Y142410D01*
X96737Y138659D01*
X81063Y138659D01*
G37*
%LPD*%
%LPC*%
G36*
X81063Y837159D02*
X81063Y837159D01*
X65845Y840910D01*
X51967Y848193D01*
X40235Y858587D01*
X31332Y871486D01*
X25774Y886141D01*
X23885Y901700D01*
X25774Y917259D01*
X31332Y931914D01*
X40235Y944813D01*
X51967Y955207D01*
X65845Y962490D01*
X81063Y966241D01*
X96737Y966241D01*
X111955Y962490D01*
X125833Y955207D01*
X137565Y944813D01*
X146468Y931914D01*
X152026Y917259D01*
X153915Y901700D01*
X152026Y886141D01*
X146468Y871486D01*
X137565Y858587D01*
X125833Y848193D01*
X111955Y840910D01*
X96737Y837159D01*
X81063Y837159D01*
G37*
%LPD*%
%LPC*%
G36*
X124878Y554227D02*
X124878Y554227D01*
X120957Y555851D01*
X117955Y558853D01*
X116331Y562774D01*
X116331Y580226D01*
X117955Y584147D01*
X120957Y587149D01*
X124878Y588773D01*
X129122Y588773D01*
X133043Y587149D01*
X133356Y586836D01*
X133450Y586763D01*
X133539Y586684D01*
X133575Y586666D01*
X133607Y586641D01*
X133716Y586594D01*
X133822Y586540D01*
X133862Y586531D01*
X133899Y586515D01*
X134017Y586496D01*
X134133Y586470D01*
X134173Y586471D01*
X134213Y586465D01*
X134332Y586476D01*
X134451Y586480D01*
X134489Y586491D01*
X134530Y586495D01*
X134642Y586535D01*
X134756Y586568D01*
X134791Y586589D01*
X134829Y586602D01*
X134927Y586669D01*
X135030Y586730D01*
X135075Y586770D01*
X135092Y586781D01*
X135106Y586796D01*
X135151Y586836D01*
X174922Y626607D01*
X176789Y627381D01*
X429170Y627381D01*
X429268Y627393D01*
X429367Y627396D01*
X429425Y627413D01*
X429485Y627421D01*
X429577Y627457D01*
X429672Y627485D01*
X429725Y627515D01*
X429781Y627538D01*
X429861Y627596D01*
X429946Y627646D01*
X430022Y627712D01*
X430038Y627724D01*
X430046Y627734D01*
X430067Y627752D01*
X439048Y636733D01*
X439108Y636811D01*
X439176Y636883D01*
X439205Y636936D01*
X439242Y636984D01*
X439282Y637075D01*
X439330Y637162D01*
X439345Y637220D01*
X439369Y637276D01*
X439384Y637374D01*
X439409Y637470D01*
X439415Y637570D01*
X439419Y637590D01*
X439417Y637602D01*
X439419Y637630D01*
X439419Y704658D01*
X439407Y704756D01*
X439404Y704855D01*
X439387Y704913D01*
X439379Y704974D01*
X439343Y705066D01*
X439315Y705161D01*
X439285Y705213D01*
X439262Y705269D01*
X439204Y705349D01*
X439154Y705435D01*
X439088Y705510D01*
X439076Y705527D01*
X439066Y705534D01*
X439048Y705556D01*
X437848Y706755D01*
X436653Y709639D01*
X436653Y712761D01*
X437848Y715645D01*
X440055Y717852D01*
X442939Y719047D01*
X446061Y719047D01*
X448945Y717852D01*
X451152Y715645D01*
X452347Y712761D01*
X452347Y709639D01*
X451152Y706755D01*
X449952Y705556D01*
X449892Y705477D01*
X449824Y705405D01*
X449795Y705352D01*
X449758Y705304D01*
X449718Y705213D01*
X449670Y705127D01*
X449655Y705068D01*
X449631Y705012D01*
X449616Y704914D01*
X449591Y704819D01*
X449585Y704719D01*
X449581Y704698D01*
X449583Y704686D01*
X449581Y704658D01*
X449581Y633989D01*
X448807Y632122D01*
X434678Y617993D01*
X432811Y617219D01*
X298642Y617219D01*
X298504Y617202D01*
X298366Y617189D01*
X298347Y617182D01*
X298326Y617179D01*
X298197Y617128D01*
X298066Y617081D01*
X298049Y617070D01*
X298031Y617062D01*
X297918Y616981D01*
X297803Y616903D01*
X297790Y616887D01*
X297773Y616876D01*
X297685Y616768D01*
X297593Y616664D01*
X297583Y616646D01*
X297571Y616631D01*
X297511Y616505D01*
X297448Y616381D01*
X297444Y616361D01*
X297435Y616343D01*
X297409Y616206D01*
X297378Y616071D01*
X297379Y616050D01*
X297375Y616031D01*
X297384Y615892D01*
X297388Y615753D01*
X297394Y615733D01*
X297395Y615713D01*
X297438Y615581D01*
X297476Y615447D01*
X297487Y615430D01*
X297493Y615411D01*
X297567Y615293D01*
X297638Y615173D01*
X297657Y615152D01*
X297663Y615142D01*
X297678Y615128D01*
X297744Y615053D01*
X298752Y614045D01*
X299947Y611161D01*
X299947Y608039D01*
X298752Y605155D01*
X296545Y602948D01*
X293661Y601753D01*
X290539Y601753D01*
X287655Y602948D01*
X286456Y604148D01*
X286377Y604208D01*
X286305Y604276D01*
X286252Y604305D01*
X286204Y604342D01*
X286113Y604382D01*
X286027Y604430D01*
X285968Y604445D01*
X285912Y604469D01*
X285814Y604484D01*
X285719Y604509D01*
X285619Y604515D01*
X285598Y604519D01*
X285586Y604517D01*
X285558Y604519D01*
X260542Y604519D01*
X260404Y604502D01*
X260266Y604489D01*
X260247Y604482D01*
X260226Y604479D01*
X260097Y604428D01*
X259966Y604381D01*
X259949Y604370D01*
X259931Y604362D01*
X259818Y604281D01*
X259703Y604203D01*
X259690Y604187D01*
X259673Y604176D01*
X259585Y604068D01*
X259493Y603964D01*
X259483Y603946D01*
X259471Y603931D01*
X259411Y603805D01*
X259348Y603681D01*
X259344Y603661D01*
X259335Y603643D01*
X259309Y603506D01*
X259278Y603371D01*
X259279Y603350D01*
X259275Y603331D01*
X259284Y603192D01*
X259288Y603053D01*
X259294Y603033D01*
X259295Y603013D01*
X259338Y602881D01*
X259376Y602747D01*
X259387Y602730D01*
X259393Y602711D01*
X259467Y602593D01*
X259538Y602473D01*
X259557Y602452D01*
X259563Y602442D01*
X259578Y602428D01*
X259644Y602353D01*
X260652Y601345D01*
X261847Y598461D01*
X261847Y595339D01*
X260652Y592455D01*
X258445Y590248D01*
X256248Y589338D01*
X256223Y589323D01*
X256194Y589314D01*
X256085Y589245D01*
X255972Y589181D01*
X255951Y589160D01*
X255926Y589144D01*
X255837Y589049D01*
X255744Y588959D01*
X255728Y588934D01*
X255708Y588912D01*
X255645Y588798D01*
X255578Y588688D01*
X255569Y588660D01*
X255554Y588633D01*
X255522Y588508D01*
X255484Y588384D01*
X255483Y588354D01*
X255475Y588325D01*
X255475Y588196D01*
X255469Y588067D01*
X255475Y588037D01*
X255475Y588007D01*
X255507Y587882D01*
X255533Y587755D01*
X255546Y587728D01*
X255554Y587699D01*
X255616Y587586D01*
X255673Y587469D01*
X255692Y587447D01*
X255707Y587421D01*
X255795Y587326D01*
X255879Y587227D01*
X255904Y587210D01*
X255924Y587188D01*
X256033Y587119D01*
X256139Y587044D01*
X256167Y587034D01*
X256192Y587018D01*
X256342Y586958D01*
X257510Y586579D01*
X258793Y585925D01*
X259957Y585079D01*
X260975Y584061D01*
X261821Y582897D01*
X262475Y581614D01*
X262920Y580245D01*
X263145Y578824D01*
X263145Y573531D01*
X254762Y573531D01*
X254644Y573516D01*
X254525Y573509D01*
X254487Y573496D01*
X254447Y573491D01*
X254336Y573448D01*
X254223Y573411D01*
X254189Y573389D01*
X254151Y573374D01*
X254055Y573305D01*
X254003Y573271D01*
X253985Y573288D01*
X253950Y573308D01*
X253918Y573333D01*
X253811Y573384D01*
X253706Y573442D01*
X253667Y573452D01*
X253631Y573469D01*
X253514Y573491D01*
X253398Y573521D01*
X253338Y573525D01*
X253318Y573529D01*
X253298Y573527D01*
X253238Y573531D01*
X244855Y573531D01*
X244855Y578824D01*
X245080Y580245D01*
X245525Y581614D01*
X246179Y582897D01*
X247025Y584061D01*
X248043Y585079D01*
X249207Y585925D01*
X250490Y586579D01*
X251658Y586958D01*
X251685Y586971D01*
X251714Y586978D01*
X251829Y587039D01*
X251946Y587094D01*
X251969Y587113D01*
X251995Y587127D01*
X252091Y587214D01*
X252191Y587296D01*
X252208Y587321D01*
X252231Y587341D01*
X252302Y587449D01*
X252378Y587554D01*
X252389Y587581D01*
X252405Y587606D01*
X252447Y587729D01*
X252495Y587849D01*
X252499Y587879D01*
X252508Y587907D01*
X252519Y588036D01*
X252535Y588165D01*
X252531Y588195D01*
X252534Y588224D01*
X252512Y588352D01*
X252495Y588480D01*
X252484Y588508D01*
X252479Y588538D01*
X252426Y588656D01*
X252379Y588776D01*
X252361Y588800D01*
X252349Y588828D01*
X252268Y588929D01*
X252192Y589034D01*
X252169Y589053D01*
X252150Y589076D01*
X252046Y589154D01*
X251947Y589236D01*
X251920Y589249D01*
X251896Y589267D01*
X251752Y589338D01*
X249555Y590248D01*
X248356Y591448D01*
X248277Y591508D01*
X248205Y591576D01*
X248152Y591605D01*
X248104Y591642D01*
X248013Y591682D01*
X247927Y591730D01*
X247868Y591745D01*
X247812Y591769D01*
X247714Y591784D01*
X247619Y591809D01*
X247519Y591815D01*
X247498Y591819D01*
X247486Y591817D01*
X247458Y591819D01*
X231230Y591819D01*
X231132Y591807D01*
X231033Y591804D01*
X230975Y591787D01*
X230915Y591779D01*
X230823Y591743D01*
X230728Y591715D01*
X230675Y591685D01*
X230619Y591662D01*
X230539Y591604D01*
X230454Y591554D01*
X230378Y591488D01*
X230362Y591476D01*
X230354Y591466D01*
X230333Y591448D01*
X229825Y590940D01*
X229740Y590830D01*
X229651Y590723D01*
X229642Y590704D01*
X229630Y590688D01*
X229574Y590560D01*
X229515Y590435D01*
X229512Y590415D01*
X229503Y590396D01*
X229481Y590258D01*
X229456Y590122D01*
X229457Y590102D01*
X229454Y590082D01*
X229467Y589943D01*
X229475Y589805D01*
X229481Y589786D01*
X229483Y589766D01*
X229530Y589635D01*
X229573Y589503D01*
X229584Y589485D01*
X229591Y589466D01*
X229669Y589352D01*
X229743Y589234D01*
X229758Y589220D01*
X229770Y589203D01*
X229874Y589111D01*
X229975Y589016D01*
X229993Y589006D01*
X230008Y588993D01*
X230132Y588930D01*
X230254Y588862D01*
X230273Y588857D01*
X230291Y588848D01*
X230427Y588818D01*
X230562Y588783D01*
X230590Y588781D01*
X230602Y588778D01*
X230622Y588779D01*
X230722Y588773D01*
X234643Y587149D01*
X237645Y584147D01*
X239269Y580226D01*
X239269Y562774D01*
X237645Y558853D01*
X234643Y555851D01*
X230722Y554227D01*
X226478Y554227D01*
X222557Y555851D01*
X219555Y558853D01*
X217931Y562774D01*
X217931Y575982D01*
X217914Y576119D01*
X217901Y576258D01*
X217894Y576277D01*
X217891Y576297D01*
X217840Y576426D01*
X217793Y576557D01*
X217782Y576574D01*
X217774Y576593D01*
X217693Y576705D01*
X217615Y576821D01*
X217599Y576834D01*
X217588Y576850D01*
X217480Y576939D01*
X217376Y577031D01*
X217358Y577040D01*
X217343Y577053D01*
X217217Y577112D01*
X217093Y577176D01*
X217073Y577180D01*
X217055Y577189D01*
X216919Y577215D01*
X216783Y577245D01*
X216762Y577245D01*
X216743Y577248D01*
X216604Y577240D01*
X216465Y577236D01*
X216445Y577230D01*
X216425Y577229D01*
X216293Y577186D01*
X216159Y577147D01*
X216142Y577137D01*
X216123Y577131D01*
X216005Y577056D01*
X215885Y576986D01*
X215864Y576967D01*
X215854Y576961D01*
X215840Y576946D01*
X215765Y576879D01*
X214240Y575355D01*
X214180Y575277D01*
X214112Y575205D01*
X214083Y575152D01*
X214046Y575104D01*
X214006Y575013D01*
X213958Y574926D01*
X213943Y574868D01*
X213919Y574812D01*
X213904Y574714D01*
X213879Y574618D01*
X213873Y574518D01*
X213869Y574498D01*
X213871Y574486D01*
X213869Y574458D01*
X213869Y562774D01*
X212245Y558853D01*
X209243Y555851D01*
X205322Y554227D01*
X201078Y554227D01*
X197157Y555851D01*
X194155Y558853D01*
X192531Y562774D01*
X192531Y575982D01*
X192514Y576120D01*
X192501Y576258D01*
X192494Y576277D01*
X192491Y576297D01*
X192440Y576427D01*
X192393Y576557D01*
X192382Y576574D01*
X192374Y576593D01*
X192293Y576705D01*
X192215Y576821D01*
X192199Y576834D01*
X192188Y576850D01*
X192080Y576939D01*
X191976Y577031D01*
X191958Y577040D01*
X191943Y577053D01*
X191817Y577112D01*
X191693Y577176D01*
X191673Y577180D01*
X191655Y577189D01*
X191518Y577215D01*
X191383Y577245D01*
X191362Y577245D01*
X191343Y577248D01*
X191204Y577240D01*
X191065Y577236D01*
X191045Y577230D01*
X191025Y577229D01*
X190893Y577186D01*
X190759Y577147D01*
X190742Y577137D01*
X190723Y577131D01*
X190605Y577056D01*
X190485Y576986D01*
X190464Y576967D01*
X190454Y576961D01*
X190440Y576946D01*
X190365Y576879D01*
X188840Y575355D01*
X188780Y575277D01*
X188712Y575205D01*
X188683Y575152D01*
X188646Y575104D01*
X188606Y575013D01*
X188558Y574926D01*
X188543Y574868D01*
X188519Y574812D01*
X188504Y574714D01*
X188479Y574618D01*
X188473Y574518D01*
X188469Y574498D01*
X188471Y574486D01*
X188469Y574458D01*
X188469Y562774D01*
X186845Y558853D01*
X183843Y555851D01*
X179922Y554227D01*
X175678Y554227D01*
X171757Y555851D01*
X168755Y558853D01*
X167131Y562774D01*
X167131Y580226D01*
X168755Y584147D01*
X171757Y587149D01*
X175678Y588773D01*
X179922Y588773D01*
X183843Y587149D01*
X184156Y586836D01*
X184250Y586763D01*
X184339Y586684D01*
X184375Y586666D01*
X184407Y586641D01*
X184516Y586594D01*
X184622Y586540D01*
X184662Y586531D01*
X184699Y586515D01*
X184817Y586496D01*
X184933Y586470D01*
X184973Y586471D01*
X185013Y586465D01*
X185132Y586476D01*
X185251Y586480D01*
X185289Y586491D01*
X185330Y586495D01*
X185442Y586535D01*
X185556Y586568D01*
X185591Y586589D01*
X185629Y586602D01*
X185727Y586669D01*
X185830Y586730D01*
X185875Y586770D01*
X185892Y586781D01*
X185906Y586796D01*
X185951Y586836D01*
X213022Y613907D01*
X214889Y614681D01*
X285558Y614681D01*
X285612Y614688D01*
X285666Y614685D01*
X285769Y614707D01*
X285874Y614721D01*
X285924Y614741D01*
X285977Y614752D01*
X286126Y614815D01*
X286146Y614829D01*
X286169Y614838D01*
X286278Y614917D01*
X286390Y614992D01*
X286407Y615010D01*
X286427Y615024D01*
X286512Y615128D01*
X286602Y615228D01*
X286614Y615250D01*
X286629Y615269D01*
X286687Y615391D01*
X286749Y615511D01*
X286754Y615535D01*
X286765Y615557D01*
X286790Y615689D01*
X286821Y615820D01*
X286820Y615845D01*
X286825Y615870D01*
X286816Y616004D01*
X286813Y616138D01*
X286807Y616162D01*
X286805Y616187D01*
X286764Y616315D01*
X286727Y616444D01*
X286715Y616466D01*
X286707Y616489D01*
X286635Y616603D01*
X286567Y616720D01*
X286550Y616737D01*
X286537Y616758D01*
X286439Y616850D01*
X286344Y616946D01*
X286323Y616959D01*
X286305Y616976D01*
X286187Y617041D01*
X286072Y617111D01*
X286048Y617118D01*
X286027Y617130D01*
X285896Y617163D01*
X285767Y617202D01*
X285743Y617203D01*
X285719Y617209D01*
X285558Y617219D01*
X180430Y617219D01*
X180332Y617207D01*
X180233Y617204D01*
X180175Y617187D01*
X180115Y617179D01*
X180023Y617143D01*
X179928Y617115D01*
X179875Y617085D01*
X179819Y617062D01*
X179739Y617004D01*
X179654Y616954D01*
X179578Y616888D01*
X179562Y616876D01*
X179554Y616866D01*
X179533Y616848D01*
X153625Y590939D01*
X153539Y590830D01*
X153451Y590723D01*
X153442Y590704D01*
X153430Y590688D01*
X153374Y590560D01*
X153315Y590435D01*
X153312Y590415D01*
X153303Y590396D01*
X153281Y590258D01*
X153256Y590122D01*
X153257Y590102D01*
X153254Y590082D01*
X153267Y589943D01*
X153275Y589805D01*
X153281Y589786D01*
X153283Y589766D01*
X153331Y589634D01*
X153373Y589503D01*
X153384Y589485D01*
X153391Y589466D01*
X153469Y589351D01*
X153543Y589234D01*
X153558Y589220D01*
X153570Y589203D01*
X153674Y589111D01*
X153775Y589016D01*
X153793Y589006D01*
X153808Y588993D01*
X153932Y588929D01*
X154054Y588862D01*
X154073Y588857D01*
X154091Y588848D01*
X154227Y588818D01*
X154362Y588783D01*
X154390Y588781D01*
X154402Y588778D01*
X154422Y588779D01*
X154522Y588773D01*
X158443Y587149D01*
X161445Y584147D01*
X163069Y580226D01*
X163069Y562774D01*
X161445Y558853D01*
X158443Y555851D01*
X154522Y554227D01*
X150278Y554227D01*
X146357Y555851D01*
X143355Y558853D01*
X141731Y562774D01*
X141731Y575982D01*
X141714Y576120D01*
X141701Y576258D01*
X141694Y576277D01*
X141691Y576297D01*
X141640Y576427D01*
X141593Y576557D01*
X141582Y576574D01*
X141574Y576593D01*
X141493Y576705D01*
X141415Y576821D01*
X141399Y576834D01*
X141388Y576850D01*
X141280Y576939D01*
X141176Y577031D01*
X141158Y577040D01*
X141143Y577053D01*
X141017Y577112D01*
X140893Y577176D01*
X140873Y577180D01*
X140855Y577189D01*
X140718Y577215D01*
X140583Y577245D01*
X140562Y577245D01*
X140543Y577248D01*
X140404Y577240D01*
X140265Y577236D01*
X140245Y577230D01*
X140225Y577229D01*
X140093Y577186D01*
X139959Y577147D01*
X139942Y577137D01*
X139923Y577131D01*
X139805Y577056D01*
X139685Y576986D01*
X139664Y576967D01*
X139654Y576961D01*
X139640Y576946D01*
X139565Y576879D01*
X138040Y575355D01*
X137980Y575277D01*
X137912Y575205D01*
X137883Y575152D01*
X137846Y575104D01*
X137806Y575013D01*
X137758Y574926D01*
X137743Y574868D01*
X137719Y574812D01*
X137704Y574714D01*
X137679Y574618D01*
X137673Y574518D01*
X137669Y574498D01*
X137671Y574486D01*
X137669Y574458D01*
X137669Y562774D01*
X136045Y558853D01*
X133043Y555851D01*
X129122Y554227D01*
X124878Y554227D01*
G37*
%LPD*%
%LPC*%
G36*
X251878Y630427D02*
X251878Y630427D01*
X247957Y632051D01*
X244955Y635053D01*
X243331Y638974D01*
X243331Y656426D01*
X244955Y660347D01*
X247957Y663349D01*
X250766Y664512D01*
X250809Y664537D01*
X250855Y664553D01*
X250946Y664615D01*
X251042Y664670D01*
X251078Y664704D01*
X251119Y664732D01*
X251191Y664814D01*
X251270Y664891D01*
X251296Y664933D01*
X251329Y664970D01*
X251379Y665068D01*
X251436Y665162D01*
X251451Y665209D01*
X251474Y665254D01*
X251498Y665361D01*
X251530Y665466D01*
X251532Y665515D01*
X251543Y665564D01*
X251540Y665674D01*
X251545Y665784D01*
X251535Y665832D01*
X251534Y665882D01*
X251503Y665987D01*
X251481Y666095D01*
X251459Y666140D01*
X251445Y666187D01*
X251390Y666282D01*
X251341Y666381D01*
X251309Y666419D01*
X251284Y666461D01*
X251177Y666582D01*
X223001Y694759D01*
X221995Y697186D01*
X221995Y757188D01*
X221994Y757197D01*
X221995Y757207D01*
X221974Y757355D01*
X221955Y757504D01*
X221952Y757512D01*
X221951Y757522D01*
X221899Y757674D01*
X220753Y760439D01*
X220753Y763561D01*
X221948Y766445D01*
X224155Y768652D01*
X227039Y769847D01*
X230161Y769847D01*
X233045Y768652D01*
X235252Y766445D01*
X236447Y763561D01*
X236447Y760439D01*
X235301Y757674D01*
X235299Y757665D01*
X235294Y757657D01*
X235257Y757512D01*
X235217Y757367D01*
X235217Y757358D01*
X235215Y757349D01*
X235205Y757188D01*
X235205Y701762D01*
X235217Y701663D01*
X235220Y701564D01*
X235237Y701506D01*
X235245Y701446D01*
X235281Y701354D01*
X235309Y701259D01*
X235339Y701207D01*
X235362Y701150D01*
X235420Y701070D01*
X235470Y700985D01*
X235536Y700909D01*
X235548Y700893D01*
X235558Y700885D01*
X235576Y700864D01*
X272570Y663871D01*
X272593Y663853D01*
X272612Y663830D01*
X272718Y663756D01*
X272821Y663676D01*
X272848Y663664D01*
X272872Y663647D01*
X272994Y663601D01*
X273113Y663549D01*
X273142Y663545D01*
X273170Y663534D01*
X273299Y663520D01*
X273427Y663500D01*
X273456Y663502D01*
X273486Y663499D01*
X273614Y663517D01*
X273744Y663529D01*
X273771Y663539D01*
X273801Y663543D01*
X273953Y663596D01*
X277278Y664973D01*
X281522Y664973D01*
X285443Y663349D01*
X288445Y660347D01*
X290069Y656426D01*
X290069Y638974D01*
X288445Y635053D01*
X285443Y632051D01*
X281522Y630427D01*
X277278Y630427D01*
X273357Y632051D01*
X270355Y635053D01*
X268731Y638974D01*
X268731Y648502D01*
X268719Y648601D01*
X268716Y648700D01*
X268699Y648758D01*
X268691Y648818D01*
X268655Y648910D01*
X268627Y649005D01*
X268597Y649057D01*
X268574Y649114D01*
X268516Y649194D01*
X268466Y649279D01*
X268400Y649355D01*
X268388Y649371D01*
X268378Y649379D01*
X268360Y649400D01*
X266835Y650924D01*
X266726Y651009D01*
X266619Y651098D01*
X266600Y651107D01*
X266584Y651119D01*
X266457Y651174D01*
X266331Y651233D01*
X266311Y651237D01*
X266292Y651245D01*
X266154Y651267D01*
X266018Y651293D01*
X265998Y651292D01*
X265978Y651295D01*
X265839Y651282D01*
X265701Y651273D01*
X265682Y651267D01*
X265662Y651265D01*
X265530Y651218D01*
X265399Y651175D01*
X265381Y651165D01*
X265362Y651158D01*
X265247Y651080D01*
X265130Y651005D01*
X265116Y650991D01*
X265099Y650979D01*
X265007Y650875D01*
X264912Y650774D01*
X264902Y650756D01*
X264889Y650741D01*
X264825Y650617D01*
X264758Y650495D01*
X264753Y650476D01*
X264744Y650458D01*
X264714Y650322D01*
X264679Y650187D01*
X264677Y650159D01*
X264674Y650147D01*
X264675Y650127D01*
X264669Y650027D01*
X264669Y638974D01*
X263045Y635053D01*
X260043Y632051D01*
X256122Y630427D01*
X251878Y630427D01*
G37*
%LPD*%
%LPC*%
G36*
X33260Y712215D02*
X33260Y712215D01*
X26415Y719060D01*
X26415Y728740D01*
X33378Y735703D01*
X33451Y735797D01*
X33530Y735886D01*
X33548Y735922D01*
X33573Y735954D01*
X33620Y736063D01*
X33674Y736169D01*
X33683Y736208D01*
X33699Y736246D01*
X33718Y736363D01*
X33744Y736479D01*
X33743Y736520D01*
X33749Y736560D01*
X33738Y736678D01*
X33734Y736797D01*
X33723Y736836D01*
X33719Y736876D01*
X33679Y736989D01*
X33646Y737103D01*
X33625Y737138D01*
X33612Y737176D01*
X33545Y737274D01*
X33484Y737377D01*
X33444Y737422D01*
X33433Y737439D01*
X33418Y737452D01*
X33378Y737498D01*
X26415Y744460D01*
X26415Y754140D01*
X33378Y761103D01*
X33451Y761197D01*
X33530Y761286D01*
X33548Y761322D01*
X33573Y761354D01*
X33620Y761463D01*
X33674Y761569D01*
X33683Y761608D01*
X33699Y761646D01*
X33718Y761763D01*
X33744Y761879D01*
X33743Y761920D01*
X33749Y761960D01*
X33738Y762078D01*
X33734Y762197D01*
X33723Y762236D01*
X33719Y762276D01*
X33679Y762389D01*
X33646Y762503D01*
X33625Y762538D01*
X33612Y762576D01*
X33545Y762674D01*
X33484Y762777D01*
X33444Y762822D01*
X33433Y762839D01*
X33418Y762852D01*
X33378Y762898D01*
X26415Y769860D01*
X26415Y779540D01*
X33260Y786385D01*
X42940Y786385D01*
X49902Y779422D01*
X49997Y779349D01*
X50086Y779270D01*
X50122Y779252D01*
X50154Y779227D01*
X50263Y779180D01*
X50369Y779126D01*
X50408Y779117D01*
X50446Y779101D01*
X50563Y779082D01*
X50679Y779056D01*
X50720Y779057D01*
X50760Y779051D01*
X50878Y779062D01*
X50997Y779066D01*
X51036Y779077D01*
X51076Y779081D01*
X51189Y779121D01*
X51303Y779154D01*
X51337Y779175D01*
X51376Y779188D01*
X51474Y779255D01*
X51577Y779316D01*
X51622Y779356D01*
X51639Y779367D01*
X51652Y779382D01*
X51697Y779422D01*
X58660Y786385D01*
X68340Y786385D01*
X75185Y779540D01*
X75185Y769860D01*
X68222Y762898D01*
X68149Y762803D01*
X68070Y762714D01*
X68052Y762678D01*
X68027Y762646D01*
X67980Y762537D01*
X67926Y762431D01*
X67917Y762392D01*
X67901Y762354D01*
X67882Y762237D01*
X67856Y762121D01*
X67857Y762080D01*
X67851Y762040D01*
X67862Y761922D01*
X67866Y761803D01*
X67877Y761764D01*
X67881Y761724D01*
X67921Y761611D01*
X67954Y761497D01*
X67975Y761463D01*
X67988Y761424D01*
X68055Y761326D01*
X68116Y761223D01*
X68156Y761178D01*
X68167Y761161D01*
X68182Y761148D01*
X68222Y761103D01*
X75185Y754140D01*
X75185Y744460D01*
X68340Y737615D01*
X58660Y737615D01*
X51697Y744578D01*
X51603Y744651D01*
X51514Y744730D01*
X51478Y744748D01*
X51446Y744773D01*
X51337Y744820D01*
X51231Y744874D01*
X51192Y744883D01*
X51154Y744899D01*
X51037Y744918D01*
X50921Y744944D01*
X50880Y744943D01*
X50840Y744949D01*
X50722Y744938D01*
X50603Y744934D01*
X50564Y744923D01*
X50524Y744919D01*
X50411Y744879D01*
X50297Y744846D01*
X50262Y744825D01*
X50224Y744812D01*
X50126Y744745D01*
X50023Y744684D01*
X49978Y744644D01*
X49961Y744633D01*
X49948Y744618D01*
X49902Y744578D01*
X42822Y737498D01*
X42749Y737403D01*
X42670Y737314D01*
X42652Y737278D01*
X42627Y737246D01*
X42580Y737137D01*
X42526Y737031D01*
X42517Y736992D01*
X42501Y736954D01*
X42482Y736837D01*
X42456Y736721D01*
X42457Y736680D01*
X42451Y736640D01*
X42462Y736522D01*
X42466Y736403D01*
X42477Y736364D01*
X42481Y736324D01*
X42521Y736211D01*
X42554Y736097D01*
X42575Y736063D01*
X42588Y736024D01*
X42655Y735926D01*
X42716Y735823D01*
X42756Y735778D01*
X42767Y735761D01*
X42782Y735748D01*
X42822Y735703D01*
X49785Y728740D01*
X49785Y719060D01*
X42940Y712215D01*
X33260Y712215D01*
G37*
%LPD*%
%LPC*%
G36*
X315939Y462053D02*
X315939Y462053D01*
X313055Y463248D01*
X310848Y465455D01*
X309653Y468339D01*
X309653Y471461D01*
X310848Y474345D01*
X313055Y476552D01*
X315939Y477747D01*
X317636Y477747D01*
X317734Y477759D01*
X317833Y477762D01*
X317891Y477779D01*
X317951Y477787D01*
X318043Y477823D01*
X318138Y477851D01*
X318191Y477881D01*
X318247Y477904D01*
X318327Y477962D01*
X318412Y478012D01*
X318488Y478078D01*
X318504Y478090D01*
X318512Y478100D01*
X318533Y478118D01*
X352722Y512307D01*
X354589Y513081D01*
X459367Y513081D01*
X459465Y513093D01*
X459564Y513096D01*
X459623Y513113D01*
X459683Y513121D01*
X459775Y513157D01*
X459870Y513185D01*
X459922Y513215D01*
X459978Y513238D01*
X460058Y513296D01*
X460144Y513346D01*
X460219Y513412D01*
X460236Y513424D01*
X460243Y513434D01*
X460265Y513452D01*
X465481Y518669D01*
X474319Y518669D01*
X480569Y512419D01*
X480569Y503581D01*
X474319Y497331D01*
X465481Y497331D01*
X460265Y502548D01*
X460186Y502608D01*
X460114Y502676D01*
X460061Y502705D01*
X460013Y502742D01*
X459922Y502782D01*
X459836Y502830D01*
X459777Y502845D01*
X459722Y502869D01*
X459624Y502884D01*
X459528Y502909D01*
X459428Y502915D01*
X459407Y502919D01*
X459395Y502917D01*
X459367Y502919D01*
X358230Y502919D01*
X358132Y502907D01*
X358033Y502904D01*
X357975Y502887D01*
X357915Y502879D01*
X357823Y502843D01*
X357728Y502815D01*
X357675Y502785D01*
X357619Y502762D01*
X357539Y502704D01*
X357454Y502654D01*
X357378Y502588D01*
X357362Y502576D01*
X357354Y502566D01*
X357333Y502548D01*
X325718Y470933D01*
X325658Y470855D01*
X325590Y470783D01*
X325561Y470730D01*
X325524Y470682D01*
X325484Y470591D01*
X325436Y470504D01*
X325421Y470446D01*
X325397Y470390D01*
X325382Y470292D01*
X325357Y470196D01*
X325351Y470096D01*
X325347Y470076D01*
X325349Y470064D01*
X325347Y470036D01*
X325347Y468339D01*
X324152Y465455D01*
X321945Y463248D01*
X319061Y462053D01*
X315939Y462053D01*
G37*
%LPD*%
%LPC*%
G36*
X249644Y283209D02*
X249644Y283209D01*
X245349Y284988D01*
X242062Y288275D01*
X240283Y292570D01*
X240283Y297218D01*
X242062Y301513D01*
X245349Y304800D01*
X249644Y306579D01*
X269532Y306579D01*
X273827Y304800D01*
X277114Y301513D01*
X277426Y300758D01*
X277441Y300733D01*
X277450Y300705D01*
X277520Y300595D01*
X277584Y300482D01*
X277604Y300461D01*
X277620Y300436D01*
X277715Y300347D01*
X277805Y300254D01*
X277830Y300238D01*
X277852Y300218D01*
X277966Y300155D01*
X278076Y300087D01*
X278105Y300079D01*
X278130Y300064D01*
X278256Y300032D01*
X278380Y299994D01*
X278410Y299992D01*
X278438Y299985D01*
X278599Y299975D01*
X305601Y299975D01*
X305630Y299978D01*
X305660Y299976D01*
X305788Y299998D01*
X305916Y300015D01*
X305944Y300025D01*
X305973Y300030D01*
X306092Y300084D01*
X306212Y300132D01*
X306236Y300149D01*
X306263Y300161D01*
X306364Y300242D01*
X306470Y300318D01*
X306488Y300341D01*
X306511Y300360D01*
X306590Y300463D01*
X306672Y300563D01*
X306685Y300590D01*
X306703Y300614D01*
X306774Y300758D01*
X307086Y301513D01*
X310373Y304800D01*
X314668Y306579D01*
X334556Y306579D01*
X338851Y304800D01*
X342138Y301513D01*
X343917Y297218D01*
X343917Y292570D01*
X342138Y288275D01*
X338851Y284988D01*
X334556Y283209D01*
X314668Y283209D01*
X310373Y284988D01*
X307086Y288275D01*
X306774Y289030D01*
X306759Y289055D01*
X306750Y289083D01*
X306680Y289193D01*
X306616Y289306D01*
X306596Y289327D01*
X306580Y289352D01*
X306485Y289441D01*
X306395Y289534D01*
X306370Y289550D01*
X306348Y289570D01*
X306234Y289633D01*
X306124Y289701D01*
X306095Y289709D01*
X306070Y289724D01*
X305944Y289756D01*
X305820Y289794D01*
X305790Y289796D01*
X305762Y289803D01*
X305601Y289813D01*
X278599Y289813D01*
X278570Y289810D01*
X278540Y289812D01*
X278412Y289790D01*
X278284Y289773D01*
X278256Y289763D01*
X278227Y289758D01*
X278108Y289704D01*
X277988Y289656D01*
X277964Y289639D01*
X277937Y289627D01*
X277836Y289546D01*
X277730Y289470D01*
X277712Y289447D01*
X277689Y289428D01*
X277610Y289325D01*
X277528Y289225D01*
X277515Y289198D01*
X277497Y289174D01*
X277426Y289030D01*
X277114Y288275D01*
X273827Y284988D01*
X269532Y283209D01*
X249644Y283209D01*
G37*
%LPD*%
%LPC*%
G36*
X227397Y818613D02*
X227397Y818613D01*
X221889Y820895D01*
X217673Y825111D01*
X215391Y830619D01*
X215391Y836581D01*
X217673Y842089D01*
X221889Y846305D01*
X227397Y848587D01*
X255203Y848587D01*
X260711Y846305D01*
X264927Y842089D01*
X267209Y836581D01*
X267209Y830619D01*
X264927Y825111D01*
X260711Y820895D01*
X255203Y818613D01*
X227397Y818613D01*
G37*
%LPD*%
%LPC*%
G36*
X328078Y630427D02*
X328078Y630427D01*
X324157Y632051D01*
X321155Y635053D01*
X319531Y638974D01*
X319531Y656426D01*
X321155Y660347D01*
X324157Y663349D01*
X324336Y663423D01*
X324361Y663437D01*
X324389Y663446D01*
X324499Y663516D01*
X324612Y663580D01*
X324633Y663601D01*
X324658Y663617D01*
X324747Y663711D01*
X324840Y663801D01*
X324856Y663827D01*
X324876Y663848D01*
X324939Y663962D01*
X325007Y664073D01*
X325015Y664101D01*
X325030Y664127D01*
X325062Y664252D01*
X325100Y664377D01*
X325102Y664406D01*
X325109Y664435D01*
X325119Y664595D01*
X325119Y670470D01*
X325107Y670568D01*
X325104Y670667D01*
X325087Y670725D01*
X325079Y670785D01*
X325043Y670877D01*
X325015Y670972D01*
X324985Y671025D01*
X324962Y671081D01*
X324904Y671161D01*
X324854Y671246D01*
X324788Y671322D01*
X324776Y671338D01*
X324766Y671346D01*
X324748Y671367D01*
X305833Y690282D01*
X305755Y690342D01*
X305683Y690410D01*
X305630Y690439D01*
X305582Y690476D01*
X305491Y690516D01*
X305404Y690564D01*
X305346Y690579D01*
X305290Y690603D01*
X305192Y690618D01*
X305096Y690643D01*
X304996Y690649D01*
X304976Y690653D01*
X304964Y690651D01*
X304936Y690653D01*
X303239Y690653D01*
X300355Y691848D01*
X298148Y694055D01*
X296953Y696939D01*
X296953Y700061D01*
X298148Y702945D01*
X300355Y705152D01*
X303239Y706347D01*
X306361Y706347D01*
X309245Y705152D01*
X311452Y702945D01*
X312647Y700061D01*
X312647Y698364D01*
X312659Y698266D01*
X312662Y698167D01*
X312679Y698109D01*
X312687Y698049D01*
X312723Y697957D01*
X312751Y697862D01*
X312781Y697809D01*
X312804Y697753D01*
X312862Y697673D01*
X312912Y697588D01*
X312978Y697512D01*
X312990Y697496D01*
X313000Y697488D01*
X313018Y697467D01*
X334507Y675978D01*
X335281Y674111D01*
X335281Y664595D01*
X335284Y664566D01*
X335282Y664537D01*
X335304Y664409D01*
X335321Y664280D01*
X335331Y664252D01*
X335337Y664223D01*
X335390Y664105D01*
X335438Y663984D01*
X335455Y663960D01*
X335467Y663933D01*
X335548Y663832D01*
X335624Y663727D01*
X335647Y663708D01*
X335666Y663685D01*
X335769Y663607D01*
X335869Y663524D01*
X335896Y663511D01*
X335920Y663494D01*
X336064Y663423D01*
X336243Y663349D01*
X339245Y660347D01*
X340869Y656426D01*
X340869Y638974D01*
X339245Y635053D01*
X336243Y632051D01*
X332322Y630427D01*
X328078Y630427D01*
G37*
%LPD*%
%LPC*%
G36*
X323256Y122935D02*
X323256Y122935D01*
X313435Y132756D01*
X313435Y146644D01*
X323256Y156465D01*
X337144Y156465D01*
X346965Y146644D01*
X346965Y132756D01*
X337144Y122935D01*
X323256Y122935D01*
G37*
%LPD*%
%LPC*%
G36*
X399456Y122935D02*
X399456Y122935D01*
X389635Y132756D01*
X389635Y146644D01*
X399456Y156465D01*
X413344Y156465D01*
X423165Y146644D01*
X423165Y132756D01*
X413344Y122935D01*
X399456Y122935D01*
G37*
%LPD*%
%LPC*%
G36*
X170856Y122935D02*
X170856Y122935D01*
X161035Y132756D01*
X161035Y146644D01*
X170856Y156465D01*
X184744Y156465D01*
X194565Y146644D01*
X194565Y132756D01*
X184744Y122935D01*
X170856Y122935D01*
G37*
%LPD*%
%LPC*%
G36*
X247056Y122935D02*
X247056Y122935D01*
X237235Y132756D01*
X237235Y146644D01*
X247056Y156465D01*
X260944Y156465D01*
X270765Y146644D01*
X270765Y132756D01*
X260944Y122935D01*
X247056Y122935D01*
G37*
%LPD*%
%LPC*%
G36*
X518376Y801115D02*
X518376Y801115D01*
X514081Y802894D01*
X510794Y806181D01*
X509015Y810476D01*
X509015Y815124D01*
X510794Y819419D01*
X514081Y822706D01*
X518376Y824485D01*
X523024Y824485D01*
X527319Y822706D01*
X530606Y819419D01*
X532227Y815504D01*
X532296Y815383D01*
X532361Y815260D01*
X532375Y815245D01*
X532385Y815228D01*
X532482Y815128D01*
X532575Y815025D01*
X532592Y815014D01*
X532606Y814999D01*
X532725Y814927D01*
X532841Y814850D01*
X532860Y814844D01*
X532877Y814833D01*
X533010Y814792D01*
X533142Y814747D01*
X533162Y814746D01*
X533181Y814740D01*
X533320Y814733D01*
X533459Y814722D01*
X533479Y814725D01*
X533499Y814724D01*
X533635Y814753D01*
X533772Y814776D01*
X533791Y814785D01*
X533810Y814789D01*
X533936Y814850D01*
X534062Y814907D01*
X534078Y814920D01*
X534096Y814928D01*
X534202Y815019D01*
X534310Y815106D01*
X534323Y815122D01*
X534338Y815135D01*
X534418Y815249D01*
X534502Y815360D01*
X534514Y815385D01*
X534521Y815395D01*
X534528Y815414D01*
X534573Y815504D01*
X536194Y819419D01*
X539481Y822706D01*
X543776Y824485D01*
X548424Y824485D01*
X552719Y822706D01*
X556006Y819419D01*
X557785Y815124D01*
X557785Y810476D01*
X556006Y806181D01*
X552719Y802894D01*
X548424Y801115D01*
X543776Y801115D01*
X539481Y802894D01*
X536194Y806181D01*
X534573Y810096D01*
X534504Y810216D01*
X534439Y810340D01*
X534425Y810354D01*
X534415Y810372D01*
X534318Y810472D01*
X534225Y810575D01*
X534208Y810586D01*
X534194Y810601D01*
X534076Y810673D01*
X533959Y810750D01*
X533940Y810756D01*
X533923Y810767D01*
X533790Y810808D01*
X533658Y810853D01*
X533638Y810854D01*
X533619Y810860D01*
X533480Y810867D01*
X533341Y810878D01*
X533321Y810875D01*
X533301Y810876D01*
X533165Y810847D01*
X533028Y810824D01*
X533010Y810815D01*
X532990Y810811D01*
X532864Y810750D01*
X532738Y810693D01*
X532722Y810680D01*
X532704Y810672D01*
X532598Y810581D01*
X532490Y810494D01*
X532477Y810478D01*
X532462Y810465D01*
X532382Y810351D01*
X532298Y810240D01*
X532286Y810215D01*
X532279Y810205D01*
X532272Y810186D01*
X532227Y810096D01*
X530606Y806181D01*
X527319Y802894D01*
X523024Y801115D01*
X518376Y801115D01*
G37*
%LPD*%
%LPC*%
G36*
X518376Y890015D02*
X518376Y890015D01*
X514081Y891794D01*
X510794Y895081D01*
X509015Y899376D01*
X509015Y904024D01*
X510794Y908319D01*
X514081Y911606D01*
X518376Y913385D01*
X523024Y913385D01*
X527319Y911606D01*
X530606Y908319D01*
X532227Y904404D01*
X532296Y904283D01*
X532361Y904160D01*
X532375Y904145D01*
X532385Y904128D01*
X532482Y904028D01*
X532575Y903925D01*
X532592Y903914D01*
X532606Y903899D01*
X532725Y903827D01*
X532841Y903750D01*
X532860Y903744D01*
X532877Y903733D01*
X533010Y903692D01*
X533142Y903647D01*
X533162Y903646D01*
X533181Y903640D01*
X533320Y903633D01*
X533459Y903622D01*
X533479Y903625D01*
X533499Y903624D01*
X533635Y903653D01*
X533772Y903676D01*
X533791Y903685D01*
X533810Y903689D01*
X533936Y903750D01*
X534062Y903807D01*
X534078Y903820D01*
X534096Y903828D01*
X534202Y903919D01*
X534310Y904006D01*
X534323Y904022D01*
X534338Y904035D01*
X534418Y904149D01*
X534502Y904260D01*
X534514Y904285D01*
X534521Y904295D01*
X534528Y904314D01*
X534573Y904404D01*
X536194Y908319D01*
X539481Y911606D01*
X543776Y913385D01*
X548424Y913385D01*
X552719Y911606D01*
X556006Y908319D01*
X557785Y904024D01*
X557785Y899376D01*
X556006Y895081D01*
X552719Y891794D01*
X548424Y890015D01*
X543776Y890015D01*
X539481Y891794D01*
X536194Y895081D01*
X534573Y898996D01*
X534504Y899116D01*
X534439Y899240D01*
X534425Y899254D01*
X534415Y899272D01*
X534318Y899372D01*
X534225Y899475D01*
X534208Y899486D01*
X534194Y899501D01*
X534076Y899573D01*
X533959Y899650D01*
X533940Y899656D01*
X533923Y899667D01*
X533790Y899708D01*
X533658Y899753D01*
X533638Y899754D01*
X533619Y899760D01*
X533480Y899767D01*
X533341Y899778D01*
X533321Y899775D01*
X533301Y899776D01*
X533165Y899747D01*
X533028Y899724D01*
X533010Y899715D01*
X532990Y899711D01*
X532864Y899650D01*
X532738Y899593D01*
X532722Y899580D01*
X532704Y899572D01*
X532598Y899481D01*
X532490Y899394D01*
X532477Y899378D01*
X532462Y899365D01*
X532382Y899251D01*
X532298Y899140D01*
X532286Y899115D01*
X532279Y899105D01*
X532272Y899086D01*
X532227Y898996D01*
X530606Y895081D01*
X527319Y891794D01*
X523024Y890015D01*
X518376Y890015D01*
G37*
%LPD*%
%LPC*%
G36*
X470624Y125729D02*
X470624Y125729D01*
X466329Y127508D01*
X463042Y130795D01*
X461263Y135090D01*
X461263Y139738D01*
X463042Y144033D01*
X466329Y147320D01*
X470624Y149099D01*
X490512Y149099D01*
X494807Y147320D01*
X498094Y144033D01*
X499873Y139738D01*
X499873Y135090D01*
X498094Y130795D01*
X494807Y127508D01*
X490512Y125729D01*
X470624Y125729D01*
G37*
%LPD*%
%LPC*%
G36*
X111468Y506221D02*
X111468Y506221D01*
X107173Y508000D01*
X103886Y511287D01*
X102107Y515582D01*
X102107Y520230D01*
X103886Y524525D01*
X107173Y527812D01*
X111468Y529591D01*
X131356Y529591D01*
X135651Y527812D01*
X138938Y524525D01*
X140717Y520230D01*
X140717Y515582D01*
X138938Y511287D01*
X135651Y508000D01*
X131356Y506221D01*
X111468Y506221D01*
G37*
%LPD*%
%LPC*%
G36*
X535648Y125729D02*
X535648Y125729D01*
X531353Y127508D01*
X528066Y130795D01*
X526287Y135090D01*
X526287Y139738D01*
X528066Y144033D01*
X531353Y147320D01*
X535648Y149099D01*
X555536Y149099D01*
X559831Y147320D01*
X563118Y144033D01*
X564897Y139738D01*
X564897Y135090D01*
X563118Y130795D01*
X559831Y127508D01*
X555536Y125729D01*
X535648Y125729D01*
G37*
%LPD*%
%LPC*%
G36*
X46444Y506221D02*
X46444Y506221D01*
X42149Y508000D01*
X38862Y511287D01*
X37083Y515582D01*
X37083Y520230D01*
X38862Y524525D01*
X42149Y527812D01*
X46444Y529591D01*
X66332Y529591D01*
X70627Y527812D01*
X73914Y524525D01*
X75693Y520230D01*
X75693Y515582D01*
X73914Y511287D01*
X70627Y508000D01*
X66332Y506221D01*
X46444Y506221D01*
G37*
%LPD*%
%LPC*%
G36*
X135344Y283209D02*
X135344Y283209D01*
X131049Y284988D01*
X127762Y288275D01*
X125983Y292570D01*
X125983Y297218D01*
X127762Y301513D01*
X131049Y304800D01*
X135344Y306579D01*
X155232Y306579D01*
X159527Y304800D01*
X162814Y301513D01*
X164593Y297218D01*
X164593Y292570D01*
X162814Y288275D01*
X159527Y284988D01*
X155232Y283209D01*
X135344Y283209D01*
G37*
%LPD*%
%LPC*%
G36*
X535648Y170941D02*
X535648Y170941D01*
X531353Y172720D01*
X528066Y176007D01*
X526287Y180302D01*
X526287Y184950D01*
X528066Y189245D01*
X531353Y192532D01*
X535648Y194311D01*
X555536Y194311D01*
X559831Y192532D01*
X563118Y189245D01*
X564897Y184950D01*
X564897Y180302D01*
X563118Y176007D01*
X559831Y172720D01*
X555536Y170941D01*
X535648Y170941D01*
G37*
%LPD*%
%LPC*%
G36*
X352166Y747535D02*
X352166Y747535D01*
X349785Y749916D01*
X349785Y772184D01*
X352166Y774565D01*
X374434Y774565D01*
X376815Y772184D01*
X376815Y749916D01*
X374434Y747535D01*
X352166Y747535D01*
G37*
%LPD*%
%LPC*%
G36*
X352166Y836435D02*
X352166Y836435D01*
X349785Y838816D01*
X349785Y861084D01*
X352166Y863465D01*
X374434Y863465D01*
X376815Y861084D01*
X376815Y838816D01*
X374434Y836435D01*
X352166Y836435D01*
G37*
%LPD*%
%LPC*%
G36*
X74078Y630427D02*
X74078Y630427D01*
X70157Y632051D01*
X67155Y635053D01*
X65531Y638974D01*
X65531Y656426D01*
X67155Y660347D01*
X70157Y663349D01*
X74078Y664973D01*
X78322Y664973D01*
X82243Y663349D01*
X85245Y660347D01*
X86869Y656426D01*
X86869Y638974D01*
X85245Y635053D01*
X82243Y632051D01*
X78322Y630427D01*
X74078Y630427D01*
G37*
%LPD*%
%LPC*%
G36*
X99478Y630427D02*
X99478Y630427D01*
X95557Y632051D01*
X92555Y635053D01*
X90931Y638974D01*
X90931Y656426D01*
X92555Y660347D01*
X95557Y663349D01*
X99478Y664973D01*
X103722Y664973D01*
X107643Y663349D01*
X110645Y660347D01*
X112269Y656426D01*
X112269Y638974D01*
X110645Y635053D01*
X107643Y632051D01*
X103722Y630427D01*
X99478Y630427D01*
G37*
%LPD*%
%LPC*%
G36*
X404278Y630427D02*
X404278Y630427D01*
X400357Y632051D01*
X397355Y635053D01*
X395731Y638974D01*
X395731Y656426D01*
X397355Y660347D01*
X400357Y663349D01*
X404278Y664973D01*
X408522Y664973D01*
X412443Y663349D01*
X415445Y660347D01*
X417069Y656426D01*
X417069Y638974D01*
X415445Y635053D01*
X412443Y632051D01*
X408522Y630427D01*
X404278Y630427D01*
G37*
%LPD*%
%LPC*%
G36*
X353478Y630427D02*
X353478Y630427D01*
X349557Y632051D01*
X346555Y635053D01*
X344931Y638974D01*
X344931Y656426D01*
X346555Y660347D01*
X349557Y663349D01*
X353478Y664973D01*
X357722Y664973D01*
X361643Y663349D01*
X364645Y660347D01*
X366269Y656426D01*
X366269Y638974D01*
X364645Y635053D01*
X361643Y632051D01*
X357722Y630427D01*
X353478Y630427D01*
G37*
%LPD*%
%LPC*%
G36*
X150278Y630427D02*
X150278Y630427D01*
X146357Y632051D01*
X143355Y635053D01*
X141731Y638974D01*
X141731Y656426D01*
X143355Y660347D01*
X146357Y663349D01*
X150278Y664973D01*
X154522Y664973D01*
X158443Y663349D01*
X161445Y660347D01*
X163069Y656426D01*
X163069Y638974D01*
X161445Y635053D01*
X158443Y632051D01*
X154522Y630427D01*
X150278Y630427D01*
G37*
%LPD*%
%LPC*%
G36*
X175678Y630427D02*
X175678Y630427D01*
X171757Y632051D01*
X168755Y635053D01*
X167131Y638974D01*
X167131Y656426D01*
X168755Y660347D01*
X171757Y663349D01*
X175678Y664973D01*
X179922Y664973D01*
X183843Y663349D01*
X186845Y660347D01*
X188469Y656426D01*
X188469Y638974D01*
X186845Y635053D01*
X183843Y632051D01*
X179922Y630427D01*
X175678Y630427D01*
G37*
%LPD*%
%LPC*%
G36*
X378878Y630427D02*
X378878Y630427D01*
X374957Y632051D01*
X371955Y635053D01*
X370331Y638974D01*
X370331Y656426D01*
X371955Y660347D01*
X374957Y663349D01*
X378878Y664973D01*
X383122Y664973D01*
X387043Y663349D01*
X390045Y660347D01*
X391669Y656426D01*
X391669Y638974D01*
X390045Y635053D01*
X387043Y632051D01*
X383122Y630427D01*
X378878Y630427D01*
G37*
%LPD*%
%LPC*%
G36*
X201078Y630427D02*
X201078Y630427D01*
X197157Y632051D01*
X194155Y635053D01*
X192531Y638974D01*
X192531Y656426D01*
X194155Y660347D01*
X197157Y663349D01*
X201078Y664973D01*
X205322Y664973D01*
X209243Y663349D01*
X212245Y660347D01*
X213869Y656426D01*
X213869Y638974D01*
X212245Y635053D01*
X209243Y632051D01*
X205322Y630427D01*
X201078Y630427D01*
G37*
%LPD*%
%LPC*%
G36*
X302678Y630427D02*
X302678Y630427D01*
X298757Y632051D01*
X295755Y635053D01*
X294131Y638974D01*
X294131Y656426D01*
X295755Y660347D01*
X298757Y663349D01*
X302678Y664973D01*
X306922Y664973D01*
X310843Y663349D01*
X313845Y660347D01*
X315469Y656426D01*
X315469Y638974D01*
X313845Y635053D01*
X310843Y632051D01*
X306922Y630427D01*
X302678Y630427D01*
G37*
%LPD*%
%LPC*%
G36*
X74078Y554227D02*
X74078Y554227D01*
X70157Y555851D01*
X67155Y558853D01*
X65531Y562774D01*
X65531Y580226D01*
X67155Y584147D01*
X70157Y587149D01*
X74078Y588773D01*
X78322Y588773D01*
X82243Y587149D01*
X85245Y584147D01*
X86869Y580226D01*
X86869Y562774D01*
X85245Y558853D01*
X82243Y555851D01*
X78322Y554227D01*
X74078Y554227D01*
G37*
%LPD*%
%LPC*%
G36*
X124878Y630427D02*
X124878Y630427D01*
X120957Y632051D01*
X117955Y635053D01*
X116331Y638974D01*
X116331Y656426D01*
X117955Y660347D01*
X120957Y663349D01*
X124878Y664973D01*
X129122Y664973D01*
X133043Y663349D01*
X136045Y660347D01*
X137669Y656426D01*
X137669Y638974D01*
X136045Y635053D01*
X133043Y632051D01*
X129122Y630427D01*
X124878Y630427D01*
G37*
%LPD*%
%LPC*%
G36*
X277278Y554227D02*
X277278Y554227D01*
X273357Y555851D01*
X270355Y558853D01*
X268731Y562774D01*
X268731Y580226D01*
X270355Y584147D01*
X273357Y587149D01*
X277278Y588773D01*
X281522Y588773D01*
X285443Y587149D01*
X288445Y584147D01*
X290069Y580226D01*
X290069Y562774D01*
X288445Y558853D01*
X285443Y555851D01*
X281522Y554227D01*
X277278Y554227D01*
G37*
%LPD*%
%LPC*%
G36*
X328078Y554227D02*
X328078Y554227D01*
X324157Y555851D01*
X321155Y558853D01*
X319531Y562774D01*
X319531Y580226D01*
X321155Y584147D01*
X324157Y587149D01*
X328078Y588773D01*
X332322Y588773D01*
X336243Y587149D01*
X339245Y584147D01*
X340869Y580226D01*
X340869Y562774D01*
X339245Y558853D01*
X336243Y555851D01*
X332322Y554227D01*
X328078Y554227D01*
G37*
%LPD*%
%LPC*%
G36*
X353478Y554227D02*
X353478Y554227D01*
X349557Y555851D01*
X346555Y558853D01*
X344931Y562774D01*
X344931Y580226D01*
X346555Y584147D01*
X349557Y587149D01*
X353478Y588773D01*
X357722Y588773D01*
X361643Y587149D01*
X364645Y584147D01*
X366269Y580226D01*
X366269Y562774D01*
X364645Y558853D01*
X361643Y555851D01*
X357722Y554227D01*
X353478Y554227D01*
G37*
%LPD*%
%LPC*%
G36*
X99478Y554227D02*
X99478Y554227D01*
X95557Y555851D01*
X92555Y558853D01*
X90931Y562774D01*
X90931Y580226D01*
X92555Y584147D01*
X95557Y587149D01*
X99478Y588773D01*
X103722Y588773D01*
X107643Y587149D01*
X110645Y584147D01*
X112269Y580226D01*
X112269Y562774D01*
X110645Y558853D01*
X107643Y555851D01*
X103722Y554227D01*
X99478Y554227D01*
G37*
%LPD*%
%LPC*%
G36*
X404278Y554227D02*
X404278Y554227D01*
X400357Y555851D01*
X397355Y558853D01*
X395731Y562774D01*
X395731Y580226D01*
X397355Y584147D01*
X400357Y587149D01*
X404278Y588773D01*
X408522Y588773D01*
X412443Y587149D01*
X415445Y584147D01*
X417069Y580226D01*
X417069Y562774D01*
X415445Y558853D01*
X412443Y555851D01*
X408522Y554227D01*
X404278Y554227D01*
G37*
%LPD*%
%LPC*%
G36*
X378878Y554227D02*
X378878Y554227D01*
X374957Y555851D01*
X371955Y558853D01*
X370331Y562774D01*
X370331Y580226D01*
X371955Y584147D01*
X374957Y587149D01*
X378878Y588773D01*
X383122Y588773D01*
X387043Y587149D01*
X390045Y584147D01*
X391669Y580226D01*
X391669Y562774D01*
X390045Y558853D01*
X387043Y555851D01*
X383122Y554227D01*
X378878Y554227D01*
G37*
%LPD*%
%LPC*%
G36*
X421412Y836435D02*
X421412Y836435D01*
X416445Y838493D01*
X412643Y842295D01*
X410585Y847262D01*
X410585Y852638D01*
X412643Y857605D01*
X416445Y861407D01*
X421412Y863465D01*
X426788Y863465D01*
X431755Y861407D01*
X435557Y857605D01*
X437615Y852638D01*
X437615Y847262D01*
X435557Y842295D01*
X431755Y838493D01*
X426788Y836435D01*
X421412Y836435D01*
G37*
%LPD*%
%LPC*%
G36*
X421412Y747535D02*
X421412Y747535D01*
X416445Y749593D01*
X412643Y753395D01*
X410585Y758362D01*
X410585Y763738D01*
X412643Y768705D01*
X416445Y772507D01*
X421412Y774565D01*
X426788Y774565D01*
X431755Y772507D01*
X435557Y768705D01*
X437615Y763738D01*
X437615Y758362D01*
X435557Y753395D01*
X431755Y749593D01*
X426788Y747535D01*
X421412Y747535D01*
G37*
%LPD*%
%LPC*%
G36*
X200724Y787653D02*
X200724Y787653D01*
X196150Y789548D01*
X192648Y793050D01*
X190753Y797624D01*
X190753Y802576D01*
X192648Y807150D01*
X196150Y810652D01*
X200724Y812547D01*
X205676Y812547D01*
X210250Y810652D01*
X213752Y807150D01*
X215647Y802576D01*
X215647Y797624D01*
X213752Y793050D01*
X210250Y789548D01*
X205676Y787653D01*
X200724Y787653D01*
G37*
%LPD*%
%LPC*%
G36*
X200724Y686053D02*
X200724Y686053D01*
X196150Y687948D01*
X192648Y691450D01*
X190753Y696024D01*
X190753Y700976D01*
X192648Y705550D01*
X196150Y709052D01*
X200724Y710947D01*
X205676Y710947D01*
X210250Y709052D01*
X213752Y705550D01*
X215647Y700976D01*
X215647Y696024D01*
X213752Y691450D01*
X210250Y687948D01*
X205676Y686053D01*
X200724Y686053D01*
G37*
%LPD*%
%LPC*%
G36*
X554381Y217931D02*
X554381Y217931D01*
X548131Y224181D01*
X548131Y233019D01*
X554381Y239269D01*
X563219Y239269D01*
X569469Y233019D01*
X569469Y224181D01*
X563219Y217931D01*
X554381Y217931D01*
G37*
%LPD*%
%LPC*%
G36*
X325781Y217931D02*
X325781Y217931D01*
X319531Y224181D01*
X319531Y233019D01*
X325781Y239269D01*
X334619Y239269D01*
X340869Y233019D01*
X340869Y224181D01*
X334619Y217931D01*
X325781Y217931D01*
G37*
%LPD*%
%LPC*%
G36*
X452781Y217931D02*
X452781Y217931D01*
X446531Y224181D01*
X446531Y233019D01*
X452781Y239269D01*
X461619Y239269D01*
X467869Y233019D01*
X467869Y224181D01*
X461619Y217931D01*
X452781Y217931D01*
G37*
%LPD*%
%LPC*%
G36*
X427381Y174751D02*
X427381Y174751D01*
X421131Y181001D01*
X421131Y189839D01*
X427381Y196089D01*
X436219Y196089D01*
X442469Y189839D01*
X442469Y181001D01*
X436219Y174751D01*
X427381Y174751D01*
G37*
%LPD*%
%LPC*%
G36*
X427381Y891031D02*
X427381Y891031D01*
X421131Y897281D01*
X421131Y906119D01*
X427381Y912369D01*
X436219Y912369D01*
X442469Y906119D01*
X442469Y897281D01*
X436219Y891031D01*
X427381Y891031D01*
G37*
%LPD*%
%LPC*%
G36*
X465481Y598931D02*
X465481Y598931D01*
X459231Y605181D01*
X459231Y614019D01*
X465481Y620269D01*
X474319Y620269D01*
X480569Y614019D01*
X480569Y605181D01*
X474319Y598931D01*
X465481Y598931D01*
G37*
%LPD*%
%LPC*%
G36*
X313081Y433831D02*
X313081Y433831D01*
X306831Y440081D01*
X306831Y448919D01*
X313081Y455169D01*
X321919Y455169D01*
X328169Y448919D01*
X328169Y440081D01*
X321919Y433831D01*
X313081Y433831D01*
G37*
%LPD*%
%LPC*%
G36*
X528981Y560831D02*
X528981Y560831D01*
X522731Y567081D01*
X522731Y575919D01*
X528981Y582169D01*
X537819Y582169D01*
X544069Y575919D01*
X544069Y567081D01*
X537819Y560831D01*
X528981Y560831D01*
G37*
%LPD*%
%LPC*%
G36*
X465481Y738631D02*
X465481Y738631D01*
X459231Y744881D01*
X459231Y753719D01*
X465481Y759969D01*
X474319Y759969D01*
X480569Y753719D01*
X480569Y744881D01*
X474319Y738631D01*
X465481Y738631D01*
G37*
%LPD*%
%LPC*%
G36*
X186081Y433831D02*
X186081Y433831D01*
X179831Y440081D01*
X179831Y448919D01*
X186081Y455169D01*
X194919Y455169D01*
X201169Y448919D01*
X201169Y440081D01*
X194919Y433831D01*
X186081Y433831D01*
G37*
%LPD*%
%LPC*%
G36*
X300381Y764031D02*
X300381Y764031D01*
X294131Y770281D01*
X294131Y779119D01*
X300381Y785369D01*
X309219Y785369D01*
X315469Y779119D01*
X315469Y770281D01*
X309219Y764031D01*
X300381Y764031D01*
G37*
%LPD*%
%LPC*%
G36*
X249581Y713231D02*
X249581Y713231D01*
X243331Y719481D01*
X243331Y728319D01*
X249581Y734569D01*
X258419Y734569D01*
X264669Y728319D01*
X264669Y719481D01*
X258419Y713231D01*
X249581Y713231D01*
G37*
%LPD*%
%LPC*%
G36*
X427381Y217931D02*
X427381Y217931D01*
X421131Y224181D01*
X421131Y233019D01*
X427381Y239269D01*
X436219Y239269D01*
X442469Y233019D01*
X442469Y224181D01*
X436219Y217931D01*
X427381Y217931D01*
G37*
%LPD*%
%LPC*%
G36*
X135281Y687831D02*
X135281Y687831D01*
X129031Y694081D01*
X129031Y702919D01*
X135281Y709169D01*
X144119Y709169D01*
X150369Y702919D01*
X150369Y694081D01*
X144119Y687831D01*
X135281Y687831D01*
G37*
%LPD*%
%LPC*%
G36*
X351181Y891031D02*
X351181Y891031D01*
X344931Y897281D01*
X344931Y906119D01*
X351181Y912369D01*
X360019Y912369D01*
X366269Y906119D01*
X366269Y897281D01*
X360019Y891031D01*
X351181Y891031D01*
G37*
%LPD*%
%LPC*%
G36*
X135281Y789431D02*
X135281Y789431D01*
X129031Y795681D01*
X129031Y804519D01*
X135281Y810769D01*
X144119Y810769D01*
X150369Y804519D01*
X150369Y795681D01*
X144119Y789431D01*
X135281Y789431D01*
G37*
%LPD*%
%LPC*%
G36*
X465481Y637031D02*
X465481Y637031D01*
X459231Y643281D01*
X459231Y652119D01*
X465481Y658369D01*
X474319Y658369D01*
X480569Y652119D01*
X480569Y643281D01*
X474319Y637031D01*
X465481Y637031D01*
G37*
%LPD*%
%LPC*%
G36*
X528981Y700531D02*
X528981Y700531D01*
X522731Y706781D01*
X522731Y715619D01*
X528981Y721869D01*
X537819Y721869D01*
X544069Y715619D01*
X544069Y706781D01*
X537819Y700531D01*
X528981Y700531D01*
G37*
%LPD*%
%LPC*%
G36*
X253148Y510031D02*
X253148Y510031D01*
X249227Y511655D01*
X246225Y514657D01*
X244601Y518578D01*
X244601Y522822D01*
X246225Y526743D01*
X249227Y529745D01*
X253148Y531369D01*
X257392Y531369D01*
X261313Y529745D01*
X264315Y526743D01*
X265939Y522822D01*
X265939Y518578D01*
X264315Y514657D01*
X261313Y511655D01*
X257392Y510031D01*
X253148Y510031D01*
G37*
%LPD*%
%LPC*%
G36*
X195299Y865599D02*
X195299Y865599D01*
X195299Y887836D01*
X196453Y887653D01*
X198468Y886998D01*
X200356Y886036D01*
X202070Y884791D01*
X203569Y883292D01*
X204814Y881578D01*
X205776Y879690D01*
X206431Y877675D01*
X206763Y875582D01*
X206763Y865599D01*
X195299Y865599D01*
G37*
%LPD*%
%LPC*%
G36*
X243299Y895599D02*
X243299Y895599D01*
X243299Y907063D01*
X253282Y907063D01*
X255375Y906731D01*
X257390Y906076D01*
X259278Y905114D01*
X260992Y903869D01*
X262491Y902370D01*
X263736Y900656D01*
X264698Y898768D01*
X265353Y896753D01*
X265536Y895599D01*
X243299Y895599D01*
G37*
%LPD*%
%LPC*%
G36*
X217064Y895599D02*
X217064Y895599D01*
X217247Y896753D01*
X217902Y898768D01*
X218864Y900656D01*
X220109Y902370D01*
X221608Y903869D01*
X223322Y905114D01*
X225210Y906076D01*
X227225Y906731D01*
X229318Y907063D01*
X239301Y907063D01*
X239301Y895599D01*
X217064Y895599D01*
G37*
%LPD*%
%LPC*%
G36*
X195299Y861601D02*
X195299Y861601D01*
X206763Y861601D01*
X206763Y851618D01*
X206431Y849525D01*
X205776Y847510D01*
X204814Y845622D01*
X203569Y843908D01*
X202070Y842409D01*
X200356Y841164D01*
X198468Y840202D01*
X196453Y839547D01*
X195299Y839364D01*
X195299Y861601D01*
G37*
%LPD*%
%LPC*%
G36*
X243299Y880137D02*
X243299Y880137D01*
X243299Y891601D01*
X265536Y891601D01*
X265353Y890447D01*
X264698Y888432D01*
X263736Y886544D01*
X262491Y884830D01*
X260992Y883331D01*
X259278Y882086D01*
X257390Y881124D01*
X255375Y880469D01*
X253282Y880137D01*
X243299Y880137D01*
G37*
%LPD*%
%LPC*%
G36*
X179837Y865599D02*
X179837Y865599D01*
X179837Y875582D01*
X180169Y877675D01*
X180824Y879690D01*
X181786Y881578D01*
X183031Y883292D01*
X184530Y884791D01*
X186244Y886036D01*
X188132Y886998D01*
X190147Y887653D01*
X191301Y887836D01*
X191301Y865599D01*
X179837Y865599D01*
G37*
%LPD*%
%LPC*%
G36*
X190147Y839547D02*
X190147Y839547D01*
X188132Y840202D01*
X186244Y841164D01*
X184530Y842409D01*
X183031Y843908D01*
X181786Y845622D01*
X180824Y847510D01*
X180169Y849525D01*
X179837Y851618D01*
X179837Y861601D01*
X191301Y861601D01*
X191301Y839364D01*
X190147Y839547D01*
G37*
%LPD*%
%LPC*%
G36*
X229318Y880137D02*
X229318Y880137D01*
X227225Y880469D01*
X225210Y881124D01*
X223322Y882086D01*
X221608Y883331D01*
X220109Y884830D01*
X218864Y886544D01*
X217902Y888432D01*
X217247Y890447D01*
X217064Y891601D01*
X239301Y891601D01*
X239301Y880137D01*
X229318Y880137D01*
G37*
%LPD*%
%LPC*%
G36*
X192531Y217931D02*
X192531Y217931D01*
X192531Y231141D01*
X196813Y231141D01*
X205741Y222213D01*
X205741Y217931D01*
X192531Y217931D01*
G37*
%LPD*%
%LPC*%
G36*
X268731Y217931D02*
X268731Y217931D01*
X268731Y231141D01*
X273013Y231141D01*
X281941Y222213D01*
X281941Y217931D01*
X268731Y217931D01*
G37*
%LPD*%
%LPC*%
G36*
X175259Y217931D02*
X175259Y217931D01*
X175259Y222213D01*
X184187Y231141D01*
X188469Y231141D01*
X188469Y217931D01*
X175259Y217931D01*
G37*
%LPD*%
%LPC*%
G36*
X192531Y200659D02*
X192531Y200659D01*
X192531Y213869D01*
X205741Y213869D01*
X205741Y209587D01*
X196813Y200659D01*
X192531Y200659D01*
G37*
%LPD*%
%LPC*%
G36*
X251459Y217931D02*
X251459Y217931D01*
X251459Y222213D01*
X260387Y231141D01*
X264669Y231141D01*
X264669Y217931D01*
X251459Y217931D01*
G37*
%LPD*%
%LPC*%
G36*
X268731Y200659D02*
X268731Y200659D01*
X268731Y213869D01*
X281941Y213869D01*
X281941Y209587D01*
X273013Y200659D01*
X268731Y200659D01*
G37*
%LPD*%
%LPC*%
G36*
X260387Y200659D02*
X260387Y200659D01*
X251459Y209587D01*
X251459Y213869D01*
X264669Y213869D01*
X264669Y200659D01*
X260387Y200659D01*
G37*
%LPD*%
%LPC*%
G36*
X184187Y200659D02*
X184187Y200659D01*
X175259Y209587D01*
X175259Y213869D01*
X188469Y213869D01*
X188469Y200659D01*
X184187Y200659D01*
G37*
%LPD*%
%LPC*%
G36*
X123951Y475233D02*
X123951Y475233D01*
X123951Y482855D01*
X129832Y482855D01*
X131411Y482605D01*
X132932Y482110D01*
X134357Y481384D01*
X135651Y480444D01*
X136782Y479313D01*
X137722Y478019D01*
X138448Y476594D01*
X138891Y475233D01*
X123951Y475233D01*
G37*
%LPD*%
%LPC*%
G36*
X147827Y342645D02*
X147827Y342645D01*
X147827Y350267D01*
X153708Y350267D01*
X155287Y350017D01*
X156808Y349522D01*
X158233Y348796D01*
X159527Y347856D01*
X160658Y346725D01*
X161598Y345431D01*
X162324Y344006D01*
X162767Y342645D01*
X147827Y342645D01*
G37*
%LPD*%
%LPC*%
G36*
X327151Y342645D02*
X327151Y342645D01*
X327151Y350267D01*
X333032Y350267D01*
X334611Y350017D01*
X336132Y349522D01*
X337557Y348796D01*
X338851Y347856D01*
X339982Y346725D01*
X340922Y345431D01*
X341648Y344006D01*
X342091Y342645D01*
X327151Y342645D01*
G37*
%LPD*%
%LPC*%
G36*
X212851Y342645D02*
X212851Y342645D01*
X212851Y350267D01*
X218732Y350267D01*
X220311Y350017D01*
X221832Y349522D01*
X223257Y348796D01*
X224551Y347856D01*
X225682Y346725D01*
X226622Y345431D01*
X227348Y344006D01*
X227791Y342645D01*
X212851Y342645D01*
G37*
%LPD*%
%LPC*%
G36*
X58927Y475233D02*
X58927Y475233D01*
X58927Y482855D01*
X64808Y482855D01*
X66387Y482605D01*
X67908Y482110D01*
X69333Y481384D01*
X70627Y480444D01*
X71758Y479313D01*
X72698Y478019D01*
X73424Y476594D01*
X73867Y475233D01*
X58927Y475233D01*
G37*
%LPD*%
%LPC*%
G36*
X262127Y342645D02*
X262127Y342645D01*
X262127Y350267D01*
X268008Y350267D01*
X269587Y350017D01*
X271108Y349522D01*
X272533Y348796D01*
X273827Y347856D01*
X274958Y346725D01*
X275898Y345431D01*
X276624Y344006D01*
X277067Y342645D01*
X262127Y342645D01*
G37*
%LPD*%
%LPC*%
G36*
X53339Y345439D02*
X53339Y345439D01*
X53339Y353061D01*
X59220Y353061D01*
X60799Y352811D01*
X62320Y352316D01*
X63745Y351590D01*
X65039Y350650D01*
X66170Y349519D01*
X67110Y348225D01*
X67836Y346800D01*
X68279Y345439D01*
X53339Y345439D01*
G37*
%LPD*%
%LPC*%
G36*
X242109Y342645D02*
X242109Y342645D01*
X242552Y344006D01*
X243278Y345431D01*
X244218Y346725D01*
X245349Y347856D01*
X246643Y348796D01*
X248068Y349522D01*
X249589Y350017D01*
X251168Y350267D01*
X257049Y350267D01*
X257049Y342645D01*
X242109Y342645D01*
G37*
%LPD*%
%LPC*%
G36*
X103933Y475233D02*
X103933Y475233D01*
X104376Y476594D01*
X105102Y478019D01*
X106042Y479313D01*
X107173Y480444D01*
X108467Y481384D01*
X109892Y482110D01*
X111413Y482605D01*
X112992Y482855D01*
X118873Y482855D01*
X118873Y475233D01*
X103933Y475233D01*
G37*
%LPD*%
%LPC*%
G36*
X33321Y345439D02*
X33321Y345439D01*
X33764Y346800D01*
X34490Y348225D01*
X35430Y349519D01*
X36561Y350650D01*
X37855Y351590D01*
X39280Y352316D01*
X40801Y352811D01*
X42380Y353061D01*
X48261Y353061D01*
X48261Y345439D01*
X33321Y345439D01*
G37*
%LPD*%
%LPC*%
G36*
X307133Y342645D02*
X307133Y342645D01*
X307576Y344006D01*
X308302Y345431D01*
X309242Y346725D01*
X310373Y347856D01*
X311667Y348796D01*
X313092Y349522D01*
X314613Y350017D01*
X316192Y350267D01*
X322073Y350267D01*
X322073Y342645D01*
X307133Y342645D01*
G37*
%LPD*%
%LPC*%
G36*
X192833Y342645D02*
X192833Y342645D01*
X193276Y344006D01*
X194002Y345431D01*
X194942Y346725D01*
X196073Y347856D01*
X197367Y348796D01*
X198792Y349522D01*
X200313Y350017D01*
X201892Y350267D01*
X207773Y350267D01*
X207773Y342645D01*
X192833Y342645D01*
G37*
%LPD*%
%LPC*%
G36*
X127809Y342645D02*
X127809Y342645D01*
X128252Y344006D01*
X128978Y345431D01*
X129918Y346725D01*
X131049Y347856D01*
X132343Y348796D01*
X133768Y349522D01*
X135289Y350017D01*
X136868Y350267D01*
X142749Y350267D01*
X142749Y342645D01*
X127809Y342645D01*
G37*
%LPD*%
%LPC*%
G36*
X38909Y475233D02*
X38909Y475233D01*
X39352Y476594D01*
X40078Y478019D01*
X41018Y479313D01*
X42149Y480444D01*
X43443Y481384D01*
X44868Y482110D01*
X46389Y482605D01*
X47968Y482855D01*
X53849Y482855D01*
X53849Y475233D01*
X38909Y475233D01*
G37*
%LPD*%
%LPC*%
G36*
X212851Y329945D02*
X212851Y329945D01*
X212851Y337567D01*
X227791Y337567D01*
X227348Y336206D01*
X226622Y334781D01*
X225682Y333487D01*
X224551Y332356D01*
X223257Y331416D01*
X221832Y330690D01*
X220311Y330195D01*
X218732Y329945D01*
X212851Y329945D01*
G37*
%LPD*%
%LPC*%
G36*
X53339Y332739D02*
X53339Y332739D01*
X53339Y340361D01*
X68279Y340361D01*
X67836Y339000D01*
X67110Y337575D01*
X66170Y336281D01*
X65039Y335150D01*
X63745Y334210D01*
X62320Y333484D01*
X60799Y332989D01*
X59220Y332739D01*
X53339Y332739D01*
G37*
%LPD*%
%LPC*%
G36*
X147827Y329945D02*
X147827Y329945D01*
X147827Y337567D01*
X162767Y337567D01*
X162324Y336206D01*
X161598Y334781D01*
X160658Y333487D01*
X159527Y332356D01*
X158233Y331416D01*
X156808Y330690D01*
X155287Y330195D01*
X153708Y329945D01*
X147827Y329945D01*
G37*
%LPD*%
%LPC*%
G36*
X262127Y329945D02*
X262127Y329945D01*
X262127Y337567D01*
X277067Y337567D01*
X276624Y336206D01*
X275898Y334781D01*
X274958Y333487D01*
X273827Y332356D01*
X272533Y331416D01*
X271108Y330690D01*
X269587Y330195D01*
X268008Y329945D01*
X262127Y329945D01*
G37*
%LPD*%
%LPC*%
G36*
X58927Y462533D02*
X58927Y462533D01*
X58927Y470155D01*
X73867Y470155D01*
X73424Y468794D01*
X72698Y467369D01*
X71758Y466075D01*
X70627Y464944D01*
X69333Y464004D01*
X67908Y463278D01*
X66387Y462783D01*
X64808Y462533D01*
X58927Y462533D01*
G37*
%LPD*%
%LPC*%
G36*
X123951Y462533D02*
X123951Y462533D01*
X123951Y470155D01*
X138891Y470155D01*
X138448Y468794D01*
X137722Y467369D01*
X136782Y466075D01*
X135651Y464944D01*
X134357Y464004D01*
X132932Y463278D01*
X131411Y462783D01*
X129832Y462533D01*
X123951Y462533D01*
G37*
%LPD*%
%LPC*%
G36*
X327151Y329945D02*
X327151Y329945D01*
X327151Y337567D01*
X342091Y337567D01*
X341648Y336206D01*
X340922Y334781D01*
X339982Y333487D01*
X338851Y332356D01*
X337557Y331416D01*
X336132Y330690D01*
X334611Y330195D01*
X333032Y329945D01*
X327151Y329945D01*
G37*
%LPD*%
%LPC*%
G36*
X42380Y332739D02*
X42380Y332739D01*
X40801Y332989D01*
X39280Y333484D01*
X37855Y334210D01*
X36897Y334905D01*
X36897Y334906D01*
X36561Y335150D01*
X35430Y336281D01*
X34490Y337575D01*
X33764Y339000D01*
X33321Y340361D01*
X48261Y340361D01*
X48261Y332739D01*
X42380Y332739D01*
G37*
%LPD*%
%LPC*%
G36*
X136868Y329945D02*
X136868Y329945D01*
X135289Y330195D01*
X133768Y330690D01*
X132343Y331416D01*
X131049Y332356D01*
X129918Y333487D01*
X128978Y334781D01*
X128252Y336206D01*
X127809Y337567D01*
X142749Y337567D01*
X142749Y329945D01*
X136868Y329945D01*
G37*
%LPD*%
%LPC*%
G36*
X251168Y329945D02*
X251168Y329945D01*
X249589Y330195D01*
X248068Y330690D01*
X246643Y331416D01*
X245349Y332356D01*
X244218Y333487D01*
X243278Y334781D01*
X242552Y336206D01*
X242109Y337567D01*
X257049Y337567D01*
X257049Y329945D01*
X251168Y329945D01*
G37*
%LPD*%
%LPC*%
G36*
X112992Y462533D02*
X112992Y462533D01*
X111413Y462783D01*
X109892Y463278D01*
X108467Y464004D01*
X107173Y464944D01*
X106042Y466075D01*
X105102Y467369D01*
X104376Y468794D01*
X103933Y470155D01*
X118873Y470155D01*
X118873Y462533D01*
X112992Y462533D01*
G37*
%LPD*%
%LPC*%
G36*
X201892Y329945D02*
X201892Y329945D01*
X200313Y330195D01*
X198792Y330690D01*
X197367Y331416D01*
X196073Y332356D01*
X194942Y333487D01*
X194002Y334781D01*
X193276Y336206D01*
X192833Y337567D01*
X207773Y337567D01*
X207773Y329945D01*
X201892Y329945D01*
G37*
%LPD*%
%LPC*%
G36*
X316192Y329945D02*
X316192Y329945D01*
X314613Y330195D01*
X313092Y330690D01*
X311667Y331416D01*
X310373Y332356D01*
X309242Y333487D01*
X308302Y334781D01*
X307576Y336206D01*
X307133Y337567D01*
X322073Y337567D01*
X322073Y329945D01*
X316192Y329945D01*
G37*
%LPD*%
%LPC*%
G36*
X47968Y462533D02*
X47968Y462533D01*
X46389Y462783D01*
X44868Y463278D01*
X43443Y464004D01*
X42149Y464944D01*
X41018Y466075D01*
X40078Y467369D01*
X39352Y468794D01*
X38909Y470155D01*
X53849Y470155D01*
X53849Y462533D01*
X47968Y462533D01*
G37*
%LPD*%
%LPC*%
G36*
X306831Y573531D02*
X306831Y573531D01*
X306831Y587041D01*
X306941Y587024D01*
X308310Y586579D01*
X309593Y585925D01*
X310757Y585079D01*
X311775Y584061D01*
X312621Y582897D01*
X313275Y581614D01*
X313720Y580245D01*
X313945Y578824D01*
X313945Y573531D01*
X306831Y573531D01*
G37*
%LPD*%
%LPC*%
G36*
X230631Y649731D02*
X230631Y649731D01*
X230631Y663241D01*
X230741Y663224D01*
X232110Y662779D01*
X233393Y662125D01*
X234557Y661279D01*
X235575Y660261D01*
X236421Y659097D01*
X237075Y657814D01*
X237520Y656445D01*
X237745Y655024D01*
X237745Y649731D01*
X230631Y649731D01*
G37*
%LPD*%
%LPC*%
G36*
X306831Y569469D02*
X306831Y569469D01*
X313945Y569469D01*
X313945Y564176D01*
X313720Y562755D01*
X313275Y561386D01*
X312621Y560103D01*
X311775Y558939D01*
X310757Y557921D01*
X309593Y557075D01*
X308310Y556421D01*
X306941Y555976D01*
X306831Y555959D01*
X306831Y569469D01*
G37*
%LPD*%
%LPC*%
G36*
X230631Y645669D02*
X230631Y645669D01*
X237745Y645669D01*
X237745Y640376D01*
X237520Y638955D01*
X237075Y637586D01*
X236421Y636303D01*
X235575Y635139D01*
X234557Y634121D01*
X233393Y633275D01*
X232110Y632621D01*
X230741Y632176D01*
X230631Y632159D01*
X230631Y645669D01*
G37*
%LPD*%
%LPC*%
G36*
X256031Y569469D02*
X256031Y569469D01*
X263145Y569469D01*
X263145Y564176D01*
X262920Y562755D01*
X262475Y561386D01*
X261821Y560103D01*
X260975Y558939D01*
X259957Y557921D01*
X258793Y557075D01*
X257510Y556421D01*
X256141Y555976D01*
X256031Y555959D01*
X256031Y569469D01*
G37*
%LPD*%
%LPC*%
G36*
X295655Y573531D02*
X295655Y573531D01*
X295655Y578824D01*
X295880Y580245D01*
X296325Y581614D01*
X296979Y582897D01*
X297825Y584061D01*
X298843Y585079D01*
X300007Y585925D01*
X301290Y586579D01*
X302659Y587024D01*
X302769Y587041D01*
X302769Y573531D01*
X295655Y573531D01*
G37*
%LPD*%
%LPC*%
G36*
X219455Y649731D02*
X219455Y649731D01*
X219455Y655024D01*
X219680Y656445D01*
X220125Y657814D01*
X220779Y659097D01*
X221625Y660261D01*
X222643Y661279D01*
X223807Y662125D01*
X225090Y662779D01*
X226459Y663224D01*
X226569Y663241D01*
X226569Y649731D01*
X219455Y649731D01*
G37*
%LPD*%
%LPC*%
G36*
X302659Y555976D02*
X302659Y555976D01*
X301290Y556421D01*
X300007Y557075D01*
X298843Y557921D01*
X297825Y558939D01*
X296979Y560103D01*
X296325Y561386D01*
X295880Y562755D01*
X295655Y564176D01*
X295655Y569469D01*
X302769Y569469D01*
X302769Y555959D01*
X302659Y555976D01*
G37*
%LPD*%
%LPC*%
G36*
X226459Y632176D02*
X226459Y632176D01*
X225090Y632621D01*
X223807Y633275D01*
X222643Y634121D01*
X221625Y635139D01*
X220779Y636303D01*
X220125Y637586D01*
X219680Y638955D01*
X219455Y640376D01*
X219455Y645669D01*
X226569Y645669D01*
X226569Y632159D01*
X226459Y632176D01*
G37*
%LPD*%
%LPC*%
G36*
X251859Y555976D02*
X251859Y555976D01*
X250490Y556421D01*
X249207Y557075D01*
X248043Y557921D01*
X247025Y558939D01*
X246179Y560103D01*
X245525Y561386D01*
X245080Y562755D01*
X244855Y564176D01*
X244855Y569469D01*
X251969Y569469D01*
X251969Y555959D01*
X251859Y555976D01*
G37*
%LPD*%
%LPC*%
G36*
X433959Y294639D02*
X433959Y294639D01*
X433959Y300434D01*
X434132Y301081D01*
X434467Y301660D01*
X434940Y302133D01*
X435519Y302468D01*
X436166Y302641D01*
X441961Y302641D01*
X441961Y294639D01*
X433959Y294639D01*
G37*
%LPD*%
%LPC*%
G36*
X396239Y852489D02*
X396239Y852489D01*
X396239Y861688D01*
X396508Y861645D01*
X398303Y861062D01*
X399984Y860205D01*
X401511Y859096D01*
X402846Y857761D01*
X403955Y856234D01*
X404812Y854553D01*
X405395Y852758D01*
X405438Y852489D01*
X396239Y852489D01*
G37*
%LPD*%
%LPC*%
G36*
X396239Y763589D02*
X396239Y763589D01*
X396239Y772788D01*
X396508Y772745D01*
X398303Y772162D01*
X399984Y771305D01*
X401511Y770196D01*
X402846Y768861D01*
X403955Y767334D01*
X404812Y765653D01*
X405395Y763858D01*
X405438Y763589D01*
X396239Y763589D01*
G37*
%LPD*%
%LPC*%
G36*
X396239Y847411D02*
X396239Y847411D01*
X405438Y847411D01*
X405395Y847142D01*
X404812Y845347D01*
X403955Y843666D01*
X402846Y842139D01*
X401511Y840804D01*
X399984Y839695D01*
X398303Y838838D01*
X396508Y838255D01*
X396239Y838212D01*
X396239Y847411D01*
G37*
%LPD*%
%LPC*%
G36*
X381962Y852489D02*
X381962Y852489D01*
X382005Y852758D01*
X382588Y854553D01*
X383445Y856234D01*
X384554Y857761D01*
X385889Y859096D01*
X387416Y860205D01*
X389097Y861062D01*
X390892Y861645D01*
X391161Y861688D01*
X391161Y852489D01*
X381962Y852489D01*
G37*
%LPD*%
%LPC*%
G36*
X381962Y763589D02*
X381962Y763589D01*
X382005Y763858D01*
X382588Y765653D01*
X383445Y767334D01*
X384554Y768861D01*
X385889Y770196D01*
X387416Y771305D01*
X389097Y772162D01*
X390892Y772745D01*
X391161Y772788D01*
X391161Y763589D01*
X381962Y763589D01*
G37*
%LPD*%
%LPC*%
G36*
X396239Y758511D02*
X396239Y758511D01*
X405438Y758511D01*
X405395Y758242D01*
X404812Y756447D01*
X403955Y754766D01*
X402846Y753239D01*
X401511Y751904D01*
X399984Y750795D01*
X398303Y749938D01*
X396508Y749355D01*
X396239Y749312D01*
X396239Y758511D01*
G37*
%LPD*%
%LPC*%
G36*
X390892Y749355D02*
X390892Y749355D01*
X389097Y749938D01*
X387416Y750795D01*
X385889Y751904D01*
X384554Y753239D01*
X383445Y754766D01*
X382588Y756447D01*
X382005Y758242D01*
X381962Y758511D01*
X391161Y758511D01*
X391161Y749312D01*
X390892Y749355D01*
G37*
%LPD*%
%LPC*%
G36*
X390892Y838255D02*
X390892Y838255D01*
X389097Y838838D01*
X387416Y839695D01*
X385889Y840804D01*
X384554Y842139D01*
X383445Y843666D01*
X382588Y845347D01*
X382005Y847142D01*
X381962Y847411D01*
X391161Y847411D01*
X391161Y838212D01*
X390892Y838255D01*
G37*
%LPD*%
%LPC*%
G36*
X66039Y726439D02*
X66039Y726439D01*
X66039Y734061D01*
X67709Y734061D01*
X73661Y728109D01*
X73661Y726439D01*
X66039Y726439D01*
G37*
%LPD*%
%LPC*%
G36*
X53339Y726439D02*
X53339Y726439D01*
X53339Y728109D01*
X59291Y734061D01*
X60961Y734061D01*
X60961Y726439D01*
X53339Y726439D01*
G37*
%LPD*%
%LPC*%
G36*
X66039Y713739D02*
X66039Y713739D01*
X66039Y721361D01*
X73661Y721361D01*
X73661Y719691D01*
X67709Y713739D01*
X66039Y713739D01*
G37*
%LPD*%
%LPC*%
G36*
X59291Y713739D02*
X59291Y713739D01*
X53339Y719691D01*
X53339Y721361D01*
X60961Y721361D01*
X60961Y713739D01*
X59291Y713739D01*
G37*
%LPD*%
%LPC*%
G36*
X574039Y904239D02*
X574039Y904239D01*
X574039Y911559D01*
X575400Y911116D01*
X576825Y910390D01*
X578119Y909450D01*
X579250Y908319D01*
X580190Y907025D01*
X580916Y905600D01*
X581359Y904239D01*
X574039Y904239D01*
G37*
%LPD*%
%LPC*%
G36*
X574039Y815339D02*
X574039Y815339D01*
X574039Y822659D01*
X575400Y822216D01*
X576825Y821490D01*
X578119Y820550D01*
X579250Y819419D01*
X580190Y818125D01*
X580916Y816700D01*
X581359Y815339D01*
X574039Y815339D01*
G37*
%LPD*%
%LPC*%
G36*
X561641Y904239D02*
X561641Y904239D01*
X562084Y905600D01*
X562810Y907025D01*
X563750Y908319D01*
X564881Y909450D01*
X566175Y910390D01*
X567600Y911116D01*
X568961Y911559D01*
X568961Y904239D01*
X561641Y904239D01*
G37*
%LPD*%
%LPC*%
G36*
X574039Y810261D02*
X574039Y810261D01*
X581359Y810261D01*
X580916Y808900D01*
X580190Y807475D01*
X579250Y806181D01*
X578119Y805050D01*
X576825Y804110D01*
X575400Y803384D01*
X574039Y802941D01*
X574039Y810261D01*
G37*
%LPD*%
%LPC*%
G36*
X561641Y815339D02*
X561641Y815339D01*
X562084Y816700D01*
X562810Y818125D01*
X563750Y819419D01*
X564881Y820550D01*
X566175Y821490D01*
X567600Y822216D01*
X568961Y822659D01*
X568961Y815339D01*
X561641Y815339D01*
G37*
%LPD*%
%LPC*%
G36*
X574039Y899161D02*
X574039Y899161D01*
X581359Y899161D01*
X580916Y897800D01*
X580190Y896375D01*
X579250Y895081D01*
X578119Y893950D01*
X576825Y893010D01*
X575400Y892284D01*
X574039Y891841D01*
X574039Y899161D01*
G37*
%LPD*%
%LPC*%
G36*
X567600Y803384D02*
X567600Y803384D01*
X566175Y804110D01*
X564881Y805050D01*
X563750Y806181D01*
X562810Y807475D01*
X562084Y808900D01*
X561641Y810261D01*
X568961Y810261D01*
X568961Y802941D01*
X567600Y803384D01*
G37*
%LPD*%
%LPC*%
G36*
X567600Y892284D02*
X567600Y892284D01*
X566175Y893010D01*
X564881Y893950D01*
X563750Y895081D01*
X562810Y896375D01*
X562084Y897800D01*
X561641Y899161D01*
X568961Y899161D01*
X568961Y891841D01*
X567600Y892284D01*
G37*
%LPD*%
%LPC*%
G36*
X256031Y395731D02*
X256031Y395731D01*
X256031Y402845D01*
X257788Y402845D01*
X263145Y397488D01*
X263145Y395731D01*
X256031Y395731D01*
G37*
%LPD*%
%LPC*%
G36*
X256031Y446531D02*
X256031Y446531D01*
X256031Y453645D01*
X257788Y453645D01*
X263145Y448288D01*
X263145Y446531D01*
X256031Y446531D01*
G37*
%LPD*%
%LPC*%
G36*
X256031Y776731D02*
X256031Y776731D01*
X256031Y783845D01*
X257788Y783845D01*
X263145Y778488D01*
X263145Y776731D01*
X256031Y776731D01*
G37*
%LPD*%
%LPC*%
G36*
X433831Y954531D02*
X433831Y954531D01*
X433831Y961645D01*
X435588Y961645D01*
X440945Y956288D01*
X440945Y954531D01*
X433831Y954531D01*
G37*
%LPD*%
%LPC*%
G36*
X560831Y573531D02*
X560831Y573531D01*
X560831Y580645D01*
X562588Y580645D01*
X567945Y575288D01*
X567945Y573531D01*
X560831Y573531D01*
G37*
%LPD*%
%LPC*%
G36*
X319531Y395731D02*
X319531Y395731D01*
X319531Y402845D01*
X321288Y402845D01*
X326645Y397488D01*
X326645Y395731D01*
X319531Y395731D01*
G37*
%LPD*%
%LPC*%
G36*
X357631Y954531D02*
X357631Y954531D01*
X357631Y961645D01*
X359388Y961645D01*
X364745Y956288D01*
X364745Y954531D01*
X357631Y954531D01*
G37*
%LPD*%
%LPC*%
G36*
X192531Y395731D02*
X192531Y395731D01*
X192531Y402845D01*
X194288Y402845D01*
X199645Y397488D01*
X199645Y395731D01*
X192531Y395731D01*
G37*
%LPD*%
%LPC*%
G36*
X332231Y187451D02*
X332231Y187451D01*
X332231Y194565D01*
X333988Y194565D01*
X339345Y189208D01*
X339345Y187451D01*
X332231Y187451D01*
G37*
%LPD*%
%LPC*%
G36*
X560831Y713231D02*
X560831Y713231D01*
X560831Y720345D01*
X562588Y720345D01*
X567945Y714988D01*
X567945Y713231D01*
X560831Y713231D01*
G37*
%LPD*%
%LPC*%
G36*
X306831Y725931D02*
X306831Y725931D01*
X306831Y733045D01*
X308588Y733045D01*
X313945Y727688D01*
X313945Y725931D01*
X306831Y725931D01*
G37*
%LPD*%
%LPC*%
G36*
X244855Y395731D02*
X244855Y395731D01*
X244855Y397488D01*
X250212Y402845D01*
X251969Y402845D01*
X251969Y395731D01*
X244855Y395731D01*
G37*
%LPD*%
%LPC*%
G36*
X422655Y954531D02*
X422655Y954531D01*
X422655Y956288D01*
X428012Y961645D01*
X429769Y961645D01*
X429769Y954531D01*
X422655Y954531D01*
G37*
%LPD*%
%LPC*%
G36*
X295655Y725931D02*
X295655Y725931D01*
X295655Y727688D01*
X301012Y733045D01*
X302769Y733045D01*
X302769Y725931D01*
X295655Y725931D01*
G37*
%LPD*%
%LPC*%
G36*
X346455Y954531D02*
X346455Y954531D01*
X346455Y956288D01*
X351812Y961645D01*
X353569Y961645D01*
X353569Y954531D01*
X346455Y954531D01*
G37*
%LPD*%
%LPC*%
G36*
X244855Y776731D02*
X244855Y776731D01*
X244855Y778488D01*
X250212Y783845D01*
X251969Y783845D01*
X251969Y776731D01*
X244855Y776731D01*
G37*
%LPD*%
%LPC*%
G36*
X244855Y446531D02*
X244855Y446531D01*
X244855Y448288D01*
X250212Y453645D01*
X251969Y453645D01*
X251969Y446531D01*
X244855Y446531D01*
G37*
%LPD*%
%LPC*%
G36*
X181355Y395731D02*
X181355Y395731D01*
X181355Y397488D01*
X186712Y402845D01*
X188469Y402845D01*
X188469Y395731D01*
X181355Y395731D01*
G37*
%LPD*%
%LPC*%
G36*
X321055Y187451D02*
X321055Y187451D01*
X321055Y189208D01*
X326412Y194565D01*
X328169Y194565D01*
X328169Y187451D01*
X321055Y187451D01*
G37*
%LPD*%
%LPC*%
G36*
X549655Y713231D02*
X549655Y713231D01*
X549655Y714988D01*
X555012Y720345D01*
X556769Y720345D01*
X556769Y713231D01*
X549655Y713231D01*
G37*
%LPD*%
%LPC*%
G36*
X308355Y395731D02*
X308355Y395731D01*
X308355Y397488D01*
X313712Y402845D01*
X315469Y402845D01*
X315469Y395731D01*
X308355Y395731D01*
G37*
%LPD*%
%LPC*%
G36*
X549655Y573531D02*
X549655Y573531D01*
X549655Y575288D01*
X555012Y580645D01*
X556769Y580645D01*
X556769Y573531D01*
X549655Y573531D01*
G37*
%LPD*%
%LPC*%
G36*
X560831Y702055D02*
X560831Y702055D01*
X560831Y709169D01*
X567945Y709169D01*
X567945Y707412D01*
X562588Y702055D01*
X560831Y702055D01*
G37*
%LPD*%
%LPC*%
G36*
X560831Y562355D02*
X560831Y562355D01*
X560831Y569469D01*
X567945Y569469D01*
X567945Y567712D01*
X562588Y562355D01*
X560831Y562355D01*
G37*
%LPD*%
%LPC*%
G36*
X357631Y943355D02*
X357631Y943355D01*
X357631Y950469D01*
X364745Y950469D01*
X364745Y948712D01*
X359388Y943355D01*
X357631Y943355D01*
G37*
%LPD*%
%LPC*%
G36*
X256031Y435355D02*
X256031Y435355D01*
X256031Y442469D01*
X263145Y442469D01*
X263145Y440712D01*
X257788Y435355D01*
X256031Y435355D01*
G37*
%LPD*%
%LPC*%
G36*
X256031Y384555D02*
X256031Y384555D01*
X256031Y391669D01*
X263145Y391669D01*
X263145Y389912D01*
X257788Y384555D01*
X256031Y384555D01*
G37*
%LPD*%
%LPC*%
G36*
X192531Y384555D02*
X192531Y384555D01*
X192531Y391669D01*
X199645Y391669D01*
X199645Y389912D01*
X194288Y384555D01*
X192531Y384555D01*
G37*
%LPD*%
%LPC*%
G36*
X332231Y176275D02*
X332231Y176275D01*
X332231Y183389D01*
X339345Y183389D01*
X339345Y181632D01*
X333988Y176275D01*
X332231Y176275D01*
G37*
%LPD*%
%LPC*%
G36*
X433831Y943355D02*
X433831Y943355D01*
X433831Y950469D01*
X440945Y950469D01*
X440945Y948712D01*
X435588Y943355D01*
X433831Y943355D01*
G37*
%LPD*%
%LPC*%
G36*
X306831Y714755D02*
X306831Y714755D01*
X306831Y721869D01*
X313945Y721869D01*
X313945Y720112D01*
X308588Y714755D01*
X306831Y714755D01*
G37*
%LPD*%
%LPC*%
G36*
X256031Y765555D02*
X256031Y765555D01*
X256031Y772669D01*
X263145Y772669D01*
X263145Y770912D01*
X257788Y765555D01*
X256031Y765555D01*
G37*
%LPD*%
%LPC*%
G36*
X428012Y943355D02*
X428012Y943355D01*
X422655Y948712D01*
X422655Y950469D01*
X429769Y950469D01*
X429769Y943355D01*
X428012Y943355D01*
G37*
%LPD*%
%LPC*%
G36*
X250212Y384555D02*
X250212Y384555D01*
X244855Y389912D01*
X244855Y391669D01*
X251969Y391669D01*
X251969Y384555D01*
X250212Y384555D01*
G37*
%LPD*%
%LPC*%
G36*
X351812Y943355D02*
X351812Y943355D01*
X346455Y948712D01*
X346455Y950469D01*
X353569Y950469D01*
X353569Y943355D01*
X351812Y943355D01*
G37*
%LPD*%
%LPC*%
G36*
X250212Y765555D02*
X250212Y765555D01*
X244855Y770912D01*
X244855Y772669D01*
X251969Y772669D01*
X251969Y765555D01*
X250212Y765555D01*
G37*
%LPD*%
%LPC*%
G36*
X250212Y435355D02*
X250212Y435355D01*
X244855Y440712D01*
X244855Y442469D01*
X251969Y442469D01*
X251969Y435355D01*
X250212Y435355D01*
G37*
%LPD*%
%LPC*%
G36*
X186712Y384555D02*
X186712Y384555D01*
X181355Y389912D01*
X181355Y391669D01*
X188469Y391669D01*
X188469Y384555D01*
X186712Y384555D01*
G37*
%LPD*%
%LPC*%
G36*
X555012Y702055D02*
X555012Y702055D01*
X549655Y707412D01*
X549655Y709169D01*
X556769Y709169D01*
X556769Y702055D01*
X555012Y702055D01*
G37*
%LPD*%
%LPC*%
G36*
X301012Y714755D02*
X301012Y714755D01*
X295655Y720112D01*
X295655Y721869D01*
X302769Y721869D01*
X302769Y714755D01*
X301012Y714755D01*
G37*
%LPD*%
%LPC*%
G36*
X326412Y176275D02*
X326412Y176275D01*
X321055Y181632D01*
X321055Y183389D01*
X328169Y183389D01*
X328169Y176275D01*
X326412Y176275D01*
G37*
%LPD*%
%LPC*%
G36*
X555012Y562355D02*
X555012Y562355D01*
X549655Y567712D01*
X549655Y569469D01*
X556769Y569469D01*
X556769Y562355D01*
X555012Y562355D01*
G37*
%LPD*%
%LPC*%
G36*
X305561Y522731D02*
X305561Y522731D01*
X305561Y529637D01*
X305671Y529620D01*
X307040Y529175D01*
X308323Y528521D01*
X309487Y527675D01*
X310505Y526657D01*
X311351Y525493D01*
X312005Y524210D01*
X312450Y522841D01*
X312467Y522731D01*
X305561Y522731D01*
G37*
%LPD*%
%LPC*%
G36*
X305561Y518669D02*
X305561Y518669D01*
X312467Y518669D01*
X312450Y518559D01*
X312005Y517190D01*
X311351Y515907D01*
X310505Y514743D01*
X309487Y513725D01*
X308323Y512879D01*
X307040Y512225D01*
X305671Y511780D01*
X305561Y511763D01*
X305561Y518669D01*
G37*
%LPD*%
%LPC*%
G36*
X294593Y522731D02*
X294593Y522731D01*
X294610Y522841D01*
X295055Y524210D01*
X295709Y525493D01*
X296555Y526657D01*
X297573Y527675D01*
X298737Y528521D01*
X300020Y529175D01*
X301389Y529620D01*
X301499Y529637D01*
X301499Y522731D01*
X294593Y522731D01*
G37*
%LPD*%
%LPC*%
G36*
X301389Y511780D02*
X301389Y511780D01*
X300020Y512225D01*
X298737Y512879D01*
X297573Y513725D01*
X296555Y514743D01*
X295709Y515907D01*
X295055Y517190D01*
X294610Y518559D01*
X294593Y518669D01*
X301499Y518669D01*
X301499Y511763D01*
X301389Y511780D01*
G37*
%LPD*%
%LPC*%
G36*
X56387Y472693D02*
X56387Y472693D01*
X56387Y472695D01*
X56389Y472695D01*
X56389Y472693D01*
X56387Y472693D01*
G37*
%LPD*%
%LPC*%
G36*
X210311Y340105D02*
X210311Y340105D01*
X210311Y340107D01*
X210313Y340107D01*
X210313Y340105D01*
X210311Y340105D01*
G37*
%LPD*%
%LPC*%
G36*
X324611Y340105D02*
X324611Y340105D01*
X324611Y340107D01*
X324613Y340107D01*
X324613Y340105D01*
X324611Y340105D01*
G37*
%LPD*%
%LPC*%
G36*
X121411Y472693D02*
X121411Y472693D01*
X121411Y472695D01*
X121413Y472695D01*
X121413Y472693D01*
X121411Y472693D01*
G37*
%LPD*%
%LPC*%
G36*
X50799Y342899D02*
X50799Y342899D01*
X50799Y342901D01*
X50801Y342901D01*
X50801Y342899D01*
X50799Y342899D01*
G37*
%LPD*%
%LPC*%
G36*
X571499Y812799D02*
X571499Y812799D01*
X571499Y812801D01*
X571501Y812801D01*
X571501Y812799D01*
X571499Y812799D01*
G37*
%LPD*%
%LPC*%
G36*
X63499Y723899D02*
X63499Y723899D01*
X63499Y723901D01*
X63501Y723901D01*
X63501Y723899D01*
X63499Y723899D01*
G37*
%LPD*%
%LPC*%
G36*
X259587Y340105D02*
X259587Y340105D01*
X259587Y340107D01*
X259589Y340107D01*
X259589Y340105D01*
X259587Y340105D01*
G37*
%LPD*%
%LPC*%
G36*
X145287Y340105D02*
X145287Y340105D01*
X145287Y340107D01*
X145289Y340107D01*
X145289Y340105D01*
X145287Y340105D01*
G37*
%LPD*%
%LPC*%
G36*
X393699Y761049D02*
X393699Y761049D01*
X393699Y761051D01*
X393701Y761051D01*
X393701Y761049D01*
X393699Y761049D01*
G37*
%LPD*%
%LPC*%
G36*
X571499Y901699D02*
X571499Y901699D01*
X571499Y901701D01*
X571501Y901701D01*
X571501Y901699D01*
X571499Y901699D01*
G37*
%LPD*%
%LPC*%
G36*
X393699Y849949D02*
X393699Y849949D01*
X393699Y849951D01*
X393701Y849951D01*
X393701Y849949D01*
X393699Y849949D01*
G37*
%LPD*%
D10*
X444500Y266700D03*
X469900Y266700D03*
X495300Y266700D03*
X520700Y266700D03*
D11*
X444500Y292100D03*
D10*
X469900Y292100D03*
X495300Y292100D03*
X520700Y292100D03*
D12*
X64008Y517906D02*
X48768Y517906D01*
X48768Y472694D02*
X64008Y472694D01*
X113792Y517906D02*
X129032Y517906D01*
X129032Y472694D02*
X113792Y472694D01*
D13*
X254000Y393700D03*
X254000Y444500D03*
D14*
X190500Y444500D03*
X190500Y393700D03*
X317500Y444500D03*
X317500Y393700D03*
D15*
X203200Y698500D03*
X203200Y800100D03*
D12*
X152908Y340106D02*
X137668Y340106D01*
X137668Y294894D02*
X152908Y294894D01*
X202692Y340106D02*
X217932Y340106D01*
X217932Y294894D02*
X202692Y294894D01*
X251968Y340106D02*
X267208Y340106D01*
X267208Y294894D02*
X251968Y294894D01*
X316992Y340106D02*
X332232Y340106D01*
X332232Y294894D02*
X316992Y294894D01*
D16*
X76200Y564896D02*
X76200Y578104D01*
X101600Y578104D02*
X101600Y564896D01*
X127000Y564896D02*
X127000Y578104D01*
X152400Y578104D02*
X152400Y564896D01*
X177800Y564896D02*
X177800Y578104D01*
X203200Y578104D02*
X203200Y564896D01*
X228600Y564896D02*
X228600Y578104D01*
X254000Y578104D02*
X254000Y564896D01*
X279400Y564896D02*
X279400Y578104D01*
X304800Y578104D02*
X304800Y564896D01*
X330200Y564896D02*
X330200Y578104D01*
X355600Y578104D02*
X355600Y564896D01*
X381000Y564896D02*
X381000Y578104D01*
X406400Y578104D02*
X406400Y564896D01*
X406400Y641096D02*
X406400Y654304D01*
X381000Y654304D02*
X381000Y641096D01*
X355600Y641096D02*
X355600Y654304D01*
X330200Y654304D02*
X330200Y641096D01*
X304800Y641096D02*
X304800Y654304D01*
X279400Y654304D02*
X279400Y641096D01*
X254000Y641096D02*
X254000Y654304D01*
X228600Y654304D02*
X228600Y641096D01*
X203200Y641096D02*
X203200Y654304D01*
X177800Y654304D02*
X177800Y641096D01*
X152400Y641096D02*
X152400Y654304D01*
X127000Y654304D02*
X127000Y641096D01*
X101600Y641096D02*
X101600Y654304D01*
X76200Y654304D02*
X76200Y641096D01*
D17*
X193300Y852678D02*
X193300Y874522D01*
X230378Y893600D02*
X252222Y893600D01*
X252222Y833600D02*
X230378Y833600D01*
D18*
X38100Y774700D03*
X63500Y774700D03*
X38100Y749300D03*
X63500Y749300D03*
X38100Y723900D03*
X63500Y723900D03*
D19*
X533400Y711200D03*
X558800Y711200D03*
X533400Y571500D03*
X558800Y571500D03*
D20*
X571500Y901700D03*
X546100Y901700D03*
X520700Y901700D03*
X571500Y812800D03*
X546100Y812800D03*
X520700Y812800D03*
D21*
X303530Y520700D03*
X255270Y520700D03*
D19*
X457200Y228600D03*
X558800Y228600D03*
D13*
X139700Y698500D03*
X139700Y800100D03*
D14*
X469900Y749300D03*
X469900Y647700D03*
X469900Y609600D03*
X469900Y508000D03*
D22*
X177800Y139700D03*
X254000Y139700D03*
X330200Y139700D03*
X406400Y139700D03*
D23*
X363300Y761050D03*
D24*
X393700Y761050D03*
X424100Y761050D03*
D23*
X363300Y849950D03*
D24*
X393700Y849950D03*
X424100Y849950D03*
D13*
X355600Y901700D03*
X355600Y952500D03*
X431800Y901700D03*
X431800Y952500D03*
D25*
X304800Y774700D03*
X254000Y774700D03*
D19*
X254000Y723900D03*
X304800Y723900D03*
D25*
X431800Y228600D03*
X330200Y228600D03*
D22*
X190500Y215900D03*
X266700Y215900D03*
D12*
X58420Y342900D02*
X43180Y342900D01*
X43180Y368300D02*
X58420Y368300D01*
X58420Y393700D02*
X43180Y393700D01*
X537972Y137414D02*
X553212Y137414D01*
X553212Y182626D02*
X537972Y182626D01*
X488188Y137414D02*
X472948Y137414D01*
X472948Y182626D02*
X488188Y182626D01*
D19*
X330200Y185420D03*
X431800Y185420D03*
D26*
X495300Y292100D02*
X469900Y317500D01*
X240538Y317500D01*
X217932Y294894D01*
X210312Y294894D01*
D27*
X279400Y381000D03*
D26*
X355600Y381000D01*
D27*
X355600Y381000D03*
D26*
X444500Y368300D02*
X520700Y292100D01*
X444500Y368300D02*
X50800Y368300D01*
D27*
X228600Y762000D03*
D28*
X228600Y698500D01*
X279400Y647700D01*
D27*
X304800Y698500D03*
D26*
X330200Y673100D01*
X330200Y647700D01*
D27*
X444500Y711200D03*
D26*
X444500Y635000D01*
X177800Y622300D02*
X127000Y571500D01*
X431800Y622300D02*
X444500Y635000D01*
X431800Y622300D02*
X177800Y622300D01*
D27*
X292100Y609600D03*
D26*
X215900Y609600D01*
X177800Y571500D01*
D27*
X254000Y596900D03*
D26*
X228600Y596900D01*
X203200Y571500D01*
D27*
X317500Y469900D03*
D26*
X355600Y508000D01*
X469900Y508000D01*
X324612Y294894D02*
X259588Y294894D01*
X480568Y261755D02*
X480568Y182626D01*
X480568Y261755D02*
X480940Y262127D01*
X480940Y281060D01*
X469900Y292100D01*
M02*
