G04 EAGLE Gerber RS-274X export*
G75*
%MOMM*%
%FSLAX34Y34*%
%LPD*%
%INTop Copper*%
%IPPOS*%
%AMOC8*
5,1,8,0,0,1.08239X$1,22.5*%
G01*
%ADD10C,0.130000*%
%ADD11C,0.152400*%
%ADD12C,1.700000*%
%ADD13R,1.600000X1.600000*%
%ADD14C,1.524000*%
%ADD15P,1.429621X8X112.500000*%
%ADD16P,1.429621X8X292.500000*%
%ADD17C,1.676400*%
%ADD18C,1.320800*%
%ADD19C,2.184400*%
%ADD20P,1.649562X8X292.500000*%
%ADD21P,1.429621X8X22.500000*%
%ADD22C,1.524000*%
%ADD23C,1.320800*%
%ADD24P,2.749271X8X22.500000*%
%ADD25R,1.890000X1.890000*%
%ADD26C,1.890000*%
%ADD27P,1.429621X8X202.500000*%
%ADD28C,0.203200*%
%ADD29C,0.756400*%
%ADD30C,0.508000*%


D10*
X-12700Y101600D02*
X-12700Y-95700D01*
X634800Y-95700D02*
X634800Y101600D01*
X634150Y-76200D02*
X-12050Y-76200D01*
X13300Y-73008D01*
X13300Y-79392D01*
X-12050Y-76200D01*
X13300Y-74900D01*
X13300Y-77500D02*
X-12050Y-76200D01*
X13300Y-73600D01*
X13300Y-78800D02*
X-12050Y-76200D01*
X608800Y-73008D02*
X634150Y-76200D01*
X608800Y-73008D02*
X608800Y-79392D01*
X634150Y-76200D01*
X608800Y-74900D01*
X608800Y-77500D02*
X634150Y-76200D01*
X608800Y-73600D01*
X608800Y-78800D02*
X634150Y-76200D01*
D11*
X285410Y-60662D02*
X279991Y-60662D01*
X285410Y-60662D02*
X285528Y-60664D01*
X285646Y-60670D01*
X285764Y-60679D01*
X285881Y-60693D01*
X285998Y-60710D01*
X286115Y-60731D01*
X286230Y-60756D01*
X286345Y-60785D01*
X286459Y-60818D01*
X286571Y-60854D01*
X286682Y-60894D01*
X286792Y-60937D01*
X286901Y-60984D01*
X287008Y-61034D01*
X287113Y-61089D01*
X287216Y-61146D01*
X287317Y-61207D01*
X287417Y-61271D01*
X287514Y-61338D01*
X287609Y-61408D01*
X287701Y-61482D01*
X287792Y-61558D01*
X287879Y-61638D01*
X287964Y-61720D01*
X288046Y-61805D01*
X288126Y-61892D01*
X288202Y-61983D01*
X288276Y-62075D01*
X288346Y-62170D01*
X288413Y-62267D01*
X288477Y-62367D01*
X288538Y-62468D01*
X288595Y-62571D01*
X288650Y-62676D01*
X288700Y-62783D01*
X288747Y-62892D01*
X288790Y-63002D01*
X288830Y-63113D01*
X288866Y-63225D01*
X288899Y-63339D01*
X288928Y-63454D01*
X288953Y-63569D01*
X288974Y-63686D01*
X288991Y-63803D01*
X289005Y-63920D01*
X289014Y-64038D01*
X289020Y-64156D01*
X289022Y-64274D01*
X289022Y-65177D01*
X289023Y-65177D02*
X289021Y-65310D01*
X289015Y-65442D01*
X289005Y-65574D01*
X288992Y-65706D01*
X288974Y-65838D01*
X288953Y-65968D01*
X288928Y-66099D01*
X288899Y-66228D01*
X288866Y-66356D01*
X288830Y-66484D01*
X288790Y-66610D01*
X288746Y-66735D01*
X288698Y-66859D01*
X288647Y-66981D01*
X288592Y-67102D01*
X288534Y-67221D01*
X288472Y-67339D01*
X288407Y-67454D01*
X288338Y-67568D01*
X288267Y-67679D01*
X288191Y-67788D01*
X288113Y-67895D01*
X288032Y-68000D01*
X287947Y-68102D01*
X287860Y-68202D01*
X287770Y-68299D01*
X287677Y-68394D01*
X287581Y-68485D01*
X287483Y-68574D01*
X287382Y-68660D01*
X287278Y-68743D01*
X287172Y-68823D01*
X287064Y-68899D01*
X286954Y-68973D01*
X286841Y-69043D01*
X286727Y-69110D01*
X286610Y-69173D01*
X286492Y-69233D01*
X286372Y-69290D01*
X286250Y-69343D01*
X286127Y-69392D01*
X286003Y-69438D01*
X285877Y-69480D01*
X285750Y-69518D01*
X285622Y-69553D01*
X285493Y-69584D01*
X285364Y-69611D01*
X285233Y-69634D01*
X285102Y-69654D01*
X284970Y-69669D01*
X284838Y-69681D01*
X284706Y-69689D01*
X284573Y-69693D01*
X284441Y-69693D01*
X284308Y-69689D01*
X284176Y-69681D01*
X284044Y-69669D01*
X283912Y-69654D01*
X283781Y-69634D01*
X283650Y-69611D01*
X283521Y-69584D01*
X283392Y-69553D01*
X283264Y-69518D01*
X283137Y-69480D01*
X283011Y-69438D01*
X282887Y-69392D01*
X282764Y-69343D01*
X282642Y-69290D01*
X282522Y-69233D01*
X282404Y-69173D01*
X282287Y-69110D01*
X282173Y-69043D01*
X282060Y-68973D01*
X281950Y-68899D01*
X281842Y-68823D01*
X281736Y-68743D01*
X281632Y-68660D01*
X281531Y-68574D01*
X281433Y-68485D01*
X281337Y-68394D01*
X281244Y-68299D01*
X281154Y-68202D01*
X281067Y-68102D01*
X280982Y-68000D01*
X280901Y-67895D01*
X280823Y-67788D01*
X280747Y-67679D01*
X280676Y-67568D01*
X280607Y-67454D01*
X280542Y-67339D01*
X280480Y-67221D01*
X280422Y-67102D01*
X280367Y-66981D01*
X280316Y-66859D01*
X280268Y-66735D01*
X280224Y-66610D01*
X280184Y-66484D01*
X280148Y-66356D01*
X280115Y-66228D01*
X280086Y-66099D01*
X280061Y-65968D01*
X280040Y-65838D01*
X280022Y-65706D01*
X280009Y-65574D01*
X279999Y-65442D01*
X279993Y-65310D01*
X279991Y-65177D01*
X279991Y-60662D01*
X279993Y-60485D01*
X280000Y-60307D01*
X280011Y-60130D01*
X280026Y-59954D01*
X280045Y-59778D01*
X280069Y-59602D01*
X280097Y-59427D01*
X280130Y-59252D01*
X280167Y-59079D01*
X280208Y-58906D01*
X280253Y-58735D01*
X280302Y-58565D01*
X280356Y-58396D01*
X280413Y-58228D01*
X280475Y-58062D01*
X280541Y-57897D01*
X280611Y-57734D01*
X280685Y-57573D01*
X280762Y-57414D01*
X280844Y-57256D01*
X280930Y-57101D01*
X281019Y-56948D01*
X281112Y-56797D01*
X281209Y-56648D01*
X281309Y-56502D01*
X281413Y-56358D01*
X281520Y-56217D01*
X281631Y-56079D01*
X281745Y-55943D01*
X281863Y-55810D01*
X281983Y-55680D01*
X282107Y-55553D01*
X282234Y-55429D01*
X282364Y-55309D01*
X282497Y-55191D01*
X282632Y-55077D01*
X282771Y-54966D01*
X282912Y-54859D01*
X283056Y-54755D01*
X283202Y-54655D01*
X283351Y-54558D01*
X283502Y-54465D01*
X283655Y-54376D01*
X283810Y-54290D01*
X283968Y-54208D01*
X284127Y-54131D01*
X284288Y-54057D01*
X284451Y-53987D01*
X284616Y-53921D01*
X284782Y-53859D01*
X284950Y-53802D01*
X285119Y-53748D01*
X285289Y-53699D01*
X285460Y-53654D01*
X285633Y-53613D01*
X285806Y-53576D01*
X285981Y-53543D01*
X286156Y-53515D01*
X286332Y-53491D01*
X286508Y-53472D01*
X286684Y-53457D01*
X286861Y-53446D01*
X287039Y-53439D01*
X287216Y-53437D01*
X299235Y-53437D02*
X295623Y-66081D01*
X304654Y-66081D01*
X301944Y-69693D02*
X301944Y-62468D01*
X310628Y-68790D02*
X310628Y-69693D01*
X310628Y-68790D02*
X311531Y-68790D01*
X311531Y-69693D01*
X310628Y-69693D01*
X317506Y-55243D02*
X317506Y-53437D01*
X326537Y-53437D01*
X322022Y-69693D01*
X333137Y-69693D02*
X338556Y-69693D01*
X338674Y-69691D01*
X338792Y-69685D01*
X338910Y-69676D01*
X339027Y-69662D01*
X339144Y-69645D01*
X339261Y-69624D01*
X339376Y-69599D01*
X339491Y-69570D01*
X339605Y-69537D01*
X339717Y-69501D01*
X339828Y-69461D01*
X339938Y-69418D01*
X340047Y-69371D01*
X340154Y-69321D01*
X340259Y-69266D01*
X340362Y-69209D01*
X340463Y-69148D01*
X340563Y-69084D01*
X340660Y-69017D01*
X340755Y-68947D01*
X340847Y-68873D01*
X340938Y-68797D01*
X341025Y-68717D01*
X341110Y-68635D01*
X341192Y-68550D01*
X341272Y-68463D01*
X341348Y-68372D01*
X341422Y-68280D01*
X341492Y-68185D01*
X341559Y-68088D01*
X341623Y-67988D01*
X341684Y-67887D01*
X341741Y-67784D01*
X341796Y-67679D01*
X341846Y-67572D01*
X341893Y-67463D01*
X341936Y-67353D01*
X341976Y-67242D01*
X342012Y-67130D01*
X342045Y-67016D01*
X342074Y-66901D01*
X342099Y-66786D01*
X342120Y-66669D01*
X342137Y-66552D01*
X342151Y-66435D01*
X342160Y-66317D01*
X342166Y-66199D01*
X342168Y-66081D01*
X342169Y-66081D02*
X342169Y-64274D01*
X342168Y-64274D02*
X342166Y-64156D01*
X342160Y-64038D01*
X342151Y-63920D01*
X342137Y-63803D01*
X342120Y-63686D01*
X342099Y-63569D01*
X342074Y-63454D01*
X342045Y-63339D01*
X342012Y-63225D01*
X341976Y-63113D01*
X341936Y-63002D01*
X341893Y-62892D01*
X341846Y-62783D01*
X341796Y-62676D01*
X341741Y-62571D01*
X341684Y-62468D01*
X341623Y-62367D01*
X341559Y-62267D01*
X341492Y-62170D01*
X341422Y-62075D01*
X341348Y-61983D01*
X341272Y-61892D01*
X341192Y-61805D01*
X341110Y-61720D01*
X341025Y-61638D01*
X340938Y-61558D01*
X340847Y-61482D01*
X340755Y-61408D01*
X340660Y-61338D01*
X340563Y-61271D01*
X340463Y-61207D01*
X340362Y-61146D01*
X340259Y-61089D01*
X340154Y-61034D01*
X340047Y-60984D01*
X339938Y-60937D01*
X339828Y-60894D01*
X339717Y-60854D01*
X339605Y-60818D01*
X339491Y-60785D01*
X339376Y-60756D01*
X339261Y-60731D01*
X339144Y-60710D01*
X339027Y-60693D01*
X338910Y-60679D01*
X338792Y-60670D01*
X338674Y-60664D01*
X338556Y-60662D01*
X333137Y-60662D01*
X333137Y-53437D01*
X342169Y-53437D01*
D10*
X634800Y101600D02*
X743200Y101576D01*
X743400Y1003276D02*
X635000Y1003300D01*
X723900Y1002630D02*
X723700Y102230D01*
X720513Y127581D01*
X726898Y127580D01*
X723700Y102230D01*
X722406Y127581D01*
X725006Y127580D02*
X723700Y102230D01*
X721106Y127581D01*
X726306Y127580D02*
X723700Y102230D01*
X720702Y977281D02*
X723900Y1002630D01*
X720702Y977281D02*
X727087Y977280D01*
X723900Y1002630D01*
X722594Y977281D01*
X725194Y977280D02*
X723900Y1002630D01*
X721294Y977281D01*
X726494Y977280D02*
X723900Y1002630D01*
D11*
X710061Y530404D02*
X710061Y524985D01*
X710059Y524867D01*
X710053Y524749D01*
X710044Y524631D01*
X710030Y524514D01*
X710013Y524397D01*
X709992Y524280D01*
X709967Y524165D01*
X709938Y524050D01*
X709905Y523936D01*
X709869Y523824D01*
X709829Y523713D01*
X709786Y523603D01*
X709739Y523494D01*
X709689Y523387D01*
X709634Y523282D01*
X709577Y523179D01*
X709516Y523078D01*
X709452Y522978D01*
X709385Y522881D01*
X709315Y522786D01*
X709241Y522694D01*
X709165Y522603D01*
X709085Y522516D01*
X709003Y522431D01*
X708918Y522349D01*
X708831Y522269D01*
X708740Y522193D01*
X708648Y522119D01*
X708553Y522049D01*
X708456Y521982D01*
X708356Y521918D01*
X708255Y521857D01*
X708152Y521800D01*
X708047Y521745D01*
X707940Y521695D01*
X707831Y521648D01*
X707721Y521605D01*
X707610Y521565D01*
X707498Y521529D01*
X707384Y521496D01*
X707269Y521467D01*
X707154Y521442D01*
X707037Y521421D01*
X706920Y521404D01*
X706803Y521390D01*
X706685Y521381D01*
X706567Y521375D01*
X706449Y521373D01*
X705546Y521373D01*
X705546Y521372D02*
X705413Y521374D01*
X705281Y521380D01*
X705149Y521390D01*
X705017Y521403D01*
X704885Y521421D01*
X704755Y521442D01*
X704624Y521467D01*
X704495Y521496D01*
X704367Y521529D01*
X704239Y521565D01*
X704113Y521605D01*
X703988Y521649D01*
X703864Y521697D01*
X703742Y521748D01*
X703621Y521803D01*
X703502Y521861D01*
X703384Y521923D01*
X703269Y521988D01*
X703155Y522057D01*
X703044Y522128D01*
X702935Y522204D01*
X702828Y522282D01*
X702723Y522363D01*
X702621Y522448D01*
X702521Y522535D01*
X702424Y522625D01*
X702329Y522718D01*
X702238Y522814D01*
X702149Y522912D01*
X702063Y523013D01*
X701980Y523117D01*
X701900Y523223D01*
X701824Y523331D01*
X701750Y523441D01*
X701680Y523554D01*
X701613Y523668D01*
X701550Y523785D01*
X701490Y523903D01*
X701433Y524023D01*
X701380Y524145D01*
X701331Y524268D01*
X701285Y524392D01*
X701243Y524518D01*
X701205Y524645D01*
X701170Y524773D01*
X701139Y524902D01*
X701112Y525031D01*
X701089Y525162D01*
X701069Y525293D01*
X701054Y525425D01*
X701042Y525557D01*
X701034Y525689D01*
X701030Y525822D01*
X701030Y525954D01*
X701034Y526087D01*
X701042Y526219D01*
X701054Y526351D01*
X701069Y526483D01*
X701089Y526614D01*
X701112Y526745D01*
X701139Y526874D01*
X701170Y527003D01*
X701205Y527131D01*
X701243Y527258D01*
X701285Y527384D01*
X701331Y527508D01*
X701380Y527631D01*
X701433Y527753D01*
X701490Y527873D01*
X701550Y527991D01*
X701613Y528108D01*
X701680Y528222D01*
X701750Y528335D01*
X701824Y528445D01*
X701900Y528553D01*
X701980Y528659D01*
X702063Y528763D01*
X702149Y528864D01*
X702238Y528962D01*
X702329Y529058D01*
X702424Y529151D01*
X702521Y529241D01*
X702621Y529328D01*
X702723Y529413D01*
X702828Y529494D01*
X702935Y529572D01*
X703044Y529648D01*
X703155Y529719D01*
X703269Y529788D01*
X703384Y529853D01*
X703502Y529915D01*
X703621Y529973D01*
X703742Y530028D01*
X703864Y530079D01*
X703988Y530127D01*
X704113Y530171D01*
X704239Y530211D01*
X704367Y530247D01*
X704495Y530280D01*
X704624Y530309D01*
X704755Y530334D01*
X704885Y530355D01*
X705017Y530373D01*
X705149Y530386D01*
X705281Y530396D01*
X705413Y530402D01*
X705546Y530404D01*
X710061Y530404D01*
X710236Y530402D01*
X710410Y530396D01*
X710584Y530385D01*
X710758Y530370D01*
X710932Y530351D01*
X711105Y530328D01*
X711277Y530301D01*
X711449Y530269D01*
X711620Y530234D01*
X711790Y530194D01*
X711959Y530150D01*
X712127Y530102D01*
X712294Y530050D01*
X712459Y529994D01*
X712623Y529934D01*
X712786Y529871D01*
X712946Y529803D01*
X713106Y529731D01*
X713263Y529656D01*
X713419Y529576D01*
X713572Y529493D01*
X713724Y529407D01*
X713873Y529316D01*
X714020Y529222D01*
X714165Y529125D01*
X714308Y529024D01*
X714448Y528920D01*
X714585Y528812D01*
X714720Y528701D01*
X714852Y528587D01*
X714981Y528470D01*
X715108Y528349D01*
X715231Y528226D01*
X715352Y528099D01*
X715469Y527970D01*
X715583Y527838D01*
X715694Y527703D01*
X715802Y527566D01*
X715906Y527426D01*
X716007Y527283D01*
X716104Y527138D01*
X716198Y526991D01*
X716289Y526842D01*
X716375Y526690D01*
X716458Y526537D01*
X716538Y526381D01*
X716613Y526224D01*
X716685Y526064D01*
X716753Y525904D01*
X716816Y525741D01*
X716876Y525577D01*
X716932Y525412D01*
X716984Y525245D01*
X717032Y525077D01*
X717076Y524908D01*
X717116Y524738D01*
X717151Y524567D01*
X717183Y524395D01*
X717210Y524223D01*
X717233Y524050D01*
X717252Y523876D01*
X717267Y523702D01*
X717278Y523528D01*
X717284Y523354D01*
X717286Y523179D01*
X709158Y537004D02*
X708838Y537008D01*
X708519Y537019D01*
X708199Y537038D01*
X707881Y537065D01*
X707563Y537099D01*
X707246Y537141D01*
X706930Y537191D01*
X706615Y537248D01*
X706302Y537312D01*
X705990Y537384D01*
X705680Y537463D01*
X705373Y537550D01*
X705067Y537644D01*
X704764Y537745D01*
X704463Y537854D01*
X704165Y537969D01*
X703869Y538092D01*
X703577Y538222D01*
X703288Y538359D01*
X703287Y538360D02*
X703179Y538399D01*
X703072Y538442D01*
X702967Y538488D01*
X702864Y538538D01*
X702762Y538592D01*
X702662Y538649D01*
X702564Y538710D01*
X702468Y538774D01*
X702375Y538841D01*
X702284Y538911D01*
X702195Y538985D01*
X702109Y539061D01*
X702026Y539141D01*
X701945Y539223D01*
X701867Y539308D01*
X701793Y539395D01*
X701721Y539486D01*
X701652Y539578D01*
X701587Y539673D01*
X701525Y539770D01*
X701466Y539869D01*
X701411Y539970D01*
X701360Y540073D01*
X701312Y540178D01*
X701267Y540284D01*
X701226Y540391D01*
X701189Y540500D01*
X701156Y540611D01*
X701127Y540722D01*
X701101Y540834D01*
X701079Y540947D01*
X701062Y541061D01*
X701048Y541175D01*
X701038Y541290D01*
X701032Y541405D01*
X701030Y541520D01*
X701029Y541520D02*
X701031Y541635D01*
X701037Y541750D01*
X701047Y541865D01*
X701061Y541979D01*
X701078Y542093D01*
X701100Y542206D01*
X701126Y542318D01*
X701155Y542430D01*
X701188Y542540D01*
X701225Y542649D01*
X701266Y542757D01*
X701311Y542863D01*
X701359Y542968D01*
X701410Y543070D01*
X701466Y543172D01*
X701524Y543271D01*
X701586Y543368D01*
X701652Y543463D01*
X701720Y543555D01*
X701792Y543645D01*
X701866Y543733D01*
X701944Y543818D01*
X702025Y543900D01*
X702108Y543979D01*
X702194Y544056D01*
X702283Y544129D01*
X702374Y544200D01*
X702468Y544267D01*
X702563Y544331D01*
X702661Y544392D01*
X702761Y544449D01*
X702863Y544502D01*
X702967Y544553D01*
X703072Y544599D01*
X703179Y544642D01*
X703287Y544681D01*
X703288Y544680D02*
X703577Y544817D01*
X703869Y544947D01*
X704165Y545070D01*
X704463Y545185D01*
X704764Y545294D01*
X705067Y545395D01*
X705373Y545489D01*
X705680Y545576D01*
X705990Y545655D01*
X706302Y545727D01*
X706615Y545791D01*
X706930Y545848D01*
X707246Y545898D01*
X707563Y545940D01*
X707881Y545974D01*
X708199Y546001D01*
X708519Y546020D01*
X708838Y546031D01*
X709158Y546035D01*
X709158Y537004D02*
X709478Y537008D01*
X709797Y537019D01*
X710117Y537038D01*
X710435Y537065D01*
X710753Y537099D01*
X711070Y537141D01*
X711386Y537191D01*
X711701Y537248D01*
X712014Y537312D01*
X712326Y537384D01*
X712636Y537463D01*
X712943Y537550D01*
X713249Y537644D01*
X713552Y537745D01*
X713853Y537854D01*
X714151Y537969D01*
X714447Y538092D01*
X714739Y538222D01*
X715028Y538359D01*
X715136Y538398D01*
X715243Y538441D01*
X715348Y538487D01*
X715452Y538538D01*
X715554Y538591D01*
X715654Y538648D01*
X715752Y538709D01*
X715847Y538773D01*
X715941Y538840D01*
X716032Y538911D01*
X716121Y538984D01*
X716207Y539061D01*
X716290Y539140D01*
X716371Y539222D01*
X716449Y539307D01*
X716523Y539395D01*
X716595Y539485D01*
X716664Y539578D01*
X716729Y539672D01*
X716791Y539769D01*
X716849Y539869D01*
X716905Y539970D01*
X716956Y540072D01*
X717004Y540177D01*
X717049Y540283D01*
X717090Y540391D01*
X717127Y540500D01*
X717160Y540610D01*
X717189Y540722D01*
X717215Y540834D01*
X717237Y540947D01*
X717254Y541061D01*
X717268Y541175D01*
X717278Y541290D01*
X717284Y541405D01*
X717286Y541520D01*
X715028Y544680D02*
X714739Y544817D01*
X714447Y544947D01*
X714151Y545070D01*
X713853Y545185D01*
X713552Y545294D01*
X713249Y545395D01*
X712943Y545489D01*
X712636Y545576D01*
X712326Y545655D01*
X712014Y545727D01*
X711701Y545791D01*
X711386Y545848D01*
X711070Y545898D01*
X710753Y545940D01*
X710435Y545974D01*
X710117Y546001D01*
X709797Y546020D01*
X709478Y546031D01*
X709158Y546035D01*
X715028Y544681D02*
X715136Y544642D01*
X715243Y544599D01*
X715348Y544553D01*
X715452Y544502D01*
X715554Y544449D01*
X715654Y544392D01*
X715752Y544331D01*
X715847Y544267D01*
X715941Y544200D01*
X716032Y544129D01*
X716121Y544056D01*
X716207Y543979D01*
X716290Y543900D01*
X716371Y543818D01*
X716449Y543733D01*
X716523Y543645D01*
X716595Y543555D01*
X716664Y543462D01*
X716729Y543368D01*
X716791Y543271D01*
X716849Y543171D01*
X716905Y543070D01*
X716956Y542967D01*
X717004Y542863D01*
X717049Y542757D01*
X717090Y542649D01*
X717127Y542540D01*
X717160Y542430D01*
X717189Y542318D01*
X717215Y542206D01*
X717237Y542093D01*
X717254Y541979D01*
X717268Y541865D01*
X717278Y541750D01*
X717284Y541635D01*
X717286Y541520D01*
X713674Y537907D02*
X704642Y545132D01*
X716383Y552010D02*
X717286Y552010D01*
X716383Y552010D02*
X716383Y552913D01*
X717286Y552913D01*
X717286Y552010D01*
X704642Y558888D02*
X701030Y563403D01*
X717286Y563403D01*
X717286Y558888D02*
X717286Y567919D01*
X702836Y574519D02*
X701030Y574519D01*
X701030Y583550D01*
X717286Y579035D01*
D12*
X444500Y266700D03*
X469900Y266700D03*
X495300Y266700D03*
X520700Y266700D03*
D13*
X444500Y292100D03*
D12*
X469900Y292100D03*
X495300Y292100D03*
X520700Y292100D03*
D14*
X64008Y517906D02*
X48768Y517906D01*
X48768Y472694D02*
X64008Y472694D01*
X113792Y517906D02*
X129032Y517906D01*
X129032Y472694D02*
X113792Y472694D01*
D15*
X254000Y393700D03*
X254000Y444500D03*
D16*
X190500Y444500D03*
X190500Y393700D03*
X317500Y444500D03*
X317500Y393700D03*
D17*
X203200Y698500D03*
X203200Y800100D03*
D14*
X152908Y340106D02*
X137668Y340106D01*
X137668Y294894D02*
X152908Y294894D01*
X202692Y340106D02*
X217932Y340106D01*
X217932Y294894D02*
X202692Y294894D01*
X251968Y340106D02*
X267208Y340106D01*
X267208Y294894D02*
X251968Y294894D01*
X316992Y340106D02*
X332232Y340106D01*
X332232Y294894D02*
X316992Y294894D01*
D18*
X76200Y564896D02*
X76200Y578104D01*
X101600Y578104D02*
X101600Y564896D01*
X127000Y564896D02*
X127000Y578104D01*
X152400Y578104D02*
X152400Y564896D01*
X177800Y564896D02*
X177800Y578104D01*
X203200Y578104D02*
X203200Y564896D01*
X228600Y564896D02*
X228600Y578104D01*
X254000Y578104D02*
X254000Y564896D01*
X279400Y564896D02*
X279400Y578104D01*
X304800Y578104D02*
X304800Y564896D01*
X330200Y564896D02*
X330200Y578104D01*
X355600Y578104D02*
X355600Y564896D01*
X381000Y564896D02*
X381000Y578104D01*
X406400Y578104D02*
X406400Y564896D01*
X406400Y641096D02*
X406400Y654304D01*
X381000Y654304D02*
X381000Y641096D01*
X355600Y641096D02*
X355600Y654304D01*
X330200Y654304D02*
X330200Y641096D01*
X304800Y641096D02*
X304800Y654304D01*
X279400Y654304D02*
X279400Y641096D01*
X254000Y641096D02*
X254000Y654304D01*
X228600Y654304D02*
X228600Y641096D01*
X203200Y641096D02*
X203200Y654304D01*
X177800Y654304D02*
X177800Y641096D01*
X152400Y641096D02*
X152400Y654304D01*
X127000Y654304D02*
X127000Y641096D01*
X101600Y641096D02*
X101600Y654304D01*
X76200Y654304D02*
X76200Y641096D01*
D19*
X193300Y852678D02*
X193300Y874522D01*
X230378Y893600D02*
X252222Y893600D01*
X252222Y833600D02*
X230378Y833600D01*
D20*
X38100Y774700D03*
X63500Y774700D03*
X38100Y749300D03*
X63500Y749300D03*
X38100Y723900D03*
X63500Y723900D03*
D21*
X533400Y711200D03*
X558800Y711200D03*
X533400Y571500D03*
X558800Y571500D03*
D22*
X571500Y901700D03*
X546100Y901700D03*
X520700Y901700D03*
X571500Y812800D03*
X546100Y812800D03*
X520700Y812800D03*
D23*
X303530Y520700D03*
X255270Y520700D03*
D21*
X457200Y228600D03*
X558800Y228600D03*
D15*
X139700Y698500D03*
X139700Y800100D03*
D16*
X469900Y749300D03*
X469900Y647700D03*
X469900Y609600D03*
X469900Y508000D03*
D24*
X177800Y139700D03*
X254000Y139700D03*
X330200Y139700D03*
X406400Y139700D03*
D25*
X363300Y761050D03*
D26*
X393700Y761050D03*
X424100Y761050D03*
D25*
X363300Y849950D03*
D26*
X393700Y849950D03*
X424100Y849950D03*
D15*
X355600Y901700D03*
X355600Y952500D03*
X431800Y901700D03*
X431800Y952500D03*
D27*
X304800Y774700D03*
X254000Y774700D03*
D21*
X254000Y723900D03*
X304800Y723900D03*
D27*
X431800Y228600D03*
X330200Y228600D03*
D24*
X190500Y215900D03*
X266700Y215900D03*
D14*
X58420Y342900D02*
X43180Y342900D01*
X43180Y368300D02*
X58420Y368300D01*
X58420Y393700D02*
X43180Y393700D01*
X537972Y137414D02*
X553212Y137414D01*
X553212Y182626D02*
X537972Y182626D01*
X488188Y137414D02*
X472948Y137414D01*
X472948Y182626D02*
X488188Y182626D01*
D21*
X330200Y185420D03*
X431800Y185420D03*
D28*
X304800Y521970D02*
X304800Y571500D01*
X304800Y521970D02*
X303530Y520700D01*
X210312Y294894D02*
X145288Y294894D01*
X152400Y393700D02*
X50800Y393700D01*
X152400Y393700D02*
X165100Y381000D01*
X279400Y381000D01*
D29*
X279400Y381000D03*
X355600Y381000D03*
D28*
X355600Y571500D01*
X355600Y381000D02*
X419100Y317500D01*
X419100Y292100D01*
X444500Y266700D01*
D30*
X203200Y840315D02*
X236871Y873986D01*
X203200Y840315D02*
X203200Y800100D01*
X139700Y800100D01*
X114300Y774700D01*
X63500Y774700D01*
X279400Y647700D02*
X279400Y622300D01*
X266700Y609600D01*
X241300Y609600D01*
X228600Y596900D01*
X228600Y571500D01*
X228600Y762000D02*
X228600Y774700D01*
D29*
X228600Y762000D03*
D30*
X228600Y774700D02*
X203200Y800100D01*
X228600Y596900D02*
X236728Y588772D01*
X338328Y588772D02*
X342900Y584200D01*
X342900Y469900D01*
X317500Y444500D01*
X338328Y588772D02*
X236728Y588772D01*
X317500Y444500D02*
X304800Y431800D01*
X304800Y165100D01*
X330200Y139700D01*
X424100Y849950D02*
X400064Y873986D01*
X236871Y873986D01*
X400064Y873986D02*
X427778Y901700D01*
X431800Y901700D01*
X424100Y761050D02*
X424100Y716200D01*
X419100Y711200D01*
X266700Y711200D01*
X254000Y723900D01*
X495300Y266700D02*
X520700Y266700D01*
X508000Y660400D02*
X469900Y660400D01*
X508000Y660400D02*
X546100Y622300D01*
X546100Y241300D02*
X558800Y228600D01*
X469900Y660400D02*
X419100Y711200D01*
X546100Y622300D02*
X546100Y266700D01*
X546100Y241300D01*
X546100Y266700D02*
X520700Y266700D01*
X406400Y139700D02*
X330200Y215900D01*
X330200Y228600D01*
X482600Y254000D02*
X495300Y266700D01*
X482600Y254000D02*
X482600Y215900D01*
X469900Y203200D01*
X419100Y203200D01*
X406400Y190500D01*
X406400Y139700D01*
D28*
X255270Y520700D02*
X279400Y544830D01*
X279400Y571500D01*
X255270Y520700D02*
X190500Y455930D01*
X190500Y444500D01*
X63500Y698500D02*
X38100Y723900D01*
X63500Y698500D02*
X139700Y698500D01*
X203200Y698500D01*
X63500Y698500D02*
X50800Y685800D01*
X50800Y596900D01*
X76200Y571500D01*
X50800Y546100D01*
X50800Y523494D01*
X56388Y517906D01*
X121412Y517906D01*
X304800Y647700D02*
X304800Y660400D01*
X289052Y676148D01*
X250952Y676148D02*
X190500Y736600D01*
X50800Y736600D01*
X38100Y749300D01*
X250952Y676148D02*
X289052Y676148D01*
X190500Y749300D02*
X63500Y749300D01*
X190500Y749300D02*
X254000Y685800D01*
X330200Y685800D01*
X355600Y660400D02*
X355600Y647700D01*
X355600Y660400D02*
X330200Y685800D01*
X50800Y762000D02*
X38100Y774700D01*
X50800Y762000D02*
X190268Y762000D01*
X237512Y714756D01*
X237744Y714756D01*
X254000Y698500D01*
X304800Y698500D01*
D29*
X304800Y698500D03*
D30*
X245900Y833600D02*
X241300Y833600D01*
X245900Y833600D02*
X304800Y774700D01*
X349650Y774700D01*
X363300Y761050D01*
X349650Y774700D02*
X363300Y788350D01*
X363300Y812800D01*
X363300Y849950D01*
X431800Y812800D02*
X520700Y901700D01*
X431800Y812800D02*
X363300Y812800D01*
X495300Y927100D02*
X520700Y901700D01*
X495300Y927100D02*
X381000Y927100D01*
X355600Y901700D01*
D28*
X546100Y901700D02*
X546100Y863600D01*
X444500Y762000D01*
X444500Y711200D01*
D29*
X444500Y711200D03*
D28*
X44560Y495554D02*
X20320Y471314D01*
X20320Y338692D02*
X41766Y317246D01*
X177800Y539606D02*
X177800Y571500D01*
X177800Y539606D02*
X133748Y495554D01*
X44560Y495554D01*
X20320Y471314D02*
X20320Y338692D01*
X41766Y317246D02*
X89154Y317246D01*
X165100Y241300D01*
X431800Y609600D02*
X469900Y647700D01*
X431800Y609600D02*
X292100Y609600D01*
D29*
X292100Y609600D03*
D28*
X165100Y152400D02*
X177800Y139700D01*
X165100Y152400D02*
X165100Y241300D01*
X469900Y508000D02*
X431800Y546100D01*
X431800Y584200D01*
X419100Y596900D01*
X254000Y596900D01*
D29*
X254000Y596900D03*
D28*
X254000Y152400D02*
X254000Y139700D01*
X254000Y152400D02*
X292100Y190500D01*
X292100Y444500D01*
X317500Y469900D01*
D29*
X317500Y469900D03*
D28*
X520700Y711200D02*
X533400Y711200D01*
X520700Y711200D02*
X482600Y749300D01*
X469900Y749300D01*
D30*
X469900Y609600D02*
X495300Y609600D01*
X533400Y571500D01*
X469900Y266700D02*
X431800Y228600D01*
D28*
X416306Y215900D02*
X337312Y294894D01*
X324612Y294894D01*
X416306Y215900D02*
X444500Y215900D01*
X457200Y228600D01*
X480568Y182626D02*
X545592Y182626D01*
X479806Y137414D02*
X431800Y185420D01*
X479806Y137414D02*
X480568Y137414D01*
X545592Y137414D01*
M02*
