G04 EAGLE Gerber RS-274X export*
G75*
%MOMM*%
%FSLAX34Y34*%
%LPD*%
%INSoldermask Bottom*%
%IPPOS*%
%AMOC8*
5,1,8,0,0,1.08239X$1,22.5*%
G01*
%ADD10C,1.903200*%
%ADD11R,1.803200X1.803200*%
%ADD12C,1.727200*%
%ADD13P,1.649562X8X112.500000*%
%ADD14P,1.649562X8X292.500000*%
%ADD15C,1.879600*%
%ADD16C,1.524000*%
%ADD17C,2.387600*%
%ADD18P,1.869504X8X292.500000*%
%ADD19P,1.649562X8X22.500000*%
%ADD20C,1.727200*%
%ADD21C,1.524000*%
%ADD22P,2.969212X8X22.500000*%
%ADD23R,2.093200X2.093200*%
%ADD24C,2.093200*%
%ADD25P,1.649562X8X202.500000*%
%ADD26C,5.203200*%
%ADD27C,0.959600*%


D10*
X444500Y266700D03*
X469900Y266700D03*
X495300Y266700D03*
X520700Y266700D03*
D11*
X444500Y292100D03*
D10*
X469900Y292100D03*
X495300Y292100D03*
X520700Y292100D03*
D12*
X64008Y517906D02*
X48768Y517906D01*
X48768Y472694D02*
X64008Y472694D01*
X113792Y517906D02*
X129032Y517906D01*
X129032Y472694D02*
X113792Y472694D01*
D13*
X254000Y393700D03*
X254000Y444500D03*
D14*
X190500Y444500D03*
X190500Y393700D03*
X317500Y444500D03*
X317500Y393700D03*
D15*
X203200Y698500D03*
X203200Y800100D03*
D12*
X152908Y340106D02*
X137668Y340106D01*
X137668Y294894D02*
X152908Y294894D01*
X202692Y340106D02*
X217932Y340106D01*
X217932Y294894D02*
X202692Y294894D01*
X251968Y340106D02*
X267208Y340106D01*
X267208Y294894D02*
X251968Y294894D01*
X316992Y340106D02*
X332232Y340106D01*
X332232Y294894D02*
X316992Y294894D01*
D16*
X76200Y564896D02*
X76200Y578104D01*
X101600Y578104D02*
X101600Y564896D01*
X127000Y564896D02*
X127000Y578104D01*
X152400Y578104D02*
X152400Y564896D01*
X177800Y564896D02*
X177800Y578104D01*
X203200Y578104D02*
X203200Y564896D01*
X228600Y564896D02*
X228600Y578104D01*
X254000Y578104D02*
X254000Y564896D01*
X279400Y564896D02*
X279400Y578104D01*
X304800Y578104D02*
X304800Y564896D01*
X330200Y564896D02*
X330200Y578104D01*
X355600Y578104D02*
X355600Y564896D01*
X381000Y564896D02*
X381000Y578104D01*
X406400Y578104D02*
X406400Y564896D01*
X406400Y641096D02*
X406400Y654304D01*
X381000Y654304D02*
X381000Y641096D01*
X355600Y641096D02*
X355600Y654304D01*
X330200Y654304D02*
X330200Y641096D01*
X304800Y641096D02*
X304800Y654304D01*
X279400Y654304D02*
X279400Y641096D01*
X254000Y641096D02*
X254000Y654304D01*
X228600Y654304D02*
X228600Y641096D01*
X203200Y641096D02*
X203200Y654304D01*
X177800Y654304D02*
X177800Y641096D01*
X152400Y641096D02*
X152400Y654304D01*
X127000Y654304D02*
X127000Y641096D01*
X101600Y641096D02*
X101600Y654304D01*
X76200Y654304D02*
X76200Y641096D01*
D17*
X193300Y852678D02*
X193300Y874522D01*
X230378Y893600D02*
X252222Y893600D01*
X252222Y833600D02*
X230378Y833600D01*
D18*
X38100Y774700D03*
X63500Y774700D03*
X38100Y749300D03*
X63500Y749300D03*
X38100Y723900D03*
X63500Y723900D03*
D19*
X533400Y711200D03*
X558800Y711200D03*
X533400Y571500D03*
X558800Y571500D03*
D20*
X571500Y901700D03*
X546100Y901700D03*
X520700Y901700D03*
X571500Y812800D03*
X546100Y812800D03*
X520700Y812800D03*
D21*
X303530Y520700D03*
X255270Y520700D03*
D19*
X457200Y228600D03*
X558800Y228600D03*
D13*
X139700Y698500D03*
X139700Y800100D03*
D14*
X469900Y749300D03*
X469900Y647700D03*
X469900Y609600D03*
X469900Y508000D03*
D22*
X177800Y139700D03*
X254000Y139700D03*
X330200Y139700D03*
X406400Y139700D03*
D23*
X363300Y761050D03*
D24*
X393700Y761050D03*
X424100Y761050D03*
D23*
X363300Y849950D03*
D24*
X393700Y849950D03*
X424100Y849950D03*
D13*
X355600Y901700D03*
X355600Y952500D03*
X431800Y901700D03*
X431800Y952500D03*
D25*
X304800Y774700D03*
X254000Y774700D03*
D19*
X254000Y723900D03*
X304800Y723900D03*
D26*
X88900Y901700D03*
X88900Y203200D03*
D25*
X431800Y228600D03*
X330200Y228600D03*
D22*
X190500Y215900D03*
X266700Y215900D03*
D12*
X58420Y342900D02*
X43180Y342900D01*
X43180Y368300D02*
X58420Y368300D01*
X58420Y393700D02*
X43180Y393700D01*
X537972Y137414D02*
X553212Y137414D01*
X553212Y182626D02*
X537972Y182626D01*
X488188Y137414D02*
X472948Y137414D01*
X472948Y182626D02*
X488188Y182626D01*
D19*
X330200Y185420D03*
X431800Y185420D03*
D27*
X279400Y381000D03*
X355600Y381000D03*
X228600Y762000D03*
X304800Y698500D03*
X444500Y711200D03*
X292100Y609600D03*
X254000Y596900D03*
X317500Y469900D03*
M02*
